<svg class="svg-icon__link" width="30px" height="30px" viewBox="0 0 31 31" fill="currentColor" xmlns="http://www.w3.org/2000/svg"><path class="ajcls-1" d="M4 0h23a4 4 0 0 1 4 4v23a4 4 0 0 1-4 4H4a4 4 0 0 1-4-4V4a4 4 0 0 1 4-4zm23 1H4a3 3 0 0 0-3 3v23a3 3 0 0 0 3 3h23a3 3 0 0 0 3-3V4a3 3 0 0 0-3-3z"></path><path class="ajcls-2" d="M19.37 17.51a.66.66 0 0 1 0 .93l-.93.93a.64.64 0 0 1-.47.19.63.63 0 0 1-.46-.19l-2-2-2 2a.67.67 0 0 1-.93 0l-.93-.93a.66.66 0 0 1 0-.93l2-2-2-2a.66.66 0 0 1 0-.93l.93-.93a.67.67 0 0 1 .93 0l2 2 2-2a.63.63 0 0 1 .46-.19.64.64 0 0 1 .47.19l.93.93a.66.66 0 0 1 0 .93l-2 2z"></path></svg>