<svg width="10" height="6" viewBox="0 0.5 10 6" fill="none" xmlns="http://www.w3.org/2000/svg">
  <path d="M4.99994 6.5C4.86833 6.50076 4.73787 6.47554 4.61603 6.42577C4.4942 6.37601 4.38338 6.30268 4.28994 6.21L0.289941 2.21C0.196703 2.11676 0.122742 2.00607 0.0722818 1.88425C0.0218215 1.76243 -0.00415039 1.63186 -0.00415039 1.5C-0.00415039 1.36814 0.0218215 1.23757 0.0722818 1.11575C0.122742 0.99393 0.196703 0.88324 0.289941 0.790002C0.38318 0.696763 0.49387 0.622802 0.615692 0.572342C0.737514 0.521882 0.868082 0.495911 0.999941 0.495911C1.1318 0.495911 1.26237 0.521882 1.38419 0.572342C1.50601 0.622802 1.6167 0.696763 1.70994 0.790002L4.99994 4.1L8.29994 0.920002C8.39193 0.817712 8.50404 0.735503 8.62925 0.678517C8.75447 0.621531 8.89009 0.590994 9.02764 0.588815C9.1652 0.586635 9.30172 0.612861 9.42868 0.665852C9.55563 0.718843 9.67029 0.797459 9.76547 0.896784C9.86066 0.996108 9.93433 1.114 9.98187 1.2431C10.0294 1.37219 10.0498 1.50971 10.0418 1.64704C10.0338 1.78438 9.99747 1.91858 9.93521 2.04126C9.87295 2.16393 9.78605 2.27244 9.67994 2.36L5.67994 6.22C5.49707 6.39632 5.25394 6.49643 4.99994 6.5Z" fill="#2A5395" />
</svg>