<svg width="24" height="26" viewBox="0 0 24 26" fill="white" xmlns="http://www.w3.org/2000/svg">
  <path d="M16.8 14.625C15.2625 14.625 14.5232 15.4375 12 15.4375C9.47679 15.4375 8.74286 14.625 7.2 14.625C3.225 14.625 0 17.682 0 21.45V23.5625C0 24.9082 1.15179 26 2.57143 26H21.4286C22.8482 26 24 24.9082 24 23.5625V21.45C24 17.682 20.775 14.625 16.8 14.625ZM22.2857 23.5625C22.2857 24.0094 21.9 24.375 21.4286 24.375H2.57143C2.1 24.375 1.71429 24.0094 1.71429 23.5625V21.45C1.71429 18.5809 4.17321 16.25 7.2 16.25C8.25 16.25 9.29464 17.0625 12 17.0625C14.7 17.0625 15.75 16.25 16.8 16.25C19.8268 16.25 22.2857 18.5809 22.2857 21.45V23.5625ZM12 13C15.7875 13 18.8571 10.0902 18.8571 6.5C18.8571 2.90977 15.7875 0 12 0C8.2125 0 5.14286 2.90977 5.14286 6.5C5.14286 10.0902 8.2125 13 12 13ZM12 1.625C14.8339 1.625 17.1429 3.81367 17.1429 6.5C17.1429 9.18633 14.8339 11.375 12 11.375C9.16607 11.375 6.85714 9.18633 6.85714 6.5C6.85714 3.81367 9.16607 1.625 12 1.625Z" />
</svg>