<svg width="25" height="31" viewBox="5 2 23 31" fill="currentColor" xmlns="http://www.w3.org/2000/svg">
<path fill-rule="evenodd" clip-rule="evenodd" d="M10.2842 9.56185H8.40214C7.77517 9.56187 7.1715 9.79944 6.71267 10.2267C6.25385 10.654 5.97395 11.2393 5.92935 11.8646L4.71527 28.8646C4.69105 29.2042 4.73702 29.5451 4.85032 29.8661C4.96361 30.1871 5.14181 30.4814 5.3738 30.7305C5.60579 30.9796 5.8866 31.1783 6.19873 31.3142C6.51087 31.45 6.84764 31.5202 7.18806 31.5202H26.8117C27.1521 31.52 27.4888 31.4497 27.8008 31.3138C28.1128 31.1778 28.3936 30.9791 28.6255 30.7301C28.8574 30.481 29.0357 30.1868 29.149 29.8659C29.2624 29.545 29.3085 29.2041 29.2845 28.8646L28.0704 11.8646C28.0258 11.2393 27.7459 10.654 27.2871 10.2267C26.8283 9.79944 26.2246 9.56187 25.5976 9.56185H23.7291V9.20768C23.7291 7.423 23.0201 5.71141 21.7581 4.44944C20.4962 3.18748 18.7846 2.47852 16.9999 2.47852C13.4193 2.47852 10.1099 5.33027 10.2707 9.20768L10.2842 9.56185ZM23.7291 11.6868V16.9993C23.7291 17.2811 23.6171 17.5514 23.4179 17.7506C23.2186 17.9499 22.9484 18.0618 22.6666 18.0618C22.3848 18.0618 22.1145 17.9499 21.9153 17.7506C21.716 17.5514 21.6041 17.2811 21.6041 16.9993V11.6868H12.3957V16.9993C12.3957 17.2811 12.2838 17.5514 12.0845 17.7506C11.8853 17.9499 11.615 18.0618 11.3332 18.0618C11.0514 18.0618 10.7812 17.9499 10.5819 17.7506C10.3827 17.5514 10.2707 17.2811 10.2707 16.9993C10.2707 16.9993 10.3628 14.5166 10.3323 11.6868H8.40214C8.31271 11.687 8.22664 11.7209 8.16121 11.7819C8.09578 11.8429 8.05583 11.9263 8.04939 12.0155L6.8346 29.0155C6.8311 29.0641 6.83764 29.1128 6.85381 29.1587C6.86999 29.2046 6.89546 29.2467 6.92863 29.2823C6.96179 29.318 7.00195 29.3464 7.04659 29.3658C7.09122 29.3852 7.13938 29.3952 7.18806 29.3952H26.8117C26.8603 29.395 26.9084 29.3849 26.9529 29.3654C26.9975 29.3459 27.0375 29.3175 27.0707 29.2819C27.1038 29.2463 27.1293 29.2043 27.1455 29.1585C27.1618 29.1127 27.1685 29.064 27.1652 29.0155L25.9504 12.0155C25.944 11.9263 25.904 11.8429 25.8386 11.7819C25.7731 11.7209 25.6871 11.687 25.5976 11.6868H23.7291ZM21.6041 9.56185V9.20768C21.6041 7.98658 21.119 6.81549 20.2555 5.95204C19.3921 5.0886 18.221 4.60352 16.9999 4.60352C15.7788 4.60352 14.6077 5.0886 13.7443 5.95204C12.8808 6.81549 12.3957 7.98658 12.3957 9.20768V9.56185H21.6041Z" />
</svg>
