<svg viewBox="0 -4 60 65" fill="currentColor" id="purse" xmlns="http://www.w3.org/2000/svg">
            <!-- Первая картинка оплаты -->
            <path class="azcls-1" d="M37.11 37.73a2.78 2.78 0 1 0-2.78 2.78 2.78 2.78 0 0 0 2.78-2.78zM3.71 20.11h40.82a3.72 3.72 0 0 1 3.71 3.71v5.57H34.33a8.35 8.35 0 0 0 0 16.7h13.92v5.57a3.72 3.72 0 0 1-3.71 3.71H3.71A3.72 3.72 0 0 1 0 51.65V23.82a3.72 3.72 0 0 1 3.71-3.71zM52 37.73c0 3.59-.93 6.49-3.71 6.49H34.33a6.49 6.49 0 1 1 0-13h13.92C51 31.24 52 34.15 52 37.73zM32.56 9.41a1.86 1.86 0 0 0-2.37 1.14 1.83 1.83 0 0 0 .23 1.62 1.81 1.81 0 0 0-1.27 1.14 1.86 1.86 0 0 0 3.5 1.23 1.82 1.82 0 0 0-.23-1.62 1.82 1.82 0 0 0 1.27-1.14 1.85 1.85 0 0 0-1.14-2.36zM21.78 3.56l-5.14 14.69H13.2l5.52-15.76A3.71 3.71 0 0 1 23.45.21l14.89 5.21a3.71 3.71 0 0 1 2.28 4.73l-2.83 8.11h-3.45l3.21-9.18a.47.47 0 0 0-.29-.59l-8.72-3.06-4.48 12.82h-4.29l5-14.16-2.34-.82a.47.47 0 0 0-.65.29z"></path>
            <!-- End -->
        </svg>