<svg width="34" height="21" viewBox="0 0 34 21" fill="currentColor" xmlns="http://www.w3.org/2000/svg">
<g clip-path="url(#clip0_2664_582)">
<path fill-rule="evenodd" clip-rule="evenodd" d="M34 15.6908C33.9402 15.9802 33.8871 16.2697 33.8207 16.5526C33.1566 19.3947 30.3875 21.3026 27.4722 20.9605C25.2808 20.7039 23.2953 19.1316 22.6378 17.046C22.6179 16.9868 22.6113 16.921 22.5847 16.8223C23.0894 16.8223 23.5742 16.8355 24.0589 16.8223C25.0617 16.7894 26.0312 16.6381 26.9609 16.2302C29.4644 15.1381 29.3449 11.8684 27.9304 10.6842C27.4855 10.3092 26.9476 10.0394 26.4562 9.72366C27.0671 9.51971 27.7445 9.42761 28.4417 9.4605C31.0648 9.59866 33.2429 11.4079 33.8406 13.9342C33.907 14.2105 33.9535 14.4868 34.0066 14.7631C33.9999 15.0789 34 15.3881 34 15.6908Z" />
<path fill-rule="evenodd" clip-rule="evenodd" d="M0 3.84874C0.205859 3.29611 0.617578 3.10532 1.19531 3.13163C1.86602 3.15795 2.54336 3.13821 3.2207 3.13821C3.87813 3.13821 4.23672 3.48032 4.23672 4.12505C4.23672 7.66453 4.23672 11.2106 4.23672 14.7501C4.23672 15.3948 3.87813 15.7369 3.2207 15.7369C2.54336 15.7369 1.87266 15.7106 1.19531 15.7435C0.617578 15.7698 0.205859 15.579 0 15.0264C0 11.3093 0 7.579 0 3.84874Z"/>
<path fill-rule="evenodd" clip-rule="evenodd" d="M28.309 8.07896C27.5586 8.21054 26.7949 8.27633 26.0778 8.48027C25.4735 8.6579 24.9024 8.97369 24.3379 9.26975C23.9262 9.48685 23.5344 9.51317 23.1492 9.2829C21.9406 8.55264 20.8781 7.66448 20.161 6.36185C19.736 8.0658 18.8926 9.46054 17.3254 10.4869C17.5313 10.4934 17.6442 10.5066 17.7504 10.5066C19.6895 10.5066 21.6219 10.5066 23.561 10.5132C24.3512 10.5132 25.1281 10.579 25.8785 10.8421C27.2067 11.3092 27.7844 12.2895 27.5453 13.6645C27.4125 14.4013 26.9676 14.9013 26.3102 15.2303C25.5199 15.625 24.6633 15.7237 23.8 15.7369C22.1399 15.7566 20.4797 15.7566 18.8196 15.7369C18.1289 15.7303 17.4848 15.8882 16.8473 16.1119C15.652 16.5329 14.4367 16.8421 13.1551 16.7895C10.8973 16.704 8.75237 16.204 6.81995 15.0066C6.31526 14.6908 5.8969 14.2303 5.45862 13.8224C5.37229 13.7434 5.33245 13.5855 5.33245 13.4671C5.32581 10.4671 5.32581 7.46054 5.32581 4.45396C5.32581 4.42106 5.33245 4.38817 5.34573 4.32238C5.56487 4.30922 5.79065 4.28948 6.01643 4.27632C8.06838 4.1908 9.99416 3.59869 11.8469 2.76317C14.2375 1.68422 16.7012 0.828956 19.2246 0.138167C20.7055 -0.269728 21.9938 0.171062 23.0031 1.22369C24.9621 3.26975 26.6555 5.53948 28.216 7.89475C28.2692 7.98027 28.2957 8.05922 28.309 8.07896Z"/>
</g>
<defs>
<clipPath id="clip0_2664_582">
<rect width="34" height="21" fill="white"/>
</clipPath>
</defs>
</svg>
