<?xml version="1.0" encoding="utf-8"?>
<!-- Generator: Adobe Illustrator 16.0.0, SVG Export Plug-In . SVG Version: 6.00 Build 0)  -->
<!DOCTYPE svg PUBLIC "-//W3C//DTD SVG 1.1//EN" "http://www.w3.org/Graphics/SVG/1.1/DTD/svg11.dtd">
<svg version="1.1" xmlns="http://www.w3.org/2000/svg" xmlns:xlink="http://www.w3.org/1999/xlink" x="0px" y="0px"
	 width="52.395px" height="52.394px" viewBox="0 0 52.395 52.394" enable-background="new 0 0 52.395 52.394" xml:space="preserve">
<g id="Layer_1">
</g>
<g id="description">
	<g>
		<path fill-rule="evenodd" clip-rule="evenodd" fill="#367BC5" d="M26.197,0C11.728,0,0,11.728,0,26.197
			s11.728,26.197,26.197,26.197c14.469,0,26.197-11.728,26.197-26.197S40.666,0,26.197,0L26.197,0z M26.197,3.401
			c12.591,0,22.796,10.206,22.796,22.796c0,12.59-10.205,22.796-22.796,22.796S3.401,38.788,3.401,26.197
			C3.401,13.606,13.606,3.401,26.197,3.401z"/>
		<g>
			<path fill-rule="evenodd" clip-rule="evenodd" fill="#367BC5" d="M26.197,22.922c-2.713,0-4.912,2.2-4.912,4.912
				c0,2.713,2.199,4.912,4.912,4.912s4.912-2.199,4.912-4.912C31.109,25.123,28.91,22.922,26.197,22.922L26.197,22.922z
				 M30.252,27.28v1.106c0,0.155-0.053,0.284-0.16,0.392c-0.107,0.107-0.238,0.162-0.392,0.162h-2.396v2.396
				c0,0.153-0.054,0.284-0.162,0.391c-0.106,0.108-0.237,0.162-0.391,0.162h-1.106c-0.154,0-0.283-0.053-0.392-0.162
				c-0.107-0.107-0.162-0.238-0.162-0.391V28.94h-2.396c-0.153,0-0.284-0.055-0.391-0.162c-0.108-0.108-0.162-0.237-0.162-0.392
				V27.28c0-0.153,0.054-0.284,0.162-0.391c0.106-0.108,0.237-0.162,0.391-0.162h2.396v-2.396c0-0.153,0.055-0.284,0.162-0.392
				c0.108-0.107,0.237-0.16,0.392-0.16h1.106c0.153,0,0.284,0.053,0.391,0.16c0.108,0.108,0.162,0.239,0.162,0.392v2.396H29.7
				c0.153,0,0.284,0.053,0.392,0.162C30.199,26.997,30.252,27.127,30.252,27.28z"/>
			<path fill-rule="evenodd" clip-rule="evenodd" fill="#367BC5" d="M37.658,19.647h-7.359c-0.373,0-0.748-1.488-0.827-1.645
				c-0.163-0.328-0.732-1.629-1.638-1.629H24.56c-0.904,0-1.473,1.302-1.637,1.629c-0.078,0.157-0.454,1.645-0.827,1.645h-7.359
				c-0.904,0-1.638,0.741-1.638,1.644v13.1c0,0.905,0.733,1.629,1.638,1.629h22.922c0.905,0,1.638-0.724,1.638-1.629v-13.1
				C39.296,20.388,38.563,19.647,37.658,19.647L37.658,19.647z M26.197,34.384c-3.616,0-6.55-2.931-6.55-6.549
				c0-3.617,2.934-6.549,6.55-6.549c3.618,0,6.55,2.933,6.55,6.549C32.747,31.453,29.815,34.384,26.197,34.384z"/>
		</g>
	</g>
</g>
</svg>
