<svg viewBox="0 0 110 80" id="delivery1" fill="currentColor" xmlns="http://www.w3.org/2000/svg">
            <!-- Первая картинка доставки -->
            <path class="akcls-1" d="M49.5,90.076c-1.632-0.523-2.619-1.741-3.55-3.104
		C38.728,76.37,31.551,65.736,24.179,55.238c-2.424-3.452-3.485-7.113-3.456-11.231c0.032-4.652,0.007-9.303,0.007-13.955
		c0-0.316,0-0.631,0-0.947c-0.059-0.026-0.117-0.052-0.174-0.078c-0.58,0.787-1.165,1.57-1.737,2.363
		c-0.91,1.263-2.154,2.418-2.618,3.831c-0.456,1.383-0.116,3.029-0.119,4.559c-0.005,2.268,0.022,4.535-0.014,6.801
		c-0.028,1.692-1.011,2.912-2.549,3.291c-1.328,0.328-2.812-0.262-3.473-1.497c-0.278-0.522-0.461-1.165-0.467-1.755
		c-0.037-4.18-0.05-8.361,0.017-12.54c0.011-0.686,0.303-1.466,0.705-2.029c2.928-4.093,5.905-8.15,8.892-12.2
		c0.943-1.28,2.272-2.008,3.847-2.029c4.356-0.058,8.713-0.053,13.069-0.022c2.052,0.015,3.519,1.092,4.654,2.755
		c3.882,5.685,7.794,11.351,11.697,17.023c1.232,1.794,2.469,3.586,3.697,5.383c0.35,0.51,0.746,1.002,1.002,1.556
		c0.251,0.549,0.353,1.167,0.551,1.865c0.849,0,1.753-0.01,2.655,0.002c1.434,0.019,1.949,0.535,1.971,1.988
		c0.012,0.849,0.002,1.698,0.002,2.658c1.825,0,3.582-0.008,5.34,0.007c0.436,0.003,0.886,0.028,1.305,0.134
		c0.788,0.198,1.247,0.739,1.375,1.545c0.027,0.174,0.057,0.352,0.057,0.527c0.002,5.062,0.019,10.127-0.011,15.188
		c-0.006,1.516-0.827,2.204-2.468,2.204c-7.183,0.006-14.367,0.003-21.551,0.003c-0.312,0-0.624,0-1.071,0
		c0.247,0.387,0.406,0.656,0.582,0.912c2.609,3.812,5.186,7.649,7.844,11.426c2.001,2.846,0.528,6.252-2.273,6.946
		c-0.074,0.018-0.134,0.102-0.198,0.153C50.678,90.076,50.09,90.076,49.5,90.076z M37.478,27.267
		c-0.07,0.017-0.139,0.032-0.208,0.047c0,0.342,0,0.683,0,1.025c0,9.71,0.048,19.421-0.043,29.131
		c-0.017,1.779,1.036,2.789,2.006,4.009c0-0.282,0-0.566,0-0.849c0-1.735,0.033-3.474-0.007-5.208
		c-0.095-4.051,0.089-4.522,4.359-4.397c1.14,0.033,2.28,0.006,3.52,0.006c0-0.965-0.014-1.838,0.003-2.713
		c0.028-1.4,0.542-1.91,1.929-1.935c0.458-0.009,0.916-0.001,1.576-0.001C46.155,39.896,41.815,33.581,37.478,27.267z
		 M50.222,50.978c3.049,0,6.004,0,8.96,0c0-0.532,0-1.012,0-1.488c-3.019,0-5.974,0-8.96,0C50.222,50,50.222,50.46,50.222,50.978z"></path>
            <path class="akcls-1" d="M11.866,90.076c-0.633-0.351-1.328-0.623-1.885-1.068
		c-1.573-1.257-1.978-3.481-1.033-5.264c0.124-0.233,0.262-0.46,0.41-0.677c5.147-7.556,10.298-15.11,15.447-22.665
		c0.066-0.098,0.146-0.185,0.269-0.339c0.172,0.221,0.338,0.415,0.48,0.622c1.448,2.108,2.881,4.228,4.349,6.322
		c0.31,0.44,0.371,0.749,0.038,1.233c-4.491,6.544-8.966,13.1-13.42,19.67c-0.728,1.073-1.725,1.712-2.889,2.165
		C13.044,90.076,12.455,90.076,11.866,90.076z"></path>
            <path class="akcls-1" d="M30.064-0.388c1.565,0.327,3.03,0.847,4.282,1.91
		c2.493,2.119,3.389,5.791,2.114,8.903c-1.257,3.067-4.438,5.033-7.714,4.765c-3.613-0.294-6.577-2.878-7.156-6.238
		c-0.636-3.684,1.087-7.05,4.468-8.622c0.705-0.328,1.491-0.482,2.239-0.717C28.887-0.388,29.476-0.388,30.064-0.388z"></path>
            <!-- End -->
        </svg>