<svg xmlns="http://www.w3.org/2000/svg" viewBox="0 0 17.78 16" fill="currentColor" ><defs><style>.cls-1{;fill-rule:evenodd;}</style></defs><title>Ресурс 1</title><g id="Слой_2" data-name="Слой 2"><g id="Layer_1" data-name="Layer 1"><path class="cls-1" d="M12.21,13.63l.24.59H5.33l.24-.59Zm5.57-4.7c0-2.41-1.19-3.6-3-3.6a2.11,2.11,0,0,0-1.16.35V3.33a.89.89,0,0,0-.26-.63L10.93.26A.89.89,0,0,0,10.3,0h-5A1.19,1.19,0,0,0,4.15,1.19v4.5A2.11,2.11,0,0,0,3,5.33c-1.8,0-3,1.19-3,3.6v3.81a1.54,1.54,0,0,0,1.59,1.48H2.87l-.4.75a.7.7,0,0,0,.62,1H14.71a.7.7,0,0,0,.62-1l-.4-.75h1.26a1.54,1.54,0,0,0,1.59-1.48V8.93ZM5.33,6.46V1.39a.2.2,0,0,1,.2-.2h4.54V2.67a.89.89,0,0,0,.89.89h1.48v2.9a6.83,6.83,0,0,1-3.56.77,6.83,6.83,0,0,1-3.56-.77Zm8.45,8.05L12.94,13H4.85l-.79,1.48a.2.2,0,0,0,.18.3h9.37a.2.2,0,0,0,.18-.3ZM15.5,9.78a1,1,0,1,1-1-1A1,1,0,0,1,15.5,9.78Z"/></g></g></svg>