<svg width="186" height="134" viewBox="0 0 186 134" fill="none" xmlns="http://www.w3.org/2000/svg">
<g clip-path="url(#clip0_2845_1156)">
<path d="M121.11 50.1396C111.472 50.1396 106.652 45.3203 106.652 35.6816V-3.51562C106.652 -13.1543 111.472 -17.9736 121.11 -17.9736H158.38C168.019 -17.9736 172.838 -13.1543 172.838 -3.51562V35.6816C172.838 58.1719 170.375 77.8776 165.448 94.7988C160.736 111.506 151.312 126.178 137.175 138.815C132.463 142.885 128.5 143.421 125.287 140.422L110.829 126.928C107.616 123.929 108.366 120.288 113.078 116.004C120.361 109.578 126.251 100.368 130.749 88.373C135.461 76.1641 137.817 63.4196 137.817 50.1396H121.11ZM15.085 50.1396C5.44629 50.1396 0.626953 45.3203 0.626953 35.6816V-3.51562C0.626953 -13.1543 5.44629 -17.9736 15.085 -17.9736H52.3545C61.9932 -17.9736 66.8125 -13.1543 66.8125 -3.51562V35.6816C66.8125 58.1719 64.3493 77.8776 59.4229 94.7988C54.7106 111.506 45.2861 126.178 31.1494 138.815C26.4372 142.885 22.4746 143.421 19.2617 140.422L4.80371 126.928C1.59082 123.929 2.34049 120.288 7.05273 116.004C14.3353 109.578 20.2256 100.368 24.7236 88.373C29.4359 76.1641 31.792 63.4196 31.792 50.1396H15.085Z" fill="white"/>
</g>
<defs>
<clipPath id="clip0_2845_1156">
<rect width="186" height="134" fill="white"/>
</clipPath>
</defs>
</svg>
