<svg viewBox="0 0 74.34 59.37" fill="currentColor" id="delivery2" xmlns="http://www.w3.org/2000/svg">
            <!-- Вторая картинка доставки -->
            <path class="alcls-1" d="M36 27.63V0H0v36h19.07v-.28a3.27 3.27 0 0 1 2.23-3.1l14.37-4.89.34-.1zm16.44 6.69a1.48 1.48 0 0 1 1 1.41v20.05a1.48 1.48 0 0 1-1.27 1.47l-14.6 2.09a2.78 2.78 0 0 1-.8 0l-14.62-2.09a1.48 1.48 0 0 1-1.28-1.47V35.73a1.48 1.48 0 0 1 1-1.41l5.26-1.79v7.54l1.69-3.12 2.07 2.31v-8l5.35-1.82a2.84 2.84 0 0 1 1.83 0l14.37 4.89zM46 41.58l1.52.28v5.73h1V44.8v-2.79l1.35.25-.87-2.35-1-2.49-1 2-1 2.13zm-5.62 10.23v2.25l5-.53 4.05-.43v-1.81l-4.05.23-5 .29zm-.67-11.39l2 .37v6.56l1.29.05v-3.19V41l1.75.32-1.15-2.7-1.23-2.89L41.08 38l-1.36 2.41zM51 54.28v-17.5a.45.45 0 0 0-.32-.43l-3.17-.95-5.82-1.74L39 32.8a.45.45 0 0 0-.4.07.44.44 0 0 0-.18.36v22.48a.44.44 0 0 0 .15.34.45.45 0 0 0 .35.11l11.64-1.43a.45.45 0 0 0 .4-.45zM73.26 0H38.33v27.63l.33.1 1.83.62V2.17h31.69v31.68h-17.5a3.28 3.28 0 0 1 .59 1.87V36h19.07V0zm-24 11.64a4.79 4.79 0 0 0 1.9 2 .86.86 0 0 1 .34 1.1c-.23.53-.64 1.29-.39 1.58a2 2 0 0 0 1.88.16 2.47 2.47 0 0 0 .42.76s-.13.25-.55.13a1 1 0 0 1-.06.79 1 1 0 0 1-.7-.54 1.11 1.11 0 0 1-.59.48s-.32-.17-.26-.81a1.23 1.23 0 0 1-1 .67 1 1 0 0 1 .13-1.25 1.27 1.27 0 0 1-1.11.18s-.11-.36.53-.87a1.22 1.22 0 0 1-1-.65 1.18 1.18 0 0 1 1.06-.29 1.21 1.21 0 0 1-.86-1 1.24 1.24 0 0 1 1.31.2 1.9 1.9 0 0 0-.48-.54 2.34 2.34 0 0 1-.61-2.11zm13.28 15.55c.06 0 .29-.07.34 0s0 .2-.16.28-.52.15-.58.06 0-.25.41-.35zm.1.66l.26.33a.06.06 0 0 1-.07.08 1.25 1.25 0 0 1-.53-.16c-.18-.12-.29-.35-.17-.43s.31 0 .51.18zm.05-.27a.34.34 0 0 1 .28 0c.12 0 .56.31.59.43a.16.16 0 0 1-.1.21.87.87 0 0 1-.22.06.33.33 0 0 1-.27-.12 4.65 4.65 0 0 1-.29-.37v-.17zm.46-.3a2.76 2.76 0 0 1 .56 0c.19 0 .41.07.43.17s0 .21-.14.36-.2 0-.28 0a3.55 3.55 0 0 1-.6-.35c-.07-.08-.1-.19 0-.21zM59.6 27a7.55 7.55 0 0 0 1.47.35 4.5 4.5 0 0 0 .9.05.28.28 0 0 0 0 .16.25.25 0 0 0-.05.14 4.72 4.72 0 0 1-.91-.06 8.1 8.1 0 0 1-1.61-.39l.2-.25zm-.82 0a5.28 5.28 0 0 1-1.89-1.81l-.1-.17a.65.65 0 0 0 .36 0v.07A5 5 0 0 0 59 26.74l-.18.25zm5.12-.23a1 1 0 0 0 .33-.79 1.09 1.09 0 1 0-2.18 0v.21s-.23-.51-.26-.58a1.39 1.39 0 0 1 2.59-.24 2.46 2.46 0 0 0-.55-1.23 1.46 1.46 0 0 0-.63-.29 1.33 1.33 0 0 0 1-.47 1.45 1.45 0 0 0 .56-.87 1.81 1.81 0 0 0 .08.82 3.62 3.62 0 0 1 .37 1.87 3.26 3.26 0 0 1-.92 1.61.78.78 0 0 0-.17.39h-1s-.19 0-.18-.13.11-.15.2-.15a1.27 1.27 0 0 0 .68-.15zm.65-4.52c.23.25 0 .63-.42 1s-.81.57-1 .33 0-.63.42-1 .8-.59 1-.33zm-6.3 6.69l.23.34.32-.21v1l-1-.38.32-.22-.12-.2.24-.33zm-.65-.29l-.53-.8-.42.75-.22-.4.61-1.1.18.27.63.95-.24.33zm-.6 1.73l-1.4-2.53-1.09 1.64.32.22-1 .38v-1l.31.21 1.26-1.91.18-.27L57 29.69l2.79-3.91-.3-.22.95-.36v1l-.29-.2L57 30.38zm-.68-3.71a1.13 1.13 0 0 0 .44-.11 2 2 0 0 1-.44.64 2 2 0 0 1-.44-.64 1.1 1.1 0 0 0 .44.11zm0-1.85a4.69 4.69 0 0 0 .79 1.12c.21.2.74.72 1 1a3.45 3.45 0 0 1-1.25-.61 1.41 1.41 0 0 1-.55.19 1.42 1.42 0 0 1-.55-.19 3.43 3.43 0 0 1-1.25.61l1-1a4.88 4.88 0 0 0 .79-1.12zm.87-1.61a1.06 1.06 0 0 1 .44.46 2.44 2.44 0 0 0 .79.69 1 1 0 0 1 .37.5c-.63 0-1-.68-1.22-.91s-.29-.25-.29-.25c0 .62.54 1 .92 1.29a.88.88 0 0 1 .41.61c-1.28-.14-1.61-1.8-1.61-1.8a1.78 1.78 0 0 0 .23-.59zm4.73 4a4.12 4.12 0 0 0-.25-.79c-.23-.49-.8-1.79-2-2-.11 0 .13-.3.23-.28a1.46 1.46 0 0 1 .41.21V24s0-.07.09-.07.33 0 .42.1a8.35 8.35 0 0 1 1 1.78c.26.63.44.82.71.72s.43-.41.91-.32a1 1 0 0 1 .49.31c0 .08-.09.17-.31.17a1.85 1.85 0 0 0-.88.26 1.61 1.61 0 0 1-.83.26zm-3.36-4.06a.59.59 0 0 0 .23 0s.51.35.58.71a.43.43 0 0 1-.19.49c-.08 0-.43.18-.67-.3 0 0 .4.13.5-.06s-.07-.47-.17-.55a.84.84 0 0 0-.55-.15 1.33 1.33 0 0 1 .27-.19zm1.5.37a2.16 2.16 0 0 0-.49.22.32.32 0 0 1-.14-.13c0-.09-.25-.38-.43-.42a1.39 1.39 0 0 0 .24 0 3 3 0 0 1 .32.1 2.82 2.82 0 0 1 .5.26zm-.52.81a.24.24 0 0 1-.07-.28c0-.11.25-.22.38-.28s.79-.25 1-.31a1.23 1.23 0 0 1 .15.23s0 .09-.09.1-.55 0-.65 0-.07.16-.07.25a.54.54 0 0 0-.29-.08c-.16 0-.25.1-.34.36zM59 22.64c.26.09.84.19 1.09.26a1.38 1.38 0 0 1 .66.46l-.55.16a3.55 3.55 0 0 0-.64-.34c-.22-.08-.32-.31-.55-.54zm-.82-.52a.7.7 0 0 0 .14-.48s.48.31.63.42a4.12 4.12 0 0 1 .52.53s-.37-.08-.65-.17a3.31 3.31 0 0 1-.64-.31zm-.28.28a1 1 0 0 0 .19-.16 2.67 2.67 0 0 1 .51.26 3.5 3.5 0 0 1 .58.55 1 1 0 0 1-.56 0 .85.85 0 0 0-.32-.48c-.06 0-.23-.08-.39-.16zm-.9-.7a2.37 2.37 0 0 0 1.14 1 .58.58 0 0 1 .36.42c-.13.06-.18.22-.45.22s-.61-.29-.82-.67a2.65 2.65 0 0 1-.23-.97zm.7-.7a4 4 0 0 0 .38.49.38.38 0 0 1 .05.43 1 1 0 0 1-.32.37c-.35-.25-.41-.48-.37-.68s.19-.44.25-.62zm-7.58 6.21c.38.1.47.26.41.35s-.4 0-.58-.06-.22-.19-.16-.28.28 0 .34 0zm-.1.66c.2-.22.39-.26.51-.18s0 .31-.17.43a1.27 1.27 0 0 1-.53.16.06.06 0 0 1-.07-.08l.26-.33zm-.02-.3v.17c0 .06-.23.31-.29.38a.34.34 0 0 1-.27.13.83.83 0 0 1-.21-.06.17.17 0 0 1-.1-.21c0-.12.47-.38.59-.43a.35.35 0 0 1 .29 0zm-.46-.3c.14 0 .11.14 0 .21a3.5 3.5 0 0 1-.6.35c-.08 0-.22.08-.28 0s-.16-.26-.14-.36.24-.14.43-.17a2.76 2.76 0 0 1 .56 0zm4.34-.27l-.18-.25a5 5 0 0 0 1.76-1.64l.05-.07a.64.64 0 0 0 .36 0l-.11.17A5.25 5.25 0 0 1 53.88 27zm-.82 0l.18.25a8 8 0 0 1-1.61.39 4.68 4.68 0 0 1-.91.06.25.25 0 0 0-.06-.14.27.27 0 0 0 0-.16 4.49 4.49 0 0 0 .9-.05 7.52 7.52 0 0 0 1.5-.35zm-4.3-.27a1.28 1.28 0 0 0 .69.15c.09 0 .19 0 .19.15s-.18.13-.18.13h-1a.78.78 0 0 0-.17-.39 3.28 3.28 0 0 1-.91-1.61 3.58 3.58 0 0 1 .37-1.87 1.82 1.82 0 0 0 .08-.82 1.44 1.44 0 0 0 .56.87 1.33 1.33 0 0 0 1 .47 1.46 1.46 0 0 0-.63.29 2.42 2.42 0 0 0-.55 1.23 1.39 1.39 0 0 1 2.59.24c0 .07-.22.49-.26.58s0-.13 0-.21a1.09 1.09 0 1 0-2.18 0 1 1 0 0 0 .34.79zm-.64-4.52c.23-.25.63 0 1 .33s.65.74.42 1-.63 0-1-.33-.65-.74-.42-1zm6.52 6.08l-.23.34-1.9-2.63-.32.23v-1l.95.36-.3.22 1.82 2.56zm.2.94l.23-.34.53.76.42-.76.21.38-.6 1.07-.8-1.11zm.62-6.06a1.75 1.75 0 0 0 .23.59s-.36 1.66-1.67 1.79a.89.89 0 0 1 .41-.61c.39-.26 1-.67.92-1.29 0 0-.1 0-.29.25s-.59.9-1.22.91a1 1 0 0 1 .37-.5 2.48 2.48 0 0 0 .79-.69 1.06 1.06 0 0 1 .44-.46zm-4.73 4a1.62 1.62 0 0 1-.83-.26 1.84 1.84 0 0 0-.88-.26.29.29 0 0 1-.31-.17 1 1 0 0 1 .49-.31c.47-.09.64.22.91.32s.45-.1.71-.72a8.26 8.26 0 0 1 1-1.78c.09-.1.38-.1.42-.1s.09 0 .1.07 0 .33 0 .33a1.44 1.44 0 0 1 .41-.21c.1 0 .34.26.23.28-1.18.23-1.75 1.54-2 2a4.08 4.08 0 0 0-.25.79zm3.36-4.06a1.35 1.35 0 0 1 .27.19.84.84 0 0 0-.55.15c-.11.08-.28.36-.18.55s.5.06.5.06c-.23.48-.59.33-.67.3a.43.43 0 0 1-.19-.49c.06-.35.57-.71.57-.71a.63.63 0 0 0 .23 0zm-1.5.37a2.79 2.79 0 0 1 .5-.26 3.19 3.19 0 0 1 .32-.1 1.45 1.45 0 0 0 .24 0c-.18 0-.38.33-.43.42a.33.33 0 0 1-.15.13 2.14 2.14 0 0 0-.49-.22zm.52.81c-.09-.26-.19-.33-.34-.36a.54.54 0 0 0-.29.08c0-.09 0-.18-.07-.25s-.48 0-.65 0-.11-.06-.09-.1a1.25 1.25 0 0 1 .15-.23 10.29 10.29 0 0 1 1 .31c.13.06.34.18.38.28a.24.24 0 0 1-.07.28zm.54-1.73c-.23.23-.34.46-.55.54a3.47 3.47 0 0 0-.64.34l-.55-.16a1.39 1.39 0 0 1 .66-.46c.25-.07.83-.17 1.09-.26zm.82-.52a3.11 3.11 0 0 1-.63.31c-.28.09-.65.17-.65.17a4.19 4.19 0 0 1 .52-.53c.14-.12.63-.42.63-.42a.72.72 0 0 0 .14.48zm.29.28c-.16.08-.33.13-.38.16A.85.85 0 0 0 54 23a1 1 0 0 1-.56 0 3.31 3.31 0 0 1 .57-.55 2.77 2.77 0 0 1 .51-.26 1 1 0 0 0 .19.16zm.94-.7a2.67 2.67 0 0 1-.23.92c-.22.38-.54.67-.83.67s-.31-.16-.45-.22a.58.58 0 0 1 .36-.42 2.38 2.38 0 0 0 1.14-1zM55 21c.06.18.23.52.25.62s0 .43-.36.68a1 1 0 0 1-.32-.37.38.38 0 0 1 .05-.43A3.88 3.88 0 0 0 55 21zm1.73 3.24c0 .49.52.67.52.67-.18.07-.39.1-.73-.22a.84.84 0 0 1-.14-.19.76.76 0 0 1-.14.19c-.33.32-.54.28-.73.22 0 0 .55-.19.51-.67a4.15 4.15 0 0 0-.35-1 1.06 1.06 0 0 1 .18-.86 7.63 7.63 0 0 0 .52 1.34 7.9 7.9 0 0 0 .52-1.34 1.05 1.05 0 0 1 .18.86 4.14 4.14 0 0 0-.36 1zm1.23-4.48c.41.39.45.7.41.89a5 5 0 0 1-.25.61 3.75 3.75 0 0 1-.4-.73 1.26 1.26 0 0 1 .25-.77zm-1 .06s.52.63.5 1-.29.68-.33.94a3.31 3.31 0 0 1-.37-.51 1.15 1.15 0 0 1-.17-.69 1 1 0 0 1 .37-.7zm-.63 3.42a5.62 5.62 0 0 1-.43-1.41 2 2 0 0 1 .43-1 1.93 1.93 0 0 1 .43 1 5.4 5.4 0 0 1-.43 1.41zm2.11-4.9c.07.15.18.37.24.54a1.06 1.06 0 0 1 0 .6 3 3 0 0 1-.35.55c0-.13-.15-.26-.25-.48a.79.79 0 0 1 0-.61c.05-.19.28-.39.38-.6zm-1.05 0c.08.17.28.35.37.52a.9.9 0 0 1 0 .62 2 2 0 0 1-.45.6c-.11-.19-.27-.44-.32-.56a.86.86 0 0 1 0-.46 3.3 3.3 0 0 1 .4-.72zm-1.05 1.86c0-.15-.27-.34-.37-.61a.62.62 0 0 1 0-.47c.08-.15.34-.51.36-.61 0 .1.29.47.37.61a.63.63 0 0 1 0 .47c-.1.27-.33.45-.37.61zM58 16.89a4.5 4.5 0 0 0 .5.75 1.87 1.87 0 0 1-.18.5 2.15 2.15 0 0 1-.47.6s-.25-.44-.32-.63a.77.77 0 0 1 0-.52c.08-.19.38-.46.51-.7zm1.16.27a1.75 1.75 0 0 1-.31.26.34.34 0 0 1-.26.07c0-.13.29-.59.29-.59a3.56 3.56 0 0 0 .28.27zm.09-.11a.66.66 0 0 1-.27-.34A2.63 2.63 0 0 1 59 16a.88.88 0 0 0 .69-.05 2.5 2.5 0 0 1-.4 1.06zm-.88-1.5a1.76 1.76 0 0 0 .43.42 2.4 2.4 0 0 1 0 .52 3.91 3.91 0 0 1-.32.86 2.22 2.22 0 0 1-.37-.7v-.59c0-.12.19-.3.29-.51zm-1 1.77a1.7 1.7 0 0 0-.4-.66 1 1 0 0 1 .53-1.13 2.45 2.45 0 0 1 .4.81c.09.39-.33.63-.53 1zm-.49-.39a1.4 1.4 0 0 1 .35 1.12 1.56 1.56 0 0 1-.52.75 2.64 2.64 0 0 1-.3-1.06c0-.21.37-.54.47-.81zm-.58.55c-.05-.23-.53-.68-.49-.93s.31-.29.49-.45c.18.15.42.08.49.45s-.44.69-.49.93zm0-1.48a.62.62 0 0 1-.32-.28.87.87 0 0 1-.14-.61 1.91 1.91 0 0 1 .27-.49 1.16 1.16 0 0 0 .18.15 1 1 0 0 0 .18-.15 2 2 0 0 1 .27.49.9.9 0 0 1-.14.61.66.66 0 0 1-.32.28zm1.82-2.61a1.15 1.15 0 0 0 1.1.9.52.52 0 0 1-.75.26.87.87 0 0 1-.35-.53 1.32 1.32 0 0 1 0-.63zm-.42.37c.53.89 1.06 1.35 1.47 1.33s.54-.55.54-.55a.88.88 0 0 1 .12.84.78.78 0 0 1-.67.51c-.19 0-.47-.16-.82-.6a3.55 3.55 0 0 1-.63-1.53zm-.13.15a4.29 4.29 0 0 0 .24.85 4.57 4.57 0 0 0 .39.64 3 3 0 0 1-.27.48 7.68 7.68 0 0 1-.41-.89 1.37 1.37 0 0 1-.12-.61 1 1 0 0 1 .17-.46zm-.73.25a4.69 4.69 0 0 1 .49.65.63.63 0 0 1 0 .55 1.92 1.92 0 0 1-.61.56 1.4 1.4 0 0 0 .22-.72c0-.2-.17-.39-.2-.52a.87.87 0 0 1 .08-.53zm-.53.42a1.22 1.22 0 0 1-.31-.42.41.41 0 0 1 0-.4 1.08 1.08 0 0 0 .27-.45c0 .14.15.3.27.45a.43.43 0 0 1 0 .4 1.3 1.3 0 0 1-.32.42zm.69-2.41c.14.45.31.89.35 1a1.81 1.81 0 0 1 .06.6 1.47 1.47 0 0 1-.22.39 3.74 3.74 0 0 0-.46-.61.61.61 0 0 1-.1-.54 6.19 6.19 0 0 1 .37-.86zm-.69.93c0-.19-.47-.67-.45-.93s.37-.44.45-.48c.08 0 .43.22.45.48s-.44.74-.45.93zm1.31-.94a.84.84 0 0 1 .35.7 4.25 4.25 0 0 1-.08.92c-.14-.29-.36-.43-.46-.77a1.23 1.23 0 0 1 .2-.85zm1.42-.75l.3.07a1.51 1.51 0 0 0-.41.19.81.81 0 0 0-.26.49 3.26 3.26 0 0 1-.34.84 2.12 2.12 0 0 0-.15-.81 1.37 1.37 0 0 0 .32-.28 1.67 1.67 0 0 1 .56-.5zm-1.66-.58a1.85 1.85 0 0 1-.43.62 1.1 1.1 0 0 1-.48.22 1.19 1.19 0 0 1 .45-.74 1.12 1.12 0 0 1 .47-.1zm.52-.11a3.38 3.38 0 0 1-.41.88 1.46 1.46 0 0 0-.22.71 1.34 1.34 0 0 1-.1-.8 1.3 1.3 0 0 1 .73-.8zm2.73-3.25a.52.52 0 0 0 .06.28c.06.13.27.44.34.58a.81.81 0 0 1 .13.58c-.05.29-.52.4-.52.4a.53.53 0 0 0 .17-.3.85.85 0 0 0-.19-.51 1.8 1.8 0 0 1-.24-.61.69.69 0 0 1 .26-.43zm1.13.46a.54.54 0 0 1-.27 0 1.88 1.88 0 0 1-.49-.36.42.42 0 0 0-.28-.13.44.44 0 0 1 .39-.1 1.85 1.85 0 0 1 .7.44.37.37 0 0 1 0 .16zm0 2.2a3 3 0 0 0-.16-.66 1.29 1.29 0 0 1 .08-.93 1.25 1.25 0 0 0 .16-.71 2 2 0 0 1 .38.17 1.51 1.51 0 0 1-.22.74 1.06 1.06 0 0 0-.05.6 1.16 1.16 0 0 1-.19.8zm.36-.66a1.31 1.31 0 0 0 0-.16 1.19 1.19 0 0 1 0-.36c.19.07.31.12.57.53 0 0-.41-.25-.55 0zm-6.19-3.54h.26v-.28h.21v.29h.26v.18h-.26v.34h-.21v-.35h-.26v-.18zM59 7.63h.26v-.29h.21v.29h.26v.18h-.26v.33h-.17v-.33H59v-.18zm.21 1.56h-.25a5.64 5.64 0 0 1-.41-.66.14.14 0 0 1 .12-.18.46.46 0 0 1 .32.1 2.19 2.19 0 0 1 .21.72zm.29 0a2.13 2.13 0 0 1 .21-.72.47.47 0 0 1 .33-.1.14.14 0 0 1 .12.18 6.68 6.68 0 0 1-.41.66h-.25zm-.17-1c.08 0 .22 0 .22.16a2.84 2.84 0 0 1-.24.55 2.85 2.85 0 0 1-.24-.55c0-.12.15-.16.22-.16zm0 2.61a2.5 2.5 0 0 1-.67.63 1.64 1.64 0 0 0-.43.41.79.79 0 0 1 .4-.74 2.93 2.93 0 0 1 .7-.29zm-.63.2a3.12 3.12 0 0 0-.55.45 2.32 2.32 0 0 0-.41.61.59.59 0 0 1-.1-.32 4.48 4.48 0 0 0 .46-.81l.26-.05v.22l.35-.1zm.88-.17a1 1 0 0 1 .71.4c.2.28-.08.7-.08.7a1.06 1.06 0 0 0-1-.69 2.8 2.8 0 0 0 .37-.41zm1.13-.93c.17 0 .53-.08.7.15a.64.64 0 0 1-.23.86.89.89 0 0 0-1.09 0 1.53 1.53 0 0 0-.45-.16 1.38 1.38 0 0 1 .36-.35c.19-.08.57-.19.68-.54zm.2.56a.13.13 0 1 1-.13-.13.13.13 0 0 1 .13.13zm-.74-.81c.31-.09.29 0 .21.24a1.38 1.38 0 0 1-.38.43 1.91 1.91 0 0 0 .17-.67zm-1 1.14a2.12 2.12 0 0 0 0-.25 2.48 2.48 0 0 1-.75.39.86.86 0 0 1 .05-.25.61.61 0 0 1-.33.11 1.19 1.19 0 0 1 .13-.35.52.52 0 0 1-.34.2.94.94 0 0 1 0-.33 1 1 0 0 1-.65.43.63.63 0 0 1-.63-.15 1.25 1.25 0 0 0 .82-.38.56.56 0 0 1-.29-.25.42.42 0 0 1 .26-.11.53.53 0 0 1-.3-.31A7.48 7.48 0 0 0 59 9.7a3 3 0 0 0 1-.17c-.06 1.14-.84 1.22-.84 1.22zm.17-.44c0-.34-.7-.34-.7-.34a6.06 6.06 0 0 0 .9 0 .49.49 0 0 1-.2.34zm-2.62-1.58a1.45 1.45 0 0 1 .86.21 1.28 1.28 0 0 1 .44.51 1.7 1.7 0 0 1-.89-.21 1.1 1.1 0 0 1-.41-.51zm.25.15a.73.73 0 0 1 .61.39 1.58 1.58 0 0 1-.58-.39zm-.26-.77h-.21A9.13 9.13 0 0 1 56.74 7c.07-.23.16-.39.31-.43a4.8 4.8 0 0 0-.18.65c-.07.33-.11.65-.16 1zm.5.14a1.17 1.17 0 0 0-.38-.13 4.36 4.36 0 0 1 .32-1.35.3.3 0 0 1 .28 0c.11 0 .22.1.23.2a5.3 5.3 0 0 1-.45 1.29zm-.87-.51c0-.24-.31-.74-.31-1a.31.31 0 0 1 .63 0c0 .22-.27.72-.31 1zm3.59 1.62c0 .05-.24.09-.53.09s-.53 0-.53-.09.24-.1.53-.1.53 0 .53.1zm-5.18 10.33a1.24 1.24 0 0 1 .25.77 3.68 3.68 0 0 1-.41.73 4.76 4.76 0 0 1-.25-.61c0-.19 0-.51.41-.89zm1 .06a1 1 0 0 1 .37.7 1.17 1.17 0 0 1-.17.69 3.18 3.18 0 0 1-.37.51c0-.26-.31-.53-.33-.94s.51-1 .51-1zm-1.48-1.48c.1.21.33.42.38.6a.79.79 0 0 1 0 .61c-.1.22-.2.35-.24.48a3.1 3.1 0 0 1-.35-.55 1.1 1.1 0 0 1 0-.6c.06-.17.17-.39.24-.54zm1.05 0a3.35 3.35 0 0 1 .4.72.85.85 0 0 1 0 .46c-.05.13-.21.38-.32.56a2 2 0 0 1-.45-.6.87.87 0 0 1 0-.62c.09-.17.28-.35.37-.52zm-.61-1.48c.13.24.42.51.51.7a.78.78 0 0 1 0 .52c-.07.19-.32.63-.32.63a2.19 2.19 0 0 1-.47-.6 1.86 1.86 0 0 1-.18-.5 4.55 4.55 0 0 0 .51-.75zm-1.16.27a2.79 2.79 0 0 0 .27-.27s.25.46.3.59a.34.34 0 0 1-.26-.07 1.84 1.84 0 0 1-.3-.26zm-.14-.1a2.57 2.57 0 0 1-.41-1 .89.89 0 0 0 .7.05 2.62 2.62 0 0 1 0 .67.66.66 0 0 1-.27.34zm.89-1.5c.1.21.29.51.29.51v.59a2.29 2.29 0 0 1-.37.7 3.87 3.87 0 0 1-.32-.86 2.3 2.3 0 0 1 0-.52 1.76 1.76 0 0 0 .43-.42zm1 1.77c-.19-.35-.61-.59-.53-1a2.43 2.43 0 0 1 .4-.81 1 1 0 0 1 .53 1.13 1.72 1.72 0 0 0-.4.66zm.49-.39c.1.27.47.6.47.81a2.64 2.64 0 0 1-.3 1.06 1.55 1.55 0 0 1-.51-.75 1.4 1.4 0 0 1 .35-1.12zm-1.23-3.55a1.31 1.31 0 0 1 0 .63.88.88 0 0 1-.35.53.52.52 0 0 1-.75-.26 1.15 1.15 0 0 0 1.1-.9zm.42.37a3.53 3.53 0 0 1-.64 1.53c-.35.44-.63.6-.82.6a.77.77 0 0 1-.66-.51.86.86 0 0 1 .12-.84s.17.53.53.55.94-.44 1.47-1.33zm.12.15a1 1 0 0 1 .17.46 1.35 1.35 0 0 1-.12.61 7.8 7.8 0 0 1-.42.89 3.18 3.18 0 0 1-.27-.48 4.34 4.34 0 0 0 .39-.64 4.18 4.18 0 0 0 .24-.85zm.73.25a.9.9 0 0 1 .08.53c0 .13-.19.31-.21.52a1.45 1.45 0 0 0 .23.72 2 2 0 0 1-.61-.56.63.63 0 0 1 0-.55 4.32 4.32 0 0 1 .49-.65zm-.16-2a6.57 6.57 0 0 1 .33.9.6.6 0 0 1-.11.54 4.2 4.2 0 0 0-.46.61 1.49 1.49 0 0 1-.22-.39 1.88 1.88 0 0 1 .06-.6c0-.13.21-.57.35-1zm-.62 0a1.2 1.2 0 0 1 .19.85c-.09.34-.31.48-.45.77a4.3 4.3 0 0 1-.09-.92.84.84 0 0 1 .35-.7zm-1.42-.75a1.69 1.69 0 0 1 .56.5 1.39 1.39 0 0 0 .32.28 2.05 2.05 0 0 0-.15.81 3.18 3.18 0 0 1-.33-.84.82.82 0 0 0-.26-.49 1.46 1.46 0 0 0-.41-.19l.31-.07zm1.66-.58a1.11 1.11 0 0 1 .47.1 1.19 1.19 0 0 1 .45.74 1.1 1.1 0 0 1-.48-.22 1.85 1.85 0 0 1-.43-.62zm-.52-.11a1.3 1.3 0 0 1 .73.8 1.36 1.36 0 0 1-.11.8 1.55 1.55 0 0 0-.22-.71 3.4 3.4 0 0 1-.41-.88zM52 7.47a.7.7 0 0 1 .26.43 1.83 1.83 0 0 1-.26.6.89.89 0 0 0-.19.51.52.52 0 0 0 .16.3s-.47-.11-.52-.4a.81.81 0 0 1 .13-.58c.07-.14.29-.45.34-.58a.51.51 0 0 0 .08-.28zm-1.13.46a.34.34 0 0 1 0-.16 1.84 1.84 0 0 1 .7-.44.45.45 0 0 1 .39.1.43.43 0 0 0-.28.13 1.87 1.87 0 0 1-.55.35.53.53 0 0 1-.27 0zm0 2.2a1.15 1.15 0 0 1-.19-.8 1.08 1.08 0 0 0-.05-.6 1.49 1.49 0 0 1-.26-.73 2.16 2.16 0 0 1 .38-.17 1.31 1.31 0 0 0 .17.71 1.3 1.3 0 0 1 .08.93 2.86 2.86 0 0 0-.16.66zm-.36-.66c-.14-.24-.55 0-.55 0 .26-.41.38-.46.57-.53a1.31 1.31 0 0 1 0 .36v.16zm3.14-1.85v.18h-.26v.33h-.21v-.32h-.26v-.18h.26v-.29h.21v.29zm-.21 1.56a2.23 2.23 0 0 1 .21-.72.47.47 0 0 1 .33-.1.14.14 0 0 1 .13.18 6.7 6.7 0 0 1-.41.66h-.25zm-.29 0h-.25a6.61 6.61 0 0 1-.41-.66.14.14 0 0 1 .13-.18.47.47 0 0 1 .33.1 2.17 2.17 0 0 1 .21.72zm.17-1c.08 0 .22 0 .22.16a2.88 2.88 0 0 1-.24.55 2.79 2.79 0 0 1-.3-.5c0-.12.15-.16.23-.16zm0 2.61a3.06 3.06 0 0 1 .7.29.79.79 0 0 1 .4.74 1.67 1.67 0 0 0-.43-.41 2.48 2.48 0 0 1-.67-.63zM54 11l.34.1v-.22l.26.05a4.33 4.33 0 0 0 .46.81.59.59 0 0 1-.1.32 2.35 2.35 0 0 0-.41-.61A3 3 0 0 0 54 11zm-.88-.17a3 3 0 0 0 .37.41 1.06 1.06 0 0 0-1 .69s-.28-.43-.08-.7a1 1 0 0 1 .71-.4zm-.46-.4a1.34 1.34 0 0 1 .39.32 1.53 1.53 0 0 0-.45.16.89.89 0 0 0-1.09 0 .64.64 0 0 1-.23-.86c.16-.24.53-.2.7-.15.11.34.49.46.68.54zm-.75.15a.13.13 0 1 1 .13-.13.13.13 0 0 1-.13.13zm.62-.94a2 2 0 0 0 .17.67 1.41 1.41 0 0 1-.38-.43c-.07-.2-.09-.33.22-.24zm.12-.08a3 3 0 0 0 1 .17 7.5 7.5 0 0 0 1.79-.19.52.52 0 0 1-.3.31.44.44 0 0 1 .26.11.56.56 0 0 1-.3.25 1.25 1.25 0 0 0 .82.38.63.63 0 0 1-.63.15 1 1 0 0 1-.65-.43.93.93 0 0 1 0 .33.51.51 0 0 1-.34-.2 1.23 1.23 0 0 1 .13.35.61.61 0 0 1-.33-.11.9.9 0 0 1 .05.25 2.46 2.46 0 0 1-.75-.39 2 2 0 0 0 0 .25s-.78-.08-.84-1.22zM54 10s-.68 0-.7.34a.48.48 0 0 1-.2-.34 6.1 6.1 0 0 0 .9 0zm1.56-.69a1.69 1.69 0 0 1-.89.21 1.27 1.27 0 0 1 .42-.52 1.45 1.45 0 0 1 .86-.21 1.12 1.12 0 0 1-.41.51zm-.45 0a.72.72 0 0 1 .61-.39 1.57 1.57 0 0 1-.61.39zm.86-1.16c0-.31-.09-.63-.15-1a4.61 4.61 0 0 0-.18-.65c.15 0 .24.2.31.43a10.08 10.08 0 0 1 .24 1.16zm-.5.14A5.4 5.4 0 0 1 55 7c0-.1.12-.17.23-.2a.3.3 0 0 1 .28 0 4.14 4.14 0 0 1 .32 1.35 1.2 1.2 0 0 0-.38.13zm1 .55a.16.16 0 1 1-.16-.16.16.16 0 0 1 .16.16zm-3.76.56c0-.05.24-.1.53-.1s.53 0 .53.1-.24.09-.53.09-.53 0-.53-.09zm2.78-.94c0-.1.37-.18.82-.18s.82.08.82.18-.37.17-.82.17-.82-.08-.82-.17zm8.11 10.4c.53.53 1.66 1.74 1.56 3a2.86 2.86 0 0 1-1.48-1.1 8.76 8.76 0 0 0-.88-1.43 1.18 1.18 0 0 0 .35 0h.1a4.64 4.64 0 0 0 1.27 1.56s.12-.64-1.27-1.95a1.31 1.31 0 0 0-.09-.18 1.18 1.18 0 0 0 .44.07zm-4.47-1.48a.54.54 0 0 0 .45.19v.14a1.11 1.11 0 0 0 .13.53l.05.1h.11a1.11 1.11 0 0 0 .31-.11 1.66 1.66 0 0 0-.41.9c-.17.83-.32.85-.32.85a13.31 13.31 0 0 0-.63-1.37 1.1 1.1 0 0 1 0-1 1.15 1.15 0 0 0 .32-.22zm4-3.75a2.4 2.4 0 0 0 .38-.83 8.79 8.79 0 0 1 .35-1.14 2.06 2.06 0 0 1 1.2-1 2.25 2.25 0 0 1-.17 1.45 4.09 4.09 0 0 1-1.75 1.51zm.68.38l-.07-.01a.92.92 0 0 0-.42-.12 11.11 11.11 0 0 1 1.09-.8 5.24 5.24 0 0 1 1.39-.56 3.8 3.8 0 0 1-.68 1.15 1.29 1.29 0 0 1-1.29.38zm-.24 1l-.22-.01a1.4 1.4 0 0 0 .44-.75 1.89 1.89 0 0 0 .82 0 1 1 0 0 1 .87.12 1 1 0 0 1-.77.69 1.67 1.67 0 0 1-1.12 0zm.12.82a1.14 1.14 0 0 0 .3-.4v-.09a1.67 1.67 0 0 1 1.23-.1 1.09 1.09 0 0 1 .62.48 1.82 1.82 0 0 1-1 .39 2.18 2.18 0 0 1-1.21-.29zm-.19.77a2.44 2.44 0 0 0-.27-.43 2.62 2.62 0 0 1 1 0 1.27 1.27 0 0 1 1.17.9 1 1 0 0 1-.84.14 1.69 1.69 0 0 1-1.08-.62zm-.87.44a1.61 1.61 0 0 0 .78 0h.08v-.08c.39.31.85.37 1 .65a.67.67 0 0 1-.69.3 1.66 1.66 0 0 1-1.15-.63 1.67 1.67 0 0 0-.06-.21zm.07.53a2.58 2.58 0 0 1 .73.36.6.6 0 0 1 .3.76 1.27 1.27 0 0 1-1.21-.64 1 1 0 0 0 .18-.48zm-.32.54c.85.79.75 1.11.75 1.11a1.44 1.44 0 0 1-1.1-.38 1 1 0 0 1-.37-.56.7.7 0 0 1 0-.43 1.43 1.43 0 0 0 .67.26zm-1 0a1.24 1.24 0 0 1 .23.42 1.43 1.43 0 0 1 0 .9 2 2 0 0 1-.36.56 1.59 1.59 0 0 1-.37-.61 2.06 2.06 0 0 1 0-.76 1.48 1.48 0 0 1 .1-.4l.15.06h.13a.53.53 0 0 0 .16-.15zm-.64-.11a4 4 0 0 1 0 1 2 2 0 0 1-.47 1.1.9.9 0 0 1-.75.32 4.24 4.24 0 0 0 .31-.85c.05-.22.16-.62.26-.9a3.29 3.29 0 0 1 .49-.78l.13.14zm4.76-1.88a7.14 7.14 0 0 0 2.68.29 8.15 8.15 0 0 0-2.42-.41 1.17 1.17 0 0 0 .22-.15c.68.09 2.22.08 2.81.2a7 7 0 0 1 2 .78 6.61 6.61 0 0 1-2.4.17 15.78 15.78 0 0 1-3.07-.45 1.26 1.26 0 0 0-.31-.29 1.23 1.23 0 0 0 .48-.13zm0 .79v-.11c.48.1 1.67.24 2.2.4a3.35 3.35 0 0 1 2.06 1.64 3.69 3.69 0 0 1-2.42-.48 13.88 13.88 0 0 0-2.37-1 1.12 1.12 0 0 0 .5-.16 6.34 6.34 0 0 0 2.31.64 5.2 5.2 0 0 0-.85-.48 10.75 10.75 0 0 0-1.38-.48zm-.82.66V17.42c.4.16 1.84.7 2.31.94a3.19 3.19 0 0 1 1.51 1.91 2.66 2.66 0 0 1-1.78-.58c-.8-.67-1.74-1.59-2.14-1.89l.1-.1a8.16 8.16 0 0 0 2.23 1.38 2.66 2.66 0 0 0-.7-.77 7.33 7.33 0 0 0-1.45-.74zm-.78.87A5.35 5.35 0 0 0 65.81 20a4.56 4.56 0 0 0-1.9-1.66.8.8 0 0 0-.13-.26.92.92 0 0 0 .5-.07 11.1 11.1 0 0 1 1.7 1.5 3.2 3.2 0 0 1 .81 1.85 2.23 2.23 0 0 1-1.61-.9 11.49 11.49 0 0 0-1.35-1.67v-.07a.65.65 0 0 0 0-.23zm-1.24 2.74a4.62 4.62 0 0 0-.37-2l.19.08c.51.83 1.11 2 .61 2.92a2.11 2.11 0 0 1-.82-.72 6.5 6.5 0 0 1-.44-2.42 1.63 1.63 0 0 0 0-.18l.07.06.18.14a5.34 5.34 0 0 0 .57 2.1zM61.44 20a3 3 0 0 0 .26-.38c0 .59.2 2.16-.32 2.64 0 0-.36-.26-.48-2.54a2.73 2.73 0 0 0 .27.34 2.52 2.52 0 0 0 .17 1.23s.26-.2.1-1.29zm-1 .11a2.13 2.13 0 0 0 .24-.42 4.05 4.05 0 0 1-.68 2.38 2 2 0 0 1-.12-1.52 1.11 1.11 0 0 0 .3-.14 2.23 2.23 0 0 0 0 .87s.2-.14.35-1.17zm2.94-8.47a2.34 2.34 0 0 1-.6 2.11 1.91 1.91 0 0 0-.48.54 1.23 1.23 0 0 1 1.31-.2 1.21 1.21 0 0 1-.86 1 1.2 1.2 0 0 1 1.07.29 1.22 1.22 0 0 1-1 .65c.65.51.53.87.53.87a1.27 1.27 0 0 1-1.11-.18A1 1 0 0 1 62.4 18a1.23 1.23 0 0 1-1-.67c.07.65-.25.81-.25.81a1.13 1.13 0 0 1-.59-.48 1 1 0 0 1-.7.54 1 1 0 0 1-.06-.79c-.42.13-.55-.13-.55-.13a2.5 2.5 0 0 0 .42-.76 2 2 0 0 0 1.88-.16c.25-.29-.17-1.05-.39-1.58a.86.86 0 0 1 .34-1.1 4.77 4.77 0 0 0 1.89-2zM49 18.86a1.19 1.19 0 0 0 .44-.07 1.2 1.2 0 0 0-.09.18c-1.4 1.3-1.28 1.95-1.28 1.95a4.69 4.69 0 0 0 1.27-1.56h.09a1.2 1.2 0 0 0 .35 0 8.45 8.45 0 0 0-.78 1.45 2.87 2.87 0 0 1-1.48 1.1c-.11-1.3 1-2.51 1.56-3zM65.28 11a19.27 19.27 0 0 1 1.4-2.35 13.09 13.09 0 0 1 1.81-2 4.05 4.05 0 0 1-.17 2.76 8.5 8.5 0 0 1-3.11 3.11l-.15.06-.45.21a3.35 3.35 0 0 0 .39-.59 2 2 0 0 0 .17-.43v-.15a11.56 11.56 0 0 0 1.29-1.14 4.3 4.3 0 0 0 1.16-1.68 3.85 3.85 0 0 0-.93.87c-.49.61-1 1.26-1.43 1.81v-.2-.25zm.43 2.09c.64-.31.8-.41 1.12-.58A9.29 9.29 0 0 0 68 11.7a6.28 6.28 0 0 0 .83-.88 5.23 5.23 0 0 0-1.33.78c-.43.33-1.13.85-1.71 1.32l.21-.62c.68-.54 1.67-1.5 2-1.83a7.47 7.47 0 0 1 2.2-1.53 3.23 3.23 0 0 1-.43 2.06 8 8 0 0 1-4.29 2.45c.05-.07.18-.26.23-.34zm-.09 1.22a11.55 11.55 0 0 0 1.73-.41 5.39 5.39 0 0 0 1.25-.56 6.65 6.65 0 0 0-1.27.21 18.4 18.4 0 0 0-1.78.6 1.19 1.19 0 0 0-.61-.19c.53-.24 2.06-.81 3.07-1.12a10.08 10.08 0 0 1 3.36-.56s-.29.83-1.88 1.49c-1.18.49-3.37.77-4.49 1.26a1.1 1.1 0 0 0 .62-.72zm0 .93a2.19 2.19 0 0 0-.29-.14 14.1 14.1 0 0 1 3.52-.73 8.93 8.93 0 0 1 2.52.1 7.43 7.43 0 0 1-2.35 1 12.17 12.17 0 0 1-3 .1 1.39 1.39 0 0 0-.19-.24 12.14 12.14 0 0 0 2.82-.33 6.91 6.91 0 0 0-3 .24zM47.39 11a2.5 2.5 0 0 0 0 .25v.2L46 9.66a3.83 3.83 0 0 0-1-.86 4.29 4.29 0 0 0 1.08 1.69 11.6 11.6 0 0 0 1.29 1.14v.15a1.86 1.86 0 0 0 .17.43 3.27 3.27 0 0 0 .43.57l-.45-.21-.15-.06a8.54 8.54 0 0 1-3.11-3.11 4.09 4.09 0 0 1-.17-2.76 12.93 12.93 0 0 1 1.81 2A18.89 18.89 0 0 1 47.39 11zm6.14 6.37a1.08 1.08 0 0 0 .32.22 1.09 1.09 0 0 1 0 1 13.76 13.76 0 0 0-.69 1.41s-.15 0-.32-.85a1.61 1.61 0 0 0-.41-.9 1.13 1.13 0 0 0 .31.11h.11l.05-.1a1.12 1.12 0 0 0 .1-.56v-.14a.54.54 0 0 0 .45-.19zm-4-3.75a4.07 4.07 0 0 1-1.75-1.51 2.25 2.25 0 0 1-.17-1.45 2.06 2.06 0 0 1 1.19 1 8.9 8.9 0 0 1 .35 1.14 2.39 2.39 0 0 0 .38.83zm-.68.38a1.29 1.29 0 0 1-1.29-.38 3.83 3.83 0 0 1-.68-1.15 5.25 5.25 0 0 1 1.39.56 11.76 11.76 0 0 1 1.09.8.91.91 0 0 0-.42.12l-.09.05zm.24 1A1.67 1.67 0 0 1 48 15a1 1 0 0 1-.77-.69 1 1 0 0 1 .87-.12 1.89 1.89 0 0 0 .82 0 1.42 1.42 0 0 0 .44.75l-.23.07zm-.12.82a2.16 2.16 0 0 1-1.21.29 1.82 1.82 0 0 1-1-.39 1.08 1.08 0 0 1 .62-.48 1.66 1.66 0 0 1 1.23.1v.09a1.14 1.14 0 0 0 .3.4zm.2.77a1.69 1.69 0 0 1-1.08.62 1 1 0 0 1-.84-.14 1.27 1.27 0 0 1 1.17-.9 2.63 2.63 0 0 1 1 0 2.36 2.36 0 0 0-.27.43zm.87.44a1.27 1.27 0 0 0-.05.21 1.66 1.66 0 0 1-1.15.63.68.68 0 0 1-.69-.3c.16-.28.62-.34 1-.65V17h.09a1.61 1.61 0 0 0 .78 0zm-.07.53a1 1 0 0 0 .18.48 1.27 1.27 0 0 1-1.22.64.61.61 0 0 1 .3-.76 2.63 2.63 0 0 1 .74-.36zm.32.54a1.43 1.43 0 0 0 .67-.26.72.72 0 0 1 .05.43 1.05 1.05 0 0 1-.37.56 1.44 1.44 0 0 1-1.1.38s-.1-.32.75-1.11zm1 0a.64.64 0 0 0 .16.15h.12l.15-.06a1.49 1.49 0 0 1 .1.4 2 2 0 0 1 0 .76 1.61 1.61 0 0 1-.38.61 2 2 0 0 1-.44-.56 1.46 1.46 0 0 1 0-.9 1.32 1.32 0 0 1 .23-.42zm.68-.06l.14-.14a3.26 3.26 0 0 1 .49.78c.1.29.21.68.27.9a4.17 4.17 0 0 0 .31.85.9.9 0 0 1-.75-.32 2 2 0 0 1-.47-1.1 4.22 4.22 0 0 1 0-1zm-5-4.93c0 .08.18.27.23.34A8 8 0 0 1 42.89 11a3.23 3.23 0 0 1-.43-2.06 7.39 7.39 0 0 1 2.17 1.53c.33.32 1.32 1.29 2 1.83l.21.62c-.58-.47-1.28-1-1.71-1.32a5.27 5.27 0 0 0-1.33-.78 6.11 6.11 0 0 0 .82.88 9.06 9.06 0 0 0 1.21.82c.31.17.48.27 1.12.58zm.03 1.21a1.08 1.08 0 0 0 .61.72c-1.11-.49-3.3-.77-4.48-1.26-1.59-.66-1.88-1.49-1.88-1.49a10 10 0 0 1 3.35.56c1 .31 2.54.88 3.07 1.12a1.21 1.21 0 0 0-.61.19 17.61 17.61 0 0 0-1.78-.6 6.54 6.54 0 0 0-1.26-.21 5.45 5.45 0 0 0 1.25.56 11.46 11.46 0 0 0 1.73.41zm0 .93a6.92 6.92 0 0 0-3-.25 12.17 12.17 0 0 0 2.83.39 1.27 1.27 0 0 0-.19.24 12.18 12.18 0 0 1-3-.1 7.4 7.4 0 0 1-2.34-1 8.91 8.91 0 0 1 2.52-.1 14.05 14.05 0 0 1 3.52.73 2.28 2.28 0 0 0-.29.14zm.12.9a1.22 1.22 0 0 0 .48.13 1.27 1.27 0 0 0-.31.29 15.83 15.83 0 0 1-3.07.45 6.59 6.59 0 0 1-2.4-.17 6.94 6.94 0 0 1 2-.78c.59-.12 2.13-.1 2.81-.2a1.34 1.34 0 0 0 .23.15 8.18 8.18 0 0 0-2.41.43 7.15 7.15 0 0 0 2.68-.29zm0 .79a10.72 10.72 0 0 0-1.38.48 5.09 5.09 0 0 0-.84.48 6.38 6.38 0 0 0 2.31-.64 1.08 1.08 0 0 0 .5.16 13.94 13.94 0 0 0-2.38 1 3.68 3.68 0 0 1-2.42.48A3.35 3.35 0 0 1 45 17.23c.53-.16 1.72-.3 2.2-.4v.11zm.83.66a7.44 7.44 0 0 0-1.46.74 2.69 2.69 0 0 0-.7.77A8.15 8.15 0 0 0 48 17.74l.09.1c-.4.3-1.34 1.22-2.14 1.89a2.67 2.67 0 0 1-1.78.58 3.19 3.19 0 0 1 1.51-1.91c.47-.24 1.91-.78 2.32-.94V17.61zm.78.87a.67.67 0 0 0 0 .23v.07a11.53 11.53 0 0 0-1.35 1.67 2.24 2.24 0 0 1-1.61.9 3.18 3.18 0 0 1 .81-1.85 11 11 0 0 1 1.7-1.5.91.91 0 0 0 .5.07.76.76 0 0 0-.13.26 4.53 4.53 0 0 0-1.8 1.68 5.36 5.36 0 0 0 1.88-1.48zM50 21.21a5.34 5.34 0 0 0 .57-2.1l.18-.14.07-.06a1.41 1.41 0 0 0 0 .18 6.37 6.37 0 0 1-.44 2.42 2.12 2.12 0 0 1-.82.72c-.5-.89.1-2.09.61-2.92l.19-.08a4.59 4.59 0 0 0-.38 2zM51.22 20c-.16 1.09.1 1.29.1 1.29a2.49 2.49 0 0 0 .17-1.23 2.59 2.59 0 0 0 .27-.34c-.13 2.28-.49 2.54-.49 2.54-.52-.49-.37-2-.32-2.64a3.18 3.18 0 0 0 .26.38zm1 .11c.14 1 .35 1.17.35 1.17a2.2 2.2 0 0 0 0-.87 1.18 1.18 0 0 0 .29.14 2 2 0 0 1-.12 1.52 4.11 4.11 0 0 1-.72-2.37 2.16 2.16 0 0 0 .25.42zm-45.74.8a4 4 0 0 1 .35 1.72 4.1 4.1 0 0 1-.44 2.12 1.19 1.19 0 0 1-1 .65 1.19 1.19 0 0 1-.79-.34v2.18H3.3v-7.5h1.29a1.91 1.91 0 0 1 1.84 1.18zm25.37-10.18l.65 5.53h-1.4s-.38-3.54-.39-3.69H29c0 .17-.13 3.69-.13 3.69h-1.44l.26-7.56h2.06a2.26 2.26 0 0 1 1.43.42 1.93 1.93 0 0 1 .66 1.62zm-2.85.58V9.95h.5a.84.84 0 0 1 .76.33 2.58 2.58 0 0 1 .26 1zm-9.89 0V8.7h1.39v7.56h-1.4v-3.65h-1a2.08 2.08 0 0 1-1.4-.5 1.6 1.6 0 0 1-.59-1.25V8.7h1.39v2a.52.52 0 0 0 .16.41 1 1 0 0 0 .69.21zm3.04-2.61h3.72V10H24.7v6.31h-1.39V10h-1.16V8.7zm-8.23.9a5.51 5.51 0 0 1 .64 2.82 5.69 5.69 0 0 1-.62 2.84 2.07 2.07 0 0 1-1.86 1.15 1.94 1.94 0 0 1-1.78-1.1 6 6 0 0 1-.6-2.88 5.65 5.65 0 0 1 .62-2.83 2 2 0 0 1 1.75-1.1 2.05 2.05 0 0 1 1.84 1.1zm-1.83 5.54c-.33 0-.58-.24-.76-.74a5.8 5.8 0 0 1-.29-2 5.7 5.7 0 0 1 .28-2c.18-.48.43-.71.76-.71s.65.24.82.72a5.89 5.89 0 0 1 .24 1.93 5.81 5.81 0 0 1-.28 2c-.18.49-.44.73-.78.73zM3.31 8.7h4.5v7.56H6.42V10H4.7v6.31H3.31V8.7zm11.5 16.69a2.2 2.2 0 0 0 1.79.77h.06v1.31h-.06a3.49 3.49 0 0 1-2.75-1.14 4.13 4.13 0 0 1-1-2.82 4.24 4.24 0 0 1 .88-2.83 3.48 3.48 0 0 1 2.8-1.14h.06v1.31h-.06a2.18 2.18 0 0 0-1.8.76 2.9 2.9 0 0 0-.57 1.88 2.87 2.87 0 0 0 .6 1.88zm-3.43-4.76a6 6 0 0 1 .57 2.8 6.2 6.2 0 0 1-.55 2.82 1.82 1.82 0 0 1-1.65 1.15 1.71 1.71 0 0 1-1.58-1.09 6.49 6.49 0 0 1-.53-2.86 6.15 6.15 0 0 1 .55-2.81 1.73 1.73 0 0 1 1.56-1.09 1.8 1.8 0 0 1 1.63 1.08zm-.92 4.81c-.16.49-.4.74-.71.74s-.53-.25-.69-.75a6.48 6.48 0 0 1-.25-2 6.34 6.34 0 0 1 .25-2c.16-.48.39-.73.7-.73s.59.24.75.74a6.58 6.58 0 0 1 .22 1.94 6.58 6.58 0 0 1-.26 2zm9-.05a2.21 2.21 0 0 0 1.79.77h.06v1.31h-.06a3.49 3.49 0 0 1-2.75-1.14 4.13 4.13 0 0 1-1-2.82 4.26 4.26 0 0 1 .88-2.83 3.49 3.49 0 0 1 2.81-1.14h.06v1.31h-.06a2.19 2.19 0 0 0-1.8.76 2.9 2.9 0 0 0-.57 1.88 2.89 2.89 0 0 0 .6 1.88zm7-5.92l.1-.1.3 7.89h-1.19l-.18-5-1.76 1.87v3.09h-1.21v-7.49h1.21v2.65l2.78-2.9zm5.9-.1l.3 7.89h-1.18s-.17-4.69-.17-5l-1.76 1.87v3.09h-1.23v-7.49h1.22v2.65l2.78-2.9.1-.1zM4.59 20.86a.74.74 0 0 1 .67.48 3.82 3.82 0 0 1 .25 1.6 2 2 0 0 1-.16.89c-.1.19-.22.29-.35.29s-.23-.09-.32-.26a1.75 1.75 0 0 1-.14-.8v-2.2z"></path>
            <!-- End -->
        </svg>