<svg width="30" height="30" viewBox="0 0 30 30" fill="none" xmlns="http://www.w3.org/2000/svg">
<circle cx="15" cy="15" r="14.5" stroke="currentColor"/>
<path d="M21.5 9H8.5C7.67156 9 7 9.67156 7 10.5V19.5C7 20.3284 7.67156 21 8.5 21H21.5C22.3284 21 23 20.3284 23 19.5V10.5C23 9.67156 22.3284 9 21.5 9ZM21.5 10.5V11.7752C20.7993 12.3457 19.6823 13.233 17.2942 15.103C16.7679 15.5169 15.7254 16.5115 15 16.4999C14.2747 16.5116 13.2319 15.5168 12.7058 15.103C10.3181 13.2333 9.20078 12.3458 8.5 11.7752V10.5H21.5ZM8.5 19.5V13.6999C9.21606 14.2703 10.2315 15.0706 11.7793 16.2826C12.4623 16.8203 13.6585 18.0072 15 18C16.3349 18.0072 17.5159 16.8375 18.2204 16.2829C19.7682 15.0709 20.7839 14.2703 21.5 13.7V19.5H8.5Z" fill="currentColor"/>
</svg>
