<svg viewBox="0 0 320 190" fill="currentColor" id="rbk" xmlns="http://www.w3.org/2000/svg">
            <!-- Вторая картинка оплаты -->
            <path class="bacls-1" d="M227.404,70.952c-0.388,0-0.674,0-0.96,0c-4.882,0-9.762-0.018-14.644,0.023
	c-0.759,0.007-1.002-0.269-1.137-0.946c-0.571-2.888-1.198-5.765-1.772-8.652c-0.128-0.646-0.368-0.91-1.083-0.906
	c-7.188,0.029-14.38,0.029-21.569,0.007c-0.653-0.003-0.906,0.247-1.109,0.822c-1.061,2.997-2.168,5.976-3.233,8.97
	c-0.169,0.475-0.37,0.706-0.92,0.705c-5.903-0.021-11.809-0.012-17.713-0.014c-0.085,0-0.17-0.027-0.379-0.062
	c0.111-0.312,0.199-0.603,0.315-0.88c8.831-21.065,17.664-42.131,26.498-63.196c1.591-3.793,4.24-5.547,8.366-5.548
	c4.648-0.003,9.295,0.014,13.943-0.013c0.686-0.004,0.929,0.197,1.071,0.887c3.894,18.748,7.814,37.489,11.733,56.231
	c0.841,4.021,1.693,8.042,2.538,12.062C227.375,70.552,227.376,70.665,227.404,70.952z M190.589,46.282c5.101,0,10.051,0,15.129,0
	c-1.822-8.731-3.628-17.383-5.434-26.034c-0.079-0.011-0.157-0.021-0.237-0.033C196.904,28.874,193.764,37.532,190.589,46.282z"></path>
            <path class="bacls-1" d="M4.41,1.24c0.382,0,0.7,0,1.019,0c9.675,0.001,19.35,0.001,29.024,0.005
	c4.981,0.001,8.111,2.614,9.034,7.514c2.45,13.02,4.904,26.038,7.36,39.055c0.042,0.225,0.125,0.44,0.231,0.809
	c0.186-0.412,0.322-0.688,0.437-0.975c6.005-15.164,12.015-30.325,17.993-45.5c0.287-0.729,0.646-0.92,1.394-0.916
	c5.612,0.035,11.226,0.021,16.836,0.021c0.291,0,0.582,0,0.951,0c-0.081,0.276-0.125,0.498-0.21,0.7
	c-9.544,22.764-19.093,45.526-28.629,68.294c-0.22,0.521-0.465,0.754-1.077,0.75c-5.814-0.024-11.632-0.024-17.447,0.002
	c-0.654,0.005-0.887-0.206-1.048-0.834c-4.695-18.221-9.416-36.437-14.134-54.652c-0.095-0.367-0.218-0.729-0.298-1.098
	c-0.572-2.618-2.141-4.37-4.536-5.538c-4.432-2.161-9.103-3.609-13.853-4.845C6.357,3.746,5.251,3.495,4,3.192
	C4.135,2.548,4.267,1.919,4.41,1.24z"></path>
            <path class="bacls-1" d="M115.409,53.374c2.848,1.021,5.593,2.201,8.446,2.98c4.688,1.28,9.479,1.706,14.296,0.66
	c1.728-0.375,3.349-1.043,4.693-2.237c2.53-2.245,2.662-5.542,0.299-7.962c-1.721-1.76-3.863-2.912-6.029-4.006
	c-3.258-1.646-6.532-3.254-9.456-5.478c-3.296-2.504-6.106-5.432-7.291-9.497c-1.725-5.913-0.49-11.407,2.961-16.389
	c3.458-4.991,8.444-7.874,14.128-9.646c5.393-1.685,10.927-2.066,16.539-1.637c4.068,0.312,8.004,1.229,11.859,2.521
	c0.276,0.093,0.548,0.202,0.818,0.312c0.076,0.031,0.141,0.094,0.244,0.163c-1.039,4.832-2.078,9.666-3.069,14.276
	c-3.067-0.841-6.004-1.813-9.014-2.43c-3.594-0.736-7.249-0.844-10.862,0.052c-1.463,0.363-2.809,0.985-3.938,2.011
	c-2.203,1.999-2.392,4.718-0.218,6.736c1.395,1.293,3.06,2.329,4.701,3.313c3.576,2.146,7.319,4.027,10.803,6.31
	c3.75,2.457,6.697,5.762,7.7,10.272c1.644,7.392-0.167,13.961-5.382,19.479c-3.902,4.127-8.895,6.344-14.329,7.628
	c-6.746,1.592-13.543,1.519-20.357,0.448c-3.353-0.526-6.639-1.278-9.818-2.486c-0.734-0.278-0.949-0.565-0.763-1.396
	c1.006-4.465,1.93-8.95,2.884-13.428C115.305,53.718,115.376,53.496,115.409,53.374z"></path>
            <path class="bacls-1" d="M114.509,1.353c-0.04,0.278-0.065,0.559-0.124,0.832c-4.592,21.502-9.186,43.003-13.781,64.505
	c-0.263,1.228-0.513,2.457-0.832,3.669c-0.062,0.243-0.412,0.589-0.63,0.589c-5.698,0.031-11.396,0.022-17.094,0.019
	c-0.081,0-0.162-0.045-0.329-0.097c0.39-1.821,0.776-3.641,1.166-5.457c3.416-15.94,6.832-31.883,10.247-47.823
	c1.118-5.219,2.234-10.438,3.346-15.656c0.084-0.396,0.16-0.691,0.692-0.689c5.669,0.021,11.337,0.018,17.006,0.023
	C114.259,1.267,114.342,1.309,114.509,1.353z"></path>
            <path class="bacls-1" d="M29.184,145.23c0-1.021,0-2.043,0-3.064c0.129-0.231,0.125-0.49,0.133-0.743
	c0.047-1.417,0.159-2.828,0.313-4.236c0.182-1.662,0.438-3.312,0.762-4.952c0.8-4.058,2.016-7.985,3.665-11.777
	c3.832-8.813,9.479-16.258,16.931-22.321c6.062-4.935,12.855-8.5,20.352-10.719c2.252-0.668,4.539-1.188,6.856-1.574
	c1.498-0.25,3.003-0.447,4.516-0.576c1.017-0.088,2.038-0.128,3.056-0.192c0.164-0.01,0.328-0.037,0.491-0.057
	c1.124,0,2.247,0,3.371,0c0.151,0.02,0.3,0.048,0.451,0.059c1.007,0.063,2.015,0.105,3.019,0.192
	c1.335,0.114,2.663,0.289,3.986,0.502c1.79,0.289,3.562,0.66,5.315,1.118c5.066,1.324,9.862,3.304,14.399,5.915
	c2.66,1.531,5.187,3.258,7.584,5.173c0.104,0.084,0.229,0.151,0.311,0.292c-1.937,1.886-3.739,3.866-5.412,5.964
	c-1.666,2.088-3.194,4.272-4.583,6.554c-1.396,2.292-2.641,4.662-3.735,7.111c-1.081,2.422-2.671,6.753-2.764,7.529
	c0.023,0.01,0.045,0.025,0.068,0.028c0.05,0.006,0.102,0.007,0.152,0.007c1.507-0.002,3.013-0.006,4.519-0.009
	c0.013,0,0.025-0.005,0.036-0.011c0.012-0.006,0.021-0.015,0.056-0.041c0.034-0.094,0.079-0.212,0.12-0.331
	c1.84-5.468,4.424-10.559,7.758-15.268c2.108-2.978,4.477-5.733,7.101-8.268c0.099-0.095,0.181-0.214,0.325-0.265
	c0.094,0.083,0.18,0.158,0.262,0.237c4.819,4.649,8.768,9.946,11.789,15.927c1.246,2.464,2.305,5.006,3.184,7.622
	c0.047,0.141,0.059,0.303,0.199,0.426c0.129,0,0.269,0,0.408,0c1.43-0.003,2.859-0.007,4.289-0.01c0.011,0,0.023-0.011,0.033-0.018
	c0.01-0.006,0.019-0.015,0.043-0.036c-0.09-0.453-0.26-0.893-0.4-1.341c-0.139-0.438-0.291-0.871-0.443-1.305
	c-0.156-0.444-0.316-0.889-0.484-1.33c-0.166-0.441-0.338-0.881-0.516-1.319c-0.172-0.426-0.349-0.849-0.53-1.271
	c-0.187-0.434-0.378-0.866-0.573-1.295c-0.197-0.429-0.398-0.855-0.604-1.281c-0.201-0.413-0.406-0.823-0.615-1.233
	c-0.216-0.42-0.437-0.837-0.662-1.251c-0.225-0.415-0.455-0.828-0.689-1.237c-0.227-0.399-0.459-0.797-0.696-1.189
	c-0.243-0.404-0.491-0.807-0.744-1.206c-0.245-0.388-0.495-0.774-0.749-1.157c-0.26-0.394-0.525-0.784-0.795-1.172
	s-0.543-0.772-0.822-1.154c-0.27-0.37-0.545-0.739-0.823-1.104c-0.286-0.376-0.577-0.749-0.872-1.117
	c-0.293-0.369-0.592-0.736-0.895-1.099c-0.294-0.354-0.592-0.703-0.894-1.05c-0.312-0.355-0.625-0.709-0.942-1.058
	c-0.318-0.35-0.641-0.694-0.966-1.038c-0.315-0.332-0.64-0.659-0.96-0.989c-0.324-0.338-0.675-0.65-1.004-1.016
	c0.102-0.089,0.182-0.168,0.27-0.239c3.143-2.53,6.504-4.723,10.096-6.559c4.257-2.177,8.713-3.81,13.375-4.878
	c1.469-0.337,2.945-0.616,4.436-0.842c1.174-0.177,2.35-0.323,3.533-0.421c1.043-0.088,2.088-0.129,3.133-0.194
	c0.152-0.009,0.301-0.038,0.453-0.056c1.098,0,2.195,0,3.295,0c0.162,0.02,0.324,0.052,0.49,0.057
	c1.287,0.043,2.574,0.136,3.855,0.267c1.398,0.143,2.787,0.337,4.172,0.579c2.264,0.396,4.498,0.919,6.697,1.583
	c7.666,2.311,14.578,6.028,20.715,11.168c7.215,6.04,12.682,13.391,16.391,22.039c1.535,3.575,2.686,7.273,3.469,11.085
	c0.273,1.338,0.512,2.682,0.682,4.037c0.096,0.772,0.199,1.544,0.27,2.319c0.074,0.801,0.145,1.603,0.166,2.406
	c0.053,1.851,0.064,3.701,0.018,5.553c-0.012,0.383-0.004,0.766-0.029,1.148c-0.082,1.235-0.191,2.468-0.342,3.697
	c-0.199,1.622-0.463,3.233-0.801,4.832c-0.977,4.653-2.5,9.122-4.568,13.406c-7.314,15.149-20.871,26.498-37.07,31.02
	c-1.99,0.555-4.006,1.013-6.049,1.335c-0.92,0.146-1.842,0.283-2.766,0.39c-1.014,0.117-2.031,0.209-3.049,0.286
	c-0.75,0.056-1.506,0.068-2.258,0.105c-0.127,0.007-0.252,0.033-0.377,0.05c-0.867,0-1.736,0-2.604,0
	c-0.139-0.018-0.277-0.05-0.414-0.054c-1.775-0.042-3.543-0.183-5.307-0.39c-1.268-0.15-2.527-0.341-3.781-0.576
	c-2.826-0.528-5.6-1.261-8.314-2.204c-6.414-2.231-12.256-5.493-17.545-9.752c-0.078-0.062-0.147-0.134-0.238-0.217
	c0.088-0.095,0.161-0.179,0.24-0.257c0.969-0.946,1.908-1.92,2.815-2.925c5.097-5.646,9.089-11.983,11.907-19.053
	c0.619-1.553,1.174-3.129,1.657-4.73c0.027-0.091,0.085-0.185,0.03-0.277c-0.039-0.013-0.062-0.026-0.087-0.026
	c-1.417-0.003-2.833-0.006-4.251-0.007c-0.127,0-0.255,0.005-0.382,0.008c-0.013,0.002-0.024,0.009-0.036,0.013
	c-0.012,0.006-0.021,0.013-0.061,0.036c-0.037,0.106-0.086,0.237-0.131,0.369c-1.438,4.291-3.357,8.353-5.752,12.191
	c-2.6,4.169-5.68,7.949-9.219,11.358c-0.089,0.086-0.164,0.196-0.306,0.235c-0.095-0.089-0.19-0.172-0.281-0.261
	c-5.161-5-9.275-10.751-12.337-17.252c-0.969-2.057-1.812-4.163-2.533-6.318c-0.04-0.118-0.048-0.254-0.158-0.337
	c-0.479-0.042-4.501-0.03-4.786,0.015c-0.019,0.145,0.047,0.272,0.088,0.403c2.394,7.735,6.14,14.751,11.216,21.056
	c1.531,1.901,3.169,3.705,4.908,5.418c0.098,0.096,0.224,0.172,0.268,0.329c-0.097,0.081-0.192,0.165-0.291,0.243
	c-5.947,4.735-12.535,8.258-19.813,10.475c-2.173,0.662-4.38,1.19-6.619,1.583c-1.043,0.184-2.089,0.351-3.142,0.463
	c-0.952,0.102-1.903,0.203-2.857,0.276c-0.75,0.059-1.504,0.072-2.256,0.11c-0.125,0.007-0.25,0.036-0.375,0.054
	c-0.919,0-1.839,0-2.758,0c-0.151-0.018-0.301-0.05-0.453-0.054c-1.749-0.045-3.49-0.184-5.227-0.39
	c-1.457-0.175-2.905-0.405-4.345-0.688c-3.615-0.707-7.129-1.751-10.544-3.132c-11.896-4.81-21.876-13.361-28.472-24.402
	c-3.039-5.086-5.246-10.514-6.635-16.271c-0.479-1.985-0.85-3.991-1.112-6.017c-0.165-1.279-0.301-2.56-0.375-3.846
	c-0.032-0.562-0.054-1.122-0.087-1.683C29.3,145.67,29.311,145.436,29.184,145.23z M59.254,139.375l-0.004-0.007
	c-0.205,1.078-0.412,2.155-0.615,3.233c-0.344,1.817-0.685,3.635-1.027,5.453c-0.322,1.704-0.644,3.408-0.966,5.113
	c-0.257,1.367-0.516,2.733-0.772,4.099c-0.009,0.049-0.001,0.099-0.001,0.166c0.096,0.011,0.182,0.028,0.268,0.029
	c1.852,0.001,3.703,0.001,5.554-0.001c0.085,0,0.172-0.02,0.249-0.027c0.127-0.425,4.883-25.731,4.907-26.128
	c-0.086-0.008-0.174-0.022-0.261-0.023c-2.541-0.047-8.991-0.023-9.395,0.035c-0.056,0.116-0.12,0.24-0.177,0.366
	c-1.462,3.231-2.924,6.463-4.386,9.694c-0.81,1.79-1.62,3.58-2.431,5.369c-0.039,0.087-0.058,0.189-0.178,0.251
	c-0.019-0.129-0.042-0.239-0.05-0.353c-0.036-0.483-0.066-0.967-0.1-1.452c-0.059-0.852-0.118-1.705-0.179-2.559
	c-0.066-0.916-0.136-1.833-0.202-2.749c-0.062-0.865-0.118-1.732-0.181-2.597c-0.064-0.892-0.132-1.782-0.198-2.674
	c-0.075-1.031-0.148-2.062-0.224-3.093c-0.005-0.072-0.024-0.143-0.04-0.23c-0.16-0.004-0.299-0.011-0.437-0.011
	c-1.302,0-2.604,0-3.907,0c-1.558,0-3.115-0.002-4.672,0.001c-0.136,0-0.279-0.03-0.413,0.047c-0.015,0.054-0.031,0.101-0.041,0.15
	c-0.09,0.463-0.179,0.927-0.269,1.39c-0.371,1.917-0.743,3.832-1.114,5.749c-0.345,1.777-0.689,3.556-1.033,5.335
	c-0.371,1.915-0.742,3.832-1.113,5.747c-0.341,1.767-0.683,3.533-1.025,5.298c-0.136,0.702-0.277,1.401-0.41,2.104
	c-0.02,0.106-0.071,0.222,0.019,0.342c0.067,0.006,0.142,0.019,0.217,0.019c1.788,0.001,3.574,0.001,5.362-0.001
	c0.073,0,0.146-0.02,0.239-0.034c0.408-2.075,0.798-4.141,1.195-6.207c0.397-2.065,0.797-4.132,1.193-6.199
	c0.396-2.065,0.787-4.131,1.214-6.193c0.036,0.071,0.055,0.139,0.062,0.21c0.07,0.8,0.141,1.601,0.208,2.402
	c0.062,0.737,0.122,1.476,0.183,2.213c0.067,0.802,0.137,1.603,0.204,2.403c0.06,0.712,0.118,1.425,0.177,2.137
	c0.068,0.814,0.138,1.628,0.207,2.441c0.06,0.713,0.118,1.425,0.178,2.137c0.065,0.763,0.133,1.525,0.197,2.288
	c0.06,0.713,0.114,1.426,0.176,2.138c0.007,0.083,0.042,0.166,0.066,0.252c1.857,0,3.693,0,5.553,0
	c0.065-0.139,0.131-0.275,0.193-0.413c2.577-5.766,5.153-11.531,7.73-17.296c0.051-0.117,0.105-0.233,0.167-0.345
	C59.164,139.375,59.22,139.38,59.254,139.375z M214.428,138.18c-0.207-0.067-0.32-0.211-0.443-0.333
	c-0.311-0.305-0.607-0.62-0.916-0.925c-0.832-0.817-1.842-1.225-3-1.251c-1.008-0.024-2.016-0.049-3.021,0.06
	c-0.818,0.086-1.611,0.263-2.373,0.578c-1.219,0.508-2.209,1.313-3.041,2.323c-0.645,0.782-1.166,1.646-1.611,2.554
	c-0.617,1.264-1.092,2.583-1.465,3.938c-0.504,1.827-0.592,3.673-0.219,5.533c0.299,1.484,0.863,2.854,1.766,4.076
	c0.631,0.853,1.387,1.566,2.32,2.082c1.008,0.556,2.076,0.751,3.215,0.573c1.443-0.224,2.789-0.712,4.033-1.479
	c0.086-0.053,0.176-0.104,0.285-0.17c0.291,0.562,0.49,1.155,0.771,1.691c0.314,0.036,5.482,0.061,6.15,0.029
	c0.061-0.002,0.121-0.021,0.189-0.033c0.023-0.095,0.045-0.182,0.062-0.268c1.688-9.027,3.373-18.057,5.061-27.085
	c0.006-0.036,0-0.074,0-0.105c-0.018-0.014-0.027-0.022-0.037-0.029s-0.021-0.017-0.033-0.018c-0.051-0.005-0.102-0.009-0.152-0.009
	c-1.953,0.002-3.906,0.006-5.859,0.009c-0.012,0-0.025,0.006-0.037,0.012c-0.01,0.006-0.02,0.014-0.061,0.045
	c-0.137,0.656-0.262,1.345-0.393,2.032c-0.127,0.677-0.258,1.354-0.389,2.03c-0.131,0.689-0.264,1.377-0.396,2.066
	C214.701,136.795,214.588,137.486,214.428,138.18z M78.519,143.393c-0.169,0-0.296,0.002-0.423-0.002
	c-0.434-0.008-0.868-0.02-1.302-0.027c-1.188-0.025-2.374,0.01-3.554,0.171c-0.913,0.125-1.81,0.314-2.679,0.622
	c-0.325,0.113-0.646,0.239-0.959,0.382c-2.32,1.06-3.837,2.819-4.565,5.263c-0.264,0.886-0.415,1.785-0.324,2.718
	c0.119,1.215,0.58,2.273,1.437,3.139c1.301,1.312,2.906,1.907,4.738,1.88c0.777-0.013,1.555-0.089,2.325-0.21
	c0.893-0.142,1.737-0.412,2.48-0.944c0.058-0.041,0.125-0.068,0.2-0.11c0.259,0.406,0.506,0.79,0.747,1.168
	c0.075,0.008,0.125,0.02,0.175,0.02c1.711,0.001,3.422,0.001,5.133-0.001c0.071,0,0.143-0.029,0.215-0.044
	c0.016-0.065,0.03-0.114,0.04-0.164c0.33-1.65,0.659-3.302,0.989-4.954c0.37-1.863,0.742-3.728,1.111-5.592
	c0.217-1.102,0.457-2.198,0.534-3.323c0.065-0.95,0.02-1.89-0.2-2.815c-0.37-1.562-1.214-2.795-2.588-3.646
	c-0.567-0.353-1.176-0.611-1.814-0.807c-1.194-0.364-2.422-0.512-3.664-0.519c-0.995-0.006-1.991,0.041-2.985,0.086
	c-0.599,0.026-1.198,0.082-1.793,0.147c-1.002,0.108-1.998,0.267-2.989,0.451c-0.11,0.021-0.217,0.059-0.317,0.086
	c-0.023,0.069-0.045,0.116-0.055,0.166c-0.282,1.466-0.562,2.932-0.842,4.397c-0.002,0.013-0.002,0.027,0.003,0.037
	c0.005,0.011,0.018,0.017,0.04,0.037c0.086,0,0.188,0.008,0.286-0.002c0.229-0.023,0.456-0.057,0.684-0.084
	c1.305-0.151,2.611-0.301,3.917-0.453c1.337-0.158,2.676-0.117,4.016-0.051c0.382,0.02,0.761,0.085,1.121,0.23
	c0.452,0.184,0.767,0.499,0.905,0.973C78.73,142.2,78.663,142.776,78.519,143.393z M167.447,141.003
	c0.156,0,0.256,0.008,0.355-0.002c0.229-0.023,0.455-0.055,0.684-0.084c1.303-0.172,2.607-0.327,3.914-0.459
	c1.34-0.134,2.678-0.111,4.016-0.044c0.385,0.019,0.762,0.084,1.121,0.231c0.482,0.195,0.805,0.54,0.924,1.048
	c0.131,0.558,0.082,1.111-0.061,1.684c-0.139,0.006-0.266,0.017-0.389,0.014c-0.512-0.009-1.023-0.023-1.533-0.032
	c-1.316-0.02-2.629,0.037-3.93,0.262c-1.123,0.194-2.213,0.501-3.244,0.999c-1.277,0.615-2.357,1.471-3.174,2.639
	c-0.904,1.295-1.43,2.738-1.549,4.308c-0.125,1.654,0.391,3.104,1.613,4.253c1.291,1.214,2.852,1.759,4.611,1.717
	c0.74-0.017,1.479-0.087,2.211-0.198c0.922-0.139,1.789-0.408,2.557-0.954c0.059-0.041,0.129-0.066,0.205-0.106
	c0.256,0.403,0.502,0.79,0.752,1.186c0.475,0,0.934,0,1.393,0c0.447,0,0.895,0,1.342,0c0.459,0,0.918,0.005,1.377-0.001
	c0.457-0.007,0.916,0.027,1.383-0.022c0.025-0.084,0.053-0.154,0.068-0.228c0.334-1.676,0.666-3.353,1-5.029
	c0.395-1.989,0.793-3.978,1.189-5.967c0.205-1.026,0.404-2.053,0.449-3.103c0.035-0.821-0.012-1.635-0.189-2.437
	c-0.295-1.34-0.938-2.473-2.02-3.338c-0.719-0.574-1.535-0.956-2.408-1.225c-1.193-0.364-2.424-0.512-3.664-0.519
	c-0.996-0.006-1.99,0.041-2.986,0.086c-0.598,0.026-1.197,0.071-1.791,0.149c-0.998,0.132-1.994,0.296-2.99,0.451
	c-0.109,0.017-0.217,0.058-0.338,0.091C168.047,137.911,167.752,139.437,167.447,141.003z M167.965,133.482
	c-0.32-0.391-0.648-0.712-0.982-1.024c-0.932-0.868-2.008-1.482-3.221-1.863c-1.203-0.379-2.439-0.534-3.693-0.599
	c-1.25-0.065-2.471,0.124-3.66,0.498c-3.387,1.062-6.025,3.11-7.939,6.093c-0.953,1.485-1.598,3.104-2.025,4.812
	c-0.488,1.956-0.756,3.932-0.592,5.954c0.078,0.971,0.247,1.924,0.547,2.851c0.867,2.67,2.51,4.707,4.996,6.034
	c1.551,0.827,3.215,1.222,4.969,1.221c1.047,0,2.092-0.05,3.133-0.192c1.297-0.176,2.547-0.517,3.744-1.052
	c0.08-0.035,0.154-0.08,0.244-0.127c-0.016-0.074-0.025-0.137-0.043-0.195c-0.533-1.624-1.064-3.248-1.6-4.872
	c-0.023-0.067-0.066-0.129-0.094-0.183c-0.037-0.002-0.051-0.006-0.062-0.003c-0.062,0.016-0.123,0.034-0.184,0.053
	c-0.82,0.25-1.652,0.428-2.51,0.505c-0.873,0.079-1.736,0.026-2.582-0.2c-1.785-0.477-3.031-1.574-3.705-3.306
	c-0.209-0.538-0.338-1.098-0.4-1.67c-0.158-1.481-0.01-2.938,0.469-4.345c0.828-2.446,2.432-4.187,4.832-5.169
	c0.74-0.304,1.51-0.47,2.316-0.431c0.381,0.019,0.764,0.034,1.146,0.058c0.971,0.058,1.877,0.343,2.727,0.816
	c0.098,0.055,0.199,0.105,0.33,0.173C165.4,136.048,166.668,134.778,167.965,133.482z M131.414,147.767
	c0.024-0.098,0.039-0.146,0.049-0.195c0.17-0.864,0.311-1.731,0.397-2.61c0.081-0.814,0.094-1.631,0.044-2.447
	c-0.043-0.715-0.167-1.419-0.383-2.104c-0.58-1.835-1.748-3.146-3.515-3.914c-0.269-0.116-0.546-0.219-0.824-0.307
	c-0.88-0.281-1.786-0.416-2.706-0.484c-1.19-0.09-2.373-0.044-3.545,0.183c-2.138,0.414-3.948,1.415-5.395,3.053
	c-0.578,0.654-1.064,1.371-1.476,2.14c-0.631,1.177-1.075,2.422-1.38,3.721c-0.252,1.071-0.45,2.148-0.374,3.257
	c0.018,0.242,0.039,0.483,0.062,0.726c0.106,1.112,0.361,2.189,0.785,3.223c1.046,2.549,2.886,4.224,5.534,4.996
	c1.085,0.316,2.202,0.43,3.328,0.459c1.482,0.039,2.959-0.025,4.433-0.195c0.749-0.086,1.493-0.203,2.222-0.396
	c0.369-0.098,0.736-0.203,1.086-0.407c0.029-0.129,0.062-0.265,0.092-0.401c0.09-0.437,0.178-0.875,0.267-1.312
	c0.161-0.787,0.325-1.575,0.481-2.363c0.021-0.104,0.074-0.218,0.004-0.34c-0.064,0.005-0.128,0.006-0.189,0.013
	c-0.607,0.076-1.213,0.167-1.822,0.227c-0.736,0.071-1.475,0.122-2.214,0.171c-1.364,0.09-2.73,0.104-4.096,0.042
	c-0.613-0.027-1.216-0.135-1.794-0.356c-1.053-0.402-1.681-1.16-1.904-2.262c-0.125-0.621-0.1-1.245-0.048-1.869
	c0.006-0.073,0.042-0.145,0.07-0.239c0.474-0.008,0.945-0.004,1.417-0.004c0.472-0.001,0.945-0.001,1.417-0.001
	c0.473,0,0.945,0,1.417,0s0.945,0,1.417,0c0.484,0,0.971,0,1.455,0c0.473,0,0.945,0,1.417,0c0.473,0,0.944,0,1.417,0
	s0.945,0.001,1.418,0C130.447,147.768,130.917,147.768,131.414,147.767z M100.257,140.789c0.161-0.513,0.311-0.986,0.458-1.46
	c0.152-0.487,0.308-0.974,0.451-1.463c0.138-0.473,0.318-0.936,0.421-1.436c-0.112-0.047-0.202-0.092-0.296-0.125
	c-1.286-0.448-2.61-0.706-3.974-0.725c-0.982-0.014-1.966-0.015-2.947,0.064c-1.021,0.081-2.026,0.252-3.003,0.56
	c-0.957,0.302-1.854,0.723-2.641,1.355c-0.946,0.762-1.589,1.723-1.874,2.905c-0.108,0.446-0.183,0.9-0.242,1.355
	c-0.101,0.763-0.108,1.529,0.037,2.287c0.265,1.384,0.98,2.414,2.316,2.973c0.918,0.384,1.799,0.851,2.667,1.341
	c0.656,0.369,1.314,0.733,1.973,1.099c0.658,0.364,0.958,0.93,0.935,1.672c-0.027,0.854-0.64,1.49-1.493,1.558
	c-0.19,0.015-0.382,0.022-0.573,0.031c-1.326,0.061-2.651,0.14-3.98,0.051c-1.085-0.075-2.158-0.21-3.205-0.519
	c-0.069-0.021-0.143-0.024-0.235-0.039c-0.031,0.127-0.063,0.236-0.084,0.348c-0.23,1.229-0.46,2.456-0.687,3.686
	c-0.022,0.122-0.026,0.248-0.038,0.356c0.044,0.032,0.063,0.05,0.085,0.06c0.059,0.022,0.12,0.045,0.181,0.061
	c1.313,0.342,2.648,0.56,4.003,0.616c1.147,0.048,2.297,0.062,3.446,0.062c0.958,0.001,1.912-0.081,2.853-0.28
	c0.942-0.201,1.844-0.508,2.678-0.998c1.109-0.651,1.965-1.543,2.502-2.717c0.63-1.377,0.879-2.823,0.66-4.329
	c-0.185-1.265-0.801-2.276-1.877-2.984c-1.27-0.837-2.587-1.591-3.957-2.251c-0.185-0.089-0.374-0.166-0.554-0.263
	c-0.593-0.318-0.99-0.795-1.138-1.46c-0.107-0.479,0.033-0.887,0.395-1.21c0.313-0.277,0.684-0.45,1.104-0.479
	c0.522-0.037,1.045-0.068,1.568-0.07c0.587-0.001,1.174,0.029,1.761,0.056c0.689,0.032,1.372,0.125,2.046,0.273
	C100.074,140.766,100.148,140.773,100.257,140.789z M105.862,130.247c-0.023,0.089-0.053,0.184-0.073,0.282
	c-0.634,3.177-1.266,6.354-1.898,9.53c-0.71,3.578-1.422,7.154-2.127,10.732c-0.184,0.932-0.26,1.871-0.108,2.816
	c0.24,1.481,0.987,2.608,2.332,3.308c0.83,0.433,1.721,0.637,2.656,0.619c0.65-0.013,1.299-0.066,1.939-0.198
	c0.704-0.146,1.382-0.357,2.011-0.712c0.087-0.05,0.166-0.112,0.254-0.174c0.121-1.42,0.24-2.83,0.359-4.24
	c0.001-0.013-0.001-0.026-0.006-0.038c-0.005-0.01-0.018-0.017-0.049-0.047c-0.166-0.022-0.353,0.013-0.54,0.034
	c-0.473,0.057-0.942,0.052-1.41-0.038c-0.84-0.161-1.292-0.681-1.334-1.53c-0.003-0.064-0.009-0.129-0.002-0.191
	c0.037-0.342,0.059-0.688,0.121-1.024c0.233-1.279,0.479-2.557,0.722-3.836c0.287-1.515,0.573-3.031,0.862-4.548
	c0.021-0.107,0.062-0.212,0.099-0.337c0.145,0,0.271,0,0.398,0c0.741,0,1.48,0.001,2.221-0.001c0.125-0.001,0.256,0.029,0.385-0.062
	c0.037-0.161,0.076-0.334,0.115-0.509c0.288-1.268,0.575-2.536,0.861-3.806c0.021-0.094,0.071-0.192-0.022-0.312
	c-0.111,0-0.238,0-0.364,0c-0.804,0-1.608,0.001-2.412-0.002c-0.095,0-0.2,0.022-0.288-0.056c0.011-0.061,0.019-0.11,0.029-0.159
	c0.354-1.686,0.707-3.37,1.061-5.056c0.031-0.146,0.076-0.292,0.057-0.442C111.394,130.207,106.237,130.203,105.862,130.247z
	 M198.096,141.39c0.516-1.811,1.025-3.601,1.531-5.391c0.021-0.071,0.023-0.148,0.035-0.219c-0.035-0.018-0.057-0.037-0.078-0.038
	c-0.078-0.006-0.154-0.009-0.23-0.005c-0.793,0.025-1.576,0.124-2.342,0.342c-1.074,0.306-2.035,0.811-2.818,1.624
	c-0.033,0.035-0.078,0.06-0.133,0.101c-0.035-0.086-0.07-0.153-0.088-0.225c-0.133-0.52-0.26-1.04-0.393-1.559
	c-0.023-0.096-0.066-0.185-0.096-0.267c-0.619-0.048-4.789-0.031-5.086,0.02c-0.021,0.079-0.049,0.163-0.064,0.249
	c-1.32,7.085-2.641,14.17-3.959,21.255c-0.006,0.036,0.004,0.073,0.006,0.129c0.064,0.009,0.125,0.022,0.186,0.025
	c1.188,0.041,5.375,0.016,5.727-0.037c0.023-0.1,0.055-0.208,0.076-0.317c0.215-1.167,0.428-2.335,0.645-3.5
	c0.295-1.605,0.596-3.211,0.891-4.817c0.141-0.777,0.283-1.554,0.541-2.307c0.322-0.942,0.684-1.868,1.209-2.722
	c0.268-0.437,0.572-0.845,0.939-1.203c0.592-0.578,1.283-0.966,2.111-1.077c0.289-0.039,0.584-0.046,0.875-0.06
	C197.746,141.384,197.912,141.39,198.096,141.39z M135.615,135.977c-0.035,0.15-0.066,0.274-0.09,0.399
	c-0.1,0.525-0.199,1.052-0.297,1.579c-0.6,3.223-1.196,6.445-1.798,9.667c-0.597,3.196-1.197,6.394-1.794,9.59
	c-0.014,0.07-0.002,0.146-0.002,0.229c0.076,0.01,0.139,0.023,0.201,0.023c1.812,0.001,3.624,0.001,5.437,0
	c0.071,0,0.144-0.023,0.224-0.037c0.032-0.152,0.062-0.289,0.088-0.427c0.168-0.902,0.334-1.806,0.501-2.708
	c0.345-1.868,0.698-3.735,1.028-5.607c0.16-0.907,0.381-1.795,0.701-2.659c0.299-0.803,0.647-1.581,1.125-2.297
	c0.308-0.459,0.658-0.879,1.089-1.227c0.548-0.443,1.169-0.716,1.871-0.812c0.368-0.052,0.737-0.052,1.107-0.054
	c0.097-0.001,0.195-0.018,0.281-0.026c0.331-1.039,1.446-5.312,1.468-5.631c-0.331-0.03-0.659-0.006-0.986,0.037
	c-0.341,0.046-0.684,0.083-1.021,0.15c-0.323,0.065-0.646,0.148-0.959,0.255c-0.325,0.112-0.646,0.243-0.951,0.4
	c-0.293,0.151-0.576,0.331-0.841,0.527c-0.272,0.201-0.517,0.438-0.791,0.674c-0.037-0.128-0.069-0.224-0.095-0.321
	c-0.125-0.494-0.248-0.99-0.375-1.484c-0.021-0.083-0.059-0.162-0.088-0.241C138.97,135.977,137.312,135.977,135.615,135.977z"></path>
            <path class="bacls-1" d="M59.254,139.375c-0.008-0.021-0.017-0.043-0.024-0.064c0.004,0.006,0.011,0.013,0.013,0.02
	c0.002,0.012,0.002,0.023,0.005,0.037C59.25,139.368,59.254,139.375,59.254,139.375z"></path>
            <path class="bacls-1" d="M212.646,144.745c-0.025,0.689-0.061,1.288-0.209,1.873c-0.066,0.258-0.143,0.517-0.244,0.763
	c-0.268,0.663-0.586,1.302-0.977,1.903c-0.299,0.462-0.641,0.889-1.055,1.256c-0.654,0.578-1.416,0.9-2.291,0.94
	c-0.803,0.038-1.504-0.229-2.1-0.764c-0.684-0.61-1.064-1.39-1.229-2.28c-0.131-0.7-0.104-1.396,0.053-2.089
	c0.285-1.262,0.799-2.419,1.588-3.446c0.469-0.613,1.021-1.14,1.684-1.543c0.551-0.336,1.143-0.557,1.793-0.605
	c1.117-0.086,2.133,0.532,2.559,1.568c0.191,0.464,0.291,0.951,0.352,1.445C212.613,144.12,212.625,144.478,212.646,144.745z"></path>
            <path class="bacls-1" d="M77.525,147.764c-0.008,0.12-0.005,0.195-0.019,0.268c-0.129,0.676-0.261,1.351-0.392,2.026
	c-0.112,0.581-0.388,1.074-0.803,1.492c-0.631,0.632-1.396,1.014-2.267,1.19c-0.621,0.126-1.242,0.132-1.85-0.07
	c-0.204-0.067-0.407-0.154-0.59-0.265c-0.643-0.392-0.932-1.064-0.792-1.804c0.087-0.459,0.281-0.872,0.56-1.244
	c0.704-0.935,1.634-1.518,2.78-1.754c0.707-0.146,1.42-0.128,2.131-0.043C76.686,147.609,77.085,147.69,77.525,147.764z"></path>
            <path class="bacls-1" d="M177.402,147.786c0,0.067,0.008,0.118-0.002,0.165c-0.137,0.712-0.283,1.425-0.418,2.138
	c-0.104,0.558-0.371,1.027-0.76,1.43c-0.635,0.652-1.41,1.039-2.293,1.223c-0.543,0.112-1.09,0.128-1.631-0.007
	c-0.23-0.059-0.465-0.139-0.678-0.25c-0.762-0.398-1.094-1.09-0.904-1.99c0.092-0.431,0.291-0.815,0.557-1.163
	c0.703-0.919,1.625-1.492,2.756-1.727c0.709-0.146,1.42-0.124,2.131-0.045c0.279,0.031,0.555,0.084,0.832,0.133
	C177.127,147.714,177.262,147.752,177.402,147.786z"></path>
            <path class="bacls-1" d="M118.975,143.843c0.006-0.098,0-0.149,0.013-0.196c0.167-0.604,0.393-1.185,0.728-1.719
	c0.759-1.208,1.863-1.852,3.271-1.99c0.356-0.036,0.711-0.051,1.069-0.013c1.205,0.127,1.966,0.794,2.234,1.97
	c0.135,0.592,0.125,1.318-0.025,1.899c-0.109,0.085-0.242,0.047-0.365,0.047c-1.097,0.003-2.193,0.002-3.291,0.002
	c-1.071,0-2.143,0-3.214,0C119.269,143.843,119.143,143.843,118.975,143.843z"></path>
            <!-- End -->
        </svg>