<svg width="50" height="45" viewBox="0 0 50 45" fill="none" xmlns="http://www.w3.org/2000/svg">
<path d="M49.6688 20.9683C47.653 16.7215 45.2542 13.258 42.4723 10.5778L39.5547 13.4954C41.9339 15.769 44.0062 18.7434 45.7982 22.4477C41.0273 32.3222 34.2551 37.0128 25 37.0128C22.2219 37.0128 19.6631 36.585 17.3235 35.7295L14.1622 38.8908C17.4116 40.3912 21.0242 41.1415 25 41.1415C36.0212 41.1415 44.2442 35.4015 49.6688 23.9215C49.8869 23.4598 50 22.9555 50 22.4449C50 21.9343 49.8869 21.43 49.6688 20.9683ZM46.0235 2.58193L43.579 0.134543C43.5364 0.0918905 43.4858 0.0580545 43.4301 0.0349686C43.3744 0.0118827 43.3147 0 43.2545 0C43.1942 0 43.1345 0.0118827 43.0788 0.0349686C43.0231 0.0580545 42.9725 0.0918905 42.9299 0.134543L36.6583 6.40325C33.2006 4.63709 29.3144 3.75402 25 3.75402C13.9787 3.75402 5.75575 9.49402 0.331127 20.974C0.113084 21.4357 0 21.94 0 22.4506C0 22.9612 0.113084 23.4655 0.331127 23.9272C2.4983 28.4917 5.10739 32.1503 8.15841 34.9032L2.0904 40.9694C2.00444 41.0555 1.95615 41.1721 1.95615 41.2937C1.95615 41.4153 2.00444 41.532 2.0904 41.618L4.53836 44.066C4.62439 44.1519 4.74102 44.2002 4.86264 44.2002C4.98425 44.2002 5.10089 44.1519 5.18691 44.066L46.0235 3.23105C46.0662 3.18845 46.1 3.13785 46.1231 3.08216C46.1462 3.02647 46.1581 2.96678 46.1581 2.90649C46.1581 2.8462 46.1462 2.78651 46.1231 2.73082C46.1 2.67513 46.0662 2.62454 46.0235 2.58193ZM4.20176 22.4477C8.97841 12.5733 15.7506 7.88269 25 7.88269C28.1274 7.88269 30.9711 8.41942 33.5509 9.51065L29.5197 13.5418C27.6106 12.5232 25.4246 12.1452 23.2843 12.4635C21.144 12.7818 19.1626 13.7796 17.6325 15.3097C16.1024 16.8398 15.1046 18.8211 14.7863 20.9615C14.468 23.1018 14.8461 25.2877 15.8647 27.1969L11.0812 31.9804C8.43365 29.6437 6.15141 26.4778 4.20176 22.4477ZM18.3482 22.4477C18.3492 21.4366 18.5887 20.4399 19.0473 19.5387C19.5058 18.6375 20.1705 17.8572 20.9873 17.2611C21.8041 16.6651 22.75 16.2701 23.7481 16.1083C24.7462 15.9465 25.7684 16.0224 26.7317 16.3298L18.6527 24.4089C18.4502 23.7749 18.3475 23.1133 18.3482 22.4477Z" fill="#E2E2E2"/>
<path d="M24.7705 28.8702C24.5721 28.8702 24.3765 28.861 24.1827 28.8432L21.1539 31.8721C22.9756 32.5697 24.9604 32.7248 26.8684 32.3184C28.7763 31.9121 30.5257 30.9618 31.9051 29.5824C33.2845 28.203 34.2348 26.4536 34.6411 24.5457C35.0475 22.6377 34.8924 20.6529 34.1948 18.8312L31.1659 21.86C31.1837 22.0538 31.1929 22.2494 31.1929 22.4478C31.1933 23.2913 31.0275 24.1267 30.7049 24.9061C30.3823 25.6855 29.9093 26.3936 29.3128 26.9901C28.7163 27.5866 28.0082 28.0596 27.2288 28.3822C26.4493 28.7048 25.614 28.8706 24.7705 28.8702Z" fill="#E2E2E2"/>
</svg>
