<svg width="16" height="14" viewBox="0 0 16 14" fill="currentColor" xmlns="http://www.w3.org/2000/svg">
<g clip-path="url(#clip0_2796_4541)">
<path d="M8.23463 7.62273C8.69109 7.62273 9.12886 7.44593 9.45162 7.13124C9.77439 6.81654 9.95572 6.38972 9.95572 5.94467C9.95572 5.49962 9.77439 5.07279 9.45162 4.7581C9.12886 4.4434 8.69109 4.2666 8.23463 4.2666C8.20774 4.2666 8.18407 4.2729 8.15799 4.27421C8.24092 4.4969 8.25699 4.73803 8.20431 4.96931C8.15163 5.20059 8.03238 5.41242 7.86056 5.57995C7.68874 5.74747 7.47148 5.86374 7.23427 5.91511C6.99706 5.96647 6.74974 5.9508 6.52134 5.86994C6.52134 5.89616 6.51354 5.91923 6.51354 5.94467C6.51354 6.16503 6.55806 6.38324 6.64455 6.58683C6.73105 6.79042 6.85782 6.97541 7.01764 7.13124C7.3404 7.44593 7.77817 7.62273 8.23463 7.62273ZM15.8859 6.40089C14.4276 3.62658 11.5405 1.74951 8.23463 1.74951C4.9288 1.74951 2.04086 3.62789 0.583316 6.40115C0.521798 6.5198 0.489746 6.65088 0.489746 6.78383C0.489746 6.91677 0.521798 7.04786 0.583316 7.16651C2.04167 9.94081 4.9288 11.8179 8.23463 11.8179C11.5405 11.8179 14.4284 9.9395 15.8859 7.16624C15.9475 7.0476 15.9795 6.91651 15.9795 6.78357C15.9795 6.65062 15.9475 6.51954 15.8859 6.40089ZM8.23463 2.58854C8.91543 2.58854 9.58094 2.78538 10.147 3.15415C10.7131 3.52293 11.1543 4.04708 11.4148 4.66033C11.6753 5.27358 11.7435 5.94839 11.6107 6.59941C11.4779 7.25044 11.15 7.84844 10.6686 8.3178C10.1872 8.78717 9.57388 9.10681 8.90617 9.2363C8.23845 9.3658 7.54634 9.29934 6.91737 9.04532C6.28839 8.7913 5.7508 8.36114 5.37256 7.80923C4.99433 7.25732 4.79245 6.60844 4.79245 5.94467C4.79345 5.05487 5.15643 4.20179 5.80174 3.5726C6.44706 2.94342 7.32201 2.58951 8.23463 2.58854ZM8.23463 10.9789C5.3475 10.9789 2.7094 9.37132 1.35028 6.7837C2.11466 5.32061 3.33708 4.13289 4.84032 3.3927C4.27908 4.10116 3.93191 4.97899 3.93191 5.94467C3.93191 7.05729 4.38523 8.12434 5.19215 8.91109C5.99906 9.69783 7.09348 10.1398 8.23463 10.1398C9.37578 10.1398 10.4702 9.69783 11.2771 8.91109C12.084 8.12434 12.5374 7.05729 12.5374 5.94467C12.5374 4.97899 12.1902 4.10116 11.6289 3.3927C13.1322 4.13289 14.3546 5.32061 15.119 6.7837C13.7601 9.37132 11.1218 10.9789 8.23463 10.9789Z"/>
</g>
<defs>
<clipPath id="clip0_2796_4541">
<rect width="15.4898" height="13.4245" transform="translate(0.489746 0.0714111)"/>
</clipPath>
</defs>
</svg>
