<svg width="50" height="37" viewBox="0 0 50 37" fill="none" xmlns="http://www.w3.org/2000/svg">
<path d="M49.6688 17.0359C44.2328 5.70322 36.0155 0 25 0C13.9787 0 5.76722 5.70322 0.331127 17.0416C0.113084 17.4985 0 17.9975 0 18.5028C0 19.0081 0.113084 19.5072 0.331127 19.9641C5.76722 31.2968 13.9844 37 25 37C36.0213 37 44.2328 31.2968 49.6688 19.9584C50.1104 19.0391 50.1104 17.9722 49.6688 17.0359ZM25 32.9141C15.7506 32.9141 8.97842 28.2721 4.20176 18.5C8.97842 8.72791 15.7506 4.08589 25 4.08589C34.2494 4.08589 41.0216 8.72791 45.7982 18.5C41.0273 28.2721 34.2551 32.9141 25 32.9141ZM24.7706 8.51227C19.1969 8.51227 14.6783 12.984 14.6783 18.5C14.6783 24.016 19.1969 28.4877 24.7706 28.4877C30.3443 28.4877 34.8629 24.016 34.8629 18.5C34.8629 12.984 30.3443 8.51227 24.7706 8.51227ZM24.7706 24.8558C21.2211 24.8558 18.3482 22.0127 18.3482 18.5C18.3482 14.9873 21.2211 12.1442 24.7706 12.1442C28.3201 12.1442 31.193 14.9873 31.193 18.5C31.193 22.0127 28.3201 24.8558 24.7706 24.8558Z" fill="#E2E2E2"/>
</svg>
