<svg width="30" height="30" viewBox="0 0 30 30" fill="none" xmlns="http://www.w3.org/2000/svg">
<g clip-path="url(#clip0_1_782)">
<path d="M20.8591 6.7236C20.8591 6.23844 20.4654 5.84469 19.9802 5.84469H10.0193C9.53413 5.84469 9.14038 6.23844 9.14038 6.7236C9.14038 7.20876 9.53413 7.60251 10.0193 7.60251H19.9802C20.4654 7.60251 20.8591 7.20876 20.8591 6.7236ZM19.413 11.9929C19.5472 12.0545 19.6884 12.0791 19.8261 12.0709C20.1419 12.0527 20.4367 11.8652 20.5767 11.5576C20.7783 11.1158 20.5832 10.5943 20.1414 10.3933C18.9718 9.86071 18.3542 8.95485 18.0296 8.18844H14.4021C14.0423 8.87751 13.7939 9.74001 13.8572 10.7748C13.8871 11.2582 14.3013 11.6261 14.7841 11.5986H14.7882C15.2728 11.5687 15.6414 11.1515 15.6115 10.667C15.5541 9.7359 15.8933 9.01227 16.2712 8.50544C16.6779 9.65212 17.5503 11.1451 19.413 11.9929ZM19.9802 5.25876C20.1109 5.25876 20.2375 5.27575 20.3576 5.30856C22.0052 3.68493 21.3923 2.31091 20.9775 1.89606C20.6968 1.6154 20.2832 1.39333 19.7634 1.35466C19.6386 2.43805 19.0615 3.8736 18.2335 5.25876H19.9802ZM12.4533 5.25876H17.5462C18.4697 3.78805 19.0966 2.2488 19.1916 1.19645C19.2882 0.123015 18.3484 -0.213314 17.4472 0.128288C16.546 0.46989 15.7158 0.636882 14.9998 0.636882C14.2837 0.636882 13.4535 0.46989 12.5523 0.128288C11.6511 -0.213314 10.7113 0.123015 10.808 1.19645C10.9029 2.2488 11.5298 3.78805 12.4533 5.25876Z" fill="#073F7D"/>
<path d="M20.6148 8.04465C20.4169 8.1401 20.2 8.18958 19.9802 8.18938H18.6748C19.0539 8.95403 19.6269 9.51653 20.3839 9.86106C20.7402 10.0228 21.0115 10.314 21.1486 10.6808C21.2857 11.0476 21.2716 11.4454 21.1093 11.8017C20.993 12.0579 20.8052 12.2751 20.5684 12.4272C20.3316 12.5792 20.056 12.6597 19.7746 12.6589C19.5648 12.6589 19.3609 12.6144 19.1687 12.5259C17.7173 11.865 16.8162 10.8484 16.2578 9.87629C16.2004 10.1235 16.1796 10.3778 16.1962 10.631C16.246 11.4372 15.6302 12.1339 14.824 12.1837C14.8169 12.1837 14.8093 12.1843 14.8023 12.1849C14.7789 12.1861 14.756 12.1866 14.7332 12.1866C13.9615 12.1866 13.3199 11.5825 13.2724 10.8115C13.2162 9.88918 13.3773 9.00911 13.7511 8.18938H10.0193C9.79194 8.18938 9.5769 8.13723 9.38472 8.04465C5.57261 10.1839 1.34741 14.7185 1.34741 23.9318C1.34741 29.6001 5.80698 30.0009 14.9998 30.0009C24.1925 30.0009 28.6521 29.6007 28.6521 23.9318C28.6521 14.7185 24.4269 10.1839 20.6142 8.04465H20.6148ZM19.508 21.3355C18.6039 22.0738 17.3851 22.4429 15.8505 22.4429H13.9322V22.9222H16.6615V25.2765H13.9322V26.7501H10.8718V25.2765H9.13687V22.9222H10.8718V22.4429H9.13687V20.0798H10.8718V14.0546H15.9115C16.8824 14.0546 17.7437 14.2322 18.4966 14.5866C19.2496 14.9411 19.832 15.4456 20.2451 16.0995C20.6576 16.7534 20.8644 17.4935 20.8644 18.3185C20.8644 19.5917 20.4121 20.5972 19.5085 21.3355H19.508ZM10.0193 5.25969H11.766C10.938 3.87454 10.3609 2.43899 10.2361 1.35559C9.71636 1.39426 9.30269 1.61633 9.02202 1.897C8.60718 2.31184 7.99429 3.68586 9.64194 5.3095C9.76206 5.27668 9.88862 5.25969 10.0193 5.25969Z" fill="#073F7D"/>
<path d="M15.9373 16.4259H13.9316V20.0792H15.8061C17.108 20.0792 17.759 19.498 17.759 18.3355C17.759 17.7659 17.5961 17.3066 17.2709 16.9579C16.9451 16.6093 16.5004 16.4318 15.9367 16.4259H15.9373Z" fill="#073F7D"/>
</g>
<defs>
<clipPath id="clip0_1_782">
<rect width="30" height="30" fill="white"/>
</clipPath>
</defs>
</svg>
