<svg width="20" height="20" viewBox="0 0 20 20" fill="currentColor" xmlns="http://www.w3.org/2000/svg">
<path d="M14.9873 8.4375H11.3011C11.1593 8.43769 11.019 8.46645 10.8886 8.52208C10.7581 8.5777 10.6403 8.65905 10.542 8.76125C10.5504 8.77625 10.5623 8.78813 10.5695 8.80375L11.6323 11.1422C11.7319 11.3605 11.892 11.5456 12.0937 11.6755C12.2954 11.8054 12.5302 11.8747 12.7701 11.875H16.7348L16.2098 9.42563C16.1488 9.14643 15.9945 8.89638 15.7722 8.71673C15.5499 8.53709 15.2731 8.43859 14.9873 8.4375Z"/>
<path d="M11.3006 7.8125H14.9869C15.4155 7.81432 15.8306 7.96214 16.1639 8.23159C16.4972 8.50103 16.7287 8.876 16.8203 9.29469L17.3734 11.875H18.125V7.5C18.125 6.67924 17.9633 5.86651 17.6492 5.10823C17.3352 4.34994 16.8748 3.66095 16.2944 3.08058C15.7141 2.50022 15.0251 2.03984 14.2668 1.72575C13.5085 1.41166 12.6958 1.25 11.875 1.25H9.0625C8.24174 1.25 7.42901 1.41166 6.67073 1.72575C5.91244 2.03984 5.22345 2.50022 4.64308 3.08058C3.47098 4.25269 2.8125 5.8424 2.8125 7.5L2.25 8.4375H9.99625C10.1533 8.24265 10.352 8.0854 10.5776 7.97726C10.8033 7.86912 11.0504 7.81282 11.3006 7.8125ZM9.375 8.125C9.31319 8.125 9.25277 8.10667 9.20138 8.07233C9.14999 8.038 9.10994 7.98919 9.08629 7.93209C9.06264 7.87499 9.05645 7.81215 9.0685 7.75153C9.08056 7.69092 9.11032 7.63523 9.15403 7.59153C9.19773 7.54782 9.25341 7.51806 9.31403 7.506C9.37465 7.49395 9.43749 7.50014 9.49459 7.52379C9.55169 7.54744 9.6005 7.58749 9.63483 7.63888C9.66917 7.69027 9.6875 7.75069 9.6875 7.8125C9.6875 7.89538 9.65458 7.97487 9.59597 8.03347C9.53737 8.09208 9.45788 8.125 9.375 8.125Z"/>
<path d="M18.125 12.5H12.77C12.41 12.5001 12.0575 12.3964 11.7548 12.2015C11.452 12.0066 11.2118 11.7287 11.0628 11.4009L10 9.0625H1.875C1.70924 9.0625 1.55027 9.12835 1.43306 9.24556C1.31585 9.36277 1.25 9.52174 1.25 9.6875C1.25 9.85326 1.31585 10.0122 1.43306 10.1294C1.55027 10.2467 1.70924 10.3125 1.875 10.3125H9.0625L9.79219 11.9181C10.0405 12.4644 10.4409 12.9277 10.9454 13.2525C11.45 13.5774 12.0374 13.7501 12.6375 13.75H18.125C18.2908 13.75 18.4497 13.6842 18.5669 13.5669C18.6842 13.4497 18.75 13.2908 18.75 13.125C18.75 12.9592 18.6842 12.8003 18.5669 12.6831C18.4497 12.5658 18.2908 12.5 18.125 12.5Z" />
<path d="M10.8356 13.9125C10.6529 13.8114 10.4788 13.6952 10.3153 13.5653L8.75 15.7184V11.1356L8.66 10.9375H6.875V18.75H8.75V16.7812L10.8356 13.9125Z"/>
</svg>
