<svg viewBox="0 0 31 31" fill="currentColor" xmlns="http://www.w3.org/2000/svg"><path class="abcls-1" d="M4 0h23a4 4 0 0 1 4 4v23a4 4 0 0 1-4 4H4a4 4 0 0 1-4-4V4a4 4 0 0 1 4-4zm23 1H4a3 3 0 0 0-3 3v23a3 3 0 0 0 3 3h23a3 3 0 0 0 3-3V4a3 3 0 0 0-3-3z"></path><path class="abcls-2" d="M15.57 12.91A3.05 3.05 0 1 0 18.62 16a3.05 3.05 0 0 0-3.05-3.05zm7.12-2a1 1 0 0 1 1 1V20a1 1 0 0 1-1 1H8.45a1 1 0 0 1-1-1v-8.1a1 1 0 0 1 1-1H13c.23 0 .46-.92.51-1s.46-1 1-1h2c.56 0 .92.81 1 1s.28 1 .51 1zM15.57 20a4.07 4.07 0 1 1 4.07-4 4.07 4.07 0 0 1-4.07 4zm2.52-4.41v.69a.34.34 0 0 1-.34.34h-1.49v1.49a.34.34 0 0 1-.34.34h-.69a.34.34 0 0 1-.34-.34v-1.46h-1.5a.34.34 0 0 1-.34-.34v-.69a.34.34 0 0 1 .34-.34h1.49v-1.49a.34.34 0 0 1 .34-.34h.69a.34.34 0 0 1 .34.34v1.49h1.49a.34.34 0 0 1 .34.34z"></path></svg>