<svg viewBox="0 0 20 20.14" fill="currentColor" id="mail" xmlns="http://www.w3.org/2000/svg"><path class="ascls-1" d="M20 8.71a8.06 8.06 0 0 1-.65 3.17 6.29 6.29 0 0 1-1.89 2.59 4.68 4.68 0 0 1-2.92 1.08 2.54 2.54 0 0 1-1.54-.49 3 3 0 0 1-.62-.73 4.11 4.11 0 0 1-3 1.26 4.22 4.22 0 0 1-3.06-1.24 5.25 5.25 0 0 1-1.51-3.93 5.22 5.22 0 0 1 1.92-4.3 4.86 4.86 0 0 1 5.77-.28l.17-.59h2.61l-.76 6.24a8.63 8.63 0 0 0-.32 1.26.58.58 0 0 0 .57.54 1.48 1.48 0 0 0 .55-.12 3.41 3.41 0 0 0 1.73-1.79 5.61 5.61 0 0 0 .57-2.46A6.2 6.2 0 0 0 16 4.56a7.33 7.33 0 0 0-5.69-2.29 7.52 7.52 0 0 0-5 1.84 7.44 7.44 0 0 0-2.71 5.95 7.24 7.24 0 0 0 3.09 6.21 8.19 8.19 0 0 0 4.94 1.42 10.88 10.88 0 0 0 4.44-.87l.91-.4.41-.21.19-.08.9 2.28-.15.07-.21.11-.14.07-.66.3a13.38 13.38 0 0 1-5.66 1.18 11 11 0 0 1-6.56-1.9 9.65 9.65 0 0 1-3-3.57A10.13 10.13 0 0 1 0 10.08a9.57 9.57 0 0 1 2.6-6.77A10.15 10.15 0 0 1 10.37 0a9.64 9.64 0 0 1 7.37 3A8 8 0 0 1 20 8.71zm-7.76 1.12a2 2 0 0 0-.66-1.58 2.39 2.39 0 0 0-1.66-.59 2.09 2.09 0 0 0-1.47.61 3 3 0 0 0-.84 2.28 2.78 2.78 0 0 0 .46 1.62 1.64 1.64 0 0 0 1.43.77 2.47 2.47 0 0 0 2-1 3.2 3.2 0 0 0 .74-2.11z"></path></svg>