<svg viewBox="0 0 21 21" id="man" fill="currentColor" xmlns="http://www.w3.org/2000/svg"><path d="M10.5 0A10.5 10.5 0 1 1 0 10.5 10.5 10.5 0 0 1 10.5 0zm5.1 17.24a26.75 26.75 0 0 0-3.08-1.56c-.5-.61.18-3.21.18-3.21a8.12 8.12 0 0 0 .3-.77c.34.08.5-.28.63-.8s.18-1.23-.13-1.13v-.22a5.34 5.34 0 0 0-.29-2.12 3.13 3.13 0 0 0-5.75 0 5.35 5.35 0 0 0-.29 2.12v.22c-.39 0-.25.66-.13 1.13s.29.89.63.8a8.25 8.25 0 0 0 .31.77s.68 2.6.18 3.21a27.69 27.69 0 0 0-2.94 1.47 8.45 8.45 0 0 0 10.31.08zM10.5 1.63a8.86 8.86 0 1 0 8.86 8.86 8.87 8.87 0 0 0-8.86-8.86z"></path></svg>