<svg viewBox="0 0 23.41 20" id="order" fill="currentColor" xmlns="http://www.w3.org/2000/svg"><path class="axcls-1" d="M22.62 13.81l-5.23 3a4 4 0 0 0-.53-1.81l4.84-2.78a.92.92 0 0 1 .92 1.59zm-9.09-.09A3.15 3.15 0 1 0 16 15.29a3.16 3.16 0 0 0-2.51-1.57zm-.13 2a1.15 1.15 0 0 1 .49 2.15 1.15 1.15 0 0 1-1.16-2 1.19 1.19 0 0 1 .67-.16zM14.79 3l1 1.68-1.52.88-1-1.68L14.79 3zm4 6.91l-1.53.88 1.08 1.86 1.52-.88-1.08-1.86zm-.4-8.81a1.28 1.28 0 0 0-.74.18L15.34 2.6l1 1.73a.67.67 0 0 1-.25.9l-1.59.92a.67.67 0 0 1-.9-.23l-1-1.73-2.31 1.32a1.32 1.32 0 0 0-.49 1.8L13 12.8a4.13 4.13 0 0 1 .61 0 4.07 4.07 0 0 1 2.54 1.2l1.59-.92-1.1-1.93a.67.67 0 0 1 .23-.9l1.59-.9a.67.67 0 0 1 .5-.07.65.65 0 0 1 .4.31l1.12 1.93 2.29-1.32a1.32 1.32 0 0 0 .47-1.8l-3.82-6.65a1.31 1.31 0 0 0-1-.65zM3.9 0a1 1 0 0 1 .7.47l7.4 12.6a4.12 4.12 0 0 0-.67.31 4 4 0 0 0-.92.74L3.23 1.91H1A1 1 0 0 1 1 0h2.9z"></path></svg>