<svg viewBox="0 0 20 16.04" fill="currentColor" xmlns="http://www.w3.org/2000/svg"><path class="bccls-1" d="M1.94 0a.36.36 0 0 0-.35.37v1.51l-1.47 2A.53.53 0 0 0 0 4.2v1.92a.48.48 0 0 0 .45.49h1.14v7.79H.88a.36.36 0 0 0-.35.37v.92a.36.36 0 0 0 .35.31h18.24a.36.36 0 0 0 .35-.37v-.92a.36.36 0 0 0-.35-.37h-.69V6.61h1.12a.48.48 0 0 0 .45-.49V4.2a.52.52 0 0 0-.1-.33l-1.47-2V.37a.36.36 0 0 0-.35-.37zm1.59 1.65h1.81L4.2 4v1.5H2V4l1.53-2.35zm3.73 0h1.81L8.73 4v1.5H6.65V4l.61-2.39zm3.69 0h1.83L13.39 4v1.5h-2.1V4l-.35-2.39zm3.71 0h1.75L18 4v1.5h-2.2V4l-1.14-2.35zM4.49 7.71h5.25A.26.26 0 0 1 10 8v3.85a.28.28 0 0 1-.27.29H4.49a.28.28 0 0 1-.27-.29V8a.26.26 0 0 1 .27-.26zm7.89 0h3.69a.26.26 0 0 1 .27.26v6.42h-4.23V8a.26.26 0 0 1 .27-.29z"></path></svg>