<?xml version="1.0" encoding="utf-8"?>
<!-- Generator: Adobe Illustrator 16.0.0, SVG Export Plug-In . SVG Version: 6.00 Build 0)  -->
<!DOCTYPE svg PUBLIC "-//W3C//DTD SVG 1.1//EN" "http://www.w3.org/Graphics/SVG/1.1/DTD/svg11.dtd">
<svg version="1.1" id="Слой_1" xmlns="http://www.w3.org/2000/svg" xmlns:xlink="http://www.w3.org/1999/xlink" x="0px" y="0px"
	 width="283.555px" height="283.537px" viewBox="0 0 283.555 283.537" enable-background="new 0 0 283.555 283.537"
	 xml:space="preserve">
<g>
	<path fill-rule="evenodd" clip-rule="evenodd" fill="#0B376C" d="M152.703,8.98c2.835,0.429,5.481,1.673,8.212,2.538
		c23.94,7.581,39.159,23.694,43.85,48.188c4.69,24.501-3.495,45.12-22.926,61.026c-1.188,0.973-2.616,1.653-4.528,2.837
		c-2.147-3.282-4.175-6.376-6.143-9.383c26.95-26.095,29.892-56.072,8.027-78.094c-19.562-19.701-51.101-19.748-70.928-0.354
		c-16.809,16.44-24.733,50.728,5.953,77.001c-1.767,3.092-3.6,6.302-5.814,10.176c-16.813-12.031-25.979-27.809-27.05-47.725
		c-1.728-32.108,19.158-58.469,50.715-65.054c1.066-0.223,2.014-0.958,3.099-1.157C140.917,7.924,146.924,8.109,152.703,8.98z"/>
</g>
<path fill-rule="evenodd" clip-rule="evenodd" fill="#0B376C" d="M47.339,278.269c2.073-32.798,3.768-65.084,12.476-96.483
	c2.393-8.627,6.691-16.051,13.738-21.881c6.055-5.01,11.819-10.381,17.602-15.712c9.795-9.029,22.11-15.598,27.649-29.691
	c6.458,8.449,12.804,15.335,23.521,14.813c10.656-0.521,16.501-7.848,22.651-16.911c4.064,12.557,14.012,18.232,23.595,23.862
	c20.682,12.147,31.644,29.723,34.65,53.619c3.695,29.372,9.085,58.528,13.84,88.385C173.438,278.269,110.878,278.269,47.339,278.269
	z M121.181,213.18c4.416-4.023,8.833-8.047,13.249-12.071c-0.523-0.559-1.047-1.114-1.569-1.672
	c-3.104,2.126-6.615,3.861-9.16,6.522c-1.571,1.644-1.671,4.694-2.431,7.114c-1.99,1.485-3.98,2.969-7.266,5.42
	c0-8.768,0-15.878,0-22.988c-0.674,0.004-1.346,0.007-2.02,0.011c-0.988,15.35-1.976,30.701-2.963,46.052
	c-3.348,2.41-6.614,5.481-7.152,8.973c-1.211,7.858-1.072,15.926-1.561,25.446c8.491-7.933,15.422-15.595,23.522-21.707
	c12.622-9.525,13.95-22.539,13.815-37.114c-7.916,2.677-2.742,10.632-7.249,15.679c-1.332-5.808-2.429-10.596-3.809-16.614
	c-2.821,2.662-4.892,4.614-7.305,6.89c2.931-12.715,15.704-4.428,21.708-9.859c-0.188-0.824-0.376-1.649-0.566-2.474
	C134,211.597,127.573,212.407,121.181,213.18z M203.109,185.245c-15.575,0-30.257,0-44.798,0c0,22.552,0,44.432,0,66.325
	c7.015,0.338,13.696,2.743,18.813-3.517c0.574-0.702,2.133-1.135,3.062-0.925c6.878,1.556,13.703,3.343,20.563,4.974
	c1.935,0.459,3.932,0.646,6.611,1.073C205.893,229.723,204.494,207.397,203.109,185.245z"/>
<path fill-rule="evenodd" clip-rule="evenodd" fill="#0B376C" d="M159.962,110.628c-16.595-22.91-23.457-22.703-37.712,0.539
	c-1.912-7.307-4.941-14.535-5.462-21.939c-0.72-10.227-0.26-20.675,0.991-30.868c1.627-13.24,9.63-19.471,23.05-19.644
	c14.377-0.186,22.248,5.363,24.174,18.929C167.496,75.222,168.316,92.899,159.962,110.628z"/>
<path fill-rule="evenodd" clip-rule="evenodd" fill="#0B376C" d="M130.722,109.786c3.941-4.029,7.174-7.335,10.751-10.993
	c3.836,3.583,7.354,6.872,11.141,10.409c-2.453,1.77-4.413,3.18-6.826,4.917c-2.562-3.778-5.422-6.118-8.238-0.089
	C135.27,112.612,133.281,111.376,130.722,109.786z"/>
</svg>
