<!-- Generator: Adobe Illustrator 21.0.0, SVG Export Plug-In  -->
<svg version="1.1"
	 xmlns="http://www.w3.org/2000/svg" xmlns:xlink="http://www.w3.org/1999/xlink" xmlns:a="http://ns.adobe.com/AdobeSVGViewerExtensions/3.0/"
	 x="0px" y="0px" width="118.1px" height="98px" viewBox="0 0 118.1 98" style="enable-background:new 0 0 118.1 98;"
	 xml:space="preserve">
<style type="text/css">
	.st0{fill-rule:evenodd;clip-rule:evenodd;fill:#E2E8EC;}
	.st1{fill-rule:evenodd;clip-rule:evenodd;fill:#367BC5;}
</style>
<path class="st0" d="M80.1,32.4L80.1,32.4l7.8-1.7h1.8c0,0.7,0.7,1.3,1.7,1.7H80.1L80.1,32.4z M37.7,14.3c0.6-0.2,1.2,0.2,1.4,0.7
	c0.2,0.6-0.2,1.2-0.7,1.4c-0.6,0.2-1.2-0.2-1.4-0.7C36.8,15,37.2,14.4,37.7,14.3L37.7,14.3z M35.5,48.9C33.7,45,40,42,41.9,46
	c1.5,3.2,9.2,19.8,9.2,19.8c0.3,0.1-2.7-7.5-4.2-10.6c-1.5-3.2,4.3-5.7,5.8-2.6c1.5,3.2,5.5,11.9,5.5,11.9s-2.5-6.9-4-10.2
	c-1.5-3.3,5.8-4.7,7.3-1.4l0.9,1.9c-2.8,4.9-4.2,10.3-4.2,16.1c0,6,1.5,11.5,4.4,16.5c0.9,1.5,1.9,3,3,4.3c0.2,0.6,0.3,1.2,0.6,1.7
	L61,95.9c-1.7,0.8-2.4-5.2-12.9-10.4c-12.8-6.4-13.7-7.8-14.5-9.5c-0.8-1.7,0.2-4.2,1.9-5c1.7-0.8,13,6,11.5,2.7
	c-1.5-3.3-1.5-3.3-1.5-3.3S37,52.1,35.5,48.9L35.5,48.9z M53.2,15.4l4.1-3.4c0.4-0.3,1.3-0.7,2.4-0.7c0.5,0,2.2-0.1,3.2,1.1
	c0.9,1.1,0.6,2.6,0.4,3.2c-0.2,1.1-0.8,1.8-1.1,2.2l-8.4,7.1L53.2,15.4L53.2,15.4z M54.4,28.8l2.5-0.4c2-0.4,4,0.9,4.5,2.9
	c0.4,2-0.9,4-2.9,4.5L56,36.2c-2,0.4-4-0.9-4.5-2.9C51.1,31.3,52.4,29.2,54.4,28.8L54.4,28.8z M53.2,46.1c-1.7,0.4-2.9,1.9-3,3.5
	c1,0,1.9,0.4,2.4,1.4l0.9,2c-1.3-2.8,3.9-4.4,6.7-3.1c0.1-0.5,0.1-0.9,0-1.4c-0.4-2-2.5-3.3-4.5-2.9L53.2,46.1L53.2,46.1z
	 M53.5,37.6c-2,0.4-3.3,2.5-2.9,4.5c0.4,2,2.5,3.3,4.5,2.9l2.5-0.4c2-0.4,3.3-2.5,2.9-4.5c-0.4-2-2.5-3.3-4.5-2.9L53.5,37.6
	L53.5,37.6z M12.3,57.5c0.1,1.1,0.3,2.1,0.4,3.1C8.5,65.4,4.2,70.3,0,75.1v2.7h29.9c0.5-0.8,1.1-1.7,1.6-2.5c0.5,0,1.1-0.1,1.7-0.2
	l0,0c-0.8-1.7,0.3-4.3,1.9-5.1c0.7-0.3,2.9,0.6,5.3,1.6c0.8-0.7,1.4-1.3,1.9-1.8l-0.9-2.2c-5.5,0.3-8.3,0.5-13.8,0.8
	c-1.5,0.1-2.7-1-2.8-2.5l-1.5-27.4c-0.5,0.2-0.9,0.2-1.3,0c-1.1-0.6-0.5-2.8-1-7.2c-0.3-3-0.5-5-1.9-7c-0.6-0.9-2.1-3.2-4.5-3.2
	c-1.7,0-2.9,1.1-3.4,1.6c0.5,1.8,1.1,3.6,1.6,5.4c0.6,2,1,4.6,0.7,7.8c-0.1,1.6-0.5,4.1-1.8,6.9C11.6,47.1,11.6,52.1,12.3,57.5
	L12.3,57.5z M34.5,36.5c0-1.1,0.9-2.1,2.1-2.1c0.1,0,0.2,0,0.3,0c0.2,1,0.7,2.1,1.5,3.2c-0.3,0.5-0.8,0.8-1.4,0.9
	c0.4,0.7,1,1.4,1.6,2.1c0.6,0.6,1.2,1,1.8,1.4c0.1-0.6,0.4-1,0.8-1.4c1.1,0.8,2.3,1.3,3.3,1.5c0,0.1,0,0.1,0,0.2
	c0,1.1-0.9,2.1-2.1,2.1c-0.1,0-0.1,0-0.2,0c-0.2,0-0.4,0-0.7,0l1.2,2.6c2.9-1.3,4.9-4.2,4.9-7.5c0-4.5-3.7-8.2-8.2-8.2
	c-4.5,0-8.2,3.7-8.2,8.2c0,2.8,1.4,5.2,3.5,6.7c-0.2-1.8,1.3-3.2,2.9-3.6c-0.2-0.2-0.4-0.4-0.6-0.6c-1.7-1.7-2.7-3.7-2.6-5.3
	C34.5,36.7,34.5,36.6,34.5,36.5L34.5,36.5z M35.4,60.5l3.3-0.2l-0.6-1.2l-7.5,0.4c-1.2,0.1-2.3-0.9-2.3-2.1l-2.1-37.8
	c-0.1-1.2,0.9-2.3,2.1-2.3l19.5-1.1c1.2-0.1,2.3,0.9,2.3,2.1l0.6,11.7c0.4-0.5,0.9-0.8,1.4-1.1L51.5,15c-0.1-1.2-1.1-2.2-2.3-2.1
	l-22.5,1.2c-1.2,0.1-2.2,1.1-2.1,2.3L27,61.6c0.1,1.2,1.1,2.2,2.3,2.1L40,63.1l-0.5-1.2l-4,0.2c-0.3,0-0.5-0.2-0.5-0.4l0-0.7
	C35,60.8,35.2,60.5,35.4,60.5L35.4,60.5z M99.9,29.8c2.1-1.3,3.5-3,4.2-5.9c-0.5,0.2-1,0.3-1.7,0.4c-1.8,0.3-4.2,0.5-6.8,0.5
	c-2.6,0-5-0.2-6.8-0.5c-0.7-0.1-1.2-0.3-1.7-0.4c0.7,2.9,2.1,4.6,4.2,5.9c-0.5,0.2-0.7,0.5-0.7,0.7c0,0.8,2.3,1.4,5,1.4
	c2.8,0,5-0.6,5-1.4C100.8,30.3,100.5,30,99.9,29.8L99.9,29.8z M86.9,22.5c-0.1-0.4-0.1-0.9-0.2-1.4c0-0.1,0-0.1,0-0.2
	c0.5,0.2,1.2,0.4,1.9,0.5c1.8,0.3,4.3,0.5,7.1,0.5s5.3-0.2,7.1-0.5c0.7-0.1,1.4-0.3,1.9-0.5c0,0,0,0.1,0,0.1c-0.1,0.5-0.1,1-0.2,1.4
	h0c0,0,0,0,0,0c0,0.1-0.8,0.3-2.2,0.5c-1.7,0.3-4,0.5-6.6,0.5c-2.6,0-4.9-0.2-6.6-0.5C87.8,22.8,86.9,22.6,86.9,22.5
	C86.9,22.5,86.9,22.5,86.9,22.5L86.9,22.5L86.9,22.5z M86.7,19.7c0-0.1,0-0.2,0-0.3c-1-0.8-1.9-2.2-2.5-3.4c-0.8-1.6-1.2-3.6-1.2-5
	c0-0.1,0-0.1,0-0.2c0-1.4,0.4-2.6,1.2-3.5c0.8-0.9,1.9-1.4,3.2-1.4c1.2,0,2.4,0.5,3.2,1.4c0.4,0.5,0.8,1,1,1.7
	c0.2,0.5,0.4,0.7,0.6,0.7c0.3-1.2,0.3-2.6,0-4.6C92,2.7,90,2.1,89.8,1.5c0-0.1-0.1-0.2-0.1-0.3c0-0.1,0-0.2,0.1-0.3
	c0.2,0.4,0.9,0.6,1.9,0.8c1,0.2,2.4,0.3,4,0.3c1.6,0,3-0.1,4-0.3c1-0.2,1.6-0.5,1.9-0.8c0.1,0.1,0.1,0.2,0.1,0.3
	c0,0.2-0.1,0.3-0.2,0.5c-0.5,0.5-2.1,1.2-2.3,3.2c-0.3,2-0.3,3.5,0,4.6c0.2,0,0.4-0.2,0.5-0.7c0.2-0.6,0.6-1.2,1-1.7
	c0.8-0.9,2-1.4,3.2-1.4c1.3,0,2.4,0.5,3.2,1.4c0.8,0.8,1.1,2,1.2,3.5c0,0.1,0,0.1,0,0.2c0,1.4-0.5,3.4-1.2,5
	c-0.6,1.2-1.5,2.6-2.5,3.4c0,0.1,0,0.2,0,0.4c-0.3,0.1-1.1,0.3-2.2,0.5c-1.7,0.3-4.1,0.5-6.8,0.5c-2.7,0-5.1-0.2-6.8-0.5
	C87.8,20,87,19.8,86.7,19.7L86.7,19.7z M99.6,0.3c-1-0.2-2.3-0.3-3.8-0.3c-1.5,0-2.9,0.1-3.8,0.3c-0.8,0.1-1.3,0.3-1.3,0.3
	c0,0.1,0.5,0.2,1.3,0.3c1,0.2,2.3,0.3,3.8,0.3c1.5,0,2.9-0.1,3.8-0.3c0.8-0.1,1.3-0.3,1.3-0.3C100.9,0.6,100.4,0.4,99.6,0.3
	L99.6,0.3z M87.2,17.3c0.4-1.1,1.1-2.2,1.9-3.1c0.2-0.2,0.4-0.4,0.6-0.7c0.3-0.3,0.5-0.6,0.8-0.9c0.1-0.5,0.1-1.2,0.1-1.9
	c0-1-0.4-2-1-2.6c-0.6-0.6-1.4-1-2.3-1c-0.9,0-1.7,0.3-2.2,1c-0.6,0.6-0.9,1.5-0.9,2.6c0,0.1,0,0.1,0,0.2c0,1.2,0.4,3,1.2,4.4
	C85.8,16.1,86.6,16.9,87.2,17.3L87.2,17.3z M100.8,12.5c0.3,0.4,0.6,0.7,1,1.1c0.2,0.2,0.3,0.3,0.5,0.6c0.8,0.9,1.5,2,1.9,3.1
	c0.7-0.4,1.4-1.2,1.8-2c0.8-1.5,1.2-3.2,1.2-4.4c0-0.1,0-0.1,0-0.2c0-1.1-0.4-2-0.9-2.6c-0.6-0.6-1.4-1-2.2-1c-0.9,0-1.7,0.4-2.3,1
	c-0.6,0.6-1,1.7-1,2.6C100.6,11.4,100.7,12,100.8,12.5L100.8,12.5z M80.1,33.1h21.9v7c-3.5-1.2-7.1-1.9-11-1.9
	c-3.8,0-7.5,0.6-10.9,1.8V33.1L80.1,33.1z M102.7,33l7.5-1.7v13c-0.9-0.6-1.7-1.2-2.7-1.7c-1.6-0.9-3.1-1.7-4.8-2.3V33L102.7,33z
	 M100.1,32.4c1-0.4,1.7-1,1.7-1.7h8.4l-7.8,1.7H100.1z"/>
<path class="st1" d="M91.1,44c-15,0-27,12-27,27c0,15,12,27,27,27c9.8,0,18.5-5.1,23.4-13.5c4.8-8.3,4.8-18.8,0-27.1
	C109.6,49.1,100.8,44,91.1,44L91.1,44z M86.6,81.1c0-0.7,0.5-1.1,1.1-1.1h6.8c0.7,0,1.1,0.5,1.1,1.1v6.8c0,0.7-0.5,1.1-1.1,1.1h-6.8
	c-0.7,0-1.1-0.5-1.1-1.1V81.1L86.6,81.1z M86.6,75.3c0-3.3,3.2-6.2,5.9-7.5c1.9-0.9,3.1-1.7,3.1-3.7c0-2.5-4.7-4.1-7.3-2.2
	c-0.8,0.6-1.8,1.6-3,3.2c-0.4,0.5-1.1,0.6-1.5,0.2L79,61.9c-0.5-0.4-0.6-0.9-0.3-1.5c3-5,7.3-7.5,13-7.5c6.2,0,12.8,4.9,12.8,11.2
	c0,1.8-0.5,3.6-1.4,5c-1.2,1.8-3.1,2.9-4.9,3.9c-1.2,0.7-2.7,2.3-2.7,3.5c0,0.7-0.5,1.1-1.1,1.1h-6.8C86.3,77.7,86.6,76.2,86.6,75.3
	z"/>
</svg>
