<!-- Generator: Adobe Illustrator 21.0.0, SVG Export Plug-In  -->
<svg version="1.1"
	 xmlns="http://www.w3.org/2000/svg" xmlns:xlink="http://www.w3.org/1999/xlink" xmlns:a="http://ns.adobe.com/AdobeSVGViewerExtensions/3.0/"
	 x="0px" y="0px" width="102.1px" height="89.7px" viewBox="0 0 102.1 89.7" style="enable-background:new 0 0 102.1 89.7;"
	 xml:space="preserve">
<style type="text/css">
	.st0{fill-rule:evenodd;clip-rule:evenodd;fill:#B2B2B2;}
	.st1{fill-rule:evenodd;clip-rule:evenodd;fill:#073F7D;}
</style>
	<path class="st0" d="M4,2.6h32.2c0.8,0,1.4,0.6,1.4,1.4v32.2c0,0.8-0.6,1.4-1.4,1.4c-21.9,0-10.2,0-32.2,0c-0.8,0-1.4-0.6-1.4-1.4
		V4C2.6,3.2,3.2,2.6,4,2.6L4,2.6z M22.4,40.1H37c0.9,0,1.6-0.4,2.2-0.9l0,0c0.6-0.6,0.9-1.4,0.9-2.2V3.1c0-0.9-0.4-1.7-0.9-2.2l0,0
		C38.6,0.4,37.9,0,37,0H3.1C2.3,0,1.5,0.4,0.9,0.9l0,0C0.4,1.5,0,2.3,0,3.1V37c0,0.9,0.4,1.7,0.9,2.2l0,0c0.6,0.6,1.4,0.9,2.2,0.9
		h14.5v44h4.7V40.1L22.4,40.1z M37,1.2H3.1c-0.5,0-1,0.2-1.4,0.6C1.4,2.1,1.2,2.6,1.2,3.1V37c0,0.5,0.2,1,0.6,1.4l0,0
		C2.1,38.7,2.6,39,3.1,39H37c0.5,0,1-0.2,1.4-0.6l0,0C38.7,38,39,37.5,39,37V3.1c0-0.5-0.2-1-0.6-1.4C38,1.4,37.5,1.2,37,1.2
		L37,1.2z M23.1,6.6H12.6v8.7v6.9v1.8v9.8h3.9v-9.8h6.6c3.4,0,8.1-3.2,8.1-8.7C31.3,9.8,26.5,6.6,23.1,6.6L23.1,6.6L23.1,6.6z
		 M23.2,10.5h-6.7v4.8V20h6.7c2,0,4.2-2.3,4.2-4.8C27.3,12.8,25.2,10.5,23.2,10.5L23.2,10.5z"/>
	<path class="st0" d="M38.7,67.6c0,1.3-5.3,1.8-6.8,1.8c-2.8,0-3.7-4.5-0.9-4.5C32.6,64.9,38.7,66.3,38.7,67.6L38.7,67.6L38.7,67.6
		z M63.1,67.6L63.1,67.6c0-1.3,6.1-2.7,7.7-2.7c1,0,1.6,0.6,1.7,1.3c0.8-1.3,1.8-2.5,2.8-3.6c-0.7-1-1.8-1.7-3-2.3
		c-0.7-0.4,3.5-0.9,3.9-1.4c0.7-0.8-0.4-3.5-0.8-3.6h-7.5L67,52.1c-0.6-2.2-1.9-4.1-4.1-4.1H39c-2.3,0-3.5,1.9-4.1,4.1l-0.9,3.3
		h-7.5c-0.4,0.1-1.5,2.7-0.8,3.6c0.4,0.5,4.6,1,3.9,1.4c-1.9,1-3.7,2.4-3.7,4.4V80c0,0.9,0.7,1.6,1.7,1.6h5.2
		c0.9,0,1.6-0.7,1.6-1.6v-3.8h33.2V80c0,0.9,0.7,1.6,1.6,1.6h1.9c-0.7-1.9-1.1-4.1-1.1-6.3c0-2.2,0.4-4.3,1.1-6.3
		c-0.3,0.2-0.8,0.3-1.2,0.3C68.3,69.4,63.1,68.9,63.1,67.6L63.1,67.6z M35.2,58.9c0.6-2.1,1.1-4.2,1.7-6.3c0.2-1,0.8-2.5,2-2.5
		h23.9c1.2,0,1.8,1.6,2.1,2.5c0.6,2.1,1.1,4.2,1.7,6.3C67.2,60.5,34.7,60.5,35.2,58.9L35.2,58.9L35.2,58.9z M50.9,74.8h-9.3
		c-2.1,0-2.1-3.2,0-3.2h18.5c2.1,0,2.1,3.2,0,3.2H50.9z"/>
<path class="st1" d="M102.1,75.4c0-4-1.6-7.5-4.2-10.1c-2.6-2.6-6.2-4.2-10.1-4.2c-4,0-7.5,1.6-10.1,4.2c-2.6,2.6-4.2,6.2-4.2,10.1
	c0,4,1.6,7.5,4.2,10.1c2.6,2.6,6.2,4.2,10.1,4.2c4,0,7.5-1.6,10.1-4.2C100.5,83,102.1,79.4,102.1,75.4L102.1,75.4L102.1,75.4z
	 M83.4,73.5c0.2,0,0.4,0.2,0.4,0.4V80c0,0.2-0.2,0.4-0.4,0.4h-2.5c-0.2,0-0.4-0.2-0.4-0.4v-6.1c0-0.2,0.2-0.4,0.4-0.4H83.4
	L83.4,73.5z M88.8,66.7L88.8,66.7c0.6,0,1.1,0.4,1.2,1l0,0.2c0.2,1,0.3,2.1,0.3,3.2c0,0.3-0.1,0.6-0.2,0.9h1.5c0.7,0,1.4,0,2.1,0
	c0.2,0,0.5,0,0.7,0.1c0.5,0.1,0.9,0.6,0.9,1.1l0,0.2c0,0.1,0,0.2,0,0.4c0,0.4-0.2,0.8-0.5,1.1c0.3,0.4,0.3,0.9,0.2,1.1
	c-0.1,0.4-0.3,0.6-0.6,0.8c0.2,0.4,0.2,0.7,0.1,1c-0.1,0.3-0.2,0.6-0.6,0.8c0.3,0.4,0.3,0.8,0.1,1.3c-0.2,0.5-0.7,0.9-1.4,0.9
	l-5.3,0c-0.2,0-0.3,0-0.5,0l-0.1,0c-0.8,0-1.6-0.2-2.2-0.6c-0.1,0-0.1-0.1-0.1-0.1l-0.1-0.2c0-0.1-0.1-0.1-0.1-0.2v-5.7
	c0-0.1,0.1-0.3,0.2-0.4c0.1-0.1,0.2-0.1,0.3-0.2c0.2-0.1,0.4-0.3,0.6-0.4c0.8-0.8,1.5-1.8,1.8-3c0.1-0.4,0.2-0.8,0.3-1.3
	c0-0.2,0.1-0.4,0.1-0.6c0-0.1,0-0.1,0-0.2c0-0.1,0-0.2,0.1-0.4C87.7,67.1,88.2,66.7,88.8,66.7z"/>
</svg>
