<svg viewBox="-8 0 90 55" fill="currentColor" id="exchange" xmlns="http://www.w3.org/2000/svg">
            <!-- Третяя картинка оплаты -->
            <path class="aocls-1" d="M5.4 45.18h44.2a1.47 1.47 0 0 1 1.47 1.47v1a1.47 1.47 0 0 1-1.47 1.47H5.4a1.47 1.47 0 0 1-1.47-1.47v-1a1.47 1.47 0 0 1 1.47-1.47zm.49-3.93v1.43a.53.53 0 0 0 .53.53h10.73a.53.53 0 0 0 .53-.53v-1.43a2 2 0 0 0-2-2V23.57a2 2 0 0 0 2-2v-1.39a.53.53 0 0 0-.53-.53H6.42a.53.53 0 0 0-.53.53v1.43a2 2 0 0 0 2 2v15.68a2 2 0 0 0-2 2zm47.63 9.82H1.47A1.47 1.47 0 0 0 0 52.54v1A1.47 1.47 0 0 0 1.47 55h52.06A1.47 1.47 0 0 0 55 53.53v-1a1.47 1.47 0 0 0-1.47-1.47zm-16.2-9.82v1.43a.53.53 0 0 0 .53.53h10.73a.53.53 0 0 0 .53-.53v-1.43a2 2 0 0 0-2-2V23.57a2 2 0 0 0 2-2v-1.39a.53.53 0 0 0-.53-.53H37.85a.53.53 0 0 0-.53.53v1.43a2 2 0 0 0 2 2v15.68a2 2 0 0 0-2 2zm15-27.81L28.59.28a2.27 2.27 0 0 0-2.18 0L2.72 13.44A1.48 1.48 0 0 0 2 14.73v1.49a1.42 1.42 0 0 0 1.39 1.45h48.3A1.42 1.42 0 0 0 53 16.23v-1.5a1.48 1.48 0 0 0-.75-1.3zm-24.78.31a3.93 3.93 0 1 1 3.93-3.93 3.93 3.93 0 0 1-3.93 3.93zm6.87 21.94c0-3.69-2.11-4.81-4.11-5.36l-3.58-.88c-1.34-.34-2.5-.75-2.5-2 0-.66.51-2.1 3.46-2.1a3.11 3.11 0 0 1 3.05 1.78.62.62 0 0 0 .57.36h2.46a.63.63 0 0 0 .49-.23.6.6 0 0 0 .12-.51A5.94 5.94 0 0 0 29.46 22v-1.48a.89.89 0 0 0-.89-.88h-2.14a.89.89 0 0 0-.89.88V22a5.55 5.55 0 0 0-4.91 5.12c0 3.68 2.11 4.8 4.11 5.35l3.58.88c1.34.34 2.5.74 2.5 2 0 .66-.51 2.1-3.46 2.1a3.24 3.24 0 0 1-3.05-1.77.62.62 0 0 0-.57-.36h-2.49a.63.63 0 0 0-.49.23.6.6 0 0 0-.12.51c.59 2.68 2.75 4.68 4.9 4.72v1.32c0 .68.4 1.07.89 1.07h2.14a.88.88 0 0 0 .89-.87v-1.49a5.55 5.55 0 0 0 4.91-5.12z"></path>
            <!-- End -->
        </svg>