<svg width="1048" height="90" viewBox="0 0 1048 90" fill="currentColor" xmlns="http://www.w3.org/2000/svg">
  <g opacity="0.1" clip-path="url(#clip0_2845_1079)">
    <path fill-rule="evenodd" clip-rule="evenodd" d="M1035.45 -14.9981L1034.57 -13.9827L1033.68 -14.9981H1035.45ZM1014.79 -14.9981L1018.62 -10.6039L1008.56 0.913216L998.507 -10.6039L1002.34 -14.9981H1008.47L1004.64 -10.6039L1008.56 -6.10398L1012.49 -10.6039L1008.65 -14.9981H1014.79ZM919.153 -14.9981L911.043 -5.70784L902.933 -14.9981H909.065L911.043 -12.7327L913.027 -14.9981H919.153ZM815.853 -14.9981L813.525 -12.3347L811.202 -14.9981H815.853ZM792.303 -14.9981L797.58 -8.96163L787.521 2.56704L777.464 -8.96163L782.722 -14.9981H792.303ZM699.545 -14.9981L689.999 -4.06171L680.457 -14.9981H686.586L689.998 -11.0847L693.416 -14.9981H699.545ZM596.243 -14.9981L592.483 -10.6905L588.721 -14.9981H596.243ZM569.824 -14.9981L576.533 -7.31166L566.474 4.21124L556.42 -7.31166L563.115 -14.9981H569.824ZM478.084 -14.9981L479.012 -13.9366L468.958 -2.41366L458.899 -13.9366L459.825 -14.9981H465.959L465.033 -13.9366L468.958 -9.43855L472.881 -13.9366L471.948 -14.9981H478.084ZM376.639 -14.9981L371.433 -9.04048L366.236 -14.9981H376.639ZM349.597 -14.9981L348.468 -13.7058L355.486 -5.66361L345.432 5.85929L335.377 -5.66361L343.505 -14.9981H349.597ZM255.603 -14.9981L257.966 -12.2904L247.911 -0.765606L237.855 -12.2904L240.217 -14.9981H246.351L243.988 -12.2904L247.911 -7.79242L251.839 -12.2904L249.474 -14.9981H255.603ZM157.028 -14.9981L150.393 -7.3905L143.754 -14.9981H149.881L150.393 -14.4173L150.901 -14.9981H157.028ZM129.986 -14.9981L127.427 -12.0616L134.443 -4.01748L124.386 7.50927L114.33 -4.01748L123.894 -14.9981H129.986ZM78.9385 -14.9981L78.8813 -14.9346L78.8228 -14.9981H78.9385ZM53.7266 -14.9981L52.8744 -14.0231L52.0225 -14.9981H53.7266ZM33.124 -14.9981L36.923 -10.6443L26.8674 0.880524L16.8119 -10.6443L20.6061 -14.9981H26.7401L22.9376 -10.6443L26.8658 -6.14052L30.7941 -10.6443L26.9966 -14.9981H33.124ZM1.53296 -14.9981L0 -13.2423V-14.9981H1.53296ZM0 35.2954L4.46179 40.4088L0 45.526V35.2954ZM0 65.4199L4.41809 70.4833L0 75.5467V65.4199ZM0 94.3329L7.79443 103.265L10.8103 99.8078L3.76733 91.7464L13.8665 80.1639L23.9657 91.7464L0 119.219V111.225L3.99365 106.64L0 102.065V94.3329ZM0 154.828L7.36841 146.39L17.4677 157.963L0 177.989V168.007L1.29333 169.488L4.30908 166.036L0.00158691 161.099L0 154.828ZM0 213.606L0.867188 212.616L10.9698 224.191L1.54492 234.998H0V227.75L0.867188 228.74L4.84253 224.191L0.867188 219.639L0 220.631V213.606ZM71.6338 234.998L72.3801 234.138L73.1283 234.998H71.6338ZM91.9345 234.998L88.2863 230.815L98.3871 219.239L108.488 230.815L104.84 234.998H98.7108L102.357 230.815L98.3871 226.265L94.4118 230.815L98.0667 234.998H91.9345ZM187.94 234.998L195.907 225.867L203.873 234.998H197.745L195.907 232.887L194.065 234.998H187.94ZM291.236 234.998L293.425 232.49L295.611 234.998H291.236ZM314.417 234.998L309.33 229.165L319.429 217.593L329.53 229.165L324.447 234.998H314.417ZM407.544 234.998L416.952 224.217L426.354 234.998H420.228L416.954 231.242L413.68 234.998H407.544ZM510.849 234.998L514.472 230.846L518.092 234.998H510.849ZM536.894 234.998L530.375 227.521L540.471 215.948L550.576 227.521L544.057 234.998H536.894ZM628.634 234.998L627.891 234.146L637.992 222.569L648.091 234.146L647.352 234.998H641.221L641.962 234.146L637.992 229.596L634.025 234.146L634.768 234.998H628.634ZM730.452 234.998L735.512 229.194L740.578 234.998H730.452ZM757.539 234.998L758.458 233.942L751.418 225.875L761.517 214.296L771.618 225.875L763.664 234.998H757.539ZM851.114 234.998L848.935 232.498L859.034 220.923L869.136 232.498L866.954 234.998H860.824L863.009 232.498L859.034 227.946L855.065 232.498L857.246 234.998H851.114ZM950.059 234.998L956.554 227.55L963.053 234.998H956.921L956.554 234.579L956.186 234.998H950.059ZM977.148 234.998L979.501 232.296L972.458 224.229L982.557 212.652L992.663 224.229L983.267 235H977.148V234.998ZM946.507 33.8992L930.554 52.1874L924.047 44.7395L923.879 44.9337L914.416 34.0973L940.649 4.02278L930.548 -7.55204L920.448 4.02278L927.492 12.0938L924.477 15.5476L914.587 4.21124L930.548 -14.0731L937.05 -6.62705L937.221 -6.81743L946.679 4.02278L920.491 34.0973L930.55 45.6202L940.606 34.0973L933.583 26.0513L936.624 22.5725L946.507 33.8992ZM920.506 48.7952L904.545 67.091L898.044 59.6411L897.872 59.8373L888.414 48.9952L914.647 18.9206L904.545 7.34581L894.446 18.9206L901.487 26.9936L898.47 30.4454L888.578 19.1149L904.547 0.824755L911.046 8.27464L911.221 8.08233L920.681 18.9245L894.493 48.9952L904.548 60.52L914.607 48.9952L907.586 40.953L910.622 37.4703L920.506 48.7952ZM894.503 63.6988L878.54 81.9889L872.037 74.5332L871.87 74.7332L862.407 63.8949L888.64 33.8204L878.538 22.2475L868.439 33.8204L875.48 41.8914L872.464 45.3452L862.578 34.0165L878.538 15.7245L885.041 23.1706L885.21 22.9821L894.672 33.8204L868.486 63.893L878.54 75.4198L888.594 63.893L881.576 55.8489L884.615 52.372L894.503 63.6988ZM868.494 78.6005L852.534 96.8906L846.035 89.4388L845.862 89.6368L836.405 78.7947L862.64 48.7202L852.534 37.1492L842.432 48.7202L849.471 56.7931L846.461 60.2488L836.571 48.9182L852.536 30.6224L859.036 38.0703L859.205 37.878L868.67 48.7182L842.479 78.7928L852.538 90.3176L862.592 78.7928L855.575 70.7467L858.611 67.2718L868.494 78.6005ZM842.485 93.5002L826.529 111.788L820.024 104.34L819.858 104.533L810.401 93.6964L836.628 63.6238L826.527 52.049L816.426 63.6238L823.469 71.6929L820.455 75.1409L810.566 63.8122L826.527 45.526L833.03 52.9739L833.2 52.7836L842.663 63.6257L816.477 93.6964L826.529 105.217L836.584 93.6964L829.567 85.6523L832.601 82.1677L842.485 93.5002ZM816.488 108.396L800.524 126.69L794.022 119.24L793.855 119.436L784.393 108.596L810.625 78.5216L800.52 66.9468L790.421 78.5216L797.464 86.5926L794.448 90.0445L784.559 78.7139L800.519 60.42L807.022 67.8737L807.193 67.6776L816.648 78.5235L790.465 108.59L800.52 120.115L810.581 108.59L803.563 100.552L806.599 97.0675L816.488 108.396ZM790.48 123.3L774.518 141.588L768.02 134.138L767.849 134.338L758.386 123.496L784.616 93.4214L774.517 81.8485L764.414 93.4214L771.461 101.494L768.446 104.946L758.557 93.6175L774.517 75.3236L781.02 82.7773L781.191 82.5812L790.651 93.4214L764.464 123.496L774.518 135.021L784.576 123.496L777.558 115.448L780.595 111.971L790.48 123.3ZM764.478 138.201L748.51 156.492L742.013 149.038L741.844 149.234L732.385 138.394L758.617 108.321L748.508 96.7444L738.412 108.321L745.454 116.39L742.438 119.844L732.55 108.515L748.506 90.2214L755.013 97.6694L755.184 97.4829L764.647 108.321L738.459 138.392L748.508 149.915L758.569 138.392L751.551 130.352L754.59 126.871L764.478 138.201ZM738.473 153.101L722.511 171.387L716.005 163.94L715.842 164.134L706.377 153.295L732.609 123.217L722.509 111.644L712.41 123.217L719.45 131.29L716.436 134.744L706.548 123.411L722.509 105.123L729.009 112.571L729.179 112.377L738.64 123.219L712.455 153.29L722.511 164.809L732.568 153.29L725.545 145.246L728.585 141.765L738.473 153.101ZM712.469 168.003L696.502 186.291L690.004 178.837L689.833 179.037L680.372 168.197L706.605 138.123L696.501 126.546L686.403 138.123L693.445 146.194L690.429 149.646L680.539 138.315L696.499 120.023L703.004 127.477L703.173 127.28L712.633 138.123L686.443 168.197L696.501 179.72L706.561 168.197L699.543 160.153L702.581 156.676L712.469 168.003ZM686.457 182.899L670.499 201.193L663.998 193.739L663.83 193.935L654.368 183.093L680.6 153.026L670.497 141.446L660.396 153.026L667.438 161.092L664.428 164.547L654.541 153.213L670.497 134.923L676.998 142.376L677.169 142.18L686.631 153.026L660.443 183.093L670.499 194.618L680.559 183.093L673.535 175.055L676.572 171.57L686.457 182.899ZM660.452 197.799L644.493 216.087L637.992 208.639L637.824 208.835L628.362 197.993L654.596 167.918L644.493 156.345L634.393 167.918L641.437 175.991L638.42 179.447L628.53 168.114L644.493 149.826L650.995 157.274L651.166 157.082L660.623 167.922L634.443 197.991L644.495 209.518L654.557 197.991L647.531 189.951L650.571 186.468L660.452 197.799ZM634.451 212.7L618.488 230.987L611.988 223.537L611.818 223.735L602.357 212.895L628.587 182.82L618.488 171.243L608.384 182.82L615.43 190.893L612.411 194.347L602.523 183.016L618.488 164.722L624.993 172.17L625.157 171.978L634.622 182.818L608.434 212.893L618.49 224.416L628.544 212.893L621.528 204.847L624.567 201.366L634.451 212.7ZM1037.53 106.754L1021.57 125.042L1015.06 117.596L1014.9 117.786L1005.44 106.95L1031.67 76.8717L1021.57 65.2988L1011.47 76.8717L1018.5 84.9484L1015.49 88.4022L1005.61 77.0697L1021.57 58.7796L1028.07 66.2295L1028.24 66.0334L1037.7 76.8717L1011.51 106.95L1021.57 118.469L1031.63 106.95L1024.61 98.9021L1027.64 95.4233L1037.53 106.754ZM1011.52 121.654L995.567 139.948L989.065 132.494L988.891 132.682L979.433 121.846L1005.67 91.7733L995.565 80.1966L985.464 91.7733L992.506 99.8386L989.49 103.3L979.6 91.9676L995.565 73.6813L1002.07 81.1293L1002.24 80.9331L1011.7 91.7772L985.511 121.846L995.567 133.367L1005.62 121.846L998.601 113.8L1001.64 110.325L1011.52 121.654ZM985.518 136.553L969.567 154.844L963.062 147.39L962.891 147.586L953.429 136.744L979.656 106.673L969.561 95.1002L959.457 106.673L966.497 114.738L963.485 118.196L953.593 106.863L969.563 88.5715L976.058 96.0252L976.229 95.829L985.689 106.669L959.506 136.738L969.563 148.269L979.615 136.742L972.594 128.702L975.633 125.225L985.518 136.553ZM959.518 151.453L943.554 169.741L937.053 162.291L936.882 162.486L927.419 151.645L953.652 121.575L943.551 109.998L933.455 121.575L940.493 129.644L937.476 133.103L927.59 121.771L943.549 103.479L950.049 110.929L950.222 110.731L959.682 121.575L933.499 151.645L943.551 163.17L953.61 151.645L946.589 143.598L949.623 140.123L959.518 151.453ZM933.509 166.353L917.548 184.643L911.048 177.195L910.882 177.385L901.415 166.545L927.65 136.471L917.548 124.898L907.448 136.471L914.486 144.544L911.469 147.999L901.583 136.667L917.548 118.381L924.047 125.825L924.218 125.632L933.68 136.473L907.492 166.545L917.549 178.07L927.605 166.545L920.587 158.507L923.626 155.022L933.509 166.353ZM907.5 181.251L891.539 199.543L885.041 192.091L884.87 192.285L875.411 181.449L901.645 151.37L891.539 139.798L881.44 151.37L888.478 159.445L885.47 162.899L875.581 151.569L891.537 133.277L898.042 140.728L898.213 140.532L907.671 151.37L881.487 181.447L891.539 192.97L901.596 181.447L894.578 173.399L897.614 169.918L907.5 181.251ZM881.5 196.158L865.54 214.441L859.034 206.991L858.87 207.187L849.406 196.345L875.638 166.274L865.537 154.695L855.433 166.274L862.477 174.343L859.463 177.801L849.574 166.468L865.537 148.176L872.037 155.622L872.211 155.428L881.664 166.272L855.478 196.343L865.537 207.864L875.597 196.343L868.573 188.301L871.614 184.824L881.5 196.158ZM855.495 211.054L839.533 229.346L833.032 221.892L832.864 222.089L823.399 211.246L849.633 181.174L839.533 169.601L829.429 181.174L836.474 189.247L833.458 192.697L823.568 181.368L839.533 163.078L846.035 170.532L846.202 170.336L855.666 181.176L829.479 211.245L839.535 222.769L849.591 211.245L842.571 203.204L845.609 199.722L855.495 211.054ZM963.062 221.069L956.554 213.616L956.386 213.816L946.926 202.975L973.159 172.901L963.058 161.324L952.958 172.901L959.997 180.974L956.983 184.428L947.099 173.097L963.058 154.805L969.563 162.255L969.727 162.059L979.186 172.899L953.005 202.974L963.06 214.496L973.116 202.974L966.093 194.926L969.132 191.447L979.02 202.779L963.062 221.069ZM989.069 206.166L982.564 198.716L982.395 198.912L972.936 188.068L999.163 157.995L989.064 146.426L978.96 157.995L986.001 166.068L982.989 169.52L973.102 158.193L989.064 139.901L995.562 147.349L995.733 147.161L1005.19 157.997L979.003 188.064L989.065 199.597L999.123 188.064L992.1 180.028L995.134 176.549L1005.02 187.881L989.069 206.166ZM986.534 224.227L982.557 228.773L978.592 224.227L982.557 219.677L986.534 224.227ZM1015.07 191.27L1008.57 183.816L1008.4 184.012L998.938 173.174L1025.17 143.099L1015.06 131.523L1004.96 143.099L1012.01 151.169L1008.99 154.628L999.101 143.296L1015.06 125.004L1021.57 132.455L1021.74 132.257L1031.2 143.099L1005.01 173.174L1015.07 184.695L1025.12 173.174L1018.1 165.132L1021.14 161.649L1031.03 172.978L1015.07 191.27ZM1012.53 209.323L1008.57 213.875L1004.6 209.323L1008.57 204.77L1012.53 209.323ZM1038.5 224.498L1034.57 228.996L1030.65 224.498L1034.57 219.998L1038.5 224.498ZM1038.54 194.426L1034.57 198.974L1030.6 194.426L1034.57 189.876L1038.54 194.426ZM889.014 217.6L885.043 222.15L881.072 217.6L885.043 213.05L889.014 217.6ZM915.02 202.7L911.048 207.25L907.078 202.7L911.048 198.151L915.02 202.7ZM940.976 217.869L937.053 222.371L933.128 217.869L937.053 213.368L940.976 217.869ZM941.022 187.801L937.053 192.351L933.08 187.801L937.053 183.251L941.022 187.801ZM966.985 202.974L963.058 207.472L959.135 202.974L963.058 198.47L966.985 202.974ZM967.029 172.899L963.058 177.449L959.085 172.899L963.058 168.349L967.029 172.899ZM992.989 188.066L989.065 192.568L985.135 188.066L989.065 183.568L992.989 188.066ZM993.029 157.995L989.065 162.551L985.092 157.995L989.065 153.449L993.029 157.995ZM1018.99 173.174L1015.06 177.672L1011.14 173.174L1015.06 168.672L1018.99 173.174ZM1019.04 143.099L1015.06 147.649L1011.1 143.099L1015.06 138.55L1019.04 143.099ZM1045 158.274L1041.07 162.776L1037.15 158.274L1041.07 153.772L1045 158.274ZM1045.04 128.198L1041.07 132.753L1037.1 128.198L1041.07 123.65L1045.04 128.198ZM667.968 219.246L663.998 223.798L660.024 219.246L663.998 214.693L667.968 219.246ZM693.975 204.347L690.001 208.897L686.034 204.347L690.001 199.797L693.975 204.347ZM719.935 219.519L716.005 224.019L712.081 219.519L716.005 215.023L719.935 219.519ZM719.977 189.445L716.005 193.999L712.04 189.445L716.005 184.895L719.977 189.445ZM745.049 196.572L748.087 193.101L757.975 204.425L742.018 222.716L735.517 215.266L735.344 215.458L725.883 204.622L752.114 174.549L742.015 162.972L731.916 174.549L738.957 182.616L735.938 186.068L726.054 174.739L742.015 156.449L748.511 163.901L748.686 163.709L758.146 174.547L731.959 204.62L742.017 216.139L752.074 204.62L745.049 196.572ZM745.942 204.622L742.013 209.118L738.083 204.622L742.013 200.116L745.942 204.622ZM745.985 174.549L742.013 179.099L738.043 174.549L742.013 169.993L745.985 174.549ZM771.053 181.676L774.092 178.195L783.975 189.524L768.02 207.812L761.516 200.364L761.345 200.558L751.889 189.72L778.12 159.645L768.02 148.069L757.916 159.645L764.958 167.72L761.943 171.17L752.055 159.842L768.02 141.549L774.518 148.997L774.688 148.807L784.15 159.645L757.963 189.72L768.022 201.243L778.074 189.72L771.053 181.676ZM771.945 189.72L768.022 194.218L764.09 189.72L768.022 185.218L771.945 189.72ZM771.992 159.645L768.022 164.197L764.043 159.645L768.022 155.092L771.992 159.645ZM797.06 166.776L800.098 163.295L809.984 174.624L794.024 192.912L787.523 185.462L787.355 185.662L777.895 174.824L804.123 144.746L794.024 133.173L783.921 144.746L790.963 152.815L787.95 156.27L778.061 144.942L794.024 126.654L800.522 134.103L800.696 133.905L810.157 144.746L783.968 174.82L794.026 186.345L804.081 174.82L797.06 166.776ZM797.949 174.82L794.024 179.322L790.097 174.82L794.024 170.318L797.949 174.82ZM797.998 144.746L794.024 149.296L790.052 144.746L794.024 140.196L797.998 144.746ZM823.065 151.876L826.105 148.396L835.989 159.728L820.028 178.012L813.53 170.566L813.359 170.762L803.898 159.92L830.129 129.85L820.026 118.271L809.93 129.85L816.966 137.915L813.954 141.369L804.064 130.038L820.024 111.75L826.527 119.2L826.697 119.004L836.158 129.85L809.972 159.918L820.026 171.443L830.085 159.918L823.065 151.876ZM823.954 159.918L820.024 164.418L816.098 159.918L820.024 155.419L823.954 159.918ZM823.996 129.85L820.026 134.4L816.059 129.85L820.026 125.296L823.996 129.85ZM849.069 136.976L852.11 133.5L861.993 144.824L846.036 163.115L839.533 155.661L839.366 155.855L829.9 145.017L856.132 114.95L846.033 103.371L835.93 114.95L842.975 123.019L839.954 126.473L830.068 115.14L846.033 96.8521L852.533 104.3L852.704 104.104L862.159 114.948L835.974 145.015L846.035 156.538L856.09 145.015L849.069 136.976ZM849.959 145.017L846.035 149.521L842.11 145.017L846.035 140.519L849.959 145.017ZM850.003 114.95L846.036 119.504L842.069 114.95L846.036 110.392L850.003 114.95ZM875.076 122.073L878.112 118.596L888 129.925L872.038 148.215L865.539 140.761L865.371 140.961L855.912 130.119L882.141 100.046L872.038 88.4734L861.936 100.046L868.98 108.119L865.965 111.575L856.075 100.246L872.038 81.9543L878.541 89.4042L878.707 89.2099L888.174 100.046L861.984 130.121L872.04 141.644L882.097 130.121L875.076 122.073ZM875.962 130.119L872.037 134.617L868.11 130.119L872.037 125.619L875.962 130.119ZM876.01 100.046L872.038 104.596L868.068 100.046L872.038 95.4983L876.01 100.046ZM901.078 107.173L904.119 103.694L914.002 115.027L898.044 133.311L891.539 125.865L891.374 126.061L881.911 115.217L908.144 85.1446L898.042 73.5717L887.943 85.1446L894.982 93.2137L891.972 96.6733L882.084 85.3407L898.042 67.0545L904.543 74.4967L904.716 74.3102L914.173 85.1504L887.986 115.215L898.044 126.74L908.104 115.215L901.078 107.173ZM901.972 115.215L898.042 119.717L894.119 115.215L898.042 110.719L901.972 115.215ZM902.015 85.1465L898.044 89.6984L894.075 85.1465L898.044 80.5927L902.015 85.1465ZM927.086 92.2772L930.126 88.7945L940.012 100.125L924.049 118.413L917.549 110.962L917.378 111.16L907.92 100.323L934.151 70.2448L924.047 58.6681L913.95 70.2448L920.991 78.3178L917.979 81.7697L908.089 70.4391L924.045 52.1509L930.548 59.6046L930.716 59.4046L940.178 70.2448L913.993 100.323L924.047 111.846L934.106 100.323L927.086 92.2772ZM927.974 100.323L924.045 104.821L920.119 100.323L924.045 95.8175L927.974 100.323ZM928.017 70.2467L924.045 74.8025L920.077 70.2467L924.045 65.6949L928.017 70.2467ZM953.088 77.3774L956.131 73.9005L966.012 85.2273L950.054 103.515L943.554 96.0637L943.383 96.2617L933.923 85.4215L960.155 55.3489L950.051 43.776L939.952 55.3489L946.998 63.418L943.981 66.8718L934.091 55.5451L950.051 37.253L956.552 44.7048L956.725 44.5048L966.182 55.3489L939.995 85.4215L950.052 96.9444L960.11 85.4215L953.088 77.3774ZM953.981 85.4196L950.051 89.9195L946.128 85.4196L950.051 80.9177L953.981 85.4196ZM954.028 55.3489L950.051 59.9008L946.082 55.3489L950.051 50.8009L954.028 55.3489ZM979.095 62.4738L982.136 58.9988L992.019 70.3314L976.058 88.6176L969.563 81.1697L969.392 81.36L959.927 70.5198L986.159 40.4491L976.058 28.8724L965.955 40.4491L972.997 48.5182L969.984 51.974L960.095 40.6395L976.058 22.3533L982.557 29.7993L982.728 29.607L992.19 40.4511L966.004 70.5179L976.059 82.0408L986.115 70.5179L979.095 62.4738ZM979.979 70.5198L976.058 75.0217L972.128 70.5198L976.058 66.0218L979.979 70.5198ZM980.031 40.4491L976.058 44.9971L972.087 40.4491L976.058 35.8954L980.031 40.4491ZM1005.1 47.5779L1008.14 44.0991L1018.03 55.4297L1002.06 73.7178L995.563 66.2641L995.392 66.4641L985.932 55.6201L1012.16 25.5494L1002.06 13.9746L991.962 25.5494L999.005 33.6166L995.989 37.0761L986.103 25.7474L1002.06 7.45542L1008.56 14.9053L1008.73 14.7111L1018.19 25.5494L992.011 55.6201L1002.06 67.143L1012.12 55.6201L1005.1 47.5779ZM1005.99 55.6181L1002.06 60.1181L998.14 55.6181L1002.06 51.1201L1005.99 55.6181ZM1006.03 25.5474L1002.06 30.1012L998.094 25.5474L1002.06 20.9956L1006.03 25.5474ZM1031.1 32.6781L1034.14 29.1993L1044.03 40.528L1028.07 58.8162L1021.57 51.3624L1021.4 51.5624L1011.94 40.7222L1038.17 10.6477L1028.07 -0.930987L1017.97 10.6477L1025.01 18.7168L1021.99 22.1706L1012.11 10.8438L1028.07 -7.44819L1034.57 0.00168991L1034.74 -0.196383L1044.19 10.6477L1018.01 40.7222L1028.07 52.2432L1038.13 40.7222L1031.1 32.6781ZM1032 40.7241L1028.07 45.2221L1024.14 40.7241L1028.07 36.2223L1032 40.7241ZM1032.04 10.6496L1028.07 15.1995L1024.1 10.6496L1028.07 6.09583L1032.04 10.6496ZM765.491 225.875L761.517 230.425L757.547 225.875L761.517 221.319L765.491 225.875ZM791.493 210.973L787.523 215.525L783.552 210.973L787.523 206.425L791.493 210.973ZM817.453 226.144L813.53 230.642L809.605 226.144L813.53 221.644L817.453 226.144ZM817.5 196.072L813.53 200.625L809.559 196.072L813.53 191.522L817.5 196.072ZM843.458 211.243L839.533 215.741L835.607 211.243L839.533 206.745L843.458 211.243ZM843.502 181.17L839.535 185.72L835.561 181.17L839.535 176.62L843.502 181.17ZM869.465 196.345L865.537 200.847L861.612 196.345L865.537 191.843L869.465 196.345ZM869.509 166.274L865.539 170.826L861.568 166.274L865.539 161.72L869.509 166.274ZM895.467 181.447L891.539 185.945L887.611 181.447L891.539 176.947L895.467 181.447ZM895.517 151.37L891.541 155.924L887.575 151.37L891.541 146.822L895.517 151.37ZM921.472 166.545L917.548 171.045L913.621 166.545L917.548 162.047L921.472 166.545ZM921.518 136.471L917.548 141.023L913.576 136.471L917.548 131.917L921.518 136.471ZM947.479 151.645L943.551 156.147L939.626 151.645L943.551 147.147L947.479 151.645ZM947.525 121.575L943.551 126.125L939.584 121.575L943.551 117.025L947.525 121.575ZM973.486 136.742L969.563 141.242L965.631 136.742L969.563 132.246L973.486 136.742ZM973.53 106.675L969.563 111.225L965.586 106.675L969.563 102.125L973.53 106.675ZM999.488 121.846L995.563 126.344L991.635 121.846L995.563 117.346L999.488 121.846ZM999.534 91.7733L995.563 96.3233L991.591 91.7733L995.563 87.2196L999.534 91.7733ZM1025.49 106.948L1021.57 111.442L1017.64 106.948L1021.57 102.444L1025.49 106.948ZM1025.54 76.8697L1021.57 81.4273L1017.6 76.8697L1021.57 72.3198L1025.54 76.8697ZM725.465 35.5511L709.508 53.8393L703.005 46.3875L702.834 46.5856L693.376 35.7454L719.608 5.67083L709.503 -5.90976L699.404 5.67083L706.446 13.7419L703.435 17.1957L693.549 5.86122L709.503 -12.427L716.005 -4.97708L716.179 -5.16746L725.639 5.67276L699.453 35.7396L709.505 47.2644L719.564 35.7396L712.546 27.6974L715.582 24.2186L725.465 35.5511ZM699.459 50.4509L683.5 68.7391L676.998 61.2854L676.831 61.4834L667.374 50.6432L693.602 20.5725L683.5 8.99578L673.396 20.5725L680.44 28.6397L677.428 32.0935L667.538 20.7668L683.5 2.47088L690.001 9.92461L690.167 9.72846L699.634 20.5706L673.448 50.6413L683.5 62.1661L693.559 50.6413L686.537 42.5991L689.575 39.1165L699.459 50.4509ZM673.458 65.3468L657.499 83.6369L650.995 76.1909L650.824 76.3813L641.364 65.5411L667.597 35.4684L657.494 23.8936L647.395 35.4684L654.433 43.5414L651.419 46.9971L641.53 35.6627L657.493 17.3707L663.992 24.8225L664.167 24.6302L673.622 35.4684L647.439 65.5411L657.494 77.0678L667.548 65.5411L660.532 57.5027L663.571 54.0182L673.458 65.3468ZM647.451 80.2466L631.487 98.5367L624.993 91.0868L624.82 91.2791L615.36 80.4447L641.588 50.3682L631.486 38.7895L621.392 50.3682L628.426 58.4392L625.417 61.895L615.526 50.5624L631.486 32.2704L637.992 39.7203L638.16 39.5299L647.62 50.3701L621.434 80.4408L631.487 91.9656L641.548 80.4408L634.527 72.3948L637.566 68.9141L647.451 80.2466ZM621.442 95.1502L605.484 113.436L598.981 105.983L598.815 106.183L589.356 95.3406L615.583 65.2699L605.484 53.6912L595.383 65.2699L602.426 73.3409L599.412 76.7947L589.524 65.4641L605.484 47.1721L611.985 54.622L612.158 54.4297L621.616 65.268L595.432 95.3406L605.486 106.863L615.544 95.3406L608.522 87.2984L611.561 83.8196L621.442 95.1502ZM595.44 110.046L579.482 128.336L572.975 120.888L572.806 121.077L563.349 110.238L589.583 80.1716L579.482 68.5929L569.378 80.1716L576.419 88.2388L573.407 91.6926L563.521 80.362L579.482 62.068L585.983 69.5218L586.148 69.3295L595.604 80.1716L569.425 110.238L579.484 121.765L589.539 110.238L582.518 102.198L585.555 98.7175L595.44 110.046ZM569.433 124.95L553.475 143.238L546.974 135.784L546.806 135.98L537.347 125.142L563.569 95.0656L553.473 83.4927L543.371 95.0656L550.415 103.139L547.4 106.594L537.51 95.2637L553.473 76.9716L559.973 84.4215L560.144 84.2292L569.604 95.0714L543.414 125.14L553.475 136.667L563.531 125.14L556.511 117.096L559.543 113.617L569.433 124.95ZM543.431 139.846L527.469 158.14L520.968 150.688L520.804 150.886L511.34 140.04L537.571 109.973L527.466 98.3963L517.367 109.973L524.409 118.042L521.396 121.498L511.505 110.167L527.466 91.8714L533.971 99.3232L534.142 99.1271L543.599 109.973L517.412 140.04L527.468 151.569L537.527 140.04L530.507 132.002L533.543 128.517L543.431 139.846ZM517.424 154.751L501.464 173.034L494.963 165.588L494.797 165.776L485.332 154.938L511.569 124.871L501.464 113.29L491.365 124.871L498.41 132.94L495.391 136.394L485.504 125.057L501.464 106.771L507.961 114.217L508.135 114.029L517.597 124.869L491.41 154.936L501.466 166.463L511.525 154.936L504.502 146.897L507.541 143.419L517.424 154.751ZM491.417 169.647L475.461 187.937L468.961 180.487L468.787 180.683L459.331 169.843L485.563 139.767L475.457 128.192L465.358 139.767L472.4 147.84L469.385 151.294L459.496 139.965L475.457 121.671L481.965 129.123L482.131 128.93L491.595 139.771L465.407 169.838L475.459 181.364L485.516 169.838L478.5 161.793L481.539 158.315L491.417 169.647ZM465.417 184.547L449.46 202.837L442.952 195.389L442.785 195.577L433.328 184.741L459.558 154.669L449.455 143.094L439.356 154.669L446.394 162.741L443.382 166.191L433.494 154.861L449.455 136.573L455.955 144.023L456.129 143.828L465.588 154.669L439.398 184.739L449.457 196.266L459.511 184.739L452.493 176.695L455.527 173.218L465.417 184.547ZM439.412 199.451L423.453 217.735L416.952 210.285L416.781 210.477L407.323 199.639L433.551 169.574L423.452 157.992L413.347 169.574L420.392 177.641L417.378 181.097L407.489 169.761L423.453 151.472L429.951 158.922L430.119 158.728L439.584 169.574L413.396 199.639L423.455 211.164L433.516 199.639L426.491 191.601L429.53 188.118L439.412 199.451ZM413.406 214.346L397.448 232.638L390.943 225.187L390.774 225.383L381.312 214.543L407.539 184.468L397.441 172.891L387.344 184.468L394.385 192.537L391.366 195.991L381.482 184.66L397.44 166.372L403.943 173.826L404.112 173.628L413.574 184.472L387.391 214.543L397.441 226.064L407.497 214.543L400.484 206.498L403.515 203.016L413.406 214.346ZM520.97 224.364L514.472 216.914L514.301 217.11L504.841 206.268L531.071 176.201L520.968 164.624L510.866 176.201L517.909 184.266L514.898 187.72L505.008 176.393L520.968 158.097L527.468 165.545L527.642 165.355L537.103 176.201L510.919 206.268L520.97 217.796L531.031 206.268L524.011 198.226L527.047 194.747L536.935 206.075L520.97 224.364ZM546.979 209.464L540.477 202.014L540.305 202.212L530.843 191.368L557.076 161.295L546.975 149.717L536.873 161.295L543.918 169.368L540.907 172.818L531.017 161.49L546.977 143.198L553.478 150.651L553.648 150.455L563.106 161.295L536.92 191.368L546.979 202.891L557.034 191.368L550.015 183.324L553.056 179.839L562.938 191.172L546.979 209.464ZM544.444 227.521L540.471 232.071L536.5 227.521L540.471 222.967L544.444 227.521ZM572.979 194.564L566.481 187.11L566.31 187.308L556.853 176.468L583.08 146.394L572.977 134.821L562.88 146.394L569.918 154.463L566.905 157.92L557.016 146.588L572.975 128.302L579.482 135.748L579.653 135.553L589.106 146.401L562.922 176.468L572.977 187.991L583.035 176.468L576.018 168.428L579.054 164.943L588.94 176.272L572.979 194.564ZM570.451 212.62L566.476 217.171L562.504 212.62L566.476 208.07L570.451 212.62ZM598.981 179.66L592.481 172.212L592.314 172.409L582.852 161.572L609.088 131.496L598.982 119.919L588.885 131.496L595.925 139.571L592.911 143.019L583.021 131.686L598.982 113.398L605.486 120.846L605.657 120.656L615.117 131.494L588.932 161.568L598.984 173.091L609.041 161.568L602.022 153.517L605.058 150.044L614.947 161.372L598.981 179.66ZM596.408 227.792L592.481 232.292L588.556 227.792L592.481 223.294L596.408 227.792ZM596.456 197.722L592.483 202.274L588.513 197.722L592.483 193.168L596.456 197.722ZM624.993 164.763L618.488 157.311L618.317 157.509L608.857 146.669L635.09 116.592L624.991 105.021L614.889 116.592L621.927 124.665L618.914 128.115L609.028 116.79L624.991 98.4963L631.486 105.942L631.659 105.754L641.124 116.59L614.936 146.665L624.993 158.19L635.047 146.665L628.029 138.623L631.066 135.142L640.951 146.473L624.993 164.763ZM622.415 212.895L618.488 217.394L614.563 212.895L618.488 208.393L622.415 212.895ZM622.46 182.822L618.49 187.372L614.52 182.822L618.49 178.268L622.46 182.822ZM650.995 149.865L644.493 142.413L644.326 142.607L634.866 131.771L661.096 101.696L650.993 90.1214L640.894 101.696L647.934 109.762L644.923 113.221L635.033 101.889L650.995 83.5965L657.496 91.0503L657.666 90.8541L667.129 101.7L640.943 131.771L650.996 143.292L661.05 131.771L654.034 123.729L657.073 120.244L666.958 131.573L650.995 149.865ZM648.418 197.989L644.493 202.491L640.568 197.989L644.493 193.493L648.418 197.989ZM648.464 167.918L644.493 172.472L640.52 167.918L644.493 163.368L648.464 167.918ZM677.002 134.959L670.499 127.513L670.328 127.707L660.869 116.865L687.101 86.7984L676.998 75.2197L666.898 86.7984L673.939 94.8694L670.923 98.3213L661.034 86.985L676.998 68.6968L683.5 76.1467L683.673 75.9582L693.133 86.7984L666.945 116.865L677 128.388L687.057 116.865L680.038 108.827L683.077 105.342L692.96 116.675L677.002 134.959ZM674.425 183.091L670.497 187.591L666.569 183.091L670.497 178.593L674.425 183.091ZM674.469 153.026L670.497 157.576L666.529 153.026L670.497 148.471L674.469 153.026ZM703.005 120.067L696.501 112.615L696.331 112.81L686.875 101.971L713.111 71.8967L703.005 60.32L692.906 71.8967L699.944 79.9658L696.932 83.4196L687.046 72.0871L703.005 53.8009L709.508 61.2488L709.673 61.0527L719.135 71.8967L692.952 101.971L703.007 113.49L713.063 101.971L706.043 93.9233L709.077 90.4426L718.963 101.773L703.005 120.067ZM700.427 168.195L696.501 172.695L692.578 168.195L696.501 163.691L700.427 168.195ZM700.473 138.123L696.501 142.676L692.531 138.123L696.501 133.575L700.473 138.123ZM729.009 105.162L722.509 97.7098L722.34 97.9079L712.875 87.0696L739.113 56.9931L729.007 45.4202L718.906 56.9931L725.951 65.0622L722.936 68.5141L713.046 57.1873L729.009 38.8953L735.51 46.3471L735.681 46.1548L745.143 56.9912L718.953 87.0638L729.011 98.5906L739.068 87.0638L732.05 79.0197L735.088 75.539L744.974 86.8753L729.009 105.162ZM726.433 153.292L722.509 157.793L718.583 153.292L722.509 148.797L726.433 153.292ZM726.481 123.217L722.509 127.771L718.541 123.217L722.509 118.667L726.481 123.217ZM755.014 90.2618L748.51 82.8158L748.347 83.0081L738.883 72.166L765.114 42.0991L755.013 30.5204L744.913 42.0991L751.955 50.1663L748.942 53.6201L739.053 42.2837L755.013 23.9994L761.514 31.4454L761.688 31.2551L771.147 42.0991L744.96 72.166L755.014 83.6869L765.073 72.166L758.052 64.1238L761.091 60.6469L770.976 71.9756L755.014 90.2618ZM752.44 138.394L748.508 142.89L744.586 138.394L748.508 133.896L752.44 138.394ZM752.485 108.321L748.508 112.871L744.543 108.321L748.508 103.767L752.485 108.321ZM781.023 75.3621L774.52 67.9102L774.347 68.1083L764.891 57.27L791.119 27.1955L781.02 15.6168L770.92 27.1955L777.957 35.2684L774.944 38.7203L765.055 27.3916L781.018 9.09963L787.519 16.5476L787.69 16.3514L797.144 27.1955L770.964 57.27L781.02 68.7929L791.075 57.27L784.056 49.2278L787.092 45.7433L796.98 57.072L781.023 75.3621ZM778.445 123.496L774.518 127.998L770.595 123.496L774.518 118.99L778.445 123.496ZM778.49 93.4214L774.518 97.9713L770.55 93.4214L774.518 88.8695L778.49 93.4214ZM807.025 60.4604L800.522 53.0163L800.354 53.2066L790.896 42.3683L817.131 12.2977L807.025 0.722835L796.921 12.2977L803.969 20.3648L800.953 23.8167L791.064 12.4861L807.025 -5.80014L813.53 1.64974L813.697 1.45744L823.159 12.2996L796.973 42.3664L807.027 53.8932L817.084 42.3664L810.064 34.3242L813.102 30.8416L822.986 42.1741L807.025 60.4604ZM804.454 108.592L800.522 113.094L796.595 108.592L800.522 104.094L804.454 108.592ZM804.499 78.5216L800.522 83.0716L796.552 78.5216L800.522 73.9717L804.499 78.5216ZM830.452 93.6945L826.527 98.1944L822.599 93.6945L826.527 89.1907L830.452 93.6945ZM830.501 63.6238L826.529 68.1737L822.559 63.6238L826.529 59.0719L830.501 63.6238ZM856.461 78.7947L852.534 83.2927L848.603 78.7947L852.534 74.2948L856.461 78.7947ZM856.504 48.7202L852.536 53.2701L848.562 48.7202L852.536 44.1722L856.504 48.7202ZM882.463 63.893L878.538 68.3929L874.615 63.893L878.538 59.3931L882.463 63.893ZM882.506 33.8204L878.54 38.3742L874.569 33.8204L878.54 29.2705L882.506 33.8204ZM908.47 48.9952L904.543 53.4932L900.618 48.9952L904.543 44.4933L908.47 48.9952ZM908.515 18.9206L904.545 23.4706L900.57 18.9206L904.545 14.3707L908.515 18.9206ZM934.477 34.0973L930.548 38.5972L926.62 34.0973L930.548 29.5935L934.477 34.0973ZM934.519 4.02278L930.548 8.57463L926.582 4.02278L930.548 -0.527147L934.519 4.02278ZM960.479 19.1956L956.552 23.6936L952.632 19.1956L956.552 14.6957L960.479 19.1956ZM986.484 4.29201L982.554 8.79194L978.633 4.29201L982.554 -0.205999L986.484 4.29201ZM446.926 220.896L442.952 225.446L438.98 220.896L442.952 216.343L446.926 220.896ZM472.928 205.993L468.961 210.547L464.989 205.993L468.961 201.443L472.928 205.993ZM498.89 221.167L494.965 225.664L491.036 221.167L494.965 216.669L498.89 221.167ZM498.933 191.091L494.965 195.643L490.994 191.091L494.965 186.543L498.933 191.091ZM524.895 206.268L520.968 210.768L517.042 206.268L520.968 201.764L524.895 206.268ZM524.94 176.201L520.968 180.745L516.996 176.201L520.968 171.643L524.94 176.201ZM550.902 191.368L546.974 195.868L543.044 191.368L546.974 186.868L550.902 191.368ZM550.947 161.295L546.975 165.851L543.003 161.295L546.975 156.747L550.947 161.295ZM576.902 176.466L572.975 180.968L569.052 176.466L572.975 171.968L576.902 176.466ZM576.954 146.394L572.977 150.949L569.009 146.394L572.977 141.844L576.954 146.394ZM602.911 161.57L598.981 166.068L595.054 161.57L598.981 157.068L602.911 161.57ZM602.958 131.496L598.982 136.046L595.012 131.496L598.982 126.942L602.958 131.496ZM628.914 146.667L624.991 151.167L621.061 146.667L624.991 142.169L628.914 146.667ZM628.963 116.592L624.993 121.146L621.018 116.592L624.993 112.046L628.963 116.592ZM654.92 131.771L650.993 136.269L647.065 131.771L650.993 127.269L654.92 131.771ZM654.962 101.696L650.993 106.246L647.018 101.696L650.993 97.1463L654.962 101.696ZM680.928 116.865L676.998 121.371L673.07 116.865L676.998 112.365L680.928 116.865ZM680.972 86.7984L676.998 91.3503L673.03 86.7984L676.998 82.2446L680.972 86.7984ZM706.932 101.971L703.005 106.469L699.079 101.971L703.005 97.4733L706.932 101.971ZM706.976 71.8967L703.005 76.4486L699.032 71.8967L703.005 67.3429L706.976 71.8967ZM732.936 87.0676L729.007 91.5657L725.084 87.0676L729.007 82.5696L732.936 87.0676ZM732.983 56.995L729.007 61.5507L725.039 56.995L729.007 52.4451L732.983 56.995ZM758.941 72.166L755.013 76.6678L751.088 72.166L755.013 67.6641L758.941 72.166ZM758.983 42.0991L755.013 46.6452L751.046 42.0991L755.013 37.5415L758.983 42.0991ZM784.946 57.27L781.021 61.77L777.093 57.27L781.021 52.7682L784.946 57.27ZM784.988 27.1955L781.021 31.7474L777.054 27.1955L781.021 22.6456L784.988 27.1955ZM810.95 42.3664L807.025 46.8683L803.097 42.3664L807.025 37.8684L810.95 42.3664ZM810.992 12.2977L807.025 16.8418L803.051 12.2977L807.025 7.74195L810.992 12.2977ZM836.952 27.4666L833.03 31.9666L829.102 27.4666L833.03 22.9686L836.952 27.4666ZM837.006 -2.60019L833.03 1.94974L829.06 -2.60019L833.03 -7.15781L837.006 -2.60019ZM862.962 12.5669L859.031 17.0707L855.104 12.5669L859.031 8.06695L862.962 12.5669ZM888.966 -2.33097L885.041 2.16704L881.111 -2.33097L885.041 -6.82897L888.966 -2.33097ZM504.421 37.1973L488.463 55.4835L481.964 48.0336L481.791 48.2279L472.331 37.3896L498.559 7.31696L488.46 -4.2617L478.357 7.31696L485.401 15.3822L482.385 18.8437L472.495 7.51119L488.46 -10.7808L494.96 -3.33287L495.134 -3.52326L504.593 7.31504L478.404 37.3876L488.462 48.9144L498.517 37.3876L491.498 29.3416L494.535 25.8667L504.421 37.1973ZM478.418 52.0951L462.46 70.3852L455.955 62.9353L455.787 63.1296L446.326 52.2913L472.552 22.2148L462.455 10.6419L452.355 22.2148L459.397 30.2839L456.383 33.7396L446.493 22.4129L462.455 4.12278L468.956 11.5688L469.127 11.3765L478.584 22.2187L452.404 52.2893L462.456 63.8084L472.512 52.2893L465.494 44.2414L468.528 40.7645L478.418 52.0951ZM452.416 66.9968L436.451 85.2888L429.95 77.837L429.78 78.0293L420.317 67.1891L446.55 37.1146L436.451 25.5398L426.35 37.1146L433.39 45.1875L430.376 48.6452L420.488 37.3126L436.451 19.0206L442.949 26.4686L443.12 26.2705L452.584 37.1127L426.397 67.1853L436.453 78.712L446.51 67.1853L439.49 59.1412L442.528 55.6662L452.416 66.9968ZM426.404 81.8985L410.444 100.185L403.946 92.7368L403.777 92.931L394.32 82.0889L420.55 52.0201L410.446 40.4414L400.347 52.0201L407.386 60.0835L404.375 63.5392L394.486 52.2105L410.447 33.9185L416.955 41.3703L417.122 41.1761L426.582 52.0201L400.397 82.0889L410.449 93.6099L420.508 82.0889L413.485 74.0467L416.521 70.5679L426.404 81.8985ZM400.402 96.7944L384.445 115.085L377.937 107.633L377.77 107.831L368.313 96.9886L394.543 66.9103L384.442 55.3412L374.34 66.9103L381.383 74.9832L378.367 78.4389L368.477 67.1122L384.442 48.8182L390.94 56.272L391.115 56.0797L400.571 66.9141L374.385 96.9886L384.444 108.513L394.501 96.9886L387.478 88.9445L390.514 85.4638L400.402 96.7944ZM374.397 111.696L358.438 129.986L351.934 122.538L351.766 122.725L342.304 111.89L368.539 81.8139L358.437 70.2371L348.338 81.8139L355.381 89.8868L352.367 93.3368L342.474 82.0081L358.438 63.7238L364.94 71.166L365.106 70.9717L374.568 81.812L348.383 111.886L358.44 123.411L368.497 111.886L361.474 103.84L364.51 100.364L374.397 111.696ZM348.393 126.594L332.433 144.886L325.93 137.438L325.759 137.626L316.302 126.79L342.527 96.7194L332.428 85.1427L322.326 96.7194L329.37 104.787L326.356 108.242L316.467 96.9098L332.428 78.6197L338.93 86.0715L339.101 85.8773L348.564 96.7194L322.378 126.79L332.43 138.309L342.485 126.79L335.471 118.742L338.503 115.271L348.393 126.594ZM322.386 141.498L306.426 159.786L299.923 152.332L299.757 152.53L290.295 141.69L316.532 111.615L306.424 100.039L296.325 111.615L303.363 119.684L300.351 123.144L290.463 111.811L306.423 93.5233L312.926 100.973L313.094 100.773L322.559 111.615L296.371 141.69L306.424 153.211L316.477 141.69L309.464 133.646L312.5 130.167L322.386 141.498ZM296.381 156.399L280.424 174.687L273.92 167.236L273.747 167.43L264.292 156.586L290.518 126.517L280.423 114.944L270.318 126.517L277.358 134.586L274.344 138.044L264.454 126.711L280.423 108.425L286.92 115.867L287.092 115.677L296.548 126.517L270.364 156.584L280.424 168.113L290.473 156.584L283.459 148.546L286.493 145.067L296.381 156.399ZM270.375 171.295L254.412 189.581L247.913 182.132L247.743 182.328L238.283 171.489L264.515 141.419L254.411 129.844L244.316 141.419L251.354 149.488L248.342 152.94L238.452 141.613L254.409 123.317L260.915 130.771L261.086 130.573L270.545 141.417L244.36 171.487L254.411 183.016L264.469 171.487L257.453 163.441L260.489 159.963L270.375 171.295ZM244.373 186.195L228.41 204.487L221.909 197.033L221.74 197.227L212.278 186.393L238.506 156.317L228.407 144.742L218.308 156.317L225.347 164.39L222.333 167.841L212.444 156.513L228.407 138.225L234.908 145.676L235.083 145.476L244.539 156.317L218.356 186.391L228.409 197.91L238.468 186.391L231.448 178.347L234.484 174.866L244.373 186.195ZM218.368 201.099L202.407 219.387L195.907 211.939L195.733 212.131L186.276 201.289L212.506 171.216L202.405 159.64L192.304 171.216L199.352 179.289L196.333 182.739L186.447 171.411L202.405 153.124L208.908 160.566L209.074 160.374L218.539 171.22L192.353 201.287L202.407 212.81L212.462 201.287L205.444 193.243L208.479 189.766L218.368 201.099ZM192.366 215.998L176.403 234.283L169.9 226.829L169.732 227.029L160.27 216.189L186.502 186.114L176.403 174.541L166.302 186.114L173.337 194.183L170.329 197.643L160.44 186.312L176.405 168.018L182.904 175.468L183.077 175.272L192.532 186.114L166.351 216.189L176.406 227.714L186.46 216.189L179.441 208.143L182.477 204.666L192.366 215.998ZM225.883 222.541L221.911 227.09L217.939 222.541L221.911 217.987L225.883 222.541ZM251.889 207.639L247.914 212.193L243.941 207.639L247.914 203.089L251.889 207.639ZM277.844 222.814L273.92 227.315L269.991 222.814L273.92 218.312L277.844 222.814ZM277.891 192.743L273.921 197.293L269.951 192.743L273.921 188.193L277.891 192.743ZM302.964 199.872L306.002 196.393L315.885 207.722L299.927 226.012L293.427 218.56L293.257 218.756L283.796 207.916L310.027 177.839L299.925 166.268L289.826 177.839L296.869 185.91L293.851 189.372L283.962 178.039L299.927 159.749L306.43 167.191L306.601 167.001L316.061 177.841L289.874 207.914L299.928 219.439L309.987 207.914L302.964 199.872ZM303.853 207.914L299.923 212.412L296 207.914L299.923 203.412L303.853 207.914ZM303.895 177.839L299.925 182.391L295.956 177.839L299.925 173.286L303.895 177.839ZM328.968 184.97L332.002 181.491L341.89 192.818L325.932 211.112L319.429 203.658L319.261 203.85L309.801 193.014L336.031 162.941L325.932 151.363L315.829 162.941L322.874 171.009L319.862 174.468L309.972 163.136L325.932 144.844L332.435 152.297L332.601 152.101L342.063 162.941L315.876 193.014L325.934 204.533L335.984 193.014L328.968 184.97ZM329.857 193.014L325.93 197.512L322 193.014L325.93 188.516L329.857 193.014ZM329.902 162.941L325.932 167.493L321.957 162.941L325.932 158.39L329.902 162.941ZM354.973 170.072L358.011 166.593L367.9 177.922L351.935 196.21L345.434 188.758L345.27 188.955L335.81 178.112L362.04 148.04L351.934 136.467L341.836 148.04L348.874 156.117L345.865 159.567L335.976 148.234L351.934 129.942L358.438 137.396L358.609 137.201L368.068 148.038L341.882 178.11L351.935 189.637L361.994 178.11L354.973 170.072ZM355.862 178.112L351.932 182.616L348.009 178.112L351.932 173.612L355.862 178.112ZM355.906 148.04L351.934 152.594L347.965 148.04L351.934 143.49L355.906 148.04ZM380.98 155.172L384.014 151.69L393.904 163.02L377.939 181.308L371.436 173.862L371.272 174.055L361.811 163.216L388.038 133.142L377.937 121.563L367.838 133.142L374.88 141.211L371.867 144.665L361.978 133.336L377.936 115.044L384.44 122.494L384.611 122.3L394.07 133.14L367.887 163.215L377.937 174.736L387.998 163.215L380.98 155.172ZM381.864 163.216L377.937 167.714L374.012 163.216L377.937 158.711L381.864 163.216ZM381.909 133.144L377.937 137.694L373.967 133.144L377.937 128.594L381.909 133.144ZM406.982 140.271L410.021 136.786L419.909 148.121L403.949 166.407L397.45 158.957L397.275 159.155L387.819 148.315L414.045 118.236L403.946 106.662L393.845 118.236L400.885 126.311L397.874 129.767L387.985 118.434L403.946 100.144L410.444 107.596L410.618 107.4L420.075 118.238L393.892 148.315L403.948 159.838L414.003 148.315L406.982 140.271ZM407.874 148.315L403.946 152.811L400.018 148.315L403.946 143.815L407.874 148.315ZM407.915 118.238L403.946 122.798L399.974 118.238L403.946 113.69L407.915 118.238ZM432.992 125.375L436.028 121.892L445.913 133.223L429.951 151.511L423.453 144.059L423.282 144.255L413.822 133.413L440.051 103.342L429.951 91.7695L419.852 103.342L426.89 111.411L423.878 114.867L413.988 103.537L429.95 85.2427L436.451 92.6945L436.622 92.5003L446.084 103.342L419.899 133.413L429.951 144.942L440.005 133.413L432.992 125.375ZM433.876 133.413L429.95 137.913L426.025 133.413L429.95 128.911L433.876 133.413ZM433.922 103.344L429.95 107.892L425.976 103.344L429.95 98.7925L433.922 103.344ZM458.998 110.473L462.03 106.992L471.92 118.325L455.955 136.615L449.455 129.161L449.284 129.357L439.826 118.519L466.056 88.4445L455.952 76.864L445.852 88.4445L452.897 96.5136L449.878 99.9713L439.992 88.6388L455.95 70.3487L462.455 77.7986L462.626 77.6024L472.086 88.4465L445.901 118.515L455.952 130.034L466.012 118.515L458.998 110.473ZM459.883 118.513L455.952 123.015L452.027 118.513L455.952 114.013L459.883 118.513ZM459.927 88.4445L455.952 92.9945L451.982 88.4445L455.952 83.8946L459.927 88.4445ZM484.995 95.5733L488.032 92.0906L497.92 103.419L481.965 121.709L475.461 114.261L475.291 114.452L465.829 103.614L492.058 73.539L481.962 61.9661L471.856 73.539L478.901 81.612L475.888 85.0638L465.999 73.7332L481.962 55.4431L488.46 62.8949L488.633 62.6988L498.089 73.539L471.906 103.61L481.964 115.129L492.019 103.61L484.995 95.5733ZM485.892 103.614L481.964 108.112L478.03 103.614L481.964 99.1117L485.892 103.614ZM485.932 73.539L481.964 78.0966L477.99 73.539L481.964 68.9929L485.932 73.539ZM511.005 80.6735L514.039 77.1928L523.927 88.5215L507.964 106.812L501.466 99.3617L501.292 99.5521L491.838 88.7138L518.068 58.6412L507.961 47.0644L497.863 58.6412L504.904 66.7141L501.894 70.1679L492.004 58.8373L507.959 40.5453L514.465 47.9952L514.638 47.8009L524.097 58.6412L497.908 88.7138L507.961 100.242L518.016 88.7138L511.005 80.6735ZM511.892 88.7157L507.961 93.2137L504.037 88.7157L507.961 84.2158L511.892 88.7157ZM511.938 58.6431L507.961 63.1892L503.99 58.6431L507.961 54.0893L511.938 58.6431ZM537.005 65.7699L540.043 62.2892L549.931 73.6217L533.973 91.908L527.468 84.4581L527.302 84.6581L517.843 73.814L544.073 43.7395L533.973 32.1666L523.87 43.7395L530.911 51.8124L527.897 55.2701L518.008 43.9356L533.974 25.6474L540.472 33.0954L540.643 32.8993L550.107 43.7395L523.92 73.8121L533.976 85.3407L544.031 73.8121L537.005 65.7699ZM537.896 73.814L533.973 78.3197L530.044 73.814L533.973 69.316L537.896 73.814ZM537.943 43.7414L533.973 48.2932L529.997 43.7414L533.973 39.1934L537.943 43.7414ZM563.014 50.872L566.046 47.3894L575.938 58.72L559.975 77.012L553.475 69.5583L553.304 69.7544L543.844 58.9123L570.079 28.8416L559.975 17.2649L549.875 28.8416L556.915 36.9107L553.898 40.3664L544.01 29.032L559.975 10.74L566.473 18.1937L566.644 17.9937L576.107 28.8416L549.921 58.9104L559.976 70.4371L570.037 58.9104L563.014 50.872ZM563.9 58.9142L559.975 63.4122L556.05 58.9142L559.975 54.4162L563.9 58.9142ZM563.946 28.8435L559.976 33.3954L556.004 28.8435L559.976 24.2955L563.946 28.8435ZM589.021 35.9781L592.057 32.4973L601.943 43.8222L585.985 62.1161L579.484 54.6605L579.312 54.8528L569.851 44.0164L596.082 13.9476L585.982 2.37281L575.879 13.9476L582.925 22.0187L579.91 25.4724L570.02 14.1399L585.982 -4.14632L592.483 3.29972L592.654 3.10357L602.116 13.9476L575.931 44.0164L585.983 55.5431L596.042 44.0164L589.021 35.9781ZM589.908 44.0145L585.98 48.5163L582.053 44.0145L585.98 39.5165L589.908 44.0145ZM589.948 13.9457L585.982 18.4937L582.008 13.9457L585.982 9.39578L589.948 13.9457ZM615.912 29.1147L611.985 33.6108L608.055 29.1147L611.985 24.6167L615.912 29.1147ZM615.957 -0.961757L611.987 3.59202L608.013 -0.961757L611.987 -5.50784L615.957 -0.961757ZM641.912 14.213L637.992 18.7129L634.064 14.213L637.992 9.715L641.912 14.213ZM667.921 -0.682915L663.994 3.81702L660.066 -0.682915L663.994 -5.18669L667.921 -0.682915ZM323.399 229.165L319.429 233.723L315.457 229.165L319.429 224.619L323.399 229.165ZM349.409 214.273L345.432 218.818L341.464 214.273L345.432 209.72L349.409 214.273ZM375.368 229.437L371.436 233.94L367.511 229.437L371.436 224.939L375.368 229.437ZM375.415 199.366L371.436 203.918L367.466 199.366L371.436 194.818L375.415 199.366ZM401.373 214.543L397.443 219.041L393.52 214.543L397.443 210.039L401.373 214.543ZM401.415 184.468L397.443 189.02L393.474 184.468L397.443 179.92L401.415 184.468ZM427.378 199.639L423.452 204.141L419.518 199.639L423.452 195.141L427.378 199.639ZM427.424 169.574L423.452 174.122L419.476 169.574L423.452 165.018L427.424 169.574ZM453.379 184.739L449.455 189.239L445.529 184.739L449.455 180.241L453.379 184.739ZM453.431 154.669L449.455 159.218L445.483 154.669L449.455 150.119L453.431 154.669ZM479.387 169.839L475.457 174.337L471.531 169.839L475.457 165.341L479.387 169.839ZM479.431 139.767L475.457 144.319L471.485 139.767L475.457 135.219L479.431 139.767ZM505.394 154.938L501.464 159.44L497.541 154.938L501.464 150.438L505.394 154.938ZM505.433 124.871L501.464 129.419L497.492 124.871L501.464 120.313L505.433 124.871ZM531.396 140.038L527.468 144.54L523.543 140.038L527.468 135.536L531.396 140.038ZM531.442 109.971L527.468 114.517L523.501 109.971L527.468 105.421L531.442 109.971ZM557.403 125.14L553.475 129.64L549.545 125.14L553.475 120.646L557.403 125.14ZM557.445 95.0656L553.477 99.6175L549.503 95.0656L553.477 90.5176L557.445 95.0656ZM583.403 110.238L579.482 114.736L575.554 110.238L579.482 105.739L583.403 110.238ZM583.45 80.1716L579.484 84.7215L575.507 80.1716L579.484 75.6178L583.45 80.1716ZM609.409 95.3406L605.484 99.8386L601.557 95.3406L605.484 90.8368L609.409 95.3406ZM609.457 65.2699L605.486 69.8198L601.515 65.2699L605.486 60.7181L609.457 65.2699ZM635.416 80.4408L631.486 84.9427L627.557 80.4408L631.486 75.9428L635.416 80.4408ZM635.463 50.3701L631.487 54.9201L627.519 50.3701L631.487 45.8183L635.463 50.3701ZM661.421 65.5391L657.494 70.0352L653.568 65.5391L657.494 61.0411L661.421 65.5391ZM661.466 35.4684L657.494 40.0184L653.526 35.4684L657.494 30.9185L661.466 35.4684ZM687.426 50.6413L683.5 55.1412L679.573 50.6413L683.5 46.1356L687.426 50.6413ZM687.472 20.5725L683.5 25.1205L679.526 20.5725L683.5 16.0226L687.472 20.5725ZM713.433 35.7377L709.502 40.2395L705.577 35.7377L709.502 31.2435L713.433 35.7377ZM713.477 5.67083L709.502 10.2227L705.533 5.67083L709.502 1.1209L713.477 5.67083ZM739.437 20.8418L735.509 25.3398L731.582 20.8418L735.509 16.3418L739.437 20.8418ZM739.481 -9.22894L735.509 -4.67901L731.538 -9.22894L735.509 -13.7827L739.481 -9.22894ZM765.441 5.94583L761.514 10.44L757.591 5.94583L761.514 1.44205L765.441 5.94583ZM791.446 -8.96163L787.523 -4.45593L783.594 -8.96163L787.523 -13.4596L791.446 -8.96163ZM283.375 38.8434L267.415 57.1316L260.917 49.6855L260.746 49.8778L251.287 39.0395L277.516 8.96886L267.413 -2.60981L257.314 8.96886L264.357 17.0341L261.343 20.4898L251.457 9.15732L267.413 -9.13471L273.918 -1.68674L274.086 -1.8752L283.551 8.96886L257.364 39.0357L267.415 50.5605L277.475 39.0357L270.454 30.9935L273.492 27.5128L283.375 38.8434ZM257.373 53.7412L241.415 72.0294L234.91 64.5815L234.742 64.7776L225.279 53.9374L251.512 23.8648L241.413 12.2919L231.309 23.8648L238.352 31.9339L235.334 35.3877L225.446 24.0552L241.413 5.76506L247.911 13.2169L248.079 13.0207L257.54 23.8609L231.354 53.9335L241.415 65.4603L251.467 53.9335L244.447 45.8894L247.483 42.4164L257.373 53.7412ZM231.366 68.641L215.409 86.933L208.908 79.4851L208.739 79.6793L199.277 68.841L225.505 38.7626L215.406 27.1897L205.307 38.7626L212.346 46.8356L209.331 50.2875L199.441 38.9607L215.404 20.6668L221.904 28.1186L222.073 27.9224L231.537 38.7665L205.35 68.841L215.406 80.362L225.462 68.841L218.44 60.7931L221.479 57.3123L231.366 68.641ZM205.362 83.5446L189.401 101.835L182.903 94.3829L182.735 94.5771L173.275 83.7369L199.501 53.6643L189.401 42.0933L179.301 53.6643L186.344 61.7392L183.329 65.1911L173.439 53.8585L189.402 35.5704L195.905 43.0145L196.076 42.8299L205.538 53.6643L179.347 83.735L189.404 95.2656L199.46 83.735L192.443 75.6928L195.479 72.214L205.362 83.5446ZM179.359 98.4425L163.399 116.733L156.898 109.279L156.726 109.477L147.268 98.6367L173.496 68.5699L163.397 56.9912L153.294 68.5699L160.336 76.6351L157.323 80.0928L147.436 68.7622L163.397 50.4663L169.895 57.9162L170.066 57.72L179.526 68.5699L153.34 98.6367L163.399 110.165L173.451 98.6367L166.435 90.5945L169.471 87.1119L179.359 98.4425ZM153.355 113.34L137.397 131.63L130.894 124.181L130.723 124.377L121.264 113.535L147.489 83.4619L137.395 71.8871L127.291 83.4619L134.332 91.531L131.316 94.9829L121.429 83.6523L137.395 65.3641L143.89 72.8159L144.061 72.6217L153.526 83.4619L127.338 113.533L137.397 125.054L147.447 113.533L140.433 105.49L143.458 102.008L153.355 113.34ZM127.348 128.244L111.39 146.534L104.885 139.08L104.717 139.278L95.2556 128.44L121.484 98.3655L111.385 86.7926L101.287 98.3655L108.322 106.435L105.308 109.887L95.4182 98.5559L111.383 80.262L117.884 87.7138L118.059 87.5215L127.517 98.3655L101.332 128.432L111.385 139.959L121.439 128.432L114.422 120.384L117.46 116.908L127.348 128.244ZM101.344 143.14L85.381 161.428L78.8813 153.982L78.7121 154.176L69.2502 143.336L95.4802 113.263L85.381 101.689L75.2819 113.263L82.3233 121.334L79.3091 124.788L69.4196 113.456L85.381 95.1656L91.8825 102.615L92.0535 102.421L101.512 113.263L75.3237 143.336L85.3829 154.859L95.4385 143.336L88.4204 135.292L91.4581 131.811L101.344 143.14ZM75.339 158.043L59.3774 176.328L52.8762 168.882L52.705 169.076L43.2465 158.24L69.4751 128.165L59.3741 116.585L49.2748 128.165L56.3181 136.236L53.304 139.692L43.4177 128.357L59.3741 110.069L65.8737 117.515L66.0449 117.323L75.5082 128.165L49.3219 158.24L59.3759 169.759L69.4348 158.24L62.4152 150.194L65.4527 146.709L75.339 158.043ZM49.3319 172.941L33.3688 191.235L26.8674 183.782L26.7013 183.978L17.2396 173.137L43.473 143.065L33.3688 131.488L23.2678 143.065L30.3127 151.132L27.297 154.588L17.4106 143.257L33.3688 124.965L39.8735 132.415L40.0447 132.223L49.5013 143.069L23.3182 173.136L33.3705 184.66L43.4261 173.136L36.4083 165.093L39.4441 161.615L49.3319 172.941ZM78.8813 227.658L72.3801 220.206L72.2092 220.402L62.7539 209.566L88.9789 179.491L78.8797 167.914L68.7789 179.491L75.8236 187.564L72.8062 191.016L62.9183 179.682L78.8797 161.393L85.381 168.841L85.5522 168.651L95.0173 179.491L68.8293 209.566L78.8813 221.085L88.9388 209.566L81.9191 201.518L84.9568 198.041L94.8428 209.368L78.8813 227.658ZM104.888 212.754L98.3871 205.31L98.2177 205.502L88.7593 194.666L114.986 164.59L104.885 153.019L94.7827 164.59L101.824 172.661L98.8132 176.11L88.9269 164.782L104.885 146.492L111.386 153.942L111.561 153.749L121.018 164.59L94.8279 194.662L104.887 206.185L114.939 194.662L107.926 186.618L110.959 183.139L120.848 194.468L104.888 212.754ZM130.894 197.856L124.391 190.404L124.22 190.603L114.763 179.76L140.995 149.69L130.894 138.113L120.791 149.69L127.834 157.759L124.82 161.213L114.929 149.884L130.895 131.592L137.398 139.04L137.563 138.848L147.025 149.69L120.836 179.757L130.897 191.285L140.949 179.757L133.93 171.716L136.969 168.238L146.854 179.568L130.894 197.856ZM128.361 215.92L124.387 220.469L120.417 215.92L124.387 211.364L128.361 215.92ZM156.898 182.955L150.393 175.507L150.227 175.703L140.772 164.861L166.997 134.792L156.898 123.211L146.795 134.792L153.836 142.859L150.824 146.315L140.936 134.978L156.898 116.692L163.399 124.142L163.563 123.948L173.025 134.792L146.843 164.861L156.899 176.385L166.955 164.861L159.937 156.818L162.968 153.342L172.857 164.666L156.898 182.955ZM154.365 201.014L150.393 205.57L146.426 201.014L150.393 196.466L154.365 201.014ZM182.903 168.061L176.403 160.605L176.232 160.803L166.772 149.965L193.005 119.89L182.903 108.315L172.798 119.89L179.843 127.959L176.827 131.415L166.94 120.084L182.903 101.794L189.401 109.24L189.57 109.048L199.035 119.89L172.847 149.963L182.904 161.486L192.963 149.963L185.939 141.919L188.978 138.44L198.864 149.767L182.903 168.061ZM180.323 216.189L176.403 220.689L172.476 216.189L176.403 211.687L180.323 216.189ZM180.372 186.116L176.403 190.668L172.431 186.116L176.403 181.566L180.372 186.116ZM208.908 153.157L202.407 145.707L202.239 145.901L192.777 135.067L219.007 104.987L208.906 93.4156L198.807 104.987L205.849 113.061L202.834 116.515L192.948 105.183L208.906 86.8984L215.408 94.3445L215.579 94.1522L225.035 104.989L198.852 135.063L208.908 146.588L218.963 135.063L211.947 127.015L214.982 123.54L224.871 134.869L208.908 153.157ZM206.333 201.285L202.405 205.787L198.477 201.285L202.405 196.787L206.333 201.285ZM206.377 171.216L202.405 175.766L198.431 171.216L202.405 166.666L206.377 171.216ZM234.912 138.255L228.412 130.805L228.239 131.003L218.786 120.159L245.011 90.0888L234.912 78.5101L224.809 90.0888L231.856 98.1579L228.836 101.615L218.947 90.2791L234.912 71.991L241.416 79.4428L241.582 79.2466L251.044 90.0868L224.856 120.158L234.913 131.68L244.969 120.158L237.949 112.115L240.99 108.637L250.873 119.963L234.912 138.255ZM232.339 186.389L228.41 190.891L224.485 186.389L228.41 181.887L232.339 186.389ZM232.386 156.313L228.41 160.868L224.44 156.313L228.41 151.763L232.386 156.313ZM260.919 123.354L254.412 115.902L254.246 116.102L244.788 105.26L271.016 75.1909L260.917 63.6161L250.813 75.1909L257.856 83.2619L254.84 86.7119L244.954 75.3794L260.917 57.0854L267.415 64.5391L267.588 64.3468L277.044 75.189L250.863 105.258L260.919 116.786L270.974 105.258L263.949 97.2194L266.987 93.7406L276.877 105.067L260.919 123.354ZM258.344 171.489L254.412 175.989L250.486 171.489L254.412 166.988L258.344 171.489ZM258.387 141.419L254.412 145.965L250.444 141.419L254.412 136.869L258.387 141.419ZM286.924 108.46L280.426 101.006L280.251 101.202L270.793 90.3637L297.023 60.2892L286.92 48.7144L276.823 60.2892L283.858 68.3583L280.85 71.816L270.962 60.4815L286.919 42.1972L293.42 49.6471L293.595 49.449L303.051 60.2931L276.868 90.3618L286.92 101.885L296.979 90.3618L289.96 82.3177L292.996 78.8389L302.882 90.1657L286.924 108.46ZM284.346 156.584L280.424 161.084L276.493 156.584L280.424 152.092L284.346 156.584ZM284.395 126.517L280.426 131.067L276.449 126.517L280.426 121.965L284.395 126.517ZM312.926 93.556L306.426 86.1061L306.258 86.3042L296.792 75.464L323.025 45.3894L312.926 33.8089L302.825 45.3894L309.866 53.4585L306.851 56.9162L296.961 45.5818L312.926 27.2936L319.426 34.7415L319.598 34.5454L329.058 45.3875L302.872 75.4621L312.928 86.9811L322.981 75.4621L315.968 67.4199L319.003 63.9353L328.891 75.2659L312.926 93.556ZM310.351 141.69L306.423 146.188L302.5 141.69L306.423 137.192L310.351 141.69ZM310.4 111.615L306.424 116.171L302.456 111.615L306.424 107.065L310.4 111.615ZM338.935 78.6562L332.433 71.2064L332.259 71.4006L322.8 60.5642L349.029 30.4897L338.93 18.9168L328.83 30.4897L335.868 38.5646L332.854 42.0126L322.965 30.6839L338.928 12.3957L345.427 19.8418L345.6 19.6514L355.059 30.4897L328.877 60.5642L338.93 72.0852L348.988 60.5642L341.964 52.5163L345.003 49.0432L354.889 60.37L338.935 78.6562ZM336.358 126.788L332.43 131.286L328.505 126.788L332.43 122.286L336.358 126.788ZM336.402 96.7194L332.431 101.269L328.461 96.7194L332.431 92.1637L336.402 96.7194ZM364.938 63.7603L358.437 56.3085L358.267 56.5066L348.807 45.6644L375.034 15.5899L364.936 4.01701L354.832 15.5899L361.874 23.659L358.861 27.1128L348.97 15.788L364.938 -2.50789L371.436 4.94392L371.606 4.74969L381.069 15.588L354.881 45.6625L364.94 57.1873L374.99 45.6625L367.974 37.6203L371.01 34.1396L380.9 45.4683L364.938 63.7603ZM362.365 111.888L358.437 116.388L354.51 111.888L358.437 107.387L362.365 111.888ZM362.407 81.8139L358.438 86.3638L354.467 81.8139L358.438 77.2601L362.407 81.8139ZM388.365 96.9886L384.442 101.489L380.512 96.9886L384.442 92.4906L388.365 96.9886ZM388.416 66.9103L384.442 71.4679L380.472 66.9103L384.442 62.3661L388.416 66.9103ZM414.369 82.0889L410.444 86.5869L406.519 82.0889L410.444 77.5832L414.369 82.0889ZM414.418 52.0201L410.444 56.5681L406.474 52.0201L410.444 47.4606L414.418 52.0201ZM440.378 67.1872L436.451 71.691L432.526 67.1872L436.451 62.6892L440.378 67.1872ZM440.42 37.1146L436.451 41.6703L432.481 37.1146L436.451 32.5646L440.42 37.1146ZM466.381 52.2893L462.456 56.7912L458.53 52.2893L462.456 47.7913L466.381 52.2893ZM466.427 22.2148L462.456 26.7647L458.486 22.2148L462.456 17.6649L466.427 22.2148ZM492.385 37.3896L488.462 41.8876L484.532 37.3896L488.462 32.8896L492.385 37.3896ZM492.435 7.31696L488.462 11.865L484.49 7.31696L488.462 2.75934L492.435 7.31696ZM518.395 22.484L514.467 26.9897L510.537 22.484L514.467 17.9822L518.395 22.484ZM518.435 -7.58665L514.467 -3.02903L510.493 -7.58665L514.467 -12.1347L518.435 -7.58665ZM544.397 7.58811L540.466 12.09L536.544 7.58811L540.466 3.09011L544.397 7.58811ZM570.402 -7.31166L566.473 -2.8098L562.544 -7.31166L566.473 -11.8097L570.402 -7.31166ZM30.8444 209.287L26.8693 213.843L22.8988 209.287L26.8693 204.737L30.8444 209.287ZM56.8044 224.464L52.8762 228.96L48.9495 224.464L52.8762 219.958L56.8044 224.464ZM56.848 194.391L52.8779 198.941L48.9076 194.391L52.8779 189.837L56.848 194.391ZM82.8082 209.564L78.8797 214.066L74.9548 209.564L78.8797 205.062L82.8082 209.564ZM82.8534 179.491L78.8813 184.045L74.9113 179.491L78.8813 174.937L82.8534 179.491ZM108.817 194.66L104.885 199.162L100.96 194.66L104.885 190.162L108.817 194.66ZM108.857 164.59L104.885 169.139L100.915 164.59L104.885 160.038L108.857 164.59ZM134.819 179.759L130.894 184.262L126.962 179.759L130.894 175.262L134.819 179.759ZM134.861 149.69L130.894 154.242L126.918 149.69L130.894 145.138L134.861 149.69ZM160.819 164.861L156.898 169.363L152.972 164.861L156.898 160.359L160.819 164.861ZM160.869 134.792L156.898 139.344L152.924 134.792L156.898 130.236L160.869 134.792ZM186.831 149.963L182.903 154.461L178.973 149.963L182.903 145.463L186.831 149.963ZM186.875 119.89L182.903 124.44L178.931 119.89L182.903 115.34L186.875 119.89ZM212.835 135.063L208.906 139.567L204.98 135.063L208.906 130.563L212.835 135.063ZM212.878 104.987L208.906 109.54L204.936 104.987L208.906 100.437L212.878 104.987ZM238.838 120.159L234.912 124.661L230.987 120.159L234.912 115.661L238.838 120.159ZM238.882 90.0888L234.912 94.6387L230.94 90.0888L234.912 85.5388L238.882 90.0888ZM264.844 105.26L260.919 109.762L256.99 105.26L260.919 100.758L264.844 105.26ZM264.891 75.1909L260.919 79.7428L256.945 75.1909L260.919 70.6391L264.891 75.1909ZM290.844 90.3618L286.919 94.8656L282.991 90.3618L286.919 85.8619L290.844 90.3618ZM290.894 60.2892L286.92 64.843L282.95 60.2892L286.92 55.7431L290.894 60.2892ZM316.854 75.464L312.926 79.962L308.997 75.464L312.926 70.9621L316.854 75.464ZM316.896 45.3894L312.928 49.9432L308.954 45.3894L312.928 40.8376L316.896 45.3894ZM342.858 60.5642L338.931 65.0622L335.001 60.5642L338.931 56.0624L342.858 60.5642ZM342.903 30.4897L338.933 35.0415L334.963 30.4897L338.933 25.9359L342.903 30.4897ZM368.865 45.6625L364.938 50.1605L361.008 45.6625L364.938 41.1607L368.865 45.6625ZM368.91 15.5899L364.938 20.1398L360.963 15.5899L364.938 11.0419L368.91 15.5899ZM394.868 30.7627L390.94 35.2646L387.015 30.7627L390.94 26.2609L394.868 30.7627ZM394.914 0.693988L390.94 5.24392L386.966 0.693988L390.94 -3.85979L394.914 0.693988ZM420.872 15.8591L416.949 20.3629L413.021 15.8591L416.949 11.3611L420.872 15.8591ZM446.877 0.959369L442.949 5.46315L439.024 0.959369L442.949 -3.53479L446.877 0.959369ZM62.3329 40.4914L46.3732 58.7815L39.8735 51.3278L39.7025 51.524L30.2456 40.6876L56.4758 10.6111L46.3714 -0.969448L36.2755 10.6111L43.3153 18.6802L40.2979 22.1379L30.4084 10.8073L46.3698 -7.48281L52.8744 -0.0348473L53.0422 -0.230998L62.5022 10.615L36.3175 40.6876L46.3714 52.2066L56.4237 40.6876L49.4092 32.6396L52.4467 29.1609L62.3329 40.4914ZM36.3326 55.3951L20.3728 73.6813L13.8682 66.2276L13.6956 66.4237L4.23706 55.5816L30.467 25.5109L20.3677 13.9361L10.2668 25.5109L17.3051 33.58L14.2926 37.0357L4.40308 25.7071L20.3677 7.41311L26.8641 14.8611L27.0369 14.6745L36.4971 25.5148L10.3105 55.5778L20.3696 67.1103L30.4233 55.5778L23.4038 47.5433L26.4416 44.0625L36.3326 55.3951ZM17.7915 121.811L13.8649 126.311L9.94153 121.811L13.8649 117.313L17.7915 121.811ZM17.8384 91.7445L13.8665 96.2887L9.89954 91.7445L13.8665 87.1869L17.8384 91.7445ZM42.9095 98.8655L45.9437 95.381L55.8333 106.713L39.8751 125.006L33.3705 117.554L33.2061 117.748L23.7443 106.91L49.9726 76.8351L39.8735 65.2584L29.7711 76.8351L36.8141 84.91L33.7998 88.3599L23.912 77.0313L39.8735 58.7392L46.3732 66.1891L46.5475 66.0007L56.0045 76.8351L29.8214 106.91L39.8751 118.433L49.9357 106.91L42.9095 98.8655ZM43.7985 106.912L39.8718 111.406L35.9434 106.912L39.8718 102.412L43.7985 106.912ZM43.8455 76.837L39.8735 81.3889L35.9049 76.837L39.8735 72.2871L43.8455 76.837ZM68.9114 83.9677L71.949 80.4851L81.8386 91.8137L65.8788 110.104L59.3792 102.652L59.2079 102.848L49.748 92.0137L75.9796 61.9392L65.8755 50.3586L55.7764 61.9392L62.8194 70.0083L59.8069 73.464L49.9174 62.1315L65.8737 43.8395L72.3785 51.2913L72.5496 51.097L82.0079 61.9392L55.8232 92.0137L65.8755 103.531L75.936 92.0137L68.9114 83.9677ZM69.8054 92.0137L65.8737 96.506L61.9487 92.0137L65.8737 87.5099L69.8054 92.0137ZM69.8508 61.9411L65.8755 66.491L61.9069 61.9411L65.8755 57.3873L69.8508 61.9411ZM94.9216 69.0698L97.9578 65.5853L107.846 76.9197L91.8842 95.206L85.3829 87.758L85.2117 87.9542L75.7548 77.114L101.983 47.0413L91.8842 35.4608L81.7833 47.0413L88.8248 55.1105L85.8088 58.5623L75.9227 47.2298L91.8842 28.9436L98.3887 36.3915L98.5598 36.1973L108.015 47.0413L81.8302 77.112L91.8857 88.6349L101.938 77.112L94.9216 69.0698ZM95.804 77.1101L91.8825 81.61L87.9575 77.1101L91.8825 72.6063L95.804 77.1101ZM95.8527 47.0413L91.8825 51.5874L87.9072 47.0413L91.8825 42.4876L95.8527 47.0413ZM120.924 54.1682L123.963 50.6855L133.851 62.0161L117.888 80.3043L111.386 72.8563L111.219 73.0525L101.753 62.2103L127.989 32.1397L117.886 20.5629L107.785 32.1397L114.827 40.2088L111.814 43.6587L101.925 32.33L117.886 14.0399L124.384 21.4898L124.558 21.2975L134.02 32.1416L107.836 62.2026L117.888 73.7332L127.945 62.2026L120.924 54.1682ZM121.813 62.2046L117.886 66.7103L113.96 62.2046L117.886 57.7085L121.813 62.2046ZM121.861 32.1397L117.886 36.6896L113.914 32.1397L117.886 27.5878L121.861 32.1397ZM146.932 39.2665L149.968 35.7896L159.856 47.1163L143.893 65.4064L137.398 57.9527L137.227 58.1508L127.764 47.3144L153.991 17.238L143.891 5.6593L133.794 17.238L140.835 25.3109L137.823 28.7686L127.933 17.4322L143.89 -0.859834L150.393 6.59197L150.567 6.39775L160.026 17.238L133.841 47.3144L143.891 58.8354L153.947 47.3144L146.932 39.2665ZM147.82 47.3144L143.89 51.8086L139.966 47.3144L143.89 42.8164L147.82 47.3144ZM147.862 17.238L143.89 21.7898L139.921 17.238L143.89 12.6861L147.862 17.238ZM173.828 32.407L169.897 36.9088L165.972 32.407L169.897 27.9089L173.828 32.407ZM173.87 2.34012L169.897 6.89005L165.925 2.34012L169.897 -2.21366L173.87 2.34012ZM199.829 17.513L195.904 22.009L191.979 17.513L195.904 13.013L199.829 17.513ZM225.834 2.61511L221.906 7.1112L217.981 2.61511L221.906 -1.88674L225.834 2.61511ZM11.2936 188.033L7.36682 192.533L3.4386 188.033L7.36682 183.535L11.2936 188.033ZM11.3405 157.961L7.36841 162.515L3.39319 157.961L7.36841 153.415L11.3405 157.961ZM37.2954 173.136L33.3688 177.635L29.4438 173.136L33.3688 168.638L37.2954 173.136ZM37.3458 143.065L33.3705 147.613L29.4037 143.065L33.3705 138.511L37.3458 143.065ZM63.3024 158.24L59.3741 162.738L55.4526 158.24L59.3741 153.734L63.3024 158.24ZM63.3492 128.165L59.3759 132.719L55.4055 128.165L59.3759 123.613L63.3492 128.165ZM89.3093 143.336L85.381 147.838L81.4529 143.336L85.381 138.836L89.3093 143.336ZM89.353 113.263L85.381 117.815L81.4092 113.263L85.381 108.712L89.353 113.263ZM115.311 128.436L111.386 132.938L107.458 128.436L111.386 123.938L115.311 128.436ZM115.353 98.3655L111.386 102.912L107.416 98.3655L111.386 93.8118L115.353 98.3655ZM141.322 113.535L137.397 118.034L133.462 113.535L137.397 109.033L141.322 113.535ZM141.364 83.4639L137.397 88.0196L133.416 83.4639L137.397 78.9158L141.364 83.4639ZM167.325 98.6348L163.399 103.137L159.47 98.6348L163.399 94.1368L167.325 98.6348ZM167.369 68.5699L163.399 73.1159L159.422 68.5699L163.399 64.0161L167.369 68.5699ZM193.329 83.7331L189.401 88.2369L185.474 83.7331L189.401 79.2351L193.329 83.7331ZM193.377 53.6643L189.401 58.2162L185.432 53.6643L189.401 49.1125L193.377 53.6643ZM219.332 68.8391L215.408 73.3371L211.479 68.8391L215.408 64.3372L219.332 68.8391ZM219.378 38.7626L215.408 43.3183L211.437 38.7626L215.408 34.2165L219.378 38.7626ZM245.338 53.9374L241.416 58.4373L237.486 53.9374L241.416 49.4375L245.338 53.9374ZM245.387 23.8648L241.416 28.4147L237.441 23.8648L241.416 19.3148L245.387 23.8648ZM271.341 39.0357L267.415 43.5414L263.492 39.0357L267.415 34.5377L271.341 39.0357ZM271.387 8.96886L267.415 13.5149L263.445 8.96886L267.415 4.41508L271.387 8.96886ZM297.35 24.1398L293.42 28.6339L289.495 24.1398L293.42 19.6418L297.35 24.1398ZM297.392 -5.9386L293.422 -1.38098L289.453 -5.9386L293.422 -10.4866L297.392 -5.9386ZM323.35 9.24001L319.426 13.738L315.499 9.24001L319.426 4.73431L323.35 9.24001ZM349.357 -5.66361L345.431 -1.16175L341.504 -5.66361L345.431 -10.1616L349.357 -5.66361ZM24.2945 55.5778L20.3696 60.0796L16.4413 55.5778L20.3696 51.0836L24.2945 55.5778ZM24.3414 25.5109L20.3712 30.0608L16.3977 25.5109L20.3712 20.961L24.3414 25.5109ZM50.2963 40.6876L46.3714 45.1837L42.4466 40.6876L46.3714 36.18L50.2963 40.6876ZM50.3434 10.6111L46.3732 15.1649L42.403 10.6111L46.3732 6.05929L50.3434 10.6111ZM76.3049 25.7821L72.3785 30.2801L68.4501 25.7821L72.3785 21.2821L76.3049 25.7821ZM76.3521 -4.29247L72.3801 0.261302L68.41 -4.29247L72.3801 -8.83663L76.3521 -4.29247ZM102.312 10.8823L98.3855 15.3841L94.4554 10.8823L98.3855 6.38428L102.312 10.8823ZM128.314 -4.01748L124.384 0.482453L120.459 -4.01748L124.384 -8.51741L128.314 -4.01748Z" fill="#F4F4F4" />
  </g>
  <defs>
    <clipPath id="clip0_2845_1079">
      <rect width="1048" height="90" />
    </clipPath>
  </defs>
</svg>