<svg viewBox="0 0 61.9 71.8" fill="currentColor" id="delivery3" xmlns="http://www.w3.org/2000/svg">
            <!-- Третяя картинка доставки -->
            <path class="amcls-1" d="M17.33 7.43a7.43 7.43 0 1 1 7.43 7.43 7.43 7.43 0 0 1-7.43-7.43zm6-1.58h4.15a1.23 1.23 0 0 0 .16-2.45h-5.78A1.23 1.23 0 0 0 22 5.85zM61.9 22.28v17.33a2.47 2.47 0 0 1-2.48 2.48H47a2.47 2.47 0 0 1-2.48-2.48v-5.55l-3.43.54a3.91 3.91 0 0 1-.66.06 3.71 3.71 0 0 1-2.94-1.44l-3.17-3.94-2.38 37.57a4.77 4.77 0 0 1-4.56 5h-5.24a4.77 4.77 0 0 1-4.56-5l-1.44-22.29H5a5 5 0 0 1-5-5V25a3.71 3.71 0 0 1 2.62-3.55l11.8-3.6a11.84 11.84 0 0 1 3.48-.52h2.9l4 5.45 4-5.45h2a7.37 7.37 0 0 1 5.78 2.81L42 27.06l2.53-.46v-4.32A2.47 2.47 0 0 1 47 19.81h2.48v-1.24a1.24 1.24 0 0 1 1.24-1.24h5a1.24 1.24 0 0 1 1.24 1.24v1.24h2.48a2.47 2.47 0 0 1 2.48 2.48zm-42.09 5.35a.39.39 0 0 0-.39-.39h-4.57v7.43l-2.48-2.48-2.47 2.47v-7.43H5.34a.39.39 0 0 0-.39.39v11.6a.39.39 0 0 0 .39.39h14.07a.39.39 0 0 0 .39-.39V27.63zm12.38-2.48a.39.39 0 0 0-.39-.39h-4.17a.39.39 0 0 0-.39.39v1.69a.39.39 0 0 0 .39.39h4.17a.39.39 0 0 0 .39-.39v-1.69zM51.74 21a1.49 1.49 0 1 0 1.49-1.49A1.48 1.48 0 0 0 51.74 21zm6.44 2.87a.39.39 0 0 0-.39-.39h-.85a1.24 1.24 0 0 1-1.24 1.24h-5a1.24 1.24 0 0 1-1.24-1.24h-.85a.39.39 0 0 0-.39.39V38a.39.39 0 0 0 .39.39h9.12a.39.39 0 0 0 .39-.39z"></path>
            <!-- End -->
        </svg>