<svg width="20" height="20" viewBox="0 0 20 20" fill="currentColor" xmlns="http://www.w3.org/2000/svg">
  <path d="M15.8333 10.0007C15.6123 10.0007 15.4004 10.0884 15.2441 10.2447C15.0878 10.401 15 10.613 15 10.834V17.5007C15 17.9598 14.6267 18.334 14.1667 18.334H2.5C2.04 18.334 1.66667 17.9598 1.66667 17.5007V5.83398C1.66667 5.37482 2.04 5.00065 2.5 5.00065H9.16667C9.38768 5.00065 9.59964 4.91285 9.75592 4.75657C9.9122 4.60029 10 4.38833 10 4.16732C10 3.9463 9.9122 3.73434 9.75592 3.57806C9.59964 3.42178 9.38768 3.33398 9.16667 3.33398H2.5C1.12167 3.33398 0 4.45565 0 5.83398V17.5007C0 18.879 1.12167 20.0007 2.5 20.0007H14.1667C15.545 20.0007 16.6667 18.879 16.6667 17.5007V10.834C16.6667 10.613 16.5789 10.401 16.4226 10.2447C16.2663 10.0884 16.0543 10.0007 15.8333 10.0007Z" />
  <path d="M7.81321 9.24109C7.75528 9.2993 7.7156 9.37315 7.69905 9.45359L7.10988 12.4003C7.09667 12.4675 7.10022 12.537 7.12023 12.6026C7.14023 12.6681 7.17607 12.7278 7.22459 12.7762C7.2731 12.8246 7.33279 12.8604 7.39839 12.8803C7.46398 12.9001 7.53347 12.9036 7.60071 12.8903L10.5465 12.3011C10.6274 12.2851 10.7017 12.2454 10.7599 12.1869L17.3532 5.59359L14.4074 2.64776L7.81321 9.24109ZM19.3899 0.610259C18.999 0.220102 18.4693 0.000976562 17.917 0.000976562C17.3647 0.000976563 16.8349 0.220102 16.444 0.610259L15.2907 1.76359L18.2365 4.70943L19.3899 3.55609C19.7832 3.16359 19.9999 2.64026 19.9999 2.08359C19.9999 1.52693 19.7832 1.00359 19.3899 0.610259Z" />
</svg>