<svg width="30" height="28" viewBox="0 0 30 28" fill="currentColor" xmlns="http://www.w3.org/2000/svg">
<path d="M27.0889 2.67372C23.8955 -0.0450596 19.12 0.406116 16.1552 3.46474L15.0009 4.66006L13.8466 3.4706C11.4559 0.997919 6.63359 -0.490376 2.91286 2.67372C-0.766866 5.81437 -0.960228 11.4511 2.33277 14.8496L13.6708 26.5568C14.0341 26.9318 14.5145 27.1251 14.995 27.1251C15.4755 27.1251 15.9559 26.9376 16.3192 26.5568L27.6572 14.8496C30.9619 11.4511 30.7686 5.81437 27.0889 2.67372ZM26.3213 13.5488L15.0243 25.256L3.68044 13.5488C1.43042 11.2285 0.961665 6.80461 4.13162 4.10342C7.34258 1.3612 11.1161 3.34755 12.4989 4.77725L15.0009 7.36126L17.5028 4.77725C18.8622 3.37099 22.6709 1.37878 25.8701 4.10342C29.0342 6.79875 28.5713 11.2226 26.3213 13.5488Z"/>
</svg>
