<svg width="20" height="20" viewBox="0 0 20 20" fill="currentColor" xmlns="http://www.w3.org/2000/svg">
<path fill-rule="evenodd" clip-rule="evenodd" d="M18.8297 3.31041C18.1437 3.26314 17.6159 3.41829 17.2174 4.20071C16.438 5.73223 16.0805 6.57708 14.7607 7.04495C14.0299 7.30435 13.8136 7.80314 13.8641 8.41586C13.9183 8.66253 13.9858 8.8492 14.0589 9.00798C14.3471 9.21041 14.6416 9.40132 14.943 9.57586C15.1624 9.70253 15.269 9.75041 15.2374 9.7995C15.1195 9.98556 14.8528 10.1147 14.6737 10.1589C14.3194 10.1256 13.4322 9.69707 12.8148 9.33889L12.951 9.2001C12.1301 8.58132 11.2757 7.76435 10.6066 7.00435L10.4061 7.22132L10.3815 7.2001C9.72386 6.27526 9.57946 5.81586 9.44641 5.36798C9.46028 5.29101 9.50379 5.22617 9.64315 5.04798C9.78376 4.86738 9.89663 4.82617 10.0486 5.0498C10.3021 5.42556 10.5606 5.77041 10.8242 6.10495L10.8254 6.10192C11.8217 6.38859 12.5424 6.14859 12.7858 5.34556C13.1503 4.14435 13.9555 3.6595 15.5357 2.83586C16.2079 2.48495 16.5395 1.85041 16.4115 1.07465L16.3775 1.0492C15.9954 0.718893 15.6687 0.41162 15.3636 0.112226C15.7085 -0.0556525 16.1429 -0.11141 17.1102 0.502529C17.4192 0.713438 17.7244 0.935863 18.0169 1.17344C18.0472 1.14798 18.0825 1.11465 18.1084 1.09041C18.0724 1.00253 18.1884 0.919499 18.2452 0.874651C18.2748 0.851014 18.3215 0.843135 18.3612 0.867378C18.6324 1.03526 18.8751 1.24556 19.0485 1.51344C19.0794 1.56132 19.0548 1.60011 19.0315 1.62556C18.9874 1.67465 18.8638 1.80617 18.7982 1.75647L18.7364 1.81586C19.1885 2.26495 19.5902 2.76556 19.9124 3.33647C20.0549 3.58859 20.0045 3.88132 19.9118 4.18798C19.8676 4.33162 19.7901 4.29829 19.6936 4.18132C19.442 3.87647 19.1646 3.60011 18.8871 3.36738L18.8297 3.31041Z"/>
<path fill-rule="evenodd" clip-rule="evenodd" d="M3.85333 17.3647C6.51617 14.858 9.26225 12.1217 11.9472 9.41803C11.3362 8.98893 10.7188 8.39984 10.2491 7.83984C7.59001 10.6386 4.82061 13.5223 2.2946 16.3629C1.09969 17.7053 0.2497 19.1611 0 20.0017C1.1268 19.6041 2.45728 18.6786 3.85333 17.3647Z"/>
</svg>
