<!-- Generator: Adobe Illustrator 21.0.0, SVG Export Plug-In  -->
<svg version="1.1"
	 xmlns="http://www.w3.org/2000/svg" xmlns:xlink="http://www.w3.org/1999/xlink" xmlns:a="http://ns.adobe.com/AdobeSVGViewerExtensions/3.0/"
	 x="0px" y="0px" width="17px" height="17px" viewBox="0 0 17 17" style="enable-background:new 0 0 17 17;" xml:space="preserve">
<style type="text/css">
	.st0{fill-rule:evenodd;clip-rule:evenodd;fill:#367BC5;}
</style>
<path class="st0" d="M1.7,1.1h13.6c0.3,0,0.6,0.3,0.6,0.6v13.6c0,0.3-0.3,0.6-0.6,0.6c-9.3,0-4.3,0-13.6,0c-0.3,0-0.6-0.3-0.6-0.6
	V1.7C1.1,1.4,1.4,1.1,1.7,1.1L1.7,1.1z M9.5,17h6.2c0.4,0,0.7-0.1,0.9-0.4l0,0c0.2-0.2,0.4-0.6,0.4-0.9V1.3c0-0.4-0.1-0.7-0.4-0.9
	l0,0C16.3,0.1,16,0,15.6,0H1.3C1,0,0.6,0.1,0.4,0.4l0,0C0.1,0.6,0,1,0,1.3v14.3c0,0.4,0.1,0.7,0.4,0.9l0,0C0.6,16.8,1,17,1.3,17h6.2
	H9.5L9.5,17z M15.6,0.5H1.3c-0.2,0-0.4,0.1-0.6,0.2C0.6,0.9,0.5,1.1,0.5,1.3v14.3c0,0.2,0.1,0.4,0.2,0.6l0,0
	c0.1,0.1,0.4,0.2,0.6,0.2h14.3c0.2,0,0.4-0.1,0.6-0.2l0,0c0.1-0.1,0.2-0.4,0.2-0.6V1.3c0-0.2-0.1-0.4-0.2-0.6
	C16.1,0.6,15.9,0.5,15.6,0.5L15.6,0.5z M9.8,2.8H5.3v3.7v2.9v0.8v4.2H7v-4.2h2.8c1.4,0,3.4-1.4,3.4-3.7S11.2,2.8,9.8,2.8L9.8,2.8
	L9.8,2.8z M9.8,4.4H7v2v2h2.8c0.8,0,1.8-1,1.8-2C11.6,5.4,10.6,4.4,9.8,4.4L9.8,4.4z"/>
</svg>
