<svg width="20" height="20" viewBox="0 0 20 20" fill="currentColor" xmlns="http://www.w3.org/2000/svg">
<g clip-path="url(#clip0_1_2385)">
<path fill-rule="evenodd" clip-rule="evenodd" d="M8.16681 5.02636H6.32733C6.13986 5.02636 5.98755 4.87405 5.98755 4.68658V0.339777C5.98755 0.152314 6.13986 0 6.32733 0H8.16681V5.02636ZM8.53002 0H11.4709V5.02636H8.53002V0ZM11.8341 0H13.6735C13.861 0 14.0133 0.152314 14.0133 0.339777V4.68658C14.0133 4.87405 13.861 5.02636 13.6735 5.02636H11.8341V0ZM9.99458 8.6116C9.80712 8.6116 9.6548 8.45928 9.6548 8.27182V6.33861C9.6548 6.15114 9.80712 5.99883 9.99458 5.99883C10.182 5.99883 10.3344 6.15114 10.3344 6.33861V8.27182C10.3344 8.45928 10.182 8.6116 9.99458 8.6116Z"/>
<path fill-rule="evenodd" clip-rule="evenodd" d="M12.7593 6.67748H7.2291C7.04164 6.67748 6.88932 6.52517 6.88932 6.3377V5.37695H13.099V6.3377C13.099 6.52517 12.9467 6.67748 12.7593 6.67748ZM11.1424 19.9874H8.84597C8.65851 19.9874 8.50619 19.8351 8.50619 19.6476V17.8316C8.97485 18.0073 9.47866 18.1127 9.99418 18.1127C10.5214 18.1127 11.0252 18.0073 11.4822 17.8316V19.6476C11.4822 19.8351 11.3299 19.9874 11.1424 19.9874ZM8.50619 10.0987V8.27092C8.50619 8.08346 8.65851 7.93114 8.84597 7.93114H11.1424C11.3299 7.93114 11.4822 8.08346 11.4822 8.27092V10.0987C11.0252 9.92294 10.5214 9.81749 9.99418 9.81749C9.47866 9.81749 8.97485 9.92294 8.50619 10.0987ZM6.12775 15.4531H4.3117C4.12424 15.4531 3.97192 15.3008 3.97192 15.1133V12.8169C3.97192 12.6294 4.12424 12.4771 4.3117 12.4771H6.12775C5.95201 12.9458 5.85827 13.4379 5.85827 13.9651C5.85827 14.4924 5.95201 14.9845 6.12775 15.4531ZM15.6884 15.4531H13.8606C14.0481 14.9845 14.1418 14.4924 14.1418 13.9651C14.1418 13.4379 14.0481 12.9458 13.8606 12.4771H15.6884C15.8758 12.4771 16.0282 12.6294 16.0282 12.8169V15.1133C16.0282 15.3008 15.8758 15.4531 15.6884 15.4531ZM9.99418 17.7613C7.90865 17.7613 6.20977 16.0506 6.20977 13.9651C6.20977 11.8796 7.90865 10.169 9.99418 10.169C12.0914 10.169 13.7903 11.8796 13.7903 13.9651C13.7903 16.0506 12.0914 17.7613 9.99418 17.7613ZM9.99418 16.0272C11.1307 16.0272 12.0563 15.1016 12.0563 13.9651C12.0563 12.8286 11.1307 11.903 9.99418 11.903C8.85769 11.903 7.93209 12.8286 7.93209 13.9651C7.93209 15.1016 8.85769 16.0272 9.99418 16.0272ZM9.99418 12.2662C10.9315 12.2662 11.6931 13.0278 11.6931 13.9651C11.6931 14.9024 10.9315 15.664 9.99418 15.664C9.05687 15.664 8.30701 14.9024 8.30701 13.9651C8.30701 13.0278 9.05687 12.2662 9.99418 12.2662Z"/>
</g>
</svg>
