<svg width="253" height="300" viewBox="0 0 253 300" fill="none" xmlns="http://www.w3.org/2000/svg">
<path opacity="0.1" fill-rule="evenodd" clip-rule="evenodd" d="M212.593 0.00230767L203.609 9.13147L194.621 0.00230767H202.917L203.609 0.699225L204.297 0.00230767H212.593ZM175.982 0.00230767L172.517 3.52613L182.015 13.1791L168.4 27.0113L154.786 13.1791L167.734 0.00230767H175.982ZM106.871 0.00230767L106.793 0.0784609L106.714 0.00230767H106.871ZM72.7377 0.00230767L71.584 1.1723L70.4305 0.00230767H72.7377ZM44.845 0.00230767L49.9881 5.22688L36.3744 19.0568L22.7608 5.22688L27.8976 0.00230767H36.202L31.0541 5.22688L36.3723 10.6315L41.6906 5.22688L36.5493 0.00230767H44.845ZM2.07542 0.00230767L0 2.10921V0.00230767H2.07542ZM0 60.3549L6.04063 66.491L0 72.6317V60.3549ZM0 96.5046L5.98146 102.581L0 108.657V96.5046ZM0 131.201L10.5526 141.92L14.6356 137.77L5.1004 128.097L18.7732 114.198L32.4459 128.097L0 161.064V151.471L5.40688 145.97L0 140.48V131.201ZM0 203.795L9.97572 193.669L23.6487 207.557L0 231.589V219.61L1.75093 221.387L5.83374 217.244L0.00218201 211.321L0 203.795ZM0 274.329L1.17403 273.141L14.8515 287.031L2.09158 300H0V291.302L1.17403 292.491L6.55603 287.031L1.17403 281.569L0 282.759V274.329ZM96.9815 300L97.9918 298.968L99.0047 300H96.9815ZM124.466 300L119.526 294.981L133.201 281.089L146.876 294.981L141.937 300H133.64L138.577 294.981L133.201 289.521L127.819 294.981L132.768 300H124.466ZM242.824 136.132L221.217 158.08L212.416 149.136L212.184 149.373L199.378 136.365L234.888 100.285L221.215 86.3901L207.538 100.285L217.071 109.963L212.992 114.112L199.606 100.515L221.215 78.5602L230.012 87.5001L230.244 87.2647L243.052 100.285L207.599 136.365L221.217 150.2L234.827 136.365L225.327 126.714L229.438 122.535L242.824 136.132ZM207.619 154.01L186.014 175.958L177.211 167.018L176.979 167.253L164.174 154.243L199.678 118.155L186.012 104.265L172.333 118.155L181.866 127.838L177.783 131.981L164.396 118.384L186.012 96.4377L194.805 105.38L195.037 105.147L207.851 118.155L172.396 154.24L186.014 168.066L199.621 154.24L190.125 144.59L194.221 140.41L207.619 154.01ZM172.41 171.894L150.805 193.842L141.999 184.898L141.772 185.135L128.962 172.129L164.471 136.04L150.798 122.152L137.128 136.04L146.652 145.723L142.571 149.865L129.182 136.268L150.796 114.315L159.598 123.257L159.834 123.027L172.639 136.04L137.189 172.12L150.798 185.952L164.41 172.12L154.911 162.463L159.023 158.29L172.41 171.894ZM137.205 189.769L115.593 211.715L106.793 202.78L106.564 203.013L93.7544 190.005L129.266 153.917L115.593 140.027L101.92 153.917L111.453 163.603L107.373 167.747L93.9837 154.148L115.593 132.2L124.395 141.14L124.627 140.907L137.432 153.917L101.977 190.005L115.596 203.832L129.209 190.005L119.708 180.352L123.82 176.175L137.205 189.769ZM101.998 207.654L80.3882 229.595L71.5865 220.66L71.3546 220.893L58.5493 207.889L94.0589 171.799L80.3835 157.903L66.7107 171.799L76.2462 181.485L72.1656 185.632L58.7809 172.03L80.3835 150.084L89.1831 159.02L89.4148 158.789L102.227 171.799L66.7744 207.889L80.386 221.712L94.0042 207.889L84.5008 198.234L88.6132 194.052L101.998 207.654ZM66.7881 225.531L45.1765 247.484L36.3744 238.54L36.1495 238.775L23.3399 225.767L58.856 189.679L45.1765 175.787L31.5011 189.679L41.039 199.36L36.956 203.507L23.5715 189.91L45.1765 167.959L53.9827 176.899L54.2146 176.669L67.0174 189.684L31.5693 225.764L45.1786 239.594L58.7926 225.764L49.2912 216.114L53.4014 211.939L66.7881 225.531ZM106.793 291.192L97.9918 282.249L97.7603 282.485L84.9594 269.481L120.464 233.391L106.791 219.499L93.1163 233.391L102.654 243.079L98.5687 247.221L85.182 233.62L106.791 211.674L115.593 220.611L115.825 220.383L128.639 233.391L93.1845 269.481L106.793 283.304L120.41 269.481L110.906 259.823L115.019 255.651L128.403 269.243L106.793 291.192ZM142.003 273.307L133.201 264.374L132.972 264.605L120.167 251.601L155.674 215.509L141.999 201.624L128.321 215.509L137.854 225.194L133.778 229.334L120.394 215.74L141.999 193.792L150.8 202.731L151.037 202.501L163.84 215.509L128.383 251.597L142.001 265.424L155.61 251.597L146.116 241.944L150.221 237.769L163.61 251.363L142.003 273.307ZM177.211 255.43L168.406 246.487L168.175 246.725L155.372 233.714L190.885 197.629L177.211 183.737L163.533 197.629L173.068 207.312L168.988 211.457L155.597 197.862L177.213 175.912L186.017 184.849L186.239 184.619L199.049 197.629L163.594 233.71L177.215 247.544L190.824 233.71L181.321 224.061L185.436 219.887L198.818 233.484L177.211 255.43ZM173.781 277.106L168.402 282.565L163.027 277.106L168.402 271.639L173.781 277.106ZM212.416 237.547L203.609 228.61L203.384 228.845L190.584 215.834L226.088 179.752L212.416 165.855L198.738 179.752L208.271 189.432L204.193 193.579L190.806 179.976L212.416 158.032L221.217 166.972L221.44 166.739L234.25 179.752L198.804 215.834L212.418 229.664L226.032 215.834L216.53 206.184L220.634 202.012L234.023 215.601L212.416 237.547ZM208.987 259.219L203.609 264.686L198.239 259.219L203.609 253.761L208.987 259.219ZM244.13 277.429L238.823 282.829L233.507 277.429L238.823 272.026L244.13 277.429ZM244.196 241.341L238.823 246.803L233.446 241.341L238.823 235.881L244.196 241.341ZM41.7588 269.146L36.3769 274.613L31.0016 269.146L36.3769 263.686L41.7588 269.146ZM76.9047 287.359L71.5865 292.754L66.2702 287.359L71.5865 281.952L76.9047 287.359ZM76.9637 251.271L71.5887 256.731L66.2135 251.271L71.5887 245.807L76.9637 251.271ZM112.11 269.479L106.791 274.881L101.477 269.479L106.791 264.076L112.11 269.479ZM112.171 233.391L106.793 238.856L101.419 233.391L106.793 227.927L112.171 233.391ZM147.322 251.594L141.999 256.996L136.685 251.594L141.999 246.197L147.322 251.594ZM147.376 215.509L141.999 220.969L136.623 215.509L141.999 210.047L147.376 215.509ZM182.524 233.712L177.211 239.117L171.888 233.712L177.211 228.317L182.524 233.712ZM182.581 197.629L177.211 203.091L171.829 197.629L177.211 192.167L182.581 197.629ZM217.725 215.834L212.416 221.237L207.102 215.834L212.416 210.432L217.725 215.834ZM217.793 179.752L212.416 185.214L207.036 179.752L212.416 174.285L217.793 179.752ZM252.941 197.957L247.623 203.355L242.302 197.957L247.623 192.557L252.941 197.957ZM253 161.87L247.623 167.329L242.245 161.87L247.623 156.41L253 161.87ZM84.3895 66.5902L62.7823 88.5385L53.9827 79.594L53.7512 79.8294L40.9481 66.8256L76.4598 30.7336L62.78 16.8368L49.1115 30.7336L58.6424 40.4166L54.5574 44.5658L41.1684 30.969L62.7777 9.0207L71.584 17.9583L71.8113 17.7229L84.6186 30.7382L49.1684 66.8256L62.78 80.6486L76.3893 66.8256L66.8926 57.168L71.0049 52.9934L84.3895 66.5902ZM49.1889 84.4747L27.5818 106.418L18.7754 97.4738L18.5416 97.7092L5.73634 84.6986L41.2477 48.6135L27.5748 34.7236L13.8999 48.6135L23.4284 58.2965L19.35 62.4434L5.96111 48.8489L27.5748 26.8959L36.3701 35.8336L36.6039 35.6097L49.4116 48.6181L13.959 84.694L27.5774 98.5331L41.1887 84.694L31.6852 75.0525L35.798 70.8756L49.1889 84.4747ZM24.0871 164.175L18.7709 169.575L13.4594 164.175L18.7709 158.777L24.0871 164.175ZM24.1506 128.094L18.7732 133.547L13.4025 128.094L18.7732 122.625L24.1506 128.094ZM58.0931 136.64L62.2009 132.458L75.5898 146.057L53.9848 168.008L45.1786 159.066L44.9562 159.299L32.1462 146.293L67.6555 110.203L53.9827 96.3108L40.3055 110.203L49.8408 119.893L45.7599 124.033L32.3734 110.438L53.9827 88.4878L62.7823 97.4277L63.0184 97.2015L75.8217 110.203L40.3737 146.293L53.9848 160.12L67.6055 146.293L58.0931 136.64ZM59.2966 146.295L53.9805 151.688L48.662 146.295L53.9805 140.895L59.2966 146.295ZM59.3602 110.205L53.9827 115.668L48.6098 110.205L53.9827 104.745L59.3602 110.205ZM93.2957 118.762L97.4082 114.583L110.797 128.177L89.1901 150.126L80.3905 141.184L80.1588 141.419L67.3513 128.417L102.865 92.3277L89.1856 78.4309L75.5129 92.3277L85.0481 102.011L80.9696 106.158L67.5806 92.5585L89.1831 70.6079L97.9896 79.5501L98.2213 79.3171L111.026 92.3277L75.5763 128.417L89.1856 142.238L102.806 128.417L93.2957 118.762ZM94.5059 128.417L89.1831 133.808L83.8692 128.417L89.1831 123.013L94.5059 128.417ZM94.5676 92.3301L89.1856 97.79L83.8125 92.3301L89.1856 86.8655L94.5676 92.3301ZM128.51 100.885L132.62 96.7031L146.007 110.305L124.397 132.248L115.596 123.311L115.364 123.546L102.561 110.538L138.07 74.4502L124.397 60.5534L110.722 74.4502L120.255 84.1332L116.172 88.2755L102.788 74.6763L124.397 52.7327L133.204 61.6703L133.435 61.4372L146.236 74.4502L110.786 110.535L124.399 124.363L138.009 110.535L128.51 100.885ZM129.704 110.533L124.395 115.933L119.081 110.533L124.395 105.128L129.704 110.533ZM129.77 74.4502L124.395 79.9055L119.013 74.4502L124.395 68.9856L129.77 74.4502ZM163.713 83.0024L167.827 78.8232L181.214 92.4201L159.602 114.366L150.8 105.428L150.573 105.664L137.759 92.6531L173.277 56.568L159.6 42.6758L145.925 56.568L155.458 66.251L151.379 70.391L137.991 56.7965L159.6 34.8482L168.397 43.7881L168.633 43.5574L181.443 56.5703L145.993 92.6439L159.602 106.481L173.219 92.6439L163.713 83.0024ZM164.916 92.6462L159.6 98.0531L154.284 92.6462L159.6 87.2508L164.916 92.6462ZM164.982 56.568L159.6 62.028L154.222 56.568L159.6 51.1058L164.982 56.568ZM198.924 65.1203L203.035 60.948L216.421 74.5402L194.81 96.4885L186.017 87.5439L185.785 87.7816L172.973 74.7779L208.48 38.6859L194.807 24.7913L181.137 38.6859L190.67 48.3735L186.591 52.5227L173.202 38.9189L194.805 16.9683L203.609 25.9106L203.845 25.6775L216.651 38.6859L181.2 74.7779L194.807 88.6032L208.421 74.7779L198.924 65.1203ZM200.126 74.7779L194.805 80.1709L189.494 74.7779L194.805 69.3802L200.126 74.7779ZM200.182 38.6859L194.805 44.1481L189.432 38.6859L194.805 33.2236L200.182 38.6859ZM235.337 56.8888L230.015 62.291L224.701 56.8888L230.015 51.4911L235.337 56.8888ZM235.394 20.8083L230.015 26.2683L224.637 20.8083L230.015 15.3437L235.394 20.8083ZM15.2899 243.642L9.97354 249.042L4.65536 243.642L9.97354 238.244L15.2899 243.642ZM15.3532 207.555L9.97572 213.019L4.59401 207.555L9.97572 202.099L15.3532 207.555ZM50.4924 225.764L45.1765 231.164L39.8625 225.764L45.1765 220.367L50.4924 225.764ZM50.5606 189.679L45.1786 195.137L39.8083 189.679L45.1786 184.215L50.5606 189.679ZM85.7019 207.889L80.3835 213.287L75.0745 207.889L80.3835 202.482L85.7019 207.889ZM85.7654 171.799L80.386 177.264L75.0108 171.799L80.386 166.337L85.7654 171.799ZM120.911 190.005L115.593 195.407L110.275 190.005L115.593 184.605L120.911 190.005ZM120.97 153.917L115.593 159.38L110.216 153.917L115.593 148.455L120.97 153.917ZM156.114 172.125L150.8 177.527L145.482 172.125L150.8 166.727L156.114 172.125ZM156.171 136.04L150.8 141.495L145.425 136.04L150.8 130.575L156.171 136.04ZM191.328 154.243L186.014 159.643L180.687 154.243L186.014 148.84L191.328 154.243ZM191.385 118.158L186.014 123.624L180.626 118.158L186.014 112.7L191.385 118.158ZM226.533 136.363L221.217 141.765L215.899 136.363L221.217 130.965L226.533 136.363ZM226.592 100.285L221.217 105.74L215.833 100.285L221.217 94.82L226.592 100.285ZM32.8911 84.694L27.5774 90.0962L22.2591 84.694L27.5774 79.3009L32.8911 84.694ZM32.9546 48.6135L27.5796 54.0734L22.1999 48.6135L27.5796 43.1535L32.9546 48.6135ZM68.0937 66.8256L62.78 72.221L57.4663 66.8256L62.78 61.4164L68.0937 66.8256ZM68.1575 30.7336L62.7823 36.1982L57.4073 30.7336L62.7823 25.2713L68.1575 30.7336ZM103.305 48.9388L97.9896 54.3365L92.6711 48.9388L97.9896 43.5389L103.305 48.9388ZM103.369 12.8491L97.9918 18.3137L92.6167 12.8491L97.9918 7.3961L103.369 12.8491ZM138.515 31.059L133.199 36.4613L127.878 31.059L133.199 25.6613L138.515 31.059ZM173.718 13.1791L168.397 18.5791L163.084 13.1791L168.397 7.77917L173.718 13.1791Z" fill="white"/>
</svg>
