<svg width="30" height="30" viewBox="0 0 30 30" fill="none" xmlns="http://www.w3.org/2000/svg">
<circle cx="15" cy="15" r="14.5" stroke="currentColor"/>
<path d="M20.9451 9.04695C19.4634 7.57039 17.4878 6.75008 15.4024 6.75008C11.0671 6.75008 7.55488 10.2501 7.55488 14.5704C7.55488 15.9376 7.93902 17.3048 8.59756 18.4532L7.5 22.5001L11.6707 21.4063C12.8232 22.0079 14.0854 22.336 15.4024 22.336C19.7378 22.336 23.25 18.836 23.25 14.5157C23.1951 12.4923 22.4268 10.5235 20.9451 9.04695ZM19.189 17.3595C19.0244 17.797 18.2561 18.2345 17.872 18.2891C17.5427 18.3438 17.1037 18.3438 16.6646 18.2345C16.3902 18.1251 16.0061 18.0157 15.5671 17.797C13.5915 16.9766 12.3293 15.0079 12.2195 14.8438C12.1098 14.7345 11.3963 13.8048 11.3963 12.8204C11.3963 11.836 11.8902 11.3985 12.0549 11.1798C12.2195 10.961 12.439 10.961 12.6037 10.961C12.7134 10.961 12.878 10.961 12.9878 10.961C13.0976 10.961 13.2622 10.9063 13.4268 11.2891C13.5915 11.672 13.9756 12.6563 14.0305 12.711C14.0854 12.8204 14.0854 12.9298 14.0305 13.0391C13.9756 13.1485 13.9207 13.2579 13.811 13.3673C13.7012 13.4766 13.5915 13.6407 13.5366 13.6954C13.4268 13.8048 13.3171 13.9141 13.4268 14.0782C13.5366 14.297 13.9207 14.8985 14.5244 15.4454C15.2927 16.1016 15.8963 16.3204 16.1159 16.4298C16.3354 16.5391 16.4451 16.4845 16.5549 16.3751C16.6646 16.2657 17.0488 15.8282 17.1585 15.6095C17.2683 15.3907 17.4329 15.4454 17.5976 15.5001C17.7622 15.5548 18.75 16.047 18.9146 16.1563C19.1342 16.2657 19.2439 16.3204 19.2988 16.3751C19.3537 16.5391 19.3537 16.922 19.189 17.3595Z" fill="currentColor"/>
</svg>
