<svg xmlns="http://www.w3.org/2000/svg" viewBox="0 0 124.26 161"><defs><style>.cls-1{fill:#b2b2b2;}.cls-1,.cls-2{fill-rule:evenodd;}.cls-2{fill:#08366b;}</style></defs><title>Ресурс 1</title><g id="Слой_2" data-name="Слой 2"><g id="description"><path class="cls-1" d="M17.11,41.58c21.48-.65,36.52-7,44.81-19.34v40L59.4,65.36,44.15,51.6a14.38,14.38,0,0,0-20.19,1L17.11,60.1q0-9.26,0-18.52ZM61.9,96.29v4.22h0L33,74.5l2-2.18L61.79,96.43l.11-.14Zm0,28.59a14.25,14.25,0,0,1-9.1-3.66L17.2,89.12c1.27,20.76,16.6,37.17,44.7,49.64V124.89ZM0,26.72Q0,57.59,0,88.45C0,119,21.29,143,61.89,161c30.55-11.66,62.4-37,62.37-72.55q0-15,0-30.1Q119.15,64.69,114,71q0,8.07,0,16.14c0,29.72-26.57,50.85-52.09,60.58-33.9-15-51.7-35.06-51.68-60.58q0-25.42,0-51.55C35,34.84,52.38,27.5,62,13.28c6.13,9.11,15.13,14.7,25.12,18l7.29-9C81.45,18.46,69.73,11.63,61.92,0,50.46,17,29.68,25.82,0,26.72Z"/><path class="cls-2" d="M20.27,72.58,31.9,59.82A3.6,3.6,0,0,1,37,59.59L60.6,80.9l43.15-53.13a3.6,3.6,0,0,1,5-.53L122.2,38.11a3.6,3.6,0,0,1,.53,5L77.44,98.92a3.56,3.56,0,0,1-.77,1.33L65,113a3.6,3.6,0,0,1-5.06.23L20.5,77.64A3.59,3.59,0,0,1,20.27,72.58Z"/></g></g></svg>