<svg xmlns="http://www.w3.org/2000/svg" viewBox="0 0 240.83 99.45"><defs><style>.cls-1{fill:#f4f3f0;}.cls-1,.cls-2,.cls-3,.cls-4,.cls-5,.cls-6,.cls-7{fill-rule:evenodd;}.cls-2{fill:#fff;}.cls-3{fill:#29590a;}.cls-4{fill:#d7d8d9;}.cls-5{fill:#b2b2b2;}.cls-6{fill:#545d63;}.cls-7{fill:#9099a0;}</style></defs><title>Ресурс 3</title><g id="Слой_2" data-name="Слой 2"><g id="description"><path class="cls-1" d="M4.48,54.59c.2-.59,4-.26,1.79-.17a8.92,8.92,0,0,1-1.79.17ZM94.7,93c.15-.64,1.11-.12,1,.51a1.36,1.36,0,0,1-1-.51ZM66.15,9.61c.25.71.15,2.51-.67,2.7,0,.3-.17.84.33.67-.12.58-.5.11-.84,0-.08-.53.24-.66.33-1-.15-.49-.25-.19-.67-.17-.14.48.24.44.17.84a.93.93,0,0,0-.67-.17c.43-.73,0-.76-.5-.84.51-.14.89-1,1.5-.51v-.84c.94.39.6-.24,1-.67ZM76.5,8.09c.45-.34,1,.71,1,1.35-.65,0-.49.76-.33,1.18-.24.5-.87-.44-.84.34-.14,0-.16-.07-.17-.17h-.33c.58-.45.17-.5-.5-.67,0-.76.34-1.18.17-2a.93.93,0,0,0,.67.17,1,1,0,0,0-.17.67c.21-.14,1-.59.5-.84ZM62.65,3.88c.7.19.7-1.2,0-1-.08.53.36.66,0,1Zm-1.5-2.7c-.39.71.09,1.29,0,2.19.32,0,.37.19.67.17.09-.3-.2-1,.17-1,.5.65-.36,1.72.33,2-.3.78-.54.57-1,1.18.22-.51.12-1.35.33-1.85-.51-.13-.32.46-.84.34A3.06,3.06,0,0,1,61,6.07c.31.16.56-.5.67,0-.39.79-.29,2-1,2a2.79,2.79,0,0,1,1,3.37c.6.12.45-.89,1-.34a.77.77,0,0,1,.17-1c-.52.08-.53-.36-.5-.84.13.35,1-.12.5-.34-.37.28-.57-.76-.17-1-.43,0-.58-.31-.83-.51-.12-.56.28-.62.67-.67.07.32-.23,1,.33.84.13-.87-.13-1.22.33-1.85-.26,0-.58,0-.5-.34,1.08.29.81-2.15,1.5-3-.42-.22-.4.78-.67.17,0-.44.65-.13.5-.67C62.83,2.38,62.8.92,62,2c.19-.75-.51-.61-.84-.84Zm13.69,3.2a2.54,2.54,0,0,0-.33,3,8.41,8.41,0,0,0-.67,2.87c.75,0,.26-2.39,1-1.35.39-.44,0-1.15,0-1.68a.78.78,0,0,1,.5.17c.08-.32-.51-.73.17-.67-.38-.63-.08-1.94-.67-2.36ZM64.15,5.73c-.47,0,.4.46-.33.34.15.57.31.08.84.17-.07,1-1,.32-1.5.67.72-.42.05-1.49,1-1.85-.21-1,.47-1.59.17-3,.24,0,.47,0,.5-.17.09.19.79,1,.84.17.24.21.38.64.17.84.54.15.23-.55.5-.67.53,0,.07.94.83.67-.3,1.09-1.22,2.31-.33,3.54-.07.57-.65-.45-.5.34-.33,0-.21-.46-.67-.34.34-.84-.22-2,.17-2-.65-.16-.41-.58-.84-.67,0,.32-.09,1.3-.17,2-.38-.23-.63.43-.67,0Zm3.84,92h-.5c-.23.05-.14.42-.17.67-.48-.18-.55-.51-.33-1,.65,0,1,.1.67-.51.65.48.48.94,1,1.69a.84.84,0,0,1-.67-.84ZM55.63,95.57c-.29,0-.38.29-.33.67-.51-.25.14-.74,0-1.18a10.4,10.4,0,0,0,1.5,1c.4.49-.91-.39-.84.34-.34.05,0-.49.17-.51,0-.24-.5-.06-.5-.34Zm34.56-.67c.53-.14.52.27.84.34-.09-.53.39-.69-.17-.84,0,.35-.74,0-.67.51Zm9.52-.84c-1.3.2-.79-.15-1.17.84A21.36,21.36,0,0,0,95,94.56c0-.48,0-.92-.5-.84,0,.25.06.62-.17.67-.45.12.12-.79-.33-.67S94,95,93.36,95.06c.08-.35-.44-.39-1.17-.34-.11-.65,0-.6-.17-1-.71.2-.68,0-1.34-.17-.29.55-.71.48-1.17.34-.09.64-.47,1-1.34.84-.21.78.22,1.31-.67,1.52.52,2.28,4.23,1.67,6,1.18.39.25-.33.53.33.51,0-.2,0-.48.17-.51,1.56.35,3.74-.48,5.18-1.18-.76-.2-1.45.54-1.84.17.39-.28,1.14-.19,1.34-.67-.25,0-.15-.41-.17-.67a11.8,11.8,0,0,0,2.34-.84c-.36-.18-1.05.15-.67-.67-.31,0-.37.19-.67.17.21-.2.07-.64-.17-.84-.11.46,0,.38-.5.67.43,0,.59.31.84.51Zm.83-1.52h.67c-.31.2-.36.65-.67.84.71,0,0,.32-.17,0a1.11,1.11,0,0,0,.17-.84Zm.5-.34c.31,0,.57.86.83.34-.39,0,.06-.46.33-.34-.23.86,1-.36,1.17-.67-1.16.19-1.6.62-2.34.67Zm14.86-6.91c.29.48.21.39.67.51.25.88-.25.63,0,1.52a.78.78,0,0,0-.5-.17,11.27,11.27,0,0,1,1.17,2.53c-.39.35-.9,1.24-1.5.84a5.33,5.33,0,0,0,1-1.18c-.38-.28-.62-.44-.33-1-.39,0-.49.29-1,.17,0-.35.62-.16.67-.51-.42-.45-.23-.88-1.17-1a3.31,3.31,0,0,0,.67-.84c0-.44-.29.23-.67,0,.12-.5,1-.27,1-.84ZM36.44,77.53c.44.63-1.07.71-1.17,1.35-.39-.57,1-.79,1.17-1.35Zm77.46-4c-.15.3-.68.21-.5.84a.78.78,0,0,0-.5-.17,1.18,1.18,0,0,1,1-.67Zm-82.8-.84a4.74,4.74,0,0,1,2.84.34c-.5.7-1,.49-1.67.84,0-.39-.65-1-.84-.67-.35,0,.25-.46-.33-.51Zm-.84.67c0-.42-.26-.53-.5-.67.15-.46.52.23,1,0,0,.16-.2.13-.33.17,0,.44.06.84-.5.67.11.17.38.17.33.51q-.55,0-.5-.51a.78.78,0,0,1,.5-.17Zm87.48-7.75c-.17.11-.17.39-.5.34.15.3.31.59.83.51-.16.33.07,1.43.84,1.35-.11.27,0,1.49.5,1.69,0,.94-.6.54-.84,1-.26-.19-.41-.48-.67-.67.15-.46.37.39.67.34s.11-.33.33-.34c-.22-.24-.76-.42-.33-.84-.13-.43-.58.47-.83,0a.65.65,0,0,0,.17-1c-.13.15-.46.1-.5.34a.84.84,0,0,1-.17-1.18c.16,0,.13.21.17.34.23-.05.14-.42.17-.67-.3.09-.69.09-.83.34-.4,0,.19-.46.33-.51-.16-.47-.44.24-.67-.17v-.84c.19-.31,1.09.09.83-.67.26.19.41.48.67.67,0,.19-.17.09-.17,0ZM24.25,41.46c.14-.9.75-.4,1.34-.67v.51c-.34-.14-.75-.14-.33.17-.22.32-.55-.39-1,0Zm96.33-1.69c.43,0-.23.29,0,.67-.51-.12-.49.29-1,.17.27-.54.08-.91,0-1.52.46.06.89.59.5,1,.13-.15.46-.1.5-.34Zm-3.51.17c.15-.29,0-.9.5-.84a1.1,1.1,0,0,0-.17.84c.65,0,.67-.56,1.34-.51a1.26,1.26,0,0,1-1,1c0-.35-.45-.34-.67-.51ZM25.25,38.77a2.09,2.09,0,0,1-.5,1.69c-.42-.49.15-1.42.5-1.69Zm93-1.69a3.25,3.25,0,0,0-.5,2.36c.54-.08.57-.66.83-1-.2,0-.47,0-.5-.17.25-.33.7.29.84-.34-.92-.38.42-.69,0-.67-.05-.56-.52.66-.67,0,.09,0,.19-.14,0-.17Zm-2.67-.84c-.26.24-.13.88-.67.84-.28-.27.44-1-.33-.51-.34-.28.62-.66,1-.34ZM24.92,38.77c.17-.64.88-3.25,0-2-.07-1.08-.34-2-.84-1.85.11.89-.38,3.38.5,4.38.07-.41-.3-.37-.17-.84.24,0,.28.28.5.34Zm92-4.38c.23.06,0,.3-.17.34.08.78.27,1.16-.67,1.18.36-.14.39-.62.33-1.18.13-.14.46-.1.5-.34Zm-1.5.51c.59-.26.1.57.5.51,0-.22.56-.63.17-.67,0,.1,0,.2-.17.17-.39.05-.19-.49-.5-.51v.51Zm-2-4.38c-.82.24-.32,1.81-1.5,1.69.35-.71.67-1.46,1.5-1.69Zm4.34-.17c.35,0-.25.46.33.51,0,.29-.94.07-.83-.34.24,0,.47,0,.5-.17Zm-83.81-4c.75.51-.16,1.64.5,2.19-.39.23-.87-1.64-.5-2.19Zm5-.17c.46,0,.33.94.5,1.69-.6-.12-.18-1.28-.5-1.69ZM63.15,9.27a8.22,8.22,0,0,1-.33,2.53c.42-.66,1.23-2,.33-2.53Zm6.68.34c-.39-.25-.25-.41-.17-.84h.5c-.29.81.36.76-.33.84ZM39.94,13c0,.47.91,1.24,0,1.69-.85-.83-1.74-2.52-2.84-2.53a6.92,6.92,0,0,1,2.17,2c-.52-.08-.63.58-.17.17.46.05.29.52,0,.67-.25-.15-.71-.95-1-.51.69.17.5,1.26.33,1.52-.53-.15-.73-.51-1.34-.17-.36-.37-1.28-1.06-1.67-.84.44.73,1.49.85,1.67,1.85-.3-.31-.42.14-1,0-.24-.32-.37-.75-1-.67-.23.38.43.63,0,.67-.75.14-.83-.39-1.34-.51-.09.55.05.85.33,1-.25.47-.68-.29-.84.17a.46.46,0,0,1,.33.51c-.33,0-.71-.71-.83-.34.1.15.69.62.33.67s-.33-.23-.5-.34c-.43.54.64.88-.33,1-.35-.38-.56-.9-1.34-.84.35-.17-.29-1.13-.5-.67.56.15.08.31.17.84.42,0,.52.26.67.51-.7,0,0,.26,0,.51-.57.17-.5-.07-.83.34s.54.13.33.67-.62-.19-.67.17c.3.44.47,1.53-.67,1.35,0,.57.05,1.18-.33,1.35-.37-.29-.91-.15-.33.17-.42,0-.52-.26-.84-.34-.53.62.45,1.71-.33,2-.26-.42-.39-.86-1-.51-.05-.23-.24-.32-.17-.67-.53.15-.52-.27-.84-.34.92.87-.72,1.66.33,2,0-.42-.32-.53.17-.67.16.62.88.69,1,1.35a1.08,1.08,0,0,0-.84.17c.05-.44-.35-.44-.67-.51.16.82-.93-.06-.83.34.19,0,.26.19.33.34a1,1,0,0,0-1.17.51A7.41,7.41,0,0,1,25.25,27c-.4.54.26.32.33.51-.28,0-.09.47-.33.51h-.83c-.23.6-.27.33-.33,1,.1.23.64,0,.67.34-.5.61-.52,1-1.5.67.4.57.92.42.17,1a5,5,0,0,1,1.84.51c-.58-1.08,1-1.73.67-2.53.2.21.63.07.83-.17-.6-.05.61-.4.33-.84,1.35,1.07,2.19-1.1,3.34-1.35,0-.52.13-1.23.83-.84,0-.8.62-1.22,1.34-1.68-.11-.41-.34-.87.33-.84-.24.25-.13.53.33.51.09-.25-.19-.87.17-.84a1.79,1.79,0,0,1-.67,1.69c.23,0,.19.37.33.51a7.52,7.52,0,0,0,1.34-.51c-.29-.32-.52.23-.67-.34,0-.93,1.1-2.09.5-2.7.48-.18.8-.22,1.17.17-.1,0-.2,0-.17.17.84-.36.5-1,1.17-1.35,0,.37.71.07,1,.17.12-.52-.46-.32-.33-.84.56.58.3-.41.84-.34-.38.56.24,0,.67.34.4-.61.77-.71,1-1.18,0,.24.37.19.5.34.05-.33-.23-.33-.33-.51a10.75,10.75,0,0,0,1.17.34,2.44,2.44,0,0,0,.17-1.18c.17.18,1.19.35,1.34,0-.45.05-.68-1-.33-1.18.62,0-.12,1.42.67.84a2.17,2.17,0,0,1-.17-1c1,0,1.14.76,1.84,1-.45-.87.62-1.35,0-1.85.8,0,1.33-.67,2-.34-.07-.29.25-.43,0-.51-1.67.75-2.33-1.57-1.84-2.36.16.69.81-.16,1,.51-.14-.54-.14-.35.17-.67-.15,0-.56-.63-.17-.67.79.78,1,2.14,1.34,3.37.29.07.43-.25.5,0-.54.27,0,.86,0,1.35.5-.35.57-.09,1-.51-.77.11-.42-.92-.5-1.52-.62,0-.74-.49-1-.84.22-.41.62.19.67-.17-.47-.17,0-.78.17-.84-.48-.3-1-.54-1.17-1.18.66.24,1.42.36,1.5,1.18a3.59,3.59,0,0,0-.67-2.36c0,.68.32.78,0,1.18-.7-1.74-2.08-1.62-3.17-2.36a10.6,10.6,0,0,0,1.17,2.53.93.93,0,0,0-.67.17c-.18-.16-.05-.62-.5-.51s0,1.1-.67,1c-.15.54.55.23.5.67H42.95c-.23.38.43.63,0,.67-.11-.3-.76-.9-1-.51a1,1,0,0,1,0,1c-.26-.2-.45-.74-.83-.34.34-.34-.07-.33-.17-.67-.37.28-.91,0-1,.17ZM71,11.63c0-.23.88.06,1-.51-.08-.71-1-.54-1.17-1.18.3-.34.62,0,.33-.67.34,0,.33.45.5.67.28-.23,0-.62,0-1.35.63-.13.12.89.83.67-.25.49.24.77-.5.84.23.72.58.57.33,1.52-.61-.12-.93.41-1.34,0ZM47,7.75a2.86,2.86,0,0,1,1.17,1.85c-.55-.63-.34.11-1,.17-.19-1.22.3-1.07-.17-2Zm19,.51c-.29-1.28,1.58-.36,1.17-1-.38.54-1.51-.8-1.67,0,.84,0,.09.69.5,1ZM58.3,97.76c.23.05.32.24.67.17v-.67c-.42,0-.52.26-.67.51Zm7.18-3.54c0,.66-.57.77-1,1a1.87,1.87,0,0,0,1.34.34c-.27.12-.27-.79,0-.67.57.62,1-.44,1.5,0-.1-.35.27-1.17-.33-1-.08.28-1.21.4-1.5.34Zm-2.84.84c.42,0,.52-.26.67-.51-.75,0,.46-.59-.33-.84-.05.51-.52.6-.33,1.35ZM69,93.71c-.53.08-.38-.52-1-.34-.35.7.91.63,1,.34Zm-7.18.34h-.33c.34-.15-.13-1.29-.5-.67.31.09.42,1.25.84.67Zm-1.34,0a1,1,0,0,0,.17-.67c.1-.3.41.58.5.84-.34-.29-.33.13-.67-.17Zm8.68,0c-.2-.45.32-1,0-1,.57-.29,1,1,1.67,1.18-.55.64-1,0-1.67-.17Zm1-1.52c0-.53,0-1-.33-1.18a.82.82,0,0,0,.33,1.18ZM68.49,92c-.09-.3-.09-.7-.33-.84-.21.2-.38,1.1.33.84Zm9.18-1.68a2.78,2.78,0,0,0,.17-3.2c.06,1.52-.15,2-.17,3.2Zm-35.73-2.7a.36.36,0,1,0,0-.67v.67Zm63.61-3.54c.34-.64-.76-.67-.84-.34.32.07.42.36.84.34ZM40.11,85.79c.22-.45.89-.45,1-1,.39.53.89.12,1-.51-1,.13-.58-.52-1.17-1-.26,1.06-1,1.88-.84,2.53Zm1.34-1.85c.14-.48.27-1,1-.84,0,.64-.48.75-1,.84Zm-2,.67c.13-1-.71-1-.33-1.85-.62.65-.78.21-1.5.34v-.67a1.41,1.41,0,0,1-1,.17c.11-.65,0-.6.17-1,.75,0,1.07.49,1.5.84a.46.46,0,0,0,.5-.34c.9.42,1.11.5.67,1.69,0,.33.62-.26.84.17-.21.29-.34.66-.84.67Zm67.11-5.06c.09.24-.19.87.17.84a.46.46,0,0,0,0-.67,1,1,0,0,0,1-.51.78.78,0,0,1-.5-.17c-.14.25-.25.53-.67.51Zm-65.78-.17c.4.07.36-.31.84-.17v-.84h-1c0,.4.29.5.17,1ZM38.27,77c.32,0,.37.19.67.17-.57-.53.06-1.25-.33-1.85A15.73,15.73,0,0,0,38.27,77Zm3.67-1.52c0-.44-.06-.73-.5-.67,0,.44.06.72.5.67Zm-2.84-.34c.05.52.6,1.4,1,1-.13,0-.51-.56-.17-.51s.33.46.67.51c-.17-.79.58-.65.33-1.52-.63.07-1.37-.07-1.84.51Zm4,.51c.44.05.55-.23.5-.67-.93,0,.45-.84-.17-1-.11.4-.7,1.19-.5,1.35,0-.19.19-.26.33-.34a1,1,0,0,1-.17.67Zm-2-2.7c.63-.51,1.07.59,1.67.17-.23.61-.46,1.22-1.17,1.35.78-.77-.44-.68-.5-1.52Zm-.17-.17c-.45.1-1.33-.21-1.5.17.6.19,1.39.92,1.5-.17Zm65.61,5.9c-1.22-.23-.93.24-1.84.84-.65-.4-.2-.08-1,0-.2-.5.7-.72.83-.34,1.23-1.28-.53-2.25-.67-3.2.19,0,.3,0,.33-.17-.23-.6-.27-.33-.33-1-.3.15-.42.47-1,.34-.22-.84,1-.24,1.17-.67-.39-.59-1.23.45-1.17-.34-.36.2-.4.72-1.17.51.24-1.12,1.06-1.07,2-1.18,0,.3-.2.36-.17.67A.79.79,0,0,1,104,74c-.19-.44.51-.72-.17-.67.1-.69.7-.1.67-.67a1.79,1.79,0,0,0,1.5,1c-.06.22-.29.26-.33.51a1.36,1.36,0,0,1-1-.51,1,1,0,0,0,.84,1.52.8.8,0,0,0-.17.51c-.52.19-.41-.26-.67-.34s-.11.34-.33.34c.55.6.39.86.67,1.69.69-.13,1,.07,1.17.51.36,0,.08-.6.17-.84a1.55,1.55,0,0,0,1.34.17c-.41.63-1,.72-2.17.84.09.47,1.35-.24,1,.67ZM39.44,71.3c.3-.43,1.55.1,1.67-.51-.81.08-2.24-.51-1.67.51Zm71.12-4.72c.31,0,.35-.13.17-.34a2.72,2.72,0,0,0,2-1.35c-.67.62-1.84.72-2.17,1.69ZM37.44,61.69c0,.44.06.73.5.67-.07-.41.3-.37.17-.84a.93.93,0,0,0-.67.17Zm73-2a1,1,0,0,0,1-.51.8.8,0,0,0-1,.51Zm-76.8-.51c.2,0,.4.05.33.34.54-.07,1.44.22,1.5-.34-.1,0-.2,0-.17-.17s0-.2-.17-.17c0,.35-.45.34-.67.51v-.51c-.3.09-.69.09-.83.34Zm-.17-.34c-.36,0-.08-.6-.17-.84.39.11.7.3.67.84-.13-.12-.53-.71-.5,0Zm.33-1.18c1.06,0,1-.9,1.84-.34.07-.41-.3-.37-.17-.84a1.16,1.16,0,0,1-1,0c.65.94-.74.37-.67,1.18Zm1.17-2.53c.2,0,.1.19,0,.34a1.1,1.1,0,0,0,1.34-.17.54.54,0,0,1-.17-.84.78.78,0,0,1-.5-.17c-.13.59,0,.6-.67.84Zm-1.84-4c.53-.09.65.37,1,0v-.51c-.39-.19-.45,0-.84-.34a1.1,1.1,0,0,0-.17.84Zm3.17-1c.53.22.53-1.4,0-1.18v1.18Zm-5.51-.34c.51-.13.32.46.84.34-.24-.44,0-1.33-.67-1.35,0,.4-.29.5-.17,1Zm74.63,0a2.8,2.8,0,0,0,.5-3c.13.8-1.07,1.81-.5,3Zm-.84-3.54c.24-.22.79-.7.17-.84.05-.23.42-.14.67-.17,0,.1-.42.65,0,.67-.62,0,0,1.26-.67,1.18,0-.14.17-.17.17-.34s-.21-.13-.33-.17c.1-.15.2-.3,0-.34Zm-71.45-1c0,.43,0,.87.5.84-.23-.38.43-.63,0-.67-.09.49-.26-.26-.5-.17Zm-.83-.34c-.07.86-.93,1.62-.17,2.36-.36-1.13.83-.58.5-1.18-.2.48.19-1.06-.33-1.18Zm73.29-.34c-.1-.35.27-1.17-.33-1,0,.45-.09,1,.33,1Zm-77.13-.84c-.07.41.31.37.17.84h.67c0-.44-.09-1.12.33-.67,0-.42-.26-.53-.5-.67,0,.35-.45.34-.67.51Zm79-.34c.64.14.65-.36.83-.67-.21,0-.23-.22-.5-.17.12.52-.46.32-.33.84ZM39.94,38.94c.27.17.67.16.33.51.7-.05.33-1.58-.17-1.52,0,.4-.29.5-.17,1Zm-6.34-.84c0-.59-.28-1.84-.83-1.35.64.08.1,1.36.83,1.35Zm-6.34-.67c.5.2.72-.71.33-.84-.07.32-.48.31-.33.84Zm3.17.34c.23-.36-.22-1.15-.5-1.52-.31.43.29,1.08.5,1.52ZM28.76,39.1c-.48-.81.31-2.2-.67-2.87a5.32,5.32,0,0,0,.67,2.87Zm5.18-6.24a.45.45,0,0,0,.67,0,.46.46,0,0,0,.33.51v-1a.8.8,0,0,0-1,.51ZM45.62,31c-.64-.21,0-.69-.33-1.18.7.13.37.83.33,1.18Zm56.6-2.19c.38-.42,1.11.31,1.5-1-.85-.12-2.08.26-1.5,1Zm-2-1.85c.69.14.63-.49,1-.67a1.18,1.18,0,0,0-1,.67Zm4.51-.84c0-.21.05-.4.33-.34-.22-.42.37-.82,0-.84-.33.45-.67.75-.33,1.18Zm-1.5-.51c.62-.11.93-.52.83-1.35-.62.1-.69.77-.83,1.35ZM75.33,24.27c-.08-.33.92-.39.33-.67-.11.5-.36-.16-.67,0a.74.74,0,0,0,.33.67Zm1-.84a.7.7,0,0,1-.17-1.18,6.23,6.23,0,0,0,1.84.84c.08.53-.76.13-.83.51-.17-.28-.65-.84-.84-.17Zm-1,0a6.27,6.27,0,0,0,.33-1.18h-.5c-.17.17-.06.92.17,1.18Zm-2-1.35c.12.62-.29.72-.17,1.35.8-.26.41.14,1.17.17-.11-.85.61-1,0-1.52.13,0,.33,0,.33-.17-1-.17-.65.81-1.34.17Zm-23.87.17c.44,0,.72-.06.67-.51-.21,0-.23-.22-.5-.17,0,.32-.19.37-.17.67Zm18.7.34c-.1-.35.21-1.11-.17-1.18,0,.53-.48-.43-.5.17.05.22.11.86.67,1Zm2.34-.17c-.31-.52.15-.76-.17-1.18-.33-.05-.33.23-.5.34,0-.21,0-.4-.33-.34a1.9,1.9,0,0,0,1,1.18Zm9.68-1.35c0-.3.47-.84,0-1-.23.22-.6.89,0,1Zm4.67-1.69c-.05-.33.22-.33.33-.51-.54.21-.13-.55-.67-.34-.26.25-.24,1,.33.84Zm-34.22,0c.23-.21.26-.83-.17-.84-.05.39-.36.73.17.84ZM71,18.54c.69.13.86-.26,1.5-.17-.4,1.59,0,3-.83,4,.34,1.11,0,2.87-.17,4-.14-1.23-.66-2.14-.83-3.71.46,0,.34.28.67,0,.08-.24-.58-1.26.33-1.18-.07-.33-.76,0-.5-.67-.65-.17-1,.37-1.34,0,.12-.34.5-.69.83-.34.14-.48-.23-.44-.17-.84.29,0,.9.54.83-.17-.07-.25-.21.07-.5,0,.11-.65,0-.6.17-1Zm11,.67c.13-.88,1.23-.79,1.17-1.85.67.55.31.28,1.17.17,0,.2,0,.3.17.34-.14.38-1.28.71-.5,1a4.8,4.8,0,0,0-2,.34Zm9-1.35c0-.43.65-.24.67-.67-.48-.13-1.18.36-.67.67Zm-21.7,2.19c.33-.54.33-.32,0-.51s-.16.63-.5.67c-.55-.4-.12-.24-.83.17-.33-.39.58-.54-.5-.51v-.67c.43,0,.2.13.17.34.45.12.32-.35.5-.51a.17.17,0,0,0-.33,0c-.23-.05-.14-.42-.17-.67-1,.52-.67,2.36-1.67,2.87-.47-.23-.26-.84.17-1-.39-.07-1.29-.32-.83-1.18-.49.23-.33,1.13-.67,1.52-.41-1-1-1.57-.17-2.19,0-.2-.3-.14-.5-.17-.38.07,0,.89-.33,1-.23-.05-.14-.42-.17-.67-.29,0-.38.29-.33.67-.53-.37-.21-.53-.83-.17v-.67c-.44-.05-.13.65-.67.51-.06-.74.48-.87.5-1.52a20,20,0,0,1,8.35,1.35,2.34,2.34,0,0,0-.67,1.52.78.78,0,0,0-.5-.17Zm12.52-.84c-.91.13-.32-.61.17-.51-.27-.69.06-1-.17-1.52-.29-.1-1,.2-1-.17.27-.35,1.33.1,1.17-.67-.63-.13-.8.21-1.34.17.4.82-1.11.55-.5,1,.1-.2.63.11,1-.17.05.4.26.63.17,1.18-.3.09-.69.09-.83.34.25,0,.62-.06.67.17s.62.57.67.17Zm-2.5-2c-.44.46-.59-.12-1-.17a.81.81,0,0,0-.5,1c1.43.59.19,2.8.67,3.37a.83.83,0,0,1,.33-.84c.32.61-.26.85-.17,1.69.67-.69.68-1.37.67-2.7.54,0,.8.4.83-.34-.71.15-.84-.28-1-.67a.93.93,0,0,0,.67-.17c-.32-.64-.25-.64,0-1.35-.59-.63-.78-1.62-1.84-1.35.15.8.9,1,1.34,1.52ZM93.7,15.68a1.11,1.11,0,0,0-.17.84c.37-.3,1.11-.23,1-1a.78.78,0,0,1-.5-.17c.09.8.21.67-.33.34Zm-13,.34c.05-.4.58-.31.5-.84h-.67c.09.24-.2.87.17.84Zm-1.34-.34c-.47,0-.48-.41-.5-.84.29.15.58.31.5.84Zm-20.53-.34c.71,0,1.56.27,2-.34a2,2,0,0,0-2,.34ZM52,16.52c0-.18.27-.4.33-.17-.09.3.2,1-.17,1,0-.53-.61-1.29-.83-1,.12.94,1.51,1.37.5,2a1.41,1.41,0,0,0,1-.17c-.37-1.13.45-2.55-.33-3.37-.09.83-.09-.17-.33-.17,0,.56-.64,1.37-.17,1.85Zm27.38-1.69c-.1-.4.21-1.22-.17-1.35,0,.5-.49,1.19.17,1.35ZM74.83,14c.2,0,.4.05.33.34a5,5,0,0,0-2.84,1,11.38,11.38,0,0,0,3.84-1.18c-.64.14-.2-.81-.84-.67,0,.32-.55.12-.5.51Zm-22.54-.34c.38,0,.63,0,.67-.34.48.19.52.82.67,1.35a1,1,0,0,1-1.34-1Zm26-1.35a.63.63,0,0,0-.67-.67c-.21.66.46.44.67.67Zm2,.17c.71.05.17-.9.17-1.18a9.78,9.78,0,0,0-1.17.51c.47.17,0,.72,0,1,.59,0,1-.47.5-.67.22,0,.15-.3.33-.34a1,1,0,0,0,.17.67ZM78.84,11c-.31,0-.1-.57-.33-.67H78c.1.3.55,1.11.83.67ZM75.33,17c-.66,0-2,.18-1.84.51.1,0,.64-.42.67,0s-.93,0-1,.34c.42,0,2.06,0,2.17-.84ZM33.1,59.33c.1-.66-.25-.88-.5-1.18-.37.41-.53,1.37.5,1.18Zm4.67,16c0-.44-.06-.72-.5-.67-.3.29.05.66.5.67ZM59.14,94.05c-.32-.32-.3.1-.84,0-.17-.94.26-.34.5-.67-.38-.09-1.1-.57-1.17,0,.09.57,1.27,1.81,1.5.67Zm52.59-55.28c-.6,0-.61.51-1.17.51a.74.74,0,0,0,.33.67c0-.26.37-.12.5,0a3.65,3.65,0,0,1,.33-1.18ZM81.84,12c.15.56-.43,1.05.17.67-.74.85.17,1.85-1.17,2.36.15-.54-.55-.23-.5-.67.06-1.52,1.33-1.8,1.17-3.54-.37-.27-.93.55-1.17-.34,1-.27-.82-1.35-.17-1.85.14.59.86.59,1.34.84-.16-1.1-.38-1.27.17-2-.18-.44-.6-.63-.67-1.18-.74.47-.74-.23-1.34-.34-.13.86-.28,2.47-.84,2.36,0,.3.47.84,0,1-.23-.41-.33-.11-.5-.34A2,2,0,0,0,78,7.42c-.23,2-.7,5-.67,6.24a.85.85,0,0,1,.5-.51c.36.48,1.22.46,1,1.52-.29.15-.83.06-1,.34.36,0,.53.14.5.51-.24,0-.28-.28-.5-.34,0,1.57-.77,2.91-.17,4.89a.75.75,0,0,1,.33-.67c.21.94-.37,1.09-1,1.18-.15-.25-.13-.65-.67-.51.35,1-2.67.91-3,.34-.6.32.1.78-.17,1l-.5-.51c.33-.29.26-1,1-.84-.1-.3.2-1-.17-1-.29.43.19.59-.17.84-1.36-2.8,3.76-1.39,2.17-3.2.61-.44,1.67-.32,1.84-.51-1,.13.12-1-.83-1a.46.46,0,0,0,.5-.34c-.54-.64.33-2.11-.33-2.87,0-.34.33-.45.5-.67-.41.22-.69-.49-.84,0,.49.19-.28.48-.33.67-.18-.16-.05-.62-.5-.51a1.77,1.77,0,0,1-1.84.51c-.29.77-1.26.86-2.17,1V12.3h-.67c-.14.54.26.52.33.84a14.22,14.22,0,0,0-2.34.51,3.31,3.31,0,0,0-.67-.84.72.72,0,0,0,0-.84c0,.25-.4.15-.67.17.4.56-.27,1.16.17,1.69a5.3,5.3,0,0,1-2.67.34c-.5-.18.29-.12-.33,0-2.18.44-1,.33-.33.34-.13,0-.33,0-.33-.17.24.09.86-.2.83.17-.13,0-.19.14-.17.34-1.07.34-1.45-.25-2.17-.67,0,.33.23.33.33.51a17.75,17.75,0,0,1-3.34-.34c-.9,0-1.93.8-2.34-.17-.05.2-.52.79-.67.34.3,0,.39-.17.33-.51-1,0-.71,1-1.67.51-.2.58-.82.74-1.34,1,0-.88.05-2.34.67-2-.39-.46.3-1-.17-1.35-.63,1-.75-.52-1,.84-.23-.1,0-.65-.33-.67,0,.25.06.62-.17.67-.35-1,.46-3.16,0-4,0,.38,0,.63-.33.67,0-.45.09-1-.33-1-.4,3.24-.45,5.8-1.5,8.6.2,0,.4.05.33.34-.12,1.26-1.3.24-1.17,1.35-.22-.58-.57-1.29-.33-1.85-.85-.48-1.1.27-1.84-.51a4.35,4.35,0,0,0,.5,2c1.1-.54.46,1.19,1.34,1.52-.25.39.06.73-.17.84-.48-.62-.64-2.13-1.33-2-.31-.73-1.12-3.36-1.17-2.7,1.06,2.91,1.67,5.8,3,8.09-.17.22-.16.63-.5.67.05-.39-.48-.19-.5-.51.12-.63.24-1.08-.33-1.35-.25.2-.2.7-.67.67s-.53-.59-.84-.84c0,1.27,1.36,1.18,1.67,1.69-.82.73.43,2.21-1,2.36,0,0-.23-.3-.5.17.56-.7-1.13-.82-.33-1.69.29.1,0,.8.33.84.18-.92,0-1.7-.83-2-.23.38.43.63,0,.67-.05-.56-1.55-1.8-.67-1.69-.06-.6-.44-.44-.83-.34a17.8,17.8,0,0,1,1.67,4.89c-.37-.13-.22-.79-.67-.84,0,.39.57,1.91,0,1.35-.09.6.59.41.5,1-.7.94-1.16-.87-1.67,0a1.34,1.34,0,0,0-1-.84c.17.84-.34.72-.5.84.31.23-.28.84-.17,1-.29-.22-.21-.8-.67-.84-1,.59.84,2.37-.33,2.87.27-.36-.43-.82-.17-1.68-.93.4-1.37-.07-1.84.34,0-.17-.14-.2-.17-.34.06-.44.53-.47.33-1.18-.84.15-.54-1.58-.67-1.18-.23.7,0,1.86-.33,2.87.37.39.33,1.19.67.34.46.71.06,2.3.83,2.7-1,.36-1-1.54-1.84-1.85-.57.07.25.92-.17.84-.85-.66-.27-2.76-1.5-3,.11.48.84,2.67-.17,2.19-.54,1.27.54,2.08.67,3.2-.84-.12.22.62-.33.67,0-.82-.69-1.58-.33-2.19-.22-.41-.62.19-.67-.17a1,1,0,0,1,.17-.67.74.74,0,0,1-.67-.34c.2-.65.07-2.39-.67-2,.13.4.93,1.34,0,1.35,0-.75-.34-1.23-.33-2H34.1c-.18.74.56.55.5,1.18-.23.1,0,.65-.33.67s-.14-.53-.67-.34c-.59,1.09.57,1.68.33,2.53.47,0,.7.31,1.17.34.07-.29-.25-.43,0-.51.3.35,0,1.15-.17,1.52-.1-.88-.22.36-.67.17,0-.38,0-.63-.33-.67-.12.6-.41.84-.83.34-.33.12.1,1-.5.84-.28-.53.62-.69.17-.84-.35.29-.86-.47-1.34.17-.62-.36.14-1.23-.67-1.52-.06.73.47,1.61.17,2.36-.2-1.14-1.13-2.14-.5-2.87,0,.2,0,.48.17.51.06-.31.27-.57,0-.84-.69.74-.59-.74-.83-1v.51c-.24.07-.28.2-.5,0,.14.85,1,2.42.17,3.2a3.25,3.25,0,0,1,0-1.85c-1,.72-.46-1-.83-.67,0,.72-.27,1-.83.67a1.85,1.85,0,0,1-.33,1.69c-.32-.32.18-.68.17-1.18-.86.15-.66,1.35-1.34,1.69,0-.26-.46-.55-.33,0,.38.24,1,.25,1,.84-1,.11-.7.17-1.17.84.39.33.19,0,.5-.17-.23.59.47,1.08,0,1.35,0-.21,0-.4-.33-.34v.34c-.1,0-.2,0-.17.17.54.57,1.12.07,1.17,1,.57.12.28-.62.67-.67.36.47.39.58.67,0-.18.75.28.84.33,1.35-.44.12-.51.61-1,.67.07-.41-.31-.37-.17-.84h-.67a1.11,1.11,0,0,0-.17.84,1.68,1.68,0,0,1,1.34.34c-.39,1.17-1,1.11-1.67,2,.05-.33-.22-.33-.33-.51a.17.17,0,0,0,0-.34c-.48.65.57,1-.17,1.35.44.46.58-.12,1-.17.15.54-.43.35-.5.67.22,0,.5.69.67.17-.13,0-.33,0-.33-.17.76-.32.23.67.83.51-.11-.53,0-.69-.17-.84,0,.09-.14.19-.17,0v-.34c.4-.07.36.31.83.17-.44.44.52.33.67.67.28-1.22,1.71,0,1.84.17.44-.22.18-.89.33-1,.21.91.24,1.25.67,1.69,0,.28-.46.09-.5.34.48,0,1,.8.33,1-.21-.4-.32-.91-.83-1,.05.79.5,1.18.5,2a.94.94,0,0,0-.67.17c-.29-.33-.18-1.22.17-.5-.52-.67-.66-1.15-1.17-1.52.62.12,0-.88-.17-1-.43,1.83,1.4,2.71,1.34,4.72.38.23.63-.43.67,0-.28.6-.34.74.17,1.18.27-1,1.48-.92,1.5.17a4.26,4.26,0,0,0-1.84,1.18c.38.48,1.72-.5,2,.34a1.2,1.2,0,0,1,.33-.51c.64.08,1,.47,1.5.67-.79-.16-1.32.71-1.67,0-.48.77-1.46.68-2.17.51a.79.79,0,0,1-.17.51c.6.47,1.47-.48,1.84-.17-.19.54-1.34.1-1.17,1,1.3-.39,3-.58,3,.67-1.5.51-3.39.62-4.67,1.35,1,.13,2.65-.94,2.5.34.52.08.65-.24,1-.34,0,.22.21.23.17.51-.61.06-.8.54-1.67.34.14-.32.62-.88,0-1,.2.71-.27.74-.33,1.18.26.36.37.86.84,1-.08.65-1.19.26-1.34.84a6.19,6.19,0,0,1,1.84-.34c-.08.53.3.6.17,1.18,1-.14,0-.67,0-1.18.25-.09.42-.25.67-.34-.12.42-.16.69.17,1,0-.7.11,0,.33,0,.37-.49.93-.83,1.34-.51-.7.35-.37.44,0,.51-.39.5-1.18.82-1.67.34.17.58-.07.51.33.84a1.41,1.41,0,0,1-1-.17c.3,1.29.37-.08,1.34.67-.89-.12-.83.74-1.5.84.47.37.25,1.43,0,2.19.3,0,.84-.17.67.34.39-.06.72-.17.83-.51-.22-.41-.5.3-.67-.17.6-.24.11-1.57.84-1.69-.3,1,.68.77.67,1.52-.24.07-.28.2-.5,0,0,.33.22.33.33.51-.67,0-.47.82-.33,1.18,0-1,.91-.28,1.34-1,.13.59-.25.65-.17,1.18h.5a1.86,1.86,0,0,1,.17-1.69c-1,.17-1.46-1.63-.84-2,.22.46.08.6,0,1.35.57-.07.21-.46.84-.17a1,1,0,0,1,.5-1.18c0,.1,0,.2.17.17-.87.48.49,1.26-.5,1.52a.46.46,0,0,1,.33.51.46.46,0,0,0-.5.34c.89.21.62-1.73,1.34-.67-.23-.53.41-1,0-1.18.15.35-.55.64-.5.34,0-.57.66-.46,1-.67,0,.48.56.33.33,1-.32,0-.37.19-.67.17-.26.6.57.1.5.51-.8-.25-.42.71-.5,1.18.42.19,1.25,0,1,.84.57,0,0-.57.67-.67-.17.91.64.81.67,1.52-1.31-.13-.92,1-2.34,1,.26,0,.58,0,.5.34H37.1c.91.66,1,1.37,1.67,2-.34.34-.33-.08-.67-.17.48,1.22-1.25.2-1.17,1,.51.12.49-.29,1-.17-.23.1,0,.65-.33.67-.63.08-1-.48-1.5-.34a1,1,0,0,0,.17.67c-.47,0-.33.57-1,.34,0,.63.19.48,0,1,.69.08-.16-.45.5-.51.18.32,0,1,.5,1.35,0-.3.29-.38.67-.34.2.44.11.64-.17,1.18a13,13,0,0,1,1,1c-.07.44-.5.51-.5,1,.51.08.51.78.84.17-.24.75.56.44.5,1-.17,0-.2.14-.33.17,0-.15-.45-.74-.5-.34.32.07.13.65.67.51A.92.92,0,0,0,38.61,78c.29-.07.43.25.5,0a.46.46,0,0,1-.33-.51c.54.67.56-.05,1.17-.17-.06.24-.2.28,0,.51.62.18.48-.42,1-.34,0,.17.14.2.17.34-.36.2-.91.21-1,.67a5.85,5.85,0,0,1,.33.67c-1.16-.13-.11,1-.83,1.18,0-.32-.19-.37-.17-.67-.44.23-1.25.09-1.34.67.31,0,.37-.19.67-.17.6,1.52-1.52,1.18-1.84.34a1.63,1.63,0,0,1-1.5,1.35.8.8,0,0,1,.17-.51c-1-.3-.77.57-1.5.51-.05-.39.48-.19.5-.51-.83-.3-1.26-1.33-.84-1.85-.25-.09-.42-.25-.67-.34,0,.8-.44,2.2.5,1.85.2,1-.45,1.82-1.17,1.35.59.48.15,1,.83,1.35.34-1.23,1.45.61,2.17,0a3.17,3.17,0,0,1-.17-1.35.93.93,0,0,0,.67-.17c0,.31-.86.57-.33.84.39-.17.4-.72.67-1,.25.57-.12.73.33,1-.84-.33-.34.86-.17.34-.1,0-.2,0-.17-.17.56.1.57.49,1.17.17.51.65.68.94,1.34.34.07.74-.2,1.14-.83,1.18,0-.38,0-.63-.33-.67-.19.89-.56-.42-.67,0,.49.56.09,2.12.83.67-.08.64.59.53.84.84.41.47-.41,1,0,1.35.29-.26.22-.9.5-1.18a3.21,3.21,0,0,0,.67,1c0-.53-.45-1,.33-1,.09.25-.19.87.17.84,0-.35.44-.34.67-.51.16.92-.25,1.37.5,1.69a.46.46,0,0,1-.5.34c.14-.64-.36-.65-.67-.84-.25.2-.26.64-.5.84,0-.23-.43-.18-.33.17.83.28.53-.59,1.17-.51,0,.48-.3.7-.33,1.18.28-.6,1.34.54,1.5-.67-.13.69.26.87.17,1.52.65-.35.72.71,1,.17-.19-.36-.06-.49-.33-1,1.74-.32,1.11,1,2.34.67.2.5,0,.57-.17,1,.42,0,.41-.38.67-.51-.23-.7-.26-.7-.67-1,.26,0,.58,0,.5-.34-.57,0-.72-.39-1-.67a.63.63,0,0,1-.67.67c0-.59-.41-.71-.5-1.18.7-.19.1-1.7,1.17-1.52,0,.2,0,.48.17.51.43-.77.31-.65,1.34-.34a.83.83,0,0,0-.33-.84c0,.2-.26.18-.5.17.07-.32.48-.3.33-.84-1.16.18-.18-.81-1-.84.69.19.65-.35,1.17-.34a.83.83,0,0,1,0,1c1.21-.15,1.53.59,2,1.18-.84-.23-.26,1-1.17.67.19-.27.87-.9.33-1.35,0,.18-.27.41-.33.17.1,0,.2,0,.17-.17-.52.33-.33.8-.33,1.35-.29.32-.52-.23-.67.34.85-.19.15,1.2,1,1,.09-.3.09-.7.33-.84.53.41-.18.51.5,1-.94.09-.69.34-1.17.84.62.45,2.76.58,2.34,2.19-.13-.37-.78-.22-.83-.67.17-.07.59-.65,0-.51.05.33-.21.91-1.17.67,0-.2,0-.48-.17-.51-.12.42-.45-.31-.83-.17.54.77,1.45,1.08,2,2.19a.73.73,0,0,0-.67.34h1c.51-.3-.46-.52,0-.67.85,0,.6.74,1,.84.33-.18-.36-1.64.17-2a1.8,1.8,0,0,1,.33,2.19c.93.79,3.63-.27,3,1.35a1.16,1.16,0,0,0,1,0c0-.42-.8-1-.5-1.18.59.44,1.15,1.26,2,1.85.4-.5-.24-.71,0-.84.61.34,1.28.61,1.5,1.35.23-.21.07-.82.5-.84s.33.45.5.67c.87-.45,1.5,0,2.34.34.09-.49-.83-.83-.33-1.18a1.5,1.5,0,0,1,.67.67c-.46,0,.19.62-.17,1.35-.92-.07-.59.39-1.34.67-.16-.14-.36-1.07,0-1.18s.28.28.5.34c0-.32-.19-.37-.17-.67a4.49,4.49,0,0,1-1.67,0c.17.73,1.57,1.11.83,2.19-.41-.71-.54.32-1-.34-.33.12.1,1-.5.84-.11-.62.36-.65.33-1.18-.47-.17-1.16.26-.67.51,0-.13,0-.33.17-.34.08.53-.45.45-.5.84.94-.17.59,1,1.34,1,0-.91.67-.08.83-.84.56.39,1.11.79,1.67,1.18.13-.49.82-.4,1-.84-.15,0-.85-.34-.33-.51.47.94.92-.08,1.84-.34-.07.47.62.16.67.51-.31,0-.35.13-.17.34.87-.41-.42-.63,0-1.18-1,.23-.25-.08-.5-.67-1.3.41-.17,1.24-2.17.84.51-.85-.15-1.92.33-3.37.05.68.75.71.83,1.35.28-.37,0-.91.17-1h.33c0,.32-.19.37-.17.67.77.09.69.65,1.5.34.26.37.63,1.49,1.17,1-.2,0-.4-.05-.33-.34.51.53.16-.55.67-.51,0,.22.29.15.33.34.07.4-.76-.09-.5.51.5.12,1.3-.4,2,.17,0-.32-.19-.37-.17-.67.81-.14.2-.3,1.17-.51q0,.55.5.51c-.56-.67.17-.74-.33-1.35.22-.22.5-.1.67.17-.06.49.67,1.49,1.34,1.35-.42-.19-.48-.75-.5-1.35.21,0,.23-.22.5-.17-.37.37.29.56.33,1,.42,0,.52-.32.83,0a2.42,2.42,0,0,1,.67-1.85c.07-1.13-.76-1.51-.33-2.53-.43-.29-.58.19-.83-.17,0-1.3,1.51-1.06,1.67-2.19.67.37-.23,1.27.5,1.52.41-.22-.18-.63.17-.67a3.11,3.11,0,0,1,.17,1.85c.64-1,.4-1.82.67-3.2.32.32.3-.1.83,0,.57,1.44.4,3.15.67,4.55A37.2,37.2,0,0,1,76,88.32c.49,1.32.16,3.44.33,4.21.17-.5,0-1.35.5-1.52A6.5,6.5,0,0,1,77,92.87c.73-.33,0-2.14,1.17-2-.22.22,0,.89.33,1a1.42,1.42,0,0,1,.33-1.69c.33.31-.25,1.54.5,1-.32-.41,0-1.59.33-1.52.14,0-.26,2,.17.51.25-.59-.13-1.82.5-2-.27.26-.07.79.17,1-.34-.93.82-1.47,1-.84s-.36.54-.83.51a1.11,1.11,0,0,1-.17.84c1.29.21-.27,1.38,1.17,1.52-.13.48-.56.67-.67,1.18.29.27,1,.08,1.17.51-.49,0-.62.39-.83.67,1.39-.52,3.13-.46,3.84-1.35,1.44.59,2.71-1.2,3.67,0,.29-.28-.15-.56,0-1.18a14,14,0,0,1,2.17.17c.24-1,2.37-.07,2.34-.51s-.73-.16-.83-.51c1.1-.24,1.75,1.14.67,1.18a1.08,1.08,0,0,1,.84.17c.18-.43-.51-.8,0-1,0,.13.14.2.33.17-.2.77.46.66.33,1.35.67-.17.55-.76,1,0-.12-.52.17-.61.17-1-.77-.66-1.61-.29-2.17-1,.7.4,1,.16,2,.34,0-.87,1-.3,1.34-.67-.51-.21.24-.64-.17-.84,2.12-.57,4.31-2.09,7.35-1.85,0-.37.42-.36.84-.34-.14-1,1.64-.15,1.5-1.18-.43,0-1.33.14-.83-.34-1.27.43-2.88.43-3.84,1.52-.54-.58-3.42.8-4.51.67a57.5,57.5,0,0,1,8-2.7c-.31-.55.84-.52,1.17-.67.18-.63-.63-.27-.5-.84,1.51.09,1-.69,2-.67-.28-.67.16-1,0-1.52-.65.1-.69.14-1.17-.17,0,.13,0,.33-.17.34-.12.52.57.21.33.84a1.73,1.73,0,0,1-1.5-.17c.22-1.13,1.65-1,2.5-1.52,0,.59.45,0,.5.34-.58.41.59.79-.17,1,.68.4.22,1.4,1.34,1.69-.45,0-1,.7-1.34.17.45.12.32-.35.5-.51a2.13,2.13,0,0,0-2.17.84c.56.16,1.14-.52,1.5,0-.18.12-1.27.15-.83.34a4.44,4.44,0,0,0,2.34-.67c0,.22.21.23.17.51-.3,0-.84-.17-.67.34.73-.15.8-.08.33.34.7.14.79-.33,1.34-.34,0-.3-.17-.84.33-.67.11.37-.47.54.17.51.35-.61.94.06,1.17-.67a2.55,2.55,0,0,0,1.17,1c-.38.4-1.42.14-1.67.67.56.11,1.55-.22,1.84.17-.05.23-.24.32-.17.67.3-.09.69-.09.83-.34a.81.81,0,0,1-.5-1c1.34.06,1.48-1.09,2.34-1.52a8.8,8.8,0,0,0-2,.34c.26-.7,1.78-1,1.5-1.68-.52.32-1.29,1.28-1.84,1,.43-.24.95-.39,1-1-.29-.07-.43.25-.5,0,.41-.31.89-.57,1.34-.84-1.24-.08-1.46.89-2.5,1,.12-.46-.33-.34-.33-.67.93-.35,1.47-1.1,2.34-1.52-1.11-.16-2,.76-2.67.51.31-1.09,1.67-1.12,2-2.19-.59.32-.81-.16-1.34-.34-.21-.67,1-.73.5-1.18a4.51,4.51,0,0,1-1.34.84c0-.33-.23-.33-.33-.51.12-.94,1-1.11,1.34-1.85-.6,0-.61.51-1.17.51-.48-.26.35-.79-.17-1-.1.15-.35,1-.5.51.11-.79.8-1,1.17-1.52-.51-.12-.61.17-1,.17.1-.88-.8-.76-1.17-1.18.39-.25.37-.42.67,0,.32-.3.67-1.77.17-1.85-.53,1.21-1.61.92-2.34,2,0-.22-.29-.15-.33-.34.7-.13.77-.91,1-1.52.24.07.28.2.5,0-.18-.43.51-.8,0-1,0,.43-.31.59-.5.84-.14-1.63,1.58-.87,1.17-2-.08.3-.18-.07-.33-.17a2.31,2.31,0,0,0-.5.84c-.4-.49.55-1.55,1-1.18,0-.89.24-.73.84-.84.15-.79-.43.23-.5-.34.26-.07.14-.53.67-.34.13.58-.19.71-.33,1,.51-.17,1-.28.67-.84.72-.14,1.45.23,1.67-.67.33-.09.38.93.67.34-.22-.12.08-.45-.17-.84.26,0,.78-.65,1-.17-.19.25-.48.41-.5.84.16.29.55.34.67.67,0,.57-.7.53-1.17.67.23,1.31,1.55-.34,2,.17.2-.71-.7-.3-.83-.67.58-.6-.42-1.34.17-1.85h.5a3.47,3.47,0,0,1,.5-1c-.89.35-1.28.86-2.17.51.07-.5.79-.33,1-.67-.42-.49-2.06.27-2.67.67.38-1,2.71-1,2.5-2-.38.62-1.65,1.19-2.34.51,1-.14,1.28-1,2.17-1.18-.19,0-.18-.27-.17-.51-.57,0-.8.43-1.5.34a10.1,10.1,0,0,1,.67-1.69c-.65.21-.52.13-.67-.17a.73.73,0,0,1-.67.34c.07-.32.36-.42.33-.84A4.61,4.61,0,0,0,111.23,61c-.13-1.54,1.87-1.81,1.67-2.87.12.27-.79.27-.67,0,.43,0,.27-.63.5-.84-.85.53-.9.87-1.84,1.18,0-.25.72-.71.33-.84a.46.46,0,0,1-.5.34c-.28.53.62.69.17.84-1-.86.52-1.58.83-2.19-.36-.11-.53.48-.5-.17a11.21,11.21,0,0,0-2.17,1c.38-.75,2-1.77,1-2.87,0,.71-.09.41-.33.17a2.78,2.78,0,0,1-1.67,1.52c.49-1,1.68-1.73.83-2.7,0,.15-.45.74-.5.34.14-.85.45-1.4,0-2.19-.2.54.22.74-.67.67-.25.49.19.63-.33.84-1.13-.77,1.24-1.46.67-2.19-.11.57-.8.54-1.5.51.09-.65-.43-.69-.5-1.18,1.08-1.72.53-5.08,2-6.4.16.78-.22,1-.33,1.52.78.53-.57,3.53-.33,4.55.58-1.78,1-3.68,1.67-5.39,0,1.41-1,3-.33,4,.6-1.32.06-2.76.84-3.88.31.52-.42,2.46.17,2.7.37-1.77-.13-4.3.5-5.39.24,1.17,0,2.8.33,3.88.39-2.19-.41-5.58,1.84-5.9-.19,0-.18-.27-.17-.51-.29-.07-.43.25-.5,0,.3-.08-.07-.18-.17-.34,1.1.37,1-1.36,2.34-.84,0-.73.82-.63,1-1.18a13.83,13.83,0,0,1-1.5.34c.13,0,.19.14.17.34-1-.35-.95,1.28-1.67.67.57-1.48,1.5-1.67,2.5-2.53,0-.53-.44-.56-.33-1.18.25,0,.62.06.67-.17-.28,0-.09-.47-.33-.51-.43.66-.44,0-.67-.34a1.44,1.44,0,0,0-.17,1c-.31,0-.37.19-.67.17.34-.85-.65-1.24-.17-1.69v.34c.54.15.23-.56.67-.51.07.29-.25.43,0,.51.5-.29,1.2-.36,1.34-1-.44.18-.57.46-1,0,.14-.42.46-.66.5-1.18-.55,0-.64.48-1.34.34a1.69,1.69,0,0,1-1.17,1.52c.05-.39-.48-.19-.5-.51s.55-.12.5-.51c-1,0,.41-.84.17-1.68-1.2.4-.62,1.58-1.67,2,.16-1.52.31-1.1,1.17-2.53-.58.3-.68-.43-1.34-.5.23-.39.29-.94,1-.84.16.68.54.64.5,1.18.12-.33.45-.45.83-.51-.18.17-.63.92-.17,1.18.08-.7.76-.81,1-1.35-.68,0-.3-1.16-.84-1.35-.13.54-.86.48-1.17.84,0-.54-.38-.74-.33-1.35-.73.08-.36-.52-1-.17,0-.84-.17-.83,0-1.52-.39.05-.72.36-.83-.17a3,3,0,0,0-.17-1.69,5,5,0,0,0-.17,2.53,1.5,1.5,0,0,1-.67.67c-.41-.33.7-1.41-.17-1.69a1.72,1.72,0,0,1-.84,1c.38-.74-.19-1.69.33-2,0,.18.21.13.17-.17-1-.28-1.33.11-1.67.84-.1-.63-.5-1,0-1.35-1.13-.32.7-.48-.33-1.35-.27.74-.52,1.5-1.67,1.35a1.11,1.11,0,0,0-.17-.84h.67c-.1-.35.2-1.11-.17-1.18-.32.42.25.69-.17,1-.41,0-.52-.32-.83,0,.19-.53-.26-.41-.33-.67.09-.47.24-.88.33-1.35-1.21.18-.9,1.9-2,2.19.46-.55,0-2.1.67-1.35.11-.62.49-.76,0-1.18-.47-.23-.42.89-.67.34A4.77,4.77,0,0,0,101,18c.07.66-.61.89-.83.34.08.75-.23.84,0,1.35-.66-.22-.34.55-1,.34.13-.7-.07-1-.5-1.18a1.19,1.19,0,0,1,.33-.51,1.19,1.19,0,0,0,.33.51c.5-.44-.76-.64-.17-1.18-.58,0-1.28-.34-1-.67-.65.17-1.09.49-1.5.17q.55,0,.5-.51c-.43-.55-1.06.09-1.34-.67,0,.44-.06.72-.5.67v-1c-.84-.21-1.64-.61-1.5-1.35a7.32,7.32,0,0,0-4.51,2.53,1.08,1.08,0,0,1-.84-.17c0,.55.39.81-.33.84.22-.22.22-.63-.17-.67,0,.25.06.62-.17.67-.2-.52-.42,0-.67-.34.74-.19-.42-.77-.17-1.18-.37.56-.61,0-.67.84-.59-.19-.5-1.07-.83-1.52-.31.32-.31.13-.17.67a.93.93,0,0,0-.67.17c-.23-.38.43-.63,0-.67A6,6,0,0,0,82.18,18c.18-.56.06-1.46.17-2-.2,0-.47,0-.5-.17.7-.64,0-.67.67-1.35,0-.44-.65-.13-.5-.67.24.07.28.2.5,0-.48-.7.09-1.43-.67-1.85ZM52.29,4.89c.44.44-.15,1.81.67,2.53.05.39-.48.19-.5.51a.83.83,0,0,1-.33-.84.78.78,0,0,0,.5.17,2.82,2.82,0,0,1-.33-2.36ZM70,3.54c-.06.21-1-.07-.83-.67-.73-.38-.8.73-1.5,0-.09.53-.69.54-.5,1.35.72.43.09,1.11.33,2.19,1.18-.42.05-2.15,1-2.7-.18.87.21,1,.5,1-.54.19-.47,1.52.17,1.52-.44.18-.46,2,.17,1.69-.19,0,.13-.87.5-.84-.06.63,0,1.15.5,1.18-.22-.9.71-1.52.17-2.19.12,1-.68.29-.84.84-.26-.77.12-1.69-.17-2.7.44.29.82-.91.5-.67ZM56,.67c-.61.23.06,1.48-.83,1-.08.53.58.45.17.84-.16-.1-.25-.47-.33-.17-.47-.17,0-.78.17-.84-.31-.51-.79.19-1.34,0V.84c.33-.28.21,0,.67,0,.07-.41-.3-.37-.17-.84.66.54,2.29.3,3,1.18a.47.47,0,0,0,.33-.51c.84.57,2.16-.06,3,.67a17.11,17.11,0,0,0,0,2.19h-.5c.06.44.53.47.33,1.18-.45.12-.32-.35-.5-.51-.18.34-.07.62-.33,1.18-.56-.34-.14-1.59-.67-2,.29-.41,1-.2.83-1.35-.48.36-1-.31-1.17.34-.28-.39-.44-.63-1-.34-.15-1-1.22-.13-1.17-1.18-.24.19-.41.18-.5-.17ZM86.19,98.6c.84.52,1.4.46,2.67.34-.55.68-2,.48-3.17.51.05-.4.58-.31.5-.84ZM66.82,97.25c-.51.07-.85-.44-1,.17a.46.46,0,0,1,.33.51c.47,0,.42-.48.67-.67Zm-3-.17c.46.07,0,.53-.33.34.48.46,1.51.27,1.67.34.14.31.43.46.5.84a5,5,0,0,1-1.67,0c0,.3.2.36.17.67a2.29,2.29,0,0,0-.83-.51c-.08-.36.24-.32.5-.34.07-.35-.11-.45-.17-.67-.3,0-.35.21-.67.17a.94.94,0,0,1,.83-.84Zm23.54-3.2c-1.13,1.32-3.11,1.35-4.84,1.35a10.46,10.46,0,0,1,4.84-1.35Zm8.85-.34c.6.06.81.26,1.34,0a1.1,1.1,0,0,1-.17.84c-.4-.57-.6-.39-1.34-.17,0-.3.2-.36.17-.67Zm-.33.67c0-.53-.43-.58-.84-.67.06.45.44.57.84.67Zm5.51-.84c-.11.38-.43,1.41.17,1.52a1.18,1.18,0,0,1,.67-1.18c-.13,0-.19-.14-.17-.34Zm-13.52-.51c.09.61-.89,1-.83.17.4.07.36-.31.83-.17Zm15,.84c1,0,2.06-.53,3.34-.67A12.46,12.46,0,0,1,102,94.39c.47-.49.57-.55.33-1.35-.3,0-.35.21-.67.17.3-.62,1.46-.68,1.17.51Zm2-1.85c.3,0,.35.21.67.17-.23.81-.7.45-1.34.67.31-.5.72-.27.67-.84Zm-15.19-.34h.67c.07.4-.76-.09-.5.51.51.67.66-.44,1.17-.34a1.1,1.1,0,0,0-.17.84c.57-.07.28-.52.67,0,.39,0,.1-.75-.17-.67,1-.68.28,1.29.5,1.52-.4-.4-2.23.4-3.34-.17.24-.3.15-.38-.33-.34.51-.63,1.36-.17,1.5-1.35Zm-18.36,0a.93.93,0,0,1,.67-.17c0,.2,0,.3.17.34-.45,3-.18-.1-.84-.17Zm42.74-1c0,.2,0,.3.17.34-.21.51-.57-.18-1,0,0-.37.42-.36.83-.34Zm-15-.84c-.46.38-1.35,1-2,.67.28-.62,1.36-.43,2-.67Zm5.18,0a2.25,2.25,0,0,1-1.34.34,1.21,1.21,0,0,1,1.34-.34ZM34.93,85.29c.3,0,.35.21.67.17.05.44-.65.13-.5.67a.54.54,0,0,1-.17-.84Zm79.8.17c.68.47,1.39-.22,1.5-.84-.75,0-1.3.26-1.5.84Zm-5.84-1.18c-.24.25-.13.53.33.51a4.34,4.34,0,0,1-2.34.67,3.08,3.08,0,0,1,1-.51c0-.22-.5-.22-.5,0-.48-.55.88-.68,1.5-.67ZM31.26,79.89c.53-.14.52.27.83.34-.06.22-.29.27-.33.51-.29-.15-.58-.31-.5-.84Zm5.68-.84c.26.07.14.53.67.34,0,.82-1,.58-1,1.35-.63-.21.12-1.28.33-1.68ZM33.6,77.7c.39.34-.19,1.15-.67,1.18.36-.26.25-1,.67-1.18Zm-2.17-1.35c-.14.27-.72.94-.33,1.18-.34.49-.54-.56-.5-1,.4.07.36-.31.83-.17Zm-1.67-.51c0-.37.59-.08.83-.17-.07.66-.57.45-.83.17ZM35.6,74.5c-.09-.58-.79-.56-1-1-.33.57-3.77,1-3.51.17,0,.35-.74,0-.67.51.24.15.53.25.5.67,1.63-.34,3-1.13,4.34-.17,0-.13.14-.2.33-.17Zm81-5.56c0,.3-.94.49-.33.84,0-.3.94-.49.33-.84Zm-2.17-2.19a2.21,2.21,0,0,1-1.67,1.18c0-.43.71-.18.5-.84.61.11.64-.37,1.17-.34Zm-79.8-.34c.59-.09.41.6,1,.51-.25.2-.2.7-.67.67.5-.52-.65-.33-.33-1.18Zm2.17-.34c.71-.45.79.12,1.5.17,0,.48-.57.33-.33,1-.88.11-.56-1-1.17-1.18Zm-5-1.85c.35.25-.09,1.14-.17,1.52-.72-.26.12-1,.17-1.52Zm79.3-13c.65-.11-.08.64.17,1.18-1-.11-.08-.57-.17-1.18Zm-81-5.73c.65.07.45.58.17.84-.36,0-.08-.6-.17-.84Zm89.15-6.07c0,.26-.64.79-.17,1,0-.26.64-.79.17-1Zm-95.49-.17c-.3.35.08,1,.5,1.18.23-.28-.18-.93-.5-1.18Zm92.16-2.7c0,.43-.72,1,0,1.18.16-.14.36-1.07,0-1.18Zm1.5-.5c-.1.4-.22.78-.67.84,0-.55.2-.81.67-.84Zm-86-2.7c.93.32.15,1,.17,1.52a1.55,1.55,0,0,1-.17-1.52Zm-7.51,0c-.41.22.18.63-.17.67-.22-.24-.88-.61-1,0,.85.38-.13,1.6-.17,2.19a.81.81,0,0,1,.83.34c-.15.3-.06.84-.33,1,0-.2,0-.48-.17-.51-.39.39,0,2.06.17,1.85,0-.48,0-.86.33-1,0,.48,0,.86.33,1a10.46,10.46,0,0,0-.5-4c.85-.3.85-.8,1.17-1.35-.21,0-.23-.22-.5-.17ZM26.08,32c.34-.3.87,0,1.17,0-.07.32-.36.42-.33.84-.39.05-.19-.49-.5-.51a1.83,1.83,0,0,0-.17,1.35c-1.19,0,.11-1.58-.17-1.69Zm-2.5.34c-.52.27.66.21.33.84-.24,0-.47,0-.5.17-.33-.32-.26-.61-.83-.34.11-.55.66-.4.33-1,.85-.11,1.32.45,1.34-.51.09.47.79.33.83.84-.43-.56-1.21.47-1.5,0Zm95.16-1.52c-.56.11-.77.57-.84,1.18.67,0,.8-.54.84-1.18Zm-3.51-3c.78.5-.06,1.9.33,2.53-.65-.57-.38-1.59-.33-2.53ZM43.61,26.46a.78.78,0,0,0,.5.17c-.19.53,0,.38,0,1-.47-.09-.31-.81-.5-1.18Zm-3.51-1c-.89,1.66.49,3.15.33,4.89.8.13.69-.65,1-1-1.18-.8-.35-3-1.34-3.88Zm1.84-1.18c.6,0,.49.74.84,1-.42.47-.73-.6-.84-1Zm-.83-.17a8.26,8.26,0,0,1,1.34,4,12.94,12.94,0,0,1-1.34-4Zm4.17-1.69c-.11.61-.78-.39-.83.17-.3-.12,0-.31,0-.51s-.2-.13-.33-.17c.35-.83,1,.07,1.17.51Zm-7-2.19c.4.33.34,1.12.33,1.85-.42-.32-.57-.94-.33-1.85Zm37.06-.84c.64.16.12.68-.5.51-.26-.6.57-.1.5-.51ZM44.45,17.87c.56.28.55,1.13.67,1.85h-.67v.51c.84-.63.81.45,1.17,1-.48-.46-.89.1-1.34.17-.47-.88.18-1.65-.5-2.53.47-.14.43.24.83.17-.22-.6,0-.62-.17-1.18ZM77,16.69a11.37,11.37,0,0,1-.33,2.53c-1.17-.28.46-1.55-.67-1.69.28-.34.45-.78,1-.84ZM66.15,12.47c.09.24-.2.87.17.84,0-.2.26-.18.5-.17,0-.48-.47-.42-.67-.67Zm-2.67-.17c0,.51-.81,2.2.17,1.69-.83,0,.62-1.19-.17-1.69Zm19.7-.17c.35-.07.44.12.67.17-.3.56.37,1.48-.83,1.35.65-.21.57-1.09.17-1.52ZM54.8,11.63c.46,0,.38.63.67.84,0,.23-.85.34-.33.51,0,.18-.33.11-.33.34a5.1,5.1,0,0,1,0-1.69ZM82,11h.5c0,.24,0,.48.17.51,0,.37-.59.08-.83.17-.07-.35.11-.45.17-.67Zm-14.86.17c-.39-.46-1.12.28-.67.67.47,0,.42-.48.67-.67Zm.5.17c.06-.22.29-.26.33-.51.22.22.33.51.5,0,.22.17.33.46.67.51-.73.37.12.78.17,1.35-.73-.28-1-1-1.67-1.35Zm-7.18-2c.23.72,0,2-.5,2.19-.18-.49.42-1.43.5-2.19Zm13-.67c.49.61-.28,1.4-.33,2-.33-.23-.09-1-.33-1.35.38.38.61-.24.67-.67Zm8.68-1.35c.42,0,.52.26.67.51-.41.44-.3,1.12.67,1,0,.92-.47.53,0,1.18-.71,0-.47-.88-.84-1.18-.37,0-.07.71-.17,1-.93-.3-.09-1.45-.33-2.53Zm-34.06,0c-.24.85.93.48,1,.17a1.41,1.41,0,0,0-1-.17Zm15.53-.17c.16.35.86.14.84.67h-1c0-.3.2-.36.17-.67Zm1.17-.34c.1.3-.2,1,.17,1,.4-.33.39-.84-.17-1ZM76.67,5.39c.11.73-.22,1.91.17,2.36.25-.51.3.58.67.51.37-.91-.67-2.41,0-2-.06-.5-.45-.67-.83-.84ZM71,5.39c.12.62-.71.29-.83.67-.37-.55.39-.63.83-.67Zm6.68-.17c.66.06.91,1.18.17,1.35.12-.62-.29-.72-.17-1.35Zm-2,0h.5c-.32.44.32,1,.17,1.85a2.75,2.75,0,0,1-.67-1.85ZM73,4.21c.76,0,.43,1.14.83,1.52-.91-.1.67.51-.33.51a1.18,1.18,0,0,0,.5.34c-.3.54-.08,1.61-1,1.52-.17-1,.25-1.44.33-2.19-.07-.25-.21.07-.5,0-.1-.35.21-1.11-.17-1.18.11-.17.38-.17.33-.51ZM58.64,3.88c.59.42-.05,1.16-.17,2.19-.44-.43-.33-.73,0-1.18-.07-.25-.21.07-.5,0v.67c-.48,0-.3-.7-.33-1.18.35,0,1.1.43,1-.51Zm12.52-.34a4,4,0,0,1,1.5,3.37c-1-.09-.42,1.09-.67,1.35-.51.13-.2-.58-.83-.34.74-.57-.43-1.75.67-2.19-.42-.14-.35-.77-.33-1.35-.28-.06-.32.13-.33.34-.45.12.12-.79-.33-.67.11-.17.38-.17.33-.51ZM58.3,2.7c-.11.4-.9,1-.33,1.52.4-.53,1-1,.33-1.52ZM3.41,54.93c-1.38-.12-2,.45-3.41.34.92-.12,2.82-1,3.41-.34Zm7.71-.51c-.53.69-1.39,0-2.33.34A4.19,4.19,0,0,1,11.12,54.42Z"/><path class="cls-2" d="M89.65,8.85H63.53L54.32,19.14V57.7H89.65v-23L85,38.87a1.22,1.22,0,0,1-.34.22,1.23,1.23,0,0,1-.25.31l-8.7,7.81h0a14.71,14.71,0,0,1-2.47,1.37h0a1.22,1.22,0,0,1-.64.12,1.22,1.22,0,0,1-.29.16l-3.8,1.5-.21.08a1.9,1.9,0,0,1-.37.07,1.85,1.85,0,0,1-.35,0h0a2.18,2.18,0,0,1-1.45-1.63,1.82,1.82,0,0,1,.12-.65l.07-.15,2-3.7h0a1.21,1.21,0,0,1,.19-.27,1.22,1.22,0,0,1,.19-.63s.94-1.52,1.46-2.13a1.23,1.23,0,0,1,.16-.18L79,33.35a1.22,1.22,0,0,1,.34-.22,1.22,1.22,0,0,1,.25-.31l9.49-8.52h0a1.22,1.22,0,0,1,.34-.21,1.22,1.22,0,0,1,.24-.31Z"/><path class="cls-3" d="M88.63,56.6l-.05.12-.12.05h-33l-.12-.05-.05-.12V20.33l0-.05h9.6l.32-10.43H88.46l.12.05.05.12V24.85l.47-.42a1.17,1.17,0,0,1,.34-.21,1.19,1.19,0,0,1,.25-.33L91,22.7l.21-.17V10a2.78,2.78,0,0,0-2.78-2.78H63.82L52.65,19.31V56.6a2.79,2.79,0,0,0,2.78,2.78h33a2.78,2.78,0,0,0,2.78-2.78V33.26L88.63,35.6Z"/><path class="cls-3" d="M83.95,22.85H69.48a1.12,1.12,0,0,0,0,2.25H83.95a1.12,1.12,0,0,0,0-2.25Z"/><path class="cls-3" d="M83.95,44.23a1.12,1.12,0,0,0,0-2.25H81.53L79,44.23Z"/><path class="cls-3" d="M60.61,44.23h7.91l0,0a1.16,1.16,0,0,1,.16-.61c.42-.68.77-1.21,1-1.6H60.61a1.12,1.12,0,1,0,0,2.25Z"/><path class="cls-3" d="M60.61,52.75H71.55a.7.7,0,1,0,0-1.4H60.61a.7.7,0,1,0,0,1.4Z"/><path class="cls-3" d="M60.61,39.45H72.37l2.5-2.24H60.61a1.12,1.12,0,1,0,0,2.24Z"/><path class="cls-3" d="M59.49,33.54a1.12,1.12,0,0,0,1.12,1.12H77.7L79,33.48a1.16,1.16,0,0,1,.34-.21,1.15,1.15,0,0,1,.25-.32l.59-.53H60.61A1.12,1.12,0,0,0,59.49,33.54Z"/><path class="cls-3" d="M84.91,28.19a1.12,1.12,0,0,0-1-.56H60.61a1.12,1.12,0,1,0,0,2.24H83Z"/><path class="cls-3" d="M95.77,23.82a2.57,2.57,0,0,0-3.13-.74,2.29,2.29,0,0,0-.83.49l-1.33,1.19L94.27,29l1.33-1.2a2.31,2.31,0,0,0,.58-.78A2.58,2.58,0,0,0,95.77,23.82Z"/><path class="cls-3" d="M71.1,42.15a21.46,21.46,0,0,0-1.4,2l3,3.36a21.69,21.69,0,0,0,2.19-1.18l8.7-7.81L79.8,34.34Z"/><polygon class="cls-3" points="85.25 35.51 84.55 34.72 92.19 27.86 89.88 25.29 80.39 33.81 84.19 38.03 93.67 29.52 92.9 28.65 85.25 35.51"/><path class="cls-3" d="M67.72,49.36a.66.66,0,0,0,.26,0l3.89-1.54L69.36,45l-2,3.7a.69.69,0,0,0-.05.25l1.36-1.22c.16-.15.37-.18.47-.07s0,.32-.12.46Z"/><path class="cls-4" d="M101.85,70.78c-1.49-5.87-2.62-11.18-4.11-17-3.42.72-7,1-10.39,1.77a20,20,0,0,1-7-1.33c-2.36-.63-4.5-1.36-6.85-2-5-1.71-7.63,1.16-13.71,3.46-2.56,0-5.31-.09-9.51-.14-.3,1.43.85,4.87,3.91,5.09h0l9.28-4.24a14.32,14.32,0,0,1,3.75-1.23l6.21-.41c2.44-.23,2.6-.05,4,1.64l5.05,5.92a4.89,4.89,0,0,1-6.13,1.41c-1.25-.6-1.84-1.67-3.39-2.56-1.73.46-4.37,1.33-5.05,1.52-.42.27-2.91,2.33-3.91,3l-15.19,11c-3.45,2.35-.87,7.92,3.64,6l9.23-6.86,1.37.17-6.67,4.88c-1.86,2.82.53,6.69,4.49,5.36L68,80.36,65.9,82.71,61,86.94a3.5,3.5,0,0,0,4.56,1.92L69,86.21l-.43.9-2.74,2.34,0,0C66.63,91,68.39,91.89,71,91c5.15-4,10.33-8.06,15.48-12.1,3.8-2.69,7.47-5.52,11.27-8.22Z"/><path class="cls-5" d="M38.59,74.46,44,58.66,53.38,61l10.1-4.62a14.32,14.32,0,0,1,3.75-1.23l6.21-.41c2.44-.23,2.6-.05,4,1.64l5.05,5.92a4.89,4.89,0,0,1-6.13,1.41c-1.25-.6-1.84-1.67-3.39-2.56-1.73.46-4.37,1.33-5.05,1.52-2,1.45-3.47,2.8-5.2,3.82l-1.18.83.07.05-12.8,9.24a3.89,3.89,0,0,0-.77.69L47.68,77l-5.19-2-3.9-.5ZM53.22,82l0,0,2.47.56a3.81,3.81,0,0,1,.63-1.81L63,75.91l-1.37-.17Z"/><path class="cls-5" d="M87.11,78.54,93,74.07c1.1,2.53,1.14,4.56-.72,5.77-1.49,1-3,.92-4.64-.55A3.5,3.5,0,0,1,87.11,78.54Z"/><path class="cls-2" d="M50.91,55.46l5.48.11c.49.19-.38,1.56-1,1.77H51.78A1.4,1.4,0,0,1,50.91,55.46Z"/><path class="cls-2" d="M82.1,62c-1.23-1.47-2.48-2.87-3.71-4.34-.63.45-.72,1.18-.33,2.23l2.27,2.71A2.24,2.24,0,0,0,82.1,62Z"/><path class="cls-3" d="M108.71,72.19l-5.77-22-1.18.23,0-.06-5.12,1c-2,4.33.15,16.27,5.27,22.08l1.16-.22,0,.05Z"/><path class="cls-6" d="M109.29,47.34l-6.13,1.37c-1.62,7.35.65,18.09,6.35,25.61l5.48-.87Z"/><path class="cls-2" d="M32,75.57,38.89,53.9,44,55.18c1.79,4.43-1,16.24-6.42,21.77Z"/><path class="cls-5" d="M32.7,50.72l6.05,1.69c1.23,7.43-1.6,18-7.68,25.25L25.64,76.5Z"/><path class="cls-7" d="M39.46,74.57a31.28,31.28,0,0,0,5-15.79l1,.25a31.27,31.27,0,0,1-4.85,15.7Z"/><path class="cls-6" d="M48,77.25a3.89,3.89,0,0,1,.77-.69l12.8-9.24-.07-.05,1.18-.83c1.73-1,3.22-2.37,5.2-3.82.68-.19,3.32-1.06,5.05-1.52,1.55.89,2.14,2,3.39,2.56a4.92,4.92,0,0,0,6-1.2l.41.48a4.89,4.89,0,0,1-6.13,1.41c-1.25-.6-1.84-1.67-3.39-2.56-1.73.46-4.37,1.33-5.05,1.52-2,1.45-3.47,2.8-5.2,3.82L61.77,68l.07.05C60.79,68.77,49.31,76.67,48,77.25Z"/><path class="cls-6" d="M51.92,59.65A3.86,3.86,0,0,0,54.62,61h0l9.28-4.24a14.32,14.32,0,0,1,3.75-1.23l6.2-.41c1.63-.16,2.24-.13,2.87.41-.84-.94-1.32-1-3.3-.84l-6.21.41a14.32,14.32,0,0,0-3.75,1.23L54.2,60.59h0a3.81,3.81,0,0,1-2.27-.94ZM48.45,82.2a3.62,3.62,0,0,0,4.4.82l9.23-6.86.5.06.44-.32-1.37-.17-9.23,6.86a3.71,3.71,0,0,1-4-.39ZM57,85.61a3.91,3.91,0,0,0,3.88.54L68,80.36,65.9,82.71l-2.15,1.87-2.47,2a3.79,3.79,0,0,1-4.31-1Zm5,2.66a3.59,3.59,0,0,0,4,1l.51-.39,2.09-1.78.43-.9-3.46,2.65A3.61,3.61,0,0,1,62,88.27Z"/><path class="cls-5" d="M76.9,89a45.26,45.26,0,0,0-4.43-4.64c-2.28-1.08-5.51,2.47-3.72,5.38l2.16,2.45c3.05,1.85,6.5-.28,6-3.19Zm6-4.6A48.08,48.08,0,0,1,77.85,79c-.54-2.45,2.42-4.89,5.34-3.32a22.48,22.48,0,0,1,3.32,3c2.34,3.26-1.08,6.56-3.61,5.63Zm-.43.43c1,3.26-2.87,5.31-5.2,3.9l-4.47-5c-1.24-2.6,2.27-5,4.4-4.33A42.16,42.16,0,0,1,82.47,84.79Z"/><path class="cls-2" d="M82.05,76.4a1.14,1.14,0,0,0-1.48,0l-1.33,1.48a1.16,1.16,0,0,0,.18,1.88l1.73,1.55c2.45,1.52,4.47-1.73,2.85-3.14L82.05,76.4Zm-9.29,9a1.14,1.14,0,0,0-1.47-.14l-1.47,1.35a1.16,1.16,0,0,0,0,1.88l1.58,1.71c2.3,1.74,4.61-1.3,3.13-2.86l-1.77-1.94Zm4-4.95,1.95,1.77c1.62,1.41-.4,4.65-2.85,3.14l-1.73-1.55A1.16,1.16,0,0,1,74,81.92l1.33-1.48A1.14,1.14,0,0,1,76.79,80.44Z"/><path class="cls-6" d="M73.62,84.62a16.61,16.61,0,0,0-1.23-1.15c-2-1-4.76,1.69-4.15,4.33.06-2.31,2.44-4.32,4.24-3.47a47.71,47.71,0,0,1,4.39,4.57,3.24,3.24,0,0,0,0-.7l-3.22-3.58Zm13.59-4.4a3.8,3.8,0,0,0-.78-2.34,22.47,22.47,0,0,0-3.32-3c-2.92-1.57-5.88.87-5.34,3.32l0,0a3.57,3.57,0,0,1,5.4-2.51,22.48,22.48,0,0,1,3.32,3,4.14,4.14,0,0,1,.69,1.49Zm-4.82,3.72a3.44,3.44,0,0,1,.17,1.15q0-.15-.08-.3a42.14,42.14,0,0,0-5.27-5.41c-1.77-.55-4.49,1-4.65,3-.68-2.42,2.56-4.52,4.57-3.89.19.14.58.49,1.08,1a58.36,58.36,0,0,0,4.11,4.34Z"/><path class="cls-6" d="M238.26,18.61q1.31-1.53,2.57-3.1l-1.56-1.25c-.83,1-1.67,2.05-2.53,3.06l1.53,1.29ZM132.1,53.75,145,61.92a12.75,12.75,0,0,1,1.92-11.84L132.1,53.75Zm17,3.32c1.34.1,2.68.17,4,.22l.07-2c-1.32-.05-2.64-.12-4-.22l-.14,2Zm10.08.28c1.34,0,2.69-.07,4-.15l-.12-2c-1.31.08-2.64.13-4,.15l0,2Zm10.07-.66c1.33-.15,2.68-.32,4-.53l-.31-2c-1.29.21-2.62.38-3.92.52l.23,2Zm10-1.63q2-.42,3.93-.93l-.5-1.94q-1.92.49-3.86.91l.43,2ZM189,52.45c1.28-.41,2.56-.85,3.82-1.32l-.7-1.87c-1.23.46-2.49.89-3.74,1.29l.62,1.9Zm9.44-3.58c1.22-.51,2.48-1.11,3.67-1.7l-.88-1.79c-1.17.57-2.39,1.16-3.59,1.66l.8,1.83Zm9-4.51q1.76-1,3.48-2.05l-1.05-1.7q-1.68,1-3.41,2l1,1.74ZM216,39c1.1-.77,2.2-1.56,3.27-2.37L218.07,35q-1.58,1.19-3.21,2.33L216,39Zm8-6.15c1-.87,2-1.75,3-2.65l-1.35-1.48c-1,.89-2,1.75-3,2.61l1.3,1.52ZM231.43,26q1.43-1.43,2.8-2.9l-1.46-1.36Q231.41,23.2,230,24.6Z"/></g></g></svg>