<svg xmlns="http://www.w3.org/2000/svg" viewBox="0 0 120.66 113.46"><defs><style>.cls-1{fill:#f4f3f0;}.cls-1,.cls-2,.cls-3,.cls-4{fill-rule:evenodd;}.cls-2{fill:#29590a;}.cls-3{fill:#b2b2b2;}.cls-4,.cls-5{fill:#727271;}</style></defs><title>Ресурс 2</title><g id="Слой_2" data-name="Слой 2"><g id="description"><path class="cls-1" d="M78.89,2.73a2.42,2.42,0,0,1-1.62,0c.66-.71-.47-.75-.2-1.68.63-.16.25.72,1,.42-.56.91.38.83.81,1.26ZM10.14,79.84c.13.22.85,0,.81.84-.76.16-1-.26-1.62-.21-.15-.92.4.17.41-.42-.43-.53-1.6-.3-1.62-1.26.8.27.53-.58.81-.84a1.17,1.17,0,0,0,1.42-.21c-.71-.73-2.69-.15-2.84-1.47,2-.42,3.47.5,5.07,0,.14,1.6-1.52,2.44-2.43,3.57ZM65.3,2.73c.6.18-.26.53,0,1-.88-.16-1.31.13-1.82-.63.48-.67,1.38.24,1.82-.42Zm-56.17,87c.63-.25,3.44.71,4.26,1.05s-1.11.62-.41.84a4.88,4.88,0,0,0-2.84-.84,1.45,1.45,0,0,0-1-1.05Zm1-1.47c-.53-.35,1.16,0,1.42.21-.31.94-.82-.21-1.42-.21Zm3.45-8.83c-.14.68-.11,1.57-1.22,1.05a.87.87,0,0,0,1.62,0c-.94.25.36-.89-.41-1.05Zm.2-30.68c0,.18-.08.2-.2.21-.52.05.28.36,0,.84-.65.18-.42-.55-.81-.63.17-.31.65-.3,1-.42Zm-3-.42c0,.37.2,1.05-.4.84,0-.17.2-.21.2-.42-.77-.3-.39.58-1,.42a1.43,1.43,0,0,1,1.22-.84ZM8.31,47.07c.09-.47,1-.09,1.42-.21-.7.45-.05.34.41.63-.18.31-.16.81-.81.63.53-.62-.29-1.1-1-1.05Zm10.55-1.47c-.5.18-.66.71-1,1-.6-.46.73-1.46,1-1Zm-2-9.88c0-.4.68.25,1.22,0-.22-.66-.21-.67.61-.63,0-.38-.25-.44-.2-.84.85-.31.85-.41,1.62,0,.07.74,0,1.08.2,1.26,0,.52-.69.06-.81,0-.6.18.47.31.2.84-.36-.06-.42.2-.2.21-.08.41-.93,0-.61.84-.24-.06-.84-.93-.81,0-.8.13-.58-.8-1.42-.63-.17-.49.71-.91.2-1.05ZM27.38,19.54c-.23.07-.51.37-.2.42,0,.18-.08.2-.2.21h-.41c.18-.37.68-.65,0-.84-.08-.5.92.12.61-.63a.94.94,0,0,0,.61.21c0,.22-.87.43-.2.63,0,.24-.2.12-.2,0Zm45.83-1c.6-.12-1.85,1.45-1.82-.21.36,0,.43.26.81.21s.09-.75.2-1.05c-.35.61-1.28.63-1.82,1.05.89-.63-.78-1.75.81-1.89v1.26c.64-.15.26-.56.2-1.05.72-.27.74-.48,1.62-.21-.26.83.67.43.41,1.26-.76-.79-.81.36-1,.63.15.37.37,0,.61,0Zm-45-3.57c1.11,1,2.3-1.14,2.43-2.52-1.85-.41-1.55,2.24-3.45,2.73-.06.62.81.78,0,1.05-.15-.9-.44-1.64-1.22-1.89-.36.87,0,1.32-1.22,1.47-.86,1.81-3.3,5-2,6.93.13-.89.45-.77,1.22-.63a3.68,3.68,0,0,1,.41-2.94c1.18,0,.81,1.16.81,1.89,1.12-.31.68-2.23,1.22-3.15.2.33.19.84.61.42.19-.63,1.69-2.65,1.22-3.36ZM90,9c.36,0,.43.26.81.21,0,.25-.37.18-.61.21,0,.42.55.27.41.84C90,10.3,90.14,9.56,90,9ZM87.61,7.35c-.28,1.13.38,1.29.61,1.89-.56-.08-1.67-1.5-.61-1.89Zm-18.45-1c.29.11-.16,1.22-.2,1.68-.12-.06-.78-.52-.81,0a6.77,6.77,0,0,0-.41-1.26c.17-.45,1.29.08,1.42-.42ZM66.31,5c.16,0,.4,0,.41-.21A5.25,5.25,0,0,1,65.1,4c.32,1.52-1.24,2.22-.81,3.15C65,5,66.63,6.54,67.93,5.88c-.64.1-.57-.53-.81-.84s-.68.63-.81,0ZM24.74,104.43c0,.25-.36.48,0,.63,0-.25.22-.13.41,0a1.21,1.21,0,0,0-.61-1.26,1,1,0,0,0,.2.63Zm59.62,8.19c.64.1.83-.26,1-.63-.12,0-.24,0-.2-.21h-.4c.15.57-.4.42-.41.84Zm-55.77-5h.81v-.84a.78.78,0,0,0-.81.84Zm34.88-.63a3.68,3.68,0,0,1-1.62.21,1,1,0,0,1-.2.63c.88.14,1.69.35,2,1.05-.39-1,.25-1.33.81-1.89,0,.16,0,.41.2.42a1.08,1.08,0,0,0-.81-1.26c.24,1.26-1.77-.09-.41.84Zm-13.38-.21c0-.67-.46-.92-1.22-.84-.35,1.06.22.67,1.22.84Zm33.46-.84c.57,0,.59-.52.61-1.05h-.61v1.05Zm-32.24-.63c-.21.78.43.68.61,1-.33.29-1,.18-1.22.63.73-.12,1.68.62,2.23,0-.19-.36-.67-.43-.81-.84.62.16.39-.58,1-.42-.71,1.23,2.06.74,1.22,2.1a17,17,0,0,0,4.06.42c0-.25,0-.6.2-.63.73,1.1.46-.45,1.42.42.08-1.25.33-1.25-.2-2.31-.76.36-.32-.12-1-.21-.32.84,1.28.75.61,1.26-.88,0-.87-.92-1.22-1.47.08.51-.37.46-.2,1a.56.56,0,0,1,.61.42c-.71-.36-.71-.08-1,.42-.68,0-1.34-.63-2.23-.42-.17-.87-.87-1.2-1.62-1.47.8.06,1.41-.08,1.62-.63-.87-.72-1.42.69-1.83-.21,0,.52,0,1-.41,1.05-.81.06-1.1-.4-1-1.26h-.61c-.2.7,1.07,1-.2,1.05Zm4.26-.84c0-.71,1-.32,1-1.05.36.05.46.36.41.84-.53-.06-1-.07-.81.63-.21-.14-.21-.48-.61-.42Zm26.77,0c.25-1.31-.87-1.2-.81-2.31-.57,0-.51.59-.81.84.3,0,.75-.07.81.21-.13.91-.21,1.89-1.22,1.89v-1.26c-.85.66-.71.25-1.22.21.81.59-.8.41-.61,1.05.77.83,1.9,0,2.64.84,0-.55.57-.8,1.22-.21,0-.4.23-.46.2-.84-.63-.28-1.12.62-1.42,0,.8.27.41-.69,1.22-.42ZM21.7,101.69c.72-.33.12.71.61.63.56-.38.65-2.2-.2-2.31a5.47,5.47,0,0,1-.41,1.68Zm6.69-.84c.8.13,1.05-.31,1.42-.63-.27,0-.26-1.22-.61-.42.5.33-.49.87-.81,1Zm-3.65-6.51c-.26-.25-.16-.55.2-.84a2.19,2.19,0,0,0-2,.21c.51.18,1.48,1,1.83.63Zm85-3.15c.56.71.15.75-.41,1.26.42.06.4.56.61.84-.36.12-1.19-.25-1.22.21.83-.16.7.68,1.62.42-.65-1.38.62-1.9.41-2.94a1.28,1.28,0,0,0-1,.21ZM28.39,93.92c-.8-.67-.57-2.69.2-2.31,0-.59-.5-.61-1-.63.53,1.23-.67,1.23-.81,2.31.64.11.65.87,1.62.63ZM27,93.5c-.27.6-1.2-1.1-1.42,0-.27,0-.26-1.22-.61-.42-.43-.39,1-.77,1-.84.54.21.49,1,1,1.26Zm3.24-2.1c0-.4-.23-.46-.2-.84.16,0,.4,0,.41-.21-.49-.85-1.08,1.17-.2,1Zm-4.26-1a.9.9,0,0,0,.61-1.05c.26.35.52,1.14.2,1.47-.54-1-.73.18-.61,1-.67-.23-.43-2.23-.41-2.52.44,0,.09.75.2,1.05Zm5.48-.63c.54,0,1.19.12,1.22-.42-.57.17-.53-.3-1-.21a1,1,0,0,1-.2.63Zm-7.71,2.1c.84.1,1.11-.38,1.62-.63-.44,0-.44-.53-.41-1.05-.84-.06-.27.81-.61.84-.51-.57-.16-.82-.41-1.47.72.18.5,0,1.22.21,0-.65-.61-.63-1.22-.63a4.18,4.18,0,0,0-.2,2.73Zm86.39-1c-.51-.2.55-1.08-.41-1.05-.49-.61,1.11.48,1-.42,0-.25-.37-.18-.61-.21.11-.59,1-.39,1.42-.63,0,.68.36.89.2,1.68-.61.14-.71.81-1.62.63ZM26.56,87.41c.36.12.84.11,1,.42-.12,0-.24,0-.2.21.54.14.39-.44.61-.63-.8.06-.62-.9-1.42-.84v.84Zm83.55.84c.86.52,1.78-.46,1.83-1.47,0-.24-.23-.33-.41-.42-.39.87-.15,1.65-1.42,1.89Zm-92.48-8.4c.08.76-.48,1.34.2,1.47-.22-.8.54-1.31-.2-1.47Zm1,1.89c.68,1.12-1.48.18-.61-.63.64,0,0,1.14.61.63ZM15,75.22c.35.09,0,.27,0,.63,1,.3.78-.59,1.22-.84.15.48.93,1.41,1.42.84-.86-1.13-1.73-1.25-2.64-.63Zm1.62-8.4a1.41,1.41,0,0,0,.2,1.05c-1,0-.58,1.36-1.22,1.68.79-.12.52.86,1,1.05V68.92c.29.23.49.23.61-.21-.29-.11.37-2.11-.2-2.52,0,.33,0,.73-.41.63Zm8.92-.63c-.16,0-.4,0-.41.21.29-.11,1,.25,1-.21-.55.15.14-1-.41-.84,0,.54-.35-.29-.81,0-.18.67.67.29.61.84Zm-.81-9.45c-.16,0-.24.18-.2.42.38,0,.45.24.81.21a1,1,0,0,0-.2-.63c.25,0,.48-.06.41-.42-.66.26-.15-.68-.81-.42-.08.72-.62.35,0,.84Zm-.61-1.47c.06-.43.41-.56.61-.84-.59.28-1,0-1.42-.42.21,0,.16-.27-.2-.21a2.33,2.33,0,0,0,1,1.47Zm-1.82-3.78c-.06-.41.27-.42.41-.63-.62,0-.79-.44-1.22-.63-.3.37.19,1.2.81,1.26Zm0-2.52a13.44,13.44,0,0,1,2.23.84c-.35.13-.33.63-.61.84-.06.25.59.72.61.21.65.71-.23,1.94-1,1.26.18.74,0,.52.2,1.26-1,.23-.45-1.22-1.22-1.26.75-.41.38-1,.61-1.68-.62-.05-.41-1-1.22-.84,0-.82.08-1.45,1-1.26,0,.4-.67.15-.61.63ZM86.39,24.16c.15.4.61.15.2.63a1.12,1.12,0,0,0,.81-.21c-.45-.44.31-1.88-.41-1.26.12,0,.24,0,.2.21-.53-.06-.87.08-.81.63ZM57,22.06c.52.15.79-1.59.2-1.26,0,.49-.35.62-.2,1.26ZM52.12,21c-.48-.52-.38.31-1,.21.06-.26,0-1.3-.2-.63v.63c.52.38,1,.52,1.22-.21Zm-5.48.21c.49.08.44-.38,1-.21,0-.25,0-.6-.2-.63-.18.37-.75.35-.81.84Zm2.43-.63c.87.15.66-1.09.2-1.26a1.84,1.84,0,0,1-.2,1.26Zm-13.39.63c-.16,0-.24.17-.2.42,1.26-.5,1-1.09,1.62-1.47-.16,0-.4,0-.41-.21.23-.3.22-.51-.2-.63-.31.51-.12,1.55-1,1.47,0-.12-.16-.24-.2,0,.23,0,.32.23.41.42Zm40.76-1.68c.05-.33.44-.15.61,0-.23-.66.06-.56-.2-1-.69.08-.33.65-.81,0-.3.69-.5-.44-1-.21A3.36,3.36,0,0,1,74.63,20c.84-.87.75-.83,1.83-.42ZM33.86,18.28c.16,0,.24.18.2.42.57,0,.86-.36.81-1-.26,0-.28-.27-.61-.21.23.66-.32.51-.41.84ZM32,18.07h.61c0-.53.39-.66-.2-.84,0,.42-.55.27-.41.84Zm53.74.21c.38-.4-.12-.38,0-1.05-.4-.06-.4.28-.61.42-.16-.47-.12-1.14-.61-1.26a3,3,0,0,0,1.22,1.89ZM36.5,16.81c-.18.77.36,1.12,0,1.47,1,.31.19-1.21,1-1.05,0,.4-.23.46-.2.84,1.16-.15,1-1.57-.2-1.68,0,.38-.2.49-.61.42Zm27.78.42c.57,0,.86-.37.81-1.05-.72-.33-.12.71-.61.63.23-.43-.32-1-.4-.42.3,0,.19.51.2.84Zm-22.1.84c1-.34.26-1.24.81-2.1-1.16.2-.46,1.38-.81,2.1Zm41.57-1.26c-.08-.36.3-.54,0-.63,0,.17-.67.64-.61.21.16-.15.45-1.17,0-1.26.07,1-2,.84-1.42,1.68a1,1,0,0,1,.61-.63c.39.64,1,.48,1.42.63Zm-5.68-.21c.08.41-.92.31-.61-.21h-.41c.24.94.25,1.3-.2,1.89-.41-.8-.17-2.55-.81-2.52-.26.05-.2.42,0,.42-.66.55-.48-.32-.41-1.05.69-.28,1.17,1.37,1.42.21.39.4.37-.12,1,0,0,.63-1.14,1.18,0,1.26Zm-7.91-1.26c-.3-.11-.51-.31-.81-.42-.09,1.06-.83,1.74-.2,2.1.34-.49-.11-1.79.81-1.68,0,.12.16.24.2,0ZM89,15.55c.9.42,1.47.13,2,.63,0-.56.64-.46.61-1.05-.46-.29-.86-.43-.2-.84-1.07.16-2.17.27-2.43,1.26Zm-19.27.63a2.15,2.15,0,0,1,0,1.47c.3,0,.75-.08.81.21-.08.69-1.08.42-1,1.26.16,0,.4,0,.41.21.59.05.7-.4,1-.63.38.4,0,.53,0,1.05.66.26.15-.68.81-.42.22.4,0,1.22.61,1.68.49-.55.27-1.13.2-1.89.43.28,1.26-.63,1.42.63,0-.29-1.46-.29-.81,0h.61c0,.25,0,.6.2.63,0-.16.17-.24.41-.21.21-.91-.42-1-.61-1.47a1.84,1.84,0,0,0,.2-1.26,4.11,4.11,0,0,0,1.22-.63c.15.64-.21.77-.2,1.26.57-.17.52.3,1,.21.51-.44-.51-.82,0-1.26a.93.93,0,0,0-.61.21c-.13-.84-.33-1.61-1.22-1.68,0,.33,0,.73-.41.63a5.59,5.59,0,0,1-1.22-2.1c.06,1.26-1.12,2.34-2,1.89.26-.29,1-.09,1-.63-.56.09-.19-.78-.61-.84.1.92-.62.45-.2,1.26-.5,0-1,0-1,.42Zm-.81-2.1c.09-.33.64-.18.41-.84.79-.14-.1.8.2,1.47-.72.33-.12-.71-.61-.63Zm24.13,2.73C90.9,16.25,93,13.74,91.66,13c.68-.14.74.35.81.84a1.29,1.29,0,0,1,1-.21c-.13.21-.47.22-.41.63.35.32.74-.07,1.42.21,0,1.29-1.45,1-1.42,2.31ZM48.47,14.08c0-.66,1.1-1.16.2-1.47-.22.21-.76,1.15-.2,1.47Zm32-1.05c.38-.12.21-1.63-.2-.84.12,0,.24,0,.2.21-.71.39-.86,0-1.42-.21a1.21,1.21,0,0,1-.2.84c.19.22.75.07.61.63-.71,0-.87.5-1.22.84.39.09.37.6,1,.42-.61-1,.6-.68.81-.84-.67-.31.34-.59.4-.84-.16,0-.4,0-.4-.21s.33-.5.4-.21c-.11,0-.23.17,0,.21Zm2-1.68c.15-.22.79-1,.2-1.26a1.09,1.09,0,0,0-.2,1.26ZM50.29,9.88c-1-.07.36-.7.2-1.26-.26,0-.28-.27-.61-.21-.15.71-.39,2.64.4,1.47ZM77.87,7.35c-.63-.1-.65.45-.61,1.05.63.1.65-.45.61-1.05Zm-.61,4.2c-.12,0-.24,0-.2-.21.22-.63,1.19-.32,1-.84.24,0,.58,0,.61.21-.07.48-.89.2-.81.84h.81c.28-.13,0-.81.41-.84.72-.11.5.74,1.22.63.06-.5.7-.39.61-1.05-.87-.53-1,.52-1.42.21.62-.7,0-1.4.81-1.89-.66-.12-1,.06-1.22.42,0-.21-.16-.25-.2-.42,0-.48,1.11-.93.41-1.47,0,.86-.81.84-.61,1.89-1-.2-1,1.88-2,1.47.26-.57,1-.61,1.22-1.26-1.12,0,1-.59,0-1.05-.65.72-1.5.11-2.64,1.26.37,2-1.1,3.52-1.42,5.46.76-.41.44.2,1,.42.35-.13,0-1,.4-1.05.38.67.43.16.81-.21v.63c.64-.44.78-.44,1.42,0-.29-.94.55-1.8,0-2.31q.18.82-.61.63c.32-.89,1.1-.95,1.82-.42-.47-1-1.31-.88-1.42-1Zm-1.62,93.71c-.41-.25-.83.11-.41-.63-.48-.12-.94-.32-1,.42.78-.19,1,1.23,1.42.21Zm26.57-85.1c.06-.19.55-.92.61-.42,0,.28-.36.19-.41.42.12.06.78.52.81,0-.31-.18.06-.31-.2-.84-.51-.09-1.23.66-.81.84ZM80.51,9c.31-.59.87-.37,1.22,0-.2.59-.86-.06-1.22,0ZM77.87,5.67a5.85,5.85,0,0,1,.81,1.68c-.92.13-.83-.47-.61-1-.48.07-.76.33-1.42.21-.34.42,0,.27,0,.84-.38,0-.45.24-.81.21,0-.21-.16-.25-.2-.42,0-.69,1-1.82.2-2.1-.34.73.17,1.11-.41,1.68H75c0-.66-.14-1.54.2-1.89-.88,0-.57,1.23-1.22,1.47,0-.25,0-.6-.2-.63,0,.16,0,.41-.2.42-.19-1.15,0,.54-.61.21.49-.44-.18-.93.2-1.26-.81-.2-.08,1.17-.81,1.05A.69.69,0,0,0,72.19,5c.13.74-.73.37-.2,0-.78-.11-.83.54-1.42.63.09-.53.65-1.82-.2-1.47.46.63-.87,1.19-1.22,1.68,1,.55.33,1.71.41,2.73.36-.12,1.19.25,1.22-.21-.7.09-.88-1.93.2-2.31-.24.56.48,1.66,1.22,1.89.26-.5.39-1.14,1-1.26.34.28.07,1.19.41,1.47-.69-.28-1.41.47-.81.84.42-.48,1.33-.44,1.62-1.05-.23.66.32.51.41.84-.28.13,0,.81-.41.84.14-.57-.42-.41-.61-.63.18,1-.67-.14-.61.42.3.62.22,1.7,1.42,2.1,0,.77-.09,1.45-.81,1.47,0-.25,0-.6-.2-.63-.24.45-.25,1.14-.81,1.26-.34-.42,0-.27,0-.84-.57,0-.47.63-1,.63.45-.84-.12-1.44-1.22-1.26q.14,1-.81.84A6.63,6.63,0,0,1,71,10.08c-.72.09-.4.92-1.22.42-.1,1-.78,1.43-1.42,1.89.5-.82-.58-1.88-.2-.63-.3,0-.75.08-.81-.21.69-.46-.4-.76-.2-.42-.48-.86,0-1.48-.41-2.52a1,1,0,0,1-.61.63c0-.59-.57-.53-.81-.84-.28.13,0,.81-.41.84V8.19c.72-.31,1.9-1.24,1.62-1.89-.57.18-.31,1.22-1.22,1,.06-.43.41-.56.61-.84-.38,0-.45.24-.81.21-.15.64.35.62.2,1.26-.87-.23-.26-.1-.61.21-.29,0-.34-.35-.61-.42-.06.41.27.42.4.63a3.69,3.69,0,0,0-1.62.21c0-.25,0-.6-.2-.63C62,8.06,62,8.86,61.44,9V8.19c-.61.06-.72.65-1.62.42,0-.53.39-.66-.2-.84,0,1.6-1.45.78-1.82,1.68-.47-.22.1-1.5-.41-1.68-.35,1-.72.4-1.62.42a.93.93,0,0,1-.41.84c0-.31.07-.78-.2-.84a3.58,3.58,0,0,1-.61.84c.25-.68-.66-.16-.41-.84.33.55.89-1,.61-1a3.81,3.81,0,0,1-2,1c-.26-.52.59-.87,0-1-.78.43-2.63.53-3.25-.42-.32.77-2.59.81-1.42-.21H46.84v1c.63.25,1,.26.41.84.4-.06.4.28.61.42,0-1.14.94-1,1.22-.42a3,3,0,0,1-.61.21c-.24.86-.14,4.51-.61,4.41C47,12.7,48,10.67,47,11.35c.31.18-.06.31.2.84-.72-.33-.12.71-.61.63-.36-.56-.32-1.26-1-.42.17-.43-.18-1.31-.41-.63a1,1,0,0,1-.41,1c.08-1.33-1.27-2.5-.41-3.36-.4.06-.4-.28-.61-.42-.11.37-.1.87-.41,1.05-.3-.69-.57.36-.81.42s-.14-.7-.61-.63c-.09.88-1.32.59-1.42,1.47-.28-.13,0-.81-.41-.84.22.78-.5.6-.41,1.26.3,0,.75-.08.81.21-.88-.08-1.08.56-1.83.63,0-.41-.22-1-.81-.42.67,1.08-.93.54-.61,1.68a1.11,1.11,0,0,0-.81.21c.24-1.16-1.07-.72-1-1.68-1.13,0-2.14,1.78-2.43,2.73a1.78,1.78,0,0,1,1.42.42c-.63-.06.52.61-.2.63-.39-.09-.51-.45-1-.42A1.6,1.6,0,0,1,31,16.81c-.3,1.13.28,2.45-.61,3.78.4.35.26,0,.81,0-.3-.89.32-.41,0-1.47.4.06.4-.28.61-.42a.88.88,0,0,1,.81.42c-.5-.12-.51.89-.2,1.26.3-.57-.13-1.25.81-1.47,0,.3-.33.35-.41.63.57-.17.53.3,1,.21-.26-1.07.59-.22.61-.63-.11,0-.23-.17,0-.21.3.18.29.68.41,1.05-.76-.23-.58.52-1.22.42a.58.58,0,0,0-.41-.63c0,.38-.2.49-.61.42.49.88-.27.37-.61.84a3.23,3.23,0,0,0,1.42.42c.28-.48-.52-.79,0-.84.62.27,1-.72,1.22-.21-.68.61,0,.55,0,1.47-.84,0-.6.71-.81.84-.3,0-.75.08-.81-.21.24,0,.58,0,.61-.21-.57.17-.53-.3-1-.21.47,1-.1,1.56-1.22,1.89.23,0,.32.23.41.42-.65.38-1.22,1.23-2.23.63.64,1.21-.82.15-1,.63.33.07,0,.3-.41.21-.27.53.8.66.2.84-.69,0-1.41.07-1.62-.42-.1-2.79-.52,1,.61,1.05-.23.75-1.27.65-1.83,1,.12,0,.24,0,.2.21-.11,0-.23.17,0,.21,0-.31.49-.19.81-.21.74.9-.84,1.41-.41,1.89.43-1.05.63.84,1.22-.21.12.13.47,1,0,1.05-.9.3-.53-.71-1.22-.63,0,.31.07.78-.2.84-.55-.5-1.16.37-1.62-.21.23-.88,1-1.2,1.42-1.89a3.67,3.67,0,0,1-1.62-.21,2.76,2.76,0,0,1-2.64,1.47c-.53,1-1.12,2.61-2.23,2.31,0,.53.31.66.61.84-.2-.63.45-.37.81-.42a16.52,16.52,0,0,0,.41,2.31c-1.07.33-1.77,1.79-2,2.31-.29,0-.34-.34-.61-.42-.2,1,.31,1.55-.61,1.68v-.84c-.78.57-1.1.36-1.62,1.05-.08-.65-.69-.82,0-1.26.38,0,.45.24.81.21.47-.49-.37-.68-.2-1.47-.74,0-.78-.29-1.42,0a2.81,2.81,0,0,0,.41,1.47c-.2,0-.24.17-.41.21.18-1-.67-.85-1.22-1.05-.42.78.29,1.59-.41,2.52A4.26,4.26,0,0,0,12,39.08a11.59,11.59,0,0,1-2,3.36c-1.89.38-3.74,5.3-1.42,7.14.61-1.43-1.34-2.38-.2-3.36,0,.38.2.49.61.42v-.42c.11,0,.23-.17,0-.21a.2.2,0,0,1-.41,0c-.06-.49.59-.23.61-.63-.35-.08-.52.31-.61,0,.43-.44.58-.66,1.42-.42.19-.39-.61-.7,0-.84s.66,1.25,1,.63c-.29-.38,0-.64-.2-1.47.65.18.28-.69.81-.63,1.25.25.87,2.19,2,2.52-.36-1,.27-1,.2-2.1,1,.17.7-1.09,1.83-.84.27-.53-.8-.66-.2-.84.4,0,.26.57.81.42-.08-1,1,.36,1-.63-.5,0-1,0-1-.42.54.58.52-.17.81-.42.06.11.63.33.81,0-.3,0-.19-.51-.2-.84.54.53,1.69-.54,2.23,0,.28-.48-.52-.79,0-.84,0,.35.56.12.61.42-.49.29-.31,1-.2,1.26.28-.13,0-.81.41-.84a7.71,7.71,0,0,0-.2,2.1c.77.3.39-.58,1-.42-.13,1.21-1.5,1-.81,2.1a11.18,11.18,0,0,0-1.22.63c.45,0-.26.53,0,1.05a.94.94,0,0,0,.61-.21c-.08.51.37.46.2,1.05-.6.22-1.62,0-1.83.63.42.13.77.32.61,1.05-.59-.06-.75-.29-1,0,.18.44.56.68.81,1-.82,1.12-.12,2.47.2,3.57-1,0-.41.38-.2.42-.5.25-.2,1.33-.81,1.47-.21-.87.81-2.39-.2-2.73-.12.37.25,1.23-.2,1.26-.57-.21.06-.89,0-1.26a9.23,9.23,0,0,1-1.83,2.31c1.35.22-.44,1.84-.41,3.15.91,0,0,1.11,0,1.47,1,0,.66-1.82.61-2.31.24,0,.46.37.61,0-.8.13-.27-1,0-1.05.52.29.64.68.41-.21.29.47.5-.26.61.21-.62.51.23.13.2.42-.72,1.56-.64,4-1.62,5.25,0-1-1.07-.71-1.22-1.47-1,1.15,2.33,3.89.41,3.36.42,2.08,0,4.48.41,6.51a.88.88,0,0,0-.81.42c.66.15.14,1.19,1,.63a1,1,0,0,0,.2.63c-.63-.32-1.06.12-1,1.05-1.31-.16-.27.83-1.42.84-.12.67.38.65,0,1.05,1,.05,1.67,0,2,.21-.42.56-.9.29-1.42.63-.25.68.66.16.41.84-.14.43-1.83.33-1.42.63,1.68-.37.4,1.41,1.42,1.05-.58.65-1.22-.4-1.82-.42.65.8-.08.51-.41,1.26.85.25.89-.34,1.42-.42a.59.59,0,0,0,0,.84c-.67.53-1.82-.67-1.82.63,1.61-.27,1.59,0,3,.42.06-.41-.27-.42-.41-.63a14.13,14.13,0,0,1,1.83.84c.35-1.13-.78-.73-.61-1.68-.9-.23-1,.36-1.62.42,1.48-2.26,2.73.27,3.24,1.47-.94.45-1,1.59-1.83,1.68.71-.13.35.76,0,.21a1.5,1.5,0,0,0,1.62.84c.08.84-.65,2,0,2.73-.14-.71.42-.69.61-1.05.44.15-.46,2.14.41,1.47-.51-.3.55.22.61-.42-.1,1.55,1.15,1.22,1.82,1.05-.07.71.85.38.81,1.05-1.42-.49-.61,1.33-2,.84,0,.91-.88,1.93,0,2.52-.21-.68,1.18,0,1.22.42.65.12.63-.39,1,0-.27-.7-1.13-.79-1.62-1.26-.18-.54-.33-1.19.2-1.47.26.43,1,.38.81,1.26.65.19.28-.69.81-.63-.4,1.13,1.71.73.81,1.68,0-.26-.06-.5-.41-.42-.06.28-.29.4-.2.84.24,0,.58,0,.61.21-.33,0-.11.58-.41.63-1.4-.43-1.49.48-3,0,.06.71.68.84,1.22,1.05,0-.25,0-.6.2-.63s.32.23.41.42l-.61.63c.8,1.62,2.24,1.65,4.26,1.68,0,.49.35.62.2,1.26-.47-.43-.47.09-.2.42-.82-.29-.64.46-1.22.42s-.23-.61-.61-.63a.55.55,0,0,1-.61.42c.21.47-.37,1.94-1,1.47-.17.59.29.54.2,1-.66.12-.94-.14-1.42-.21-.18.67.67.29.61.84a4.57,4.57,0,0,1-1.82.84c.08.72.55.27.2,1.05.57.17.53-.3,1-.21,0,.52,0,1,.41,1.05.18-.31.3-.67.81-.63-.05,1.24,1.9.41,2,1.47a2.76,2.76,0,0,1,.61-2.1c.89.3.19,1,.81,1.68-.62.15-.39.15-1,0-.4.54.21,1-.2,1.26-.27,0-.19-.37-.41-.42a5.61,5.61,0,0,0-.61,1.05c.66-.26.16.68.81.42.27,0,.19-.37.41-.42.72,0,.75,1.34.2.42v.42c-.12,0-.24,0-.2.21.84-.24.79.44,1.42.42,1-1.31.5-2.63.41-3.78,0,.16-.05.42-.2.42-.43-.61-.14-1.41.41-.63-.47-.61-.77-1.53-1.42-.84,0-1.35.56-.85,0-1.47.75-.15.9.33.81,1.05.51.28.63-.83.81-.21-.36.82.21,1.68.61,2.31q-.05-.69.61-.63c.33.29,1,.18,1.22.63a3,3,0,0,0-1,1.89c.26.54,1-.2,1,.21-.21.84-.81,1.26-.81,2.31.9.06-.12.93.41,1.05a18.76,18.76,0,0,1,4.87,0c0-.61.54-.81.61-1.26,1.14,1.09,1.89,1.16,2.84.42a1,1,0,0,1-.2.63c1.09-.08,1.43.62,2.64.42,0-.31.07-.78-.2-.84a.56.56,0,0,1-.61.42c-.2-.55.4-1.27-.4-1.47-.63-.06.52.61-.2.63,0-.28-.36-.19-.41-.42.2-.28.19-.78.61-.84a4.2,4.2,0,0,1,2.64,1.05c-.12-.6.56-1,1-1.47-.32,1.21,1,1.86-.2,2.94.9,0,.89-.9,1.22-1.47-.56-.07-.23-.63-.81-1.05,1,0,1.27-.64,2.23-.63.09.84-.07,1.72.61,1.26A1.75,1.75,0,0,1,44,105.9c.38,0,.45.24.81.21,0-.64-.73-.51-.61-1.26.42-.12.66-.44,1-.63.37.5-.22,1.48.2,1.68.58-.66,2.91-1.09,2.64.63-.77.22-1.9-.4-3-.42.3.8-.91,0-.61.84,1.28-.43,2,1.08,3.24.63,0,.25,0,.6.2.63,0-1,.37.15.61.21,0-.68.92-.45,1.42-.63a3.09,3.09,0,0,1,.2,1.89c.66-.09,1.75.28,1.82-.42-1.1.16-1.4-.51-1.42-1.47.59.53.35.22,1,0v1.05c.72-.35.64.53,1.42,1,4.14.39,9.11-.45,13-1-.27-.62-.18-1,.41-1.26.09.4-.63.91.2.84.09-.4-.28-1.27.41-1.05-.28.27-.35,1.26.2,1.26.47-.51-.21-1-.2-1.68a13.76,13.76,0,0,0,3.25-.21c-.18-1.14,1.24-.86,1.82-.63.39-.85-.93-1-.2-1.47.64.91,1.6.63,2.23-.21-.17.67.32.65.41,1.05-.39.39-.37-.12-1,0,.36.38.84.47.41,1.68.57.17.53-.3,1-.21.1-.7-1.14-.91-.2-1.26.33,1,.38,1,1,.42,0,1.2-.31,1.09,0,2.1-.78-.46-.77,1-1.42.63.31,0,0,.34-.2.42v-.84c.24,0,.58,0,.61-.21h-1c.26,1-.37,1-.61,1.47,1,0,1,.21,1.83,0,.06-.41-.27-.42-.41-.63.6-.2,1.24-.05,1.42-.21-.33-.07,0-.3.41-.21,0,.4-.23.46-.2.84.55.34,1.17.07,1.62-.63.06.73.55,0,.61.42-.35.34-.52.86-1,1.05,1.58.6,3.5.22,4.26,1.26.64.1.79-.3,1.22-.42,0,.27.26.29.2.63s-.79.17-.61.84c1.22-.44,2.08.41,3.45.42a1.51,1.51,0,0,1,.2-1.47,1.28,1.28,0,0,0,1,.21c-.38.4,0,.53,0,1.05-.39-.09-.37-.6-1-.42-.15.65.56.4.41,1.05,1.24-.82,2.95.73,4.06-.63a6.16,6.16,0,0,1-1.62-1.05c0,.26-.06.5-.41.42a.58.58,0,0,1,.41-.63c.56.12.85.52,1.42.63.3-.11.51-.31.81-.42-.17-.53-.27-1.13.61-1.05-.19-.37,0-1.13-.61-1.05-.27.53.8.66.2.84-.29-.12-1,.25-1-.21.41-.18-.16-1.61-.61-.84.38,0,.12.71.41.84a3.24,3.24,0,0,1-1.42.42c-.41-.55.67-1.76-.2-1.89-.36.39-.45,1.08-.81,1.47-1.72.32-3.27-.25-5.07-.42,0-.31.86-.67,0-.63-.59.19-.06.77-.41.84a4.23,4.23,0,0,0-1.82-.21c.36-.59-1.55-1.27-1.22-.21,0-.28-.36-.19-.41-.42s0-1.73,0-1.89c-.09.76-.26-1.49,1.42-.63-.08.47-1.11,0-1,.63.61.14-.19.45,0,.84.8.1,1.05-.44,1.42.21-.07.24-1,.6-.4.84.43-.57.81.33.81.42,0-.13,0-.25.2-.21,0-.24.29-.33,0-.42.06.43-.59,0-.61-.21.4-.91,1.46-1.15,2.43-1.47.06.43.54.42.81.63.43-1.1.62-2.07,1.22-3.36-.49-.49-1.15-1.16-.81-2.1a19.78,19.78,0,0,0,2,1.89c-.54-.63-1.27,1.09-.81,1.47.28-.13,0-.81.41-.84a.57.57,0,0,1,.41.63c-.38,0-.45.24-.81.21.34.42,0,1.56.41,1.89,0-.26.06-.5.41-.42.22-.54-.62-1,0-1.26.76,1.22-.51,1.93-1,2.52A7.7,7.7,0,0,1,87,108c-.06.48,0,.79.41.84a3.27,3.27,0,0,0-.81-1.68c-.06-.48.59-.23.61-.63-.16,0-.4,0-.41-.21.82-.41.94,1,1.42.21-.77-.82-.66-1.92-1.62-1.05.41-.42-.06-1-.2-1.47.63.56.79-.57,1.22,0-1.31.63.82.23,0,1.05,1.08-.1.68.53.61,1.26.62,0,.14-.54.81-.84-.06.45.55,1.74,1.22,1.26-.73-.22.06-.83,0-1.05.42.06.19.78.61.84a.59.59,0,0,0,0-.84c1.07.18,0-.51.81-.63.72.34,1.68,1.63,1.62.42.51.58,2.57.71,3,.63-.39-.09-.87-.08-.81-.63a7.68,7.68,0,0,1,3.85.84c-.24,0-.22-.33-.2-.63a8.86,8.86,0,0,1-3.24-1.26c2-.2,6.29.84,7.71-.42-.16,0-.4,0-.41-.21a1.28,1.28,0,0,0,1-.21c.28-.48-.52-.79,0-.84,1.76-.11,4.62-1.88,6.49-1.89.07-1,.61-.2,1-.84.49-1.24-.59-2.2-.61-3.57h.61a1.21,1.21,0,0,1,.2-.84c-.3-.12-1,.24-1-.21.81-.14.48-1.46,1.42-1.47.06-.41-.27-.42-.41-.63.65-.51.88-1.47,1.42-2.1-.53.06-1,.07-.81-.63a.93.93,0,0,1,.61.21A6.59,6.59,0,0,1,115,85.52a.56.56,0,0,1-.61-.42c1.06.13,2.07-2.36,3.65-1.05a4.63,4.63,0,0,0,2.64-3.15c0-.14-.38-1-.41-1.26-.15-1.85.55-5-.81-4.83-.25-.68.66-.16.41-.84-1.79-.19-.33-1.76-1.42-1.68.72-1-1.39-1.92,0-2.52-.58,0-1-.05-1.22-.42.29-.12,1,.24,1-.21-.65-.21-1.31-.41-.81-1.26-.62-.13-1.75.27-2-.21.86-.53,1.58-1.41.81-2.31-.53-.62.2.16.2-.63a9.52,9.52,0,0,0-.81-3.15c1.3-1,2.12-2.56,3.24-3.78-1.27-3.8-2.3-7.84-4.87-10.29.64-.15.26-.56.2-1.05-1.49-.07-2.57-.44-3.45.42.15-.61,1-.54.81-1.47a2.29,2.29,0,0,1-1.83-.42v-.42a9,9,0,0,0,2.64.21c.09-.67.28-1,.61-.42.37-.86-1.06-1.32.2-1.26.1-1-2.25-1-1-1.89-.62-.15-.6.36-1.22.21.17-.59-.29-.54-.2-1a.56.56,0,0,0,.61-.42c-.76.16-1-.24-1-.84-1-.34-.65.73-1.42.63-.1-1.15,1.07-1,1.22-1.89-.7.18-.7-.32-.41-.63-1.25.39-1-.74-2-1.05.5,0,1,0,1-.42-.5,0-1,0-1-.42.38-.3.9-.47.81-1.26-.85-.47-2.29.11-2.84-.21a1,1,0,0,0,.61-1.68c.74-.07.93-.72,1.22-1.26-1.47-1.7-2-1.15-2.84-3.36.4-.52.49-1.09,0-1.47.8.06.29-.73.41-1.47,0,.17-.67.64-.61.21.69,0,.48-2.26,0-1.05.12-.7.59-.72.2-1.47a2.71,2.71,0,0,1-1.22-.42c.12.83-.45.93-1,1,.06-.43.41-.56.61-.84-.5,0-1,0-1-.42.77-.53,1.31-1.3,2-1.89-.52,1.23.38.91.81,1.89-.33-1.17.71-2.49-.2-2.94,0,.25,0,.6-.2.63-.28-.27-.09-1-.61-1.05a1,1,0,0,1-.41,1.05c-.61-.2-.38-.95,0-.21A16.64,16.64,0,0,0,102.21,16a5,5,0,0,1,.81-.84,4.44,4.44,0,0,1-2,.42c0-.3.33-.35.41-.63a4.39,4.39,0,0,1-2.64.21c.59.06.78-.81.2-.84.37.89-1.06.75-.41.21a6.2,6.2,0,0,1-1.62.63c-.17-.6-.81-.71-1.22-1-.28.27-.09,1-.61,1-.3-1.08.48-1,.61-1.68-.24,0-.58,0-.61-.21.42-.13.77-.33.61-1.05-.36.12-1.19-.25-1.22.21.25,0,.48.06.41.42-.38-.2-.68.63-.81,0a3.54,3.54,0,0,0,.41-1.47c-.95.21,0-1.58-.61-1.68-.4.54.21,1-.2,1.26-.21-1-.89-.73-1.22-1.26,0,.4-.23.46-.2.84.24,0,.58,0,.61.21-.27,1.3-1.36.53-1.83,1.47-.45-.3.26-.51-.2-.63-.06.28-.29.4-.2.84.36.12,1.19-.25,1.22.21-.69.38-1,0-1.82,0a1,1,0,0,1-.2.63c.85-.09-.62.77.41,1-.89-.24-1.43.51-2.23-.42.41-.23.83-1,1.42-.42.37-1.1,1-2.88-.61-2.31,0-.59-.76-.49-.2-1.05A2.42,2.42,0,0,0,86,11.35c.35-.78-.12-.33-.2-1.05.63.35,1-.78.61-.21-.72-.07-1,0-1.22-.21.3,0,.19-.51.2-.84-.78-.17-.24,1-1,.84-.45-1.29-.05-1.51-.2-2.31,0,.35-.56.12-.61.42.34.09-.32.9-.61,1.05A1,1,0,0,0,82.54,8c-.11.37-.1.87-.41,1.05-.56-.05-.62-.62-.81-1.05.69-.12,1.48-.15,1.42-1.05-.62-.16-.39.58-1,.42.05-1-.86-.45-.61-1.47-.51-.28-.49,1-.81.21.13-.57.85-.52.81-1.26-1.13.07,0-1-.81-1.05,0,.16-.17.24-.41.21-.22.54.62,1,0,1.26-.54-.88-.5-1.05-.41-2.52-.83.54-.12,1.76-1.42,2.52.24,0,.58,0,.61.21-.27.51-.75-.23-.81.21ZM76.45,0c-.16,1,1.06.51,1.42.42A3.24,3.24,0,0,1,76.45,0ZM97.75,109.89c-.29.19-1.77.92-1.82,0,.85.53,1-.53,1.82,0ZM48.26,109c.61,0,.69.55,1.22.63-.3.92-1.33.14-1.22-.63Zm-5.27.63c-.38-.09-1.22.29-1-.42.3-.33,1.16-.31,1,.42Zm40-1.68c.57.11,1.05.31,1.62.42-.76,0-2.18,1.22-2.23,0,.3.3.78.31.61-.42Zm-37.72-.21a1,1,0,0,1,.61.63,2.15,2.15,0,0,0-.2,1.68c-.86-.41-.43-1.29-.41-2.31Zm44.41,0c.62-.55.67.94.61,1.26-.41-1-1.29-.57-1.83-.63,0-.78,1.78-.39,1.22-.63ZM70,107.58c0,.73,1.09,1.56.2,1.89-.74.2-.21-.91-.61-1.05-1,.11-1.08.09-1.82.21.62-.63,1.12-1.49,2.23-1.05Zm32-.42c-.24.31-.18.94-.81.84-.31-.67-.07-.92.81-.84Zm-74.83-1.89c.86.21-.29,1.28.61,1.26,0,.42-.55.27-.41.84-.17-.45-.77-.47-.81-1.05.61.08.42-.68.61-1Zm75.44-.21c.69.24.32.42,1.22.21a1,1,0,0,0-.2.63c-.36-.15-.63-.23-.81,0-.28-.07-.17-.53-.2-.84Zm4.87-2.31c0-.18.08-.2.2-.21h.41c.21.92-.69.69-.61,1.47-.79-.3.41-1.35,0-1.26ZM21.7,97.07c.9,0,.15,1.23-.41,1.05-.15-.65.56-.4.41-1.05Zm-5.07-6.51c-.12.5.25,1.52-.2,1.68.3-1-2.34-1.23-2.43-.21,1.08.5,2.59.15,2.84,1,.38,0,.45-.24.81-.21a15,15,0,0,1-1-2.31Zm1.82-1.26c.49-.81,1.1,1.56,0,1.26,0-.38-.25-.44-.2-.84h.41c0-.24,0-.37-.2-.42Zm-1.82-1.47a3.58,3.58,0,0,1,.61.84c.62.16.39-.58,1-.42-.34.42,0,.27,0,.84-.43-.1-.39.3-.41.63-.3.11-1-.25-1,.21-.71-.36.4-.54.81-.42a1,1,0,0,1-.2-.63,2,2,0,0,1-1.62-.21c.37-.71.84.13.81-.84Zm1.82-1.89c.77.26,0,.86.41,1.47-.35.08-.38-.16-.41-.42a.93.93,0,0,1-.61.21c.13-.5.88-.35.61-1.26ZM14.8,85.1c-.06.73,1.91-.64,1.22.84-.19-.35-.75-.74-.61.21-.69-.24-.32-.42-1.22-.21.12-.2.47-.78-.2-.63-.66-.24.54-.24.81-.21ZM5.88,83.2c.84.11,1.6.31,2.43.42-.37.18-.56.54-1,.63.12-1.18-.45-.12-1-.21.66-.66-.6-.08-.41-.84Zm.81-1.26c1.93-.23,3.66.39,5.68.63-1.31.44-4.28.41-5.68-.63Zm7.5-.63c.27.35,1.15.07,1.42.42-.26.45-1.56.23-1.42-.42Zm-3.24-2.1c0,1.15,1.52.47,1.83.42-.12,0-.24,0-.2-.21.12,0,.24,0,.2-.21Zm3.24-14.5c.27.27.61.13.81-.21.17,0,.19.08.2.21v.42c-.49.14-1,.42-1-.42Zm1.62-6.3c.17,0,.19.08.2.21.24,0,.36,0,.41-.21.28.06.17.53.2.84-.36-.43-.63-.18-.81-.42v-.42Zm-5.48-7.56c.7-.1.12,1.14.61,1.26-.76.9-.55-1-1.22-.84,0-.3.61-.07.61-.42ZM13.79,50a1,1,0,0,1-.2.63c.27.07.39.3.81.21a1,1,0,0,1,.2-.63c-.38,0-.45-.24-.81-.21Zm-4.87-.63c.31.75-.69.13-.61.63.84.13,1,1.34,1.83.42a.9.9,0,0,1-.61-1.05Zm8.31-4.62c0,.24-.23.33-.41.42a.94.94,0,0,1-.61-.21c0,.9,1,.58,1.22.42-.63.06.52-.61-.2-.63ZM46,10.51c.44,0,.44.53.41,1.05-.36,0-.43-.26-.81-.21.09-.33.64-.18.41-.84Zm.41-1.26c.16.47.67.56.61,1.26-.76-.07-.82-.7-.61-1.26ZM91.66,8.4c.27.08.32.37.61.42-1.12.28-.07,1.25-.2,2.31-1.17-.23-.09-1.47-1-1.89-.06-.55.79-.16.61-.84ZM85.58,7.14c.58.15.53,1.66.41,1.89a1.91,1.91,0,0,1-.41-1.89Zm6.08-.21c.22.05.14.42.41.42-.37.6-2-.09-1.62,1.26-.35-.27-.8-.43-.81-1.05.82-.06,1.86.11,2-.63ZM46.24,6.51c.84.88-.53,1.26-.41,2.1H45c0-.3,0-.59-.2-.63.22-.7.62,0,1.22-.42-.13-.21-.47-.22-.41-.63.27-.25.32-.08.61,0V6.51ZM42.79,6.3c.67.32-.42.51-.2,1-.81-.23-.14-.83.2-1Zm-1.62-.63c.53-.06,1-.07.81.63C41.59,6.21,41.1,6.23,41.16,5.67Z"/><path class="cls-2" d="M13.18,74.95H27.84a1.26,1.26,0,0,1,1.26,1.26h0a1.26,1.26,0,0,1-1.26,1.26H13.18a1.26,1.26,0,0,1-1.26-1.26h0A1.26,1.26,0,0,1,13.18,74.95Z"/><path class="cls-2" d="M19.59,66.47h8.25a1.26,1.26,0,0,1,1.26,1.26h0A1.26,1.26,0,0,1,27.84,69H19.59a1.26,1.26,0,0,1-1.26-1.26h0A1.26,1.26,0,0,1,19.59,66.47Z"/><path class="cls-2" d="M1.26,83.43H27.84a1.26,1.26,0,0,1,1.26,1.26h0a1.26,1.26,0,0,1-1.26,1.26H1.26A1.26,1.26,0,0,1,0,84.69H0A1.26,1.26,0,0,1,1.26,83.43Z"/><path class="cls-3" d="M93.22,65h9a10,10,0,0,1,4.67.95c-.12-.67-.86-1.17-1.68-1.79a49,49,0,0,0-9.3-5.44C93,57.4,90.46,57,90.3,59.65c0,0-.16,4.32-.11,6.8A3.85,3.85,0,0,1,93.22,65Z"/><path class="cls-4" d="M97.26,98.26A3.69,3.69,0,1,1,101,94.57a3.69,3.69,0,0,1-3.69,3.69Zm0-10.42A6.73,6.73,0,1,0,104,94.57,6.73,6.73,0,0,0,97.26,87.84Z"/><circle class="cls-5" cx="97.26" cy="94.57" r="1.02"/><path class="cls-4" d="M96.65,92.11a.61.61,0,0,0,0,.08.63.63,0,0,0,1.27,0,.59.59,0,0,0,0-.08,2.3,2.3,0,0,0-1.23,0Z"/><path class="cls-4" d="M94.82,93.87l.06,0a.63.63,0,0,0,.63-1.1l-.07,0a2.3,2.3,0,0,0-.62,1.07Z"/><path class="cls-4" d="M95.44,96.33l.07,0a.63.63,0,0,0-.63-1.1l-.06.05a2.3,2.3,0,0,0,.62,1.07Z"/><path class="cls-4" d="M97.88,97a.57.57,0,0,0,0-.08.63.63,0,0,0-1.27,0,.58.58,0,0,0,0,.08,2.29,2.29,0,0,0,1.23,0Z"/><path class="cls-4" d="M99.71,95.26l-.06-.05a.63.63,0,1,0-.63,1.1l.07,0a2.5,2.5,0,0,0,.38-.49A2.54,2.54,0,0,0,99.71,95.26Z"/><path class="cls-4" d="M99.09,92.8l-.07,0a.63.63,0,1,0,.63,1.1l.06,0a2.55,2.55,0,0,0-.24-.58A2.51,2.51,0,0,0,99.09,92.8Z"/><path class="cls-4" d="M53.35,98.26A3.69,3.69,0,1,1,57,94.57a3.69,3.69,0,0,1-3.69,3.69Zm0-10.42a6.73,6.73,0,1,0,6.73,6.73A6.73,6.73,0,0,0,53.35,87.84Z"/><circle class="cls-5" cx="53.35" cy="94.57" r="1.02"/><path class="cls-4" d="M52.73,92.11a.61.61,0,0,0,0,.08.63.63,0,1,0,1.27,0,.56.56,0,0,0,0-.08,2.3,2.3,0,0,0-1.24,0Z"/><path class="cls-4" d="M50.91,93.87l.06,0a.63.63,0,0,0,.63-1.1l-.07,0a2.3,2.3,0,0,0-.62,1.07Z"/><path class="cls-4" d="M51.52,96.33l.07,0a.63.63,0,0,0-.63-1.1l-.06.05a2.3,2.3,0,0,0,.62,1.07Z"/><path class="cls-4" d="M54,97A.54.54,0,0,0,54,97a.63.63,0,1,0-1.27,0,.58.58,0,0,0,0,.08A2.29,2.29,0,0,0,54,97Z"/><path class="cls-4" d="M55.79,95.26l-.06-.05a.63.63,0,1,0-.63,1.1l.07,0a2.49,2.49,0,0,0,.38-.49A2.53,2.53,0,0,0,55.79,95.26Z"/><path class="cls-4" d="M55.17,92.8l-.07,0a.63.63,0,1,0,.63,1.1l.06,0a2.54,2.54,0,0,0-.23-.58A2.5,2.5,0,0,0,55.17,92.8Z"/><path class="cls-3" d="M108.84,79.55c-1.27-.23-10.6-3.22-12.51-3.85s-1.77-1.54-1.77-2.36-.09-2.4-.09-3.94.63-1.86,2.08-1.86c.91,0,5.12.09,6.84.14a4.82,4.82,0,0,1,3.81,1.9,15.92,15.92,0,0,1,3.44,8.29c0,1.59-.54,1.9-1.81,1.68Zm-11.69,1.9a.18.18,0,0,0,.18-.18,1.49,1.49,0,0,0-1.49-1.49H94a.18.18,0,0,0-.18.18v1.31a.18.18,0,0,0,.18.18ZM114.25,89V83.58c0-3.37-1.5-7.48-3.37-11.1-2.13-4.12-3.18-6.6-8.62-6.6h-9a3,3,0,0,0-3,3V84.41H42.64A1.59,1.59,0,0,0,41,86v6.38A1.59,1.59,0,0,0,42.64,94h2.21a8.52,8.52,0,0,1,17,0H88.76a8.52,8.52,0,0,1,17,0h8.33a1.18,1.18,0,0,0,1.18-1.18V90.17A1.17,1.17,0,0,0,114.25,89Z"/><path class="cls-2" d="M86.55,53.85h-4V75.43H34.61v5.12a2.81,2.81,0,0,0,2.81,2.81H89.36V56.66A2.81,2.81,0,0,0,86.55,53.85Z"/><path class="cls-2" d="M40.43,89.81H38.75a.62.62,0,0,0-.62.62v2.91a.62.62,0,0,0,.62.62h2.36a2.2,2.2,0,0,1-.68-1.59Z"/><path class="cls-2" d="M74.16,64.65l.34-.11q-.16.59-.34,1.13v-1Zm0-1.62v-2c.37-.1.7-.2,1-.31l0,.18q-.1,1-.25,1.82h0c0,.06-.26.16-.72.27Zm0-3.68V55.24q.15.34.28.68a7.22,7.22,0,0,0,2.38-2.55,13.58,13.58,0,0,0,1.53-5.75c0-.08,0-.15,0-.22A5,5,0,0,0,77.17,44a3.85,3.85,0,0,0-2.91-1.25h-.1V41.13h.1a5.49,5.49,0,0,1,4.14,1.8,6.69,6.69,0,0,1,1.5,4.48c0,.09,0,.18,0,.28a17.49,17.49,0,0,1-1.6,6.52,13.55,13.55,0,0,1-3.17,4.4q0,.24,0,.48A8,8,0,0,1,74.16,59.35ZM69,72.17c.69.29,1.09.64,1.09,1,0,1-2.92,1.85-6.53,1.85V65.7a54.16,54.16,0,0,0,8.77-.64,15.81,15.81,0,0,0,1.82-.42v1A11.86,11.86,0,0,1,69,72.17Zm5.14-31v1.66a4.08,4.08,0,0,0-2.86,1.3A5.24,5.24,0,0,0,70,47.5a11.62,11.62,0,0,0,.13,2.34c.38.45.8.9,1.25,1.36.29.3.36.43.66.77a12.72,12.72,0,0,1,2.15,3.28v4.11c-.47.1-1.08.22-1.79.34a54.49,54.49,0,0,1-8.8.63v-24a29.65,29.65,0,0,0,5.17-.4,3.79,3.79,0,0,0,2.41-1.07.72.72,0,0,1,.15.43.84.84,0,0,1-.3.59c-.64.7-2.69,1.55-2.95,4.12a16.11,16.11,0,0,0,0,6c.25,0,.5-.24.71-.84A6.18,6.18,0,0,1,70.09,43a5.73,5.73,0,0,1,4.07-1.83Zm0,19.93v2c-.49.12-1.23.27-2.14.42a52.32,52.32,0,0,1-8.45.61V62a56.38,56.38,0,0,0,9.13-.66c.52-.09,1-.19,1.46-.31ZM63.57,35.24a28.65,28.65,0,0,0,5-.38,5.2,5.2,0,0,0,1.68-.44A5.2,5.2,0,0,0,68.56,34a28.64,28.64,0,0,0-5-.38Zm0,39.79C60,75,57,74.21,57,73.19c0-.36.35-.69,1-1a11.47,11.47,0,0,1-5.15-6.57v-1a15.67,15.67,0,0,0,1.88.43,54.2,54.2,0,0,0,8.8.64h0V75Zm0-41.43v1.64a28.65,28.65,0,0,1-5-.38,5.2,5.2,0,0,1-1.68-.44A5.2,5.2,0,0,1,58.59,34a28.64,28.64,0,0,1,5-.38Zm0,2.68a29.65,29.65,0,0,1-5.17-.4A3.8,3.8,0,0,1,56,34.81a.72.72,0,0,0-.15.43.68.68,0,0,0,.09.33c.26.77,2.83,1.48,3.12,4.39a16.1,16.1,0,0,1,0,6c-.28,0-.57-.17-.8-.85A6.17,6.17,0,0,0,56.93,43a5.74,5.74,0,0,0-4.07-1.83v1.66a4.08,4.08,0,0,1,2.86,1.3A5.24,5.24,0,0,1,57,47.5,11.4,11.4,0,0,1,56.89,50c-.32.37-.66.73-1,1.11l-.81.87a12.44,12.44,0,0,0-2.2,3.37v4c.48.11,1.11.23,1.84.35a54.58,54.58,0,0,0,8.84.63h0v-24Zm0,25.75v2h0a52.4,52.4,0,0,1-8.49-.61c-.95-.16-1.7-.31-2.19-.44V61c.46.12,1,.23,1.51.33a56.41,56.41,0,0,0,9.17.66ZM52.86,65.64q-.18-.53-.32-1.12l.32.1v1Zm0-24.52v1.66h-.1A3.85,3.85,0,0,0,49.85,44a5,5,0,0,0-1.18,3.37c0,.07,0,.14,0,.22a13.58,13.58,0,0,0,1.53,5.75,7.2,7.2,0,0,0,2.41,2.57q.12-.31.25-.62v4a7.33,7.33,0,0,1-1-.26q0-.22,0-.44a13.43,13.43,0,0,1-3.22-4.44,17.49,17.49,0,0,1-1.6-6.52c0-.09,0-.19,0-.28a6.69,6.69,0,0,1,1.5-4.48,5.49,5.49,0,0,1,4.14-1.8Zm0,19.91v2c-.43-.11-.66-.19-.66-.26h0Q52,61.9,51.92,61q0-.11,0-.21C52.19,60.85,52.51,61,52.86,61Z"/></g></g></svg>