<svg xmlns="http://www.w3.org/2000/svg" viewBox="0 0 94.67 107.27"><defs><style>.cls-1,.cls-7{fill:#f4f3f0;}.cls-1,.cls-2,.cls-3,.cls-4,.cls-5,.cls-6,.cls-9{fill-rule:evenodd;}.cls-2{fill:#545d63;}.cls-3{fill:#b2b2b2;}.cls-4{fill:#fff;}.cls-5{opacity:0.24;}.cls-6{fill:#08366b;}.cls-8{fill:#e2e8ec;}.cls-9{opacity:0.06;}</style></defs><title>Ресурс 13</title><g id="Слой_2" data-name="Слой 2"><g id="description"><path class="cls-1" d="M30.48,8.54c.13.48-.3.46-.17.93-.32.15-.11-.89-.35-.31-.41-.13.14-.68.17-.93.19,0,.12.31.35.31Zm19.9,98.61c-.32-.82.78.1,1.39-.31-.23.94-1-.14-1.39.31Zm3.12-5.75c0-.18-.32-.13-.52-.16.38-.13.39-.59.87-.62.16.29-.52.52,0,.62-.26.18-.42.45-.87.47a1.24,1.24,0,0,1,.52-.31ZM23.9,99.85c0-.06-.17-1.26-.69-.62.43-.52,1.41.14.69.62Zm12.46-.78c.23-.26.56.69,1.21.16-.2.53-.34.24-.17.93-.52.16-.31-.35-.35-.62-.83-.23-.16.89-.87.78.16-.23.34-1.23.17-1.24Zm-8.48-.16a5.64,5.64,0,0,1-1.56.16,2,2,0,0,1,1.56-.16ZM23,99.38a3.06,3.06,0,0,0-1-.78c.21-.23,1.17.19,1,.78ZM28.92,98c.56-.31.43.72.52,1.09-1,.1.4-.92-.52-.78.11-.14.21-.28,0-.31Zm0-1.55c-.21,0-.6.45-.17.47-.55.47-.2-.44-.17-.78a.84.84,0,0,1,.52.47c-.09.24-.18,0-.17-.16Zm-3.81.62c-.26-.18-.77-.14-.69-.62.39.37.52-.19.69-.47.61.14.57,0,1,.31-.16.12-1.4-.23-1,.78Zm3.29-1.24c-1,.11-2.39-.37-2.08.31.23-.12,2.21,0,2.08-.31Zm6.92-3.57c.15.55,0,.38.17.93-.53-.35-.76-.82-1.21-.62-.28-.39.38-.44,1-.31ZM28.23,93c.2.19.49.28.35.78-.37.07-.33-.22-.35-.47-.23,0-.32.65-.35,0a.87.87,0,0,1-.52.16c0,.29.59.1.69.31-.22.62-1.33-.47-1.21.31-.48-.15.25-.41-.17-.62-.52,0-.59.57-1,.16-.24.06,0,.27.17.31-1.06.16-2.35-.45-2.94.47-.2,0-.15-.28-.17-.47-.16.09-.64.36-.52-.16,1.55-.19,2.8-.3,3.63-.47-.92-.65-2,.16-3.11,0,.4-1.2.77-.54,1.73-1.24-.21.5.56.12.35.62,1-.09,1.47-.25,2.77-.31a1.49,1.49,0,0,1-.69.62c-.36.07-.46-.11-.69-.16-.43,0-.05.53,0,.62.59-.5,1.24-.1,2.08-.47Zm2.08-1.24c0,.15-.21.12-.35.15.22.37.33.84.87.93-.12.34-.91,0-.69-.47-.79.27.7.89-.17.78-.15-.51-.37-1.38.35-1.4Zm49.14-.93c.31,0,.37.19.69.16v.78c-.43.2-.54-.08-.69.15.27-.76-.32,0,0-1.09Zm-51.73-.47c.4-.4.67.63,1,.78-.24.25-.84-.48-1-.78Zm52.6-9.32c.54,0-.44.45.17.47-.07.52-.67-.41-.52.31-.24.49-.17-.55-.17-.78.14.11.47.24.52,0ZM9.37,79.82q.81-.11.69.62a9.83,9.83,0,0,1-1.21.31c-.51-.32.81-.3.52-.93Zm77.86-.47c.24.38-.75,1-1.21,1.24.15-.64.85-.79,1.21-1.24Zm2.59-1.55c-.05-.41.24-.51.69-.46-.36.31,0,.66.35.78-.39.54-.32-.63-1-.31ZM3,69.1c.53.28-.64.61,0,.93-.34.26-.91-1,0-.93ZM.54,48.76c0-.36.47.06.35.31-.32.17-.83.18-.69.78-.38,0-.07-.66-.17-.93.15.34,1,0,.52-.16Zm1.21-4.81c0-.29.59-.1.69-.31a1.57,1.57,0,0,1-.35-1.86c.37,0,0,1.45.52.78.49,1.06-.86,2.66.35,3.26-.75-.24-.7.32-.86,1.09-.22-.61-.57-.21-.87-.62-.51.22-.46,1-.35,1.4-.5-.5-.23-1.25-.52-2.17H.89c-.12-.35-.63-.67-.17-1.09.44.65.24-.16.52-.47.31.28-.19,1.17-.17,1.71.51-.15.5-1.1.86-.16a1,1,0,0,0-.17-1.55ZM3,34.63a.73.73,0,0,1,.35.78c-.15.07-.31.14-.35.31-.29,0,.18-.65,0-1.09ZM55.91,19.57c-.08-.14-.15-.28-.35-.31.05-.21.43-.13.69-.16-.22.32-.28.79-.87.78,0-.43.27-.53.52-.31Zm2.6-.31c-.53-.44,1.07.49.69-.47.47.2.11,1.15.69,1.24,0,.16-.75.31-.17.47-.55.41-.7-.51-1.21-.31a.81.81,0,0,0,.17-.62c.32,0,.11.53.35.62s.14-.39.17-.62-.59-.1-.69-.31Zm-2.25-1.71c.23.05.27.27.52.31-.17.26-.73.17-1,.31-.43-.15.69-.19.52-.62ZM30,16.77c.3,0,.45-.26.52,0,.17,0,.13-.19.17-.31.47.18,0,.81,0,1.09-.59-.8-.62,1-.69-.78Zm-.69-1.09c.45.17-.32.53-.35.78a1.4,1.4,0,0,1-.52-1.09c.26,0,.73.67.86.31Zm2.25,0c0-.25-.16-.27-.17-.47-.26.14,0,.23-.17.62-.69-.24.45-.91,0-.93.26-.51.42.32.86.16-.06.41-.43.54-.52.93a.16.16,0,0,1,0-.31Zm26.3-2.79c-.44.21.25.69.17,1.09-.79-.2-.54-.73-.69-1.24.36-.07.46.11.69.16,0,.18-.17.09-.17,0Zm1.56-.31c.81.05.38.86.35,1.24-.2-.29-.08-.71-.35-1.24Zm-3.46-1.86c.15.1.31.19.35,0,.68-.09,0,1.08.69.93-.07.16-.95.36-.86.15-.25-.1,0-.19,0,0,.48-.24-.54-.44-.17-1.09ZM29.44,7.45c0,1.94.6.3,1-.62A.88.88,0,0,0,30,7c0-.12,0-.31-.17-.31-.36.34.53,1-.35.78Zm41,77.18c-.08.14-.15.28-.35.31,0,.15.21.12.35.16-.24.3-.09,1-.86.78.79-.31,0-1.14.86-1.24Zm-5.88,17.55c-.27.25-3,1.74-4.15,1.71a14.63,14.63,0,0,1,1.56-.62c-.4,0-1.37-.39-1-.93.78.27.8.48,1.73.31,0,.29-.57.11-.52.47.73-.17,1.1-.67,1.9-.78-.32-.28.14-.39,0-.93a2.63,2.63,0,0,0,1.21-.46c-.31-.56-.48.27-.86.15a.68.68,0,0,0,.17-.46,1.61,1.61,0,0,1,1,.16v.62c-.69.06-1.31.17-1.56.62,0,.18.32.13.52.16ZM12.65,19.57c-.2,0-.31,0-.35.16-.38-.26-.21-1.26.35-.16Zm37.72,85.25c.67.31,1.06-.83.35-.78.13.48-.47.3-.35.78Zm8.65-.31c-.83-.27-1.22.66-.35.62-.18-1.08,1,.22,1.21-.31-.25-.24-.57-.42-.69-.78.13,0,.34,0,.35-.16h-.69c0,.29.19.34.17.62Zm-5.19-.62c0,.34.61.07.87.16,0-.35,0-.58-.35-.62.07.37-.79-.09-.52.47Zm5-.93c-.31.09-.72-.45-.87,0,.27.44.63.57.87,0Zm-5.19,2.64c.8-.35-1.3-.9-.69-1.55-.16-.39-.89.42-.86-.31-.47-.11-.35.31-.69.31.33-.64,1.41-.77,1.9-1.24.41-.06-.1.71.52.47-.19.29-.67.33-.87.62.11.46.37-.15.69,0-.58.95.57,1.23,1,1.71-.65,0-.49-.17-1,0Zm2.25-4.19c.86.05.45-.86-.17-.78.19.49-.05.41.17.78Zm-8-1.55c-.57.55-.08.84,0,1.55.91.15.59-.63.52-.78-.54.67-.15-.79-.52-.78Zm15.75,0c.53,0,.88-.14,1-.47-.53,0-.88.14-1,.47Zm-6.57-.93c.55,0,1-.11,1-.62-.45,0-1.15.09-.69-.31-.46.54-1.39-.12-1.21.16.05.47,1.1,0,.87.78Zm5.36,1.4c-.13,0-.34,0-.35-.16-.05-.3.23-.31.35-.47-.76.2-.72.41-1.38.47.22-.37,0-.29.17-.78-.34,0-.34.21-.52.31.15-.56-.59-1,0-1.24.27,0,.13.4.52.31s.32-.54.87-.46c-.1-.32.21-1-.17-1.09-.1.56-.58.78-.52,1.09-.84.13-1.09-.27-1.21-.78.3-.14.86-.05,1-.31a1.37,1.37,0,0,0-1.38.31c.16,0,.46.69.17.62s-.56-.82-.86-.31c-.3.7-.66,1.74.86,1.55a1.4,1.4,0,0,0-.17,1.24c.83.14.89.16.52.78a11.9,11.9,0,0,0,3.12-1.71c.18-.73-.65.31-.52-.47,1.22.36,1.68-.32,2.42-.78-.56-.18-1.06.48-1.38,0,.87-.17.19-.5-.17-.78a3,3,0,0,0,.69-.47c-1-.4-1.27.27-1.73-.47-.5.45.34.49.17,1.09-1.39.05.11,0,0,.62s-1,.42-1.38.78a1.62,1.62,0,0,0,1-.16c-.47.25.4.95-.17,1.24Zm3.29-3.57c.87,0,1-.2,1.73,0,0,.15-.21.12-.35.16s-.1.16,0,.16a5.31,5.31,0,0,0-1.21.78c-.48.07-.16-.58-.52-.62.11-.16.4-.16.35-.47Zm-22.67-.47c.3,0,.39-.27.35-.62-.55.17-.39,0-1,0a.77.77,0,0,0,.69.62Zm13.32-.62c.21,0,.41,0,.35.31.25,0,1.42.06.86-.16-.63.11-.78-1-1.21-.15Zm16.09-.16c.11,0,.2,0,.17.16.2,0,.49,0,.52-.16-.59-.06.26-.85-.17-.78-.1.32-.36.5-.52.78Zm-16.78-.62v-.47c.36-.07.46.11.69.15,0,.27-.3.36-.69.31Zm-14.36.47c.43,0,1.25-.91.52-.93.09.55-.61.38-.52.93Zm31.84-.78c-.2-.49.27-.38.35-.62.24.42.61.6.35,1.09-.17,0-.13-.19-.17-.31s-.32-.13-.52-.16ZM68.37,95c-.5.29-1.6.46-1.21,1.4.53.12.33-.43.87-.31.09-.22-.2-.8.17-.78.58.13,1.66.34,1.73-.62-.33-.29-.43,0-.86,0,.2-.23.61-.65,0-.78-.25.29-.25.81-.69.93-.11-.38-.79-.28-1-.16.54.25.67.14,1,.31ZM40,94.72c0-.45.74-.27.69-.78.7.17,0,.9-.69.78Zm25.43-1.09c-.25-.86-1.13.64-.17.62-.05-.41.36-.4.69-.47.14-.44-.24-.4-.17-.78.1,0,.2-.13,0-.16-.47.28,0,.53-.35.78Zm-.35-1.71c.06-.2.3-.24.35-.46.54-.07.55.33.52.78-.4.12-1.08.59-1-.16.25.43.93-.18.17-.16Zm-27,.31c.72.22.9-.83.52-1.09.12.77-.44.31-.52,1.09ZM63,91.62A1.48,1.48,0,0,1,63.7,91c.18.27.69.93.86.31-.35-.16-.27-.69-.86-.62-.18.27-1.19.58-.69.93Zm-.52-1.24c.39-.11.52-.47.69-.78.24.33-.15,1.41-1.21,1.09-.07-.37.32-.34.17-.78.37-.07.33.22.35.47ZM32,89.91c0-.09,0-.18.17-.16.73,0,.39.89,1.38.62-.86-.82.59-.07.69-.78-.89,0-1.19.28-1.73-.16-.34-.07-.88.42-.52.47Zm32,0c.14-.11.38-.87,0-.93-.14.11-.38.87,0,.93Zm-40.49-.47c.47.06.21.45.87.62-.27-.86.86-.47,1.21-.78-.06.86,1-.58.52.31.56.19.13-.5.69-.31.14-.44-.24-.4-.17-.78-.53.11-.63-.16-1-.16-.28.73-1.51.61-2.08,1.09Zm4.15-1.24c.66.23.69.82,1,.47.19,0,.12.31.35.31-.6.26-1.19,0-2.08.16-.2-.7.77-.35.52-1.09h.52c0,.15-.21.12-.35.16Zm-7.44,1.24c.3.29.54,0,.69-.31-.35-.06-1.43-.25-1.56.16-1.14-.73,1.62-.19,1.38-1.09.56.15.42.44.69-.16,1.32-.14,2.38.07,3.63-.46v.62c-1-.28-3,.57-3.81.47v.62c.71-.56,1.17-.39,2.42-.47-.15.28-.7.2-.52.78-.42-.11-.75,0-1.21-.31-.39.07-.07.76-.17,1.09.46,0,.45-.32.52-.62.16.27.64.25.52.78-1.38.06-1.68.36-2.94.31.17-.21.47-.3.52-.62.19,0,.12.31.35.31s.22-.63.87-.47c-.32-1-1.25.3-1.38-.62Zm2.08-2.17c.6,0,1.33.06,1.38-.47a1.75,1.75,0,0,0-1.38.47ZM65.25,87c.43,0,.42.35.69.47-.7.23.56.79.17,1.71.95-.45.31-1.58.69-2.33a2.71,2.71,0,0,0-.52-.62c-.2.88-.2-.49-.69-.31-.19.5,0,.55-.35,1.09ZM22.17,85.41c0-.1,0-.18.17-.16a.43.43,0,0,0,.35.46v-.78a.88.88,0,0,1-.52-.16c.24.35-.45.58,0,.62ZM21,85.56c0-.44-.65-.36-.17-.78-.5.75-1.28.3-1.73,1.09-.57,0-.18-.88-.52-1.09A4.1,4.1,0,0,0,17,86.49c.43.53,1.14,0,1.38.16-.2.49-1,.44-1,1.09,1-.62,2.79-.5,3.46-1.4,0,.24,0,.54.35.47-.24-.89,1.33-.51.35-1.24-.1.92-.64.38-1.21.31.08.55-.92.92-1.21.62.46-.49,1-1.34,1.9-.93Zm47.06,0c0-.56.32-.75.35-1.24-.77,0-.44.91-.35,1.24ZM18.19,83.39c-.33-.07-.31-.44-.86-.31-.16.76.55.63.86.31ZM67.33,84c0-.29-.2-.34-.17-.62.21,0,.41,0,.35-.31-.86-.53-1.08.82-.17.93Zm-51.56-.47c.68-.2.42.45.87.47.13-.36.47-1.33-.35-1.24.08.49-.47.41-.52.78Zm52.08-.78c.43,0,.54.24.87.31.23-.93-.64-.84-.87-.31ZM14.9,81.68c-.1.37-.27-.46-.86-.15,0,.61,1.47.75.86.15ZM74.6,77c.61,0-.43.58.17.62.29-.12.86-.77.52-.93-.16.45-.64,0-.69.31Zm9.17-2.64c-.34,0-.34-.21-.52-.31-.05.37-.6.29-.52.78.82.06,1.09-.37,1.56-.62a.87.87,0,0,0-.52.16Zm-74.92.47c-.26-.24-.77-.17-.69.31.49.13.45-.22.87-.15,0,.12,0,.31.17.31s0-.31.17-.31c-.48-.66-.48-1.74-1.38-2,.23.61.15.68-.35.31-.08.49.25.61.35.93.56-.25,1-.13.87.62Zm73.71-.93c0-.12.15-.18.35-.15,0-.29-.19-.34-.17-.62.27,0,.12-.45,0-.16s-.45.6-.17.93Zm-78.9-.46c.5,0,.82-.19.69-.78H3.83c.09.49-.6.41-.17.78Zm12.63-.16c.71.06,1.09-.16,1-.78a1.36,1.36,0,0,0-1,.78Zm-2.42.93c-.16-.29.52-.52,0-.62-.32-.48-.29-2-.86-2.64,0,.12-.15.18-.35.16a2.83,2.83,0,0,0,.35,1.4c0-.17.29-.37.35-.15-.64.46.16,1.37.52,1.86ZM84.46,71.9c.33-.53,1-.76,1-1.55-.55,0-.58.41-1.21.31.2.64-.09.81.35,1.09-.18,0-.44.07-.17.16ZM12.83,70.81c-.24-.63.38-.49.35-.93h-.87c.13.35.1.84.52.93Zm75.09-.62c.31-.65.73.65,1,0a.43.43,0,0,1-.35-.47.68.68,0,0,1,.17-.47c-.42.1-1.18.69-.87.93ZM9.37,68.63c.11-.62-.43-1.46-.87-1.09.78-.08.25,1,.87,1.09Zm10.38-7.3c.54.07.49-.39.69-.62h-.69v.62Zm.69-2a7.36,7.36,0,0,0-.69-1.4c.08.49-.53.35-.35.93.6-.17.87.75,1,.47Zm-9.17-1.86c0-.22.28-.26.35-.47-.56.19-.13-.5-.69-.31,0,.39,0,.75.35.78Zm2.94-2.17c.63-.1.52-.69.35-.93-.35.42-.16.59-.35.93Zm-2.94.16c-.1-.37.22-1.13-.17-1.24,0,.52-.37,1,.17,1.24Zm9.34-1.55c-1,1,.76,1.94.17,2.33a.87.87,0,0,1,.52.15c.12-.48.12-.3,0-.78.22,0,.24.2.52.15a.81.81,0,0,1,.17-.62c-.77.44-.77-.6-.52-1.09-.52-.16-.31.35-.35.62-.3-.06-.44.23-.52,0,.48-.33-.47-.27,0-.78Zm-1.73.78c-.11-.68-.08-1.08.17-.31.68,0,0-.78.35-.78.77,0,.26,1.12.69,1.4-.56.54-.41-1-1.21-.31Zm-1.73-.93c-.13-.53.7-.2.52-.78A1.06,1.06,0,0,1,17,52.8c.1.27-.21.91.17.93Zm3.11-.47h1c0-1.1-.39-.61-.86-1.4-.39.5.15,1-.17,1.4ZM19.4,53c.27-.55.56-.52.52-1.55.32-.38.12,1,.17,1.4-.31,0-.36.19-.69.16Zm.35-1.86a3.19,3.19,0,0,0,.69-.78c-.34,0-.22-.42-.69-.31,0,.28-.47.9,0,1.09Zm-5.36-.78c.08.49-.31.55-.17,1.09.62.07.4-1,1-.47.14-.45.82-.75.17-1.09,0,.52-.75,1.06-1,.47Zm-.17-.16a.93.93,0,0,1,.17-.78c.51,0,.46.93-.17.78ZM5.73,45.81c0,.29.19.34.17.62a.77.77,0,0,0,.69-.62c-.33,0-.38-.17-.69-.15,0,.09,0,.18-.17.15Zm-1-9.16c0-.23.42-.14.69-.16-.1-.48,0-1.18-.52-1.24C5.4,36,4,36,4.7,36.65Zm76.65-1.4c.16.66.17.9-.35,1.4.33,0,.38.17.69.16-.15-1,.78-1,.69-1.86-.54-.07-.68.22-1,.31Zm-13.15.16c-.29-.25-.18-.87-.69-.93,0,.42.29.31,0,.62.56-.19.13.5.69.31Zm12.46-.93c-.27-.49,0-.88,0-1.55.51.37.39,1,.52,1.4,0,.55-.57-.33-.52.16Zm-14.36-2c-.05.42,1,.63,1.21.31-.49,0-.69-.76-1.21-.31Zm2.77-.62c.14,0,.2.13.17.31.55,0,.57-.52,1-.62-.55,0-1,0-1.21.31Zm-4.67-1.24c0,.12-.15.18-.35.16-.15.76.57.73.35,1.55.73.19.76-.25,1.21-.31,0-1.22-1.34-.78-1.21-1.4Zm3.29,0c.17.14,1.5.43,1.38-.16a2.21,2.21,0,0,0-1.38.16Zm-45.85-.31a16.09,16.09,0,0,1-.52,2.79h.35c.13,0,.34,0,.35-.16-.69-1.27.91-2.14.17-3,0,.19-.05.37-.35.31ZM9.71,31.37c.4-1.3-1.85-.76-2.42-1.4-.1,1.4-.91,2.57-.52,3.57.48-.61.23-1.87,1-2.17-.2.18-.2.55-.17.93a5.56,5.56,0,0,0,1.56-1.71c0,.45,0,.85.52.78Zm54.85-.93c-.5-.26.59-.39.35-.93.23.16.34.42.69.47,0,.18-.32.13-.52.16,0,.13.07.15.17.16,0,.54-.64-.39-.69.15Zm-.17-.31c0-.49,0-.94-.35-1.09-.1.11-.21,1.1.35,1.09Zm5.36-.93c.26.19,1.49.31,1.73,0-.42-.43-1.42-.69-1.73,0Zm-1.9,3c.56-.7.71-1.23,1.73-1.4-.2-.3-.82-.64-.52-.93-1.06.22-1.93-.37-1.9.78-.49,0-.5-.67-.52.16-.62.09-.53-.46-.52-.93.11-.21.67,0,.69-.31-.11-.46-.37.15-.69,0-.29-.73.81-.2.52-.93a1.05,1.05,0,0,0,.69.16c-.44.4,0,.75.35.93a7.85,7.85,0,0,1,1.9-.47c-.33.92.24,1,1.21.78.27.24.31,1.06-.35.93,0-.28.21-.33.17-.62a2.24,2.24,0,0,1-1.9.93c.07.63-.18,1-.87.93Zm.52-3.73c-.22,0-.24-.2-.52-.16.18.62-.27.69-.52.93.8.26,1.67-1.22.86-.93.11,0,.21,0,.17.16ZM9.89,29c.41.21,1-.49.87-1.24-.65.09-.2,1.17-.87,1.24Zm59.17-.62c.22-.42.4-.88,1.21-.78-.5.17-.25,1-.69,1.24l-.52-.47Zm-.87-.78c-.26.47-.77-.11-.69-.47h.69c0,.23-.73.49,0,.47Zm-8.65-.78c.45-.07.51-1.29.17-1.55a1.56,1.56,0,0,0-.17,1.55ZM19.75,28.11c.63,0,.48-2.26,1.56-3.11C22,25,20,26.66,21,27c-.93.53-.23,1.7-.87,2.33,1,.16-.25.68.17,1.55.29-.16.19-.66.35-.93.41.8.91,1.76-.17,2.48-.14-.77-1,0-.87-.93a.51.51,0,0,0,.87-.31c-.51.08-.49,0-1.21-.31.2-.89,1.12-1.67.52-2.79ZM20.44,25c-.81-.54,0,.79-.69.31-.08.49.37.5.86.47-.14-.38.63-1.08-.17-1.09V25Zm34.09-.16c-.24-.47.65-1.06-.17-1.09.1.32-.21,1,.17,1.09Zm3.63-1.09c.54.2-.38.74.35.78.3-.15.8-.92.52-1.09.08.43-.94-.12-.87.31ZM15.77,23.6a.87.87,0,0,1,.52.15.68.68,0,0,1,.17-.47c-.26-.24-.77-.17-.69.31Zm29.41-.16c.06-.79.27-.66.35-1.24-.51,0-.71,1-.35,1.24Zm3.11.31c.07-.3.06-.67.52-.62.44.64-.66,1,.17,1.4,0-.12.15-.18.35-.16-.15-.79-.21-1,.52-1.24-.2,0-.88-.54-.17-.47-.12-.48-.12-.3,0-.78-.68-.25-.06.67-.52.62-.07-.3-.06-.67-.52-.62.14.44-.24.4-.17.78A.48.48,0,0,1,49,23c-.58-.15-1.16.5-.69.78Zm-.17-2.17c-.1-.27.21-.91-.17-.93-.05.25-.25,0-.17-.31h-.52a1.65,1.65,0,0,0,.87,1.24Zm1-.62c-.14-.44.24-.4.17-.78.59-.12.22.63.87.47-.12.13-.27.42,0,.47-.38.58-.46-.39-1-.16ZM14.9,20.81c.09-.54.74-.58.87-1.09-.27,0-.14-.4-.52-.31-.2.29-.82,1-.35,1.4Zm30.45.78c.08-1.22.85-1.83,1.38-2.64-.14.32.52,1.72-.35,1.86-.66,0-.06-.13-.17-.47-.57.16-.08,1.27-.87,1.24Zm-20.24-2c.68-.16.8-.73,1.21,0a.69.69,0,0,1,.17-.47c-.22-.22-.91,0-.69-.62-.26,0-.64-.06-.69.16.33,0-.2.52,0,.93ZM54,17.39c0,.76.61.19.86.47a.93.93,0,0,1,.17-.78c-.61.06-.34.68-1,.31Zm-2.6.16c-.33-.18.14-.77-.35-1.09,0,.45-.94.91-.35,1.4a.47.47,0,0,1,.52-.31c0,.09.14.18.17,0ZM32.21,12.89c-.08-.49.25-.61.35-.93H32c-.12.39-.17.64.17.93Zm1.38-1.4c.33,0,.38.18.69.16a.8.8,0,0,1,.17-.62c-.4.05-.75.16-.87.47Zm.69-.62v-.62c-.67-.12-.67.74,0,.62ZM28.92,6.21c0,1.28-.65.83-.35,1.71-.35-.31-.34.07-.69.15.27.55-.09.69.17,1.24-.25-.17-.42-.17-.52.16.81-.16-.28.52.35.62.49-.39,1.23-.55,1.56-1.09-.12.8.18.68.52,1.24,1.17-1.14.26-3.74.52-4.66-.18.45-.23.78-.86.47-.37.47.23,1.11-.52,1.4.17-.4.49-.75,0-.93.1-.14.71-.57.35-.62a.47.47,0,0,1-.52.31Zm4.33,9.16c.11-.89.93-2,.52-2.8-.4.68-.34-.26-.17-.47-.73-.14-.18.88-.86.78.54.66-.22.6.17,1.4-.33,0-.38.17-.69.16v-.62c-1-.07-.88.93-1.56.31a14.6,14.6,0,0,0-1,4.81c.38-.57.38.46.86.31a3.42,3.42,0,0,1,1.21-1.71c0-.32-.77,0-.69-.47a1.27,1.27,0,0,1,1-.78,2.53,2.53,0,0,1-.52,2c.33,0,.38.17.69.15.44-1.19.48-1.8.86-2.95-.25-.34-.42.2-.52-.16,0-.17.19-.24.35-.31,0,.19.05.37.35.31ZM8.85,69.1c-.56,0-.37-.7-.52-1.09.45.12.6.5.52,1.09ZM39.13,95.66c-.72,0-.6.8-1,1.09.56.14.24-.51.69-.47-.05.41.67.12.52.62.79-.09.71-.9,1.38-.31.05-.21.25-.3.17-.62-.7-.09-2.19.3-1.73-.31ZM69.75,83.08a1.23,1.23,0,0,0-.87-.16c.24.49-.43.94,0,1.09.42-.42.64.47.17.62.92-.14.4-1.17.69-1.55Zm11.42-3c0-.22.38-.18.52-.31,0-.53.05-1.08-.35-1.24,0,.57-1,.23-.87.93.3.15.35.52.69.62Zm-36-73.76c-.24-.25-.15-.8-.52-.93-.09.23.2.8-.17.78A3.15,3.15,0,0,0,43.8,4c-.61-.08-.43.55-1,.47V3.42c-.82,0-1-.51-1.38-.93-1.19.29-1.8-.25-2.6.15A.69.69,0,0,1,39,2.17c-.51,0-.53.35-1,.31.15-.6-.29-.67-.52-.93-.77.43.14-.37-1-.31-.18.14-.05.57-.52.47,0-.23.06-.57-.17-.62a1.1,1.1,0,0,1-.35.47c0-.21-.3-.14-.35-.31.19,0,.27-.17.35-.31-.54-.2-.49,0-1.21,0,0-.37-.3-.46-.17-.93a3.57,3.57,0,0,1-1.38.15c-.07.4-.54.45-.87.62.07-.37-.32-.34-.17-.78-4.26,2.32-4.46,9-6.4,12.89.15.55,0,.38.17.93-.62-.08-.93.91-.52,1.24,0-.12,0-.31.17-.31s.24.2.52.16c.19-1.9,1.85-2.08,1.21-3.88.61.08.76-.25,1-.47-.64.84,1.06.49,1.21.62-.13.63-.62,1.3-.35,2,0-.12,0-.31.17-.31s0,.31.17.31c.16-.43.28-1-.17-.47.23-.62.13-1.54.69-1.86-.24.7.19,1.47-.35,1.24.52.54-.49,1.55.35,1.86a3.27,3.27,0,0,1,1-2.79c-.39.73-.3,1.9-1,2.33.73.58.49-.71,1-.78,0,.18-.31.35,0,.47,0-.09.14-.18.17,0-.57.06-.89,1.16-.69,1.4.17-.21.16-.58.52-.62-.43.59-.5,3.31-1.21,2.17a13.2,13.2,0,0,0,.17,2.17c-.43.14-.39.69-1,.62.43-.26.83-1.21.17-1.55,0,.18,0,.44-.17.47-.27-.51-.16-.78-.35-1.09,0,.17-.19.24-.35.31-.1-.28-.09-.65-.35-.78a8.69,8.69,0,0,0-1.38.62c-.51-1.16-.69-1.93-1.73-1.55-.36.29-.39.89-.86,1.09V15.37c-.61-.08-.43.55-1,.47.05-.21.25-.3.17-.62-.53-.12-.33.43-.87.31.05-.36.37-.67-.17-.78A3.62,3.62,0,0,0,20.09,16c.27-.37.25-.76-.35-.47.2-.18.2-.55.17-.93a1.57,1.57,0,0,1-2.25-.16c-.78.6-1.87,0-2.6.16a.79.79,0,0,0,.69-.31c-.36.09-1.14-.19-1.21.16.32.66-1.62.61-1.73,1.4.42.06.38-.28.87-.16-.47.43.25.15.35.47a.43.43,0,0,1-.35.47c-.38-.22.22-.38-.17-.47-.07.3-.37.39-.35.78.43,0,.54-.3.69.16-.1.27-.82,0-.86.31.51.08.1.29.69.47-.39,0-.65,0-.69.31.2,0,.49,0,.52.16v.78c-.22-.21-.85-.24-.87.16.32,0,.11.53.35.62.56-.23.5,0,.86.31a1.1,1.1,0,0,1-.35.47v-.31c-.6.49-.87-.38-1-.15.05.18.7.59.17.78-.3-.1-.28-.47-.52-.62-.15.54-.69.73-.87,1.24.64.16.56-.33.87-.47.25.08.89-.18.87.16-.37.5,0,.29.17.47-.55.58-1.08,2.53-1.73,2,.05.31-.23.31-.35.47.59.06.29.48.69,0a.43.43,0,0,1,.35.47c-.89.23-.62,2-1,2.17-.6-.49.38-1.44-.17-1.86-.23.74-.59,1.52-.35,1.86-.23,0-.16-.27-.35-.31a9.54,9.54,0,0,0-.35,2.17c-.33-.45-.66.84-1.21.16,0-.29.19-.34.17-.62H8.5c0-.09,0-.18-.17-.16.08.69-.1,1.16-.87,1.09-.1-.85,1-2.17.17-2.64-.39,0,.22.39,0,.78-.33,0-.38.17-.69.16A.43.43,0,0,0,6.6,27c0,.35,0,.58-.35.62.2-1.13-.26-3.12,1.56-2.48-.16.33-.92.92-.69,1.09a2.36,2.36,0,0,0,1-2.49c.41-.32,1.47-.66.87-1.4,1.47,0,1.11-.84,1.38-2.64a.87.87,0,0,1,.52.16c-.1-.5.32-.48,0-.78a1.6,1.6,0,0,0-1.38,1.24c-.63-.1.4-.73-.17-.78a14,14,0,0,0-2.94,5.59c-.54-.26.1,1.22-1.21,1.24-.07.87-.88,1.43-.35,2,.27-.22.14-.81.69-.78,0,.59,0,1,.35.47.34.4-.18.71.17.93.28-.27.08-1,.52-1.09.75,1.28-.59,2.34-1.38,3-.17-.29.52-.52,0-.62C4.43,31.85,3.65,32.75,3,34.16c1.09,1.11-.38,2.46,0,3.42,0-.18.27-.17.52-.16-.13.35.31,1.21-.35,1.09-.08,1.95.42-.61,1.21-.62,0-.45,0-.79.35-.93,0,.49.39.68.35,1.24-.22,0-.24-.2-.52-.15v.62c.34,0,.34-.21.52-.31a2.37,2.37,0,0,1-.69,1.55A1.1,1.1,0,0,0,4,39.44c.13.48-.18.57-.17.93,1.51,0,.89,1.72.69,2.64h-1c-.08.46-.81,1.77,0,2,0-.64-.17-1.5.35-1.71.11.58,0,1.47.17,1.24s0-.76.52-.62c.47,1.15-.21,1.92.35,2.64a.85.85,0,0,1,.69-1.24c-.41.41-.17,1.4-1,1.4,0,.87.32,1.33.17,1.86.13-.74-1,.43-.35.62-.15-.77.42-.29.52,0-.32.23-.26.8-.87.78v1.09c.39.21.65-.4.69,0-.22.37-.66.55-.69,1.09a4.07,4.07,0,0,0,1.21.16c.39-.54-.29-1.08.35-1.4a2.16,2.16,0,0,1,0,2c-.61-.21-.34-.25-1-.31-.24,1-1.39,2-.86,3.11,0-.19.05-.37.35-.31-.22.63-.81.93-1,1.55,0-.34-.14-.49-.52-.47-.13.35.8.5.17.78A1.24,1.24,0,0,1,2.1,57c-.43-1.57.35-3.13-.52-4.35,0,.44.15,1.07-.35,1.09-.15-.23-.26-.49-.69-.47,0,.22-.38.18-.52.31.06.62.93.51.69,1.4-.13.25-.85,0-.69.47s.67-.41.52.31c.49,0,.4-.47.87-.47a4.93,4.93,0,0,0,.17,1.55c-.36-.09-.56-.44-.86-.16-.14.24-.08,1.33.35,1.55-.2-.65,0-.76.35-1.24.2.44.24,1,.69,1.24q-.12-.73.69-.62c.1.27-.21.91.17.93.18-.57.53-.7,0-.78a.67.67,0,0,1,.35-.62c-.09.4-.3.6.35.62.34-.23-.3-.65.35-.78,0,.94-.15,2-.52,1.86a.67.67,0,0,0,.35.62c0-.12,0-.31.17-.31-.09.73-1,.66-.52,1.4.39-.78.31.93.52.31.24-.45-.47-.79,0-.93,0,.29.19.34.17.62.3-.09,1,.19,1-.16-.52.24-.52-.86,0-.62.05-.3-.23-.31-.35-.46a1.1,1.1,0,0,1,.35-.47c-.15.55.45.16.52,0-.28,0-.47-.21-.17-.31a.67.67,0,0,1,.35.62c-.68.06.35.27-.35.62.74.41.47-.21,1-.31-.39,1.3-1.05,2.37-1,4-.54,0-.49.49-1.21.31.6.81-.5,1.39.17,1.86,0-.18,0-.44.17-.47,1.2.36.59,1,.35,1.86.5,0,.82-.19.69-.78.61-.14.42,0,1-.16.19.73-.69,1-.17,1.55-.36-.34-.49.08-1,0,0,.6.4.61.17,1.09.73.24,0-.8.52-.78.18.54,1.35.38,1.38.62s-1,.1-.35.31c.5-.2,1.17-.15,1.21.47-.34.26-.22,0-.69,0-.3,1.06.07,1.36.17,2,.64.06.32-.75.87-.78,0,.41.51,1.18.86.78-.21,0-.41,0-.35-.31.91.08,1.72,1.5,1,2,.23.87,1,1.21.52,1.71.43,0,.84.78.52.93.22-.82-1.17-.19-1.38-.62.22-.48-.26-.78-.87-1.24.16-.43.05-1.09.35-1.4,0,.41.06.67.52.62-.14-.44.24-.4.17-.78-.59.06-.52-.46-.87-.62,0,.39.33.49-.17.62.15-.5-.27-.48-.35-.78-.88.53-1.38.46-1.9,1.24,0-.12-.15-.18-.35-.15.11-.14.4-.57-.17-.47.11.33-.66,1.15,0,1.4,0-.46.77-.33,1,0-.43,0-.42.35-.69.47.66-.33.83.29,1,.78-.64.24-.72.28-.35.78-.51,0-.51-.32-1.38-.31,0,.41-.06.67-.52.62,0-.21.3-.14.35-.31-1.76-1.53-1.14-4.78-2.42-7-.19.63,0,.9.17,1.55-.68-.25-.06.67-.52.62s-.34-.42-.69-.47a.83.83,0,0,1-.52.47c0,.63.05,1.2.52,1.4.42-.12-.49-1,.35-.93-.12.93.55.91.17,1.71-.25-.06-.29-.19-.52,0-.23.83.58.72.35,1.55.26,0,.64.06.69-.16a.16.16,0,0,1,0-.31c.33.06,0,.71.69.47.32-.71-.69-.21-.52-.78.65.26.27-.09.86-.16-.29.69.5,1.17,0,1.86-.15-.9-.7.42-1.38.31a6.13,6.13,0,0,1,.52,1.71,1.31,1.31,0,0,1,1,0c0,.27-.3.35-.69.31-.09.49.38.61,0,.93A3.5,3.5,0,0,1,6.77,80c-.23-.47.13-.92.52-1.24A2,2,0,0,0,8.85,80c.57-1.27,1.88.06,2.08,0-.42.52.53.69,0,1.24.35,0,.46.31.69.46.2-.65.37-.39.69-.93a2.78,2.78,0,0,0,1,.62c-.36.08,0,.73-.52.31.11.82.64.52,1,.16.15.33.53.46.52.93-.66.08-.22,1-.17,1.09,0-.29.57-.11.52-.47-.36-.09-.22-1,.17-.93A17.37,17.37,0,0,1,14.56,86a4.39,4.39,0,0,1,1,.62c-.55.42.55.66,0,1.09.35.17.8-.08.87.62a1.61,1.61,0,0,1-1-.16c-.07.74.9.64.35,1.4a3.16,3.16,0,0,1,1.9,1.24c-.36.09-1.14-.19-1.21.16.26.28,1.19,0,1,.62-.4,0-.75-.33-.87.16.24.71,1.19.8,1.73,1.24-1.07,0,.07,1.12-.52,2.17.71-.39.45.5,1,.62.08.49-.31.55-.17,1.09,1,.33,1.22,2.47,1,3.11,0-.12.68-.12.69,0-.22.37-.94,1.14.17,1.24-.18-.41-.47-.53,0-.93.38.22-.22.38.17.47.32-.22-.27-.75.17-1.09-.2,0-.49,0-.52-.15.65.1.26-1.15.86-.62,0-.54.56-1.26,0-1.24v-.31c.77.27,0-1.21.87-1.55-.29,0-.1-.43-.35-.46-.17.21-.16.58-.52.62,0-.42-.29-.31,0-.62-.31,0-1,.42-1.21,0,.52,0,.7-.88,1.21-.47.19-.36,0-.42.35-.78-.23-.4-1.21.1-1.21-.16a5.1,5.1,0,0,0,1.9-.78c-.3-.06,0-.2,0-.47a15.26,15.26,0,0,1-2.6.16c.44-.23,1.6-.63,1.56-.78-.53-.11-.51.27-1,.16.68,0-.12-.59,0-.78.5-.74,3.87-1,4.84-.47-1-.23-2.69.78-3.29.31.26,0,.64.06.69-.16h-.87v.62c1.3,0,2.45-.6,3.63-.47.09.55-.61.38-.52.93.9.14,2.17.08,2.59-.47-1-.05-1.4.25-1.73.15.32-.75-.29-.78-.17-1.71-.38,0-1.12.42-1.21.16.28-.31,1-.21,1.21-.62,0,.21.3.14.35.31-.22.21-.23.58.17.62,0-.69.7-.82,1-1.24,1.13.14,1.7-.2,2.77,0,.24-.35-.45-.58,0-.62.43.2.54-.08.69.16.27.55-.59.09-.52.47.59.16.52-.06.87.31-.08-.3.79-.5.86-.16-.41.23-.64.24-.35.78h-.69c.2.41-.33.91,0,.93.17-.21.16-.58.52-.62.45,1,2.15-.63,2.08.47.74.07.22-.42.52-.47.72,0,.7.18.52.62.23.16.64.15.87.31.25-.59-.77,0-.52-.62a8.86,8.86,0,0,1,2.42-.16c.21.42-1,.87-.17,1.24,0-.18,0-.44.17-.46,0,.29.19.34.17.62-.2,0-.49,0-.52.16.52.18.68.07,1.21-.16-.18.2-.17.57-.35.78.6.14.34,1,1,1.09.34-.4-.18-.71.17-.93a.48.48,0,0,1,.52.31c0,.21-.7.47-.17.62,0-.32.63-.75.86-.31,0,.46-.82.2-1,.47,0,.29.2.34.17.62-.34,0-.22.42-.69.31.12-.11.43-.76-.17-.62-.19.69.29.77.35,1.24-.46-.18-1,.3-1,0,.21-.27.63-1.14,0-1.24.47.82-.68,1-.69,1.86.36.25.87.36.86.93h-.86c-.28-.11,0-.76-.52-.62.3,1.1-1.42.38-1.73.93.83.22,1.36.31,1.9.47q0-.51.52-.47c-.44.33.44.61,0,.93.57-1.36,1.39-1.3,2.94-1.4-.25.66.5,1.44.17,2.64-.43,0-.84,0-.86.31a3.58,3.58,0,0,1,1.38-.15c.12-.35.29-.64-.17-.93-.07-.38,1.08-.46.52-.78-.95.19-.12-.83-.87-1.09,1-.43.75,1,1.21.47-.69-.63,1.74-.6,2.08-.31-.45.12.13,1.15-.52,1.09-.35,0-.34-.42-.69-.46-.32.27.21.45-.17.78.65-.12.83.19,1.38.16,0-.35,0-.58.35-.62,0,.32.3,1.16.69.62-.56-.47-.26-1.34-.69-1.24.53-.2.74-.68,1.38-.78-.61.56,1.11,1.32.17,2.33.2,0,.49,0,.52.16-.23,0-.22.43,0,.47a.56.56,0,0,0-.17-.93c.44,0,.77-1,1.21-.47-.84.07-.39,1.31-.69,1.86,1.2-.28.46.52,1.21.62,0,.18-.27.17-.52.15v.78a.87.87,0,0,1,.52.16c0-.19.05-.37.35-.31.1.47.57.62.87.93-.15.44-.68.53-1,.78.36,0-.26.42.35.47.51-.53,1.36-.75,1.56-1.55-.43-.2-.54.61-.69.16.54-.29.3-1.29,1.38-1.09a2.71,2.71,0,0,0-.35,2.64,1.06,1.06,0,0,0-.69.16c.17.58-.19.91.35.93.29,0,.1-.43.35-.46.41.61,1.66.31,1.9.78-.3.56-1.52.3-1.56,1.09,1.53-.62,1.93-.9,3.46-.62,0,.55.24,1,.52.47.42.31-.29.66.35.78,0-.19.05-.37.35-.31.18-.68-.58-.51-.52-1.09a3.87,3.87,0,0,0,1.73-1.09c-.76.18-1.13-.8-.87.16-.43,0-.84,0-.86-.31,1-.16.3-1.26.86-1.55-.47-.53-.62,0-1.38,0,0-.8-.69-.53-1-.31.27-.55-.59-.09-.52-.46.74-.3.46-.34,0-.47.1-1.17,1.38-1.35,2.6-1.71-.37-.47.36-1-.17-1.55.39.21.65-.4.69,0-.62.6,1.46.9.17,1.24.26,0,.64-.05.69.16-.58-.11-.28.32-.17.47-.36.18-.65-.07-.87.47.38,0,.37.39.35.78.39,0,.65,0,.69.31-.22-.21-.85-.24-.87.16.63-.15.15.7.69.62-.22-.47.57-.8.69-.46-1,.19.33.5.52.62-.46-.11-.33.32-.52.47.52.15,1.05,0,1.21.16-.27.88-.47,1.53,0,2-.83.07.21.06,0,.47a1.06,1.06,0,0,1-.69-.16c-.17.29.52.52,0,.62-.27-.44-.34-.1-1-.16-.05.73-.63.52-1,.62.16,1.32,1.54-.91,1.9.16a26,26,0,0,0,7.27-3.42c.09-.49-.38-.61,0-.93-2,.68-2.55,1.72-3.46,2a4.57,4.57,0,0,0-1.38-1.4c.45-.27.88-.36.35-.78.73.19.31-.65.69-.78-.11.54.62.27.17,0,.33,0,.38.17.69.16,0-.3-.19-.34-.17-.62.81-.07.64-.12,1.21-.46-.37.43.1.65-.17,1.09.59.06.74-.27,1-.47-.2,0-.49,0-.52-.16.63-.53,2.06-.62,1.9-1.4.54.75.84-.67,1.73-.16,0-.8,2.17-.74,1.21-1.4.79.14,1-.26,1.56-.31,0,.16.14.18.17.31-.7.25-.92.93-2.08.78-.34.79-2.25,1.28-1,2-.08-1,1-.73,1.38-1.24,0,.2-.22.22-.17.47.13,0,.34,0,.35.16,1.27-.06,1.1-1,1.73-.93-.55-.41.66-.53.52-1.09-.35-.53-1-.66-.87-1.24-.29.07-.83.68-1,.31a2.71,2.71,0,0,1,1.56-.78c0,.2-.22.21-.17.47.65.07.81-.31,1.21-.47-.26,1.27.64,1.33,0,2,1-.1.46-1.55,1.56-1.55-.05.36.5.17.52.47-.16,0-.46.69-.17.62.51-.46,1.93-.3,1.56-2,.6.13.67-.23,1.21-.16-.16-.66.28-.78.69-.93,0,.23-.06.57.17.62.43-.72.54-1,1.21-2,.23,0,.16.27.35.31a1.58,1.58,0,0,0,.17-1.71c.05.25-.23.42-.35.16,0-.27.3-.35.69-.31.17,1.63.4.6.69-.31-.3-.47-.54.43-.69,0,.48-.58-.24-.48.52-.93-.81-.16-.46.73-1.21.62.07.91-.63,1-.52,1.55-.77-.32.29-1.38-.69-1.55V92.7c-.33,0-.38.17-.69.16.2-.32-.27-.74-.35-.31.29,0,.29,1.07,0,1.09h-.35c.37-.68-.09-.5-.35-.62-.1-.5.12-.72.17-1.09-.33,0-.38.18-.69.16a.93.93,0,0,0,.17.78c-.61.05-.43.43-1,.16a12.55,12.55,0,0,1-1.73,1.86c0-.16-.14-.18-.17-.31.28-.26.14-.91.86-.78.08-.59-.07-1-.52-1.09-.42.31.29.66-.35.78-.38,0-.37-.39-.35-.78.35.18.82-.24.35-.31-.34.33-1.61.73-.69,1.24-.25,0-.29.26-.52.31.47-.43-.25-.15-.35-.47.3-.7.12-.65-.35-.78.63-1.09,2.49-1.91,2.42-3.11-.57.82-1.09.79-1.73,1.4.06-.19,0-1-.17-.47a.93.93,0,0,0,.17.78,4.7,4.7,0,0,0-.86.47c0-.9-.16-.05-.52,0,0-.29.19-.34.17-.62A5.16,5.16,0,0,1,67,92.24c.58-.41.46-1.92,1.38-1.55a1.73,1.73,0,0,0,0-1.24h.86c0,.2-.22.22-.17.47,1-.18.22-.85,0-1.24-.56-.19-.13.5-.69.31.25-.6-1-.67-1-.47.37,0,0,.74-.35.62,0-1.3.8-1,1.21-1.24-.92,0-.52-.94-1.21-.78.76-.12.18-1,1.21-1.09a3.31,3.31,0,0,0-.35.93c.7-.47.6.47.35.78.54.18.42-.24.69-.31.09.54.69.62.52,1.4.76,0,.15-1.07,1.21-.47-.67-.72.85-1,.35-1.55,0,.17-.29.37-.35.15.39-.31.59-.62.35-.93,0,.12-.57.47-.52.16s.26-.39.35-.62c-.56-.19-.13.5-.69.31v.93c-.9-.2-.78.28-.87.47-.46.11-.33-.32-.52-.47.37-.48.58-.41.17-.93.1-.32.27-.33.52-.16,0-.64.23-.6,0-1.09.88-.18,1.83-2.36.86-1.86.54-.82.88-.75,1.73-.62,0,.29-.2.34-.17.62.64,0,.48-.55.35-.93.35,0,.46-.31.69-.47-.15,1-1,1.41-.17,2.33.36-.14.56-.43.87-.62,0,.69.42,0,.87.16.22.18.07.59-.17.78-.29-.31,0-.2,0-.62-.81.32-1,1.46-1.73,1.4.65,1.14-2,1.57-.69,2.8.11-.37.05-.73.17-1.4.64-.06,1.63-.71.87-1.09a.83.83,0,0,1,.52-.47c-.15,1,.59-.38.86.47.07-.88.68-1.11.69-2-.35-.53-1.33-.35-1.73-.47.62-.12.06-1.29.87-1.24-.48.92.22.22.69.62.07.37-.79-.09-.52.47.48-.09,1-.16.87-.78-.2,0-.49,0-.52-.15.75.05.43-.86,1.21-.78-.13.42.34.31.35.62s-.7.47-.17.62c.07-.35.95,0,.86-.47a.67.67,0,0,1-.35-.62c.55-.13.53.24.87.31a3.85,3.85,0,0,1,2.25-1.4c.26-.56-.33-1,.52-1.09.36.4-.39.58,0,1.09.3.27.68-.23.69.46-.26,0-.64-.05-.69.16.41-.06-.1.71.52.47.34-.07-.28-.44.52-.31,0,.27-.37.61.17.62-.12-.39-.17-.64.17-.93.23,0,.16.27.35.31.05-.68.72-.8,1.21-1.09-.1.32-.52.3-.17.62.61-.05.43-.43,1-.16.46-.93,1.5-1.34,1.9-2.33-.44.12-.8.23-1-.16.37-.05,0-.68-.17-.78s-.73.5-1.21.78c-.13.47.18.56.17.93-.94-.38-.37-1.16-1.21-1.55.82.23.43-.13,1.21-.16,0,.22-.29.26-.35.47,1-.49,1.15-1.73.52-2,.66-.86,1.32.68,2.08.16.45.2-.13.93.17.93.38-.48,1.35.7,1.9-.47-.56-.19-.13.5-.69.31a.74.74,0,0,1,.87-.47c0-.37-.3-.46-.17-.93h-.69c.47-.43-.25-.15-.35-.47.28.07.28-.85,0-.78,0,.24,0,.54-.35.46a.93.93,0,0,1,.17-.78c-.76-.1-1.2.88-1.56.62a.87.87,0,0,0,.52-1.09c-.2,0-.49,0-.52-.16v-.78c.61,0,.76-.3,1,.16.13-.54.53-.83.17-1.4.26,0,.64-.06.69.16-.54,0,0,.36,0,.62a2.74,2.74,0,0,1,.52-.62c.43.53.67-.43,1.38-.16,0,.26,0,.52,0,.78.9,0,.43-.7.69-.93.69-.15.07.87.69.78-.19-.63.53-.77.86-.47a.67.67,0,0,0-.35-.62c0,.23-.42.14-.69.16.07-.37-.32-.34-.17-.78.64.45.34-.23.52-.31a14.71,14.71,0,0,1,1.21,1.09,2.1,2.1,0,0,1,0-1.09c.49.13.45-.22.86-.16-.3.46.06.79-.17,1.09.51-.34,1.24-1.37.35-1.24.68-.51.72-.67,1.38-1.24-.32.3,0,.39,0,.78-.45,0-.74.06-.69.47.72-.4.36.44,1,.47.52-1.41-.12-4.82-1.56-5,.29-.1.28-.47.52-.62s.34,0,.35-.16c-.3-.09-1,.19-1-.15a16.14,16.14,0,0,0,1.38-2.49c-.87-.11-.36-.5-1-.78,0,.31-.48,1-.87.47.3-.14.6-.29.52-.78C92,59,90.88,58,91.21,56.52a.43.43,0,0,1-.35-.47c-.94-.17-1.15.31-1.9.31.24-.09,0-.6.35-.62a1.33,1.33,0,0,0,1.21-.47c-.69.1-.51-.58-1-.62,1.13-.56.12-2.51-.87-2.64.41-.25.93-.41,1-.93-.82-.23-.41-1.11-.17-1.86a1.23,1.23,0,0,0-1.56.31c0-.22-.29-.26-.35-.47.31-.34,1.25-.12,1.21-.78-.73,0-.56-.59-.52-1.09-.3-.09-1,.19-1-.16,0-.5.76-.25.69-.78a.79.79,0,0,1-.69-.31c.53.2,1-.44.52-.62-.45,0-1.63-1.21-.87-2a.87.87,0,0,0-.52.15c-.24-1.73-1.17-2.18-.87-4-.43,0-.42-.35-.69-.47.22,0,.24-.2.52-.16,0-.49-.57-.87-.17-1.24-.29-.24-.78.19-1-.31.73-.3.22-.86.52-1.4-1.05,0-1-1.14-.69-1.55-.5,0-.53-.63-.35-.78-.66.13-.67-.33-.87-.62.86-.06,0-.68,0-.93.2,0,.49,0,.52-.16l-.52-.47c.49-1.07-1.95-1.7-2.77-.78,0-.69,1.09-.47,1.38-.93-.32-.57-.22-.56-.17-1.4C80.55,28,80.4,27.4,80,27c0-.22.29-.26.35-.47-.68-.48-1.36-1.24-1.21-2-.86-.46-1.94-2.19-1.56-2.33-.87-.3-1.54-.26-1.73-1.4-.9-.05-.84-.81-1.73-.31.58-.11.57.32.87.47-.66-.17-.54-.41-.87.16-.08-.21-1.15,0-1.38.16s.25.3-.17.62h.35c0,.09.14.18.17,0-.23.08-.08-.77.35-.62-.13,1,0,.94.35,1.55l-1.56.31c-.13.47.3.46.17.93-.76-.11.14.31-.35.31-.81-.08-1.54.48-2.08.16-.21.71,1.17,0,1.21.47-.62-.09-.51.47-1,.47,0-.18,0-.44-.17-.47a.66.66,0,0,1-.35.62c-.35-.31-.46,0-.69.16,0-.24,0-.54-.35-.47,0,.44-2.28.49-2.77.93,1.29.34.56.12,1.73-.16,0,.22-.28.26-.35.47.52-.05,1.05-.09,1.21-.47-.26,0-.64.05-.69-.16,1.43.25,1.68.59,2.94.16-.34.2.35.82-.35.93-.05-.14-.35-.79-.52-.31.42,0,0,.51-.17.47-.41-.54-1.24.06-2.25-.31,0,.28-.17.36-.52.31-.25.7,1.1.76.52,1.24-.4-.07-.87-.86-1.21-.47h.35c0,.41.1.91-.35.93a.43.43,0,0,1-.35-.47c.59-.12-.24-1.55.52-1.86-.72-.08-.88.35-1.38.47,0-.8-.59-.61-1.21-1.09.38.5.19.45,0,1.09.53.11.51-.27,1-.16a6.73,6.73,0,0,0-.69,2c-.49-.36.43-1.28-.17-1.71a.73.73,0,0,1-.35.78.67.67,0,0,0-.35-.62c0,.23-.42.14-.69.16.12.49-.42,1.26-.69,1.86.17-.67-.19-.86-.35-1.24.25.17.42.17.52-.16-.2,0-.49,0-.52-.15,1.06.18.14-1,1.38-1.24-.65-.29-.33-1.63-.52-1.55,0,.64-.11,0-.35,0-.05.32-.35.41-.52.62.6.4-.62,1.3-.17,1.55,0-.12,0-.31.17-.31,0,.75-.61.37-.87.62a1.24,1.24,0,0,1,.52.31c-.47-.11-.35.31-.69.31-.17-1-.11-1.73.87-2-.4,0-.19-.45-.52-.47,0,.17-.19.24-.35.31-.16-.84-.9-1.55-.17-2.33-.31-.19-.5-.48-.86-.62,1.11.2-.22-1.1.69-1.24-.2-.39-1.13-.73-1.21,0,.43.2.54-.08.69.16-.4.45-.82.19-.35.78-.4.13-.75-.54-.87-.16l.52.47c-.59.21-1,.45-.69-.31-1,.57-.56-.77-1.21-.93.6.62-.88.77-.35,1.24a.79.79,0,0,1,.69-.31c.09.31-1,.36-.35.62,0-.29.59-.1.69-.31a.69.69,0,0,0,.17.47c-.27,0-.6,0-.52.31s.77,0,.69.47-.34.79,0,1.09c-.72-.18-.67.33-1.21.31,0-.47-.1-1,.52-.93-.2.32.27.74.35.31-.33-.2.4-.51,0-.93-.58.17-.59,0-1.21.16a.68.68,0,0,0,.17.47c-.63-.1-.66.34-1.21.31-.27-.61.45-.32.52-.62-.85-.47-.14-1.78-.52-2.33-.76.58-.25,1.07-1,1.55v-.93c-.53,0-1-.37-1.38,0a3.22,3.22,0,0,0-.35-1.4.88.88,0,0,0,.52-.16c-.24.62.33.45,0,1.24,1.09-.84.24-2.06-.17-3.11a2.7,2.7,0,0,1-.52.62.68.68,0,0,1,.17-.47c-1.11,0,.29,2-1,2,.22.76.2,1.21.52,1.24-.11.37-.23.72-.69.78,0-.22.28-.26.35-.47-.67,0-1.52.12-1.73-.31.72,0,0-.1,0-.31.55-.1.33-.52.52-.62.34.11-.11.93.52.78a8.21,8.21,0,0,1,.86-3.73c.47-.11-.12.73.35.62,0-.77.87-1.31.35-2,.46.43.38-.18.87-.16,0,.16.14.18.17.31s-.34,1.33,0,.93c-.26-1.21,2,.13,2.25-.93-.45-.4-.14.25-.69.16.2-.39.08-1.07.69-1.09-.4.83.74.89.35.47-.57.12.49-.59.52-.93-.31-.47-.54.42-.69,0,0-.95,1-1.1,1.21-1.86-.23-.38-.52.28-.69-.16.07-.25,0-1.78-.35-1.09.13-.4.25-.71-.17-.93-.29.65.17,1.06-.35,1.4-.09-.38.07-1-.52-1.24a2.63,2.63,0,0,0,.17-1.86c.17,0,.21-.13.35-.15.23.2.35.47.52,0-.91.15.24-1.37-.35-.93-.33.64-.2,1-1,1.4.58,1.09-.19,1.28.35,2.64-.2-.38-.65.32-.86-.15.39,0,.65,0,.69-.31-.56-.3-1-.45-.52-.93-.23-.4-.92.36-1,0,.49-.8-.46-1.1-.87-1.55,0-.25.74-1,0-.93-.33,0,.3.61-.35.62-.13-.74-.63-.19-1.38-.31.21-1.21-1.26-.76-1.56-2-.13.35-.52.46-.86.62.28-.45-.43-1.1-.87-1.4,0,.23.06.57-.17.62,0-.55-.08-1.07-.52-1.24-.17.47-.29.2-.52,0a.73.73,0,0,1-.35.78c-.45-.43-.13-1.54-.87-1.71-.2.41.33.91,0,.93Zm11.94,98c0,.71-.14.61,0,1.24-.57-.61-.32-1-.87-1.24a1.19,1.19,0,0,1,.87,0Zm-9-.47c.64.1,1,.48.87,1.24-.75-.18-1,.51-1.38.16.06-.55.45-.4.87-.31.19,0,.12-.31.35-.31-.05-.18-.82-.59-.69,0-.55-.07-.34-.67,0-.78Zm7.27-1.09c.43.37.21.73,1,.47,0,.48-.61.48-1,.62V102.8Zm10.73-1.55c-.14.34-.81.2-.87.62.49.07,1.35-.33.87-.62Zm-28-1.4c.33.07.74.06.69.47-.45,0-.87.05-.69-.47Zm1.56-1.24c.23,0,.14.39.17.62-.27-.26-.67.05-1,.16,0,.15.21.12.35.16s-.07.15-.17.15h-.35c-.13-.47.3-.46.17-.93.51.21.56.4.87-.16Zm-8.48-.31c.3.46.42,1.07.86,1.4-.65.17-.49-.39-1-.31-.14-.54.26-.6.17-1.09Zm-3.46-2c.2.49-.27.38-.35.62.54-.18.42.24.69.31-.1-.32.28-1.08-.35-.93Zm-5,0c.35.28.5.92-.35.78,0-.39.27-.48.35-.78Zm8-.31c.05.41-.36.4-.69.47-.38-.22.22-.38-.17-.47,0-.36.76-.09.87,0Zm-5.36-.78c-1.13.12-2.4.12-2.94.78.5.43.45-.51,1.21-.31,0,.16-.14.18-.17.31a6.87,6.87,0,0,1,1.73-.16c0-.29.2-.34.17-.62Zm4.67,0c.34-.45,1,.09,1,.47.26-.43.71.27.87-.16.37.23-.12.38.17.78-1.19.46-1.15-.87-2.08-1.09ZM26.84,95c0,.68-.82-.18-.69.47a1.06,1.06,0,0,0-.69-.16c0-.48.86-.26,1.38-.31Zm.86-.62c.82,0,.13.62.52.78.11-.31.81-.1.87-.47-.31,0-.41-.15-.35-.46-.43.3-.71-.24-1,.15Zm.17-1.86c.15.43.86.37.87.93.43,0,.42-.35.69-.47-.65,0-1-1.36-1.56-.47ZM73,92.08c.23.38.35.1.52.31-.47.49-1,.34-.87,1.09-.27-.27-.23-.83-.35-1.24.27,0,.66.07.69-.16Zm-41.18-.78c.26-.08,1.52.34.35.47.05.21.43.13.69.15-.15.45-.26.18-.69.16-.17,0-.13.19-.17.31-.63-.12,0-.5-.17-1.09ZM28.23,91a1.06,1.06,0,0,0-.69.16c-.09.49.6.41.17.78.39,0,.65,0,.69-.31-.13,0-.34,0-.35-.16s.22-.21.17-.47Zm46.2-.16c-.41.32.24.62-.17.93-.52,0-.5-1.1.17-.93Zm-3.11-6.06c.37.14.24,1.13-.35.93-.08-.49.53-.35.35-.93Zm7.27-3.42c.56.32-.58.39-.52.78-.62-.37.32-.63.52-.78Zm1-1.24c.52.19-.12.59-.17.78-.49-.16,0-.72.17-.78Zm6.92-.62c.54.07.39-.48,1-.31-.22-.39.51-.64,0-.78-.06.62-1.12.34-1,1.09Zm-81-5.59c.67.17.36.76.35,1.24-.4-.16-.36-.71-.35-1.24ZM5,72.83h.69c0,.38,0,.75-.17.93-.46-.26-.19-.42-.52-.93Zm82.36-.78v.47c-.64.16-.27-.58-.86-.47.15-.46.56.09.86,0Zm.17.93c.12-.62-.17-.89-.17-1.4.2,0,.31,0,.35-.16.08.31.67,1.2-.17,1.55ZM5.39,70.5a.43.43,0,0,1,.35.47c.34-.32.46.11.52.47-.42-.19-.92-.31-.86-.93Zm0-.78c-.9.18-.17.87-.35,1.71a3.32,3.32,0,0,1-.52-1.55c.36-.09.56-.44.87-.16Zm-1.21-.78c.58-.16.27.48.35.78-.34-.12-.62-.54-.35-.78Zm-1.9-1.71a3.51,3.51,0,0,1,.17,1.55c-.21-.17-.69-1.16-.69-.16-.4-.16-.36-.71-.35-1.24.41-.2.32,0,.87-.15Zm1.38-2.17c.44,0,.41.58.17.78a.47.47,0,0,1-.17-.78Zm-1.73-.16c-.06.74-.48.82-.17,1.55-.67-.23-1-.74-.87-1.71a.84.84,0,0,1,1,.16Zm-.52-2.79c.4-.08.6.79.87.31.32.36-.82.93-1.21.47.07-.3.49-.28.35-.78Zm3.46.46c-.77-.5.35-1.9,0,0ZM.2,59.16c.18.1.18.36.52.31-.12.65-.21.85.52.62v.62c-.41-.23-.32-.33-.87-.16.09-.6-.31-.76-.17-1.4Zm2.42-4.35c.28,0,.3.15.52.16.12.62-.17.89-.17,1.4a.87.87,0,0,0-.52-.15c.58-.6-.28-.71.17-1.4Zm-.17-2.17A1.13,1.13,0,0,1,3,54.35c-.27-.07-.15-.49-.69-.31,0-.51.29-.77.17-1.4Zm-.52-5.59c.1.27-.21.91.17.93.14-.11.46-1.07-.17-.93Zm1.9-1.55c-.08.89-.67.47-1,.93.65-.12.67.5.87.47,0-.8.82-1,.17-1.4ZM2.27,40.84c-.13.47.18.57.17.93.64.11.43-.55.69-.78-.42.06-.38-.28-.86-.16ZM4.87,29.5c.51,0,.46.93-.17.78-.14-.44.24-.4.17-.78Zm-.52-.16c.4.32-.09,1.16-.17,1.55-.59-.49.29-1,.17-1.55Zm5.88-5.43c.14.11.47.24.52,0,.5.22-.31.53-.17.93-.42.06-.38-.28-.87-.16.16-.27.42-.45.52-.78ZM8.5,23.6H9c.33.3-.1.28,0,.78-.54.07-.55-.33-.52-.78Zm47.24-.16c.3,0,.45.26.52,0,.23,0,.14.39.17.62-.2-.23-.72-.18-.69-.62ZM54,21.58h.52c0,.47.1,1-.52.93,0-.58.19-.44,0-.93ZM56.26,20c.62.23,0,1.56-.52,1.71.22-.21.23-.58-.17-.62.71-.33.44-.45.69-1.09Zm-2.08-.47-.52-.47c-1.93-.08,1.63-.48.52.47ZM58,17.24c.28.11.52,1.12.52.16a4.12,4.12,0,0,1,.69,1.24h-.69c.48-.71-.82-.42-.52-1.4ZM12.31,15.68c.5.25.21.58,0,.93-.19,0-.12-.31-.35-.31C12,16,12.44,16.11,12.31,15.68Z"/><path class="cls-2" d="M18.36,62.45a1.9,1.9,0,0,0,0-.3,2.23,2.23,0,0,0-.17-.61c-.13-.45-.58-2.44-.73-3.37A60.28,60.28,0,0,1,17,43.8a14.8,14.8,0,0,0,1.53-3.47,15.87,15.87,0,0,0-.14-9,17.18,17.18,0,0,0-1.8-4.07,3.94,3.94,0,0,1,2.64-1.65c2.09-.16,3.59,2.13,4.14,2.94C24.56,30.38,24.76,32.21,25,35c.41,4.07-.13,6.08.87,6.6.7.36,1.72-.23,2.42-.73l1.39,25.41h0v0a2.42,2.42,0,0,0,2.54,2.28l11.33-.62v0l3-.17c-.82.86-1.55,1.65-2.19,2.36a15.51,15.51,0,0,1-5.6,4.06L6.65,78.32,7,74.15,18.36,62.45ZM55.58,19.69l4.25-3.55a3.18,3.18,0,0,1,4.47.4l.35.42a3.18,3.18,0,0,1-.4,4.47L56,28.28Z"/><path class="cls-3" d="M18.31,58.66a76.83,76.83,0,0,1-.41-13.6,19.59,19.59,0,0,0,1.61-6.26,18.7,18.7,0,0,0-.65-7.09l-1.5-4.93a4.51,4.51,0,0,1,3.09-1.43c2.18,0,3.56,2.09,4.14,2.94C25.82,30.13,26,32,26.29,34.71c.41,4.07-.13,6.08.87,6.6a1.47,1.47,0,0,0,1.18,0l1.37,25h0v0a2.42,2.42,0,0,0,2.54,2.28l11.33-.62v0l4.06-.22c-.63.67-1.29,1.4-2,2.17a15.11,15.11,0,0,1-7.22,4.62,13.93,13.93,0,0,1-2.64.46l-1.46,2.29H7.12v-2.5L18.71,61.53Q18.48,60.12,18.31,58.66Z"/><path class="cls-2" d="M28,42.83l.47.87,0,.82q-.24-.83-.52-1.69Zm4.7,25.7c-1.62.63-3.13,1.28-4.52,1.93a38.26,38.26,0,0,0,1.47-5.27l.06,1.05h0v0a2.42,2.42,0,0,0,2.54,2.28Z"/><path class="cls-4" d="M19.06,26.76a10.82,10.82,0,0,1,1.41,5,1.36,1.36,0,0,1-.19.86,1.49,1.49,0,0,1-1.05.56q-.54-2.07-1.22-4.25-.34-1.07-.69-2.09a1.78,1.78,0,0,1,1.74,0Z"/><path class="cls-3" d="M55.61,20.29l3.76-3.14a4.45,4.45,0,0,1,2.16-.67,3.47,3.47,0,0,1,2.9,1,3.43,3.43,0,0,1,.4,2.91,4.53,4.53,0,0,1-1,2l-7.7,6.44Z"/><path class="cls-5" d="M30.89,20.52l20.25-1.11a2.16,2.16,0,0,1,2.27,2l2.24,40.84a2.16,2.16,0,0,1-2,2.27l-10.12.55v0l-10.12.55a2.16,2.16,0,0,1-2.27-2v0h0L28.85,22.79A2.16,2.16,0,0,1,30.89,20.52Z"/><path class="cls-6" d="M31.44,19.14,51.93,18a2,2,0,0,1,2.14,1.92L56.33,61a2,2,0,0,1-1.92,2.14l-20.5,1.12a2,2,0,0,1-2.14-1.92l-2.25-41.1A2,2,0,0,1,31.44,19.14Z"/><rect class="cls-7" x="31.95" y="21.44" width="21.9" height="38.61" rx="2.03" ry="2.03" transform="translate(-2.17 2.41) rotate(-3.14)"/><rect class="cls-8" x="39.02" y="61.19" width="10.07" height="1.46" rx="0.43" ry="0.43" transform="translate(-3.32 2.5) rotate(-3.14)"/><polygon class="cls-9" points="36.01 60.43 31.26 28.53 51.58 59.53 36.01 60.43"/><ellipse class="cls-8" cx="41.81" cy="20.21" rx="0.99" ry="1" transform="translate(-4.02 12.75) rotate(-16.55)"/><path class="cls-6" d="M43.15,49.69a7.5,7.5,0,1,0-7.5-7.5A7.51,7.51,0,0,0,43.15,49.69Z"/><path class="cls-4" d="M38.58,39.56a1.9,1.9,0,0,1,1.9-1.9l.26,0a9,9,0,0,0,1.33,2.91,1.89,1.89,0,0,1-1.25.83,9.13,9.13,0,0,0,1.49,1.87,9.29,9.29,0,0,0,1.63,1.27,1.89,1.89,0,0,1,.74-1.25,7.14,7.14,0,0,0,3,1.36c0,.05,0,.1,0,.15a1.9,1.9,0,0,1-1.9,1.9h-.14a6.9,6.9,0,0,1-4.74-2.21,6.76,6.76,0,0,1-2.35-4.79C38.58,39.67,38.58,39.62,38.58,39.56Z"/><path class="cls-2" d="M59.93,31.35l.55.35-3.76.81a3.44,3.44,0,0,0,1.45,6.73l.35-.08q-.14.43-.26.86l-2.33.5a3.44,3.44,0,0,0,1.45,6.73l.71-.15q.07.32.15.65l-2.59.56A3.44,3.44,0,0,0,57.11,55L61,54.21h0c-3.28,2.73-6,2.57-7.34,1.7a5,5,0,0,1-.32-8.25,5,5,0,0,1-1.6-2.72l0-.17v0a5,5,0,0,1,.73-3.59A5.07,5.07,0,0,1,54,39.59a5,5,0,0,1-1.52-2.65,4.28,4.28,0,0,1,3.37-4.85Z"/><path class="cls-3" d="M56.73,32.51l2.3-.39a3.44,3.44,0,1,1,1.45,6.73l-2.3.39a3.44,3.44,0,0,1-1.45-6.73Z"/><path class="cls-3" d="M55.66,48.31l2.3-.39a3.44,3.44,0,0,1,1.45,6.73l-2.3.39a3.44,3.44,0,0,1-1.45-6.73Z"/><path class="cls-3" d="M55.94,40.52l2.3-.39a3.44,3.44,0,1,1,1.45,6.73l-2.3.39a3.44,3.44,0,0,1-1.45-6.73Z"/><path class="cls-4" d="M58.47,33.78l.41.45.57,2.65-.19.54-3.31,1a3.34,3.34,0,0,1-1.2-1.88,3.37,3.37,0,0,1,.42-2.46Z"/><path class="cls-4" d="M57.65,41.8l.38.47L58.62,45l-.16.55-3,.91A3.74,3.74,0,0,1,54.64,42Z"/><path class="cls-4" d="M57,49.79l.35.45.55,2.58-.14.52-2.7.84A3.65,3.65,0,0,1,54.28,50Z"/><path class="cls-2" d="M39.15,49.43c-1.72-3.7,4.21-6.45,5.92-2.75l8.58,18.48-4.45-9.59c-1.38-3,4.55-5.71,5.92-2.75L60.29,64,56,54.66c-1.44-3.1,5.95-4.64,7.38-1.54l4.32,9.3-2.88-6.2c-1.44-3.1,5.39-4.38,6.83-1.28s5.79,12.59,5.68,16.41,1.14,14.75-.41,15.47L62.94,93.29c-1.55.72-2.24-4.82-12-9.7C39,77.65,38.08,76.26,37.36,74.7a3.87,3.87,0,0,1,1.78-4.64c1.55-.73,12.18,5.6,10.74,2.5l-1.44-3.1Z"/><path class="cls-3" d="M39.53,50.88c-1.68-3.61,4.1-6.29,5.78-2.68l8.37,18c.32.08-2.47-6.81-3.81-9.7s3.9-5.23,5.24-2.34l5,10.87s-2.28-6.29-3.68-9.31,5.27-4.29,6.67-1.27l4.21,9.07A53.24,53.24,0,0,0,65,57.35c-1.4-3,4.8-4.13,6.21-1.1s5.65,12.29,5.54,16,1.11,14.39-.4,15.1L62.74,93.67c-1.51.7-2.18-4.71-11.74-9.46C39.34,78.41,38.49,77,37.79,75.54A3.78,3.78,0,0,1,39.52,71C41,70.3,51.4,76.46,50,73.44l-1.4-3Z"/><path class="cls-4" d="M40.43,74.83a9.07,9.07,0,0,0-1.8-.83,1.49,1.49,0,0,0-1.06,1c.59,1.44,3.17,5.11,4.74,2.89a1.25,1.25,0,0,0,.34-.94,1.15,1.15,0,0,0-.36-.65A9.1,9.1,0,0,0,40.43,74.83Z"/><path class="cls-4" d="M41.66,47.81A3,3,0,0,0,40.26,49l1.17,2.27.47,0L44,50.47l.32-.38-.6-2.39A3,3,0,0,0,41.66,47.81Z"/></g></g></svg>