<svg xmlns="http://www.w3.org/2000/svg" viewBox="0 0 109 102.49"><defs><style>.cls-1{fill:#f4f3f0;}.cls-1,.cls-2,.cls-3,.cls-4{fill-rule:evenodd;}.cls-2{fill:#08366b;}.cls-3{fill:#b2b2b2;}.cls-4,.cls-5{fill:#727271;}</style></defs><title>Ресурс 16</title><g id="Слой_2" data-name="Слой 2"><g id="description"><path class="cls-1" d="M71.26,2.47a2.19,2.19,0,0,1-1.47,0c.6-.64-.42-.68-.18-1.52.57-.14.22.65.92.38-.5.83.34.75.73,1.14ZM9.16,72.13c.11.2.77,0,.73.76C9.2,73,9,72.65,8.42,72.7c-.13-.83.36.15.37-.38-.39-.48-1.45-.27-1.47-1.14.72.24.48-.52.73-.76a1.05,1.05,0,0,0,1.28-.19c-.65-.66-2.43-.14-2.56-1.33,1.78-.38,3.13.45,4.58,0,.13,1.45-1.37,2.21-2.2,3.23ZM59,2.47c.54.16-.24.48,0,.95-.8-.15-1.18.12-1.65-.57.43-.6,1.24.22,1.65-.38ZM8.24,81c.57-.23,3.11.64,3.85.95s-1,.56-.37.76A4.41,4.41,0,0,0,9.16,82,1.31,1.31,0,0,0,8.24,81Zm.92-1.33c-.48-.31,1,0,1.28.19-.28.85-.74-.19-1.28-.19Zm3.11-8c-.13.61-.1,1.42-1.1.95a.79.79,0,0,0,1.47,0c-.85.23.32-.8-.37-.95ZM12.45,44c0,.16-.07.18-.18.19-.47,0,.25.33,0,.76-.59.17-.38-.49-.73-.57.16-.28.59-.27.92-.38Zm-2.75-.38c0,.34.18,1-.37.76,0-.15.18-.19.18-.38-.69-.27-.35.52-.92.38a1.29,1.29,0,0,1,1.1-.76Zm-2.2-1.14c.08-.42.9-.08,1.28-.19-.63.41,0,.31.37.57-.16.28-.15.73-.73.57.48-.56-.26-1-.92-.95ZM17,41.19c-.45.17-.6.64-.92.95-.54-.42.66-1.32.92-.95ZM15.2,32.27c0-.36.61.22,1.1,0-.2-.59-.19-.61.55-.57,0-.34-.22-.4-.18-.76.77-.28.77-.37,1.47,0,.06.67,0,1,.18,1.14,0,.47-.62.06-.73,0-.54.17.42.28.18.76-.33-.05-.38.18-.18.19-.07.37-.84,0-.55.76-.22-.05-.76-.84-.73,0-.73.12-.52-.72-1.28-.57-.16-.44.64-.82.18-.95Zm9.53-14.62c-.21.07-.46.33-.18.38,0,.16-.07.18-.18.19H24c.16-.34.61-.59,0-.76-.07-.45.83.1.55-.57a.85.85,0,0,0,.55.19c0,.2-.79.38-.18.57,0,.21-.18.1-.18,0Zm41.4-.95c.55-.11-1.67,1.31-1.65-.19.33,0,.39.23.73.19s.08-.67.18-.95c-.32.56-1.16.57-1.65.95.81-.57-.71-1.58.73-1.71v1.14c.57-.13.24-.51.18-.95.65-.25.67-.43,1.47-.19-.24.75.6.39.37,1.14-.69-.71-.74.32-.92.57.13.34.33,0,.55,0ZM25.46,13.48c1,.9,2.08-1,2.2-2.28-1.67-.37-1.4,2-3.11,2.47,0,.56.73.71,0,.95-.13-.81-.4-1.48-1.1-1.71-.32.79,0,1.2-1.1,1.33-.78,1.64-3,4.49-1.83,6.26.11-.8.41-.7,1.1-.57A3.33,3.33,0,0,1,22,17.27c1.07,0,.74,1,.73,1.71,1-.28.62-2,1.1-2.85.18.3.17.76.55.38.17-.57,1.52-2.39,1.1-3ZM81.34,8.16c.33,0,.39.23.73.19,0,.22-.33.16-.55.19,0,.38.5.24.37.76-.56,0-.46-.67-.55-1.14Zm-2.2-1.52c-.25,1,.34,1.16.55,1.71-.5-.07-1.51-1.35-.55-1.71ZM62.47,5.69c.26.1-.14,1.1-.18,1.52-.11-.06-.7-.47-.73,0a6.13,6.13,0,0,0-.37-1.14c.15-.41,1.17.07,1.28-.38ZM59.9,4.55c.14,0,.36,0,.37-.19a4.75,4.75,0,0,1-1.47-.76c.29,1.38-1.12,2-.73,2.85.64-2,2.12-.54,3.3-1.14-.57.09-.52-.48-.73-.76s-.61.57-.73,0ZM22.35,94.33c0,.23-.33.43,0,.57,0-.23.2-.12.37,0a1.1,1.1,0,0,0-.55-1.14.91.91,0,0,0,.18.57Zm53.86,7.4c.58.09.75-.24.92-.57-.11,0-.22,0-.18-.19h-.37c.13.52-.36.38-.37.76ZM25.83,97.18h.73v-.76a.7.7,0,0,0-.73.76Zm31.51-.57a3.32,3.32,0,0,1-1.47.19.92.92,0,0,1-.18.57c.79.12,1.52.32,1.83.95-.35-.94.23-1.2.73-1.71,0,.15,0,.37.18.38a1,1,0,0,0-.73-1.14c.21,1.13-1.6-.08-.37.76Zm-12.09-.19c0-.61-.42-.84-1.1-.76-.32,1,.2.6,1.1.76Zm30.23-.76c.52,0,.53-.47.55-.95h-.55v.95Zm-29.13-.57c-.19.71.39.61.55.95-.3.26-.94.16-1.1.57.66-.11,1.52.56,2,0-.17-.33-.61-.38-.73-.76.56.14.35-.52.92-.38-.64,1.11,1.86.67,1.1,1.9a15.35,15.35,0,0,0,3.66.38c0-.22,0-.54.18-.57.66,1,.42-.41,1.28.38.08-1.13.3-1.13-.18-2.09-.68.32-.29-.11-.92-.19-.29.76,1.16.68.55,1.14-.8,0-.78-.83-1.1-1.33.07.46-.33.41-.18.95a.51.51,0,0,1,.55.38c-.64-.32-.64-.07-.92.38-.61,0-1.21-.57-2-.38-.16-.79-.79-1.08-1.47-1.33.72.05,1.27-.07,1.47-.57-.79-.65-1.28.62-1.65-.19,0,.47,0,.92-.37.95-.73.06-1-.36-.92-1.14h-.55c-.18.63,1,.94-.18.95Zm3.85-.76c0-.64.94-.29.92-.95.32,0,.42.33.37.76-.48-.05-.92-.06-.73.57-.19-.12-.19-.44-.55-.38Zm24.18,0c.22-1.18-.79-1.08-.73-2.09-.52,0-.46.54-.73.76.27,0,.68-.07.73.19-.12.83-.19,1.7-1.1,1.71V93.76c-.76.59-.64.22-1.1.19.73.53-.73.37-.55.95.69.75,1.72,0,2.38.76,0-.49.52-.73,1.1-.19,0-.36.21-.42.18-.76-.57-.25-1,.56-1.28,0,.73.25.37-.62,1.1-.38ZM19.6,91.87c.65-.29.11.64.55.57.51-.34.59-2-.18-2.09a5,5,0,0,1-.37,1.52Zm6-.76c.72.12,1-.28,1.28-.57-.25,0-.24-1.1-.55-.38.45.3-.45.79-.73.95Zm-3.3-5.88c-.23-.22-.15-.49.18-.76a2,2,0,0,0-1.83.19c.46.17,1.34.88,1.65.57Zm76.76-2.85c.51.64.14.68-.37,1.14.38.05.37.51.55.76-.32.11-1.08-.23-1.1.19.75-.14.63.61,1.47.38-.59-1.25.56-1.72.37-2.66a1.16,1.16,0,0,0-.92.19ZM25.64,84.84c-.72-.61-.51-2.43.18-2.09,0-.53-.45-.55-.92-.57.48,1.11-.6,1.11-.73,2.09.57.1.59.78,1.47.57Zm-1.28-.38c-.24.54-1.09-1-1.28,0-.25,0-.24-1.1-.55-.38-.39-.36.9-.7.92-.76.49.19.45.93.92,1.14Zm2.93-1.9c0-.36-.21-.42-.18-.76.14,0,.36,0,.37-.19-.44-.76-1,1.06-.18.95Zm-3.85-.95a.81.81,0,0,0,.55-.95c.23.31.47,1,.18,1.33-.49-.9-.66.16-.55.95-.61-.21-.39-2-.37-2.28.4,0,.08.67.18.95ZM28.39,81c.49,0,1.08.11,1.1-.38-.52.16-.47-.27-.92-.19a.92.92,0,0,1-.18.57Zm-7,1.9c.76.09,1-.35,1.47-.57-.4,0-.39-.48-.37-.95-.76-.05-.24.74-.55.76-.46-.51-.14-.74-.37-1.33.65.17.45,0,1.1.19,0-.59-.55-.57-1.1-.57a3.78,3.78,0,0,0-.18,2.47Zm78-.95c-.46-.18.49-1-.37-.95-.44-.55,1,.43.92-.38,0-.22-.33-.16-.55-.19.1-.53.88-.35,1.28-.57,0,.61.32.8.18,1.52-.55.13-.64.73-1.47.57ZM24,79c.33.1.76.1.92.38-.11,0-.22,0-.18.19.49.13.35-.39.55-.57-.72.05-.56-.81-1.28-.76V79Zm75.48.76c.78.47,1.61-.42,1.65-1.33,0-.21-.2-.3-.37-.38-.36.78-.13,1.49-1.28,1.71ZM15.94,72.13c.07.68-.43,1.21.18,1.33-.2-.72.48-1.18-.18-1.33Zm.92,1.71c.62,1-1.33.16-.55-.57.58,0,0,1,.55.57Zm-3.3-5.88c.31.08,0,.25,0,.57.87.27.71-.53,1.1-.76.14.44.84,1.27,1.28.76-.77-1-1.57-1.13-2.38-.57ZM15,60.36a1.27,1.27,0,0,0,.18.95c-.86,0-.52,1.23-1.1,1.52.72-.11.47.78.92.95V62.26c.26.21.45.2.55-.19-.26-.1.34-1.91-.18-2.28,0,.3,0,.66-.37.57Zm8.06-.57c-.14,0-.36,0-.37.19.27-.1.95.22.92-.19-.5.14.13-.89-.37-.76,0,.49-.32-.26-.73,0-.16.61.6.26.55.76Zm-.73-8.54c-.14,0-.21.16-.18.38.35,0,.4.21.73.19a.92.92,0,0,0-.18-.57c.22,0,.43-.06.37-.38-.59.23-.14-.61-.73-.38-.07.65-.56.31,0,.76Zm-.55-1.33c.05-.39.37-.51.55-.76-.54.25-.9,0-1.28-.38.19,0,.14-.24-.18-.19a2.11,2.11,0,0,0,.92,1.33ZM20.15,46.5c-.05-.37.25-.38.37-.57-.56,0-.71-.4-1.1-.57-.27.33.17,1.08.73,1.14Zm0-2.28a12.14,12.14,0,0,1,2,.76c-.31.12-.3.57-.55.76-.06.23.53.65.55.19.59.64-.21,1.75-.92,1.14.16.67,0,.47.18,1.14-.93.21-.41-1.1-1.1-1.14.68-.37.34-.94.55-1.52-.56,0-.37-.88-1.1-.76,0-.74.08-1.31.92-1.14,0,.36-.61.13-.55.57ZM78,21.83c.14.36.55.13.18.57a1,1,0,0,0,.73-.19c-.4-.4.28-1.7-.37-1.14.11,0,.22,0,.18.19-.48-.05-.79.07-.73.57Zm-26.56-1.9c.47.13.71-1.44.18-1.14,0,.45-.32.56-.18,1.14ZM47.08,19c-.43-.47-.34.28-.92.19.06-.23,0-1.17-.18-.57v.57c.47.34.88.47,1.1-.19Zm-4.95.19c.44.08.4-.35.92-.19,0-.22,0-.54-.18-.57-.17.33-.67.31-.73.76Zm2.2-.57c.79.13.6-1,.18-1.14a1.67,1.67,0,0,1-.18,1.14Zm-12.09.57c-.14,0-.21.16-.18.38,1.14-.46.87-1,1.47-1.33-.14,0-.36,0-.37-.19.2-.27.2-.46-.18-.57-.28.46-.11,1.4-.92,1.33,0-.11-.15-.22-.18,0,.21,0,.28.21.37.38Zm36.82-1.52c0-.3.4-.13.55,0-.21-.6.05-.5-.18-.95-.62.08-.3.58-.73,0-.28.63-.45-.4-.92-.19A3,3,0,0,1,67.41,18c.76-.78.67-.75,1.65-.38ZM30.59,16.51c.14,0,.21.16.18.38.52,0,.78-.33.73-.95-.23,0-.25-.25-.55-.19.21.6-.29.46-.37.76Zm-1.65-.19h.55c0-.48.35-.59-.18-.76,0,.38-.5.24-.37.76Zm48.55.19c.34-.36-.11-.34,0-.95-.36-.06-.36.26-.55.38-.14-.42-.11-1-.55-1.14a2.68,2.68,0,0,0,1.1,1.71ZM33,15.18c-.16.69.32,1,0,1.33.88.28.17-1.09.92-.95,0,.36-.21.42-.18.76,1-.14.87-1.42-.18-1.52,0,.34-.18.44-.55.38Zm25.1.38c.52,0,.78-.33.73-.95-.65-.29-.11.64-.55.57.21-.39-.29-.91-.37-.38.27,0,.17.46.18.76Zm-20,.76c.9-.3.23-1.12.73-1.9-1,.18-.42,1.25-.73,1.9Zm37.56-1.14c-.07-.33.27-.49,0-.57,0,.15-.61.58-.55.19.14-.13.41-1.06,0-1.14.07.9-1.83.76-1.28,1.52a1,1,0,0,1,.55-.57c.36.58.86.43,1.28.57ZM70.53,15c.07.37-.83.28-.55-.19h-.37c.21.85.23,1.18-.18,1.71-.37-.73-.15-2.3-.73-2.28-.23,0-.18.38,0,.38-.6.49-.44-.29-.37-.95.63-.25,1.06,1.23,1.28.19.35.36.33-.11.92,0,0,.57-1,1.07,0,1.14Zm-7.14-1.14c-.27-.1-.46-.28-.73-.38-.08,1-.75,1.57-.18,1.9.31-.44-.1-1.62.73-1.52,0,.11.15.22.18,0Zm17,.19c.81.38,1.33.12,1.83.57,0-.51.58-.41.55-.95-.41-.26-.78-.39-.18-.76-1,.14-2,.25-2.2,1.14ZM63,14.61a1.94,1.94,0,0,1,0,1.33c.27,0,.68-.07.73.19-.07.62-1,.38-.92,1.14.14,0,.36,0,.37.19.54,0,.63-.36.92-.57.34.36,0,.48,0,.95.59.23.14-.61.73-.38.2.36,0,1.11.55,1.52.44-.5.24-1,.18-1.71.39.25,1.13-.57,1.28.57,0-.26-1.32-.26-.73,0h.55c0,.22,0,.54.18.57,0-.15.15-.22.37-.19.19-.83-.38-.87-.55-1.33a1.66,1.66,0,0,0,.18-1.14,3.71,3.71,0,0,0,1.1-.57c.13.58-.19.69-.18,1.14.52-.16.47.27.92.19.46-.4-.46-.74,0-1.14a.84.84,0,0,0-.55.19C68,14.8,67.84,14.11,67,14c0,.3,0,.66-.37.57a5.06,5.06,0,0,1-1.1-1.9c.05,1.14-1,2.11-1.83,1.71.23-.26.9-.08.92-.57-.51.08-.17-.71-.55-.76.09.83-.56.4-.18,1.14-.45,0-.89,0-.92.38Zm-.73-1.9c.08-.3.58-.16.37-.76.71-.12-.09.72.18,1.33-.65.3-.11-.64-.55-.57Zm21.8,2.47c-2-.5-.11-2.77-1.28-3.42.61-.13.67.32.73.76a1.16,1.16,0,0,1,.92-.19c-.12.19-.42.2-.37.57.31.29.67-.07,1.28.19,0,1.16-1.31.92-1.28,2.09Zm-40.3-2.47c0-.59,1-1,.18-1.33-.2.19-.69,1-.18,1.33Zm28.94-.95c.34-.1.19-1.48-.18-.76.11,0,.22,0,.18.19-.64.35-.78,0-1.28-.19a1.1,1.1,0,0,1-.18.76c.17.2.68.06.55.57-.64,0-.79.45-1.1.76.35.08.33.54.92.38-.55-.91.55-.61.73-.76-.6-.28.31-.54.37-.76-.14,0-.36,0-.37-.19s.3-.45.37-.19c-.1,0-.21.15,0,.19Zm1.83-1.52c.13-.2.72-.87.18-1.14a1,1,0,0,0-.18,1.14ZM45.43,8.92c-.87-.06.33-.64.18-1.14-.23,0-.25-.24-.55-.19-.14.64-.36,2.39.37,1.33ZM70.34,6.64c-.57-.09-.59.41-.55.95.57.09.59-.41.55-.95Zm-.55,3.8c-.11,0-.22,0-.18-.19.2-.57,1.08-.29.92-.76.22,0,.52,0,.55.19-.07.44-.8.18-.73.76h.73c.25-.12,0-.73.37-.76.65-.1.45.67,1.1.57.06-.45.64-.35.55-.95-.78-.48-.93.47-1.28.19.56-.63,0-1.27.73-1.71-.59-.11-.92.06-1.1.38,0-.19-.15-.23-.18-.38,0-.44,1-.84.37-1.33,0,.78-.73.76-.55,1.71-.94-.18-.91,1.7-1.83,1.33.24-.52.94-.55,1.1-1.14-1,0,.89-.53,0-.95-.59.65-1.36.1-2.38,1.14.33,1.8-1,3.18-1.28,4.94.69-.37.4.18.92.38.32-.11,0-.9.37-.95.34.6.39.14.73-.19v.57c.57-.4.71-.4,1.28,0-.26-.85.49-1.62,0-2.09q.16.74-.55.57c.29-.8,1-.86,1.65-.38-.43-.91-1.19-.8-1.28-.95ZM68.33,95.09c-.37-.22-.75.1-.37-.57-.44-.11-.85-.29-.92.38.7-.17.94,1.11,1.28.19Zm24-76.87c.05-.17.5-.83.55-.38,0,.25-.32.17-.37.38.11.06.7.47.73,0-.28-.17.05-.28-.18-.76-.46-.08-1.11.59-.73.76ZM72.73,8.16c.28-.53.79-.34,1.1,0-.18.53-.78-.05-1.1,0Zm-2.38-3a5.3,5.3,0,0,1,.73,1.52c-.84.12-.75-.43-.55-.95-.43.06-.69.3-1.28.19-.3.38,0,.24,0,.76-.35,0-.4.21-.73.19,0-.19-.15-.23-.18-.38,0-.62.92-1.65.18-1.9-.3.66.15,1-.37,1.52h-.37c0-.59-.12-1.39.18-1.71-.8,0-.52,1.11-1.1,1.33,0-.22,0-.54-.18-.57,0,.15,0,.37-.18.38-.17-1,0,.49-.55.19.45-.4-.16-.84.18-1.14-.73-.18-.08,1.06-.73.95a.62.62,0,0,0-.18-.95c.11.67-.66.33-.18,0-.71-.1-.75.48-1.28.57.08-.48.59-1.65-.18-1.33.42.57-.78,1.08-1.1,1.52.91.5.3,1.55.37,2.47.32-.11,1.08.23,1.1-.19-.63.08-.79-1.74.18-2.09-.21.51.44,1.5,1.1,1.71.24-.45.35-1,.92-1.14.31.25.06,1.08.37,1.33-.63-.25-1.28.42-.73.76.38-.43,1.21-.4,1.47-.95-.21.6.29.46.37.76-.25.12,0,.73-.37.76.13-.51-.38-.37-.55-.57.16.88-.6-.13-.55.38.27.56.2,1.54,1.28,1.9,0,.7-.08,1.31-.73,1.33,0-.22,0-.54-.18-.57-.22.4-.22,1-.73,1.14-.3-.38,0-.24,0-.76-.52,0-.43.57-.92.57.41-.76-.11-1.3-1.1-1.14q.13.89-.73.76a6,6,0,0,1,1.1-2.66c-.65.08-.36.83-1.1.38-.09.92-.7,1.29-1.28,1.71.46-.74-.53-1.7-.18-.57-.27,0-.68.07-.73-.19.62-.41-.36-.69-.18-.38-.43-.77,0-1.34-.37-2.28a.94.94,0,0,1-.55.57c0-.53-.52-.48-.73-.76-.25.12,0,.73-.37.76V7.4c.65-.28,1.72-1.12,1.47-1.71-.51.16-.28,1.1-1.1.95.05-.39.37-.5.55-.76-.35,0-.4.21-.73.19-.13.58.32.56.18,1.14-.79-.21-.23-.09-.55.19-.26,0-.31-.31-.55-.38-.05.37.25.38.37.57a3.33,3.33,0,0,0-1.47.19c0-.22,0-.54-.18-.57-.6.07-.58.79-1.1.95V7.4c-.55.06-.65.59-1.47.38,0-.47.35-.59-.18-.76,0,1.44-1.31.7-1.65,1.52-.42-.2.09-1.36-.37-1.52-.32.89-.65.36-1.47.38a.84.84,0,0,1-.37.76c0-.28.06-.7-.18-.76a3.23,3.23,0,0,1-.55.76c.23-.61-.59-.14-.37-.76.3.49.8-.92.55-.95a3.44,3.44,0,0,1-1.83.95c-.24-.47.54-.79,0-.95-.7.39-2.38.48-2.93-.38-.29.7-2.34.73-1.28-.19h-1.1v.95c.57.23.89.23.37.76.36-.06.36.26.55.38,0-1,.85-.9,1.1-.38a2.67,2.67,0,0,1-.55.19c-.22.77-.12,4.08-.55,4-.74-.29.1-2.13-.73-1.52.28.16-.05.28.18.76-.65-.3-.11.64-.55.57-.33-.5-.29-1.14-.92-.38.16-.39-.16-1.18-.37-.57a.91.91,0,0,1-.37.95c.07-1.2-1.15-2.26-.37-3-.36.06-.36-.26-.55-.38-.1.34-.09.79-.37.95-.27-.62-.52.32-.73.38s-.13-.63-.55-.57c-.08.8-1.19.53-1.28,1.33-.25-.12,0-.73-.37-.76.2.71-.46.54-.37,1.14.27,0,.68-.07.73.19-.8-.07-1,.5-1.65.57,0-.37-.2-.9-.73-.38.61,1-.84.49-.55,1.52a1,1,0,0,0-.73.19c.22-1-1-.65-.92-1.52-1,0-1.93,1.6-2.2,2.47a1.61,1.61,0,0,1,1.28.38c-.57-.06.47.55-.18.57-.35-.08-.46-.41-.92-.38a1.44,1.44,0,0,1-2,.95c-.27,1,.26,2.22-.55,3.42.36.32.23,0,.73,0-.27-.81.29-.37,0-1.33.36.06.36-.26.55-.38a.8.8,0,0,1,.73.38c-.45-.11-.46.8-.18,1.14.27-.51-.12-1.13.73-1.33,0,.27-.3.32-.37.57.52-.16.47.27.92.19-.24-1,.53-.2.55-.57-.1,0-.21-.15,0-.19.27.16.26.61.37.95-.68-.2-.52.47-1.1.38a.52.52,0,0,0-.37-.57c0,.34-.18.44-.55.38.44.8-.24.34-.55.76a2.92,2.92,0,0,0,1.28.38c.25-.43-.47-.71,0-.76.56.24.93-.65,1.1-.19-.61.55,0,.49,0,1.33-.76,0-.54.64-.73.76-.27,0-.68.07-.73-.19.22,0,.52,0,.55-.19-.52.16-.47-.27-.92-.19.42.91-.09,1.41-1.1,1.71.21,0,.29.21.37.38-.59.34-1.11,1.11-2,.57.58,1.09-.74.14-.92.57.29.06,0,.27-.37.19-.24.48.72.6.18.76-.62,0-1.28.06-1.47-.38-.09-2.52-.47.93.55.95-.2.67-1.15.58-1.65.95.11,0,.22,0,.18.19-.1,0-.21.15,0,.19,0-.28.44-.17.73-.19.67.81-.76,1.28-.37,1.71.39-1,.57.76,1.1-.19.11.12.43.9,0,.95-.81.27-.48-.64-1.1-.57,0,.28.07.7-.18.76-.5-.45-1,.34-1.47-.19.21-.8.9-1.09,1.28-1.71a3.32,3.32,0,0,1-1.47-.19,2.49,2.49,0,0,1-2.38,1.33c-.48.87-1,2.36-2,2.09,0,.47.28.59.55.76-.19-.57.41-.34.73-.38a14.92,14.92,0,0,0,.37,2.09c-1,.3-1.6,1.62-1.83,2.09-.26,0-.31-.31-.55-.38-.18.93.28,1.4-.55,1.52v-.76c-.71.51-1,.32-1.47.95-.07-.59-.62-.74,0-1.14.35,0,.4.21.73.19.43-.44-.34-.61-.18-1.33-.67,0-.7-.26-1.28,0a2.53,2.53,0,0,0,.37,1.33c-.18,0-.22.15-.37.19.16-.87-.6-.77-1.1-.95-.38.71.26,1.44-.37,2.28a3.85,3.85,0,0,0-1.65-.95,10.46,10.46,0,0,1-1.83,3c-1.7.34-3.37,4.78-1.28,6.45.55-1.29-1.21-2.15-.18-3,0,.34.18.44.55.38v-.38c.1,0,.21-.15,0-.19a.18.18,0,0,1-.37,0c-.06-.44.53-.21.55-.57-.32-.08-.47.28-.55,0,.39-.4.52-.6,1.28-.38.18-.35-.55-.63,0-.76s.59,1.13.92.57c-.26-.34,0-.58-.18-1.33.59.17.25-.63.73-.57,1.13.22.78,2,1.83,2.28-.32-.9.24-.87.18-1.9.94.15.64-1,1.65-.76.24-.47-.72-.59-.18-.76.36,0,.23.52.73.38-.07-.91.88.33.92-.57-.45,0-.89,0-.92-.38.49.52.47-.15.73-.38.06.1.57.29.73,0-.27,0-.17-.46-.18-.76.49.48,1.53-.48,2,0,.25-.43-.47-.71,0-.76,0,.31.51.11.55.38-.45.26-.28.95-.18,1.14.25-.12,0-.73.37-.76a6.94,6.94,0,0,0-.18,1.9c.69.28.35-.52.92-.38-.12,1.09-1.36.9-.73,1.9a10.11,10.11,0,0,0-1.1.57c.41,0-.24.48,0,.95a.84.84,0,0,0,.55-.19c-.08.46.33.41.18.95-.54.2-1.46,0-1.65.57.38.11.69.29.55.95-.54-.05-.68-.26-.92,0,.16.4.51.61.73.95-.74,1-.11,2.23.18,3.23-.93,0-.37.35-.18.38-.46.22-.18,1.2-.73,1.33-.19-.78.74-2.16-.18-2.47-.11.33.22,1.12-.18,1.14-.52-.19.05-.81,0-1.14a8.34,8.34,0,0,1-1.65,2.09c1.22.2-.4,1.66-.37,2.85.82,0,0,1,0,1.33.94,0,.6-1.64.55-2.09.22,0,.42.34.55,0-.73.12-.24-.9,0-.95.47.26.58.61.37-.19.26.42.45-.24.55.19-.56.46.21.12.18.38-.65,1.41-.58,3.57-1.47,4.74,0-.86-1-.64-1.1-1.33-.95,1,2.11,3.52.37,3,.38,1.88,0,4,.37,5.88a.8.8,0,0,0-.73.38c.59.13.13,1.07.92.57a.92.92,0,0,0,.18.57c-.57-.29-1,.11-.92.95-1.19-.14-.24.75-1.28.76-.11.61.34.59,0,.95.89,0,1.51,0,1.83.19-.38.51-.81.26-1.28.57-.23.61.59.14.37.76-.12.39-1.65.3-1.28.57,1.52-.34.36,1.28,1.28.95-.52.59-1.11-.36-1.65-.38.58.72-.07.46-.37,1.14.77.23.8-.31,1.28-.38a.53.53,0,0,0,0,.76C12,71.09,11,70,11,71.18c1.46-.24,1.44,0,2.75.38.05-.37-.25-.38-.37-.57a12.8,12.8,0,0,1,1.65.76c.31-1-.7-.66-.55-1.52-.81-.21-.91.32-1.47.38,1.34-2,2.47.24,2.93,1.33-.85.41-.92,1.43-1.65,1.52.64-.12.32.68,0,.19a1.36,1.36,0,0,0,1.47.76c.07.76-.58,1.81,0,2.47-.13-.64.38-.62.55-.95.4.14-.42,1.94.37,1.33-.46-.27.5.2.55-.38-.09,1.4,1,1.1,1.65.95-.07.64.77.34.73.95-1.28-.45-.55,1.2-1.83.76,0,.82-.79,1.74,0,2.28-.19-.62,1.07,0,1.1.38.58.11.57-.36.92,0-.25-.63-1-.71-1.47-1.14-.17-.49-.3-1.08.18-1.33.24.39.89.34.73,1.14.59.17.25-.63.73-.57-.36,1,1.55.66.73,1.52,0-.23-.05-.45-.37-.38-.06.26-.26.36-.18.76.22,0,.52,0,.55.19-.3,0-.1.53-.37.57-1.27-.39-1.34.43-2.75,0,.06.64.61.76,1.1.95,0-.22,0-.54.18-.57s.29.21.37.38l-.55.57c.72,1.46,2,1.49,3.85,1.52,0,.45.32.56.18,1.14-.43-.38-.42.08-.18.38-.74-.26-.58.41-1.1.38s-.2-.55-.55-.57a.5.5,0,0,1-.55.38c.19.42-.34,1.76-.92,1.33-.15.54.26.49.18.95-.59.11-.85-.13-1.28-.19-.16.61.6.26.55.76a4.12,4.12,0,0,1-1.65.76c.08.65.49.24.18.95.52.16.47-.27.92-.19,0,.47,0,.92.37.95.16-.28.27-.6.73-.57,0,1.12,1.72.37,1.83,1.33a2.5,2.5,0,0,1,.55-1.9c.81.27.17.93.73,1.52-.56.13-.35.13-.92,0-.36.49.19.87-.18,1.14-.24,0-.17-.33-.37-.38a5.07,5.07,0,0,0-.55.95c.59-.23.14.61.73.38.24,0,.17-.33.37-.38.65,0,.68,1.21.18.38v.38c-.11,0-.22,0-.18.19.76-.22.71.4,1.28.38.87-1.18.45-2.38.37-3.42,0,.14,0,.38-.18.38-.39-.55-.13-1.27.37-.57-.42-.55-.69-1.38-1.28-.76,0-1.22.51-.77,0-1.33.68-.13.81.3.73.95.46.25.57-.75.73-.19-.33.74.19,1.52.55,2.09q0-.62.55-.57c.3.26.94.16,1.1.57a2.69,2.69,0,0,0-.92,1.71c.23.48.9-.18.92.19-.19.75-.73,1.14-.73,2.09.81.06-.11.84.37.95a17,17,0,0,1,4.4,0c0-.55.49-.73.55-1.14,1,1,1.71,1,2.56.38a.91.91,0,0,1-.18.57c1-.07,1.29.56,2.38.38,0-.28.07-.7-.18-.76a.5.5,0,0,1-.55.38c-.18-.5.36-1.15-.37-1.33-.57-.06.47.55-.18.57,0-.25-.32-.17-.37-.38.18-.25.17-.71.55-.76a3.79,3.79,0,0,1,2.38.95c-.11-.54.5-.87.92-1.33-.29,1.1.9,1.68-.18,2.66.82,0,.8-.81,1.1-1.33-.5-.07-.21-.57-.73-.95.9,0,1.15-.58,2-.57.08.76-.06,1.56.55,1.14a1.58,1.58,0,0,1-.37-1.14c.35,0,.4.21.73.19,0-.58-.66-.46-.55-1.14.38-.11.59-.4.92-.57.33.45-.2,1.34.18,1.52.53-.6,2.63-1,2.38.57-.7.2-1.71-.36-2.75-.38.27.72-.82,0-.55.76,1.16-.39,1.83,1,2.93.57,0,.22,0,.54.18.57,0-.89.34.13.55.19,0-.62.83-.41,1.28-.57a2.79,2.79,0,0,1,.18,1.71c.59-.08,1.58.25,1.65-.38-1,.14-1.26-.46-1.28-1.33.53.48.32.2.92,0v.95c.65-.31.57.48,1.28.95,3.74.35,8.23-.41,11.73-.95-.24-.56-.16-.94.37-1.14.09.36-.56.82.18.76.08-.36-.25-1.14.37-.95-.25.24-.32,1.14.18,1.14.42-.46-.19-.92-.18-1.52a12.45,12.45,0,0,0,2.93-.19c-.16-1,1.12-.78,1.65-.57.36-.77-.84-.88-.18-1.33.58.83,1.45.56,2-.19-.16.61.29.59.37.95-.35.36-.33-.11-.92,0,.33.35.76.43.37,1.52.52.16.47-.27.92-.19.09-.63-1-.82-.18-1.14.3.93.34.94.92.38,0,1.08-.28,1,0,1.9-.71-.41-.69.86-1.28.57.28,0,0,.31-.18.38v-.76c.22,0,.52,0,.55-.19H66.5c.23.87-.33.92-.55,1.33.91,0,.9.19,1.65,0,.05-.37-.25-.38-.37-.57.55-.18,1.12,0,1.28-.19-.29-.06,0-.27.37-.19,0,.36-.21.42-.18.76.5.31,1.06.06,1.47-.57.05.66.5,0,.55.38-.31.31-.47.78-.92.95,1.43.54,3.16.2,3.85,1.14.58.09.72-.27,1.1-.38,0,.24.23.26.18.57s-.71.15-.55.76c1.11-.4,1.88.37,3.11.38a1.37,1.37,0,0,1,.18-1.33,1.16,1.16,0,0,0,.92.19c-.34.36,0,.48,0,.95-.35-.08-.33-.54-.92-.38-.14.58.5.37.37.95,1.12-.75,2.66.66,3.66-.57a5.56,5.56,0,0,1-1.47-.95c0,.23-.06.45-.37.38a.52.52,0,0,1,.37-.57c.5.11.77.47,1.28.57.27-.1.46-.28.73-.38-.16-.48-.24-1,.55-.95-.17-.33,0-1-.55-.95-.24.48.72.6.18.76-.27-.1-.95.22-.92-.19.37-.17-.14-1.45-.55-.76.34,0,.11.64.37.76a2.93,2.93,0,0,1-1.28.38c-.37-.49.61-1.59-.18-1.71-.33.36-.4,1-.73,1.33-1.56.29-3-.22-4.58-.38,0-.28.77-.6,0-.57-.53.17-.05.7-.37.76a3.82,3.82,0,0,0-1.65-.19c.33-.53-1.4-1.15-1.1-.19,0-.25-.32-.17-.37-.38s0-1.57,0-1.71c-.09.68-.24-1.34,1.28-.57-.08.43-1,0-.92.57.55.13-.18.41,0,.76.72.09,1-.4,1.28.19-.06.21-.9.54-.37.76.39-.52.73.3.73.38,0-.12,0-.22.18-.19,0-.21.27-.3,0-.38.06.39-.53,0-.55-.19.37-.82,1.32-1,2.2-1.33.05.39.49.38.73.57.39-1,.56-1.87,1.1-3-.44-.45-1-1.05-.73-1.9a17.89,17.89,0,0,0,1.83,1.71c-.49-.57-1.15,1-.73,1.33.25-.12,0-.73.37-.76a.52.52,0,0,1,.37.57c-.35,0-.4.21-.73.19.3.38,0,1.41.37,1.71,0-.23.05-.45.37-.38.2-.49-.56-.9,0-1.14.68,1.1-.46,1.74-.92,2.28a6.94,6.94,0,0,1,1.65-.57c-.05.43,0,.71.37.76a3,3,0,0,0-.73-1.52c-.06-.44.53-.21.55-.57-.14,0-.36,0-.37-.19.74-.37.85.87,1.28.19-.7-.74-.6-1.73-1.47-.95.37-.38-.06-.9-.18-1.33.57.51.71-.51,1.1,0-1.18.57.74.21,0,.95,1-.09.62.48.55,1.14.56,0,.13-.49.73-.76-.06.41.5,1.57,1.1,1.14-.66-.2.06-.75,0-.95.38.05.17.71.55.76a.53.53,0,0,0,0-.76c1,.17,0-.46.73-.57.65.31,1.51,1.47,1.47.38.46.52,2.32.64,2.75.57-.35-.08-.79-.07-.73-.57a6.94,6.94,0,0,1,3.48.76c-.21,0-.2-.3-.18-.57a8,8,0,0,1-2.93-1.14c1.83-.18,5.69.76,7-.38-.14,0-.36,0-.37-.19a1.16,1.16,0,0,0,.92-.19c.25-.43-.47-.71,0-.76,1.59-.09,4.18-1.7,5.86-1.71.06-.9.55-.18.92-.76.45-1.12-.54-2-.55-3.23h.55a1.09,1.09,0,0,1,.18-.76c-.27-.1-.95.22-.92-.19.73-.13.44-1.32,1.28-1.33.05-.37-.25-.38-.37-.57.59-.46.79-1.33,1.28-1.9-.48.05-.92.06-.73-.57a.84.84,0,0,1,.55.19,6,6,0,0,1,1.65-4.75.51.51,0,0,1-.55-.38c1,.12,1.87-2.13,3.3-.95A4.18,4.18,0,0,0,109,73.07c0-.13-.35-.89-.37-1.14-.13-1.67.5-4.51-.73-4.37-.23-.61.59-.15.37-.76-1.61-.17-.3-1.59-1.28-1.52.65-.91-1.26-1.73,0-2.28-.53,0-.93,0-1.1-.38.27-.1.95.22.92-.19-.58-.19-1.18-.37-.73-1.14-.56-.12-1.58.24-1.83-.19.78-.48,1.42-1.27.73-2.09-.48-.56.18.14.18-.57a8.61,8.61,0,0,0-.73-2.85,30.08,30.08,0,0,0,2.93-3.42c-1.15-3.43-2.08-7.09-4.4-9.3.57-.13.24-.51.18-.95-1.34-.06-2.32-.39-3.11.38.14-.55.87-.49.73-1.33a2.07,2.07,0,0,1-1.65-.38v-.38a8.15,8.15,0,0,0,2.38.19c.08-.61.26-.93.55-.38.33-.77-1-1.2.18-1.14.09-.94-2-.87-.92-1.71-.56-.14-.54.33-1.1.19.15-.54-.26-.49-.18-.95a.51.51,0,0,0,.55-.38c-.69.14-.89-.21-.92-.76-.91-.31-.58.66-1.28.57-.09-1,1-.89,1.1-1.71-.64.16-.63-.29-.37-.57-1.13.35-.86-.67-1.83-.95.45,0,.89,0,.92-.38-.45,0-.89,0-.92-.38.35-.27.81-.42.73-1.14-.76-.43-2.07.1-2.56-.19A.86.86,0,0,0,96,29c.67-.06.84-.65,1.1-1.14-1.33-1.53-1.77-1-2.56-3,.36-.47.44-1,0-1.33.72.06.26-.66.37-1.33,0,.15-.61.58-.55.19.62,0,.43-2,0-.95.11-.63.54-.65.18-1.33a2.44,2.44,0,0,1-1.1-.38c.11.75-.41.84-.92.95.05-.39.37-.51.55-.76-.45,0-.89,0-.92-.38.7-.48,1.19-1.18,1.83-1.71-.47,1.11.35.82.73,1.71-.3-1.06.64-2.25-.18-2.66,0,.22,0,.54-.18.57-.26-.24-.08-.93-.55-.95a.94.94,0,0,1-.37.95c-.55-.18-.34-.86,0-.19a15,15,0,0,0-1.1-2.85,4.52,4.52,0,0,1,.73-.76,4,4,0,0,1-1.83.38c0-.27.3-.32.37-.57a4,4,0,0,1-2.38.19c.53.05.7-.74.18-.76.33.8-1,.68-.37.19a5.61,5.61,0,0,1-1.46.57c-.15-.54-.73-.64-1.1-.95-.26.24-.08.93-.55.95-.27-1,.44-.94.55-1.52-.21,0-.52,0-.55-.19.38-.12.69-.29.55-.95-.32.11-1.08-.23-1.1.19.22,0,.43.06.37.38-.34-.18-.61.57-.73,0a3.21,3.21,0,0,0,.37-1.33c-.86.19,0-1.43-.55-1.52-.36.48.19.87-.18,1.14-.19-.92-.81-.66-1.1-1.14,0,.36-.21.42-.18.76.22,0,.52,0,.55.19-.25,1.18-1.23.48-1.65,1.33-.41-.27.23-.46-.18-.57-.06.26-.26.36-.18.76.32.11,1.08-.23,1.1.19-.63.35-.88,0-1.65,0a.92.92,0,0,1-.18.57c.77-.08-.56.7.37.95-.8-.22-1.29.46-2-.38.37-.21.75-.91,1.28-.38.33-1,.86-2.6-.55-2.09,0-.54-.69-.44-.18-.95a2.18,2.18,0,0,0-2.38,1.14c.31-.71-.11-.3-.18-.95.57.32.89-.71.55-.19-.65-.06-.94,0-1.1-.19.27,0,.17-.46.18-.76-.7-.16-.22.91-.92.76-.41-1.17,0-1.36-.18-2.09,0,.31-.51.11-.55.38.3.08-.29.82-.55.95a.94.94,0,0,0-.37-.95c-.1.34-.09.79-.37.95-.51,0-.56-.56-.73-.95.63-.11,1.33-.14,1.28-.95-.56-.14-.35.52-.92.38,0-.89-.77-.41-.55-1.33-.46-.25-.44.88-.73.19.11-.51.77-.47.73-1.14-1,.06,0-.88-.73-.95,0,.15-.15.22-.37.19-.2.49.56.91,0,1.14-.48-.8-.45-1-.37-2.28-.75.49-.11,1.59-1.28,2.28.22,0,.52,0,.55.19-.24.46-.68-.21-.73.19ZM69.06,0c-.14.88,1,.46,1.28.38A2.92,2.92,0,0,1,69.06,0ZM88.3,99.27c-.26.17-1.6.83-1.65,0,.77.48.88-.47,1.65,0Zm-44.7-.76c.55,0,.62.49,1.1.57-.27.83-1.2.12-1.1-.57Zm-4.76.57c-.35-.08-1.1.26-.92-.38.27-.3,1-.28.92.38Zm36.09-1.52c.51.1,1,.28,1.47.38-.69,0-2,1.1-2,0,.27.27.71.28.55-.38Zm-34.07-.19a.94.94,0,0,1,.55.57,1.94,1.94,0,0,0-.18,1.52c-.77-.37-.39-1.16-.37-2.09Zm40.12,0c.56-.5.6.85.55,1.14-.37-.93-1.16-.52-1.65-.57,0-.7,1.61-.35,1.1-.57ZM63.2,97.18c0,.66,1,1.41.18,1.71s-.19-.82-.55-.95c-.91.1-1,.08-1.65.19.56-.57,1-1.35,2-.95Zm28.95-.38c-.22.28-.16.85-.73.76-.28-.61-.06-.84.73-.76Zm-67.6-1.71c.78.19-.26,1.16.55,1.14,0,.38-.5.24-.37.76-.15-.41-.69-.42-.73-.95.56.07.38-.62.55-.95ZM92.7,94.9c.62.22.29.38,1.1.19a.91.91,0,0,0-.18.57c-.32-.13-.57-.21-.73,0-.25-.06-.15-.48-.18-.76Zm4.4-2.09c0-.16.07-.18.18-.19h.37c.19.83-.62.62-.55,1.33-.71-.27.37-1.22,0-1.14ZM19.6,87.69c.81,0,.14,1.11-.37.95-.14-.58.5-.37.37-.95ZM15,81.81c-.11.45.23,1.38-.18,1.52.28-.92-2.11-1.11-2.2-.19,1,.45,2.34.13,2.56.95.35,0,.4-.21.73-.19A13.51,13.51,0,0,1,15,81.81Zm1.65-1.14c.45-.73,1,1.41,0,1.14,0-.34-.22-.4-.18-.76h.37c0-.22,0-.34-.18-.38ZM15,79.34a3.24,3.24,0,0,1,.55.76c.56.14.35-.52.92-.38-.3.38,0,.24,0,.76-.39-.09-.35.27-.37.57-.27.1-.95-.22-.92.19-.64-.32.36-.49.73-.38a.91.91,0,0,1-.18-.57,1.79,1.79,0,0,1-1.47-.19c.33-.65.76.12.73-.76Zm1.65-1.71c.7.24,0,.78.37,1.33-.31.07-.35-.15-.37-.38a.85.85,0,0,1-.55.19c.11-.45.8-.31.55-1.14Zm-3.3-.76c-.06.66,1.72-.58,1.1.76-.17-.32-.68-.66-.55.19-.62-.22-.29-.38-1.1-.19.11-.18.43-.7-.18-.57-.59-.22.49-.22.73-.19ZM5.31,75.16c.76.1,1.44.28,2.2.38-.33.16-.51.49-.92.57.11-1.07-.41-.1-.92-.19.6-.6-.55-.07-.37-.76ZM6,74c1.75-.21,3.31.35,5.13.57C10,75,7.3,75,6,74Zm6.78-.57c.24.32,1,.06,1.28.38-.23.41-1.41.21-1.28-.38Zm-2.93-1.9c0,1,1.37.42,1.65.38-.11,0-.22,0-.18-.19.11,0,.22,0,.18-.19Zm2.93-13.1c.24.25.55.12.73-.19.16,0,.17.07.18.19v.38c-.45.12-.94.38-.92-.38Zm1.47-5.69c.16,0,.17.07.18.19.21,0,.33,0,.37-.19.25.06.15.47.18.76-.32-.39-.57-.17-.73-.38v-.38ZM9.34,45.93c.64-.09.1,1,.55,1.14-.68.82-.49-.87-1.1-.76,0-.27.55-.07.55-.38Zm3.11-.76a.92.92,0,0,1-.18.57c.25.06.35.27.73.19a.91.91,0,0,1,.18-.57c-.35,0-.4-.21-.73-.19Zm-4.4-.57c.28.68-.62.12-.55.57.76.12.93,1.21,1.65.38a.81.81,0,0,1-.55-.95Zm7.51-4.18c0,.21-.2.3-.37.38a.84.84,0,0,1-.55-.19c0,.81.86.52,1.1.38-.57.06.47-.55-.18-.57Zm26-30.94c.4,0,.39.48.37.95-.33,0-.39-.23-.73-.19.08-.3.58-.16.37-.76Zm.37-1.14c.14.42.61.51.55,1.14-.69-.06-.74-.63-.55-1.14ZM82.8,7.59c.24.07.29.34.55.38-1,.25-.06,1.13-.18,2.09-1.05-.21-.08-1.33-.92-1.71-.05-.5.71-.15.55-.76Zm-5.5-1.14c.52.14.48,1.5.37,1.71a1.72,1.72,0,0,1-.37-1.71Zm5.5-.19c.2,0,.12.38.37.38-.33.54-1.79-.08-1.47,1.14-.31-.24-.72-.39-.73-.95.74-.06,1.68.1,1.83-.57Zm-41-.38c.76.8-.48,1.14-.37,1.9h-.73c0-.27,0-.54-.18-.57.2-.63.56,0,1.1-.38-.12-.19-.42-.2-.37-.57.24-.23.29-.07.55,0V5.88Zm-3.11-.19c.61.28-.38.46-.18.95-.73-.21-.12-.75.18-.95Zm-1.47-.57c.48-.05.92-.06.73.57C37.57,5.61,37.13,5.63,37.19,5.12Z"/><path class="cls-2" d="M11.9,67.71H25.15a1.14,1.14,0,0,1,1.14,1.14h0A1.14,1.14,0,0,1,25.15,70H11.9a1.14,1.14,0,0,1-1.14-1.14h0A1.14,1.14,0,0,1,11.9,67.71Z"/><path class="cls-2" d="M17.7,60h7.45a1.14,1.14,0,0,1,1.14,1.14h0a1.14,1.14,0,0,1-1.14,1.14H17.7a1.14,1.14,0,0,1-1.14-1.14h0A1.14,1.14,0,0,1,17.7,60Z"/><path class="cls-2" d="M1.14,75.36h24a1.14,1.14,0,0,1,1.14,1.14h0a1.14,1.14,0,0,1-1.14,1.14h-24A1.14,1.14,0,0,1,0,76.5H0A1.14,1.14,0,0,1,1.14,75.36Z"/><path class="cls-3" d="M84.21,58.68h8.16a9,9,0,0,1,4.22.86c-.11-.61-.77-1.06-1.52-1.62A44.26,44.26,0,0,0,86.67,53c-2.65-1.16-4.95-1.49-5.09.87,0,0-.14,3.9-.1,6.14A3.47,3.47,0,0,1,84.21,58.68Z"/><path class="cls-4" d="M87.86,88.77a3.34,3.34,0,1,1,3.34-3.34,3.34,3.34,0,0,1-3.34,3.34Zm0-9.42a6.08,6.08,0,1,0,6.08,6.08A6.08,6.08,0,0,0,87.86,79.35Z"/><circle class="cls-5" cx="87.86" cy="85.43" r="0.92"/><path class="cls-4" d="M87.31,83.21a.5.5,0,0,0,0,.07.57.57,0,1,0,1.14,0,.55.55,0,0,0,0-.07,2.07,2.07,0,0,0-1.12,0Z"/><path class="cls-4" d="M85.66,84.8l.05,0a.57.57,0,0,0,.57-1l-.07,0a2.07,2.07,0,0,0-.56,1Z"/><path class="cls-4" d="M86.22,87l.07,0a.57.57,0,0,0-.57-1l-.05,0a2.07,2.07,0,0,0,.56,1Z"/><path class="cls-4" d="M88.42,87.65a.53.53,0,0,0,0-.07.57.57,0,0,0-1.14,0,.49.49,0,0,0,0,.07,2.07,2.07,0,0,0,1.12,0Z"/><path class="cls-4" d="M90.07,86.06,90,86a.57.57,0,1,0-.57,1l.07,0a2.25,2.25,0,0,0,.34-.44A2.31,2.31,0,0,0,90.07,86.06Z"/><path class="cls-4" d="M89.51,83.83l-.07,0a.57.57,0,1,0,.57,1l.05,0a2.31,2.31,0,0,0-.21-.52A2.26,2.26,0,0,0,89.51,83.83Z"/><path class="cls-4" d="M48.19,88.77a3.34,3.34,0,1,1,3.34-3.34,3.34,3.34,0,0,1-3.34,3.34Zm0-9.42a6.08,6.08,0,1,0,6.08,6.08A6.08,6.08,0,0,0,48.19,79.35Z"/><circle class="cls-5" cx="48.19" cy="85.43" r="0.92"/><path class="cls-4" d="M47.63,83.21a.53.53,0,0,0,0,.07.57.57,0,1,0,1.14,0,.55.55,0,0,0,0-.07,2.25,2.25,0,0,0-.56-.08A2.23,2.23,0,0,0,47.63,83.21Z"/><path class="cls-4" d="M46,84.8l.05,0a.57.57,0,0,0,.57-1l-.07,0a2.07,2.07,0,0,0-.56,1Z"/><path class="cls-4" d="M46.54,87l.07,0A.57.57,0,0,0,46,86l-.05,0a2.08,2.08,0,0,0,.56,1Z"/><path class="cls-4" d="M48.75,87.65a.53.53,0,0,0,0-.07.57.57,0,1,0-1.14,0,.52.52,0,0,0,0,.07,2.24,2.24,0,0,0,.56.08A2.27,2.27,0,0,0,48.75,87.65Z"/><path class="cls-4" d="M50.4,86.06l-.05,0a.57.57,0,1,0-.57,1l.07,0a2.24,2.24,0,0,0,.35-.44A2.29,2.29,0,0,0,50.4,86.06Z"/><path class="cls-4" d="M49.84,83.83l-.07,0a.57.57,0,1,0,.57,1l.05,0a2.29,2.29,0,0,0-.21-.52A2.26,2.26,0,0,0,49.84,83.83Z"/><path class="cls-3" d="M98.32,71.86c-1.15-.2-9.58-2.91-11.3-3.48s-1.6-1.39-1.6-2.13-.08-2.17-.08-3.56S85.92,61,87.23,61c.82,0,4.63.08,6.18.12a4.36,4.36,0,0,1,3.44,1.72A14.38,14.38,0,0,1,100,70.34c0,1.43-.49,1.72-1.64,1.52ZM87.76,73.58a.16.16,0,0,0,.16-.16,1.35,1.35,0,0,0-1.35-1.35H84.94a.16.16,0,0,0-.16.16v1.19a.16.16,0,0,0,.16.16Zm15.45,6.82V75.5c0-3-1.35-6.76-3-10-1.92-3.72-2.88-6-7.79-6H84.21a2.68,2.68,0,0,0-2.67,2.67V76.25h-43a1.43,1.43,0,0,0-1.44,1.44v5.76a1.44,1.44,0,0,0,1.44,1.44h2a7.7,7.7,0,0,1,15.36,0H80.18a7.7,7.7,0,0,1,15.36,0h7.53a1.06,1.06,0,0,0,1.06-1.06V81.45A1.06,1.06,0,0,0,103.21,80.4Z"/><path class="cls-2" d="M78.18,48.65h-3.6V68.14H31.27v4.62a2.54,2.54,0,0,0,2.54,2.54H80.72V51.19A2.54,2.54,0,0,0,78.18,48.65Z"/><path class="cls-2" d="M36.52,81.13H35a.56.56,0,0,0-.56.56v2.63a.56.56,0,0,0,.56.56h2.14a2,2,0,0,1-.62-1.44Z"/><path class="cls-2" d="M67,58.4l.31-.1q-.14.53-.31,1V58.4Zm0-1.46V55.16c.33-.09.63-.18.91-.28l0,.17q-.09.86-.23,1.64h0c0,.06-.23.14-.65.24Zm0-3.32V49.9q.14.3.26.62a6.51,6.51,0,0,0,2.15-2.31A12.26,12.26,0,0,0,70.78,43c0-.07,0-.13,0-.2a4.56,4.56,0,0,0-1.07-3,3.48,3.48,0,0,0-2.63-1.13H67v-1.5h.09a5,5,0,0,1,3.74,1.62,6,6,0,0,1,1.36,4c0,.08,0,.17,0,.25A15.8,15.8,0,0,1,70.73,49a12.24,12.24,0,0,1-2.87,4q0,.21,0,.43A7.15,7.15,0,0,1,67,53.61ZM62.35,65.19c.62.26,1,.58,1,.92,0,.92-2.64,1.67-5.9,1.67V59.35a48.89,48.89,0,0,0,7.92-.58A14.37,14.37,0,0,0,67,58.4v.92a10.72,10.72,0,0,1-4.65,5.87Zm4.65-28v1.5a3.69,3.69,0,0,0-2.58,1.18,4.74,4.74,0,0,0-1.19,3.08A10.5,10.5,0,0,0,63.33,45c.35.41.73.81,1.13,1.23s.33.39.6.69a11.48,11.48,0,0,1,1.94,3v3.71c-.43.09-1,.2-1.61.31a49.22,49.22,0,0,1-8,.57V32.78a26.76,26.76,0,0,0,4.67-.36,3.43,3.43,0,0,0,2.18-1,.65.65,0,0,1,.14.39.76.76,0,0,1-.27.54c-.58.63-2.43,1.4-2.66,3.72a14.55,14.55,0,0,0,0,5.42c.22,0,.46-.21.64-.76a5.58,5.58,0,0,1,1.19-1.95A5.18,5.18,0,0,1,67,37.15Zm0,18v1.78c-.45.11-1.11.24-1.93.38a47.25,47.25,0,0,1-7.63.55V56a50.9,50.9,0,0,0,8.25-.6c.47-.08.91-.18,1.31-.28ZM57.43,31.84a25.9,25.9,0,0,0,4.5-.34,4.7,4.7,0,0,0,1.51-.4,4.7,4.7,0,0,0-1.51-.39,25.87,25.87,0,0,0-4.5-.34Zm0,35.94c-3.26,0-5.9-.75-5.9-1.67,0-.32.32-.62.88-.87a10.36,10.36,0,0,1-4.66-5.94v-.91a14.08,14.08,0,0,0,1.7.39,49,49,0,0,0,8,.58h0v8.43Zm0-37.42v1.48a25.9,25.9,0,0,1-4.5-.34,4.7,4.7,0,0,1-1.51-.4,4.7,4.7,0,0,1,1.51-.39,25.87,25.87,0,0,1,4.5-.34Zm0,2.42a26.77,26.77,0,0,1-4.67-.36,3.43,3.43,0,0,1-2.18-1,.66.66,0,0,0-.14.39.61.61,0,0,0,.08.3c.23.69,2.55,1.34,2.82,4a14.55,14.55,0,0,1,0,5.43c-.25,0-.51-.15-.72-.77a5.58,5.58,0,0,0-1.19-1.95,5.18,5.18,0,0,0-3.68-1.65v1.5a3.69,3.69,0,0,1,2.58,1.18,4.74,4.74,0,0,1,1.19,3.08,10.3,10.3,0,0,1-.14,2.23c-.29.33-.59.66-.92,1l-.73.79a11.25,11.25,0,0,0-2,3V53.6c.44.1,1,.2,1.67.32a49.28,49.28,0,0,0,8,.57h0V32.78Zm0,23.26v1.83h0a47.32,47.32,0,0,1-7.66-.55c-.86-.15-1.54-.28-2-.4V55.14c.42.11.87.21,1.37.29a51,51,0,0,0,8.28.6ZM47.75,59.3q-.16-.48-.29-1l.29.09v.91Zm0-22.15v1.5h-.09A3.48,3.48,0,0,0,45,39.78a4.56,4.56,0,0,0-1.07,3c0,.06,0,.13,0,.2a12.26,12.26,0,0,0,1.38,5.19,6.51,6.51,0,0,0,2.18,2.32q.11-.28.23-.56V53.6a6.63,6.63,0,0,1-.87-.23q0-.2,0-.39A12.14,12.14,0,0,1,44,49a15.8,15.8,0,0,1-1.45-5.89c0-.08,0-.17,0-.25a6,6,0,0,1,1.36-4,5,5,0,0,1,3.74-1.62Zm0,18v1.78c-.39-.1-.6-.18-.6-.23h0q-.13-.77-.22-1.62l0-.19C47.15,55,47.44,55.06,47.75,55.14Z"/></g></g></svg>