<svg width="20" height="20" viewBox="0 0 20 20" fill="currentColor" xmlns="http://www.w3.org/2000/svg">
<path d="M7.34371 12.9823L6.71465 13.6112H5.55762C5.4851 13.6112 5.41555 13.64 5.36427 13.6913C5.31299 13.7426 5.28418 13.8122 5.28418 13.8847C5.28418 13.9572 5.31299 14.0267 5.36427 14.078C5.41555 14.1293 5.4851 14.1581 5.55762 14.1581H6.17418L5.53355 14.7987C5.48227 14.85 5.45346 14.9196 5.45346 14.9921C5.45346 15.0646 5.48227 15.1342 5.53355 15.1855C5.58484 15.2367 5.65439 15.2656 5.72691 15.2656C5.79944 15.2656 5.86899 15.2367 5.92027 15.1855L6.5609 14.5448V15.1497C6.5609 15.2222 6.58971 15.2917 6.64099 15.343C6.69227 15.3943 6.76182 15.4231 6.83434 15.4231C6.90686 15.4231 6.97641 15.3943 7.02769 15.343C7.07896 15.2917 7.10777 15.2222 7.10777 15.1497V13.992L7.7309 13.3692C7.7822 13.3179 7.81101 13.2482 7.81098 13.1757C7.81095 13.1031 7.78209 13.0335 7.73074 12.9822C7.6794 12.9309 7.60978 12.9021 7.53719 12.9021C7.46461 12.9021 7.39501 12.931 7.34371 12.9823ZM14.7157 13.8847C14.7157 13.8122 14.6869 13.7426 14.6356 13.6914C14.5843 13.6401 14.5148 13.6113 14.4423 13.6112H13.2848L12.6562 12.9823C12.6049 12.9311 12.5353 12.9023 12.4628 12.9023C12.3903 12.9023 12.3207 12.9311 12.2694 12.9824C12.2181 13.0337 12.1893 13.1033 12.1893 13.1758C12.1894 13.2484 12.2182 13.3179 12.2695 13.3692L12.8926 13.992V15.1497C12.8926 15.2222 12.9214 15.2917 12.9727 15.343C13.024 15.3943 13.0935 15.4231 13.1661 15.4231C13.2386 15.4231 13.3081 15.3943 13.3594 15.343C13.4107 15.2917 13.4395 15.2222 13.4395 15.1497V14.5448L14.0801 15.1855C14.1314 15.2367 14.201 15.2656 14.2735 15.2656C14.346 15.2656 14.4156 15.2367 14.4668 15.1855C14.5181 15.1342 14.5469 15.0646 14.5469 14.9921C14.5469 14.9196 14.5181 14.85 14.4668 14.7987L13.8262 14.1581H14.4428C14.5152 14.158 14.5846 14.1291 14.6358 14.0779C14.687 14.0266 14.7157 13.9571 14.7157 13.8847Z"/>
<path d="M17.6945 3.85929H17.6164C17.2849 3.85929 16.9669 3.99098 16.7325 4.2254C16.4981 4.45982 16.3664 4.77777 16.3664 5.10929H17.6597C17.8579 5.10588 18.0505 5.17575 18.2004 5.30549C18.3503 5.43523 18.4471 5.61574 18.4722 5.81241C18.483 5.92104 18.4709 6.03072 18.4368 6.1344C18.4026 6.23809 18.3471 6.33347 18.2739 6.41442C18.2007 6.49537 18.1113 6.56009 18.0115 6.60441C17.9118 6.64874 17.8039 6.67169 17.6947 6.67179H12.1091C11.7154 6.67179 11.3378 6.5154 11.0595 6.23702C10.7811 5.95865 10.6247 5.58109 10.6247 5.18741V4.59054H11.4194C11.6403 4.59054 11.8522 4.50278 12.0084 4.34657C12.1646 4.19035 12.2523 3.97849 12.2523 3.75757H9.55453C9.17531 3.75757 8.81163 3.90821 8.54348 4.17636C8.27533 4.44451 8.12469 4.80819 8.12469 5.18741H9.37469C9.37469 5.58109 9.2183 5.95865 8.93992 6.23702C8.66155 6.5154 8.28399 6.67179 7.89031 6.67179H2.33969C2.14144 6.67523 1.94889 6.60537 1.79896 6.47562C1.64902 6.34587 1.55225 6.16535 1.52719 5.96866C1.51642 5.86004 1.5285 5.75037 1.56266 5.6467C1.59682 5.54302 1.6523 5.44765 1.72553 5.36671C1.79876 5.28576 1.88812 5.22104 1.98787 5.17671C2.08761 5.13237 2.19553 5.10941 2.30469 5.10929H3.63281C3.63281 4.77777 3.50112 4.45982 3.2667 4.2254C3.03228 3.99098 2.71433 3.85929 2.38281 3.85929H2.30469C1.76597 3.85929 1.24931 4.07329 0.868377 4.45423C0.487444 4.83516 0.273438 5.35182 0.273438 5.89054V14.4062C0.604958 14.4062 0.922901 14.2745 1.15732 14.04C1.39174 13.8056 1.52344 13.4877 1.52344 13.1562V7.76554C1.7709 7.86896 2.03648 7.92207 2.30469 7.92179H2.995V12.8419C3.32652 12.8419 3.64446 12.7102 3.87888 12.4758C4.1133 12.2414 4.245 11.9235 4.245 11.5919V7.92179H5.71641V11.2783C6.04793 11.2783 6.36587 11.1467 6.60029 10.9122C6.83471 10.6778 6.96641 10.3599 6.96641 10.0283V7.92179H8.74969V10.5821C8.75002 10.7391 8.71935 10.8947 8.65942 11.0398C8.59949 11.185 8.51149 11.3168 8.40047 11.4279L7.56219 12.2655C7.44363 12.3794 7.37272 12.5341 7.36379 12.6982C7.35485 12.8624 7.40856 13.0238 7.51406 13.1499C7.57078 13.2131 7.63977 13.2641 7.71684 13.2997C7.7939 13.3354 7.87742 13.3549 7.9623 13.3572C8.04718 13.3595 8.13164 13.3445 8.21052 13.3131C8.2894 13.2816 8.36105 13.2345 8.42109 13.1744L9.16953 12.4258C9.16953 12.95 9.058 13.4681 8.84234 13.9459L8.83656 13.9587C8.5378 14.6202 8.18685 15.257 7.78703 15.8629L7.53703 16.2416C7.90447 16.2418 8.26722 16.1592 8.59833 15.9999C8.92943 15.8406 9.22038 15.6087 9.44953 15.3215C9.58389 15.6482 9.76534 15.9535 9.98812 16.2277L9.99953 16.2416L10.0109 16.2277C10.2337 15.9535 10.4152 15.6482 10.5495 15.3215C10.7787 15.6087 11.0696 15.8406 11.4007 15.9999C11.7318 16.1592 12.0946 16.2418 12.462 16.2416L12.2106 15.8605C11.8114 15.2554 11.4609 14.6193 11.1627 13.9585L11.1569 13.9459C10.9412 13.4681 10.8296 12.95 10.8295 12.4258L11.5778 13.1751C11.6379 13.2351 11.7095 13.2823 11.7884 13.3137C11.8673 13.3451 11.9517 13.3601 12.0366 13.3578C12.1215 13.3556 12.205 13.336 12.2821 13.3003C12.3591 13.2647 12.4281 13.2137 12.4848 13.1505C12.5906 13.0245 12.6445 12.8629 12.6356 12.6986C12.6268 12.5343 12.5559 12.3795 12.4372 12.2655L11.5989 11.4273C11.488 11.3163 11.4 11.1845 11.3401 11.0395C11.2802 10.8944 11.2494 10.739 11.2497 10.5821V7.92179H13.033V10.0283C13.033 10.3599 13.1647 10.6778 13.3991 10.9122C13.6335 11.1467 13.9514 11.2783 14.283 11.2783V7.92179H15.7544V11.5919C15.7544 11.9235 15.8861 12.2414 16.1205 12.4758C16.3549 12.7102 16.6729 12.8419 17.0044 12.8419V7.92179H17.6945C17.9627 7.92207 18.2283 7.86896 18.4758 7.76554V13.1562C18.4758 13.4877 18.6075 13.8056 18.8419 14.04C19.0763 14.2745 19.3943 14.4062 19.7258 14.4062V5.89054C19.7258 5.35182 19.5118 4.83516 19.1308 4.45423C18.7499 4.07329 18.2333 3.85929 17.6945 3.85929Z"/>
<path d="M13.9258 6.94507H14.9222C14.9947 6.94507 15.0643 6.91626 15.1155 6.86498C15.1668 6.8137 15.1956 6.74415 15.1956 6.67163C15.1956 6.59911 15.1668 6.52956 15.1155 6.47828C15.0643 6.427 14.9947 6.39819 14.9222 6.39819H13.9258C13.8533 6.39819 13.7837 6.427 13.7324 6.47828C13.6812 6.52956 13.6523 6.59911 13.6523 6.67163C13.6523 6.74415 13.6812 6.8137 13.7324 6.86498C13.7837 6.91626 13.8533 6.94507 13.9258 6.94507Z"/>
<path d="M17.6948 3.58569H17.6167C17.2128 3.58627 16.8256 3.74704 16.5401 4.03273C16.2546 4.31842 16.0941 4.7057 16.0938 5.1096C16.0937 5.14551 16.1008 5.18108 16.1145 5.21426C16.1283 5.24745 16.1484 5.2776 16.1738 5.30299C16.1992 5.32839 16.2293 5.34853 16.2625 5.36226C16.2957 5.376 16.3313 5.38306 16.3672 5.38304H17.6605C17.7908 5.3796 17.9178 5.4242 18.0174 5.50836C18.117 5.59252 18.1821 5.71036 18.2005 5.83944C18.2079 5.9102 18.2002 5.98173 18.178 6.04931C18.1558 6.11688 18.1194 6.17897 18.0714 6.23147C18.0238 6.28399 17.9658 6.32598 17.901 6.35477C17.8362 6.38356 17.7662 6.39851 17.6953 6.39866H16.7387C16.6662 6.39866 16.5967 6.42747 16.5454 6.47875C16.4941 6.53003 16.4653 6.59958 16.4653 6.6721C16.4653 6.74462 16.4941 6.81417 16.5454 6.86545C16.5967 6.91673 16.6662 6.94554 16.7387 6.94554H17.6953C17.8426 6.9454 17.9883 6.91444 18.1229 6.85465C18.2575 6.79486 18.3781 6.70756 18.477 6.59836C18.5758 6.48917 18.6508 6.3605 18.6969 6.22062C18.7431 6.08074 18.7595 5.93275 18.745 5.78616C18.7124 5.52229 18.5838 5.27965 18.3838 5.10446C18.1838 4.92926 17.9263 4.83377 17.6605 4.83616H16.6795C16.739 4.63347 16.8624 4.45546 17.0314 4.32872C17.2004 4.20199 17.4058 4.13334 17.617 4.13304H17.6952C18.1612 4.13353 18.6081 4.31889 18.9376 4.64843C19.2672 4.97797 19.4526 5.42479 19.4531 5.89085V14.094C19.2504 14.0346 19.0723 13.9112 18.9456 13.7422C18.8188 13.5732 18.7502 13.3677 18.75 13.1565V7.76585C18.75 7.72078 18.7389 7.6764 18.7177 7.63667C18.6964 7.59693 18.6656 7.56308 18.6281 7.53811C18.5906 7.51315 18.5475 7.49785 18.5026 7.49359C18.4577 7.48932 18.4125 7.49622 18.3709 7.51366C18.157 7.60335 17.9273 7.6494 17.6953 7.64913H17.0047C16.9322 7.64913 16.8626 7.67794 16.8113 7.72922C16.7601 7.7805 16.7313 7.85005 16.7313 7.92257V12.5299C16.5285 12.4705 16.3505 12.3471 16.2237 12.1781C16.097 12.0091 16.0284 11.8036 16.0281 11.5924V7.9221C16.0281 7.84958 15.9993 7.78003 15.948 7.72875C15.8968 7.67747 15.8272 7.64866 15.7547 7.64866H14.2833C14.2108 7.64866 14.1412 7.67747 14.0899 7.72875C14.0387 7.78003 14.0098 7.84958 14.0098 7.9221V10.9662C13.8071 10.9068 13.6291 10.7834 13.5023 10.6144C13.3756 10.4454 13.3069 10.2399 13.3067 10.0287V7.9221C13.3067 7.84958 13.2779 7.78003 13.2266 7.72875C13.1754 7.67747 13.1058 7.64866 13.0333 7.64866H11.25C11.1775 7.64866 11.1079 7.67747 11.0567 7.72875C11.0054 7.78003 10.9766 7.84958 10.9766 7.9221V10.5819C10.9756 10.7751 11.0132 10.9664 11.0869 11.1449C11.1607 11.3234 11.2693 11.4854 11.4062 11.6215L12.2444 12.4598C12.3136 12.5241 12.356 12.6121 12.3631 12.7063C12.3702 12.8005 12.3415 12.8939 12.2827 12.9679C12.2508 13.0035 12.212 13.0322 12.1686 13.0523C12.1253 13.0724 12.0783 13.0834 12.0305 13.0848C11.9828 13.0861 11.9352 13.0776 11.8908 13.06C11.8464 13.0423 11.8061 13.0157 11.7723 12.9819L11.0234 12.2333C10.9852 12.1951 10.9364 12.1691 10.8834 12.1586C10.8304 12.1481 10.7754 12.1535 10.7254 12.1742C10.6755 12.1949 10.6328 12.23 10.6027 12.2749C10.5727 12.3199 10.5566 12.3727 10.5566 12.4268C10.5562 12.9945 10.6782 13.5556 10.9141 14.0719C11.1996 14.7045 11.5319 15.3148 11.9083 15.8979C11.4563 15.7787 11.0548 15.5169 10.7634 15.1513C10.7337 15.1143 10.6949 15.0857 10.6507 15.0682C10.6065 15.0507 10.5586 15.0451 10.5116 15.0518C10.4646 15.0584 10.4201 15.0772 10.3826 15.1063C10.3451 15.1354 10.3157 15.1737 10.2975 15.2176C10.216 15.4143 10.1164 15.6031 10 15.7815C9.88373 15.603 9.78434 15.414 9.70312 15.2171C9.68489 15.1733 9.65557 15.1349 9.61803 15.1058C9.58049 15.0768 9.53603 15.058 9.48902 15.0513C9.44201 15.0446 9.39408 15.0503 9.34992 15.0677C9.30577 15.0852 9.26692 15.1138 9.23719 15.1508C8.94586 15.5164 8.54436 15.7782 8.09234 15.8974C8.47079 15.3102 8.80504 14.6957 9.09234 14.059C9.32493 13.5462 9.44481 12.9894 9.44391 12.4263C9.44391 12.3722 9.42788 12.3194 9.39785 12.2744C9.36781 12.2295 9.32512 12.1944 9.27516 12.1737C9.22521 12.153 9.17024 12.1476 9.1172 12.1581C9.06416 12.1686 9.01544 12.1947 8.97719 12.2329L8.22859 12.9815C8.1951 13.0156 8.15488 13.0423 8.1105 13.06C8.06611 13.0777 8.01853 13.086 7.97078 13.0843C7.92294 13.0832 7.87584 13.0722 7.83241 13.0522C7.78897 13.0321 7.75013 13.0033 7.71828 12.9676C7.65944 12.8936 7.63069 12.8002 7.63779 12.7059C7.64489 12.6117 7.68731 12.5236 7.75656 12.4593L8.59375 11.6215C8.73107 11.4849 8.8398 11.3223 8.91358 11.1432C8.98735 10.9641 9.0247 10.772 9.02344 10.5783V7.9221C9.0235 7.88615 9.01647 7.85054 9.00276 7.81732C8.98904 7.78409 8.96891 7.75389 8.94352 7.72845C8.91812 7.70301 8.88795 7.68282 8.85475 7.66905C8.82154 7.65528 8.78595 7.64819 8.75 7.64819H6.96672C6.8942 7.64819 6.82465 7.677 6.77337 7.72828C6.72209 7.77956 6.69328 7.84911 6.69328 7.92163V10.0287C6.69305 10.2399 6.62443 10.4454 6.49769 10.6144C6.37094 10.7834 6.19289 10.9068 5.99016 10.9662V7.9221C5.99016 7.84958 5.96135 7.78003 5.91007 7.72875C5.85879 7.67747 5.78924 7.64866 5.71672 7.64866H4.24531C4.17279 7.64866 4.10324 7.67747 4.05196 7.72875C4.00068 7.78003 3.97187 7.84958 3.97187 7.9221V11.5923C3.97162 11.8035 3.90299 12.009 3.77625 12.178C3.64951 12.3469 3.47147 12.4704 3.26875 12.5298V7.9221C3.26875 7.84958 3.23994 7.78003 3.18866 7.72875C3.13738 7.67747 3.06783 7.64866 2.99531 7.64866H2.30516C2.07318 7.64893 1.84348 7.60288 1.62953 7.51319C1.58799 7.49566 1.54276 7.48868 1.49786 7.49288C1.45297 7.49707 1.40981 7.51231 1.37223 7.53723C1.33466 7.56215 1.30383 7.59598 1.2825 7.63571C1.26118 7.67544 1.25001 7.71982 1.25 7.76491V13.1565C1.25 13.229 1.27881 13.2985 1.33009 13.3498C1.38137 13.4011 1.45092 13.4299 1.52344 13.4299C1.59596 13.4299 1.66551 13.4011 1.71679 13.3498C1.76807 13.2985 1.79688 13.229 1.79688 13.1565V8.13866C1.96352 8.17629 2.13385 8.19521 2.30469 8.19507H2.72187V12.8423C2.72185 12.8782 2.72891 12.9137 2.74265 12.9469C2.75638 12.9801 2.77652 13.0103 2.80192 13.0357C2.82731 13.061 2.85746 13.0812 2.89065 13.0949C2.92383 13.1087 2.9594 13.1157 2.99531 13.1157C3.39921 13.1152 3.78644 12.9546 4.07204 12.669C4.35764 12.3834 4.5183 11.9962 4.51875 11.5923V8.19507H5.44328V11.2787C5.44328 11.3512 5.47209 11.4207 5.52337 11.472C5.57465 11.5233 5.6442 11.5521 5.71672 11.5521C6.12062 11.5516 6.50785 11.391 6.79345 11.1054C7.07905 10.8198 7.2397 10.4326 7.24016 10.0287V8.19507H8.47656V10.5829C8.47715 10.7039 8.45364 10.8239 8.40742 10.9358C8.3612 11.0477 8.29319 11.1492 8.20734 11.2346L7.36922 12.0727C7.23003 12.2089 7.13725 12.3854 7.10405 12.5773C7.07084 12.7692 7.09889 12.9666 7.18422 13.1416L6.71547 13.6104H5.55766C5.48514 13.6104 5.41559 13.6392 5.36431 13.6905C5.31303 13.7417 5.28422 13.8113 5.28422 13.8838C5.28422 13.9563 5.31303 14.0259 5.36431 14.0772C5.41559 14.1284 5.48514 14.1573 5.55766 14.1573H6.17422L5.53359 14.7979C5.48231 14.8492 5.4535 14.9187 5.4535 14.9912C5.4535 15.0638 5.48231 15.1333 5.53359 15.1846C5.58488 15.2359 5.65443 15.2647 5.72695 15.2647C5.79948 15.2647 5.86903 15.2359 5.92031 15.1846L6.56094 14.544V15.1488C6.56094 15.2213 6.58975 15.2909 6.64103 15.3422C6.69231 15.3934 6.76186 15.4223 6.83438 15.4223C6.9069 15.4223 6.97644 15.3934 7.02772 15.3422C7.079 15.2909 7.10781 15.2213 7.10781 15.1488V13.9916L7.56797 13.5315C7.73717 13.619 7.92982 13.6503 8.11803 13.621C8.30624 13.5917 8.48024 13.5033 8.61484 13.3685L8.81547 13.1679C8.76299 13.4014 8.68671 13.629 8.58781 13.8469C8.2948 14.4952 7.95092 15.1191 7.55938 15.713L7.30937 16.0918C7.28223 16.133 7.26674 16.1808 7.26455 16.2301C7.26236 16.2794 7.27355 16.3284 7.29693 16.3719C7.32032 16.4153 7.35502 16.4517 7.39737 16.477C7.43972 16.5024 7.48814 16.5158 7.5375 16.5158C8.21803 16.517 8.87406 16.2619 9.375 15.8013C9.48943 16.0135 9.62373 16.2143 9.77609 16.4012L9.7875 16.4151C9.81402 16.4452 9.84665 16.4693 9.88321 16.4858C9.91977 16.5023 9.95942 16.5108 9.99953 16.5108C10.0396 16.5108 10.0793 16.5023 10.1159 16.4858C10.1524 16.4693 10.185 16.4452 10.2116 16.4151L10.2225 16.4018C10.3754 16.2148 10.5102 16.0138 10.625 15.8013C11.1259 16.2619 11.782 16.517 12.4625 16.5158C12.5119 16.5158 12.5603 16.5024 12.6027 16.4771C12.6451 16.4517 12.6798 16.4154 12.7032 16.3719C12.7266 16.3285 12.7378 16.2795 12.7356 16.2302C12.7334 16.1808 12.7179 16.133 12.6908 16.0918L12.4394 15.7107C12.0456 15.1137 11.7002 14.4862 11.4062 13.8343C11.3094 13.6203 11.2348 13.3969 11.1837 13.1676L11.385 13.3687C11.4713 13.4548 11.5742 13.5225 11.6874 13.5676C11.8006 13.6128 11.9219 13.6345 12.0438 13.6315C12.179 13.628 12.3117 13.5938 12.4317 13.5315L12.8919 13.9916V15.1493C12.8919 15.2218 12.9207 15.2914 12.972 15.3426C13.0232 15.3939 13.0928 15.4227 13.1653 15.4227C13.2378 15.4227 13.3074 15.3939 13.3587 15.3426C13.4099 15.2914 13.4388 15.2218 13.4388 15.1493V14.5444L14.0794 15.1851C14.1307 15.2364 14.2002 15.2652 14.2727 15.2652C14.3453 15.2652 14.4148 15.2364 14.4661 15.1851C14.5174 15.1338 14.5462 15.0642 14.5462 14.9917C14.5462 14.9192 14.5174 14.8496 14.4661 14.7983L13.8255 14.1577H14.442C14.5146 14.1577 14.5841 14.1289 14.6354 14.0776C14.6867 14.0264 14.7155 13.9568 14.7155 13.8843C14.7155 13.8118 14.6867 13.7422 14.6354 13.6909C14.5841 13.6397 14.5146 13.6109 14.442 13.6109H13.2848L12.8161 13.1421C12.9014 12.9671 12.9294 12.7696 12.8962 12.5778C12.863 12.3859 12.7703 12.2094 12.6311 12.0732L11.7927 11.2346C11.7064 11.1486 11.6381 11.0463 11.5919 10.9336C11.5457 10.8209 11.5224 10.7001 11.5234 10.5783V8.19507H12.7598V10.0287C12.7603 10.4326 12.9209 10.8198 13.2066 11.1054C13.4922 11.391 13.8794 11.5516 14.2833 11.5521C14.3558 11.5521 14.4254 11.5233 14.4766 11.472C14.5279 11.4207 14.5567 11.3512 14.5567 11.2787V8.19507H15.4813V11.5923C15.4817 11.9962 15.6424 12.3834 15.928 12.669C16.2136 12.9546 16.6008 13.1152 17.0047 13.1157C17.0406 13.1157 17.0762 13.1087 17.1094 13.0949C17.1425 13.0812 17.1727 13.061 17.1981 13.0357C17.2235 13.0103 17.2436 12.9801 17.2574 12.9469C17.2711 12.9137 17.2781 12.8782 17.2781 12.8423V8.19507H17.6948C17.8657 8.19521 18.036 8.17629 18.2027 8.13866V13.1565C18.2031 13.5604 18.3638 13.9476 18.6494 14.2332C18.935 14.5188 19.3222 14.6795 19.7261 14.6799C19.762 14.68 19.7976 14.6729 19.8309 14.6592C19.8641 14.6455 19.8943 14.6254 19.9197 14.6C19.9452 14.5746 19.9654 14.5444 19.9791 14.5112C19.9929 14.478 20 14.4424 20 14.4065V5.89085C19.9994 5.27966 19.7564 4.69367 19.3242 4.2615C18.892 3.82932 18.306 3.58627 17.6948 3.58569Z" />
<path d="M2.38328 4.13226C2.59451 4.13256 2.79996 4.20121 2.96894 4.32794C3.13792 4.45468 3.26135 4.63269 3.32078 4.83538H2.30516C2.15786 4.83554 2.01222 4.86652 1.87761 4.92633C1.743 4.98614 1.62239 5.07346 1.52354 5.18266C1.42469 5.29187 1.34979 5.42056 1.30365 5.56044C1.25751 5.70033 1.24115 5.84832 1.25563 5.99491C1.28819 6.25877 1.41672 6.50141 1.61671 6.67659C1.81669 6.85176 2.07415 6.94722 2.34 6.94476H7.89062C8.35662 6.94434 8.80341 6.75908 9.13296 6.42961C9.46251 6.10015 9.6479 5.6534 9.64844 5.18741C9.64846 5.1515 9.6414 5.11593 9.62767 5.08275C9.61393 5.04956 9.59379 5.01941 9.5684 4.99402C9.543 4.96862 9.51285 4.94848 9.47966 4.93475C9.44648 4.92101 9.41091 4.91395 9.375 4.91397H8.43109C8.49272 4.66239 8.63689 4.43872 8.84056 4.27869C9.04424 4.11867 9.29567 4.03151 9.55469 4.03116H11.9078C11.8592 4.1179 11.7883 4.19013 11.7026 4.24041C11.6168 4.29069 11.5191 4.31722 11.4197 4.31726H10.625C10.5525 4.31726 10.4829 4.34606 10.4317 4.39734C10.3804 4.44862 10.3516 4.51817 10.3516 4.59069V5.18741C10.3521 5.6534 10.5375 6.10015 10.867 6.42961C11.1966 6.75908 11.6434 6.94434 12.1094 6.94476C12.1819 6.94476 12.2514 6.91595 12.3027 6.86467C12.354 6.81339 12.3828 6.74384 12.3828 6.67132C12.3828 6.5988 12.354 6.52925 12.3027 6.47797C12.2514 6.42669 12.1819 6.39788 12.1094 6.39788C11.7884 6.39763 11.4806 6.27004 11.2536 6.0431C11.0265 5.81616 10.8988 5.50842 10.8984 5.18741V4.86397H11.4197C11.713 4.86364 11.9942 4.74697 12.2017 4.53955C12.4091 4.33213 12.5258 4.0509 12.5261 3.75757C12.5261 3.68505 12.4973 3.6155 12.446 3.56422C12.3947 3.51294 12.3252 3.48413 12.2527 3.48413H9.55469C9.10316 3.48467 8.67027 3.66428 8.35099 3.98356C8.03171 4.30284 7.8521 4.73572 7.85156 5.18726C7.85154 5.22318 7.8586 5.25875 7.87233 5.29194C7.88606 5.32514 7.9062 5.3553 7.9316 5.38071C7.95699 5.40611 7.98714 5.42627 8.02032 5.44002C8.05351 5.45377 8.08908 5.46085 8.125 5.46085H9.07047C9.00838 5.72723 8.85807 5.9648 8.64395 6.13499C8.42982 6.30517 8.16446 6.39798 7.89094 6.39835H2.34C2.20969 6.4018 2.08267 6.35721 1.98309 6.27308C1.88352 6.18895 1.81836 6.07115 1.8 5.9421C1.79255 5.87132 1.8002 5.79976 1.82245 5.73216C1.8447 5.66455 1.88103 5.60244 1.92906 5.54991C1.97666 5.4974 2.0347 5.4554 2.09946 5.42661C2.16422 5.39783 2.23428 5.38288 2.30516 5.38272H3.63328C3.70573 5.38264 3.77519 5.35379 3.82637 5.30252C3.87756 5.25124 3.90629 5.18174 3.90625 5.10929C3.9058 4.70539 3.74514 4.31816 3.45954 4.03256C3.17394 3.74696 2.78671 3.5863 2.38281 3.58585H2.30469C1.69366 3.58655 1.10786 3.82959 0.675804 4.26165C0.243743 4.69371 0.000703018 5.27951 0 5.89054L0 14.4062C0 14.4787 0.0288085 14.5482 0.080088 14.5995C0.131367 14.6508 0.200917 14.6796 0.273438 14.6796C0.345958 14.6796 0.415508 14.6508 0.466787 14.5995C0.518066 14.5482 0.546875 14.4787 0.546875 14.4062V5.89054C0.547413 5.4245 0.732783 4.97771 1.06232 4.64817C1.39186 4.31863 1.83865 4.13326 2.30469 4.13272L2.38328 4.13226Z" />
</svg>
