<svg width="21" height="21" viewBox="0 0 21 21" fill="none" xmlns="http://www.w3.org/2000/svg">
<path d="M20.3623 19.3116L15.3235 14.2728C15.2337 14.1829 15.1165 14.1361 14.9915 14.1361H14.5892C15.9289 12.6869 16.7492 10.7534 16.7492 8.6246C16.7492 4.13654 13.1127 0.5 8.6246 0.5C4.13654 0.5 0.5 4.13654 0.5 8.6246C0.5 13.1127 4.13654 16.7492 8.6246 16.7492C10.7534 16.7492 12.6869 15.9289 14.1361 14.5931V14.9915C14.1361 15.1165 14.1868 15.2337 14.2728 15.3235L19.3116 20.3623C19.4952 20.5459 19.792 20.5459 19.9756 20.3623L20.3623 19.9756C20.5459 19.792 20.5459 19.4952 20.3623 19.3116ZM8.6246 15.4993C4.82401 15.4993 1.74994 12.4252 1.74994 8.6246C1.74994 4.82401 4.82401 1.74994 8.6246 1.74994C12.4252 1.74994 15.4993 4.82401 15.4993 8.6246C15.4993 12.4252 12.4252 15.4993 8.6246 15.4993Z" fill="white"/>
</svg>
