<svg width="1170" height="532" viewBox="0 0 1170 532" fill="none" xmlns="http://www.w3.org/2000/svg">
<path fill-rule="evenodd" clip-rule="evenodd" d="M1894.3 0.00409224L1892.42 2.1648L1890.53 0.00409224H1894.3ZM1850.33 0.00409224L1858.49 9.35487L1837.08 33.8633L1815.69 9.35487L1823.83 0.00409224H1836.89L1828.73 9.35487L1837.08 18.9307L1845.44 9.35487L1837.28 0.00409224H1850.33ZM1646.83 0.00409224L1629.57 19.7737L1612.32 0.00409224H1625.37L1629.57 4.82476L1633.8 0.00409224H1646.83ZM1427.02 0.00409224L1422.07 5.67185L1417.13 0.00409224H1427.02ZM1376.91 0.00409224L1388.14 12.8496L1366.74 37.3827L1345.34 12.8496L1356.53 0.00409224H1376.91ZM1179.54 0.00409224L1159.22 23.2767L1138.92 0.00409224H1151.96L1159.22 8.33181L1166.49 0.00409224H1179.54ZM959.724 0.00409224L951.722 9.17072L943.717 0.00409224H959.724ZM903.507 0.00409224L917.783 16.3608L896.379 40.8815L874.986 16.3608L889.23 0.00409224H903.507ZM708.297 0.00409224L710.271 2.26301L688.878 26.7837L667.473 2.26301L669.444 0.00409224H682.496L680.526 2.26301L688.878 11.8348L697.226 2.26301L695.241 0.00409224H708.297ZM492.436 0.00409224L481.358 12.6819L470.301 0.00409224H492.436ZM434.895 0.00409224L432.493 2.75408L447.426 19.8678L426.033 44.3886L404.636 19.8678L421.932 0.00409224H434.895ZM234.888 0.00409224L239.917 5.76597L218.52 30.2908L197.124 5.76597L202.149 0.00409224H215.201L210.172 5.76597L218.52 15.3377L226.879 5.76597L221.847 0.00409224H234.888ZM25.1345 0.00409224L11.0149 16.193L-3.11157 0.00409224H9.92664L11.0149 1.23995L12.0963 0.00409224H25.1345ZM-32.4071 0.00409224L-37.8535 6.25295L-22.9241 23.3708L-44.3243 47.8997L-65.7212 23.3708L-45.3701 0.00409224H-32.4071ZM-141.03 0.00409224L-141.151 0.139136L-141.276 0.00409224H-141.03ZM-194.677 0.00409224L-196.49 2.07886L-198.303 0.00409224H-194.677ZM-238.517 0.00409224L-230.433 9.26893L-251.83 33.7938L-273.227 9.26893L-265.153 0.00409224H-252.101L-260.192 9.26893L-251.833 18.853L-243.474 9.26893L-251.555 0.00409224H-238.517ZM-305.738 0.00409224L-309 3.74031V0.00409224H-305.738ZM-309 107.029L-299.506 117.91L-309 128.799V107.029ZM-309 171.134L-299.599 181.908L-309 192.683V171.134ZM-309 232.66L-292.414 251.669L-285.997 244.311L-300.984 227.156L-279.494 202.509L-258.004 227.156L-309 285.618V268.607L-300.502 258.851L-309 249.115V232.66ZM-309 361.394L-293.321 343.438L-271.831 368.065L-309 410.681V389.438L-306.248 392.589L-299.831 385.244L-308.997 374.739L-309 361.394ZM-309 486.474L-307.155 484.366L-285.658 508.997L-305.713 531.996H-309V516.572L-307.155 518.68L-298.696 508.997L-307.155 499.311L-309 501.423V486.474ZM-156.573 531.996L-154.985 530.167L-153.393 531.996H-156.573ZM-113.376 531.996L-121.139 523.095L-99.6458 498.46L-78.1527 523.095L-85.9153 531.996H-98.9569L-91.1975 523.095L-99.6458 513.413L-108.105 523.095L-100.328 531.996H-113.376ZM90.9098 531.996L107.863 512.566L124.813 531.996H111.775L107.863 527.503L103.944 531.996H90.9098ZM310.711 531.996L315.368 526.66L320.019 531.996H310.711ZM360.036 531.996L349.211 519.584L370.701 494.957L392.194 519.584L381.38 531.996H360.036ZM558.198 531.996L578.217 509.055L598.222 531.996H585.187L578.22 524.004L571.254 531.996H558.198ZM778.016 531.996L785.726 523.161L793.428 531.996H778.016ZM833.438 531.996L819.565 516.085L841.047 491.458L862.551 516.085L848.678 531.996H833.438ZM1028.65 531.996L1027.07 530.183L1048.56 505.548L1070.05 530.183L1068.48 531.996H1055.43L1057.01 530.183L1048.56 520.501L1040.12 530.183L1041.7 531.996H1028.65ZM1245.3 531.996L1256.07 519.645L1266.85 531.996H1245.3ZM1302.94 531.996L1304.89 529.749L1289.91 512.582L1311.4 487.943L1332.9 512.582L1315.97 531.996H1302.94ZM1502.05 531.996L1497.42 526.676L1518.91 502.045L1540.4 526.676L1535.76 531.996H1522.71L1527.36 526.676L1518.91 516.99L1510.46 526.676L1515.1 531.996H1502.05ZM1712.6 531.996L1726.41 516.147L1740.25 531.996H1727.2L1726.41 531.104L1725.63 531.996H1712.6ZM1770.24 531.996L1775.24 526.246L1760.26 509.079L1781.75 484.444L1803.25 509.079L1783.26 532H1770.24V531.996ZM1705.04 104.058L1671.09 142.975L1657.25 127.126L1656.89 127.539L1636.75 104.479L1692.57 40.4805L1671.08 15.8493L1649.59 40.4805L1664.58 57.6556L1658.16 65.0053L1637.12 40.8815L1671.08 1.97246L1684.91 17.8176L1685.28 17.4125L1705.4 40.4805L1649.68 104.479L1671.08 129L1692.48 104.479L1677.54 87.3571L1684.01 79.9543L1705.04 104.058ZM1649.71 135.756L1615.75 174.69L1601.91 158.836L1601.55 159.254L1581.42 136.182L1637.24 72.1831L1615.75 47.5519L1594.26 72.1831L1609.24 89.3623L1602.82 96.7079L1581.77 72.5964L1615.75 33.6751L1629.58 49.5284L1629.95 49.1192L1650.08 72.1913L1594.36 136.182L1615.75 160.707L1637.16 136.182L1622.22 119.068L1628.68 111.657L1649.71 135.756ZM1594.38 167.471L1560.41 206.392L1546.57 190.527L1546.22 190.952L1526.08 167.888L1581.9 103.89L1560.41 79.2627L1538.92 103.89L1553.9 121.065L1547.48 128.415L1526.45 104.307L1560.41 65.3818L1574.25 81.227L1574.61 80.8259L1594.74 103.89L1539.02 167.884L1560.41 192.413L1581.8 167.884L1566.87 150.766L1573.34 143.368L1594.38 167.471ZM1539.04 199.182L1505.08 238.103L1491.25 222.246L1490.88 222.667L1470.76 199.595L1526.58 135.597L1505.08 110.973L1483.58 135.597L1498.56 152.776L1492.15 160.13L1471.11 136.018L1505.08 97.0844L1518.91 112.934L1519.27 112.524L1539.41 135.592L1483.68 199.591L1505.08 224.116L1526.48 199.591L1511.55 182.469L1518.01 175.074L1539.04 199.182ZM1483.69 230.889L1449.74 269.806L1435.9 253.956L1435.55 254.366L1415.42 231.306L1471.23 167.311L1449.74 142.68L1428.24 167.311L1443.23 184.482L1436.82 191.82L1415.77 167.712L1449.74 128.799L1463.57 144.649L1463.93 144.243L1484.07 167.315L1428.35 231.306L1449.74 255.823L1471.14 231.306L1456.2 214.188L1462.66 206.773L1483.69 230.889ZM1428.38 262.587L1394.4 301.517L1380.57 285.663L1380.21 286.081L1360.08 263.013L1415.9 199.014L1394.4 174.383L1372.91 199.014L1387.89 216.189L1381.48 223.535L1360.43 199.423L1394.39 160.494L1408.23 176.355L1408.6 175.938L1428.71 199.018L1373 263L1394.4 287.525L1415.8 263L1400.87 245.895L1407.33 238.48L1428.38 262.587ZM1373.03 294.302L1339.07 333.219L1325.24 317.366L1324.88 317.791L1304.74 294.719L1360.55 230.721L1339.06 206.094L1317.57 230.721L1332.56 247.9L1326.15 255.246L1305.1 231.138L1339.06 192.209L1352.9 208.07L1353.27 207.653L1373.4 230.721L1317.68 294.719L1339.07 319.244L1360.47 294.719L1345.54 277.593L1352 270.195L1373.03 294.302ZM1317.7 326.013L1283.73 364.934L1269.9 349.073L1269.54 349.49L1249.42 326.422L1305.23 262.427L1283.72 237.792L1262.24 262.427L1277.22 279.599L1270.81 286.948L1249.77 262.841L1283.72 223.911L1297.56 239.761L1297.93 239.364L1318.06 262.427L1262.34 326.418L1283.72 350.939L1305.13 326.418L1290.2 309.308L1296.66 301.901L1317.7 326.013ZM1262.37 357.719L1228.4 396.633L1214.56 380.783L1214.21 381.197L1194.07 358.133L1249.89 294.126L1228.4 269.499L1206.91 294.126L1221.89 311.305L1215.48 318.655L1194.44 294.539L1228.4 255.622L1242.23 271.471L1242.59 271.058L1262.72 294.13L1207.01 358.12L1228.4 382.633L1249.8 358.12L1234.86 341.003L1241.33 333.596L1262.37 357.719ZM1207.04 389.43L1173.06 428.347L1159.23 412.486L1158.87 412.912L1138.74 389.844L1194.56 325.845L1173.06 301.21L1151.57 325.845L1166.55 343.02L1160.14 350.366L1139.09 326.254L1173.05 287.329L1186.9 303.19L1187.26 302.773L1207.39 325.845L1151.66 389.844L1173.06 414.364L1194.47 389.844L1179.53 372.726L1186 365.327L1207.04 389.43ZM1151.69 421.129L1117.73 460.058L1103.9 444.197L1103.54 444.614L1083.41 421.542L1139.22 357.56L1117.73 332.916L1096.23 357.56L1111.22 374.723L1104.81 382.076L1083.77 357.957L1117.73 319.035L1131.56 334.897L1131.92 334.48L1152.06 357.56L1096.33 421.542L1117.73 446.067L1139.14 421.542L1124.19 404.437L1130.65 397.021L1151.69 421.129ZM1096.35 452.835L1062.39 491.753L1048.56 475.903L1048.2 476.321L1028.07 453.249L1083.89 389.25L1062.39 364.623L1040.9 389.25L1055.89 406.429L1049.47 413.783L1028.43 389.668L1062.39 350.75L1076.23 366.6L1076.59 366.19L1096.71 389.258L1041.01 453.245L1062.4 477.774L1083.81 453.245L1068.86 436.135L1075.32 428.724L1096.35 452.835ZM1041.03 484.546L1007.06 523.459L993.227 507.606L992.864 508.028L972.734 484.96L1028.55 420.961L1007.06 396.326L985.558 420.961L1000.55 438.14L994.127 445.49L973.087 421.378L1007.06 382.449L1020.9 398.298L1021.25 397.889L1041.39 420.957L985.665 484.955L1007.06 509.476L1028.45 484.955L1013.53 467.834L1019.99 460.427L1041.03 484.546ZM1898.71 259.092L1864.76 298.009L1850.92 282.164L1850.56 282.569L1830.44 259.51L1886.25 195.503L1864.75 170.876L1843.26 195.503L1858.24 212.69L1851.83 220.04L1830.79 195.924L1864.75 157.003L1878.59 172.856L1878.95 172.439L1899.09 195.503L1843.36 259.51L1864.76 284.022L1886.16 259.51L1871.22 242.384L1877.69 234.981L1898.71 259.092ZM1843.38 290.799L1809.43 329.728L1795.6 313.867L1795.22 314.268L1775.1 291.208L1830.92 227.214L1809.43 202.578L1787.93 227.214L1802.92 244.377L1796.5 251.743L1775.45 227.627L1809.43 188.714L1823.26 204.563L1823.62 204.146L1843.75 227.222L1788.03 291.208L1809.43 315.725L1830.82 291.208L1815.89 274.086L1822.35 266.692L1843.38 290.799ZM1788.05 322.506L1754.1 361.427L1740.26 345.565L1739.9 345.983L1719.77 322.911L1775.57 258.92L1754.09 234.293L1732.59 258.92L1747.57 276.083L1741.16 283.441L1720.12 259.326L1754.1 220.4L1767.92 236.262L1768.28 235.844L1788.41 258.912L1732.7 322.899L1754.1 347.436L1775.49 322.907L1760.55 305.797L1767.01 298.398L1788.05 322.506ZM1732.72 354.212L1698.75 393.13L1684.92 377.276L1684.56 377.69L1664.42 354.622L1720.24 290.631L1698.75 265.996L1677.26 290.631L1692.24 307.802L1685.82 315.164L1664.78 291.049L1698.74 252.123L1712.57 267.977L1712.94 267.555L1733.07 290.631L1677.36 354.622L1698.75 379.146L1720.15 354.622L1705.21 337.496L1711.67 330.101L1732.72 354.212ZM1677.38 385.919L1643.42 424.84L1629.58 408.991L1629.23 409.396L1609.09 386.328L1664.91 322.33L1643.42 297.703L1621.93 322.33L1636.9 339.509L1630.48 346.863L1609.44 322.747L1643.42 283.834L1657.25 299.675L1657.61 299.266L1677.74 322.334L1622.02 386.328L1643.42 410.853L1664.82 386.328L1649.88 369.223L1656.35 361.808L1677.38 385.919ZM1622.04 417.622L1588.07 456.547L1574.25 440.69L1573.88 441.103L1553.76 418.043L1609.58 354.036L1588.07 329.409L1566.58 354.036L1581.56 371.22L1575.16 378.569L1554.12 354.458L1588.07 315.533L1601.91 331.39L1602.27 330.973L1622.4 354.036L1566.68 418.039L1588.07 442.56L1609.47 418.039L1594.54 400.913L1601 393.506L1622.04 417.622ZM1566.71 449.345L1532.75 488.25L1518.91 472.396L1518.56 472.814L1498.42 449.742L1554.24 385.751L1532.74 361.112L1511.24 385.751L1526.23 402.922L1519.82 410.28L1498.78 386.165L1532.74 347.239L1546.57 363.084L1546.95 362.671L1567.06 385.747L1511.34 449.738L1532.74 474.254L1554.15 449.738L1539.2 432.624L1545.67 425.225L1566.71 449.345ZM1511.38 481.043L1477.41 519.969L1463.58 504.107L1463.22 504.525L1443.08 481.453L1498.9 417.458L1477.41 392.831L1455.91 417.458L1470.9 434.637L1464.48 441.979L1443.44 417.871L1477.41 378.95L1491.25 394.812L1491.6 394.394L1511.74 417.462L1456.02 481.448L1477.41 505.973L1498.81 481.448L1483.88 464.339L1490.34 456.928L1511.38 481.043ZM1740.26 502.356L1726.41 486.494L1726.06 486.92L1705.93 463.852L1761.75 399.853L1740.26 375.218L1718.76 399.853L1733.74 417.032L1727.33 424.382L1706.3 400.271L1740.26 361.345L1754.1 377.199L1754.45 376.781L1774.57 399.849L1718.86 463.848L1740.26 488.368L1761.66 463.848L1746.71 446.722L1753.18 439.319L1774.22 463.434L1740.26 502.356ZM1795.6 470.641L1781.76 454.788L1781.4 455.205L1761.27 432.129L1817.08 368.134L1795.59 343.515L1774.09 368.134L1789.07 385.313L1782.66 392.659L1761.63 368.556L1795.59 329.63L1809.42 345.48L1809.78 345.078L1829.91 368.138L1774.18 432.121L1795.6 456.662L1817 432.121L1802.05 415.019L1808.51 407.616L1829.55 431.732L1795.6 470.641ZM1790.21 509.075L1781.75 518.749L1773.31 509.075L1781.75 499.393L1790.21 509.075ZM1850.93 438.942L1837.1 423.081L1836.73 423.498L1816.6 400.434L1872.41 336.436L1850.92 311.8L1829.43 336.436L1844.41 353.607L1838 360.969L1816.95 336.853L1850.92 297.928L1864.76 313.785L1865.12 313.364L1885.25 336.436L1829.53 400.434L1850.92 424.951L1872.32 400.434L1857.38 383.321L1863.85 375.909L1884.88 400.017L1850.93 438.942ZM1845.53 477.36L1837.09 487.047L1828.64 477.36L1837.09 467.67L1845.53 477.36ZM1900.78 509.652L1892.43 519.224L1884.07 509.652L1892.43 500.076L1900.78 509.652ZM1900.88 445.658L1892.43 455.336L1883.98 445.658L1892.43 435.975L1900.88 445.658ZM1582.7 494.973L1574.25 504.656L1565.8 494.973L1574.25 485.291L1582.7 494.973ZM1638.04 463.267L1629.58 472.949L1621.14 463.267L1629.58 453.584L1638.04 463.267ZM1693.27 495.546L1684.92 505.126L1676.57 495.546L1684.92 485.966L1693.27 495.546ZM1693.36 431.56L1684.92 441.242L1676.47 431.56L1684.92 421.878L1693.36 431.56ZM1748.61 463.848L1740.26 473.419L1731.91 463.848L1740.26 454.264L1748.61 463.848ZM1748.7 399.849L1740.26 409.531L1731.8 399.849L1740.26 390.167L1748.7 399.849ZM1803.94 432.125L1795.6 441.705L1787.23 432.125L1795.6 422.553L1803.94 432.125ZM1804.03 368.134L1795.6 377.829L1787.14 368.134L1795.6 358.46L1804.03 368.134ZM1859.28 400.434L1850.92 410.006L1842.57 400.434L1850.92 390.854L1859.28 400.434ZM1859.37 336.436L1850.92 346.118L1842.48 336.436L1850.92 326.753L1859.37 336.436ZM1914.61 368.728L1906.26 378.308L1897.9 368.728L1906.26 359.148L1914.61 368.728ZM1914.71 304.725L1906.26 314.419L1897.82 304.725L1906.26 295.047L1914.71 304.725ZM1112.34 498.476L1103.9 508.163L1095.44 498.476L1103.9 488.786L1112.34 498.476ZM1167.68 466.77L1159.23 476.452L1150.79 466.77L1159.23 457.087L1167.68 466.77ZM1222.92 499.057L1214.56 508.633L1206.21 499.057L1214.56 489.49L1222.92 499.057ZM1223.01 435.059L1214.56 444.749L1206.12 435.059L1214.56 425.377L1223.01 435.059ZM1276.36 450.225L1282.83 442.838L1303.87 466.937L1269.91 505.859L1256.08 490.005L1255.71 490.415L1235.58 467.355L1291.4 403.36L1269.91 378.725L1248.42 403.36L1263.4 420.527L1256.98 427.873L1235.94 403.765L1269.91 364.844L1283.73 380.702L1284.1 380.292L1304.23 403.356L1248.51 467.351L1269.91 491.863L1291.31 467.351L1276.36 450.225ZM1278.26 467.355L1269.9 476.922L1261.54 467.355L1269.9 457.767L1278.26 467.355ZM1278.35 403.36L1269.9 413.042L1261.45 403.36L1269.9 393.666L1278.35 403.36ZM1331.69 418.526L1338.16 411.119L1359.19 435.227L1325.24 474.144L1311.4 458.295L1311.04 458.708L1290.92 435.644L1346.73 371.645L1325.24 347.01L1303.74 371.645L1318.72 388.829L1312.31 396.17L1291.27 372.063L1325.24 333.137L1339.07 348.987L1339.43 348.581L1359.56 371.645L1303.84 435.644L1325.25 460.165L1346.64 435.644L1331.69 418.526ZM1333.59 435.644L1325.25 445.216L1316.88 435.644L1325.25 426.064L1333.59 435.644ZM1333.69 371.645L1325.25 381.332L1316.78 371.645L1325.25 361.955L1333.69 371.645ZM1387.03 386.819L1393.5 379.412L1414.53 403.52L1380.57 442.437L1366.74 426.584L1366.38 427.009L1346.25 403.945L1402.06 339.939L1380.57 315.312L1359.08 339.939L1374.06 357.11L1367.65 364.463L1346.61 340.356L1380.57 301.439L1394.4 317.292L1394.77 316.871L1414.9 339.939L1359.18 403.937L1380.58 428.462L1401.97 403.937L1387.03 386.819ZM1388.93 403.937L1380.57 413.517L1372.22 403.937L1380.57 394.357L1388.93 403.937ZM1389.03 339.939L1380.57 349.621L1372.12 339.939L1380.57 330.256L1389.03 339.939ZM1442.37 355.113L1448.84 347.706L1469.87 371.821L1435.91 410.73L1422.08 394.885L1421.72 395.303L1401.59 372.231L1457.4 308.24L1435.9 283.601L1414.42 308.24L1429.39 325.403L1422.98 332.753L1401.94 308.641L1435.9 269.724L1449.74 285.577L1450.1 285.16L1470.23 308.24L1414.51 372.226L1435.9 396.751L1457.31 372.226L1442.37 355.113ZM1444.26 372.226L1435.9 381.802L1427.54 372.226L1435.9 362.651L1444.26 372.226ZM1444.35 308.24L1435.9 317.922L1427.46 308.24L1435.9 298.55L1444.35 308.24ZM1497.7 323.406L1504.17 316.007L1525.2 340.106L1491.25 379.028L1477.41 363.166L1477.05 363.58L1456.91 340.516L1512.73 276.533L1491.24 251.894L1469.75 276.533L1484.74 293.704L1478.31 301.054L1457.27 276.939L1491.24 238.021L1505.07 253.871L1505.44 253.453L1525.56 276.529L1469.84 340.512L1491.25 365.032L1512.64 340.512L1497.7 323.406ZM1499.6 340.516L1491.25 350.1L1482.89 340.516L1491.25 330.944L1499.6 340.516ZM1499.69 276.533L1491.25 286.224L1482.81 276.533L1491.25 266.835L1499.69 276.533ZM1553.04 291.691L1559.5 284.292L1580.54 308.4L1546.58 347.321L1532.75 331.46L1532.39 331.885L1512.26 308.813L1568.07 244.819L1546.58 220.191L1525.08 244.819L1540.07 261.998L1533.65 269.352L1512.61 245.244L1546.58 206.319L1560.42 222.172L1560.77 221.759L1580.91 244.819L1525.18 308.817L1546.58 333.338L1567.98 308.817L1553.04 291.691ZM1554.93 308.813L1546.57 318.385L1538.22 308.813L1546.57 299.237L1554.93 308.813ZM1555.03 244.819L1546.58 254.501L1538.13 244.819L1546.58 235.14L1555.03 244.819ZM1608.37 259.984L1614.84 252.581L1635.87 276.697L1601.91 315.606L1588.07 299.761L1587.72 300.178L1567.59 277.102L1623.41 213.108L1601.91 188.481L1580.42 213.108L1595.4 230.279L1588.99 237.641L1567.95 213.525L1601.91 174.612L1615.74 190.449L1616.11 190.052L1636.23 213.12L1580.51 277.098L1601.91 301.623L1623.32 277.098L1608.37 259.984ZM1610.27 277.098L1601.91 286.678L1593.56 277.098L1601.91 267.53L1610.27 277.098ZM1610.36 213.112L1601.91 222.798L1593.47 213.112L1601.91 203.421L1610.36 213.112ZM1663.71 228.286L1670.18 220.875L1691.22 244.986L1657.25 283.904L1643.42 268.046L1643.05 268.468L1622.93 245.408L1678.75 181.401L1657.25 156.766L1635.76 181.401L1650.74 198.58L1644.33 205.926L1623.29 181.814L1657.24 142.897L1671.08 158.759L1671.44 158.333L1691.57 181.401L1635.85 245.408L1657.25 269.929L1678.65 245.408L1663.71 228.286ZM1665.6 245.408L1657.24 254.98L1648.89 245.408L1657.24 235.82L1665.6 245.408ZM1665.69 181.405L1657.24 191.1L1648.8 181.405L1657.24 171.719L1665.69 181.405ZM1719.04 196.579L1725.52 189.18L1746.54 213.284L1712.58 252.201L1698.75 236.343L1698.39 236.765L1678.26 213.697L1734.08 149.702L1712.58 125.075L1691.09 149.702L1706.08 166.874L1699.66 174.223L1678.62 150.12L1712.58 111.194L1726.41 127.052L1726.78 126.626L1746.9 149.702L1691.18 213.697L1712.58 238.218L1733.98 213.697L1719.04 196.579ZM1720.94 213.693L1712.58 223.269L1704.23 213.693L1712.58 204.113L1720.94 213.693ZM1721.04 149.702L1712.58 159.389L1704.13 149.702L1712.58 140.024L1721.04 149.702ZM1774.38 164.864L1780.85 157.47L1801.88 181.585L1767.92 220.498L1754.1 204.649L1753.73 205.054L1733.59 181.986L1789.41 117.996L1767.92 93.3605L1746.42 117.996L1761.4 135.167L1754.99 142.521L1733.95 118.401L1767.92 79.4877L1781.75 95.3329L1782.11 94.9237L1802.24 118L1746.52 181.982L1767.92 206.503L1789.32 181.982L1774.38 164.864ZM1776.26 181.986L1767.92 191.566L1759.55 181.986L1767.92 172.414L1776.26 181.986ZM1776.37 117.996L1767.92 127.674L1759.47 117.996L1767.92 108.305L1776.37 117.996ZM1829.72 133.166L1836.18 125.763L1857.22 149.874L1823.26 188.792L1809.42 172.93L1809.06 173.356L1788.93 150.279L1844.74 86.2891L1823.25 61.6578L1801.76 86.2891L1816.75 103.456L1810.33 110.818L1789.29 86.7106L1823.25 47.7851L1837.08 63.6385L1837.45 63.2252L1857.58 86.2891L1801.86 150.279L1823.25 174.8L1844.65 150.279L1829.72 133.166ZM1831.61 150.275L1823.25 159.851L1814.9 150.275L1823.25 140.704L1831.61 150.275ZM1831.7 86.285L1823.25 95.9754L1814.81 86.285L1823.25 76.5986L1831.7 86.285ZM1885.04 101.459L1891.52 94.0561L1912.54 118.164L1878.59 157.081L1864.76 141.219L1864.39 141.645L1844.26 118.577L1900.08 54.5783L1878.58 29.9389L1857.09 54.5783L1872.07 71.7493L1865.66 79.099L1844.62 54.9957L1878.58 16.0702L1892.42 31.9236L1892.78 31.5021L1912.9 54.5783L1857.19 118.577L1878.59 143.094L1899.99 118.577L1885.04 101.459ZM1886.95 118.581L1878.59 128.153L1870.23 118.581L1878.59 109.001L1886.95 118.581ZM1887.03 54.5824L1878.59 64.2646L1870.14 54.5824L1878.59 44.8919L1887.03 54.5824ZM1319.86 512.582L1311.4 522.265L1302.96 512.582L1311.4 502.888L1319.86 512.582ZM1375.19 480.871L1366.74 490.558L1358.29 480.871L1366.74 471.193L1375.19 480.871ZM1430.43 513.155L1422.08 522.727L1413.73 513.155L1422.08 503.579L1430.43 513.155ZM1430.53 449.161L1422.08 458.851L1413.63 449.161L1422.08 439.478L1430.53 449.161ZM1485.76 481.444L1477.41 491.016L1469.06 481.444L1477.41 471.873L1485.76 481.444ZM1485.86 417.45L1477.41 427.132L1468.96 417.45L1477.41 407.768L1485.86 417.45ZM1541.1 449.742L1532.74 459.322L1524.39 449.742L1532.74 440.162L1541.1 449.742ZM1541.2 385.751L1532.75 395.438L1524.3 385.751L1532.75 376.061L1541.2 385.751ZM1596.43 418.039L1588.07 427.611L1579.71 418.039L1588.07 408.463L1596.43 418.039ZM1596.54 354.036L1588.08 363.727L1579.64 354.036L1588.08 344.358L1596.54 354.036ZM1651.77 386.328L1643.42 395.904L1635.06 386.328L1643.42 376.757L1651.77 386.328ZM1651.86 322.33L1643.42 332.016L1634.96 322.33L1643.42 312.639L1651.86 322.33ZM1707.11 354.622L1698.75 364.202L1690.4 354.622L1698.75 345.05L1707.11 354.622ZM1707.2 290.631L1698.75 300.313L1690.31 290.631L1698.75 280.949L1707.2 290.631ZM1762.45 322.907L1754.1 332.483L1745.73 322.907L1754.1 313.339L1762.45 322.907ZM1762.54 258.924L1754.1 268.607L1745.63 258.924L1754.1 249.242L1762.54 258.924ZM1817.77 291.208L1809.42 300.78L1801.06 291.208L1809.42 281.632L1817.77 291.208ZM1817.87 227.214L1809.42 236.896L1800.97 227.214L1809.42 217.523L1817.87 227.214ZM1873.11 259.506L1864.75 269.069L1856.41 259.506L1864.75 249.922L1873.11 259.506ZM1873.21 195.499L1864.75 205.197L1856.31 195.499L1864.75 185.817L1873.21 195.499ZM1234.69 107.573L1200.74 146.49L1186.9 130.633L1186.53 131.054L1166.41 107.986L1222.23 43.9875L1200.73 19.344L1179.24 43.9875L1194.22 61.1627L1187.81 68.5124L1166.78 44.3927L1200.73 5.47542L1214.56 21.3288L1214.93 20.9236L1235.06 43.9916L1179.34 107.974L1200.73 132.499L1222.13 107.974L1207.2 90.8601L1213.66 83.4572L1234.69 107.573ZM1179.35 139.28L1145.39 178.197L1131.56 162.335L1131.2 162.757L1111.08 139.689L1166.89 75.6983L1145.39 51.063L1123.89 75.6983L1138.88 92.8653L1132.47 100.215L1111.43 76.1116L1145.39 37.178L1159.23 53.0396L1159.58 52.6222L1179.72 75.6942L1124 139.685L1145.39 164.209L1166.8 139.685L1151.86 122.571L1158.32 115.16L1179.35 139.28ZM1124.03 170.978L1090.07 209.899L1076.23 194.054L1075.86 194.459L1055.73 171.391L1111.55 107.397L1090.06 82.7656L1068.57 107.397L1083.54 124.576L1077.13 131.93L1056.09 107.81L1090.05 68.8848L1103.88 84.7422L1104.26 84.333L1124.38 107.397L1068.66 171.391L1090.06 195.92L1111.45 171.391L1096.52 154.286L1102.99 146.871L1124.03 170.978ZM1068.69 202.685L1034.72 241.606L1020.9 225.753L1020.53 226.162L1000.4 203.106L1056.21 139.104L1034.71 114.464L1013.24 139.104L1028.2 156.279L1021.8 163.632L1000.75 139.517L1034.71 100.591L1048.56 116.445L1048.92 116.04L1069.05 139.108L1013.33 203.098L1034.72 227.623L1056.13 203.098L1041.19 185.976L1047.65 178.569L1068.69 202.685ZM1013.34 234.4L979.387 273.313L965.549 257.451L965.196 257.877L945.069 234.805L1000.88 170.814L979.387 146.175L957.893 170.814L972.88 187.99L966.466 195.339L945.426 171.228L979.387 132.302L993.22 148.156L993.588 147.746L1013.71 170.81L957.997 234.805L979.39 259.326L1000.79 234.805L985.85 217.691L992.317 210.288L1013.34 234.4ZM958.014 266.098L924.058 305.02L910.213 289.17L909.853 289.571L889.73 266.507L945.551 202.525L924.058 177.886L902.557 202.525L917.541 219.692L911.13 227.042L890.094 202.93L924.058 164.001L937.892 179.862L938.242 179.453L958.364 202.525L902.657 266.507L924.061 291.036L945.458 266.507L930.518 249.398L936.982 241.991L958.014 266.098ZM902.675 297.813L868.719 336.73L854.885 320.869L854.528 321.286L834.401 298.222L890.198 234.22L868.715 209.592L847.218 234.22L862.208 251.399L855.791 258.753L834.748 234.641L868.715 195.716L882.545 211.569L882.91 211.16L903.039 234.232L847.311 298.218L868.719 322.747L890.115 298.218L875.179 281.1L881.632 273.697L902.675 297.813ZM847.347 329.512L813.383 368.441L799.549 352.584L799.199 353.005L779.062 329.925L834.876 265.943L813.376 241.307L791.886 265.943L806.869 283.114L800.459 290.467L779.412 266.356L813.376 227.422L827.217 243.28L827.581 242.862L847.703 265.943L791.982 329.925L813.379 354.458L834.783 329.925L819.847 312.819L826.307 305.404L847.347 329.512ZM792.007 361.231L758.047 400.136L744.213 384.29L743.86 384.691L723.719 361.628L779.548 297.645L758.047 273.002L736.557 297.645L751.548 314.816L745.123 322.166L724.087 298.042L758.047 259.129L771.87 274.974L772.241 274.573L792.375 297.641L736.654 361.623L758.051 386.152L779.455 361.623L764.511 344.518L770.978 337.115L792.007 361.231ZM736.668 392.929L702.715 431.85L688.885 415.997L688.514 416.414L668.394 393.347L724.212 329.344L702.708 304.713L681.218 329.344L696.201 346.523L689.788 353.873L668.744 329.765L702.708 290.836L716.556 306.693L716.909 306.284L737.046 329.352L681.322 393.334L702.711 417.863L724.112 393.334L709.182 376.216L715.65 368.814L736.668 392.929ZM681.343 424.636L647.39 463.557L633.542 447.708L633.185 448.109L613.062 425.049L668.876 361.055L647.379 336.423L625.89 361.055L640.866 378.234L634.455 385.575L613.416 361.464L647.379 322.547L661.209 338.4L661.581 337.987L681.707 361.055L625.979 425.045L647.383 449.574L668.776 425.045L653.843 407.927L660.299 400.528L681.343 424.636ZM626.007 456.351L592.051 495.26L578.217 479.406L577.853 479.816L557.727 456.752L613.537 392.774L592.047 368.126L570.547 392.774L585.537 409.941L579.123 417.294L558.08 393.171L592.051 354.253L605.877 370.107L606.235 369.693L626.375 392.774L570.65 456.752L592.054 481.277L613.462 456.752L598.515 439.646L604.982 432.235L626.007 456.351ZM570.672 488.049L536.715 526.975L522.874 511.117L522.513 511.535L502.38 488.467L558.187 424.468L536.701 399.833L515.215 424.468L530.198 441.639L523.773 448.989L502.74 424.877L536.697 385.96L550.535 401.822L550.895 401.4L571.029 424.476L515.314 488.467L536.701 512.983L558.098 488.467L543.175 471.349L549.625 463.938L570.672 488.049ZM799.552 509.366L785.726 493.512L785.362 493.93L765.232 470.858L821.046 406.875L799.549 382.24L778.052 406.875L793.039 424.038L786.632 431.388L765.589 407.285L799.549 368.351L813.379 384.2L813.75 383.795L833.88 406.875L778.167 470.858L799.552 495.391L820.96 470.858L806.023 453.744L812.483 446.341L833.523 470.448L799.552 509.366ZM854.895 477.659L841.061 461.806L840.694 462.227L820.56 439.151L876.381 375.157L854.888 350.517L833.391 375.157L848.382 392.336L841.975 399.677L820.932 375.57L854.892 336.644L868.726 352.506L869.086 352.089L889.213 375.157L833.491 439.151L854.895 463.672L876.292 439.151L861.356 422.033L867.826 414.618L888.856 438.734L854.895 477.659ZM849.502 516.085L841.047 525.767L832.599 516.085L841.047 506.395L849.502 516.085ZM910.22 445.952L896.394 430.091L896.029 430.512L875.907 407.444L931.714 343.446L910.217 318.819L888.731 343.446L903.707 360.617L897.297 367.975L876.253 343.859L910.213 304.946L924.058 320.791L924.422 320.378L944.537 343.462L888.82 407.444L910.217 431.965L931.617 407.444L916.688 390.335L923.148 382.919L944.184 407.027L910.22 445.952ZM904.841 484.374L896.383 494.061L887.931 484.374L896.383 474.692L904.841 484.374ZM965.549 414.237L951.719 398.388L951.362 398.806L931.228 375.746L987.057 311.743L965.552 287.108L944.066 311.743L959.046 328.926L952.632 336.264L931.589 312.148L965.552 273.231L979.39 289.08L979.754 288.675L999.884 311.739L944.166 375.738L965.556 400.258L986.957 375.738L972.02 358.603L978.48 351.213L999.523 375.32L965.549 414.237ZM960.074 516.662L951.719 526.238L943.367 516.662L951.719 507.09L960.074 516.662ZM960.177 452.672L951.722 462.358L943.274 452.672L951.722 442.981L960.177 452.672ZM1020.9 382.535L1007.06 366.677L1006.69 367.099L986.564 344.031L1042.39 280.028L1020.9 255.405L999.398 280.028L1014.37 297.207L1007.96 304.549L986.928 280.45L1020.9 241.52L1034.71 257.365L1035.08 256.964L1055.22 280.024L999.499 344.023L1020.9 368.548L1042.29 344.023L1027.36 326.909L1033.82 319.502L1054.86 343.613L1020.9 382.535ZM1015.41 484.96L1007.06 494.535L998.706 484.96L1007.06 475.38L1015.41 484.96ZM1015.51 420.965L1007.06 430.647L998.613 420.965L1007.06 411.275L1015.51 420.965ZM1076.23 350.832L1062.39 334.975L1062.04 335.388L1041.91 312.328L1097.72 248.33L1076.22 223.698L1054.73 248.33L1069.71 265.493L1063.31 272.854L1042.26 248.739L1076.23 209.813L1090.06 225.675L1090.42 225.258L1110.56 248.338L1054.84 312.328L1076.23 336.845L1097.62 312.328L1082.69 295.215L1089.16 287.799L1110.19 311.907L1076.23 350.832ZM1070.75 453.241L1062.39 462.821L1054.04 453.241L1062.39 443.673L1070.75 453.241ZM1070.84 389.25L1062.39 398.941L1053.94 389.25L1062.39 379.568L1070.84 389.25ZM1131.57 319.113L1117.73 303.268L1117.37 303.681L1097.24 280.609L1153.06 216.627L1131.56 191.988L1110.07 216.627L1125.05 233.802L1118.63 241.148L1097.59 217.024L1131.56 178.107L1145.39 193.96L1145.76 193.559L1165.89 216.627L1110.17 280.609L1131.56 305.13L1152.96 280.609L1138.03 263.504L1144.49 256.089L1165.52 280.204L1131.57 319.113ZM1126.08 421.538L1117.73 431.114L1109.37 421.538L1117.73 411.966L1126.08 421.538ZM1126.18 357.56L1117.73 367.242L1109.28 357.56L1117.73 347.865L1126.18 357.56ZM1186.9 287.423L1173.06 271.565L1172.7 271.979L1152.57 248.915L1208.4 184.916L1186.9 160.281L1165.41 184.916L1180.39 202.087L1173.98 209.437L1152.94 185.321L1186.9 146.408L1200.74 162.257L1201.09 161.84L1221.22 184.916L1165.51 248.915L1186.9 273.427L1208.3 248.915L1193.36 231.789L1199.82 224.382L1220.86 248.493L1186.9 287.423ZM1181.41 389.839L1173.06 399.415L1164.71 389.839L1173.06 380.255L1181.41 389.839ZM1181.51 325.845L1173.06 335.535L1164.61 325.845L1173.06 316.167L1181.51 325.845ZM1242.23 255.704L1228.4 239.846L1228.04 240.268L1207.9 217.204L1263.73 153.201L1242.23 128.574L1220.73 153.201L1235.72 170.372L1229.31 177.718L1208.26 153.615L1242.23 114.689L1256.07 130.547L1256.43 130.137L1276.56 153.197L1220.83 217.192L1242.23 241.721L1263.64 217.192L1248.7 200.074L1255.17 192.667L1276.2 216.791L1242.23 255.704ZM1236.75 358.125L1228.4 367.704L1220.05 358.125L1228.4 348.561L1236.75 358.125ZM1236.85 294.126L1228.4 303.816L1219.96 294.126L1228.4 284.444L1236.85 294.126ZM1297.57 223.997L1283.73 208.152L1283.38 208.561L1263.24 185.489L1319.06 121.507L1297.56 96.8675L1276.07 121.507L1291.06 138.674L1284.65 146.024L1263.6 121.9L1297.56 82.9907L1311.4 98.8359L1311.77 98.4308L1331.89 121.507L1276.17 185.489L1297.57 210.006L1318.97 185.489L1304.03 168.375L1310.5 160.977L1331.53 185.084L1297.57 223.997ZM1292.09 326.422L1283.72 335.99L1275.38 326.422L1283.72 316.85L1292.09 326.422ZM1292.18 262.427L1283.72 272.11L1275.28 262.427L1283.72 252.737L1292.18 262.427ZM1352.91 192.29L1339.07 176.433L1338.7 176.855L1318.58 153.791L1374.39 89.792L1352.9 65.1526L1331.41 89.792L1346.39 106.971L1339.98 114.317L1318.93 90.2094L1352.9 51.284L1366.73 67.1333L1367.1 66.7159L1387.21 89.792L1331.51 153.791L1352.9 178.311L1374.3 153.791L1359.36 136.677L1365.82 129.262L1386.86 153.369L1352.91 192.29ZM1347.42 294.719L1339.07 304.299L1330.72 294.719L1339.07 285.131L1347.42 294.719ZM1347.52 230.721L1339.07 240.403L1330.62 230.721L1339.07 221.034L1347.52 230.721ZM1408.24 160.58L1394.4 144.739L1394.04 145.144L1373.92 122.08L1429.74 58.0894L1408.24 33.4582L1386.74 58.0894L1401.74 75.2564L1395.32 82.602L1374.27 58.4904L1408.24 19.5773L1422.08 35.4307L1422.44 35.0214L1442.57 58.0935L1386.85 122.076L1408.24 146.605L1429.64 122.076L1414.71 104.962L1421.17 97.5509L1442.2 121.667L1408.24 160.58ZM1402.77 263.004L1394.4 272.584L1386.05 263.004L1394.4 253.433L1402.77 263.004ZM1402.86 199.014L1394.4 208.696L1385.95 199.014L1394.4 189.332L1402.86 199.014ZM1458.09 231.302L1449.74 240.878L1441.38 231.302L1449.74 221.718L1458.09 231.302ZM1458.19 167.311L1449.74 176.994L1441.29 167.311L1449.74 157.625L1458.19 167.311ZM1513.43 199.595L1505.08 209.167L1496.71 199.595L1505.08 190.019L1513.43 199.595ZM1513.52 135.597L1505.08 145.279L1496.62 135.597L1505.08 125.918L1513.52 135.597ZM1568.76 167.884L1560.41 177.46L1552.06 167.884L1560.41 158.308L1568.76 167.884ZM1568.85 103.89L1560.41 113.58L1551.96 103.89L1560.41 94.2076L1568.85 103.89ZM1624.1 136.182L1615.74 145.753L1607.39 136.182L1615.74 126.602L1624.1 136.182ZM1624.2 72.1831L1615.75 81.8653L1607.29 72.1831L1615.75 62.5009L1624.2 72.1831ZM1679.44 104.479L1671.08 114.055L1662.72 104.479L1671.08 94.8951L1679.44 104.479ZM1679.53 40.4805L1671.08 50.1668L1662.64 40.4805L1671.08 30.7982L1679.53 40.4805ZM1734.77 72.7683L1726.41 82.34L1718.07 72.7683L1726.41 63.1924L1734.77 72.7683ZM1790.1 41.0534L1781.74 50.6292L1773.4 41.0534L1781.74 31.4816L1790.1 41.0534ZM641.997 501.987L633.542 511.67L625.09 501.987L633.542 492.297L641.997 501.987ZM697.326 470.273L688.885 479.963L680.433 470.273L688.885 460.59L697.326 470.273ZM752.569 502.564L744.217 512.132L735.858 502.564L744.217 492.993L752.569 502.564ZM752.661 438.562L744.217 448.248L735.769 438.562L744.217 428.884L752.661 438.562ZM807.904 470.858L799.549 480.434L791.193 470.858L799.549 461.274L807.904 470.858ZM808.001 406.875L799.549 416.545L791.097 406.875L799.549 397.177L808.001 406.875ZM863.244 439.151L854.885 448.727L846.522 439.151L854.885 429.575L863.244 439.151ZM863.34 375.157L854.888 384.851L846.437 375.157L854.888 365.478L863.34 375.157ZM918.568 407.44L910.213 417.02L901.865 407.44L910.213 397.868L918.568 407.44ZM918.679 343.446L910.217 353.14L901.772 343.446L910.217 333.763L918.679 343.446ZM973.911 375.742L965.549 385.313L957.194 375.742L965.549 366.162L973.911 375.742ZM974.011 311.743L965.552 321.425L957.104 311.743L965.552 302.053L974.011 311.743ZM1029.24 344.027L1020.9 353.603L1012.53 344.027L1020.9 334.455L1029.24 344.027ZM1029.35 280.028L1020.9 289.719L1012.44 280.028L1020.9 270.354L1029.35 280.028ZM1084.58 312.328L1076.22 321.9L1067.87 312.328L1076.22 302.748L1084.58 312.328ZM1084.67 248.33L1076.22 258.012L1067.77 248.33L1076.22 238.647L1084.67 248.33ZM1139.92 280.609L1131.56 290.197L1123.2 280.609L1131.56 271.033L1139.92 280.609ZM1140.01 216.627L1131.56 226.313L1123.11 216.627L1131.56 206.937L1140.01 216.627ZM1195.25 248.915L1186.9 258.487L1178.54 248.915L1186.9 239.343L1195.25 248.915ZM1195.35 184.916L1186.9 194.603L1178.44 184.916L1186.9 175.226L1195.35 184.916ZM1250.59 217.2L1242.23 226.772L1233.88 217.2L1242.23 207.628L1250.59 217.2ZM1250.69 153.205L1242.23 162.9L1233.78 153.205L1242.23 143.523L1250.69 153.205ZM1305.92 185.489L1297.56 195.069L1289.21 185.489L1297.56 175.909L1305.92 185.489ZM1306.01 121.507L1297.56 131.181L1289.12 121.507L1297.56 111.808L1306.01 121.507ZM1361.26 153.791L1352.91 163.366L1344.55 153.791L1352.91 144.211L1361.26 153.791ZM1361.35 89.792L1352.91 99.4784L1344.47 89.792L1352.91 80.1098L1361.35 89.792ZM1416.59 122.076L1408.24 131.656L1399.88 122.076L1408.24 112.504L1416.59 122.076ZM1416.68 58.0894L1408.24 67.7594L1399.78 58.0894L1408.24 48.3949L1416.68 58.0894ZM1471.92 90.369L1463.57 99.9449L1455.22 90.369L1463.57 80.7973L1471.92 90.369ZM1472.03 26.3868L1463.57 36.069L1455.13 26.3868L1463.57 16.6882L1472.03 26.3868ZM1527.27 58.6623L1518.9 68.2464L1510.54 58.6623L1518.9 49.0865L1527.27 58.6623ZM1582.6 26.9597L1574.25 36.5315L1565.88 26.9597L1574.25 17.3879L1582.6 26.9597ZM764.339 111.076L730.383 149.989L716.553 134.136L716.185 134.549L696.055 111.485L751.865 47.4905L730.376 22.8511L708.879 47.4905L723.866 64.6534L717.448 72.0194L696.405 47.9038L730.376 8.97838L744.206 24.8276L744.577 24.4225L764.704 47.4864L708.979 111.481L730.379 136.01L751.776 111.481L736.839 94.359L743.303 86.9643L764.339 111.076ZM709.007 142.778L675.051 181.7L661.209 165.846L660.853 166.26L640.719 143.196L696.526 79.1931L675.04 54.566L653.55 79.1931L668.533 96.3642L662.12 103.718L641.076 79.6146L675.04 40.6933L688.874 56.5384L689.238 56.1292L709.361 79.2013L653.654 143.192L675.044 167.704L696.44 143.192L681.507 126.066L687.964 118.667L709.007 142.778ZM653.679 174.489L619.708 213.415L605.874 197.557L605.514 197.966L585.376 174.898L641.198 110.9L619.708 86.2686L598.215 110.9L613.194 128.079L606.78 135.437L585.741 111.321L619.708 72.3959L633.535 88.2451L633.899 87.8236L654.036 110.896L598.315 174.89L619.711 199.419L641.112 174.89L626.175 157.772L632.639 150.378L653.679 174.489ZM598.329 206.2L564.369 245.113L550.542 229.264L550.182 229.677L530.059 206.605L585.873 142.619L564.372 117.979L542.882 142.619L557.862 159.778L551.455 167.131L530.412 143.024L564.376 104.099L578.224 119.956L578.577 119.543L598.707 142.619L542.99 206.605L564.379 231.122L585.783 206.605L570.839 189.491L577.299 182.089L598.329 206.2ZM543 237.899L509.047 276.82L495.199 260.962L494.842 261.384L474.719 238.312L530.533 174.305L509.04 149.686L487.543 174.305L502.53 191.484L496.113 198.838L475.069 174.735L509.04 135.805L522.867 151.667L523.238 151.258L543.361 174.313L487.64 238.312L509.044 262.837L530.444 238.312L515.5 221.194L521.96 213.787L543 237.899ZM487.664 269.609L453.708 308.531L439.867 292.681L439.51 293.078L419.377 270.023L475.201 206.02L453.704 181.385L432.215 206.02L447.201 223.199L440.788 230.541L419.737 206.433L453.708 167.524L467.542 183.361L467.895 182.948L488.029 206.016L432.311 270.014L453.711 294.539L475.112 270.014L460.168 252.893L466.628 245.494L487.664 269.609ZM432.332 301.312L398.372 340.237L384.535 324.388L384.171 324.789L364.048 301.729L419.851 237.739L398.361 213.104L376.865 237.739L391.855 254.906L385.441 262.26L364.397 238.144L398.361 199.223L412.195 215.08L412.559 214.667L432.697 237.739L376.975 301.729L398.365 326.242L419.762 301.729L404.836 284.603L411.289 277.217L432.332 301.312ZM376.993 333.027L343.033 371.944L329.195 356.083L328.842 356.504L308.708 333.436L364.537 269.437L343.029 244.802L321.54 269.437L336.516 286.609L330.106 293.97L309.065 269.855L343.026 230.938L356.863 246.791L357.22 246.365L377.361 269.437L321.636 333.436L343.029 357.953L364.419 333.436L349.497 316.318L355.957 308.915L376.993 333.027ZM321.657 364.738L287.704 403.655L273.863 387.797L273.496 388.211L253.376 365.135L309.183 301.148L287.701 276.521L266.2 301.148L281.18 318.319L274.766 325.677L253.723 301.562L287.701 262.648L301.527 278.485L301.891 278.08L322.014 301.148L266.297 365.13L287.704 389.664L309.087 365.13L294.161 348.025L300.617 340.622L321.657 364.738ZM266.322 396.436L232.354 435.349L218.524 419.496L218.164 419.913L198.034 396.849L253.851 332.859L232.351 308.228L210.872 332.859L225.848 350.03L219.438 357.376L198.394 333.272L232.347 294.339L246.192 310.2L246.556 309.779L266.682 332.855L210.964 396.845L232.351 421.378L253.755 396.845L238.825 379.723L245.285 372.321L266.322 396.436ZM210.993 428.143L177.026 467.068L163.192 451.207L162.831 451.62L142.698 428.564L198.508 364.562L177.019 339.93L155.529 364.562L170.508 381.741L164.095 389.086L143.051 364.979L177.019 326.062L190.852 341.919L191.224 341.494L211.346 364.562L155.632 428.56L177.022 453.073L198.426 428.56L183.489 411.442L189.95 404.035L210.993 428.143ZM155.657 459.858L121.693 498.775L107.863 482.926L107.492 483.335L87.3696 460.263L143.183 396.268L121.69 371.633L100.197 396.268L115.194 413.448L108.77 420.789L87.7332 396.682L121.69 357.769L135.527 373.606L135.881 373.196L156.021 396.277L100.3 460.259L121.693 484.78L143.09 460.259L128.157 443.141L134.614 435.742L155.657 459.858ZM100.329 491.564L66.3611 530.474L52.5239 514.612L52.167 515.038L32.0336 491.97L87.851 427.971L66.3611 403.344L44.868 427.971L59.8368 445.142L53.4375 452.504L32.3939 428.393L66.3651 389.463L80.1956 405.316L80.5629 404.899L100.682 427.971L44.9717 491.97L66.3685 516.494L87.7622 491.97L72.825 474.848L79.2854 467.449L100.329 491.564ZM171.647 505.486L163.196 515.169L154.744 505.486L163.196 495.796L171.647 505.486ZM226.986 473.776L218.527 483.466L210.072 473.776L218.527 464.093L226.986 473.776ZM282.215 506.067L273.863 515.647L265.505 506.067L273.863 496.487L282.215 506.067ZM282.315 442.077L273.867 451.759L265.419 442.077L273.867 432.395L282.315 442.077ZM335.666 457.247L342.13 449.844L363.159 473.951L329.203 512.873L315.372 497.015L315.011 497.433L294.878 474.365L350.696 410.362L329.199 385.739L307.709 410.362L322.696 427.537L316.275 434.903L295.231 410.788L329.203 371.866L343.04 387.703L343.404 387.298L363.534 410.366L307.812 474.361L329.206 498.885L350.61 474.361L335.666 457.247ZM337.558 474.361L329.195 483.932L320.847 474.361L329.195 464.781L337.558 474.361ZM337.647 410.362L329.199 420.048L320.754 410.362L329.199 400.672L337.647 410.362ZM390.998 425.536L397.455 418.133L418.495 442.237L384.538 481.166L370.701 465.305L370.344 465.714L350.214 442.654L406.028 378.659L384.538 354.02L363.041 378.659L378.032 395.826L371.622 403.188L350.578 379.073L384.538 340.147L398.376 356.009L398.729 355.591L418.863 378.659L363.141 442.654L384.542 467.167L405.928 442.654L390.998 425.536ZM392.89 442.654L384.535 452.226L376.172 442.654L384.535 433.082L392.89 442.654ZM392.986 378.659L384.538 388.346L376.079 378.659L384.538 368.973L392.986 378.659ZM446.334 393.833L452.798 386.431L473.841 410.538L439.87 449.455L426.036 433.598L425.687 434.015L405.557 410.943L461.371 346.949L439.867 322.322L418.381 346.949L433.357 364.136L426.954 371.478L405.91 347.362L439.867 308.437L453.708 324.298L454.072 323.885L474.198 346.945L418.477 410.939L439.87 435.468L461.274 410.939L446.334 393.833ZM448.226 410.943L439.863 420.527L431.515 410.943L439.863 401.367L448.226 410.943ZM448.318 346.949L439.867 356.639L431.422 346.949L439.867 337.266L448.318 346.949ZM501.673 362.127L508.13 354.716L529.173 378.827L495.203 417.744L481.365 401.899L481.015 402.309L460.885 379.245L516.692 315.246L495.199 290.607L473.709 315.246L488.692 332.417L482.282 339.767L461.239 315.659L495.195 276.734L509.036 292.587L509.4 292.174L529.527 315.242L473.813 379.241L495.199 403.757L516.606 379.241L501.673 362.127ZM503.554 379.245L495.199 388.816L486.847 379.245L495.199 369.657L503.554 379.245ZM503.651 315.25L495.199 324.932L486.751 315.25L495.199 305.568L503.651 315.25ZM557.002 330.416L563.469 323.001L584.509 347.121L550.549 386.034L536.719 370.18L536.347 370.602L516.225 347.534L572.031 283.527L550.542 258.896L529.048 283.527L544.028 300.71L537.621 308.064L516.578 283.949L550.542 245.027L564.369 260.885L564.74 260.467L584.863 283.531L529.149 347.534L550.545 372.055L571.942 347.534L557.002 330.416ZM558.901 347.534L550.542 357.102L542.183 347.534L550.542 337.958L558.901 347.534ZM558.986 283.531L550.542 293.234L542.09 283.531L550.542 273.853L558.986 283.531ZM612.348 298.717L618.808 291.306L639.841 315.418L605.877 354.335L592.051 338.478L591.687 338.895L571.557 315.823L627.367 251.833L605.877 227.205L584.388 251.833L599.364 269.004L592.954 276.357L571.91 252.246L605.874 213.316L619.708 229.174L620.072 228.761L640.205 251.833L584.488 315.823L605.877 340.356L627.271 315.823L612.348 298.717ZM614.229 315.823L605.874 325.399L597.522 315.823L605.874 306.243L614.229 315.823ZM614.326 251.837L605.874 261.515L597.419 251.837L605.874 242.15L614.326 251.837ZM667.684 267.007L674.137 259.6L695.181 283.715L661.209 322.637L647.379 306.775L647.015 307.193L626.889 284.129L682.703 220.13L661.202 195.487L639.713 220.13L654.703 237.301L648.279 244.659L627.242 220.543L661.199 181.622L675.04 197.475L675.404 197.058L695.534 220.134L639.816 284.12L661.202 308.633L682.61 284.12L667.684 267.007ZM669.569 284.116L661.202 293.696L652.851 284.116L661.202 274.54L669.569 284.116ZM669.661 220.13L661.202 229.812L652.755 220.13L661.202 210.448L669.661 220.13ZM723.002 235.3L729.466 227.889L750.506 251.996L716.556 290.918L702.715 275.068L702.354 275.474L682.221 252.41L738.031 188.411L716.549 163.784L695.045 188.411L710.035 205.59L703.625 212.936L682.582 188.824L716.549 149.903L730.376 165.76L730.743 165.343L750.866 188.411L695.152 252.401L716.553 276.914L737.949 252.401L723.002 235.3ZM724.911 252.41L716.553 261.981L708.183 252.41L716.553 242.83L724.911 252.41ZM724.997 188.411L716.553 198.11L708.097 188.411L716.553 178.737L724.997 188.411ZM778.348 203.593L784.805 196.186L805.845 220.294L771.878 259.215L758.051 243.362L757.68 243.767L737.564 220.703L793.378 156.708L771.87 132.073L750.384 156.708L765.367 173.888L758.961 181.237L737.917 157.126L771.867 118.2L785.711 134.054L786.079 133.64L806.205 156.708L750.48 220.703L771.87 245.236L793.267 220.703L778.348 203.593ZM780.236 220.707L771.87 230.279L763.522 220.707L771.87 211.131L780.236 220.707ZM780.333 156.712L771.87 166.387L763.422 156.712L771.87 147.022L780.333 156.712ZM833.674 171.878L840.137 164.471L861.177 188.587L827.22 227.5L813.379 211.647L813.026 212.072L792.9 188.996L848.714 124.998L827.22 100.37L805.724 124.998L820.707 142.177L814.293 149.535L793.249 125.415L827.224 86.4978L841.051 102.347L841.415 101.93L861.552 124.998L805.831 188.992L827.228 213.525L848.624 188.992L833.674 171.878ZM835.568 188.996L827.22 198.584L818.861 188.996L827.22 179.424L835.568 188.996ZM835.669 125.002L827.22 134.688L818.761 125.002L827.22 115.324L835.669 125.002ZM889.016 140.176L895.469 132.765L916.516 156.876L882.549 195.802L868.719 179.94L868.355 180.357L848.225 157.285L904.049 93.295L882.549 68.6597L861.059 93.295L876.039 110.466L869.618 117.82L848.578 93.7001L882.549 54.7747L896.376 70.6362L896.74 70.2106L916.877 93.295L861.156 157.281L882.552 181.81L903.96 157.281L889.016 140.176ZM890.901 157.29L882.549 166.861L874.197 157.29L882.549 147.718L890.901 157.29ZM891.001 93.2991L882.552 102.985L874.101 93.2991L882.552 83.6209L891.001 93.2991ZM944.356 108.481L950.816 101.074L971.852 125.174L937.895 164.103L924.061 148.237L923.697 148.647L903.564 125.587L959.382 61.6006L937.888 36.9693L916.391 61.6006L931.385 78.7757L924.968 86.1254L903.924 62.0098L937.888 23.0966L951.722 38.9418L952.086 38.5244L972.22 61.6006L916.502 125.587L937.892 150.116L959.296 125.587L944.356 108.481ZM946.244 125.583L937.885 135.163L929.529 125.583L937.885 116.011L946.244 125.583ZM946.329 61.5965L937.888 71.2746L929.433 61.5965L937.888 51.9142L946.329 61.5965ZM1001.58 93.8761L993.22 103.444L984.858 93.8761L993.22 84.3043L1001.58 93.8761ZM1001.67 29.8734L993.224 39.5638L984.769 29.8734L993.224 20.1993L1001.67 29.8734ZM1056.9 62.1653L1048.56 71.7411L1040.2 62.1653L1048.56 52.5935L1056.9 62.1653ZM1112.24 30.4668L1103.89 40.0426L1095.53 30.4668L1103.89 20.8827L1112.24 30.4668ZM379.149 519.584L370.701 529.283L362.249 519.584L370.701 509.91L379.149 519.584ZM434.495 487.894L426.033 497.564L417.588 487.894L426.033 478.203L434.495 487.894ZM489.731 520.161L481.365 529.745L473.013 520.161L481.365 510.589L489.731 520.161ZM489.831 456.171L481.365 465.857L472.917 456.171L481.365 446.492L489.831 456.171ZM545.067 488.467L536.704 498.038L528.356 488.467L536.704 478.883L545.067 488.467ZM545.156 424.468L536.704 434.154L528.26 424.468L536.704 414.79L545.156 424.468ZM600.403 456.752L592.047 466.332L583.678 456.752L592.047 447.18L600.403 456.752ZM600.499 392.774L592.047 402.452L583.588 392.774L592.047 383.079L600.499 392.774ZM655.727 425.045L647.379 434.621L639.024 425.045L647.379 415.473L655.727 425.045ZM655.838 361.055L647.379 370.737L638.927 361.055L647.379 351.372L655.838 361.055ZM711.07 393.338L702.708 402.91L694.352 393.338L702.708 383.767L711.07 393.338ZM711.163 329.344L702.708 339.03L694.256 329.344L702.708 319.666L711.163 329.344ZM766.41 361.628L758.047 371.207L749.699 361.628L758.047 352.052L766.41 361.628ZM766.492 297.645L758.047 307.323L749.596 297.645L758.047 287.947L766.492 297.645ZM821.738 329.921L813.379 339.501L805.028 329.921L813.379 320.341L821.738 329.921ZM821.835 265.939L813.379 275.613L804.938 265.939L813.379 256.256L821.835 265.939ZM877.077 298.218L868.719 307.794L860.356 298.218L868.719 288.655L877.077 298.218ZM877.167 234.22L868.722 243.906L860.267 234.22L868.722 224.541L877.167 234.22ZM932.402 266.507L924.058 276.079L915.699 266.507L924.058 256.932L932.402 266.507ZM932.502 202.525L924.061 212.207L915.599 202.525L924.061 192.835L932.502 202.525ZM987.738 234.805L979.387 244.377L971.031 234.805L979.387 225.221L987.738 234.805ZM987.842 170.814L979.39 180.497L970.942 170.814L979.39 161.128L987.842 170.814ZM1043.08 203.098L1034.71 212.678L1026.36 203.098L1034.71 193.526L1043.08 203.098ZM1043.18 139.108L1034.72 148.79L1026.27 139.108L1034.72 129.421L1043.18 139.108ZM1098.41 171.387L1090.06 180.955L1081.7 171.387L1090.06 161.816L1098.41 171.387ZM1098.51 107.397L1090.06 117.079L1081.61 107.397L1090.06 97.7146L1098.51 107.397ZM1153.75 139.685L1145.39 149.261L1137.04 139.685L1145.39 130.097L1153.75 139.685ZM1153.85 75.6983L1145.39 85.3765L1136.94 75.6983L1145.39 66.0161L1153.85 75.6983ZM1209.09 107.97L1200.72 117.55L1192.37 107.97L1200.72 98.4062L1209.09 107.97ZM1209.18 43.9875L1200.72 53.6739L1192.28 43.9875L1200.72 34.3053L1209.18 43.9875ZM1264.42 76.2712L1256.06 85.843L1247.71 76.2712L1256.06 66.6954L1264.42 76.2712ZM1264.51 12.2808L1256.06 21.9631L1247.61 12.2808L1256.06 2.59039L1264.51 12.2808ZM1319.75 44.5727L1311.4 54.1363L1303.05 44.5727L1311.4 34.9887L1319.75 44.5727ZM1375.09 12.8496L1366.74 22.4378L1358.38 12.8496L1366.74 3.27789L1375.09 12.8496ZM293.982 114.579L260.022 153.496L246.195 137.651L245.831 138.06L225.705 114.996L281.515 51.0057L260.019 26.3663L238.529 51.0057L253.516 68.1686L247.102 75.5224L226.065 51.4068L260.019 12.4813L273.86 28.3306L274.217 27.9296L294.357 51.0057L238.636 114.988L260.022 139.513L281.43 114.988L266.489 97.8742L272.953 90.4672L293.982 114.579ZM238.654 146.281L204.697 185.199L190.856 169.349L190.499 169.767L170.362 146.699L226.183 82.7043L204.694 58.0771L183.193 82.7043L198.18 99.8753L191.759 107.225L170.719 83.1094L204.694 44.1881L218.52 60.0455L218.877 59.6281L239.011 82.6961L183.29 146.691L204.697 171.219L226.087 146.691L211.15 129.573L217.61 122.182L238.654 146.281ZM183.315 177.988L149.361 216.913L135.527 201.064L135.167 201.478L115.034 178.414L170.844 114.407L149.354 89.7797L127.865 114.407L142.844 131.586L136.427 138.932L115.384 114.828L149.351 75.8989L163.181 91.7563L163.542 91.3389L183.678 114.415L127.957 178.414L149.354 202.93L170.751 178.414L155.811 161.288L162.278 153.881L183.315 177.988ZM127.982 209.703L94.0183 248.624L80.1915 232.767L79.8347 233.18L59.705 210.112L115.512 146.118L94.0183 121.495L72.5287 146.118L87.5154 163.301L81.0983 170.647L60.0547 146.531L94.0219 107.614L107.86 123.455L108.224 123.062L128.357 146.118L72.625 210.108L94.0258 234.645L115.423 210.108L100.493 192.994L106.953 185.591L127.982 209.703ZM72.6503 241.406L38.6901 280.327L24.8563 264.465L24.4919 264.887L4.3656 241.819L60.1761 177.837L38.6865 153.197L17.1895 177.837L32.1726 195L25.7625 202.357L4.72278 178.246L38.6865 139.312L52.5131 155.166L52.8772 154.748L73.0072 177.837L17.2858 241.819L38.6901 266.352L60.08 241.819L45.1499 224.705L51.6104 217.294L72.6503 241.406ZM17.318 273.108L-16.6389 312.03L-30.476 296.176L-30.8398 296.594L-50.9664 273.522L4.83691 209.527L-16.6423 184.896L-38.1423 209.527L-23.1592 226.698L-29.5768 234.044L-50.6165 209.932L-16.6423 171.015L-2.82251 186.872L-2.45862 186.459L17.6823 209.527L-38.0426 273.517L-16.6389 298.034L4.74756 273.517L-10.1785 256.404L-3.73999 248.993L17.318 273.108ZM-38.0214 304.823L-71.9775 343.744L-85.819 327.883L-86.1757 328.304L-106.309 305.24L-50.4989 241.242L-71.9885 216.615L-93.4746 241.242L-78.5059 258.413L-84.9198 265.759L-105.963 241.647L-71.9919 202.717L-58.1583 218.575L-57.787 218.166L-37.6606 241.242L-93.3784 305.224L-71.9885 329.753L-50.5951 305.224L-65.5249 288.098L-59.0615 280.699L-38.0214 304.823ZM-93.3531 336.522L-127.321 375.439L-141.151 359.594L-141.511 360.007L-161.645 336.939L-105.831 272.945L-127.321 248.313L-148.811 272.945L-133.827 290.12L-140.241 297.469L-161.285 273.354L-127.321 234.432L-113.487 250.286L-113.123 249.872L-92.9965 272.945L-148.721 336.939L-127.317 361.46L-105.92 336.939L-120.854 319.821L-114.39 312.414L-93.3531 336.522ZM-148.689 368.237L-182.653 407.146L-196.487 391.3L-196.851 391.714L-216.977 368.654L-161.167 304.655L-182.66 280.012L-204.15 304.655L-189.163 321.83L-195.576 329.184L-216.613 305.065L-182.66 266.147L-168.83 281.992L-168.466 281.583L-148.329 304.655L-204.05 368.654L-182.656 393.166L-161.252 368.654L-176.189 351.532L-169.726 344.117L-148.689 368.237ZM-204.028 399.939L-237.996 438.869L-251.83 423.007L-252.183 423.425L-272.316 400.357L-216.495 336.362L-237.996 311.727L-259.489 336.362L-244.499 353.529L-250.916 360.883L-271.952 336.771L-237.996 297.846L-224.155 313.699L-223.79 313.29L-203.668 336.37L-259.382 400.352L-237.992 424.877L-216.595 400.352L-231.528 383.239L-225.068 375.836L-204.028 399.939ZM-141.151 516.376L-154.985 500.518L-155.349 500.936L-175.468 477.876L-119.665 413.877L-141.155 389.242L-162.648 413.877L-147.658 431.057L-154.078 438.402L-175.118 414.282L-141.155 375.365L-127.321 391.214L-126.957 390.809L-106.816 413.877L-162.541 477.876L-141.151 502.388L-119.75 477.876L-134.688 460.75L-128.223 453.351L-107.188 477.454L-141.151 516.376ZM-85.812 484.661L-99.6458 468.82L-100.006 469.229L-120.132 446.169L-64.3257 382.167L-85.819 357.543L-107.316 382.167L-92.3324 399.342L-98.7391 406.683L-119.776 382.576L-85.819 343.654L-71.985 359.508L-71.6138 359.099L-51.4908 382.167L-107.219 446.161L-85.8156 470.682L-64.4257 446.161L-79.3481 429.043L-72.8951 421.64L-51.8516 445.748L-85.812 484.661ZM-30.476 452.958L-44.3135 437.101L-44.6777 437.522L-64.8 414.45L-8.98291 350.46L-30.476 325.825L-51.9728 350.46L-36.9862 367.631L-43.3999 374.981L-64.4469 350.873L-30.4725 311.948L-16.6349 327.797L-16.2854 327.388L3.84839 350.46L-51.8766 414.442L-30.4691 438.975L-9.07922 414.442L-24.0159 397.332L-17.5485 389.93L3.48425 414.041L-30.476 452.958ZM-35.8655 491.397L-44.3209 501.079L-52.7688 491.397L-44.3209 481.702L-35.8655 491.397ZM24.8563 421.247L11.0149 405.398L10.6617 405.816L-9.4574 382.744L46.3459 318.757L24.8563 294.114L3.35901 318.757L18.3424 335.924L11.932 343.278L-9.10767 319.154L24.8563 280.241L38.6901 296.094L39.04 295.681L59.1732 318.757L3.46277 382.744L24.8597 407.268L46.2566 382.744L31.3235 365.63L37.7729 358.231L58.8165 382.33L24.8563 421.247ZM19.4669 459.678L11.0149 469.372L2.5741 459.678L11.0149 450L19.4669 459.678ZM80.1915 389.553L66.3611 373.687L65.9976 374.109L45.8674 351.045L101.689 287.046L80.1915 262.415L58.6913 287.046L73.6816 304.217L67.2643 311.571L46.2244 287.46L80.1915 248.538L94.0183 264.384L94.3793 263.974L114.52 287.046L58.7948 351.041L80.1956 375.562L101.599 351.041L86.6521 333.923L93.1191 326.52L114.156 350.623L80.1915 389.553ZM74.7024 491.97L66.3611 501.545L58.0062 491.97L66.3611 482.39L74.7024 491.97ZM74.8062 427.975L66.3611 437.661L57.9099 427.975L66.3611 418.293L74.8062 427.975ZM135.527 357.838L121.693 341.985L121.337 342.398L101.203 319.342L157.017 255.331L135.524 230.708L114.034 255.331L129.017 272.515L122.604 279.865L101.567 255.749L135.524 216.84L149.358 232.685L149.722 232.276L169.845 255.336L114.131 319.334L135.527 343.859L156.924 319.334L141.995 302.208L148.451 294.813L169.495 318.921L135.527 357.838ZM130.049 460.255L121.69 469.835L113.331 460.255L121.69 450.683L130.049 460.255ZM130.141 396.268L121.69 405.951L113.235 396.268L121.69 386.586L130.141 396.268ZM190.86 326.127L177.03 310.274L176.662 310.695L156.546 287.619L212.349 223.629L190.86 198.989L169.363 223.629L184.357 240.8L177.932 248.158L156.889 224.034L190.86 185.117L204.701 200.974L205.054 200.557L225.188 223.625L169.463 287.615L190.863 312.136L212.26 287.615L197.324 270.501L203.794 263.099L224.823 287.202L190.86 326.127ZM185.384 428.556L177.026 438.136L168.674 428.556L177.026 418.976L185.384 428.556ZM185.485 364.553L177.026 374.248L168.578 364.553L177.026 354.871L185.485 364.553ZM246.199 294.417L232.354 278.559L232.001 278.985L211.875 255.913L267.685 191.926L246.195 167.295L224.695 191.926L239.682 209.101L233.265 216.443L212.228 192.327L246.195 153.398L260.022 169.259L260.39 168.85L280.512 191.922L224.802 255.909L246.199 280.442L267.596 255.909L252.648 238.803L259.112 231.4L280.156 255.503L246.199 294.417ZM240.72 396.849L232.354 406.425L223.999 396.849L232.354 387.27L240.72 396.849ZM240.813 332.859L232.354 342.533L223.91 332.859L232.354 323.177L240.813 332.859ZM301.535 262.722L287.708 246.861L287.336 247.278L267.21 224.214L323.024 160.215L301.527 135.584L280.041 160.215L295.01 177.387L288.611 184.744L267.571 160.625L301.524 121.716L315.358 137.569L315.729 137.147L335.852 160.224L280.138 224.21L301.527 248.731L322.932 224.21L307.995 207.092L314.455 199.689L335.491 223.793L301.535 262.722ZM296.049 365.13L287.704 374.706L279.338 365.13L287.704 355.571L296.049 365.13ZM296.152 301.148L287.708 310.831L279.245 301.148L287.708 291.462L296.152 301.148ZM356.863 231.007L343.033 215.154L342.676 215.575L322.532 192.507L378.353 128.509L356.863 103.865L335.37 128.509L350.353 145.68L343.936 153.038L322.892 128.918L356.863 90.0007L370.694 105.85L371.061 105.433L391.191 128.505L335.47 192.503L356.867 217.016L378.26 192.503L363.337 175.39L369.794 167.974L390.834 192.086L356.863 231.007ZM351.385 333.436L343.026 343.008L334.677 333.436L343.026 323.864L351.385 333.436ZM351.488 269.437L343.029 279.132L334.585 269.437L343.029 259.755L351.488 269.437ZM412.206 199.3L398.372 183.447L398.001 183.86L377.875 160.801L433.685 96.802L412.195 72.1749L390.706 96.802L405.682 113.985L399.268 121.323L378.224 97.2153L412.192 58.2981L426.022 74.1433L426.39 73.7382L446.516 96.802L390.806 160.801L412.195 185.317L433.599 160.801L418.652 143.675L425.119 136.284L446.156 160.387L412.206 199.3ZM406.724 301.725L398.365 311.297L390.013 301.725L398.365 292.145L406.724 301.725ZM406.817 237.739L398.368 247.421L389.92 237.739L398.368 228.044L406.817 237.739ZM467.538 167.602L453.704 151.745L453.344 152.166L433.214 129.094L489.021 65.0953L467.535 40.4682L446.034 65.0953L461.018 82.2664L454.607 89.6161L433.56 65.5168L467.538 26.5832L481.365 42.4407L481.726 42.0274L501.863 65.0912L446.138 129.09L467.542 153.615L488.928 129.09L473.998 111.976L480.458 104.569L501.502 128.677L467.538 167.602ZM462.063 270.019L453.704 279.594L445.349 270.019L453.704 260.439L462.063 270.019ZM462.152 206.02L453.708 215.702L445.256 206.02L453.708 196.329L462.152 206.02ZM517.388 238.312L509.04 247.888L500.678 238.312L509.04 228.74L517.388 238.312ZM517.495 174.305L509.04 184.004L500.592 174.305L509.04 164.635L517.495 174.305ZM572.72 206.605L564.369 216.177L556.017 206.605L564.369 197.017L572.72 206.605ZM572.824 142.619L564.369 152.297L555.92 142.619L564.369 132.916L572.824 142.619ZM628.063 174.894L619.708 184.478L611.356 174.894L619.708 165.323L628.063 174.894ZM628.152 110.9L619.708 120.594L611.26 110.9L619.708 101.218L628.152 110.9ZM683.395 143.192L675.044 152.772L666.688 143.192L675.044 133.62L683.395 143.192ZM683.492 79.1931L675.044 88.8754L666.595 79.1931L675.044 69.5109L683.492 79.1931ZM738.727 111.485L730.379 121.057L722.017 111.485L730.379 101.909L738.727 111.485ZM738.835 47.4905L730.379 57.1687L721.927 47.4905L730.379 37.7919L738.835 47.4905ZM794.074 79.766L785.715 89.3542L777.353 79.766L785.715 70.1861L794.074 79.766ZM794.16 15.7756L785.715 25.4742L777.26 15.7756L785.715 6.09744L794.16 15.7756ZM849.402 48.0675L841.036 57.6474L832.692 48.0675L841.036 38.4957L849.402 48.0675ZM904.738 16.3608L896.376 25.9407L888.017 16.3608L896.376 6.78903L904.738 16.3608ZM-243.367 477.283L-251.826 486.977L-260.274 477.283L-251.826 467.6L-243.367 477.283ZM-188.128 509.579L-196.487 519.146L-204.842 509.579L-196.487 499.99L-188.128 509.579ZM-188.035 445.584L-196.483 455.266L-204.931 445.584L-196.483 435.894L-188.035 445.584ZM-132.796 477.872L-141.155 487.452L-149.507 477.872L-141.155 468.292L-132.796 477.872ZM-132.699 413.877L-141.151 423.568L-149.599 413.877L-141.151 404.187L-132.699 413.877ZM-77.4529 446.157L-85.819 455.737L-94.1704 446.157L-85.819 436.585L-77.4529 446.157ZM-77.3671 382.167L-85.819 391.849L-94.2672 382.167L-85.819 372.48L-77.3671 382.167ZM-22.1246 414.446L-30.476 424.03L-38.842 414.446L-30.476 404.878L-22.1246 414.446ZM-22.0352 350.46L-30.476 360.146L-38.9349 350.46L-30.476 340.773L-22.0352 350.46ZM33.2008 382.744L24.8563 392.323L16.5042 382.744L24.8563 373.164L33.2008 382.744ZM33.3075 318.757L24.8563 328.444L16.4009 318.757L24.8563 309.063L33.3075 318.757ZM88.5508 351.041L80.1915 360.613L71.8295 351.041L80.1915 341.465L88.5508 351.041ZM88.6433 287.046L80.1915 296.729L71.7401 287.046L80.1915 277.364L88.6433 287.046ZM143.883 319.334L135.524 328.918L127.169 319.334L135.524 309.758L143.883 319.334ZM143.976 255.331L135.524 265.022L127.076 255.331L135.524 245.649L143.976 255.331ZM199.215 287.619L190.86 297.199L182.508 287.619L190.86 278.048L199.215 287.619ZM199.308 223.629L190.86 233.311L182.408 223.629L190.86 213.947L199.308 223.629ZM254.551 255.913L246.199 265.493L237.84 255.913L246.199 246.333L254.551 255.913ZM254.651 191.926L246.199 201.613L237.744 191.926L246.199 182.24L254.651 191.926ZM309.876 224.21L301.524 233.794L293.165 224.21L301.524 214.634L309.876 224.21ZM309.983 160.215L301.527 169.906L293.079 160.215L301.527 150.541L309.983 160.215ZM365.222 192.507L356.863 202.079L348.504 192.507L356.863 182.927L365.222 192.507ZM365.311 128.509L356.867 138.199L348.411 128.509L356.867 118.822L365.311 128.509ZM420.554 160.801L412.199 170.372L403.837 160.801L412.199 151.221L420.554 160.801ZM420.651 96.802L412.203 106.488L403.754 96.802L412.203 87.1116L420.651 96.802ZM475.894 129.09L467.538 138.662L459.176 129.09L467.538 119.51L475.894 129.09ZM475.99 65.0953L467.538 74.7776L459.079 65.0953L467.538 55.4172L475.99 65.0953ZM531.226 97.3831L522.867 106.963L514.515 97.3831L522.867 87.8032L531.226 97.3831ZM531.322 33.3968L522.867 43.0791L514.411 33.3968L522.867 23.7064L531.322 33.3968ZM586.558 65.6682L578.209 75.2523L569.851 65.6682L578.209 56.0965L586.558 65.6682ZM641.894 33.9615L633.535 43.5456L625.183 33.9615L633.535 24.398L641.894 33.9615ZM-176.364 118.086L-210.324 157.007L-224.155 141.146L-224.519 141.563L-244.641 118.503L-188.827 54.5005L-210.328 29.857L-231.811 54.5005L-216.831 71.6716L-223.251 79.0294L-244.295 54.9179L-210.332 15.9966L-196.49 31.8458L-196.133 31.4284L-176.004 54.5087L-231.721 118.503L-210.328 143.016L-188.938 118.503L-203.864 101.377L-197.401 93.9743L-176.364 118.086ZM-231.689 149.801L-265.649 188.714L-279.49 172.852L-279.858 173.27L-299.984 150.198L-244.17 86.2072L-265.66 61.576L-287.153 86.2072L-272.177 103.378L-278.587 110.732L-299.631 86.6246L-265.66 47.6951L-251.837 63.5444L-251.469 63.1474L-231.339 86.2154L-287.061 150.189L-265.656 174.731L-244.263 150.189L-259.2 133.092L-252.736 125.685L-231.689 149.801ZM-271.142 291.135L-279.498 300.71L-287.846 291.135L-279.498 281.563L-271.142 291.135ZM-271.042 227.152L-279.494 236.822L-287.935 227.152L-279.494 217.454L-271.042 227.152ZM-217.694 242.306L-211.238 234.891L-190.195 259.006L-224.151 297.932L-237.992 282.074L-238.342 282.488L-258.475 259.424L-202.665 195.425L-224.155 170.79L-245.651 195.425L-230.665 212.608L-237.079 219.95L-258.118 195.843L-224.155 156.917L-210.324 172.77L-209.953 172.369L-189.83 195.425L-245.544 259.424L-224.151 283.944L-202.744 259.424L-217.694 242.306ZM-215.803 259.428L-224.158 268.991L-232.517 259.428L-224.158 249.852L-215.803 259.428ZM-215.703 195.429L-224.155 205.116L-232.599 195.429L-224.155 185.747L-215.703 195.429ZM-162.366 210.603L-155.902 203.192L-134.859 227.3L-168.819 266.221L-182.649 250.364L-183.013 250.781L-203.143 227.725L-147.326 163.727L-168.826 139.083L-190.315 163.727L-175.329 180.898L-181.739 188.251L-202.783 164.136L-168.83 125.21L-154.989 141.068L-154.624 140.655L-134.498 163.727L-190.216 227.725L-168.826 252.234L-147.419 227.725L-162.366 210.603ZM-160.464 227.725L-168.83 237.285L-177.182 227.725L-168.83 218.141L-160.464 227.725ZM-160.367 163.731L-168.826 173.413L-177.271 163.731L-168.826 154.04L-160.367 163.731ZM-107.02 178.901L-100.559 171.485L-79.5194 195.605L-113.483 234.518L-127.317 218.669L-127.681 219.086L-147.804 196.018L-91.9935 132.024L-113.483 107.38L-134.976 132.024L-119.993 149.195L-126.411 156.541L-147.447 132.425L-113.483 93.5119L-99.6423 109.361L-99.2782 108.948L-79.1591 132.024L-134.876 196.014L-113.48 220.535L-92.0898 196.014L-107.02 178.901ZM-105.142 196.01L-113.487 205.586L-121.839 196.01L-113.487 186.426L-105.142 196.01ZM-105.039 132.024L-113.487 141.698L-121.946 132.024L-113.487 122.334L-105.039 132.024ZM-51.6909 147.19L-45.2235 139.779L-24.1836 163.89L-58.1514 202.808L-71.985 186.958L-72.3419 187.376L-92.4827 164.304L-36.6577 100.313L-58.1548 75.6779L-79.6479 100.313L-64.6648 117.484L-71.075 124.826L-92.1185 100.718L-58.1548 61.797L-44.3278 77.6503L-43.9568 77.2411L-23.8232 100.317L-79.5408 164.287L-58.1514 188.824L-36.7502 164.287L-51.6909 147.19ZM-49.7991 164.291L-58.1548 173.879L-66.5096 164.291L-58.1548 154.724L-49.7991 164.291ZM-49.6959 100.313L-58.1548 109.995L-66.6066 100.313L-58.1548 90.6268L-49.6959 100.313ZM3.65186 115.479L10.1123 108.08L31.1519 132.184L-2.81531 171.105L-16.6349 155.243L-16.999 155.665L-37.136 132.605L18.6709 68.6024L-2.81897 43.963L-24.3052 68.6024L-9.32202 85.7816L-15.7322 93.1395L-36.7755 69.0157L-2.82251 30.0903L11.0149 45.9477L11.3862 45.5344L31.5126 68.6024L-24.2054 132.605L-2.81897 157.122L18.578 132.605L3.65186 115.479ZM5.54016 132.605L-2.82251 142.169L-11.1704 132.605L-2.82251 123.033L5.54016 132.605ZM5.62891 68.6024L-2.82251 78.2887L-11.2672 68.6024L-2.82251 58.916L5.62891 68.6024ZM60.8828 100.882L52.5171 110.462L44.1648 100.882L52.5171 91.3102L60.8828 100.882ZM60.9722 36.8998L52.5171 46.582L44.0651 36.8998L52.5171 27.2093L60.9722 36.8998ZM116.208 69.1876L107.856 78.7552L99.504 69.1876L107.856 59.6117L116.208 69.1876ZM171.544 37.485L163.185 47.0526L154.833 37.485L163.185 27.905L171.544 37.485ZM-284.969 432.055L-293.324 441.631L-301.683 432.055L-293.324 422.483L-284.969 432.055ZM-284.869 368.061L-293.321 377.751L-301.78 368.061L-293.321 358.386L-284.869 368.061ZM-229.64 400.352L-237.996 409.928L-246.348 400.352L-237.996 390.781L-229.64 400.352ZM-229.533 336.362L-237.992 346.04L-246.433 336.362L-237.992 326.672L-229.533 336.362ZM-174.301 368.654L-182.66 378.226L-191.004 368.654L-182.66 359.066L-174.301 368.654ZM-174.201 304.655L-182.656 314.346L-191.104 304.655L-182.656 294.969L-174.201 304.655ZM-118.962 336.939L-127.321 346.519L-135.679 336.939L-127.321 327.363L-118.962 336.939ZM-118.869 272.945L-127.321 282.631L-135.772 272.945L-127.321 263.258L-118.869 272.945ZM-63.6333 305.232L-71.985 314.812L-80.3442 305.232L-71.985 295.661L-63.6333 305.232ZM-63.5442 241.242L-71.985 250.916L-80.433 241.242L-71.985 231.551L-63.5442 241.242ZM-8.28662 273.522L-16.6389 283.097L-25.0118 273.522L-16.6389 263.942L-8.28662 273.522ZM-8.19751 209.531L-16.6389 219.226L-25.1082 209.531L-16.6389 199.853L-8.19751 209.531ZM47.0452 241.815L38.6901 251.395L30.3312 241.815L38.6901 232.243L47.0452 241.815ZM47.1379 177.837L38.6901 187.511L30.2277 177.837L38.6901 168.146L47.1379 177.837ZM102.378 210.104L94.0183 219.688L85.6635 210.104L94.0183 200.532L102.378 210.104ZM102.481 146.118L94.0183 155.804L85.5741 146.118L94.0183 136.431L102.481 146.118ZM157.709 178.41L149.358 187.981L140.999 178.41L149.358 168.83L157.709 178.41ZM157.806 114.407L149.358 124.101L140.91 114.407L149.358 104.733L157.806 114.407ZM213.045 146.699L204.701 156.275L196.339 146.699L204.701 137.123L213.045 146.699ZM213.149 82.7043L204.701 92.3865L196.242 82.7043L204.701 73.022L213.149 82.7043ZM268.377 114.988L260.022 124.576L251.674 114.988L260.022 105.416L268.377 114.988ZM268.474 51.0057L260.022 60.6798L251.574 51.0057L260.022 41.3153L268.474 51.0057ZM323.72 83.2894L315.358 92.853L307.006 83.2894L315.358 73.7177L323.72 83.2894ZM323.81 19.2827L315.362 28.9813L306.917 19.2827L315.362 9.6045L323.81 19.2827ZM379.045 51.5827L370.694 61.1545L362.338 51.5827L370.694 41.9946L379.045 51.5827ZM434.385 19.8678L426.029 29.4478L417.674 19.8678L426.029 10.2961L434.385 19.8678ZM-257.305 150.189L-265.656 159.769L-274.015 150.189L-265.656 140.626L-257.305 150.189ZM-257.205 86.2072L-265.653 95.8895L-274.108 86.2072L-265.653 76.525L-257.205 86.2072ZM-201.976 118.503L-210.328 128.071L-218.679 118.503L-210.328 108.911L-201.976 118.503ZM-201.876 54.5005L-210.324 64.1909L-218.772 54.5005L-210.324 44.8142L-201.876 54.5005ZM-146.634 86.7842L-154.989 96.356L-163.348 86.7842L-154.989 77.2084L-146.634 86.7842ZM-146.533 22.7856L-154.985 32.4761L-163.433 22.7856L-154.985 13.1156L-146.533 22.7856ZM-91.2941 55.0775L-99.6492 64.6575L-108.012 55.0775L-99.6492 45.5058L-91.2941 55.0775ZM-35.9655 23.3708L-44.3278 32.9467L-52.6794 23.3708L-44.3278 13.795L-35.9655 23.3708Z" fill="#F4F4F4"/>
</svg>
