<svg xmlns="http://www.w3.org/2000/svg" viewBox="0 0 186.21 163.05"><defs><style>.cls-1{isolation:isolate;}.cls-2{fill:#f4f3f0;}.cls-10,.cls-12,.cls-2,.cls-3,.cls-5,.cls-6,.cls-8,.cls-9{fill-rule:evenodd;}.cls-3,.cls-7{fill:#08366b;}.cls-4{fill:#e7e7e7;}.cls-5{fill:#b2b2b2;}.cls-6{fill:#064995;}.cls-8{fill:#545d63;}.cls-9{fill:#d7d8d9;}.cls-10{fill:#fff;}.cls-11{fill:#dce9eb;mix-blend-mode:multiply;}.cls-12{fill:#eef4f5;}</style></defs><title>Ресурс 7</title><g class="cls-1"><g id="Слой_2" data-name="Слой 2"><g id="description"><path class="cls-2" d="M136.72,37.23a1.36,1.36,0,0,0,.93.22c-.07.5.06.82.46.87-.49.52-1.09-.7-1.39-1.09Zm14.8,23.51c1.35.09,1.86,1.34,3,.44-.64,1.22-2.87.53-3.47,2.18a10.17,10.17,0,0,0,.46-2.61ZM133.95,162.83a1.57,1.57,0,0,0-1.16.22c-.44-.11,1.28-1.59,1.16-.22Zm-20.35-4.14c.58.15-.43.58-.23,1.09-.28-.39-.45-.88-.93-1.09a4,4,0,0,0-.92.65c-.25-.05-.16-.43-.46-.44-.31-.55,1.08-.53.23-.87.74-.75,1.58,1.4,2.31.65Zm42.78-2.18c1.4.18.1,1.11,1.62.43a1,1,0,0,0-.23.65,1.41,1.41,0,0,0-1.62,1.09,1.57,1.57,0,0,0-1.85.87c-1-.32-.07-1,.23-1.31.29.29,2,.3,1.85-1.74Zm-64.75-.44a1.82,1.82,0,0,1,0,1.52c-.56.09-.5-.4-1.16-.22,0-.26.42-.18.69-.22v-.87c.27,0,.41,0,.46-.22Zm46.95,2.39c.91.15-.21-.92.92-.87-.16-.67-.16-.42,0-1.09-.86.51-.7,1.27-.92,2Zm1.62.44c.6.87-1.79.78-2.78.87.07-.51.58-1-.46-.87-.1-.48.71-1.18.23-1.31.49-.2.75-.6,1.16-.87-.36-.41-.8.22-.93-.65-.58.15.43.58.23,1.09-.33,0-.65,0-.69.22-.18-.34-.73-.32-.69-.87.37-.06.4.21.69.22.11-.47-.33-.42-.69-.44.66-1.88,1.82.33,2.55-.87.42.47.66,1.12,1.39,1.31a2.81,2.81,0,0,1-2.08,2.39c.3.89,1.38-.16,2.08-.22Zm21.28-16.54c.11-.46-.33-.41-.69-.43-.76-.25,1.65-.44,1.62,0,0,.72-.68.08-1.16.65-.36-.11,0-.23.23-.22Zm-2.08-32.43a1.71,1.71,0,0,0,1.39,0c-.38.73-2,.31-1.39,2-1.11-.41.08-1.21,0-2Zm6,.22c.6-.05-.32-.38,0-.87.4.28.91.45.92,1.09-1.31.22-2.74.32-3.93.65,0-.25,2.45-1.17,3-.87ZM60.64,88c.42,0,.49-.27.93-.22.43.42-.14.39,0,1.09-.22-.13-.85-.51-.69.22.13.49-.27-.55-.23-1.09Zm-.92-2.61c0-.25.23-.12.23,0,.24-.14.24-.5.69-.43.2.69-.36.67-.46,1.09-.26,0-.13-.22,0-.22-.1-.19-.2-.39-.46-.44Zm99-11.75c.4-1-1.35-.19-1.62-1.09.37-.06.4.21.69.22a.63.63,0,0,0,.69-.44c.24.14.24.5.69.44-.16.18-.36.6,0,.65-.08.34-.41-.19-.46.22Zm-4.39-5.88c.51-.51-.23.72,0,1.31-.46-.36-.29,0-.92,0v-.87c.27,0,.41,0,.46.22a1.53,1.53,0,0,0,.46-.65Zm-4.62-3.92c.84.14-.54,1,.23,1.09-.23-1,1.38-.29,1.16-1.31-.58.42-1-.33-1.39.22Zm4.39-1.31c-1.16.58-2.38,2.25-2.08,3.48a17.33,17.33,0,0,1,2.08-3.48Zm8.09,0c-1.31.72-.84,3.12-2.54,3.48.83-1.18,1-3,2.08-3.92.62-.15.45.45.69.65.85-.16-.1-.65.46-1.09.68.08.45,1,.93,1.31a4.39,4.39,0,0,0-.93,1.09c-.24.55.78,1,.93.44.63.6-.81,1.12-.93,1.74-.62-.32.1-1.19.69-1.09a1,1,0,0,0-.92-.44c-.69.14.22.47,0,.87-.27,0-.41,0-.46.22,0-.54-1.47-.54-.69,0-1.63.21,1.51-2.18.69-3.27Zm2.31-3c-.23.72-.4.64-.92.22a21.55,21.55,0,0,0-.23,2.18c.73-.25.56.34.92.44-.11-.54.66-.64.23-1.09a.63.63,0,0,1-.69.44c-.1-.84,1.25-2.33.69-2.18ZM161.7,59c.36.91-1.22,1.35-.69,2.61.05-1,1.62-1.66.69-2.61Zm-2.54-.65c.5.49.79-.18,1.62,0-.29,0-.7,1-.23.44a7.33,7.33,0,0,1-.23,2.18c-.51,0-.1-.92-.23-1.31a1.14,1.14,0,0,1-.69.22c.2.18.14.6.46.65-.06.56-.4-.3-.93,0,.51-1,.7-1,.23-2.18ZM157.77,56c.64-.35.64.94.23.87-.55.09.13-1-.69-.65-.45.75.22,2,.46,2.83-.17-.36.46-.95.46-.44s-.73.47-.69,1.09c.39,0,.57.24,0,.22.1.49.5.69.69,1.09.36-2,1.18-2.87,1.16-4.79-.87.18-1.32-1.15-1.62-.22Zm-65.91-.87c.82.77-2.37,1.75-.93,2.39-.3.37-.48.86-1.16.87.35-1-.09-1.2-.46-2,1.23,1.13,1.82-.66,2.54-1.31ZM147.13,47a18.67,18.67,0,0,0-1.85,3c-1.47-1.09.94-2.11.69-3.48.23.17.86,1,1.16.43Zm-3.93-2c.19,1.19-1,1.06-.92,2.18.53-.38,1.57-1.42.92-2.18Zm9.94,13.5c-.13-.87.82.23.69-.87-.81.41-1.16,0-1.39-.65h-1.16c.43.69,1.27,1,1.85,1.52Zm-48.33,96c.63.49,1.23,1,1.85,1.52.61-.26.36-1.08,0-1.52-.37,1.14-1-.93-1.85,0Zm11.1-.22c0-1.58-1.75.6-.23.44,0-.6-.44-.75.23-.44Zm-5.32.65c-1.09.63-2.31.1-3.24,1.09.68-1.6-.93-1.34-.69-3,.72,1.05,1.85-.87,3,0-.3.56-.48.68-1.16.43v.65c.21.59.43-.58,1.16-.22-.25.2-.07.8-.69.65.17.41.69.15.23.65.71.16.68-.38,1.39-.22Zm-13.64-2c-.05.94,1.3.29,1.16-.22-.65-.18-.6.31-1.16.22Zm-2.31.65c-.28,0-.55.06-.46.43.44,0,.51-.25.93-.22-.13-.39-.12-.9-.46-1.09v.87Zm12.72-1.31a1.16,1.16,0,0,0,1.16-.43c-.94.3-.73-.47-1.39-.44-.05.41.26.48.23.87Zm4.86-.87c-.41,0-1.34-.59-1.62,0,.51.31,1.24.67,1.62,0Zm-15.26-.22a2,2,0,0,0,.92,1.09c-.31-1.43.79-.27.92-1.09-.71,0-1.31-.51-1.85,0Zm37.23.87c1-.34,0,1.13.69,1.09.05-.17.19-.25.46-.22-.32-1,.7-1.94-.23-2.18-.52.72-.07,1-.93,1.31Zm-3.7-.43h1.16c-.05-.41.26-.48.23-.87-.72.05-.9.61-1.39.87Zm-42.78.65c.24-.88.3-1.56-.92-1.52.11.69.29,1.33.92,1.52Zm69.84-1.31c.83,0,1.59-.1,1.85-.65a3.74,3.74,0,0,0-1.85.65Zm-46.71-.44c.43-.19,1.7.21,2.31-.43a1.62,1.62,0,0,0-2.31.43Zm-13-1.31H96.72c-.18.92,1.24.74,1.16,0Zm-1.62,2c.14-.86-.9-1.26-.23-2,.4-.06.81.84,0,.65.48.68.94.13,1.62.43-.6.16-.78.71-1.39.87Zm52.26-2.39c.44,0,.16.72.69.65.43-.38-.27-.63.23-1.09a1,1,0,0,0-.92.44Zm-41.16-.44c0,1.43,1.91,1,3,.22-.82.34-.14-.74-.69-.65-1,.33-1.21.13-2.31.44Zm31.91-.65c-.16.61,1.15.92,1.39.44a1.64,1.64,0,0,1-.69-.44c.14,0,.27,0,.23-.22a1.36,1.36,0,0,0-.93.22Zm6.48-1.09c-.39.43,0,.28,0,.87,3.32-.67.33,0,0-.87Zm-60.36-.44c.3.3,1.38.38,1.39-.22-.33-.05-.39-.36-.69-.43,0,.41-.76.15-.69.65ZM133.72,143c-.23.65.52.39.92.43v-.65a1.35,1.35,0,0,0-.92.22Zm-6.24.43c.82-.55,1.74,1.84,3,.87-.84.16-.44-.75.23-.43.1-.52-.42-.47-.23-1.09a5.82,5.82,0,0,1-3.7-.44c0,.56.42.76.69,1.09Zm.93-1.31a1.76,1.76,0,0,0,.23-1.31,1.14,1.14,0,0,0,.7.22c-.3.29-.14.66.23.87-.21.73-.43.11-1.16.22Zm-42.78-1.74c-.33-1.12,1.36-2.38.23-2.83,0,1.07-1.68,2.29-.23,2.83ZM59,129.74c0,.65,0,1.33.69,1.31.22-.86.66-2.29,0-2.83.09.81,0,1.48-.69,1.52Zm4.86-1.52c-.09-.52.42-.47.23-1.09-.3,0-.32-.28-.69-.22,0,.63.06,1.11.46,1.31Zm-5.78.65c-.92-.71.61-1.12.23-2.39.36.53.83.79,1.16.43.63.71-.37,1.24-.23,1.74a.6.6,0,0,0-1.16.22Zm2.31-2.39c-.1.48.69,1.2.92.65-.41-.11.1-.23.23-.43-.18,0-.27-.18-.23-.44a1.36,1.36,0,0,0-.92.22Zm-1.62-2.18c-.07.57.08.94.69.87-.11-.76.58-.76.93-1.09-.3-.3-1.09-.13-1.39-.44-.12.68.54,1.05-.23.65Zm9.48-4.79v-.87c-.73.3-1.4-.54-1.62,0,.6.23,1.41.27,1.62.87Zm7.63,0c.06-.4.75-2-.23-2,.14.59-.29,1.73.23,2Zm-5.09-.65c-.6-.05.32-.37,0-.87-.46,0-.29-.59-.93-.43,0,.33-.08.8.23.87,0-.27.07-.52.46-.44-.43.12-.24,1.69.23.87Zm2.54-1.31a1.13,1.13,0,0,1,.69.22c0-1.15.13-.26.46,0,.31-.28.36-1.07-.23-1.09,0,.26-.26.13-.46,0,.27.69-.36.53-.46.87ZM75,116.25c.54-.07,1-.22,1.16-.65-1.09-.91.35-.91.23-2.39-.74-.18-.48-.19-.92.22v-1.09c-1.95.39-1.37,1.92-1.39,3.92a1.13,1.13,0,0,1,.69.22,8.68,8.68,0,0,1,.23-3c.24.87.9-.24,1.16.22-.2.32-.18.84-.93.65v.87c1.17.11-.34.62-.23,1.09Zm0-4.14c.79,0,.86-.64,1.16-1.09-.31-.07-.44-.31-.93-.22a1.76,1.76,0,0,0-.23,1.31Zm-2.08-2.18h.93a.84.84,0,0,0-.93-.87v.87Zm84.87,0c-.05-.41.26-.48.23-.87-1.09.23.47-.82-.69-.65a1.87,1.87,0,0,0,.46,1.52Zm-3.47.44c1-.44.63.22.46.87,1.3-.06.93-2.34,1.39-2.83-.68.6-1.61,1-1.85,2Zm5.32-2.18c0,.25-.23.12-.23,0-.79,0-.35,1.12-1.16,1.09.32-.78.27-1.92,1.39-2,.32.5-.6.82,0,.87Zm-.69-2.61c.66,0,1.26,0,1.16-.65-.3,0-.32-.28-.69-.22-.12.32-.34.55-.46.87Zm3.7-.87c.08.51.15,1,.92.87-.28-1.06.92-.73.92-1.52h-.92c.19.78-.49,1.08-.92.65Zm12-.22c2.5.06,5.54.22,7.63-.65-2,0-6.14.13-7.63.65Zm-9.48-.44c.88.6,1.64.19,2.54-.22-.41-.22-1.24-.38-.69-.87-.79.2-1.91.09-2.31.65.59.24,1.1-.66,1.39,0-.53-.06-.87.05-.93.44Zm4.16-3.27c.6.09.7.65,1.39.65.25-.42,1.07-.3,1.39-.65-.43-.05.13-.36-.23-.44-.56.38-1.84-.22-2.54.44Zm-1.62.22c1.08.33,1.82.09,2.54.44-.34.27-1.49.53-.46.87a2.21,2.21,0,0,1-1.62.65c.12-.69-.5-.85,0-1.31a2.06,2.06,0,0,1-1.39-.22c0-.37.39-.56,0-.65a4,4,0,0,1,.92-.65c.71-.16.44.6,1.16.44a1.16,1.16,0,0,1-1.16.43Zm.46,2.83c.5.44,1.3-.05,1.62-.43.65.37-.09.86.69.87s-.49-.72.23-.65c1.18,0,1.28.06.46.44.61,0,1.36.12,1.39-.44-.28,0-.55-.06-.46-.43.78-.51,1.21,0,1.85-.65-1.4.14-4.88,0-5.78,1.31Zm2.31-3.7h-.69c1.18-1,3.75-.12.69,0Zm3.7-.22H176c.17-1.05-1.79-.64-1.85,0ZM69,97.31c.1-.41.5-.55.46-1.09H68.27c-.16.73.48.71.69,1.09Zm-5.09-7c-.13-.39-.12-.9-.46-1.09-.37.33-.34,1.24.46,1.09ZM61.1,85.77c.05.41-.26.48-.23.87.58,0,.72-.41,1.16,0,.1-.47,1.74-1.38.46-1.74-.24.59-1,1.69-1.39.87Zm113.78-2.61c-.94.26-2.05,0-2.54.22.83,0,2.64,1.43,2.54-.22Zm-105,.44a1.87,1.87,0,0,0-.46-1.52c.17.49-.42,1.7.46,1.52ZM72,79.9c.42-.57-.1-.66.23-1.31-.31-.07-.44-.31-.93-.22v.44c0,.13,0,.26.23.22.45-.7-.46,1,.46.87Zm93.2-3.48c-.76,0-1.15-.37-2.08-.22.17.9,1.54.61,2.08.22Zm-89.5.87c.44.41.42-.13,1.16,0,.13-.85-.73-.76-.93-1.31.17.67-.24.79-.23,1.31Zm-4.16.87c.48-.66-.05-1.8.23-2.18-.66.24-.72,1.06-.92,1.74.4.09.59-.32.69,0a.22.22,0,0,0,0,.44Zm89-1.52c.52-.09.74-.47,1.16-.65a2.07,2.07,0,0,1-1.39-.22,1.17,1.17,0,0,0,.23.87ZM67.81,79.24c.18.55-1.58.36-.69.87,0-.32.56-.2.93-.22a9.19,9.19,0,0,0,.23-1.74c.63,0,.47-.36.92,0,0-.59-.38-.44,0-.87H68c-.41.34-.3,1.17-.69,1.52-.8-.83-.34-2.06.23-3-.3,0-.32-.28-.69-.22-.24,1.22-.85,3.75.93,3.7Zm9.48-2.83c1,.11,1.6-1.24,1.39-1.52-.38.58-1.12.84-1.39,1.52ZM65.5,75.54a2.41,2.41,0,0,0,.46-2c.66.31.3.7.46,1.74-.41,0-.49.27-.92.22ZM78,74.89a13,13,0,0,1,.69-2c.82.67,0,1.57-.69,2Zm77.7-3.7c-.41.13-1.36-.26-1.39.22.3.3,1.38.38,1.39-.22ZM112,60.74c1-.41.31.86,1.16.65.37-.95-.8-.79-.23-1.31-.58,0-.72.33-.92.65Zm-16.42,2c-.07-.57.48-.56.92-.65-.56.32-.33,1.52,0,2.18,1.56-1,1.61-2.33,3.47-2.83-.38,0,.24-.91,0-1.52-1.66.1-1.53,1.9-2.78,2.39.56-.6.36-.5-.23-.87.47-.06.46-.58.69-.87a5.41,5.41,0,0,0-1.85,0c.87,1-1.08,1.35-.23,2.18Zm0-2.61c.48.4-.43,1.33-1.16,1.31.32-.49.94-.72,1.16-1.31Zm50.41.43a.84.84,0,0,0,.93-.87.84.84,0,0,0-.93.87Zm-49.72-.65c.21-.39.56-.64.69-1.09a5.47,5.47,0,0,1,.92,1.31c-.56.53-.61-.53-1.62-.22ZM133.95,59c.78-.07,2.3-.58,1.85-1.09-.49.48-1.59.39-1.85,1.09ZM98.8,58.57c.2-.32.35-.69.93-.65a2.4,2.4,0,0,1-1.62,2.18c-.27-.81,1.76-1.36.69-1.52Zm16.65-.22c.43-.38-.27-.64.23-1.09-.85-.21-.92,1.07-.23,1.09Zm-10.64,1.09c0-.75-.12-1.56.46-1.74-.7.34-.39-1.33-.92-.44.66.49-.59,1.82.46,2.18Zm-4.39-1.74c.81-.13,1.82-1.51.23-1.52.12.49-.49,1.19-.23,1.52Zm3.24-.44c0-.95.34-1.56,1.16-1.74a2,2,0,0,1-1.16,1.74Zm-8.09-.87a.94.94,0,0,0,.46.87c0-.32.56-.2.93-.22.27-.86-.35-1.3.92-1.31a1.36,1.36,0,0,1,.23-1.09c-1.14.27-1.3,2.91-2.54,1.74Zm12,0c-.75-.65.7-1.07.69-1.74-1.28-.57-2.7,1.6-1.85,2.39.35-.53,1-.47,1.16-.65Zm-4.16-.65c.79,0,1.7-1.19.69-1.52-.51.25-.52,1-.69,1.52Zm3.7-2.39c.11,1-1,.76-1.62,1.09a2.57,2.57,0,0,1,1.62-1.09ZM105.74,56c-.72-.6-.21-1,.23-1.52.47.18-.15,1.15-.23,1.52Zm-1.16-2.39c.71.6.73-.77,1.62-.65-.2.68-1.09.72-1.39,1.31-.2,0-.22-.08-.23-.22v-.44ZM103,54c.57,0,1.81-1.32.69-1.52,0,.32-.45.84-.69,1.52Zm29.6-2.18c-.19.46-.06,1.2-.69.44.44,1-.78,1.57-.23,2a.63.63,0,0,1,.69-.43c.23,0,.27.18.46.22.15-1-.16-1-.46-1.09.47-.15,1-1,.23-1.09Zm-28.68-1.31A5.05,5.05,0,0,1,101.81,52c0-.18.23-.22.23-.44h-.46c-.14,1-.91-.06-1.39,1.52-1-.25-.9.46-1.62.44-.19-.62.33-.56.23-1.09.76.93,1.43-.05,1.39-1.09,1.31.45,2.18-1.41,3.7-.87Zm-5.32,3.27c.14.45-.29,1.43.23,1.52,0-1,1.92-1.37,1.39-2.18-.23.51-.8.7-1.62.65Zm35.15-3.7c-.54.07-1,.43-1.39,0,.43,1-.92.3-.69,1.09a4,4,0,0,0,2.08-1.09Zm-.93,1.52a7,7,0,0,0,1.39-1.74c.65,0-.2,2.05-1.39,1.74ZM127,51.17c.55.11,1-1.51.23-1.31,0,.51-.4.64-.23,1.31ZM92.56,60.52c.72-1.14,3.35-1.63,2.78-3.26-.63,1.1-3.42,2.4-2.78,3.26ZM89.09,56c-.22-.41.69-.73,0-.87-.4.78-.71,1.65-1.16,2.39-.31-.07-.44-.31-.93-.22-1.19.82.44,1.74-1.16,2.18,0-.26,0-.62-.23-.65-.6.61-1.88,1.7-1.62,2.39.22-.5,1.12-1.74,1.62-.65-1.25.18-.79,1.25-1.16,1.74-.06-.56-.4.3-.93,0,0-.26,0-.62-.23-.65-.11.39-.25-.09-.46-.22-1.27.91-1.07,2-2.78,2.61v.87c.7.06.9-.7,1.39-.22.2-1-.76.15-.69-.44C82,64,82.08,62.56,83.07,62a2.71,2.71,0,0,0-.69,1.74c.82.09.71.71.92.87.07-.5.62-.5.93-.22.05-.39-.23-1.09.46-.87-.3,0-.3,1.33,0,.65-.06-.85.86-.79,1.39-1.09.21.6-.47,2,.46,2,.29-1.45,0-2.15,1.39-2.61.35,1.06-.67.82-.7,1.52.76.06.49-.84,1.16-.87a6.39,6.39,0,0,1,0-2.61c-.61.06-1-.08-.92-.65s1.22-1,1.62-.43c-.88-.18-.9.46-1.16.87.89-.15.82,0,1.39-.22.53.57,0,.74.46,1.31.06-.45,1-.05.92-.65-1,0-.84-1.68,0-1.74-.57.9.53,1.32.46,1.74.46-.15-.06-1.21.46-1.31,0,.32.56.2.93.22.36-1.13,1.74-1.64,2.08-2.18-.74-.21-.57-1.29-.69-1.52,0,.94-1-.37-.93.65.06.41.38-.12.46.22-.26.62-.95,1.74-1.16.87a5.5,5.5,0,0,0-.93.87c.6-1.15,1.31-1.36.46-2.61,1.33-1.69,2.33-1.53,3.7-3.48.95.27,1.27.15,1.39-.44a4,4,0,0,0,1.62.22c.25-.44,1.11-.89.46-1.52-.73-.25-.56.34-.93.44,0-1.13,1.51-.76,1.85-1.52.1.42.08.94.69.87.37-1,2.35-1.78,3.93-2-.44-.72-2.36-.42-2.77,0-.65-.72-1.65,0-.46-.87-1.11-.1-1.3.66-1.85,1.09.78.29,1.22-.12,1.62.22a2.34,2.34,0,0,1-2.31,0c-.6.83-1,.8-2.08.87.19,1.26-1.46.8-1.62,1.74-.95.24-1.14-.23-1.39-.65.07.57-.32.71-.92.65-.36.77.78.13.69.65-.48.8-1.76,1.47-2.08,2.18-.89-1.41-.71,1.31-2.31,1.52Zm12.72-7.84c-.79-.41.4-.76.23-1.31,1.08.05,0,1.16-.23,1.31Zm1.85-1.74c.12.69-1.15.08-.92.87.89-.09.82-.24,1.39.22,0-.89,1.17-.28,1.16-.65-.69-.25.76-.27.69-.65-.88.12-1.52.6-2.31.22ZM62.72,74.89c-1.08.45-.82,2.6,0,3.27,0-1.46,0-2.88,0-3.27Zm9,35.92c.42.41,1.37.3,1.16,1.31.34-.18.33-.7.46-1.09.63.49.72.84.46,1.74-.3.26-.36.08-.69,0-.07,1.64.12,3.51-1.39,4.57v-.87c-.51,0-.5.55-.46,1.09-.58.29-.56-1-.92-.22-.42-.31,0-1,.23-1.74.82.75.76-.33,1.85-.44-.63-.19-.65.1-.23-.87-.91-.06-.59,1-1.39,1.09.07-.95.7-1.38.92-2.18,0-.26-.42-.18-.69-.22-.1-.52.42-.47.23-1.09.41.05.53.37.46.87,1.34-1.13-.86-2.27-1.16-3.27.4.4.8,0,.69-.65.44-.47.07,1.66.46,2Zm13.41,27c.25.76-1.42.58-.92-.22.37,0,.88-.11.92.22Zm10.18,12.84c.9-.14-.34-.48.23-1.31-.5-.14-.74.62-.69-.22-.61,0-1.45.2-1.16-.65-1.56.3-.64,2.61.92,2.39-.26,0-.36-.24-.46-.44.46.07.46-.29.69-.43,0,.34.59.17.46.65Zm65.91-42.23c.22-1.14.54-1,1.62-1.09v-.65c0-.26-.42-.18-.69-.22,1.41-1.38,4.48-.07,5.78-1.31.31,1.31-1.65.47-1.16,2-1.46.54-2.75,0-4.4.44.07.3.58.18.93.22-.3.59-1.15.66-2.08.65ZM148.75,63.35c-.9-.59.72-.61.46-1.31.68.18-.14.7,0,1.09-.2,0-.22-.08-.23-.22-.22,0-.18.27-.23.44Zm0-3.27c.35,0,.85-.08.93.22-1.36-.41-.15,1.6-1.16,1.52a6.29,6.29,0,0,0-.23-2.83c.67,0,.34-1.14,1.39-1.31-.5-.63.42-1.25-.46-1.52-1,.3-.55,3.59-1.62,2.39-.31,1.36.08,1.64.69,2.61a5,5,0,0,0-1.62.44c0-.33.08-.8-.23-.87-.07.51-.37.82-.23,1.52,1-.13.94.71,1.85.65,0-.33-.08-.8.23-.87.73,1.55,1.25-2.23,2.08-.65a1.17,1.17,0,0,0-.23-.87h.93a1.76,1.76,0,0,1,.23-1.31c-1.55,0-.06-.87,0-1.31-1.48.58-1.36,1.34-2.31,1.74,0-.12-.19-.25-.23,0,.28,0,.14.24,0,.44Zm.69-8.27c-.19.62.33.56.23,1.09-1.64-.58-1.51,1.19-2.54,2.18.48.53.33.46.23,1.31-.34-.11-.58-.32-.93-.43a4.06,4.06,0,0,0,.93-3c1.08,0,1.43-.69,2.08-1.09Zm-14.57-4.35c.37,1-.09,1.62.23,2,.4-.72.75-1.47-.23-2Zm-5.09-2.83c.22.61-1.26,1.31,0,1.52,0,.19-.09.21-.23.22.69.53-.08-1,.69-1.31.34,0,.33,1.29.46.22.51,0,.1.92.23,1.31-2.05-.48-.77,2.18-2.54,2,.27-.32.2-1,.93-.87.3-1.08-.56-1.07-.46-2-.95.38-.28,1.45-1.39,1.31,0,.17.76.66.69.22.75.38-.6.57-.23,1.31-.7,0-1.18.2-1.39.65-.27,0-.2-.4-.23-.65-.51.17-.58.76-.92,1.09.51-.14,1,0,.23.87.41,0,.58.72,1.16,1.09-.1.63-1-.9-1.16-.22a3.45,3.45,0,0,0-.93-2,17.73,17.73,0,0,0,3.93-5c.22,0,.18.27.23.44.41,0,.49-.27.93-.22ZM73.36,67.06c-.19.94-1.73.74-1.16,1.31-1.29-.57-1.29.88-2.08-.22a2.11,2.11,0,0,1-.46,1.74A.94.94,0,0,0,69.2,69c-.35.25-.57.63-1.16.65,0-.22-.19-.26-.23-.44-.31-.55.91-.68.23-.87-.07.66-1-.77-1.16,0,.47.25-.67.57.23.87-.34.61-1-.46-.92.44-.07.68.67-.55.69.22-.61,1-1.91.06-2.54,1.09.66-.37-1-.9-.92-.65.62,0,.62,1.09,0,1.09.23-.65-.52-.39-.93-.44.57.61.37,1.33-.69.87,0,.68-.87,1.57,0,2.39-.86.37-.37-.13-1.16-.22-.19.48.07,1.16-.69,1.52,1-.15.71.93,1.39,1.09.13-.58-.68-1.36,0-1.74.26,0,.36.24.46.44a5.54,5.54,0,0,0,.46,3.48,1.14,1.14,0,0,1,.69-.65,2.7,2.7,0,0,1,0,2.18c-.52-.24-.41-1.07-.92-1.31,0,.33.08.8-.23.87.1-.35-.86-.73-.93-.22,1.52.09.4,1.05,1.16,2.18-.36,0-.18.55-.69.44,0,.62-.2,1.49.46,1.52-.55-1.19.59-1.58,1.39-.87-.06-1.18,1.2-1.93.23-3.26,1,.19.87.1,1.39-.44-.78.08-.39-.94-.69-1.31a1.13,1.13,0,0,1,.69-.65c.1.41-.31,1.31.46,1.09a4.45,4.45,0,0,0-.23-2c.55-.07.43-.76,1.16-.65-1,.6.3,2.75-1.16,3.26a3.86,3.86,0,0,1,.23,1.74c.25.25,1.06.08,1.39-.22-.33-.48-.56.27-.69-.22a1.55,1.55,0,0,1,.46-.65c0,.85.49.67.69.87-.48.06-.46.58-.69.87a1.14,1.14,0,0,1-.46,2c.43-.39-.19-.55,0-1.31-1.15.35-.74-.76-1.62-.65-.14.93.75.89.69,1.74-.2.32-.35.69-.93.65-.27-.68.36-.53.46-.87a4,4,0,0,0-2.08.65c.47-.45-.09-.43-.46-.65.45,1.62-1.59,2.49-1.62,4.35,1.1-.24,1.73.28,2.31,0-.77.7-.75,2.84,0,3.92-.41.12-1,.11-1.16.43,1,0,.06.62,0,.87a1.12,1.12,0,0,0,.69-.22A1.76,1.76,0,0,0,62,93.61c.89-.39.93-1.59,1.85-2-.07,1-.45,1.44-.23,2.39a7.8,7.8,0,0,0-2.78.87c-.09-.37.34-.56,0-.65.09,1.18-2.08,1.37-1.62,2.18.07-.19.63-1,.69-.44-.33.49-.17,1.43-.93,1.52a.63.63,0,0,0-.69-.43c-.43.41,0,.55,0,1.09-.18,0-.46,0-.46.22.89-.61,1.9-.14,2.77-.44-.05.41.26.48.23.87-1.6.41-1.1,1.45-2.08,2.39.77-.51,1.23-.15,1.39.65.74.19.88-.19,1.16-.44.17,1.47.94.82,2.08,2,0,.4-.78.13-.93.43-.51-1.27-1.54,2.22-2.08,3,.84.21.19-1,.92-.87,0,1.52,1.61,1.55,2.31,1.31a13.91,13.91,0,0,1-.69-2.4c.31-.28.7-.13.92.22-.05.31-.38.37-.46.65.73,0,.77-.58,1.62-.44-.36.77.79.13.69.65-.24,1.15-.09,3.21-1.16,4.14.43.21.77-.65.93,0-.18.48-1.09.28-1.16.87.38.36,1.36.17,2.08.22a1.28,1.28,0,0,1,.46-1.74c0,.56,1,.23.69,1.09-.46,0-.29-.59-.92-.43v1.74c.86-.23.37.82,1.16.65.33-.85.47-1.88,1.62-2a1,1,0,0,1-.23.65c.91.35.08-.94.69-.87-.24,2,1.7,2.68.93,3.92-.18,0-.46,0-.46-.22.17-.41.69-.15.23-.65a10.49,10.49,0,0,1-1.85,1.09,9.82,9.82,0,0,1-.23,3c-.6-.35-1.48.25-2.08-.22.32-.13,0-.84.46-.87.41.4.68-.1,1.16-.22-.54-1.53,1.78-2.17.46-3a4.38,4.38,0,0,1-3,2.18c-.18-.56-.34-1,.23-1.31.21.19.36,1.51.69.87-.27-.44,1.57-2.23.46-2.83-.43.52.28,1.25-.46,1.74.07-.43-.31-.43-.46-.65a1.76,1.76,0,0,0,.23-1.31c-.5-.16-1.63-.86-1.85,0,.48.63,1.12.47,1.62.65-.67.35-.25.54-.23,1.31-1.08.18-3.55-.28-2.31.87.7-.84,1.87,1.21,2.54,1.31.4.58.07,1.7-.69,1.09.32,1-.12,1.35-.92,1.74,0-.54,0-1.06-.46-1.09,0,.33.08.8-.23.87h-.93a5.28,5.28,0,0,0-.23-1.52c-.41.41-.17,1.44-.23,2.18.27,0,.66,0,.69.22-.57.29.42.66-.23.87-.07-1-1.82-1.38-.92-2.61-1.25-.11,0,.77-.69,1.09.16-.73-.39-.8-.92-.87-.17,1.08-1.52,1-1.39,2.39-1.14.17-.88.51-1.85,0,.06,1.89-1.51,2.91-1.62,5.22.56.55.49-.46,1.39-.22.16.87-.22,1.24-.23,2,.3.42,1.22-.44,1.39.43-.89.22-.91.57-1.62.22.17.66-.24.79-.23,1.31.75.27.18-.7.93-.44.31.59,0,1.64.92,1.09.32.69-.57,1.31,0,1.52,1-.83,0-1.28.93-2.39-.4,2.21.88,2.17,0,3.48.74-.33.66-1,1.16,0,.53-.94,1-2.36,2.08-1.52,0,1-1.59,1.64-.46,2.39.23-1.3.66-2.43,2.08-2.61-.23-.63-.85-1,0-1.52.07.67,2.29.44,1.16,1.52-.53.07-.26-.63-.69-.65-.12.32-.34.55-.46.87.4.09.59-.32.69,0-.23.29-.22.81-.69.87,0-.26,0-.62-.23-.65-.07.51-.37.82-.23,1.52h-.93c.12,1.28-1.29,2.26-.69,3.26a5.35,5.35,0,0,1,1.85-2.61c.19.76-.34.84-.23,1.52,1-.08.73-1.34,1.39-1.74,0,.32.56.2.93.22-.08-1.14.58-.24,1.16-.65-1.14-1.35,0-2.21-.23-3.48a2,2,0,0,1,.46,2.18c.87.17.16-1.16,1.16-.87a1.17,1.17,0,0,1-.23.87c1.31.07.56-1.8,1.39-2.18.58,0,.56.49.92.65a.64.64,0,0,0-.69.44c1.12,0,.17,1.68.69,1.31.09-.64.79-.71,1.16-1.09,0,.74.81-.05,1.16.65.05-.39-.23-1.09.46-.87.25.56-.7,1,0,1.31,0-.55.36-.68.69-.87a.6.6,0,0,0,.46.65c.4-.13,0-1,.46-1.09.67.23.77.66.46,1.31.9-.34.48.56.92.65a15.33,15.33,0,0,0,.93-1.74h.46c-.15.23-.46,1.87,0,1.31,0-.62.06-1.11.46-1.31,1.34.73,1.47,1.81,3.47,1.52a3.44,3.44,0,0,1,1.16-2c.69.49-.44,1.43.46,1.52,0-.33-.08-.8.23-.87-.36.77.78.13.69.65q-.34.34-.69.65c-.46-.45-1,0-1.16.43a1,1,0,0,1,.93.44c-.46.56.24,1-.23,1.31-.89.19-.38-1-1.39-.65,0,.79,1.17.27.23.87.28,0,.55.07.46.44.83-.4,1.65-.5.93.43,1,.31.6-.74,1.39-.65a1.35,1.35,0,0,0-.23,1.09c-.68-.52-.94,1-1.62,0-.41,1.2.23.92.46,1.52.71-.21.92-.75,1.39,0-.83.5-.18,1.11-.93,1.52a1.54,1.54,0,0,0-.46-.65c-.37.68,0,.57.23,1.31-.89-.41-.62.51-1.62,0a1.1,1.1,0,0,0,.93,1.52c.36-.37-.28-1,.46-1.31,1.15,0,1.28,1,1.62,1.74-.23,0-.28-.18-.46-.22A1.75,1.75,0,0,0,85.15,143c.42-1.12-.23-1.37.23-2.18.26,0,.36.24.46.44-.82,2.54,1.79,1.08,1.39.43.41.12,1,.11,1.16.44-.17.66.4.64.23,1.31-.94,0-.8,1-1.16,1.52-.25-1.67-2.09-.09-3-1.31.41.86.16,1,.92,1.52-.31,0-.21.38-.46.44-.74-.18-1.46-.37-1.62-1.09,0,.13,0,.26-.23.22,0,.22-.19.26-.23.43.75.2.46.71.69,1.52h-.92a16.31,16.31,0,0,0,.69,2.39,1.55,1.55,0,0,1,.46-.65c.32.41-.26,1,.93.87.09-.37-.34-.56,0-.65.23.51,1.26.27,1.62.65,0,.57-1.8.45-.92,1.09,0-.29.64-.28.69,0a.94.94,0,0,1-.46.87c0-.34,0-.76-.46-.65-.23.44-.45.88-.69,1.31a2.13,2.13,0,0,1,.23-2.18,2,2,0,0,0-1.39.44c1.08,0-.25.32,0,.87.89.55,1.09,1.51,1.85,2.61a1.53,1.53,0,0,1,.46-.65,1,1,0,0,1,.92.43c-.2.38-.77.67,0,.87.2-.32.35-.69.93-.65-.24.84.12.9-.23,1.52.87-.16.5.83,1.16.87,0-.33-.08-.8.23-.87a13.77,13.77,0,0,1,1.85.65c.1.52-.42.47-.23,1.09,1.27.12-.55-2.68.92-2.61.14.45-.29,1.43.23,1.52,0-.27.07-.52.46-.44-.76-1.08,0-1.79.46-2.83-.41-.34-.3-1.16-.69-1.52,0,.26,0,.62-.23.65.06-.86-.09-1.51-.69-1.74,0,.22-1,.44-.23.65,0-.22.41-.27.46,0-.28,1.14-1.27.52-2.08.87.61-.68-.56-1.08-.23-2.18-.78.08-1.69.49-2.08-.22,1,0,.5-1.27,1.16-1.52.4.77-.15.54-.23,1.31.58.52,1.32,0,1.62-.44a2.24,2.24,0,0,1,.23,2.39c.72-.35.93-1.59.92-2.39,1.21.21.11-.88,1.16-1.09.35.61-.08.89.23,1.74,1.63.57,1,2,2.08,3.26H93c.07.82-.31,1.9.69,1.31a1.35,1.35,0,0,0,.23,1.09c-.3,0-.32-.28-.69-.22.36,1.21.68,1.68,0,2.61a4.23,4.23,0,0,0,1.62,1.09c0-.73-.89-1.76-.23-2.39.5.49-.3,1,.46,1.31.54-.51.51-1.55,1.16-2a.9.9,0,0,1-.69,1.52v1.09c.51-.1,1.25.67,1.39.22-.79-.48.23-1.07.69-1.09-.31-.81.56-1.26,0-2.39.3,0,.32-.28.69-.22-.67,1.59,2,2.37.69,3.92-.35-.25-.57-.63-1.16-.65,0,.69.78.72.92,1.31-.21-.85,1.22-.16,1.39-.65.08-1.08,0-2.16.69-1.31a1.76,1.76,0,0,0,.23-1.31,8.55,8.55,0,0,0,1.39-.44c-.46.44-.06.58.23.87-.87-.11-1.05-.27-1.39.44.21.06.78.81.23.87-.36,0-.18-.56-.69-.44-.43.56.75,1.07,1.16,1.52.05-.17.19-.25.46-.22.4-.13,0-1,.46-1.09.28.66.8-.24,1.39,0-.15,1.44.5-.44.46.65.71.16.68-.38,1.39-.22a1,1,0,0,1,.46-1.09c.12.38,1.11-.24,1.62-.22a.6.6,0,0,0,.46.65c0-.25.37-.24.69-.22,0-.33-.08-.8.23-.87,1.06.65,2.49-.19,3.47-.65.66.5,1.15.81,1.85.22.25.67.71.67,1.16,1.52-.53.3-.87-.56-.93,0,.72.37.2,1.68.69,2,.08-.58.55-.78,1.39-.65.26-.68.11-.58-.23-1.09a1.9,1.9,0,0,0,1.62-1.09c1.12-.24,1.11,1.7,1.85,1.09-.79-.23.64-.07.23-.65-.18-1.12-1.56.07-2.08-.87q-.06-.71.69-.65a8.62,8.62,0,0,0,5.55.87c-.38.34.08.85.23,1.31-.31.53-.7-.39-.92.22.63.36-.4,1,.46,1.31a.6.6,0,0,1,.46-.65c.18.48.13,1.18.69,1.31.69-.13,4.33-.18,4.62-.65-1.41-.78-2,.09-3-.65a3.4,3.4,0,0,0,1.62-.65c-.43-.76,0-.92.23-1.52a1.23,1.23,0,0,1-.7-1.52c1.54-.5,2.2,1,.93,1.31.48.13,1.52-.27,1.62.22-.18.34-.73.33-.7.87.06.38.4.5.93.43.05-.17,0-.43.23-.43.12-.84-.41-1.06-.23-2,.6-.55,2.44-.65,2.31.65.79,0,0-.74.92-.87.57.12.49.84,1.39.65.41-1.11-.61-.87-.69-1.52,1.29-.11,2.69.41,3.24-.65-1,.08-2.73.4-2.08-.65.84.56,1.35.07,2.31.44,0-1.11-1.18-1.26-1.85-.65.5-.8-1.08-.35-.92-.87s1.85-.54,1.62.44a8.8,8.8,0,0,1,1.16-1.74c.09.52-.42.47-.23,1.09,1.21-.21,2.49-.74,1.62-1.74.21.48,2.19-.13,1.39.65a8.55,8.55,0,0,1,5.09.65c-.16.43-1.38-.14-1.16.65.16.2,1.59-.23,1.85.44,0-.34,0-.75.46-.65-.44,1,.44-.18,1.16,0,0,.48.19.69.69.65-.2-.59,1.91-.59,2.54-.22-.55.13-1.68-.27-1.85.22.58,0,.72.33.93.65-.27,0-.66,0-.69.22.52,1.34.17,1.34.69,0,.73,0,.79.56.92,1.09.59.17,1.06-.85,1.39-.22-1.16,1.14-2.94.2-3,1.31-.45-.09-.18-.84-.93-.65.06.38-.65,1.09,0,1.31.86-.66,2.32-.47,3.93-.44-1.45-.2-1.74.69-2.54,1.09,1.28,0,1.56.41,2.54,0v.65c1.41-.87.73.82,2.31-.22-.5-1.25.94-1.13,1.85-1.31-.07.44-.62.43-.69.87,1.79.11,2.54-1.56,3.47-2,1.15-.49,1.84-.13,3-.43-.69-.14.22-.46,0-.87-.79-.37-1.75.38-2.54-.22.75-.23,2.13.12,2.31-.65-.41,0-1.34.59-1.62,0a6.23,6.23,0,0,0,1.16-.65c.16-.81-.39-.93-.23-1.74-.27,0-.66,0-.69-.22.85-.25,0-2.39-.69-2.61.26,0,.36-.24.46-.44-1.35-.72-.21-2-1.39-2.39.06-.33,1-.92.46-1.09-.69.2-1.14-2.12-.92-3.48.2.38.73.64.23,1.09.71.16.28-.75,1.16-.44,0,.59-.39.44,0,.87.16.17,1.29.48,1.39,0a.64.64,0,0,1-.69-.43c1.07-.46,1.79-.07,2.77.43.59-.72-.82-1-1.39-1.31a17.22,17.22,0,0,1,2.78-.43,2.07,2.07,0,0,0-1.39-.22c.09-.37-.34-.56,0-.65,1.13.93.71-.09,1.85-.22.58.6,2.52.4,1.85,1.52,1.14-.13,1.48.49,2.31.65-.1-1.1-.85-.45-.69-1.52-2.6-.2-3.37-1.3-4.86-2.18,1.76-.13,2.44,1.9,4.16,1.09-.24-1.38-2.45-.89-3-2,.8.06,2.17,1.12,2.54.22a2.37,2.37,0,0,1-1.39-.65h.93c-1.46-3.13-2.17-6.54-5.09-8.92.28-2.51-1.87-4.62-3.47-6.09,0-3.08-2.71-3.62-2.78-6.53-1-.18-1.18-1.21-1.62-2,.45-.36.83-1.5.46-2a.72.72,0,0,0,1.16-.22,2,2,0,0,0,1.62,1.52,1.35,1.35,0,0,0-.23-1.09c1.12-.33,4.14-.69,3.47-1.31a1.14,1.14,0,0,0,.69-.22c0,1,.91-.08,1.62.22.09.31.28.37,0,.65.87-.06,2.68-.37,2.54-.65-.34-.12-1.2.25-1.16-.22.24-.15,1.95-.38,1.85-.65-1.43,0,.25-1.85,1.16-1.74.17-.67-.8-.27-.46-1.09,1.15-.11,1.23-.09,2.08-.22,0,.22-.19.26-.23.44a1.71,1.71,0,0,1,1.39,0c-.29-1.58.17.2,2.31-.44-.07.43.31.43.46.65-2.43.93-3.54,0-4.62,1.31a1.58,1.58,0,0,1,1.16.22c4.46-1.94,10.52-1.51,15.49-2.61-1.58-2.2-6.71.23-7.86-1.09,2.59-.36,5.08.33,7.4-.44-1.15-1.43-3.77-.42-5.78-.43a21.48,21.48,0,0,1-4.39-.22c3.13-.79,7.1-.27,9.71-1.09-.74-.41-1,.06-1.85-.22.46-.44.06-.58-.23-.87q.9.2.69-.65a4.86,4.86,0,0,1-3.93,0,8.17,8.17,0,0,0,3.7-.44c-.38,0,.24-.91,0-1.52a1.65,1.65,0,0,1-.69-.44c.59-1.9-2.57-2.05-4.16-2.61-.12-.56-.31-.76.23-1.09,1-.15,1.3.37,2.31.22-.46-1.09-.64-2.45-1.85-2.83.33-.06.26-.48.46-.65-1.55.06-1.1-.68-1.62-1.31-.8,0-1.78.08-1.85-.65.86-.23.66.54,1.39.44.05-.17,0-.43.23-.44-1.68-2.82-2.55-5.17-4.63-7.4-.83-.09-1.79-.05-2.08-.65.87-.2,1.32.92,1.62,0a24.59,24.59,0,0,1-3.24-.65c.27,0,.66,0,.69-.22a32,32,0,0,0-6-.65c.07-.43-.31-.43-.46-.65a23.16,23.16,0,0,0,6.71-.22q-.9.2-.69-.65a2.06,2.06,0,0,1-1.39-.22c-.36.92,1.2,0,1.16.65-2.17.16-2.52-.5-4.39-.87,1.2-.07.54-.25.92-1.09,1.26.34,3,.24,3.93.87-2.42-1.71-7.76-1.27-9.94-1.52.06.6,1.14.23,1.39.65-2.84.37-1.35-2.13-.46-2h-1.39c0,.63-.06,1.11-.46,1.31-.51-.5-.77-.35-1.39,0-.38-.43,0-.28,0-.87-.88-.32,0,1-.92.65.25-.89-.25-1.07-.69-1.31.13-.14.94-.66.23-.87-.06.51-1,.13-.93-.22.34-.12,1.2.25,1.16-.22s-.7-.36-.93-.65c1.45-.11,4.38-.48,6,.65.09-1.51,3.16.42,2.08-.65h1.62c-.53.27,1.62,1.16,1.62,0a69.68,69.68,0,0,0-13.87-.65c.12-.32.34-.55.46-.87-.44,0-.51.25-.93.22.27-.68-.36-.53-.46-.87-.17-.59.46-.44.46-.87-1.26-.55-1.43-2.29-1.62-3.26-.32.13,0,.84-.46.87-.34-.85-.36,0-.69.22-.67-.34-.72-1.22-1.16-2a3.62,3.62,0,0,0,1.62-2.39c0,.32-.08.8.23.87a10.45,10.45,0,0,0,.46-2.61h1.39c-.71.78.76.9,1.39,1.09.26-.64,1.38-.23,1.16-1.09.26,0,.36.24.46.44.18.53-1.11,1.25,0,1.31,0-.36.55-.92,1.16-1.31-1.4.22,0-.9-.69-1.31.31-.07.44-.31.92-.22-.14-.45.29-1.43-.23-1.52.22,1.24-1.38,1.11-1.16,1.74-.52-.46-1,.38-1.39.65,0-.29-.41-.2-.46-.44.47-.38.45.16.92-.22.08-1-.34-1,.69-1.74.2-.7-.76-.3-.69-.87.11-.76,1-.77,1.39-1.31-1.47-.32.73-1.66-.23-2.18,0,1-1.14,1.34-.69,2.18-1.27.11-1.17,1.51-2.31,1.74.59-1.08,2.18-2.85,1.39-3.92.17-.35,1.13,0,.93-.65-.4-.09-.59.32-.69,0-.09-.54,1-1.78.23-1.52-.13.82-.6,1.47-1.39,1.09.11,1.19-1.06,1.59-2.08,1.09.07,1.19-.71,1.22,0,2a1.55,1.55,0,0,1-.46.65c-.61-.51.61-.58,0-1.09-1,0-1.12,2.18-1.85,1.09-.44,1-1.13,2.79-2.08,2.61.2.55.3,1.17-.69,1.09.83-.73.91-3.53,2.08-2.61.2-.7-.6-.45-.69-.87.78-.63.59-2.88,2.08-2.18.15-1.18-.07-1.94.93-2.61-.6-.69,0-1.11-.23-1.52-.34.26-.36.82-.69,1.09-.57-.29.25-.81-.23-.87-.53.23.11,1.55-.46,1.74-.13-.32.27-1.12-.23-1.09-.32.35-.19,1.12-.69,1.31-.33-.05-.39-.36-.69-.43-.19.62-.37,1.25-1.39,1.09-.25.56,1,.76.23,1.09-.52-.14-1.16-.65-.69-1.09-.64-.22-.65,1.24-1.16.43.65-.28.55-1.09,1.39-.65.21-1.28-1.13-.46-1.39-.87.72-1.13-.75-1.26-.69-2.39h-1.39c-.06.38.65,1.09,0,1.31-.4-.79-1.23.6-1.85.65.41.41.68-.26,1.16.22.32-.13,0-.84.46-.87.6.72,1.11-.81,1.39.22-.75.23-.73.93-1.39.22.34,1-1,.54-1.62.65-.17,1,.46-.18.46.43-.06.31-.51.25-.69.44.18-.75-.26-.92-.46-1.31.29-.39,1.17-1.35.69-1.74-.06.24-.38.52-.46.22-.23,0,.12-1.43-.46-1.52-.27,1.34-.55,2.67-1.62,3.26a3.08,3.08,0,0,1,0-1.52c-.87.17-.16-1.16-1.16-.87-.13.32.27,1.12-.23,1.09-.56-.4-.36-.64-.92-1.31.84-.21.18-1.8,0-2.39a1.72,1.72,0,0,1-.46,1.31c.07-.5-.67-.24-.69-.65.21-.46.06-1,.46-1.74-1,1.1-1.8,0-2.54,1.52.51-1.22.13-1.44.23-2.39-1-.26-.41.92-.93,1.09h-.46c-.25-.56.7-1,0-1.31a10,10,0,0,1-.92,1.09c.16-1-.39-.5-.92-.44,0-.26,0-.62-.23-.65-.45.75-.92-.27-1.39-.22s-1,.92-.46,1.09c-.17-.35.46-.95.46-.43-.52.89-.66,2.14-1.85,2.39,0,.74.07,1.52-.46,1.74-.38,0-.13-.6-.46-.65.16,1-.47,1.3-.69,2-1.07-.75-2.07-2.42-3.47-2.18,0-.28.3-.3.23-.65-3.19-1.54-4.38-3.73-6.47-6.09-2.77-.2-5.24,1-8.09,2.39-2.36,1.17-7.74,2.15-7.63,3.92-1.7-.66-2.07,1.44-3.7,1.52v1.09c-.46.2-1.1.71-1.62.22-.35.51.08.94-.23,1.09a22.87,22.87,0,0,1-4.39,1.74c-.06,1-.25,1.8-1.62,1.52.07.86-.59,1-1.16,1.31a1,1,0,0,1,.23-.65c-1.47,2.45-5.91,4.79-6.47,8.05-1.15.29-2.79,2-1.85,2.83-1.18-.38-.32,1.15-1.16,1.09a.57.57,0,0,0,0-.87c-1,.44-1.14.41-1.85-.22-.1.52.42.47.23,1.09-.34-.11-.58-.32-.92-.44-.13.38.28,1.28-.23,1.31s.13-1-.69-.65Zm52.26-25.69c0,.71.54,1-.46,1.09.3-.86-.67-.53-.69-1.09.34-.19.73-.33.69-.87-.84.3-1,.66-.92-.65-1.26-.23-1.34.89-2.08,0,.21.79-.41,1.16,0,1.52s1.22-.44,1.39.44c-.26,0-.36.24-.46.44,1.3.36,1.5,1.7,1.85,2.39a1.54,1.54,0,0,1,.46-.65v.65c.74-.19.71.34,1.16.44,0-.94.39-1,.46-2.18-1.52.19-.56-.83-1.39-1.52Zm-3.47-2.83a.63.63,0,0,0-.69.44c-.47-.06-.45-.59-.92-.65-.22-.4,1.32-.13.46-.44.4-.71.61.57,1.39.22-.22.54.82,1.31-.23,1.31,0-.59.38-.44,0-.87Zm14.11,123.85c-.6-.59-.7.27-1.39.22-1.88.12,1.49.55,1.39-.22ZM125.86,162c.2.44,1.27.55.69,1.09-.65,0-.67-.53-.69-1.09Zm13.18-.22c.23,0,.18.27.23.44.27,0,.41,0,.46-.22.67.3-.39.77-.92.65a1.18,1.18,0,0,0,.23-.87Zm-1.16,0c.78.2.11.41.23,1.09-.48.09-.61-.15-.93-.22.23-.29.63-.43.69-.87Zm-17.58-.87H121a1,1,0,0,0,.93,1.52c-.1.49-1.14.09-1.62.22.39-.77,0-.77,0-1.74ZM113.6,160c.37-.06.4.21.69.22-.12.32-.34.55-.46.87-.78-.2-.11-.4-.23-1.09Zm-22.2-.65c.19-.37,1.67-.14,1.62.43-.59-.39-1.13.24-1.62-.43Zm3.7-.87c.86-.45,1.36,1,1.39,0,1.44,1-1.26,1-1.39,0Zm-10.64,0c.2,0,.22.08.23.22,0,.48,1,.09,1.39.22-.15.78-1.11-.06-2.08.22.08-.29.41-.34.46-.65ZM88.62,157h.93a1,1,0,0,0-.23.65h-.69V157Zm67.53-.22c-.65-.15-1,1.08-.46,1.31a7.48,7.48,0,0,1,.46-1.31Zm-34.69,0c.72-.1.74.46.69,1.09-.7.08-.48-.71-.69-1.09Zm12.72,0c1.09.22.91,1,1.85,1.52a1.27,1.27,0,0,0-1.85-1.52Zm1.62-.44c-.17-.74.85-.36.92-.87-1.15,0-1.38.33-2.08-.22-.16.6,0,.5-.69.87.34.34,1.18.19,1.85.22ZM133.26,155c-.22.84.91,1.47,0,2.61,1.16.49.27.62.92,1.09,0,.48-1,.09-1.39.22,0-.41.76-.15.69-.65a2.16,2.16,0,0,0-1.62-.44c.69-.48,1-.32,1.39-1.09a4.17,4.17,0,0,0-.93-1.31c.06-.38.4-.5.93-.44Zm-47.18-.44c1.31.05.15,1.13.69,1.74-1,.14-.62-1-.69-1.74Zm-1.62-.44c.15-.65.49.21.92,0,.22.41-.69.73,0,.87,0,.19-.09.21-.23.22h-.46c.12-.56.31-.76-.23-1.09Zm65.21-2.18c.25.05.16.43.46.43-.21.39-.94.28-.69,1.09-.64-.34,0-1.31.23-1.52Zm-8.56-2.18c.36.09.2.68.93.44-.14.19-.28.39,0,.43-.07.3-.58.18-.93.22v-1.09Zm-59.43-3c1.05.27-.41.69.23,1.52-1,.07-.24-1.16-.23-1.52Zm.69-1.52c.14.66-1.46.54,0,.65,0,.47-.82.1-1.16.22v-.65c.56.09.5-.4,1.16-.22Zm.46-3.48a1.13,1.13,0,0,0,.69.22c-.43.42.14.39,0,1.09-.78.08-.39-.94-.69-1.31Zm85.56-1.52c.62-.43,1.84.43,2.54.65-.1.71-2.22-.16-2.54-.65Zm-104.76-25c-.55.36-1.22.59-.93,1.74-.76-.37-1.15,0-1.62.44a2.08,2.08,0,0,1,2.54-2.18Zm98.28-2.39a1.17,1.17,0,0,0-.23.87c-.71.16-.84-.22-1.39-.22a4.74,4.74,0,0,1,1.62-.65Zm-90,0a1.35,1.35,0,0,1-.23,1.09h.46c.14,0,.27,0,.23-.22-.67-.12.35-.34.23-.65-.14,0-.27,0-.23-.22Zm-8.09,0c.3.08.36.38.69.44.1.61-1.26-.17-1.16.43-.81-.37.58-.44.46-.87Zm6.24-.65c-.46,0-.29-.59-.92-.44.44.54-.35.89.23,1.31.07-.44.46-.58.69-.87Zm98.75-2.83c.06.51.86,0,.93-.22.7.53-.75.88-1.39.87,0-.25-.05-.39-.23-.43,0-.48.58-.47,1.16-.44,0,.21-.28.17-.46.22Zm.23-2.83c-1.18-.08-.55,2,.23,1.31-.22-.18-.15-.54-.23-1.31Zm-2.78-.22c-.68.27-2.15-.33-2.77.44,1.13,0,2.53.66,2.77-.44Zm-107.76-3.7c.76,0,.88.62.92,1.31-.66-.11-.66-.83-.92-1.31Zm2.31-10c0,.18-.23.22-.23.44s.41-.19.46.22v.43a1.52,1.52,0,0,0-1.16,0c.21-.46,0-1.3.92-1.09Zm-2.31-.22c.87-.16.16,1.16,1.16.87-.32.35-.82.54-.69,1.31-.19.23-.75-1.92-.46-2.18ZM170,73.37h.69v.87c-.77.22-.76-.3-.69-.87ZM58.56,72.93c.81-.16,1,.57.69.87-.61.07-.76-.3-.69-.87Zm2.54-1.74c-.86.64,1.12,1.63-.46,1.74.54-.15-.68-1.74.46-1.74Zm98.05-4.79c1,.62-.29,1.57-.46,2.4-1.34-.75.95-1.08.46-2.4Zm-.69-3.7h.69c0,.69-.62.73-.46,1.52-.52-.09-.09-1.07-.23-1.52ZM86.08,61.61a.85.85,0,0,1,.46,1.52c-.25-.44-.1-.81-.46-1.52ZM85.85,61c-.2.77,0,.54-.23,1.31-.24-.14-.24-.5-.69-.44a.84.84,0,0,1,.92-.87ZM80.3,56.82c.68.31-.28.88-.93.65-.37-.86,1-.08.93-.65Zm79.78-1.31c.75.38-.6.57-.23,1.31-.46.82.06-1-.46-.87.07-.76.62,0,.69-.44Zm-3.24,0c-.26-.26-.66-.39-.46-1.09h.69c.09,1.32-.06,2.41-1.16,2.61.09-.37-.18-.41-.46-.43a1.17,1.17,0,0,0,.23-.87c.57.76.36.6,1.16-.22Zm-12.72-7.18c.05.41-.26.48-.23.87.85.46,1-1.11.23-.87Zm-6-.65c.36.38.31,1.16.46,1.74-.72,0-.39-1.08-.46-1.74Zm5.78-.65c-1-.07-1.21.6-1.39,1.31.75.27.18-.7.93-.44,0,.27.07.52.46.44V47Zm-7.17-.22c.8.32.29,1.16.23,1.52-.56-.5-.28-.77-.23-1.52Zm7.4-1.31c-.4.72.12,1,0,2,1.24-.21-.16-1,.69-2Zm-1.62-2c.69.6-.7,1.21,0,2-1.08-.34-.77.18-1.85.22.71-.85.67-2.21,1.85-2.18Zm-21-1.74h1.16c-.37.45-1.24.43-1.16,1.31-.8-.12-.13-.84,0-1.31Zm17.81-.87c-.23.58-1,.69-1.62.87.51-.31.52-1.11,1.62-.87Zm.46-.22c.92-.07.08,1.52,1.39,1.09-.16.18-.36.6,0,.65-.5.18-.51.82-1.16.87-.11-.69.71-.49.46-1.31-1,.8-.26-.45-1.39,0,.21-.46.7-.64.69-1.31Zm-1.62-1.09c0-.47.82-.1,1.16-.22a1.76,1.76,0,0,1-.23,1.31C138.29,40.77,138.5,39.92,138.11,39.63Z"/><path class="cls-3" d="M143.08,124.08a1.42,1.42,0,0,0-.5-.91L122.7,106.73a1.42,1.42,0,0,0-1.81,0L101,123.16a1.42,1.42,0,0,0-.5.91h0l20.4,16.85a1.42,1.42,0,0,0,1.81,0l20.4-16.85Z"/><polygon class="cls-3" points="133.26 138.87 132.08 138.55 103.89 130.98 102.7 130.66 103.02 129.48 107.96 111.08 108.28 109.89 109.46 110.21 137.65 117.78 138.84 118.1 138.52 119.29 133.58 137.68 133.26 138.87"/><rect class="cls-4" x="111.24" y="109.79" width="19.05" height="29.19" transform="translate(-30.68 208.77) rotate(-74.97)"/><path class="cls-5" d="M121.5,132.28c.36.3.54.58.47.81-.13.43-1.08.54-2.37.36v-6a33.62,33.62,0,0,0,5.18,1.12,9.34,9.34,0,0,0,1.4.07,7.62,7.62,0,0,1-4.68,3.62Zm-1.9-5.89h0a33,33,0,0,0,5.23,1.16,5.92,5.92,0,0,0,1.85.09h0c.16-.33.32-.68.48-1.05l0-.11a9.23,9.23,0,0,1-1.6-.07,35.45,35.45,0,0,1-5.65-1.24l-.41-.13v1.33Zm0-2.46v-9.7l.29.08a.43.43,0,0,0,.29.36l.13-.25,5.36,1.45q0,.22,0,.42c.14,0,.31,0,.51-.29l1.1.3a3.32,3.32,0,0,0-.74,1.27,7.3,7.3,0,0,0-.34,1.44c.15.34.32.69.51,1s.14.33.26.58a8,8,0,0,1,.76,2.83,4.55,4.55,0,0,0,1.89-1.11,8.55,8.55,0,0,0,2-3.19l0-.13a3.59,3.59,0,0,0,.12-1.51l1,.28a5.43,5.43,0,0,1-.22,1.51l-.05.17a11,11,0,0,1-2.14,3.65,8.54,8.54,0,0,1-2.71,2.09q0,.15-.06.3a12.85,12.85,0,0,1-1.8-.14,34.41,34.41,0,0,1-5.45-1.21Zm0,9.53a13.09,13.09,0,0,1-1.9-.42c-2.18-.65-3.79-1.67-3.61-2.29.06-.21.34-.35.76-.41a7.4,7.4,0,0,1-1.93-5.63,9.24,9.24,0,0,0,1.23.72,34.14,34.14,0,0,0,5.2,2l.25.07v6Zm0-19.23v9.7a32.59,32.59,0,0,1-4.5-1.75,12.65,12.65,0,0,1-1.58-.87l.1-.26a8.46,8.46,0,0,1-1.15-3.26,11,11,0,0,1,.2-4.23l0-.17a6,6,0,0,1,.38-.93l1,.27a3.88,3.88,0,0,0-.43.94l0,.13a8.56,8.56,0,0,0-.11,3.74,4.54,4.54,0,0,0,1,2,7.81,7.81,0,0,1,2.2-2l.65-.38c.28-.16.55-.32.81-.49a7.2,7.2,0,0,0,.54-1.46,3.25,3.25,0,0,0,.11-1.23l.79.21Zm0,10.83a34.52,34.52,0,0,1-5-1.92,9.19,9.19,0,0,1-1.38-.82l0,.13c-.07.39-.13.76-.17,1.12h0a5.94,5.94,0,0,0,1.6.93,32.92,32.92,0,0,0,5,1.87Z"/><polygon class="cls-3" points="140.97 146.62 139.65 146.62 103.77 146.62 102.46 146.62 102.46 145.3 102.46 124.91 102.46 123.6 103.77 123.6 139.65 123.6 140.97 123.6 140.97 124.91 140.97 145.3 140.97 146.62"/><rect class="cls-4" x="103.77" y="124.91" width="35.88" height="20.39"/><path class="cls-5" d="M128,140.86v-1c.15-.12.29-.23.41-.35l.08-.08a2.61,2.61,0,0,0,.83-1.65,2,2,0,0,0-.59-1.53,2,2,0,0,0-.74-.49v-.9a2.91,2.91,0,0,1,1.35.79,2.84,2.84,0,0,1,.82,2.18A3.46,3.46,0,0,1,129,140l-.1.1a7.32,7.32,0,0,1-.95.73Zm0-8.19v-2a13.15,13.15,0,0,0,1.32,1.1,2,2,0,0,0,1.27.51.37.37,0,0,1-.1.21.43.43,0,0,1-.33.1,3.85,3.85,0,0,0-2.15.11Zm0-2.78a13.84,13.84,0,0,0,1.63,1.41,2.7,2.7,0,0,0,.77.47,2.7,2.7,0,0,0-.44-.78,14.82,14.82,0,0,0-1.65-2l-.3-.31ZM117,141.22a25.8,25.8,0,0,0,2.71,2.35,7.66,7.66,0,0,0,1,.61,6.33,6.33,0,0,1-3.69.89v-3.85ZM128,128.68v1.21l-.3-.31a14.86,14.86,0,0,1-1.65-2,2.7,2.7,0,0,1-.44-.78,2.69,2.69,0,0,1,.77.47,13.84,13.84,0,0,1,1.63,1.41Zm0,1.95c-.23-.21-.46-.44-.69-.68a15.31,15.31,0,0,1-1.71-2.07,2,2,0,0,1-.47-1.28.37.37,0,0,0-.21.1.35.35,0,0,0-.09.15c-.19.37.47,1.58-.51,2.74a8.33,8.33,0,0,1-2.24,2.16c-.1-.1-.14-.27,0-.6a3.19,3.19,0,0,0,.33-1.27,3,3,0,0,0-.82-2.21,2.84,2.84,0,0,0-2.16-.89,3.46,3.46,0,0,0-2.21,1.05l-.1.1-.1.1v1.28a6.17,6.17,0,0,1,.68-.83l.08-.08a2.61,2.61,0,0,1,1.68-.77,2,2,0,0,1,1.51.63,2.11,2.11,0,0,1,.58,1.57,2.71,2.71,0,0,1-.79,1.72,5.89,5.89,0,0,1-1,.83l-.78,0h-.62a6.43,6.43,0,0,0-1.37.19v4.55c.4.46.84.94,1.31,1.42a28.22,28.22,0,0,0,3.41,3.06,10.66,10.66,0,0,0,1.23.82l.16-.19a7,7,0,0,0,2.78-.4,9.36,9.36,0,0,0,2.05-1v-1a7.13,7.13,0,0,1-2.27,1.15,3.73,3.73,0,0,1-1.81,0,6.56,6.56,0,0,0,.6-2.33c0-.23,0-.3,0-.52s0-.65.06-1a6,6,0,0,1,.82-.89,2.71,2.71,0,0,1,1.74-.74,2.19,2.19,0,0,1,.81.14v-.9a3.09,3.09,0,0,0-.83-.1,3.19,3.19,0,0,0-1.28.28c-.3.14-.47.12-.57,0a8.34,8.34,0,0,1,2.23-2.16,2.4,2.4,0,0,1,.44-.28v-2ZM117,140a26.89,26.89,0,0,0,3.2,2.85,4.85,4.85,0,0,0,1.28.81h0q.37-.25.77-.56l.08-.06a7.57,7.57,0,0,1-1.12-.69,29.19,29.19,0,0,1-3.55-3.17l-.67-.71Zm-1.12,4.87c.14.36.15.63,0,.77-.38.37-1.74-.42-3-1.76s-2-2.72-1.66-3.09c.13-.13.38-.12.71,0a6.08,6.08,0,0,1,.89-4.8,7.56,7.56,0,0,0,.59,1,28,28,0,0,0,2.93,3.5l.69.7v3.85a7.19,7.19,0,0,1-1.12-.18ZM117,128a9.16,9.16,0,0,0-1.75,2.84,7,7,0,0,0-.49,2.79l-.18.14a10.44,10.44,0,0,0,.78,1.26,23.12,23.12,0,0,0,1.64,2.09v-4.55a6.36,6.36,0,0,0-1,.34,3.72,3.72,0,0,1,.09-1.82,7,7,0,0,1,.91-1.81V128Zm0,10.45a26.93,26.93,0,0,1-2.38-2.93,7.57,7.57,0,0,1-.66-1.14l-.07.08q-.31.38-.58.73h0a4.84,4.84,0,0,0,.77,1.31,27.09,27.09,0,0,0,2.83,3.37l.08.08Z"/><path class="cls-6" d="M143.08,124.08,122.7,140.93a1.42,1.42,0,0,1-1.81,0l-20.39-16.84a1.35,1.35,0,0,0,0,.17v23.31a1.42,1.42,0,0,0,1.42,1.42h39.76a1.42,1.42,0,0,0,1.42-1.42V124.26a1.35,1.35,0,0,0,0-.17Zm-42.55-.13h0s0,.08,0,.13h0S100.52,124,100.53,123.95Z"/><path class="cls-3" d="M104.5,146.55l13.49-8-1.51-1.25-12,9.27Zm22.61-9.27h0l-1.51,1.25,13.5,8Z"/><polygon class="cls-3" points="156.19 100.39 153.84 100.39 89.52 100.39 87.17 100.39 87.17 98.04 87.17 61.49 87.17 59.13 89.52 59.13 153.84 59.13 156.19 59.13 156.19 61.49 156.19 98.04 156.19 100.39"/><rect class="cls-4" x="89.52" y="61.49" width="64.32" height="36.55"/><path class="cls-5" d="M129.93,88l.27-.08q-.12.46-.27.88V88Zm0-1.26V85.19q.43-.11.78-.24v.14q-.08.74-.2,1.41h0s-.2.12-.56.21Zm0-2.85V80.68q.12.26.22.53a5.6,5.6,0,0,0,1.84-2,10.52,10.52,0,0,0,1.18-4.45c0-.06,0-.12,0-.17a3.91,3.91,0,0,0-.92-2.61A3,3,0,0,0,130,71h-.08V69.74H130a4.25,4.25,0,0,1,3.21,1.39,5.18,5.18,0,0,1,1.16,3.47c0,.07,0,.14,0,.21a13.56,13.56,0,0,1-1.24,5.05,10.5,10.5,0,0,1-2.46,3.41q0,.18,0,.37A6.1,6.1,0,0,1,129.93,83.87Zm-4,9.93c.53.23.84.5.84.79,0,.79-2.27,1.43-5.06,1.43V88.79a42,42,0,0,0,6.8-.49,12.31,12.31,0,0,0,1.41-.32v.79a9.2,9.2,0,0,1-4,5Zm4-24.06V71a3.16,3.16,0,0,0-2.22,1,4.06,4.06,0,0,0-1,2.64,9,9,0,0,0,.1,1.81c.3.35.62.7,1,1.06s.28.34.51.59a9.84,9.84,0,0,1,1.66,2.54v3.18l-1.38.26a42.21,42.21,0,0,1-6.82.49V66a23,23,0,0,0,4-.31,2.94,2.94,0,0,0,1.87-.83.56.56,0,0,1,.12.33.65.65,0,0,1-.23.46c-.5.54-2.08,1.2-2.28,3.19a12.49,12.49,0,0,0,0,4.65c.19,0,.39-.18.55-.65a4.79,4.79,0,0,1,1-1.67,4.44,4.44,0,0,1,3.15-1.42Zm0,15.45v1.53c-.38.09-1,.21-1.66.33a40.55,40.55,0,0,1-6.55.47V85.95a43.65,43.65,0,0,0,7.08-.51c.41-.07.78-.15,1.13-.24Zm-8.21-20a22.21,22.21,0,0,0,3.86-.3,4,4,0,0,0,1.3-.34,4,4,0,0,0-1.3-.34,22.19,22.19,0,0,0-3.86-.3Zm0,30.84c-2.79,0-5.06-.64-5.06-1.43,0-.28.27-.53.75-.75a8.89,8.89,0,0,1-4-5.1V88a12.14,12.14,0,0,0,1.45.34,42,42,0,0,0,6.82.49h0V96Zm0-32.11v1.27a22.21,22.21,0,0,1-3.86-.3,4,4,0,0,1-1.3-.34,4,4,0,0,1,1.3-.34,22.2,22.2,0,0,1,3.86-.3Zm0,2.07a23,23,0,0,1-4-.31,2.94,2.94,0,0,1-1.87-.83.56.56,0,0,0-.12.33.52.52,0,0,0,.07.25c.2.59,2.19,1.15,2.42,3.4a12.48,12.48,0,0,1,0,4.66c-.21,0-.44-.13-.62-.66a4.79,4.79,0,0,0-1-1.67,4.44,4.44,0,0,0-3.15-1.42V71a3.16,3.16,0,0,1,2.22,1,4.06,4.06,0,0,1,1,2.64,8.84,8.84,0,0,1-.12,1.91c-.25.29-.51.57-.79.86l-.63.68a9.65,9.65,0,0,0-1.71,2.61v3.11c.37.08.86.17,1.43.27a42.28,42.28,0,0,0,6.85.49h0V66Zm0,20v1.57h0a40.63,40.63,0,0,1-6.58-.47c-.73-.13-1.32-.24-1.7-.34V85.18c.36.09.75.18,1.17.25a43.72,43.72,0,0,0,7.1.51Zm-8.3,2.8q-.14-.41-.25-.87l.25.08v.78Zm0-19V71h-.08a3,3,0,0,0-2.26,1,3.91,3.91,0,0,0-.92,2.61c0,.05,0,.11,0,.17a10.52,10.52,0,0,0,1.18,4.45,5.58,5.58,0,0,0,1.87,2q.09-.24.2-.48v3.11a5.72,5.72,0,0,1-.75-.2q0-.17,0-.34a10.41,10.41,0,0,1-2.49-3.44A13.56,13.56,0,0,1,109,74.82c0-.07,0-.14,0-.21a5.18,5.18,0,0,1,1.16-3.47,4.25,4.25,0,0,1,3.21-1.39Zm0,15.44v1.53c-.33-.08-.51-.15-.51-.2h0q-.11-.66-.19-1.39l0-.17Q113,85.07,113.43,85.18Z"/><rect class="cls-7" x="157.73" y="112.26" width="18.73" height="4.84" transform="translate(-34.73 133.1) rotate(-39.68)"/><polygon class="cls-8" points="185.79 120.49 176.65 109.9 160.63 123.19 169.77 133.78 185.79 120.49"/><path class="cls-9" d="M156.19,78c3.89,1.87,8.74,4.38,10.44,6.43,2.8,3.38-.12,17.79,1.89,20.68a6,6,0,0,0,.38.49l2.2,2.65L160,117.43l-3.6-4.34a16.6,16.6,0,0,1-4-3.51c-4-4.82-6.1-16.55-8.41-19.34-1.61-1.94-3.18-3.57-4.09-4.67s-3-3.89-.87-5.69,5.22.36,6.34,1.72,2.64,3.95,4.95,6.74,4.54,3.83,5.72,2.25a2.45,2.45,0,0,0,.12-2.64Z"/><path class="cls-5" d="M140.09,79.32a2.93,2.93,0,0,0-1,.55c-2.16,1.79,0,4.59.87,5.69s2.47,2.73,4.09,4.67c2.31,2.79,4.42,14.52,8.41,19.34a16.6,16.6,0,0,0,4,3.51l3.6,4.34,5.19-4.3-3.4-4.09a5.83,5.83,0,0,1-7.63-.88c-4-4.82-6.1-16.55-8.41-19.34-1.61-1.94-3.18-3.57-4.09-4.67-.77-.93-2.41-3.09-1.57-4.81Zm16.11,8.62v-2c1,1.34,1.3,2.61.51,3.68a2.15,2.15,0,0,1-.27.3A2.73,2.73,0,0,0,156.19,87.94Z"/><path class="cls-5" d="M139.07,79.88a3,3,0,0,0-.32.31c2.13-1.3,4.92.7,6,2s2.64,3.95,4.95,6.74,4.52,3.82,5.7,2.27c-1.25.58-3.1-.53-5-2.84-2.31-2.79-3.83-5.39-4.95-6.74s-4.17-3.52-6.34-1.72Zm17.12-1c3.76,1.83,8.15,4.17,9.75,6.1,2.12,2.56,1,11.41,1.15,16.84h0c-.22,2.31-1,3.63-1.48,4.06l3.4,4.09,2.09-1.73-2.2-2.65a6,6,0,0,1-.38-.49c-2-2.9.91-17.3-1.89-20.68-1.7-2.05-6.55-4.56-10.44-6.43Z"/><path class="cls-10" d="M142.3,80.24l1.61,1.94a2.36,2.36,0,0,1-3.31,2.74L139,83a2.17,2.17,0,0,1,3.31-2.74Z"/><rect class="cls-11" x="158.02" y="111.97" width="14.43" height="0.96" transform="translate(-33.74 131.38) rotate(-39.67)"/><path class="cls-12" d="M139.9,79.91c-.29,1.6,1.07,3.39,1.76,4.22.22.27.48.57.77.9a1.84,1.84,0,0,1-1.83-.12L139,83a2.1,2.1,0,0,1,.48-2.79A2.21,2.21,0,0,1,139.9,79.91Z"/><rect class="cls-7" x="74.07" y="105.32" width="4.84" height="18.73" transform="translate(-60.61 100.33) rotate(-50.33)"/><polygon class="cls-8" points="57.79 120.49 66.93 109.9 82.95 123.19 73.81 133.78 57.79 120.49"/><path class="cls-9" d="M87.39,78C83.5,79.83,78.65,82.33,77,84.39c-2.8,3.38.12,17.79-1.89,20.68a6.11,6.11,0,0,1-.38.49l-2.2,2.65,11.11,9.22,3.6-4.34a16.6,16.6,0,0,0,4-3.51c4-4.82,6.1-16.55,8.41-19.34,1.61-1.94,3.18-3.57,4.09-4.67s3-3.89.87-5.69-5.22.36-6.34,1.72-2.64,3.95-4.95,6.74-4.54,3.83-5.72,2.25a2.45,2.45,0,0,1-.12-2.64Z"/><path class="cls-5" d="M103.5,79.32a2.93,2.93,0,0,1,1,.55c2.16,1.79,0,4.59-.87,5.69s-2.47,2.73-4.09,4.67c-2.31,2.79-4.42,14.52-8.41,19.34a16.6,16.6,0,0,1-4,3.51l-3.6,4.34-5.19-4.3L81.8,109a5.83,5.83,0,0,0,7.63-.88c4-4.82,6.1-16.55,8.41-19.34,1.61-1.94,3.18-3.57,4.09-4.67.77-.93,2.41-3.09,1.57-4.81ZM87.39,87.94v-2c-1,1.34-1.3,2.61-.51,3.68a2.14,2.14,0,0,0,.27.3A2.73,2.73,0,0,1,87.39,87.94Z"/><path class="cls-5" d="M104.52,79.88a3,3,0,0,1,.32.31c-2.13-1.3-4.92.7-6,2s-2.64,3.95-4.95,6.74-4.52,3.82-5.7,2.27c1.25.58,3.1-.53,5-2.84,2.31-2.79,3.83-5.39,4.95-6.74s4.17-3.52,6.34-1.72Zm-17.12-1C83.63,80.69,79.24,83,77.64,85c-2.12,2.56-1,11.41-1.15,16.84h0c.22,2.31,1,3.63,1.48,4.06l-3.4,4.09-2.09-1.73,2.2-2.65a6.11,6.11,0,0,0,.38-.49c2-2.9-.91-17.3,1.89-20.68,1.7-2.05,6.55-4.56,10.44-6.43Z"/><path class="cls-10" d="M101.28,80.24l-1.61,1.94A2.36,2.36,0,0,0,103,84.92L104.59,83a2.17,2.17,0,0,0-3.31-2.74Z"/><rect class="cls-11" x="77.87" y="105.24" width="0.96" height="14.43" transform="translate(-58.23 100.97) rotate(-50.33)"/><path class="cls-12" d="M103.69,79.91c.29,1.6-1.07,3.39-1.76,4.22-.22.27-.48.57-.77.9a1.84,1.84,0,0,0,1.83-.12L104.59,83a2.1,2.1,0,0,0-.48-2.79A2.2,2.2,0,0,0,103.69,79.91Z"/><path class="cls-8" d="M3.94,2.74Q2,3.14,0,3.57l.44,2q1.94-.43,3.89-.82l-.39-2ZM90.71,39.13l.66-15.22a12.75,12.75,0,0,1-11.22,4.24l10.56,11ZM86.24,26,84.5,27a29.4,29.4,0,0,0-2.08-3.3l1.63-1.16A38.18,38.18,0,0,1,86.24,26Zm-6.05-8.23c-.93-1-1.9-1.95-2.92-2.86l-1.32,1.5c1,.87,1.9,1.78,2.79,2.73l1.45-1.37Zm-7.75-6.63c-1.13-.77-2.27-1.48-3.45-2.17l-1,1.73c1.14.66,2.24,1.35,3.32,2.09l1.12-1.66ZM63.54,6.2c-1.24-.55-2.5-1-3.77-1.51l-.68,1.88C60.32,7,61.54,7.5,62.74,8l.8-1.83ZM54,2.87c-1.31-.35-2.62-.66-3.94-.94l-.41,2c1.29.28,2.56.58,3.84.92L54,2.87ZM44,.89C42.7.71,41.37.56,40,.43l-.18,2c1.32.12,2.62.27,3.93.45l.26-2ZM34,.06Q32,0,29.94,0V2q2,0,4,.06l.06-2ZM23.89.18q-2,.11-4,.28l.17,2q2-.17,4-.28l-.11-2Zm-10,.93c-1.33.17-2.66.36-4,.57l.32,2c1.31-.21,2.62-.39,3.93-.57Z"/></g></g></g></svg>