<svg xmlns="http://www.w3.org/2000/svg" viewBox="0 0 188.97 110.26"><defs><style>.cls-1{fill:#f4f3f0;}.cls-1,.cls-11,.cls-2,.cls-5,.cls-6,.cls-7,.cls-8{fill-rule:evenodd;}.cls-2{fill:#9099a0;}.cls-3,.cls-8{fill:#fff;}.cls-4,.cls-7{fill:#b2b2b2;}.cls-5,.cls-9{fill:#29590a;}.cls-6{fill:#d7d8d9;}.cls-10,.cls-11{fill:#545d63;}</style></defs><title>Ресурс 6</title><g id="Слой_2" data-name="Слой 2"><g id="description"><path class="cls-1" d="M159.18,2.54c.42.56,0,1.15-.19,2.05-.21-.94-1.93-.28-2.32-1,.3-.45.95-.28,1.93,0,.5,0,.31-.76.58-1Zm15.67,49.89a1.2,1.2,0,0,0-.19.82c-1-.52-1.62-.19-2.9-.21.75-.79,2.17-1.68,3.09-.62Zm2.9-14.78a4.05,4.05,0,0,0-.19,1.64c-.27,0-.55,0-.58.21-.55-.49.19-1.16-.19-1.64a1.2,1.2,0,0,1,1-.21ZM156.28,16.29c.1-.32.2,0,.19.21.16.31.62.3,1,.41-.32.41,0,.26,0,.82-.28.11-1-.24-1,.21-.35-.51,0-.79-.19-1.64Zm2.51-.41c1-.27.82.63,1.55.62-.48.17-.41.94-1.16.82.08.32.61.18.39.82a1.29,1.29,0,0,0-1.16,0c.48-.84-.35-.82-.19-1.85.39.07.61,0,.58-.41ZM104.06,3.77a4,4,0,0,1,.19,2.87c-.61.1-.51-.55-1-.62.14-.87.6-1.41.77-2.26ZM101,4.59c.51.35-.27,1.06,0,1.85-1,.09.15.36,0,.82-.76-.37-.83-.21-1.55-.62-.29.09.08.26,0,.62C98.65,6.76,98.65,6,99,4.79c.63.15.84.75.77,1.64.91-.06.5-1.52,1.16-1.85Zm47.19,104.91c1.2.8,2.12-.15,3.48.62,0-.51.24-.35.19,0-.94.44-2.29-.25-3.67,0,0-.17.19-.21.19-.41-.16,0-.19.2-.39.2-.37-.18.21-.12.19-.41Zm7.16-5.75c.13.62.89.57.77,1.44-.53-.19-.68-.78-.77-1.44ZM97.29,99v-.41c.27,0,.55,0,.58-.21.54.53-.68.92.39,1.23a.92.92,0,0,1-1,.41c.14-.6.65-.6,0-1Zm41.78-1.23c.49.34,0,1.35-.39,1.44-.22-.05.46-.86.39-1.44Zm33.46-2.87c0-.4.75.36.77-.41-.23-.06-.73-.83-1-.21.6-.06-.49.59.19.62Zm-2.71-.41c-.08-.34.72,0,.77.2a1.46,1.46,0,0,0,.39-.62c0-.24-.35-.17-.58-.21-.14-.56.38-.41.39-.82.07.22.85.86.77,0,1,1.34,2.91-.2,4.26,0,.54.45-.82.63-.58,1.44.13.61.41-.2.77,0a1.84,1.84,0,0,0-.19,1.23c-1-.29-.61-.17-.39.62a2.65,2.65,0,0,0-1.93.2c-.48-.08,0-.8.39-.62a1,1,0,0,1-.19-.61c-1.25.77-2.66-.83-3.29-.21-.45.06-.21-.59-.58-.62Zm-.19-.41c-.24,0-.46.06-.39.41.66.15.25-.83,1-.62,0-.31.07-.76-.19-.82.19.77-.95.45-.39,1Zm6.77-4.31c-.8-.09-.73.74-1.35.82-1.11-1.06-2,.46-2.51-.62,0,.39-.22.45-.19.82.37.36,1.28.15,1.93.21a.59.59,0,0,0,0,.82c-.62-.18-.73.18-1,.41-.8.1-.23-1-.58-.62-.14.87-.64.47-1,0v1.23c1.45.53,3.11-.17,4.45-.41,0-.62.41-.8.58-1.23-.85.15.16-.41-.39-.41-.44.42-.73,1-1.55,1-.1-1,.77-1.1,1-1.23-.15,0-.23-.17-.19-.41.44.06.73,0,.77-.41Zm0-1c.44.41-.67.92-1,1.23-.44-.42.84-.74,1-1.23ZM81.82,86.09a.54.54,0,0,0-.58-.41c.17-.43,1.09-.07,1.16-.62.26.06.16.51.19.82H83c.65-.44-.25-.94-.19-1.44.8-.06.75.27,1.35,0-.36.37.16.52,0,1.23-.16.18-.53.12-.58.41.06.76.82.77,1.16,1.23-.67.63-1.26-.57-1.55-1-.67.3-.91-.23-1.35.21-.28-.09,0-.18,0-.41Zm85.87-1.44c-.16,0-.18.08-.19.21-.43-.39.21-.56.19-1.44.57.36-.07,1.22.19,1.64-.19,0-.15-.25-.19-.41ZM86.85,82.81c-.9.07-.59.81-1.55.41-.36.66.36,1.19-.77,1,0,.31-.07.76.19.82.12-.57,1,.77,1.16.2-.48-.08,0-.8.39-.62-.11.12-.45,1,0,1,0-.16.16-.24.39-.21,0-.82,0-.84.58-.62.11-1.25.13-.92.58-.62.29,0,.18-.5.19-.82.75.19.8-.8,1.35-.21.19-.42.39-.81.58-1.23-.55.17-.5-.29-1-.2-.22.65.3.5.39.82-.85,0-1.92,1-2.32.21a1,1,0,0,1-.39,1c0-.27-.34-.19-.39-.41-.06-.47.56-.23.58-.62ZM187.42,57.55c-.88.08-.49-.85,0-1.44.45.39.82.85,1.55.41-.32.41,0,.26,0,.82a4.39,4.39,0,0,0-2.13,1c-.42-.14.37-.68.58-.82Zm-16.83-2.67c.52-.55,1.32-.36,2.32-.21a9.37,9.37,0,0,1-2.32.21Zm-3.87,0c1.33,0,1.46-1.19,2.9-1,0,.24-.35.17-.58.21s-.49.36-.19.41c-.55.3-1.17.54-1.74.82.85.51,1.06-.2,1.93-.41-.2,1.45-1.66.52-2.52,1-.46-.12.58-.32.19-1Zm17.6-1.23c0,.4-.75-.36-.77.41.37.28.86,0,1.55-.21a4.92,4.92,0,0,1-2.9,1c.17-.2,1.44-.82.39-1,.86-.25,1.25-1,2.32-1,0,.6-1.16.06-.58.82Zm-8.51-3.08c.63,0,1.93-.4,1.55-.82-.08.35-.25,0-.58,0,0,.16,0,.41-.19.41-1.38-1.42-2.2.15-3.29,1-.29-.11-.49-.3-.77-.41.23,1.21-1.51.32-1.35,1.44,1.24.09,1.77-.59,2.71-.82-.11,0-.22-.17,0-.21.15.39.58.14.19.62.46,0,.57-.35,1.16-.2,0,.3-.82.65,0,.62.57-.17-.12-.66,0-1,.69.32.12-.7.58-.62Zm6.77-2.87c1.07.8-1,1.62-1.74,1.85.47-.84,2-.85,1.74-1.85Zm3.09,1.85c.23-.3.17-.92.77-.82-.47.46-.07.9-.39,1.23s-.08,0,0-.21-.24-.16-.39-.2Zm1.16-2.26a1.51,1.51,0,0,0-1.35,1.64c.45-.38.57-1.16,1.35-1.64ZM85.3,40.72c.4-.73.16.9.77.62-.07.27-.34.32-.39.62-.46.08.11-.93-.58-.62-.07-.35.15-.39.39-.41,0-.17-.08-.19-.19-.2ZM182,39.08c.51.48-.53,1.07-.58,1.64-.33-.29.34-1.27.58-1.64Zm-2.32.41c-.81.53-.8-.17-1.35-.41.23,1-.89.56-.58,1.64,1.39,0,1.13-.54,1.93-1.23ZM86.46,34.56c-.19,0-.15.25-.19.41-.68-.09-.82-.43-.58-1,.19.35.61.45,1,.62,0,.23-.19.11-.19,0Zm-1.35-5.75c.52.27.33,1.3.77,1.64-.48.49-.82-.9-.77-1.64Zm86.65-6.57c.08-.3.25.08.58,0-.28.48-.41.38-.19,1-.94.2.07-1.15-.39-1ZM91.68,20c-.22.79-.75-.79-1,0-.26-.06-.16-.51-.19-.82.71.29.87-.12,1.35.41-.09.21-1-.08-.19.41Zm66.53-1.44c.47.39.42,1.33,1,1.64.2-1-.61-.65-.19-1.44-.26,0-.72-.69-.77-.21Zm-5,0c-.49-.21.15-.91.58-.82-.08.43.13.54.19.82,0,.62-.72-1.25-.77,0Zm13.54-1.64c.16.05-.41,1.06-.77,1.23-.21-1.08.57-1.12.77-1.23Zm-75-1.23c.21-.18.06,1.39,0,1.85-.6,0-.33-1-.39-1.64.23,0,.34,0,.39-.21ZM158,15.47c-.05.32-.42.14-.58,0,.3.73-.66.12-.58.62.79.36,1.69-.89,1.16-.62ZM86.26,18.75c-.08.49.35.45.19,1,.38,0,.25-.56.77-.41A23.91,23.91,0,0,0,87,16.91c.47-.68,1,.26,1.35.41a14.81,14.81,0,0,1,0-4.52c.48,1.48.1,3.25.39,4.11a1.48,1.48,0,0,0,.39-.62c.36.78.94,2.75.39,2.46-.09.44.28.39.58.41a1,1,0,0,1-.58.62c.57.13.82,1.29.39,1.85-.4-.12-.62-.43-1-.62a7,7,0,0,0,0-3.9c-.47.71-.19,2.05-1.16,2.87-.18-.59-.64-.14-.77-.41-.42,0-.09.73-.19,1-.41.1-.37-.29-.39-.62-.85.46-.07,1.16.39,1-.19.81-.78,0-1.16-.21.07-.4.8-1.26-.19-1,.31-.78.31-.24,0-1,.56-.26.26-1.15,1.16-1.44-.27-.26-.12-1-.39-1.23-.56,0-.33.88-1,.82.22-.79.9-1.09,1.55-1.44-.1,1.52.42,3.39-.58,3.28ZM164,12.18c-.27,0-.55,0-.58.21-.6.06.49-.59-.19-.62.31-.64.61.42,1,.41.58-.13-.18-.44,0-.82.35,0,.41.25.77.21.09.65-.28.8-.39,1.23.71-.2.93-.93,1.35-1.44.55,0-.89,1.26.19,1.23-.19.88-1.46,1.37-.58.21-.39.06-.38.56-.77.62,1,.62-.56,1.48,0,2.26-.69-.44-1.25.49-2.13,0,.73-.26.69-.79-.39-.62a5.94,5.94,0,0,1,1.93-1.23c.14-.76-.33-.88-.19-1.64ZM91.87,8.08c-.14.93.06,1-.19,1.64,0,.08-.62-1.61.19-1.64Zm13-.41c-.18.7-.61,1.27-.19,2.05-.61-.1-.68.37-1.35.21.28-1.42-.42-1.6-1-1.64-.09-1,1.12.41,1.16-.62.43.09.08,1,.19,1.44.68-.16.51-1.24,1.16-1.44ZM107,6.85c.68.35-.48.41-.39.82.7-.33.94,0,1.55-.21v1c-.36-1-1-.24-1.74,0,.14-.15.48-1-.19-.82.18-.36.71-.34.77-.82Zm-18,0c0-.86,0-1.65,1-1.44.21,1.07.19,2.17.39,2.87-.65.56.13-1.83-1.35-1.44Zm49.9-.41c0-.2.24-.16.39-.21,0-.54-.18-1.29.58-1-.71.41.16,1.57-.58,1.64,0-.17.08-.19.19-.21,0-.24-.35-.17-.58-.2ZM93.61,5.62c.3,0,0,.34-.19.41.15-1-.51-.42-.77-.21.14-.77-.22-1-.77-1,.16.78-.91.26-1.35.41a2.54,2.54,0,0,0,.58,2.46c.33-.56-.31-1,.39-1.23a1,1,0,0,0,.39,1c.18-.36,0-1.1.58-1v.82c.9-.52,1.44-.32,1.93-1-.17-.18-.54-1.18-.77-.62Zm66.73-1c-.63,1.13-3-.54-4.06.82.28.11,1-.24,1,.21-.15.66-.93.66-1,1.44.61-.24.47.32.77.41-.32-1.07.82-1.33,1.16-2.26.11.88-.74,1.8-.58,2.05,1.38-.66,2.66-1,2.71-2.67Zm-52.41,1a8,8,0,0,1,.39-1.44c.44.15.08,1.15.19,1.64-.62-.18-.27.67-.58.82-.34-.73-.34-.55-1-.2.19-.44.54-1.25,1-.82Zm36.36-1c.05-.42.72-.19.77-.62.53.19-.34.72.19,1-.15.48-.39-.66-1-.41ZM174.07,47.7c.7.13.07.93-.19,1.23.77.4,1.59-.91,2.9-.62-.53.87-2.92.46-3.29,2.05-.63-.12-.9.14-1.35.2-.11-.45.37-.29.39-.62-.33-.41-.91.67-1.35.82-.21-.52.83-.72.19-1,.63.39,1-1.16,2.13-.2a4.6,4.6,0,0,1,.58-1.85Zm-1.55-1.44c.91,0-.21.3,0,.82.8.26,1.88-1,2.71-.41a10,10,0,0,1-3.68,2.26c-.28-.09,0-.18,0-.41-.72.58-1.28.11-2.13.62-.15-.63.67-.25.39-1-.73-.16-.13,1.09-1,.82,0-.17.19-.21.19-.41a1.37,1.37,0,0,0-.58-.41c.7-.71,2.18-.23,2.71-.41V46.26c0,.39,1.44.82,1.35,0Zm-4.25,41.06c-.23-1.08,1.18-.87,2.13-.41-.16.19-.28.33-.37.42l.57.6c.34-.19.54-.75,0-.82a9.33,9.33,0,0,0,5-.82,6.84,6.84,0,0,1-1.35,1.23c0,.58.65.4.39,1.23.48-.23,1.07-1,1.55-.62-.41,2-5,2.34-4.83,0-.24-.62-.66.22-1.16,0,.17.37.54.52.39,1.23-.25-.21-.71-.2-1-.41.63-.38-.23-.82.31-1.55-.58.5,0-1-1.67-.09ZM91.49,82.39c1.2.37-.42,1,.19,2.26-.61-.1-.76.29-1.16.41.42.44,1.18.53,1.55,1,.26-.06.16-.51.19-.82.79.21,1.27.3,1.74.41.11.42-.37.49-.39.21-.23.31-.56.5-.58,1-1.34-.56-2-.33-3.48-.41.09-.52.84-.34,1-.82a4.87,4.87,0,0,0-1.16-1.23c0-.17.08-.19.19-.2s.18-.08.19-.21c.26.06.16.51.19.82.62.18.6-.32,1-.41-.08-.4-.75-.16-.58-.82-.6,0-.55.65-1.35.41a1.67,1.67,0,0,1,2.32-.41c.25-.53.42-.62.19-1.23Zm58.22,25.66c.21-.4.66-.54,1-.82-.5,0,.27-.35,0-.82-.29,0-.71-.07-.77.2.48.08,0,.8-.39.62,0-.11-.16-.23-.19,0,.53-.15-.14,1,.39.82Zm-19.15-4.52c0-.25.06-.49.39-.41.06-.4-.26-.41-.39-.62.24,0,.46-.06.39-.41-.29,0-.71-.07-.77.21.55,0-.16,1.26.39,1.23Zm-2.9-.41v-1h-.58c0,.52,0,1.06.58,1Zm5,.2c.11-.78.93-1.78.19-2.26,0,.34-.54.11-.58.41.2.43,0,.83.39,1.44-.19,0-.24.36,0,.41Zm-6.19-2.26v-.41c-.31,0-1-.69-1.16-.2.26,0,.18.36.39.41,0-.24.31-.22.58-.21,0,.29,0,.79.19.41Zm2.71-.82c.55,0,1.33.18,1.35-.41a1,1,0,0,0-1.35.41Zm17.21,0c.11.36.1.85.39,1-.06-.84.4-.11.77-.21-.26-1,0-.36.58-.21-.31-.63.16-2.08-.77-2.05.1.79.48,1.64-1,1.44Zm7.74,0h.58c-.19-.76-.41-.54-.19-1.44-.7.37-.57,0-1.16-.21.1.65-.42.8,0,1.23.61.24.47-.32.77-.41.32.41,0,.26,0,.82Zm-1.35-1c.08-.49-.35-.45-.19-1h-.77q-.07,1.1,1,1Zm-16.25-.62c-.47-.5.42-1.18-.39-1.23-.14.48-.44,1.3.39,1.23Zm13.34-1.44c-.41-.24-1.08-.22-1.35-.62-.07.75,1.33,1.23,1.35.62Zm-8.32,3.49v-1c-.63-.12-1,.06-1.16.41.35-1.19-.79-.8-1-1.44.51-.24.83.63.77-.21-.45-.1-.65,0-.39-1-.67-.31-1.93-1.25-2.51-.41a.92.92,0,0,1,.39.82c1.65.21-.05.53-.39,1.23-.16-.58.27-.53.19-1-1,.49-1.15,1.22-1.55,2.46.6.15.37-.56,1-.41.08.35-.29.53,0,.62.16-.31.62-.3,1-.41.81.16.36,1.05.58,1.44.69.32.12-.7.58-.62-.24.94.64.56.77.21-.23-.3-.73-.32-1-.62ZM118.76,97c-.66,1,.43,1.51,1,1.85a2.77,2.77,0,0,0-.19-2.26c-.23,0-.55,0-.58.2.77.26.09,1-.19.21Zm-20.31-.41a.84.84,0,0,0,.77-.41c-.3,0-.15-.52-.58-.41,0,.39-.22.45-.19.82Zm2.71.2c.54-.34-.18-1.54-.39-1,.51.16-.43,1,.39,1Zm46,.82c0-.16.16-.24.39-.21.06-.4-.26-.41-.39-.62A1.05,1.05,0,0,1,148,97c0-1.07-.19-1.3-1.16-1.64.26.62,0,1.76.39,2.26Zm-9.28-1.23c-.4-.12-.41-.32-.19-.62,0-.2-.24-.16-.39-.21.23-.55,1,0,1.35,0,0,.55-.54.52-.77.82Zm-38.49-.62c.3-.16.29-.65.77-.62-.11.43-.48.59-.39,1.23-.67-.06,0-.56-.39-.62Zm20.31-.82c-.49.87,1.22.46,1,0,.56-.06.66,0,.39.41,2.57-.59,5.27-1.17,8.12-1.64-.57.62,0,1.42-.19,2.67-1,.58-2-.48-2.9,0,.27.4,1,.31,1.35.61a1,1,0,0,0-.19.62c-.93,0-1.42-.55-2.51-.41-.14.63.2.75.19,1.23-1.08.62-1.53-1-3.29-.41.17-.66-.63-.29-.77-.62-.06-.54.27-.67.77-.62,0-.38-.65-.13-.77-.41.45-.48,1.84,0,2.13-.62a4.84,4.84,0,0,0-2.71.21c0-.17.19-.2.19-.41a5.29,5.29,0,0,1-2.13.21,1.35,1.35,0,0,1,1.35-.82ZM128,93.48c1.12-.3,1.29.41,1.93.62-.31-.73.34-1.28-.39-1.64-.08.77-1.47-.13-1.55,1Zm-7.16.41c.55.46-1,.41-1.16.82,3-.45,5.76-.31,7.74-1.44-.29,0-.71.07-.77-.21s.23-.35,0-.62c.66,0,1.35.06,1.55-.41-.9.07-1.29-.41-2.13-.41-1.58,1-2.52,2.74-5.22,2.26ZM128.43,92c1,.12,2.57-.14,2.13-.82-.51.48-1.68.27-2.13.82Zm30.36-1.44a.88.88,0,0,0-.58.21c-1.8-1.39-.2.93.58-.21ZM98.45,89.38c.47.22,1.34.66.58,1,.48-.27.61.81.77.21-.53-.38-.08-2.06-.39-1.64.09.57-1.06-.16-1,.41Zm-2.9,0c0,.39.64.14.58.62v.62c.81.32,0-1.06.58-1,0,.34.54.12.58.41-.31.06,0,.29.39.2-.45-.81.19-1,.39-1.64-.37,0-.43-.23-.77-.21.05.6,0,.71-.39.41-.06.4.26.41.39.62-.9,0-1.78,0-1.74,0ZM94.39,89c-.17-.66.64-.28.58-.82-.61.1-.76-.29-1.16-.41-.1.73.16,1.06.58,1.23Zm1.55-1.85a1.66,1.66,0,0,1,1.35-.41c0,.29,0,.58.19.62-.22.6-.56-.34-.77-.41-.7.22,0,1.86-.77,2.05-.57-.29.63-1.49,0-1.85ZM99,85.06c-.22,0-.3.23-.39.41.71-.07.18,1.18,1.16.82a3.59,3.59,0,0,1-.19-1.44c-.38.1-1.23-.45-.77,0,.12,0,.23,0,.19.21Zm62.66-.41a1.46,1.46,0,0,0,.39.62c0-.32.49-.16.39-.62-.51.17-1.06-.62-1.35,0,.28.08.33.25.58,0Zm12.77-1.23a1.2,1.2,0,0,0-1-.21c-.34.92,1,.74,1,.21Zm-13.93-1.23c-.54.5-1.15-.5-1.55,0,.42.16,1.36.81,1.55,0ZM97.87,83.42c0-.16,0-.41-.19-.41-.13.69.32.75.77.82-.19-.88.73-.6.77-1.23A3.13,3.13,0,0,1,97.68,82c-.17.79,1.13,1.05.19,1.44ZM162.08,83c.7-.37.57,0,1.16.2a1.83,1.83,0,0,0,.19-1.23c-.83-.1-.25.55-.58.62-.61.1-.14-.94-.58-1-.15.44-.47,1.15-.19,1.44Zm4.26-1a.84.84,0,0,0,.77-.41c-.29-.11-.49-.3-.77-.41V82Zm3.09.21c.92-.33.07-.71.58-1.85-.38-.06-.38.28-.58.41s-.27-.26-.58-.2c.18.38-.58.69,0,.82,0-.38.65-.13.77-.41,0,.48-.33.6-.19,1.23Zm-7.16-2.67c0,.7.57.77,1,1-.13-.79,0-.73-.19-1.23-.37,0-.43.23-.77.21Zm-62.66.82c-.68-.07-1,0-1.16-.21-.22-.64-.09-.54.19-1h-1c.14.84-.41.93-.77,1.23,1.08.17,2,1.09,2.71,0Zm-3.1.41c.35,0,.41-.25.77-.2v.82c-.51.06-.83-.07-.77-.62Zm75,0c-.13-.21-.44-.21-.39-.62-.53.19.27.64,0,1.23-.28,0-.55,0-.58.21-.67-.2-.43-2.16-.19-2.67.11.41,1.25,1.9,1.35.41.21.38.2,2.26-.39,2.46a1.41,1.41,0,0,1,.19-1Zm-2.32-.82c.75,0,.67-1.2.19-1.44-.27.27-.19.89-.19,1.44Zm-2.51-.82c-1.24,0-1.94-.68-3.29-.62.57.63,2.56.83,3.29.62Zm-79.49-.21c.78,0,.86.05.39.41.28,0,.33.34.58.41.26-.28.37-1.43-.19-1.44,0,.27-.54.26-.58,0s0-.24-.19-.21v.82Zm-2.9-1.44c-.25-.28-.84-.2-1.35-.21.75.61.33,1.19.77,2.05.33.08.5-.3.58,0-.15,0-.22.17-.19.41.78-.05.57-.92.19-1.23.44-.22,1.82-.52,1.16-1.23-.09.53-1.38.85-1.55.62.22,0,.3-.23.39-.41Zm83.36-.82c-.13.4-.52.55-1,.62a.84.84,0,0,0,.77.41c.56-.18.22-.31.19-.82.61-.23.47.32.77.41-.49.27-1.13,1.11-1.74.62.13.4.52.55,1,.62-1.19.33-3.24-.63-4.64-1.23,0-.17.8.49,1.16-.21.37,0,.14.68.58.62s.42-.38,1-.21c0-.24-.35-.17-.58-.21.87-.32,1.73.07,2.51-.62Zm-71.75.41c.74-.42,1.17,0,.77.82.7.2.16-.92.77-.82,0,1.28,1,1.91,1.55,1.44-.69-.82.92-.93,1.16-1.44-.47-.52-1.15-.22-1.55-.41-.08.35.29.53,0,.62-.9-.09-.69-.91-1.74-.41,0-.39.22-.45.19-.82h-.58c.19.75-.94.09-.58,1Zm76.59-.62c.27.27,1-.1,1.16-.62a.92.92,0,0,0-1.16.62Zm-77.94.41c-.33-.12,0-1-.39-1,.18-.38,1,.32,1.55.2a1.2,1.2,0,0,0-.19.82c-.37-.38-.49,0-1,0Zm-11.22-.41c.15-.5.54-.54,1.16-.41.05-1-2.06-.13-1.16.41Zm8.9.21c-.5-.63-.3-1.08-.77-1.44-.12.48-1,.28-1.35,1,0-.59,0-1.12-.58-1,.46.82-.48.68-.77,1.23.15,0,.23.17.19.41.8-.23.75.43,1.35.41a1.11,1.11,0,0,1,1.93-.62Zm.58.41c.57-.43.31-.46.77.41A4.27,4.27,0,0,0,93,75c.05.47,0,.77-.39.82,0-.27,0-1.49-.19-.82.1,1.17.33,1.06.39,2.05Zm79.88-1.85c.29-.24.47-.59,1-.62-.54.48.11,1.16-1.16,1,0-.2.24-.16.39-.21s-.08-.19-.19-.21ZM91.1,75c.31-.31.28-1.17-.39-1a1,1,0,0,0,.39,1Zm-13.92-.62c.91-.64.58.57,1,1-.17-.66.5-.43.58-.82-.15,0-.22-.17-.19-.41.15,0,.38,0,.39-.2-.53.15-.39-.41-.77-.41-.06.83-.86-.14-1,.82Zm93.61,4.52c.48,0,.94,0,1-.41-.67-.11-.11-.79,0-1.23-.59-.14-.37-.14-1,0,.06-.68,0-1.26-.39-1.44.29,0,.18-.5.19-.82.75.52.24-.39.58-.62.23.23.35.59,1,.41.24-.95-1-.33-1.16-.82.27-.05.22-.45.39-.62-.44-.57-.75,0-1.16-.62.48.32.57-.7.19-.62s-.1,1.26-.77,1.23c.78-1.27-2.27-.14-1.35-1.85-.54,0-.82.36-.77,1a4.9,4.9,0,0,1,1.36,1c-.54.63.1,1.25.39,1.64a2.49,2.49,0,0,0-.39,1.85q.75-.18.58.62c.62.18.27-.68.77-.62-.26,1.49.72.58,1,.82-.42,0-.42.52-.39,1Zm-93-7.19c-.15.77.22,1,.77,1-.26-.9.75-.44.58-1.23-.25,0-.27-.26-.58-.21.49.78-.36.73-.77.41Zm19.73-.2c-.27.66,1.16.52,1.16.2-.32,0-.11-.57-.39-.61.09.64-.49.73-.77.41Zm-8.32-1.64c-.64-.3.57-.32.58-.62-.67,0-.44-.9-1-1-.14.74-.13,1.93.39,1.64Zm82,.62a1,1,0,0,0-.77-.21c1-.09.37,1.53,1.35,1.44-.27.47-1.42.16-1.16-.61-.4.44-.73.09-.58-.62-.47.69-.88.29-1,.82-.77.11.21-.73-.77-.62-.2-.89.4-.94.58-1.44a.57.57,0,0,1,.39.62c.44-.22.07-1.29.19-1.85.59-.15.57.35,1.16.2-.14.76-.58-.09-1,.41.39.33,1,.43,1.35.82-.53.55.23.45.19,1ZM166.34,66c.25.28.84.2,1.35.21,0-.56-.32-.41,0-.82-.69,0-1.16.14-1.35.61ZM83,64.53c.31.06,0,.29-.39.21.07.81-.45,1.25.19,1.64a.57.57,0,0,1,.39-.62,1,1,0,0,1,.58.62c-.37.09-.83.07-.77.62.23,0,.55,0,.58.21-.49.15-.61,0-1,.62.11-.42-.06-1.54-.39-.82.1.44-.84,1.13,0,1.85-1-.42-.71.84-1.35,1.44,1-.19,1.09.63,1.55,1,.06-.28.28-.39.19-.82s-.74,0-.77-.41c.19,0,.23-.17.39-.21.29.24.81.72,1,0-.4-.12-.73-.32-.58-1,1.34.25.22-1.17,1-1.23.16.84,1.14.57,1.55.21-.45-.93-.36-1.49-.39-3.08-.36-.2-.65.61-.77,0,1.26-.53-.61-.33-1-.21Zm-4.84-.21c-.33-.08,0-.26,0-.62-1.23-.37-.56,1.4,0,.62Zm91.48-1.85c0-.16.16-.24.39-.2.2-.52-.41-1.17-.58-.62.54-.09-.48.77.19.82Zm3.29-.82c.54-.29,2.07-1.11,1.16-1.64.18.83-1.12.63-.58,1.23-.4-.18-1.07.32-.58.41ZM84.52,61a1.4,1.4,0,0,0,.19-1c-.71-.2-.77,1-.19,1Zm2.32.21c-.11-.7-.53-1.08-.58-1.85.17,0,.18.08.19.2s.19.11.19,0a1,1,0,0,1,.39,1c.56-.18.22-.31.19-.82,1.05,0,0,1,1,1,0,.52-.65.41-1.16.41.12,1.26-.5,2.57.19,2.87-.35.31-.8.51-1,1s.3.64.58.82c-.87,1.17-.62-1.65-1.16-.82-.53-.75.45-.55.58-1-.13-.48-.35-.86-1-.82.56-.48,1-1.16.39-1.85.58.25.66.06,1.16-.21Zm85.29-1.64c.13-.64.52-.27,1-.2-.37.38-.61.71-1,.2Zm-88,.21c.68-.16.64-.58,1.16,0-.33-.52.22-.72-.19-1-.28.39-1.06.24-1,1Zm4.64-1.23c-.37.09-.35.59-1,.41-.08.7.58.62.77,1a.53.53,0,0,0-.58.41c.61-.23.51.06,1-.21V59.4c-.26-.5-.58.37-.77-.21.53.15.39-.41.77-.41-.23-.37,0-1.19-.39-1.44,0,.25-.21.13-.39,0-.26.89.46.74.58,1.23Zm-3.87-1.23c.76.26.5-.56.77-.82.43.16.48.72.77,1,.57,0,.31-1.5,1-.82-.79.5-.25,1.71.39,1.44-.61.89-1-.29-1.74.41.07-.27.34-.32.39-.62-.25-.64-.4-.1-1-.41-.49.16-.49.84-.77,1.23-.25-.07-.3-.36-.58-.41a1.2,1.2,0,0,0,.39-1.64c.67-.18.66.32.39.62ZM87,55.71c.15,0,.23.17.19.41.62.12.6-.39,1,0,.16-1.13-.86-2.09-1.35-1.85.57.26,1,1.13.19,1.44Zm6.77-1.23c.37,0,.43-.23.77-.2-.59.36.53.79,0,.41.4-.55,0-1-.58-.62,0-.11-.16-.23-.19,0,.23,0,.12.23,0,.41ZM89,54.68c-.45-.14-.52-.68-1-.82.42-.63,1,.29,1,.82ZM81,53.24c.22,0,.21.32.19.62.45,0,.57-.35,1.16-.21,0-.31.07-.76-.19-.82.13,1-1-.38-1.16.41Zm2.13-.82c.91-.31.45-.81,1.35-.21-.21-.64-.09-.54.19-1-.53-.15-.39.41-.77.41-.39-.42.09-.4.19-.82-.27-.53-1.53,0-1.35-1-.66.34-.07,1.79.39,2.67Zm3.09-3.08c0-.51-1-1-1.16-.62.47.11.41.79,1.16.62Zm86.26-12.52c0-.32,0-.71.39-.62-.14.76.33.88.19,1.64.47-.12,1-.18,1-.82-.78,0-.87-.05-.39-.41-.7.2-.16-.92-.77-.82-.08.35-.25,0-.58,0,.11.3-.23,1.06.19,1Zm-1.35,1.64c-.14-.51-.19-.84.19-1.23-.17.42.5.92.58.41-.42,0-.09-.73-.19-1-.71.45-.68-1.14-1.74-.82,1.46.22,0,2,1.16,2.67Zm-79.49-1c.59-.83.58-1.61,0-2.05-.42.5,0,2.52,0,2.05Zm-2.13-.62c.68-.07.47-.56,1.16-.2,0-.71.27-1-.19-1.44,0,.41-.53.26-.39.82.15,0,.38,0,.39.21-.45.07-.83.21-1,.62Zm77.36-.62c.13-.55.55-.78.77-1.23-.57,0-1.18.92-.77,1.23Zm-74.27-.41c-.22,0-.11-.21,0-.2-.09-.18-.17-.37-.39-.41a.92.92,0,0,1,1-.41,5.51,5.51,0,0,1-.58,1Zm73.49-.41c.4-.76-.28-.54-.19-1.44.62,0,1.24,1.46.19,1.44Zm6-1.23c.27.25.11.6-.19,1,.67-.39.49-.39,1.16,0-.09-.64.41-.66,1-.62.08-.49-.35-.45-.19-1-.78.21-.86-.32-1.16-.62.43.79-.08.93-.58,1.23ZM171,32.1c1-.56,1.14-.7,2.9-.41-.41.89-1.48,0-2.13.41.06.28.48.17.77.2-.49.59-.2.36,0,1-.91-.09-.63-.85-1.35-.21-.25-.48,0-.38-.19-1Zm-.39,1.44c-.23,0-.12.23,0,.41-.66-.21-1.59.34-1.16.62a20.49,20.49,0,0,0,2.32-.62c-1-.56-1.32-.78-1-2.46-.81-.18-.42.92-.77,1.23a.53.53,0,0,1,.58.41c-.8,0,0,.14,0,.41Zm-2.71-1.23c.45-.07.83-.21,1-.61-.25,0-.27-.26-.58-.21.14.56-.38.41-.39.82Zm-4.83,0c1.14-.33,1.59.47,2.71-.2-.33.77.11.33.19,1h-.58c.22,1.37,1.53.1,1.55-.62-1.07.18-1-.23-.58-.82-1.67,0-2,.26-3.09-.41a1.41,1.41,0,0,1-.19,1Zm5.8-1.23c.35,0,.41-.25.77-.21.27.91-.89,1.11-.77.21Zm1.55-3.28c.64-.39.84-.07,1.16-.62-.59,0-1.27-.12-1.16.62Zm-3.48-3.08c.16,1-.83.76-.77,1.64a3.56,3.56,0,0,1,1.55-.41c.31-.8-.5-.43-.58-.82.12-.35.92,0,1-.41-.4-.45-.55.1-1.16,0Zm1.16-.2c.14-.73,1.28,0,1.16.82-.61-.1-.76.45-1.16,0-.14-.56.91.15.77-.41,0-.38-.66-.13-.77-.41Zm-2.9-.82c.51.06.63-.28.58-.82h-.58v.82ZM162.27,22c.08-.39.55-.37.39-1-.26-.07-.37-.29-.77-.21a1,1,0,0,1-.19.62,1.36,1.36,0,0,1,.58.41c-.11,0-.22.17,0,.2ZM94.39,20.6c.14-.76-.68-.51-1-.82,0,.65.5.7,1,.82Zm3.29-1.23c.63-.47-.52-1.34-.77-.82.39.13.05,1,.77.82Zm.58-.82c-.58-.13-.8-.66-1.35-.82,0-.72,1.2.41,1.35.82Zm-.58-2.26c-.45-.21-1.29-1.08-1.55-.82.49.18,1.08,1.3,1.55.82Zm36.94-2.46c0,.21-.16.24-.19.41.43-.11,1-1.1.58-1.44-.26.63-.88-.36-.39-.62-1.38-.13-.54,1.47,0,1.64Zm11.22-2.26c.22,0,.3.23.39.41.48,0,.6-.31.77-.62-.65,0-.83-.37-1.16.21ZM130.75,9.72c.54.2-.28.55.19.82.7-.47,1.1-.16,1.93-.62-.35,0-.65-1.05-1-.41.3,0,0,.34-.19.41.13-.55-.4-.4-.58-.62,0,.27-.34.19-.39.41Zm-.77.62c-.23-.54.37-1.21,0-1.23.06-.28.48-.17.77-.21-.43.3-.14,1.36-.77,1.44Zm4.26-2.67c-.89-.68-1,.27-1.74-.41.27.79,1.28.63,1.74.41Zm-54,53.17c-.42,0-.61-.17-.58-.62-.46.06,0,.76.19.82a2.82,2.82,0,0,1-1,1c.12.21.44.21.39.62-.54-.33-.54.89-.19.82-.53-.33-1.48.23-1.74-.62-.22.66-.82.9-1.55,1a5.4,5.4,0,0,0,.58-1c.6.28,1-1.76,2.32-1.85.17-.66-.63-.29-.77-.62a1.52,1.52,0,0,0,0-1.23A1.81,1.81,0,0,1,79.69,59c0,.64-1.27,0-1.16.82.14.51.58-.68,1,0,.3,0,.93-.76.39-1,.66-.69.3,1.45.39,2.05Zm6,19.5c-.45-.21-.9-.41-1-1,1,0,.1.68,1.16.21a1.21,1.21,0,0,0-.19.82Zm73.5,10.26c-.14.64.1,1.92.58,1.23-.15,0-.23-.17-.19-.41.31,0,.67,0,.58-.41a.92.92,0,0,0-1-.41Zm11.6-28.95a3.34,3.34,0,0,1,.77-.62c0,.16,0,.41.19.41v-.62h-.77c0,.27-.65.76-.19.82ZM141.19,4.18c-.8.27.28.89-1,.62.25.8,1,.44,1.93.2-.22.74-.49,1-.58.41-.37.58-.68,1.55-1.55,1-.27.13,0,.79-.39.82-.47-.63-.12.24-.39.2-.4-.65-1.27.39-1.55-.2,0-.27.34-.19.39-.41-.37-.09-.35-.59-1-.41,0,.51,0,1-.39,1,.08-1.3-1.34-.11-1.35.41.06-.4-.26-.41-.39-.62a.54.54,0,0,0,.58-.41c-1.51-1.14-2.37.74-3.67-.21-.27.47.5.77,0,.82-.45-.41-.22.05-.58.21-.44-1-.92-.53-1.93-1.44.53.92-.83.65-.77,1.64,1.37.22,1.56,3.23,0,3.28-.38-.14,0-1.15-.39-1.23-.18.77-1,.85-1.16,1.64.67.16.82-.23,1.16-.41-.36.72.15.67.39,1.23a5.13,5.13,0,0,1-2.51,1c-.53-1.22-2.45-1.82-2.13-3.28-.69-.32-.12.7-.58.62-.18-.88.54-.79.58-1.44-.41,0-.92-.91-1.16-.41.22.31.56.5.58,1-.75.12-.68-.65-1.16-.82.32,0,.11-.57.39-.62h.77c-.19-.69.27-.67.77-.62.13-.55-.4-.4-.58-.62a1.66,1.66,0,0,1-1,1,3.27,3.27,0,0,0,0-1.85c-.57.57.07,1.16-.58,1.64-1.11-1.27-1.09-3.31-2.71-3.49s-3,2.07-4.84,2.26c-.2-.58.32-1.41,0-1.44-.31,1-1.2,2.36-2.32,1.85-.42,1.47-2.65,1-3.29,2.26q.05-.67-.58-.62c0,.24,0,.58-.19.62-.85-.1-1.44,0-1.35-.82-.59.23-.18.91.19,1.23-.36.39.11.37,0,1-1.89.87-3,2.53-4.84,3.49-1.39-.65-2.66-2.51-4.06-2.46.62.45,2.75,1.38,1.55,1.85.75-.19.8.8,1.35.21-.61.68.75.41.58,1.23-.25.35-.4.81-1,.82-1.36-1.29-3.86-2.24-4.26-3.9-.54-.09.49.77-.19.82a4.51,4.51,0,0,1-1.55-1.44c.7,2.14,4.33,2.93,5.8,4.93-1.55.45-2.77-1.14-3.87-1.85.23.06.67-.59.19-.62a1.47,1.47,0,0,1-.39.62C94.59,13.1,92.73,13,91.49,11c.17.66-.5.43-.58.82.58-.32.51,1.06.19,1-.54.08-1.18-.78-1.55-.21a11.16,11.16,0,0,1,1.93.82c.64-1.48,3.08.39,3.09,1.23a5.9,5.9,0,0,0-2.71-1.44c.63.63.58,2,1,2.87.24-.61-.13-1.37.19-1.64.69.35,2,.46,1.55,1.44a2.1,2.1,0,0,1,2.13,1.44c-.85.84.22,2.19.77,2.46-.58.07-.7.62-1,1a1,1,0,0,0-.77.21c-.52-.94-.2-2-.77-2.67-.12.56.25,1.63-.19,1.85-.09-.66-.27-1-.58-.41-1,.15-.64-1.24-1.16-1.64-.68.77.07.94.19,1.85-.48.27-.8-.6-1,0,1.08.7,2.68.85,3.29,2.05-.61.79-1.08,1.73-1.74,2.46a13.52,13.52,0,0,0-3.29-1.64c.23,0,.12.23,0,.41.79.4,1.82.54,2.32,1.23-.7.19-1.21-.89-1.74-.21.79.18,1.24.73,1.93,1-.46.6-.76,2.26-1.93,1.44,0,.71,1,.33,1,1-.45-.41-.21.05-.58.2-.48-.84-1.78-1.4-1-2.46-1.17.36-.51,1-1.16,1.44-.45-.14-.52-.68-1-.82-.15.76-1.09.11-1.55,0,.11.84,1.39.44,1.74,1-.62.79.34,2.12,0,3.29a.88.88,0,0,1,.58.2c.25-1-.06-1.53.39-2.46,1,.53.54,2,.77,2.87-.71.13-1,.76-1.35,1.23,1-.13.33.48,1,.82.4-.06-.29-.56.39-.62.28.18.61.31.58.82-.91.81-1.22,4-2.71,2.87-.14.76.33.88.19,1.64a1.93,1.93,0,0,0-1.16,1.44c.63.25.15-.66.77-.41a10.89,10.89,0,0,1-.39,2.67,18.14,18.14,0,0,0-1.16-2.26c0,.13,0,.24-.19.21s-.23,0-.19.21c1.08.66-.31,1.74.39,2.46-.76.19-1.21.25-1.74-.21.84.75.11.9.58,1.64-.34.38-.56-.09-1-.21-.49.26.18,1-.19,1-.25-.43-1-1.41-1.35-1,.11.19.8.76.39.82-.78,0-.89-.39-1.35,0a1.47,1.47,0,0,0,1,.62c-.54.78,0,1.54.39,2.46-.26,0-.18.36-.39.41a4.11,4.11,0,0,0-1.35-2.46c.28.68,0,1-.39.41a1.19,1.19,0,0,0,.19.82c-.12-.12-.92-.48-1,0,.12.28.74,0,.77.41a1.2,1.2,0,0,0,.19.82c-.38,0-.25-.56-.77-.41.29.76.41.35-.19.82.12.28.74,0,.77.41-.28,0-.33.34-.58.41-.24-.37-.66-1.61-1-1.23.3.05.13.45,0,.62.23,0,.55,0,.58.2-.93.36-.31,1.13-1,1.64a2.81,2.81,0,0,0-1-1c.05,1.13-.76-.6-.77,0,1.32.91.17,4.72,1.55,3.9-.35.59-.31.64-.19,1.44a1,1,0,0,1-.77-.2c-.15.52.76.94.19,1.23a3.27,3.27,0,0,0-1.35-1.85c.15.78.3,1.35-.58,1.44a4.84,4.84,0,0,0,.39,1.23.87.87,0,0,1-.58-.21c0,1,.67,3.29-.58,2.46,0,.6.47,1.3,0,2.05,0-.51-.63-.91-.77-.2.88.1-.12.94.39,1.44-.25.29-.95.09-1,.62.36.2.65-.61.77,0-.33,1.08,1.71,2.07,2.32,1.64-.33.71-.07.72.39,1-.58.06-1.18-.57-1.35.21,1.33.54.58,1.57,1.74,2.67-1.1-.65-.24,1-1,1.23a.92.92,0,0,1,1,.41,1.46,1.46,0,0,1-.39.62c.22-.42-.3-1-.39-.41.37.54-.5,1.52-.58,2.26,0-.78-1,.44-1,1,.37.55.27,1.13.77,1.44-.49-.11-.68-.27-1,.21,1.33-.07-.33,1.14.58,1,.54.09-.15-1.12.39-1,.38.77.48.1,1,1,1.54.09,1.45-2,2.71-1.64a.92.92,0,0,1-.39-.82c.83.1.25-.55.58-.62.28,1,1.11.08,1.55.82-.17.43-.59.61-.58,1.23,1.26,1.1-.11,2.21.19,3.28,0-.24.31-.22.58-.21-.05-.54.07-.88.58-.82-.53.25-.38.91.19.41-.25.51.43,1,0,1a10.69,10.69,0,0,0-1.16-.41c1.29,1,1.91.8,2.51,2.46-.06.24-.78.78-.19,1,.7-.45-.12,0,0,.62.66-.34.58,0,1,.41-.16-.64-.11-1.84.39-1,.11-.74-1-1.23-.39-1.85h.39c-.63,1,.79.87.19,1.85.4.49.77-.28,1.16.2.08-.5-.35-.45-.19-1,.9.18-.13-.68.39-.62,1,.07-.15,2.51.39,2.05,0-.25.06-.49.39-.41a1,1,0,0,1-.19.62c.34-.12,1.14.25,1.16-.21a1.39,1.39,0,0,1-.77-2.26c-.29,0-.71.07-.77-.21s0-.41.19-.41c.24.68,1.6.4,1,1.44,1.12-.23,1.09.76,1.74,1,.4-.93-1.07-1.08-1.55-1.44.47.08.42-.38,1-.21a1.21,1.21,0,0,1,.19-.82c-.63-.25-.15.67-.77.41,0-.21-.16-.24-.19-.41.07-.93.27-1.36,0-1.85a.19.19,0,0,1-.39,0c.47.08.42-.37,1-.21.22.59,1,.55,1.16,1.23.21-.19.06-.76.58-.62.11.68,1.27.23,1.35.41-.18-.06-.65-.76-.19-.82.53.6,1.39.85,1.55,1.85-.72-.35-.31.12-1,.21A3.71,3.71,0,0,1,93,82h-1c.21.76,1.11,1.1.58,2.05.75.38,1.35-.38,1.93.41-.06-.4.26-.41.39-.62a.54.54,0,0,1-.58-.41c.44.28.73-.53.77,0a7,7,0,0,0-.39,2.46c-.36-.33-.82.49-1.36.62.83.94,2.45-1,1.74-1.64.51-.24.83.63.77-.21-.29,0-.71.07-.77-.21.29-.49.06-1,.77-.62.08-.83-.82-.63-1-1.23.14-.69.47-1.88.58-2.67.81,1.14,0,1.41.58,2.26-.18-.13-.71-.48-.58.21s.41-.2.77,0c-.06.28-.27.39-.19.82.38-.06.38.28.58.41-.3-.51.66-.6.58-.2H96.9a1.4,1.4,0,0,0,.19,1c-.37-.09-.35-.59-1-.41-.24.89.39.81-.39,1.44.24.79,1.2-.36,1.35.62-1.74-.19-2,1.11-3.68,1.23.43.21.15,1.37-.39,1.23a1,1,0,0,1,.19-.62c-.55.17-.5-.29-1-.2-.22.6.93.76.39,1-.28-.48-1.15.13-1.55.21-.15-1-.45-1.13-1.16-1.23,0-.21.83-.42.19-.62.06.64-.56-.52-.58.21a3.22,3.22,0,0,0,0,3.28c.33-.06-.25-.71.58-.62-.11.36.23,1.21-.19,1.23s-.61-.87-.58,0c.84.76,1.7.12,1.55-1.23-.26-.21-.72-.19-.77-.62.76.26.6.16.77-.21.12.35.58.34.77.62-.81.07-.64,1.42-.39,2.05-.28.32-1,.16-1,.82.29,0,.71.07.77-.21-.36,0,1.12,0,1.16-.82.43,1.23.26.14.77,0-.3.81.66,1.33,1,.82-.65.21-.3-.64-.39-1,.4.12,1.27-.25,1.35.21,0,.16,0,.41-.19.41s-.18-.36-.39-.41c-.23.81.13,1.18-.77,1.44-.34-.18-.56-.5-1-.62.8.64.82,2,1.35,2.05-.63-.49,1.76-.48.58-1a1.56,1.56,0,0,1,1.16.2c.2-.9-.65-.67-.58-1.44.92,0,.91-1,1.35-1.44.21,1-.59,1.58-.19,2.46.12-1,1.3.48.39.82h1.16c.12-.37-.57-.85,0-1,.25,0,.18.36.39.41.08-.35-.29-.53,0-.62.39.34.68.58,1,0-.5.86.52.63.39,1.64-1.47-.11.11.82-.77,1-.31,0-.15-.52-.58-.41a1.71,1.71,0,0,1-.19,1.64c-.23-.38-1.44-.78-1.35.21,1,0,1.22.9,1.74,1.44.24-.9.93-1.1.77-1.85.37.09.49.44,1,.41,0-.16,0-.4.19-.41.2.76-.65.4-.77.82.23,0,.55,0,.58.21-.08.7-.6.34,0,.82-.28.11-1-.24-1,.21.48.14-.36.55-.19,1,.53,0,.39-.34.77,0,0-1.34.52-.5,1-.21-.38-1.53.47-1.06.19-2.26.73.3.37-.56,1-.41,0,.24-.34.47,0,.62a.19.19,0,0,1,.39,0c-.06.49-1.4.68-.77,1.23.45-.74,1.83.18,1-1,1.72.2,1.58.78,2.32,1.23-.29,0-.18-.5-.19-.82,1.85-.35,3.5-.75,5.22-.2-.05-.47,0-.77.39-.82.12.11.58.83.77.21-.24,0-.46-.06-.39-.41,1.45-.18,3.79,1.3,5,0-.09.93.72.75,1.16.62,0,.27,0,1.48.19.82,0-.65,0-1.24.39-1.44,0,.41.53.26.39.82a4.78,4.78,0,0,1-.39,1.23c.61,1.33,1.79,1.46,2.52,2.26-.57-.28-.92,0-1,.82.71,0,1.33.09,1.35.82,1-.13,2-.45,2.51.62-.34.12-.8-.6-1,0,1,.27-.1.71.19,1.85.45.22,1.28,1.09,1.93.41-.71.14-.48-.72-.77-1a.88.88,0,0,0,.58-.21,1,1,0,0,0,.19.62c-.24,0-.39-.32-.39.2s.52-.38,1-.2c.35-1.14-.45-1.43.19-1.85.68.65,2.24.37,2.9,1,.12-.42.3-.78,1-.61,0,.9,1.21,1.29,1.35.41-1.12-.17-1-.58-1.74-1.23a.74.74,0,0,1,1.16.82c1.09-.29.9.62,2.13,0a1.4,1.4,0,0,1-.19,1c.62.18.4-.53.77-.62.27.47-.5.77,0,.82.62-.14.13-.93.39-1,.76.26.47-.6,1-.62a1.63,1.63,0,0,0,1.55,1.64c-.48-.32-.57.7-.19.61-.29-.67,1.09-.59.39-1-.29.43-.79-.3-.39-.82-.23,0-.55,0-.58-.21.23-.55-.46-1.38,0-1.85a1.36,1.36,0,0,1,.58.41c-.62-.18-.27.67-.58.82a2.69,2.69,0,0,1,1.74.41c0,.55-.44,1-.77.62-.2,1,2,.2,1.16,1.23a2.36,2.36,0,0,0,1.16-1c-.33-.08-.5.3-.58,0,0-.61.72-.09.58-1.23-.55-.17-.5.29-1,.2-.14-.6-.56-.67-.19-1,2.1-.34,3.19,1.93,1.55,3.08.07.47.77.27,1,.62,0,.36-.33.47-.77.41.08.46.41.66.58,1,0-.51.36-.64,0-1,.37,0,.43-.23.77-.21,1.31,3,5.41,1,7.54,1.85a1.39,1.39,0,0,1,2.32.82c-.55,0-.45-.62-1-.62.17.66-.64.28-.58.82.36.05-.11.34.19.41.23-1.1.72,1,1.35,0a.84.84,0,0,1-.77-.41c.23,0,.12-.23,0-.41.32.48,1.13.44,1.93.41-.21-1.32,1.38-1.81,1.55-2.05-.79.06-.1-.43-.19-.82s-.73-.32-1-.62c.84,0,1.69-.07,1.55.41,0-.55.61-.45.58-1a2.52,2.52,0,0,1-2.13-1.23c-.63-.25-.15.67-.77.41a1.2,1.2,0,0,1,.19-.82c-.69-.36-.48.14-1.16.21-.15-1.2.14-1.74-.77-2.26-.13-1.72.92-.09.77-1.23.44.09,0,1.13.58,1,.43-.3-.24-.5.19-.62.57,1,1.33.73,2.13,1.64.33-.12,0-1,.39-1H153c-.06.28-.28.39-.19.82.83.27.24-1,1-.82-.51.65.5.41.58,0,.18.22.71.06.58.62-.29,0-.71-.07-.77.21.34.1-.08.22-.19.41.64-.47.84-.08,1.16-.21-.42-.63.77.15.19-.82,1.08-.08,2.48.17,2.9-.61-.65.34-.66-.13-1.36-.21,0,.24,0,.58-.19.62-.54.14-.54-1.31-.77-.82,0,.24,0,.58-.19.62a.84.84,0,0,1-.77-.41c.71-.71.24-1.33.39-2.05-.48,0-.61.39-.77-.2,1,0,1.29.15.77-.62.56,0,1,.05,1.16.41,0,.34-.54.12-.58.41,1-.17,1.07.64,1.55,1,.11-.5.17-1.06.77-1,.16-.58-.27-.53-.19-1a1,1,0,0,0,1-1c-1.07,1-.29-.76-1.55,0,.24,0,.46.06.39.41a2.74,2.74,0,0,1-2.71-.82,6.94,6.94,0,0,1,2.13.21c.35-1,1.46-.19,1.93-1.23.32.32-.25.94.58,1a1,1,0,0,1,.19-.62c-.15,0-.38,0-.39-.21.15,0,.38,0,.39-.2-.15,0-.38,0-.39-.21s.74-.51.77,0a.86.86,0,0,0,.19,1.23c.4-.79-.25-1.47.58-1.64-.3,0-.67,0-.58-.41.77-.28,2.33.58,3.1.2a7.06,7.06,0,0,0-3.1-.41c.33-1.24-.88.16-1.16-.62,1.3-.44,4.2,0,1.35-.62.74-.76.06-2.86-.19-1.44a1.91,1.91,0,0,1-.77-1.23c.73.28.94-.08,1.55.41-.06-.69-.86-.59-1-1.23.93-.1.4-.48,1.16,0-.16-.58.27-.53.19-1a1.37,1.37,0,0,1-.58-.41c.26,0,.18-.36.39-.41.19.63.65-.09.77-.21.17.36.43.79.77.41-.47-1.09,0-1.92-.39-2.87.73-.3.37.56,1,.41-.44-1.33,1-.83.19-2.26.67.08,1.47.26,1-.41-.38.55-1.39-1.07-1.74,0,0-.31-.07-.76.19-.82.71.83,1.71-.44,1.74.62,0-.13,0-.24.19-.21,0-.21.16-.24.19-.41-.15,0-.38,0-.39-.21.15,0,.38,0,.39-.2-.62.59-1.14-.51-1.55,0-.18.32-.06-.58-.39-1,.56,0,1,.05,1.16.41-.23,0-.55,0-.58.2.36,0,1.28.53,1.55,0-.3,0-.67,0-.58-.41a8.19,8.19,0,0,1,2.32,1c-.79.17-.67,0-1.55,0-.2.47-.12,1.24-.39,1.64.85-.48,2,.43,2.71-.41.17.48-.68.88-.19,1,.18-.44.79.37,1.16.41-.08.48-.29,1.67.19,1.85.22-.94-.08-2.41.58-2.87,0,.27.34.19.39.41-.31-.15-.31,1,0,.82.18-.36.07-1,.39-1.23.4.25,2.11-.17,2.51,1-.62.18-.73-.18-1-.41.13,1.38-.21,1.83,0,3.08.4-.73,2.73-.18,1.74.41a2.6,2.6,0,0,0,1.35-2.26c-.46.54-.77,1.24-1.55,1.44.24-.66-.63-.16-.39-.82A1.87,1.87,0,0,0,175,82.19c.31.06.52-.28.19-.41-.55.17-.75.7-1.16,1-.87-1.56,1.62-1.63,1-2.87-.65.41-1,1.13-1.55,1.64-.05-.72-.72.51-.77-.21V81c1.54.05,2.25-1.85,2.13-2.87-.73.12-1.17,1.62-1.74,1.23,1-.6.55-2,1.74-2.05.3-1-.62-1.17-.19-1.64a.88.88,0,0,0-.58.21,1.21,1.21,0,0,0-.19-.82c.25,0,.27.26.58.21,0-.51-.36-.64,0-1-.36-.2-.65.62-.77,0,1.12-.87.52-1.83.39-2.87a.88.88,0,0,1,.58.21c-.42-.53.18-1.16-.19-1.44-.11.25-.73-.13-1.16.2V69.05c.63,0,.46-.88,1.16-.82a2.57,2.57,0,0,1,.19-2.05c-.52-.37-.37.9-.58.21s1.44-.79,1.16-1c-.3,0-.67,0-.58-.41.42-.13.62.58.58-.21-.93.13-.36-1.22-1-1.85.13-.42.67-1.47,1.16-.82-.53-.27-.66.81-.39.2,1-.47,2.24-.63,2.9-1.44-.71.11-1,.25-1.35-.41.25.28,1.16.36,1.16-.21-.17-.4-1.28.41-.77-.41-.7-.16-1.2.52-1.55.41.22-.39-.14-1.18.58-1.44.5.38,1.22-.38,1.93-.41.16-.78-.93-.24-.77-1-.43,0-.92.84-.58,0-.62.61-2,1-2.71.41.79-.29,1.72-.06,2.51-.82-.81-.55-1.73.18-2.51-.21,0,.24,0,.58-.19.62,0-1-.57.56-1-.21,1,2.57-1.88.49-2.71.82-.06.81.66.19.39,1a3.41,3.41,0,0,0,1.55-.21c-.08.29-.23.35,0,.62-.23,0-.55,0-.58.2.23,0,.55,0,.58.21-.29,0-.71-.07-.77.21.27.26.57,1,0,1s-.83-.21-1-.62H171v-.82c-.69-.32-.12.7-.58.62-.09-.27-.38-1.35-.77-.62.81,0-.61.72-.58,1.23.12.28.74,0,.77.41-.76-.12-.72.61-1.16.82-.19,0-.23-.17-.39-.21.43.34,1.13,1.5,1.35.82a1,1,0,0,0,.19.61c-.29,0-.71-.07-.77.21.36.25.9-.1,1.16.62-.24,0-.46.06-.39.41.36.2.65-.61.77,0,0,.16,0,.41-.19.41a1.2,1.2,0,0,0-1-.21c0,.8,1.2.24,1.35.82-.24.77-1.8.15-2.13.82.07-1.08-.69-.45-.58-.21-.61-.83.38-.63.77-.82.06-.4-.26-.41-.39-.62.12,0,.23,0,.19-.21.31,0,.15.52.58.41-.25-.81.56-.5.58-1-1.48-.17-1.79-1.11-2.32-.2-1.46-.37-1.2-2.1-1.16-2.67a15.73,15.73,0,0,1,1.55,1.85c-.69-.89.74-1.6.77-1.64-1.23.09-1.66.21-2.13-.41,0-.39,1.76,0,1.16-.41-.6,0-1.09-.48-1.55,0-.95-1.18.66-1.45,1.55-2.26-1.1,0-1.26,1-2.51.82a5.12,5.12,0,0,1,.39-2.46c-.38-.06-.38.28-.58.41-.08-.53-.58-.62-.58-1.23a5.43,5.43,0,0,0,2.13-1.23,1.3,1.3,0,0,0-1.74.41c0-.23-.22-.32-.39-.41,0,.24,0,.58-.19.62-.39-.63-.9.15-1-.82a21.44,21.44,0,0,1,2.9-2.46c-.61.1-.85.6-1.55.62a9.93,9.93,0,0,1,2.52-3.49c0,.21-.16.24-.19.41.54.21,1.34-.32.77-.62-.08.51-.75,0-.58-.41,1.34-.91,1.79-2.85,3.48-2.67-.44-.16.1-1,.39-1,.46.82,1.07.08,1.35-.41.2.83-.3.91-.58,1.23a.49.49,0,0,1,.39.82c1-.33.85-1.83,2.13-1.85.08.49-.35.45-.19,1-.81-.18-.65.68-1,1,2-.45,3.14-2.77,5.22-2.46,0-.51-.37-.64.19-.82.49.31,1.81-.26,2.32-.62-.61.1-.55-.52-.77-.82-.51-.24-1.14.39-1.16,0s.75-.16.58-.82A3.34,3.34,0,0,0,177,42.57c.36.2.65-.62.77,0-1,.32-2.65,1.71-3.48.82.31-.35,1.21-.08,1.16-.82-.75,0-1.6,1-2.13.62h.39c0-.6-.36-.71-.58-1,.44-1.1,1.75-1.29,2.51-2.05-1.43.19-2,1.28-3.29,1.64-.54-.31.49-.86,0-1,.14.33-.91.33-.77,0a1.92,1.92,0,0,1,1.55-1,1.09,1.09,0,0,1-.77-.82c.74-.13,1.19-1.36,2.13-.62-.28-1,.81-.51.58-1.44-.8-.1.19.55-.58.62-.31-.32.09-.94.58-1,0,.56.35,1.09.77.62.3-.73-.66-.12-.58-.62.87.54,1.49.26,1.93,1,.47-.48-.29-.38-.19-1h.77c0-.56-.32-.41,0-.82-.44.3-1.5.54-1.16-.21-.69.3-1.77,1.27-2.71.62.26,0,.18-.36.39-.41.7.21,2.33.15,1.93-1,.25,0,.27.26.58.21a1,1,0,0,0-.19-.62c.27,0,.74,0,.39-.21-.6-.15-.37.56-1,.41,0-.21-.16-.24-.19-.41,0-.52.35-.72.58-1,.82.65,1.18-.33,1.74.82a1.19,1.19,0,0,0,0,1.64,19.35,19.35,0,0,0,.19-2.26c-.23,0-.55,0-.58-.2.18-.06.65-.77.19-.82.06.25-.56.71-.58.2.4.18.73-.68.39-.61.08.33-.72.69-.77.2.39-.42.05-.55-.19-.82.11-.19.8-.76.39-.82a.53.53,0,0,1-.58.41c-.16.58.27.53.19,1-.72.19-.73,1.14-1.55,1.23a6.75,6.75,0,0,0,.39-2.46c-.34-.11-.8-.11-1-.41,0-.41.53-.26.39-.82-.47-.5-.84.15-1.55,0a1,1,0,0,1,.19-.62h-2.13c.13.92-.4.55-.58.2-.16,1,.1,1.42-.39,2.26,0-1.47-.49-1.22-.39-2.26-1.06,0-.31.93-.19,1.44-.19,0-.23.17-.39.21-.41-.53-.86-.36-1.35,0,0-.7-.65,0-.77-.82.15,0,.23-.17.19-.41.38.43.44-.22.77-.41-1.24-.15.34-1.54-.77-1.23.24-.29.74-.47,1-.21,0-.24,0-.58.19-.62a1.81,1.81,0,0,1-.77,1.64c1.59.38,1.68-1.91,2.51-1.64-.64.21-.43,2.31.19,1.64-.24-1.19,2,0,2.51-1.44-.51.06-.83-.08-.77-.62.28-.11,1,.24,1-.2-.64-.07.51-.9-.19-1-.19.27-.18.76-.58.82-.51-.45-.73-.75-1.35-.21.49-.5-.41-.44-.19-1.23-.91-.22.32.69-.39.82-.57-.46-.14-1.63-1-.82-.21-.52.83-.72.19-1a1,1,0,0,1-.58.62c-.73-.52.57-1,0-1.23,0,.23-.21.32-.39.41,0-.21-.16-.24-.19-.41.64-.41,0-.32,0-1,.55-.39,1.41-.43.58.2.69-.13,1.06-.58,1.35-.2v.41a.56.56,0,0,0-1,.41h1.35c-.57-.95.42-.92.58-1.64-.42-.72-1.75-1.3-1.16-3.29-1-.15-.46,1.29-1.35,1.23,0-.26.25-.28.19-.62-1.21,0-1.21,2-.39,2.46-.07.29-1,.7-1.16.21.17-.67.56-2,0-2.26-.65.43-1.44,1.24-1.35,1.85-1-.41-.74.25-1.74.21.14-.51-.85-.84-.19-1.23.4.06,0,.91.58.82-.25-1.43,1.73-.49,1.35-2.05-.83,0-1.42-.42-1.93.21.13.32-.23.16.19.82-1.58-.25-1.53-.14-2.13-1a6.64,6.64,0,0,1,2.71-.82c-.43,0-.08-.87-.19-1.23.15,0,.38,0,.39-.21-.95,0-1.08,1.3-1.93.82a.92.92,0,0,1-.39.82c-.43-.64-1,.27-1.16.62-.33-.5.57-.91-.39-1.23.25.64-.05.59,0,1.44,1.12-.3.89.84,1.35,1.23-.36.53-1.88-.44-1,.41-.37,0-.43-.23-.77-.21-.07.73,0,1.06-.19,1.23a1.2,1.2,0,0,0-1-.2c-.14.63.2.75.19,1.23-.44-.28-.73.53-.77,0,.3-.38-.09-1.27-.58-1.44-.12.64.47,1.61-1,1.64a9.74,9.74,0,0,0-.39-1c-.07.68-1,.41-1,1.23.36.2.65-.62.77,0-.12.28-.74,0-.77.41.65-.14.63.42,1,.62-.45.16-.87-.07-1.16.62-.64-.47-1.22-.94-.77-2.05-.56-.29-1,.56-1.16,0,0-.24.31-.22.58-.21,0-.51,0-1-.39-1-.15.51-.06.61-.58,1-.34-.39-1-.49-1.35-.82.38.1.62-.94.19-1-.59.41-1.08.1-1.93-.62.31-.17,1.27-.69,1-.82-.53.33-.82-.1-1.35.41-.07-.68-1.06-.38-1.16-1a5.74,5.74,0,0,1,1.16-1.44c.08.29.23.35,0,.62.69-.39,1.06-.05,1.35-.62-.74,0-.07-.17-.19-.62-.36.63-2.3.94-1.93.41-.63.08-.85.6-1.35.82-.84-2.44-4-3.36-6.77-2.05.06-.28.28-.39.19-.82-1.08,1.64-2.89-.13-3.87,1.85.87-1.32-1.58-1.63-.39-2.67-.93.35-1.32-1-1.74,0,.94-.33,1.54,1,.77,1.23.25-.95-.76-.56-1-1,.05-.36-.54-1,0-1.23.5.29,1.28.29,1.74.62.48-.24-.4-.78.19-1h.39c.18.38-.58.69,0,.82.57-1.19,1.12.06,1.93.41a.51.51,0,0,1-.77,0v1.44h.58c.36-.39-.11-.37,0-1,.38.06.38-.28.58-.41,1.3.25,0,0,.77-.82.58.14.13,1.37.77,1.44a1,1,0,0,0-.19-.62c.3,0,.67,0,.58-.41-.62.18-.6-.32-.77-.62.73.3.37-.56,1-.41-.06.4.26.41.39.62-.32.34-.15,1.21-.19,1.85.58-.36,1,.07,1.35-.2,0-.88-.47-1.54-.39-2.05.73.56-.21-.53.77-.41,1.53.64,1.37,1.82,3.09,2.26.19-.44-.18-1,.58-1.23-.1-.31-.32-.86-.19-1,.62-.12.6.39,1,0-.51-2-2.83-.3-3.48-1.64-.72-.22-.31.77-1,.62-.42-.71-.45-.5-1.16-.21V9.72a.88.88,0,0,1-.58-.21c.06.54-.4.53-.77.62-.53.09-.18-.76-.58-.82.15.8-1-.25-1,.82-.08.49.88-.11.58.62-1.59.35-.27-1.5-1.55-.82a1.52,1.52,0,0,1,0-1.23c-.28-.11-1,.24-1-.21.59-.77,1.89-1.08,2.32-.62.37-1.14.79-1.16,2.13-1.44,0-.48.33-.6.19-1.23-.36-.2-.65.61-.77,0,.3,0,.69-1,.19-1.23,0,.85-.13,0-.39,0,.05.54-.07.88-.58.82a.56.56,0,0,0-.39-.62ZM95.74,4c.61,0,.08,1.14,1,.82-.36,1,.22.08.39,1,.18-.42,1-.17,1-.82a4.38,4.38,0,0,1,0,3.08c-.21.12-.12-2.73-.77-.62-.32.59-.15-1-.19-1.44-.83-.09-.75,1.52-1.35,1-.14-.9.38.17.39-.41s-.89-.16-.58.41h-1c.18-.56.59-.88.77-1.44.21.05.13.41.39.41a2.07,2.07,0,0,0,0-2.05Zm51.06-1c.66-.14-1,.31-1,.82-.71-1.07.81-1.58,1-.82Zm-4.06-.62c.3.88-1.35,1.44-2.32,1.64.36-1,2-.59,2.32-1.64ZM155.12.28c.15,0,.22.17.19.41.91-.22,1.52.68.77,1,.64.29.81.11.58,1,.81,0,1.61-.07,1.93.41a10.06,10.06,0,0,0-.39-2.26c-.4.19-.16,1.06-.77,1,.83-1.79-2.32-2.3-2.32-1.64ZM152.8,108.47c.19,1.53-1.82-.32-1.55,1a5.19,5.19,0,0,0,2.13-.41c-.45.06-.22-.59-.58-.62Zm-6.77-.82a1,1,0,0,0,.77.2c.14.71-.68.74-1,.41a1,1,0,0,0,.19-.62Zm5.42,1c-.54-.09,0-.64.39-.41-.08-.39-.55-.37-.39-1,1.1,0,.76,1.28,0,1.44Zm24.37-5.34a1.21,1.21,0,0,1,1,.21c-.49.36-.14.34-.39.82h-.77c-.08-.49.35-.45.19-1Zm-3.67-1c.66.37.93,0,1.74,0-.3.35-1.87,1-1.74,0Zm-.19-2.05c.4.11.46-.39.19-.41.18-.37,1.11.18,1.16.62a2.89,2.89,0,0,0-1.93.41c0-.51.37-.64-.19-.82a.83.83,0,0,1,.77-.41c.23.27.08.32,0,.62ZM170.59,99h-1.35c.17-.46,1.5-1,1.35,0ZM158,98.41a.87.87,0,0,0,.58.21c-.28.32.31,1.36-.77,1.23.23-.57.42-.86.19-1.44ZM175.43,97c1.38,0,1,1.57-.19,1.44.23.37,1,.16,1.35.41,0,.31-.79.92,0,.82-.41.52-1.43.4-2.32.41-.09-.44.28-.39.58-.41-.41-.38-.56-.71-1.16-.41.13-.68.39-.89-.39-.62a1,1,0,0,0,.19-.62c.62-.18.6.32,1,.41-.45-.84,1.51-.5,1-1.44Zm-1.16.21c-1-.74-1.85.33-2.9-.21.42.76.23.38-.19,1,1.4-.34,2.2-.08,3.09-.82Zm-45.84-2.26c0-.82-1.39-.1-1.74,0,.31.31,1-.18,1.74,0Zm37.71-1.85a5.3,5.3,0,0,0,2.13.21c-.22.25-.17.42.19.41a2.44,2.44,0,0,1-1.35.41c.07-.27.34-.32.39-.62-.44-.15-1.51.37-1.35-.41Zm.58-.41c.39-.47,1.61-.07,2.32-.21-.39.47-1.61.07-2.32.21Zm2.9-.62c.7-.2.16.92.77.82-.15-.46,1.5,0,.77-.41-.28-.11-1,.24-1-.21.34,0,1,.21.77-.41-.4.12-1.27-.25-1.35.21Zm-1.16-3.49a1.2,1.2,0,0,1-.19.82c.36-.23.89-.29,1-.82-.53,0-.39.34-.77,0Zm-.58-1c-.23.61.82.88,1,.41-.26,0-.18-.36-.39-.41-.08.35-.25,0-.58,0Zm-76.59-.21c.42.41-.63,1,.39,1.23.46-.29.12-2-.39-1.23Zm85.29-.82c-.38.41-.92.67-1.16,1.23.71.06,1.54-.82,1.16-1.23ZM89,85.47c.68.11.31,1.19.19,1.64-.39-.47.13-.92-.19-1.64Zm-10.44,0c.4.12.41.32.19.62a1.37,1.37,0,0,0,.58.41c-.46.69-1.38-.54-.77-1Zm88.77-.41c-.64.67.52.49.39,1.23.48,0,.61-.31.77-.62-.66-.08-.25-.56-1-.21,0-.16,0-.4-.19-.41Zm-78.91-.62c.65.22,0,.62.39,1.23H88.2c0-.48.33-.61.19-1.23ZM165,84c.61-.3.93,1.18.19,1,.47-.48-.29-.38-.19-1Zm4.83-.2c.41-.09.51.14.77.2.08.49-.35.45-.19,1h-.77a1,1,0,0,0,.19-1.23Zm-89.74,0a.89.89,0,0,1,.58,1.23,3.92,3.92,0,0,1-.58-1.23Zm90.51-1c.67-.16.74.31,1.35.21-.15.9-.63.84-.77,2.05-.7.19-.27-.81-.39-1.23.31-.06.33.19.58.2.29-1-.89-.43-.77-1.23ZM90.91,81c.21,0,.13.41.39.41-.19.27-.52.4-.58.82-.28,0-.07-.61-.39-.62,0-.24.35-.17.58-.21V81Zm-1-1.85c.43-.11.28.39.58.41-.29.24-.47.59-1,.62-.14-.63.67-.25.39-1Zm1.93-.21c.19.31.35,1-.39,1,.28-.3.15-.65-.39-.62.06-.81.6.15.77-.41Zm-9.48,0c.08.43-.13.54-.19.82-.2-.13-.2-.47-.58-.41,0-.36.33-.47.77-.41Zm87-4.93c.29.11.49.3.77.41a5.79,5.79,0,0,0-.58,2.46c-.49-.76-.18-2-.19-2.87Zm10.25-9.44c-.15.41-1.25.11-1.16-.41.68-.38.64.16,1.16.41Zm-3.87-1.64a1,1,0,0,0-.19.62c-.71-.21-.81-.12-1-.62.45-.06.8-.4,1.16,0Zm1.74-1.23c.5.84-.89,1.5.19,2.05-.37-.39-.35.12-1,0,.07-.35-.15-.39-.39-.41.22-.25.55-.37.39-1,.26-.21.72-.19.77-.62Zm-1.35-6.77c0-.24.35-.17.58-.21,0,.52,0,1.06-.58,1-.26-.47.5-.77,0-.82Zm-3.48-1.64c.09,1.19-.59.28-1,.21,0,.39.22.45.19.82a4.35,4.35,0,0,1,1.74.41c-.08.4-.75.16-.58.82.62-.3,1.73-.08,2.13-.61-.3-.59-.9.43-1.16-.21.37-.6,1-.17,1.35-.41.36-.39-.11-.37,0-1-1-.09-.11.62-.58.82-.37-.62-.77-.37-.77,0-.67,0-.89-.56-1.35-.82Zm-6-2.87c.7-.2.27.81.39,1.23-.19,0-.15-.25-.19-.41s-.18.08-.19.21c-.53-.43.52-.36,0-1Zm2.51-3.49c.42.3,1.19.89,1.74.41,0-.39-.22-.45-.19-.82-.81.2-.95-.09-1.55.41ZM183.94,44c.43.21.15,1.37-.39,1.23-.15-.71.21-.87.39-1.23ZM176,42.36h.77c-.09.58-.73.59-1.16.82,0-.41.53-.26.39-.82Zm7.16-.82c.56.71.45,2-.58,2.05.28-.78-.53-.39-.39-1,.16,0,.18.08.19.21.35-.31.45-.89.77-1.23Zm-1.74-2.67c-.06.49-1,1.09-.39,1.64,0-.53.82-1.3.39-1.64Zm-.58-2.05c-.63,1-1.05.6-.77,2.46,1.54,0,.38-1.67,1.35-2.26a.87.87,0,0,1-.58-.21Zm-.77-1c-.16.44-.5.7-.39,1.44a1,1,0,0,1-.39-1c.38,0,.25-.56.77-.41Zm-5.8-7c.33-1.27-.13-.73-1-1,1.47-1.75,1-.32,1.74,1.23a1,1,0,0,0-.77-.21Zm-2.9-6c-.52,0-.93.47-.58.82.51.06.5-.43.58-.82Zm-83-3.08c-.22.22-.07.95.19,1.23.16-.15.52-1.42-.19-1.23Zm66.53-2.05c.32-.59.78.38.77.82-.66.15-.32-.76-.77-.82ZM84.72,15.67c.45.31.3.5.19,1-.15-.32-.61-.31-.58-.82.22,0,.35,0,.39-.21Zm82.2-.62c-.11.27-1,1.3-.19,1.23-.17-.25.68-.82.19-1.23Zm-17.21.2c.13-.62.41.2.77,0-.4.19-.16,1.06-.77,1-.12-.37.57-.85,0-1ZM157.63,14c-.11.71-1.21.36-1.35,1,.38,0,.25.56.77.41-.26-.83,1.31-.78.58-1.44Zm-67.5-.62c.31,2.59-.7,4.08.77,5.13-.58-.84,0-4.23-.77-5.13Zm63.63-.2a1.06,1.06,0,0,1,.19,1.44c-.43-.09-.08-1-.19-1.44ZM166.92,13c-.46.26-.55.92-.77,1.44.48-.12,1.1-1.14.77-1.44ZM85.3,13c.28.61-.68,1.25.19,1.23.3,0,.42-1.52-.19-1.23Zm66.53-.21c.82-.07.17.89.19,1.23-.64-.12-.28-.78-.19-1.23Zm-67.89,0c.55.1.56.78.77,1.23-.46,0-.57-.35-1.16-.21.08-.39.55-.37.39-1Zm60.34-.21c.71.29.87-.11,1.35.41-.21.41-1.6.35-1.35-.41Zm-57.63,0c0,.23-.21.32-.39.41,0,.51.3.64.58.82-.38-.52.2-.94-.19-1.23Zm8.9-3.69a.87.87,0,0,0,.58.21c-.09.78.08,1.28.58,1.44a1.1,1.1,0,0,1-1.16,0c-.09-.91.27-1,0-1.64Zm69.24-.2c-1.32.19-.84,1.87-1.35,2.46a.88.88,0,0,1,.58.21c-.09-.64.49-.73.77-.41.15-.88-.19-.89,0-2.26Zm-64.4,0c.5-.06.83.07.77.61-.54.21-.82.23-.77-.61Zm-2.52,0h.77a1.4,1.4,0,0,1,.19,1c-.85-1,0,.29-.77.41a3.56,3.56,0,0,0-.19-1.44Zm62.86-.41c.59.13.76.7,1.35.82.3.73-.66.12-.58.62-.34-.38-1.18-.9-.77-1.44ZM88.2,5.62a.71.71,0,0,1,.19,1.23c-.33-.36,0-.54-.19-1.23Zm-.77,1c-.35.23-1.31.86-.39,1.23-.45,1-.81-1.33-1,0-.44-.2-.7.07-.77-.82-.69.15,0,1.81-1,1.64-.19-.46.14-2-1-2.05-.09-.39.6-.88-.19-.82.93-.77,2.32.28,2.71.82.54-.7.8-.22,1.55,0Zm22.63-1.85a.92.92,0,0,1,.39.82c-.33-.08-.37.16-.39.41,0,.46.49-.27,1,0-.12.18-.23.37,0,.41-.38.5-.9-.32-1,.62-.72.22-.55-.51-1.16-.41a6.42,6.42,0,0,0,1.16-1.85ZM105.41,6c-.11-.87,1-.4.77-1.44-.55.13-1.55,1.16-.77,1.44Zm-2.9-1.64c.7-.19.27.81.39,1.23C102.49,5.45,102.14,4.77,102.51,4.38Z"/><path class="cls-2" d="M162.59,90.42q0-5.6-.09-11.19l-4.19.06a12,12,0,0,0-4.94-5.12c-2.85-.85-8.43-.08-12.62-.47-1.12,1.26.13,3.87,2.09,4.3,2.38.39,6-.1,8.55.29l.29.58-18.11-.23c-1.13-.81-2.23-2.08-4-3.66a3.57,3.57,0,0,0-6.1.12c2.69,2.82,5.53,6.54,8,8.46a45.06,45.06,0,0,0,6.45.12l.67.67a56.28,56.28,0,0,1-6.34-.06,6.6,6.6,0,0,0,3.08,3.08,13.57,13.57,0,0,0,3.55-.09l.67.52a19,19,0,0,1-3.81.17,6.45,6.45,0,0,0,3.08,3.17c1.71.3,14.88.46,15.38-.15a1.89,1.89,0,0,1,1.45-.87Z"/><rect class="cls-3" x="161.78" y="78.91" width="3.26" height="17.91"/><rect class="cls-4" x="163.52" y="77.34" width="12.91" height="21.98"/><circle class="cls-3" cx="167.42" cy="96.82" r="1.34"/><path class="cls-2" d="M138.64,8.61l.36.78,1.05,0a1.44,1.44,0,0,1,1,.9,35.58,35.58,0,0,0-5.5-.39c-4.89,0-8.86.81-8.86,1.8,0,.44.77.84,2,1.15a1.42,1.42,0,0,0-.51,1c1.32,0,2.57-.09,3.89-.12l.34-.12.4-.15c.85.05,1.75.08,2.69.08a39.52,39.52,0,0,0,4-.19,2.08,2.08,0,0,1,.74.61c.8,1.29-.06,3.16-3.89,2.83.42.66.19,2-1.68,2l-12.93.72-1-9.56,4.63-2.71Z"/><path class="cls-5" d="M149.93,49.09l.44-.14q-.2.75-.44,1.43V49.09Zm0-2.06v-2.5c.46-.12.89-.25,1.28-.39l0,.23q-.13,1.21-.32,2.3h0c0,.08-.32.2-.91.34Zm0-4.67V37.15q.19.43.36.87a9.16,9.16,0,0,0,3-3.24,17.23,17.23,0,0,0,1.94-7.29c0-.1,0-.19,0-.28a6.4,6.4,0,0,0-1.5-4.28,4.89,4.89,0,0,0-3.7-1.58h-.12V19.23h.12a7,7,0,0,1,5.25,2.28,8.49,8.49,0,0,1,1.91,5.69c0,.12,0,.23,0,.35a22.2,22.2,0,0,1-2,8.28,17.2,17.2,0,0,1-4,5.59q0,.3.06.6A10,10,0,0,1,149.93,42.36ZM143.4,58.64c.87.37,1.38.82,1.38,1.29,0,1.3-3.71,2.35-8.29,2.35V50.43a68.69,68.69,0,0,0,11.13-.81,20.07,20.07,0,0,0,2.31-.53v1.29a15.06,15.06,0,0,1-6.53,8.25Zm6.53-39.41v2.11A5.18,5.18,0,0,0,146.3,23a6.66,6.66,0,0,0-1.68,4.33,14.73,14.73,0,0,0,.16,3c.49.58,1,1.14,1.58,1.73.37.39.46.55.84,1a16.14,16.14,0,0,1,2.72,4.16v5.21c-.6.13-1.37.28-2.27.43a69.15,69.15,0,0,1-11.17.8V13.08a37.61,37.61,0,0,0,6.56-.51c1.58-.29,2.68-.76,3.06-1.36a.92.92,0,0,1,.2.54,1.07,1.07,0,0,1-.38.75c-.82.88-3.41,2-3.74,5.23a20.45,20.45,0,0,0,0,7.62c.32,0,.64-.3.9-1.07a7.84,7.84,0,0,1,1.68-2.74,7.28,7.28,0,0,1,5.16-2.32Zm0,25.3V47c-.63.15-1.56.34-2.71.54a66.45,66.45,0,0,1-10.73.77V45.77a71.53,71.53,0,0,0,11.59-.84c.67-.12,1.28-.25,1.85-.39ZM136.49,11.76a36.38,36.38,0,0,0,6.32-.48,6.61,6.61,0,0,0,2.13-.56,6.6,6.6,0,0,0-2.13-.56,36.39,36.39,0,0,0-6.32-.48Zm0,50.51c-4.58,0-8.29-1-8.29-2.35,0-.45.45-.87,1.23-1.23a14.56,14.56,0,0,1-6.54-8.35V49.07a19.92,19.92,0,0,0,2.38.55,68.78,68.78,0,0,0,11.18.81h0V62.28Zm0-52.59v2.08a36.38,36.38,0,0,1-6.32-.48,6.61,6.61,0,0,1-2.13-.56,6.6,6.6,0,0,1,2.13-.56,36.39,36.39,0,0,1,6.32-.48Zm0,3.4a37.61,37.61,0,0,1-6.56-.51c-1.58-.29-2.68-.76-3.06-1.36a.92.92,0,0,0-.2.54.86.86,0,0,0,.11.42c.32,1,3.59,1.88,4,5.57a20.45,20.45,0,0,1,0,7.63c-.35,0-.72-.21-1-1.08a7.84,7.84,0,0,0-1.68-2.74,7.28,7.28,0,0,0-5.16-2.32v2.11A5.18,5.18,0,0,1,126.52,23a6.66,6.66,0,0,1,1.68,4.33,14.49,14.49,0,0,1-.19,3.14c-.4.47-.84.93-1.29,1.4l-1,1.11a15.79,15.79,0,0,0-2.79,4.28v5.1c.61.13,1.41.29,2.34.45a69.24,69.24,0,0,0,11.22.8h0V13.08Zm0,32.69v2.57h0a66.54,66.54,0,0,1-10.77-.77c-1.2-.21-2.16-.4-2.79-.56v-2.5c.58.16,1.23.29,1.92.41a71.62,71.62,0,0,0,11.64.84Zm-13.6,4.58q-.22-.68-.41-1.42l.41.13v1.28Zm0-31.12v2.11h-.12a4.89,4.89,0,0,0-3.7,1.58,6.4,6.4,0,0,0-1.5,4.28c0,.09,0,.18,0,.28a17.24,17.24,0,0,0,1.94,7.29A9.14,9.14,0,0,0,122.57,38q.15-.4.32-.79v5.1a9.31,9.31,0,0,1-1.22-.33q0-.28.05-.55a17.05,17.05,0,0,1-4.08-5.63,22.2,22.2,0,0,1-2-8.28c0-.12,0-.24,0-.35a8.49,8.49,0,0,1,1.91-5.69,7,7,0,0,1,5.25-2.28Zm0,25.28V47c-.54-.14-.84-.25-.84-.32h0q-.18-1.08-.31-2.27c0-.09,0-.18,0-.27Q122.23,44.34,122.89,44.51Z"/><path class="cls-6" d="M107.23,39.57,107,26c.37-.1.75-.21,1.32-1.2L117.1,8.71c.38-.65.73-1,2.17-1.68l4-1.74c1.15-.48,1.3-.39,3-.12l13.23,1c1.61.51.53,3.52-1.53,3.55-1.36.26-7.12-.8-11-.78-1.62-.11-3.32.28-3.55,1l-.78,2.35c0,1.85.57,2.8,1.8,2.89,1.31-.15,2.67-.5,4.06-.57,1.56-.11,5-1.45,7.43-2.32s3.73,2,2,3.25c-2.74,1.33-5.26,2.32-7.76,3.25-1.44.92-2.95,1.9-3.61,3.85a16,16,0,0,1-9.08,10.77Z"/><path class="cls-7" d="M127.38,21.1c0-.34-3.65,5.07-4.09,5.58A52.11,52.11,0,0,1,116.56,34h0l.89-.53a16,16,0,0,0,9.08-10.77A5.41,5.41,0,0,1,127.38,21.1Z"/><path class="cls-8" d="M139.63,6.15l-3-.21c-.09.22,0,.44.33.66l2.53.15A.7.7,0,0,0,139.63,6.15Z"/><path class="cls-8" d="M137,12.64a8.63,8.63,0,0,0-2.36,1.07,3.24,3.24,0,0,0,1,1.88,6.59,6.59,0,0,0,2.56-.93A1.65,1.65,0,0,0,137,12.64Z"/><rect class="cls-9" x="104.35" y="22.43" width="3.08" height="18.11"/><rect class="cls-10" x="93.77" y="21.91" width="12.09" height="20.75"/><circle class="cls-3" cx="103.02" cy="39.64" r="1.05"/><path class="cls-6" d="M103.37,64.92l1.42-12.27c3.13-.69,6.31-1.84,9.39-2.07,3.31-.12,7.56-.26,11.36-.09,5,.23,10.79,2.23,16.14,3.22a1.91,1.91,0,0,1-1.07,2.93c-1.63.77-3.93.45-5.82.14-2.68-.43-5.37-.52-8.05-1-1,.07-1.08.34-1.16,1.41-.13,1.76.84,2.28,2.71,2.39l18.42,1.47c1.76.5,1.09,3.82-.62,3.52l-13.91.3L121.85,69.1l-4.92,0-6.3-3.28Z"/><polygon class="cls-11" points="129.8 65.6 132.39 64.93 124.19 65.23 129.8 65.6"/><path class="cls-8" d="M141.76,53.85l-2.55-.5a1.55,1.55,0,0,0,.07,1.62,2.71,2.71,0,0,0,2.26.61A1.69,1.69,0,0,0,141.76,53.85Z"/><path class="cls-8" d="M146.81,64.49a1.89,1.89,0,0,0,.75-2.19c-.8,0-1.52-.05-2.32-.05a1.54,1.54,0,0,0-.78,2.22C145.21,64.52,146.06,64.43,146.81,64.49Z"/><polygon class="cls-11" points="123.99 67.89 126.59 67.23 118.38 67.53 123.99 67.89"/><rect class="cls-9" x="101.66" y="51.82" width="3.08" height="18.11"/><rect class="cls-10" x="91.08" y="51.29" width="12.09" height="20.75"/><circle class="cls-3" cx="100.32" cy="69.03" r="1.05"/><path class="cls-11" d="M2,6.2c0-1.3.11-2.62.23-3.92l-2-.19C.11,3.44,0,4.81,0,6.16l2,0Zm56.33,56-13-7.89A13.55,13.55,0,0,1,46,59.67l-.35,1.47.14,0a13.52,13.52,0,0,1-2.19,5l14.69-4ZM40.47,57.58c-1.24-.42-2.48-.88-3.69-1.38L36,58q1.88.78,3.81,1.42l.65-1.89Zm-9-3.88q-1.74-.92-3.42-2L27,53.45q1.73,1.06,3.53,2l.94-1.76Zm-8.29-5.28q-1.57-1.19-3.05-2.48l-1.32,1.51q1.54,1.33,3.15,2.57l1.21-1.59Zm-7.28-6.58c-.89-1-1.75-1.95-2.57-3l-1.56,1.25c.85,1.06,1.74,2.08,2.67,3.07l1.47-1.36Zm-6-7.75c-.71-1.1-1.36-2.23-2-3.39l-1.76.94c.65,1.2,1.33,2.37,2.06,3.51L9.86,34.1ZM5.4,25.38c-.48-1.22-.91-2.45-1.29-3.7l-1.92.57c.39,1.3.85,2.58,1.34,3.85l1.87-.72ZM2.74,16c-.22-1.3-.4-2.58-.53-3.89l-2,.19c.13,1.36.32,2.69.55,4Z"/></g></g></svg>