<svg xmlns="http://www.w3.org/2000/svg" viewBox="0 0 130.91 128.4"><defs><style>.cls-1{fill:#f4f3f0;}.cls-1,.cls-2,.cls-3,.cls-4{fill-rule:evenodd;}.cls-2{fill:#29590a;}.cls-3{fill:#fff;}.cls-4{fill:#b2b2b2;}.cls-5{fill:#ddd;}</style></defs><title>Ресурс 4</title><g id="Слой_2" data-name="Слой 2"><g id="description"><path class="cls-1" d="M85,9.26c.44.11.4,1.67-.45,1.19.23-.31.22-.87.45-1.19Zm6.5,103.24c.75-.84,1.4,1.38.9,1.9-.8.14,0-1.42-.9-1.19,0-.41.38-.62,0-.71ZM18.84,86.87c.53,0,.66-.41,1.34-.24-.09-.46-1,0-.67-.95-.19,1.34-.94-.23-1.57.48-.5-.47,1-.84.45-2.14-.12-.54-.35.29-.67-.24.13-.65.56-1,.67-1.66.71-.12.51.73,1.35.47,0,.63.12,1.4-.45,1.42.06.49.6.47.9.71-1.23,1,.84,1.91,1.12,2.85-.59.07-1-.09-.9-.71-.38.9-1.14.15-2,.24v-.95a.65.65,0,0,1,.45.71Zm53.57,39.87c.29.08.35.42.67.47,0,.4-1.59.17-.67.71,0,.34-.67.08-.67.48-.76-.67.81-.87.67-1.66Zm-30.26-8.54c.37.48,1,.68.9,1.66-.38-.09-.42.18-.45.47,0-1.11-.42-.65-.45-2.14Zm-1.79,1.66c.17.05.26.2.22.47.72-.3,1.62-2.29.9-2.61-.07,1.16-.23-.36-.67-.24a6.39,6.39,0,0,1-.22,2.37c0-.13-.18-.27-.22,0Zm64.55-7.36c.25-.32.05.66.45,1.19-.18-.17-.61-.37-.67,0-.68-.29.16-.91.23-1.19ZM93,110.6c.13.49-1,.81-.45.95.46-.48.6-.06.9.24.26-.7.13-.88-.45-1.19Zm28.24-9c.35.08-.2.42.22.47-.9.15-1.21.93-1.57,1.66-.79-.19.68-1.11,0-1.19.29-.49,1.26-.25,1.35-.95ZM24.44,99.92c.42.42.69,1,1.12,1.42-1.33.33-.73,1.39-2,1.9.91-1-.67-.68-.67-1.42.71,0,1.34-.17,1.35-.95.32.05.08.71.45.71.78-.54-.53-.84-.22-1.66Zm-1.12-2.37c.89-.48,1.11,1.43,1.57,1.66-.68.55-.81-1.5-1.57-1.66ZM22,96.83c.3.07.19.59.22.95-.51-.56-.67.3-.9.71-.41-.28-.18-1.24-.45-1.66.62.07.94,1.38,1.12,0Zm-.67-4c.64.27.52,1.34.9,1.9-.59.17-.75-.74-.9-1.9Zm-4.48-5.22c.28.33,1.18,0,.9.95h1.12c0-.59,0-1.15-.45-1.19,0,.36.08.88-.22,1-.31-.14,0-.91-.45-1-.06.83-1-.43-.9.24Zm6.5-.47c0,.34,0,.67.22.71-.5.92-1.49.15-2-.24-.07-1,.47-.13.9-.24a8.24,8.24,0,0,0,0-2.61c1-.16.6,1.1.67,1.9.1.53,1.1.1,1.57.24,0,.28,0,.42.22.47,0,.29-1.27-.06-1.57-.24ZM7.18,67.4c-.57-.32.54-.83.45-1.42.65.66,0,1.66.45,2.14-.35.88-.64-1.49-.9-.71Zm.9-4.51c.13.64-.15,2,.22,3.09.09-.88.13-1.32.22-2.61-.49.14-.55-1.12-.45-.48ZM121.5,21.12c.06-.42-.21-.49-.22-.24-.66-.56.33-1.38.67-1.66.51.47-.16,1.72-.45,2.14-.25,0-.12-.24,0-.24ZM24,18.51c1.27.46-1.24,1.34.45,1.66-.23.58-1-.46-.9.71-.6.42-.43-1-.67-.24-.85-.25,1-.8,0-1.19,0-.38,1.36.27,1.12-.95ZM72.41,125.08c.51.11,1.35-.6.67-1-.39.47.23-1-.67-.95a5.48,5.48,0,0,1,0,1.9Zm-18.15-1.19c-.5,0-.61-1.54-1.12-.71.58.06-.31.41,0,.95.59-.24,1.49.12,1.12-.24Zm9.86-.71a.65.65,0,0,1,.45.71c1-.26.9.63,1.57.71.09-1.14.08.28.67,0,.57-1.69-2-.86-1.79-1.9-.51-.07-.84.06-.9.47Zm4.26-.47c.31-.31.39-1.42-.22-1.42-.31.3-.39,1.42.22,1.42Zm2.91-1.42c-.22-.4-.7-.52-1.12-.71,0,.48.77,1.37,1.12.71Zm-5.6.71c.57-.5.7-1.47,1.57-1.66-.47.61-.48,1.71-.9,2.37-1,.08.86-1.36-.67-.71Zm-2.24-2.37c0-.36.08-.88-.22-.95-.67.2-.26,1.55,0,2.14.87-.07,1.37-2.38.45-2.85,0,.82.32,1.12-.22,1.66Zm-2-1.66c.63.2.58-.33,1.12-.24-.15.55-.4,1-1.12,1V118Zm3.14,1.19a9.37,9.37,0,0,1,.45-1.66c.42,1-.16,1.23.9,1.19-.16.53-1.05.79-1.34.47Zm-4-.24c.81.22.51-1.57,0-1.42-.18.82.42,1,0,1.42ZM52.46,118c-.23,0-.28.42,0,.48.1-.6.44-1.56-.22-1.9-.49.5,0,1.05.22,1.42Zm45.72-2.37c1-.35,1-.48,1.35-1.66h-.67c.12.92-.57,1-.67,1.66Zm-17.93-.71c0-.27.25-.37.45-.48,0,.29.07.56.45.48,0-.61-.41-.83-.67-1.19.24.61-1,.83-.23,1.19Zm-29.81,1.19c-.07-.47.3-.47.45-.71-.47-.29-.14-1.43-.67-1.66.45.88-.36,1.63.22,2.37Zm33.85-.24c0-.32,1.14-.47.45-.71-.11.49-.12-.89-.45-1.42.14,0,.27,0,.22-.24-.83-.22-.41,1.25-.22,1.42-.3,0-1.24-.44-.67,0s.37.16.67.95Zm-5.16-.47c-.58-.33,0-1.45,0-1.9.66.42-.13,1.26,0,1.9ZM76.89,113c.69.31,1.27-.67.67-.95-.09.46-.87.19-.67.95Zm22-.24c-.71.11-.17-1.09-.67-1.19-.51.62.17,1.81.67,1.19Zm-8.74.24c.1-.89.93-1,.45-1.9-.66.81-2.94.94-1.57,2.61,1-.14.54-1.19,1.12-.71Zm-8.29-.71c1.39.28,1.17-1.14,1.79-1.66.57,0,.53.88.22,1.19-.26,0-.19-.43-.22-.71-.58.42-.47,1.57-.67,2.37-.39-.21-.69-.79-.9,0-.49,0-.1-.84-.23-1.19Zm17.48-.95c.88-.54,1.33.81.9,1.66a2,2,0,0,0,1.12-1.9c-1.06.72-.43-1.12-1.57-.95.19.76-.35.74-.45,1.19Zm2.69-.24c.22-.32.61-.47.67-.95a1,1,0,0,1-.67-.24c-.13.14-.53,1.12,0,1.19Zm-25.55-1.19c.12,1.78,1.73.08,0,0ZM104,111.31c-.32-.82.25-1.12-.22-1.66-.19.2-.62,1.85.22,1.66ZM86.31,112c-.68-.47.57-1.81.23-2.85.75.42.41,1.48,1.57.95a1.17,1.17,0,0,0-.23.71c-.7-.36-1.24.07-1.57.71A.62.62,0,0,0,87,112c-.38.38-.09,1.49-.9,1.42,0-.34,0-.67-.22-.71-.61-.17.16,1.12-.45.95-.7,0-.15-.83-.9-1.19.15-.24.51-.25.45-.71.35.68.44.15,1.34.24Zm-6.05-1.66c-.27,0-.14-.26,0-.47-.4,0-.52-.24-.45-.71h-.67c.31.68-.61,1.21,0,1.42.22-1.48.86.19,1.12-.24ZM67,108.46h.9c-.16-.73.23-.86.23-1.42-1-.24-.72,1-1.12,1.42Zm1.57-3.09c-.47-.07.33-.64-.45-.71-.35.18-.33.75-.9.71-.26.49.35,1.13.45.48-.62-.35.71.15.9-.48ZM111.41,104c.86.36.95-2.1.67-1.42-.2.5-.68.7-.67,1.42Zm2-2.37c0-.76,1.5-1.08.67-1.9v.71h-.67c.29.59-.5,1.15,0,1.19ZM119,99h-.45c.07-.32.32-.45.22-.95-1.39.3.4,1.26-.67,1.9h.45c0,.15,0,.28.22.24.07-.86,1.6-2,.67-2.37-.12.42-.11,1-.45,1.19Zm.9-.24c1.16.15-.52.47-.45,1,.51.33.84-.61.9,0a2.55,2.55,0,0,1-1.79.71c.47,1.2-.42,2.4-.9,3.32,1.56-.39,1.54.51,1.57,1.19.63-.47,1.23-1.33,2-.95-.54-1,.3-.42.67-.95-.69-.82.93-2.42,0-3.09,0,.29-.07.56-.45.47.3-1.26-.33-1.72.67-2.37-.18-.05-.26-.2-.23-.48-1.28.58-1.15.3-2,1.19Zm-90.11-1.9c.53,0,.66.41,1.34.24.35-.84-.76-.14-.67-.71,0-.37,0-.82-.45-.71.19.67-.32.62-.22,1.19Zm7.84-2.14c1.05.07.6-1.1,0-1.19V94.7ZM35,94.94c0-.28.35-.26.67-.24-.66-1.12.82-.94.22-1.66-.42.36-.51-1.67-1.34-1.66-.51.53.76,1-.22,1.42.46.48.6.06.9-.24.83.8-1.08,1.58-.22,2.37Zm-7.84-1.42c0-.8-.41-1,.22-1.42,1-.31.71.67,1.12.95.52-.52.36-.79,0-1.42-.87.15-1-.22-1.57.24.25.31-.69,1.39.22,1.66Zm7.62-2.37c.71,0,.44-1,.9-1.19-.42.23-.75-.71-.9,0,.5,0-.29.6,0,1.19Zm-2-2.14c.52-.17,1.91-.65,1.79.47-.38.09-.42-.18-.45-.47-.87-.21-.37,1-1.34.71V89Zm-6.28-.48c0,1.33,1.09,1.19.22,2.37.46.41.44-.18.9.24-.73-.9.65-2.58-.45-3.09-.16,1,.05,1.47-.67.47Zm6.05-.95c.35.39.87-.08,1.34-.24,0-.59,0-1.15-.45-1.18,0,.83-.76.78-.9,1.42Zm-8.29-4c.53-.08.84-.38,1.57-.24-.07-.8-1-.67-1.79-.71-.05.45.25.52.22.95ZM23.1,79.27c-.07.63.47.61.9.71,0-.64-.51-1.14-.9-.71Zm-3.36,0c.11.54.44,1.21,0,1.66.85.11,1.4-.1,1.57-.71-.94.28-.4-1-.9-1.19,0,.28-.35.26-.67.24Zm2,.71c-.85.19-.29-1.12-.45-1.66.64,0,.41,1,.45,1.66ZM17.5,77.61c.15-.71.48.23.9,0-.19-.67-.29-1.43-.9-1.66.19.62-.68,1.3,0,1.66Zm-.22-8.55c-.35-.1-.19-.75-.9-.47-.18.57-.33,1.73.45,1.9-.17-.6-.33-1.09.22-1.42,0,.13.18.27.22,0ZM15.48,67.4c.91-.25.37-1,1.35-1.42a1.41,1.41,0,0,0-1.12-.24c-.31.31-.22,1-.22,1.66ZM9.65,59.33c.35.06.16.52,0,.71.67-.08.89-.64,1.12-1.19-.56,0-1.09,0-1.12.47Zm4.26,3.56c-1.33,0-3.12-3.38-3.14,0-.73,0-.48-1.08-1.57-.71.09.46.87.19.67.95-1,.23-.62-.93-1.12-1.19.64-2-.37-2.42-.45-3.8.67-.93.35,1.19,1.12.95-.17.56-.44,1.64,0,2.14A3.39,3.39,0,0,1,11,60.28c-.64.65.44.54.67.95.3-.07.19-.6.22-.95-.22,0-.17.29-.22.47-.39-.06-.51-.41-.45-.95.4.05,1.12-.24.9.48.2-.11.4-.21.45-.48-.24-.79-.68,0-1.34-.47.16-.73-.39-.7-.22-1.42,1.2.59,1.32-.07,2.91.48v1.19c.22.58.9-1,1.34-.24a2.65,2.65,0,0,1-2.47,1c-.06.38.21.41.22.71.08-.26,1-1,.9,0,.44-.16.51-.72.9-.95.41,1.54,2.6-.18,2.91,1.9-.55-.15-.88-.06-1.12-.95-.5-.11-.69,1.29-.22,1.43-.45.69-.73-.79-.67-1.43-.68-.09-.46.77-.67,1.19,1,.23.89,1.59,1.79,1.9a9.33,9.33,0,0,1-4,.24c0-.65-.37-.48,0-.95.72-.29.17.77.9.47.34-.21-.06-.36.22-.95Zm1.34-4.51c1.22,0,.25.56.45,1.66.75.35,1.5,0,.9-.71-.62,1.13-.42-1.24.23-1.42-.69.17-.66-.41-1.35-.24a1.16,1.16,0,0,1-.22.71ZM8.31,55.77c0,.28-.35.26-.67.24,0,.59,0,1.15.45,1.19,0-.29.07-.56.45-.48-.13-.42.27-1.4-.22-1.42v.47Zm2.91-.71c-1.27-.56-2.65,1-1.57,2.61.12-.86,0-1.47.9-1.9,0,.6.41.83.67,1.19.08-.63,1.14-.21,1.34-.71-.26,0-.24-.38-.22-.71-1,.44-.38-.15-1.12-.48ZM119,50.55v.71a1,1,0,0,1,.67.24,1.17,1.17,0,0,0-.23-.71c.27,0,.53-.07.45-.47-.42-.05-.49.27-.9.24ZM13.68,48.65c-.77-.48-.82-.5-.9-1.42-.69.17-.43.17-1.12,0-.23,1.79,1.54,1.41,2,1.42Zm-11-1.9h.67c-.05-.42.23-1.19-.45-.95-.07.32-.32.45-.22.95Zm9.19-1.19c.18.05.26.2.22.47.72.09,1.28-1,.45-1.19.35.84-.76.14-.67.71Zm1.79-1.19c.7.1.13,1.92-.45,2.14-.29-1.18.54-1.17.45-2.14Zm.22,1.19a3.16,3.16,0,0,0,.9,1.9c-.4-1,.74-2.51.22-2.14-.15.32-.6-.12-1.12.24Zm101.76-.48c.54.1.49-.43,1.12-.24,0,.18,0,.47.22.47v-.95a.62.62,0,0,0,.67-.48c-.8.63-2.09.12-2,1.19Zm-10.54.24c-.12-.9-.87-1.13-1.57-1.42.4,1.45-1.2-.37-.9,1.19.76,0,1-.55,1.34-.95.29.49.36,1.2,1.12,1.19ZM7.86,44.62c-.62.35.39,1-.22,1.19-.38-.67-.88.09-.9-.71-.69.17-.43.17-1.12,0,.35.84-.76.14-.67.71.33,0,.83-.08.9.24-.46-.06-1.09.87-.45,1.19.31-.15,0-.91.45-.95.59.64.6,0,1.79.47,1.06-1,.29-3.87-.67-3.8.59.24.26,1.47.9,1.66Zm-1.35.24c-.27-.42.16-1.56-.22-2.37.67.33.47,1.72.22,2.37Zm6.95-1c0-.88-.1-1.63-.9-1.66-.27,1.15.79.9.9,1.66Zm96.61-1.42c.29.31,1.19.05,1.35-.48-.64,0-1.14.06-1.35.48Zm-6.72.47c.11-.42.24.1.45.24.5-.71.26-.83.22-1.9-.72-.14-.69.45-1.12,0a1.43,1.43,0,0,0,.45,1.66ZM15,42c-.38,0,.48-1.68-.45-1.66,0,.24-1,.48-.22.71,0-.14,0-.28.22-.24-.14.58.15,1.86.45,1.19ZM7.86,40.59c.7,1.69.27,1.37-.22-.71,0,.31-.39.22-.45.48.31,0,.57,0,.67.24Zm101.54.24c0-.54,1.08-1,.45-1.42-.36.31-1.47,1-.45,1.42Zm-6.95-.47c0-.19.19-.28.45-.24-.07-.55-.23-1-.67-1.19.43.59-.34,1,.22,1.42Zm3.81.24c-.59-.64.77-1.23.45-2.37a2.68,2.68,0,0,0,1.79.95c0,.81-2.19,0-2.24,1.43ZM14.13,39.16c-.15-.71-.27-1.45-.9-1.66-.09,1,.08,1.65.9,1.66Zm89-.47c.31-.33.21-1.43-.45-1.43-.57.6.1,1.1.45,1.43Zm4.48-.24c1.4-.39,2-.23,3.14-.95-.89.08-1.66,0-2-.47-.24.62-.84.85-1.12,1.42Zm-2,.24c.5-.52-.39-.79-.45-1.43a1,1,0,0,1,.67.24c-.66-.94.85-.64.22-1.42-.66.17-.66.8-1.12,0,0,1.12,0,2.25.67,2.61ZM17.94,38c-.83-.31-.24-2.12-1.35-2.13.44.57.48,2.8,1.35,2.13Zm-4.71-.71c.65-.46-.51-1.65-.67-1.19.51.1,0,1.3.67,1.19Zm98.18-1.42c.71.58.88-1,2-.71.23-.71-.5-.42-.9-.47,0,.82-1.14.38-1.12,1.19Zm-2,.24c.35-.66,1.48-.48,1.57-1.42.64.39-.11,1.29-.22,1.66-1.07-.42-.85.5-2.24.24.19-.67-.32-.61-.22-1.19.63,0,.52.71,1.12.71Zm-4.26-.71c-.34.72-1-.2-1.57,0,.2.42,1,.39.45.95a3.82,3.82,0,0,1-1.34-1.9c.56-.31,1.09.53,1.12,0,.71.55.31,1,1.34.95Zm-90.33.95c-.36-1-.19-2.48-.9-3.09a4.83,4.83,0,0,0,.9,3.09Zm82.93-2.14h.67c-.3-.39.08-1.51-.67-1.42a1.74,1.74,0,0,1,0,1.42Zm3.59-1.9c-1.52-1.2-2.79,1-2.91-.47-.38-.09-.42.18-.45.47-.33-.28-1-.21-.9-1,.5-.13.32.45.67.48.35-.21.12-.87,0-.95.4,0,1.31,1.64,2.69.71a3.82,3.82,0,0,0-.9-.71c.79-.67,2,.3,1.79,1.42Zm11-1.42c.3-.08.43-.34.9-.24.17-.53-.83-1-.9-.48.95.24-.79.64,0,.71Zm-13.45-.71c-.72.21-.31-.78-.9-.71,0,.15,0,.28-.22.24v.47c.42-.08,1.63.55,1.12,0ZM100.65,29c.55.24.48.08,1.35.24,0-.95-1.17-.75-1.35-.24Zm-5.38,0h1.12c0,.28,0,.67.22.71.33-1.7-.78-1.46-1.34-.71Zm-5.6-.47c0,.35-.08.88.22.95,0-.67.67-.55.67-1.19-.42-.05-.49.27-.9.24Zm16.59-2.14c-.11.74.56.67.9.95.13-.14.53-1.13,0-1.19.07,1-.31,0-.9.24ZM93.7,24.21c.23.81,1.83,1.09,1.12,2.14.64,0,1.22,0,1.12-.71-.85.21-1.05-.79-.67-1.19-.46-.39-1.08-1.12-1.57-.24Zm7.62,2.14c0,.3-.29.33-.22.71a3.12,3.12,0,0,1,2,.48c-.17.73.62.46.45,1.19-.89.58.25-.35-.67-.24-.38.47.35,1.21.67,1.66.06.54-.05.89-.45.95-.06-.49-1-.06-1.12-.47v.95c.87-.42,1,1.88.9.95-.06-.62.08-1,.67-.95.22.95.89,1.43,1.35,2.14-.06-1.55,1,.42.9-.71,0-.52-1-.1-1.35-.24.3-.59-.89-.74-.22-.95.3,0,.21.42.45.47.45-.48.06-.63-.22-1,.78-.39,1.55,0,2.47.48,1.71-.43,1.52-1.51,2.69-2.61,1.69.65,3.4-2.22,4.93-.95-1-2.31-2.85,1-4.48,0,.29-.64.36-1.13,1.12-.71a1.16,1.16,0,0,1,.22-.71A8.16,8.16,0,0,0,108.5,28c-.06-1,.29-.92,0-1.66.36,0,1.15.8,1.34.24-.73-1.21.52,0,.67-.47-.46-.07-.21-.88-.67-.95a1.2,1.2,0,0,1-1.79.48,1.55,1.55,0,0,0,.22,1.66A12.19,12.19,0,0,1,106.93,29c-.06-.33-.49-.27-.67-.47-.25.53-.89.64-1.12,1.19-.15-.89-.74.18-.9-.71.41-.76-.85-1.78-1.57-2.13v-.48c.86-.22,1.43.39.9.95.81.12,1.11-1.66.45-1.66,0,1-1-.17-1.57.47-.06-.62.08-1,.67-.95,0,.18,0,.47.23.48-.25-.64,1.94-1.68.45-2.14,0,1.25-.36.07-.9.24.08,1.21-1.28,1.27-.9,2.14-.89,0,.07-.37-.45-.71-.3,0-1.62,0-.9.24.26,0,.64,0,.67.24-.29,1-.46-.07-1.12,0-.09.41.33.61,0,.71-.77,0,0-.62-.9-.71a1.14,1.14,0,0,0,2,.71ZM32.51,22.78c.69-.17.66.41,1.34.24,0-.31.39-.22.45-.47-.91-.16-.39-.71-.67-1.19-.73.64-.65-.65-1.12,0a2.47,2.47,0,0,1,0,1.42Zm60.07,3.56c-.15.75,0,1-.22,1.19-.26,0-.24-.38-.22-.71h-.45c-.56.92.7.35-.22,1.42-.24,0-.57.11-.23.24.91-.06.69-.16,1.35-.71,0,.68,0,1.29-.67,1.18v1.19c.42-.05.49.27.9.24a1.56,1.56,0,0,1,.45-2.14c-.24-.62-.14-1.59-.67-1.9Zm-2.91-5.22c0-.41.38-.61,0-.71.33-.71.4.81.9.71a8.76,8.76,0,0,0,.45-.95c.68.29-.24.82,0,1.42,1.26,0,1.43,1.67,1.79,1.42.66.21-.52.35-.22,1-.43-.1,0-1.09-.9-.71.44-.55.44-.64,0-1.19-.85,1.11.11,2.4,1.34,2.61.28,2.34.9,1.12,1.35,3.32-.45-.08-.7,0-.67.48-.81-.43.31-.74.45-.95-1.21-.29-.9-1.17-1.35-2.37-.23.15-.23.55-.67.48-.06-.38.21-.41.22-.71-.5.35-1.55-.29-1.79-.95,2-.26-1.23-1.89.22-2.37-.19-.35-.72-.34-1.12-.47Zm-64.55.47c1,.67,1.23-1.06.67-1.66.12,0,.25-.19,0-.24-.81,1,.33,1.23-.67,1.9Zm2.46-2.14c.23,1.19-.56,1.3-.9,1.9,1.2-.25,0,.59.9.47,0-1,.39-1.49.22-2.61-.26,0-.64,0-.67.24Zm1.35,1.42c.06-.21.83-.8.9-.24A2.39,2.39,0,0,0,30,23.26c-.21-.78.23-2.73-.45-3.56a.61.61,0,0,1-.67.47c.14-.58.45-1.22-.45-1.19.15.63.09,1.48.45,1.9Zm79.35-.47c.54-.1.49.43,1.12.24.52.43-2.33.74-1.57,1.9-.81-1.57-1.67.38-2.69-.24-1,.29.39.69-.22,1.19-.68.24-.4-.53-.45-.95-.84.59-2.83,1.3-3.59-.24-.55.24.44,1-.67.95V21.84c-.42,0-.14.8-.45.95a1.17,1.17,0,0,0-1.57-.24c-.24-.22-.07-.88-.67-.71a1.58,1.58,0,0,1,.67-.47c-.06-.49-1-.07-1.12-.48.54-.76.27-.84,0-1.66.87.22.92-.93,1.57-.24,0-.28,0-.42-.23-.48a2.4,2.4,0,0,1,1.79,0c-.3.95-2.07.35-2.24,1.43,0,.86.66,1,1.57.95.07-.87,1.24-.59,1.57-1.19.23.15.23.55.67.47-.31.46-.12,1.45-1.12,1.19-.16-.65.44-.48.45-1-.84.14-1.14.85-2,1,1.27.15,2.58.67,3.59.47.33-.2.32-.77.45-1.19-.19-.7-.72.14-1.12,0,.4-.83,2-1.25,1.79-1.42.07-.32.56-.2.9-.24,0,.61-.17.29-.45.24-.15.64.46.46.67.71-.15.47-.68.54-.9.95.78.27,3.6-1.43,4.71-1.66.91.8-2.15,1.2-.67,1.9.26,0,.19-.43.22-.71Zm-1.79-.95a4.09,4.09,0,0,0,1.35-.71c-.72.21-.47-.62-.9-.71-.39.64.16.9-.45,1.42Zm-11.66-1.9c.79,0,.06.35.45.95.8.14.68-.7.67-1.42-.56,0-1.09,0-1.12.48Zm-.22-.71c.51.07.84-.06.9-.48-.3-.07-.43-.34-.9-.24v.71Zm-69,.47c1-.17.35-.74.45-1.66-.26,0-.64,0-.67.24.36-.07.6.32.22.47,0-.13-.18-.27-.22,0,.33,0,.21.57.22.95ZM104,12.82c.22-.53.35-1.71-.22-1.66.19.85-.65,1.42.22,1.66ZM68.15,10c-.21-.59.8-1.43-.23-1.42.2.84-.58,1.22.23,1.42Zm-.45-1.9c.31-.3.35-1.16-.22-1.19-.53.16-.69,1.32.22,1.19Zm-2.91-.71c-.19-.67.32-.61.22-1.19.73.73,1.81,2.35,1.57,3.32-1-.23-.41-2.25-1.79-2.14ZM11.89,50.79c2-.31,1.17.07,2.47.48a12.68,12.68,0,0,0-.67-2.14c-.36.84-.61,1.42-1.34.71-.12.35-.33.6-.45.95ZM25.56,107c.34-.06,0-.39-.22-.48.09.57-.41.52-.22,1.19.63-.2.58.33,1.12.24.35-.93-.58-.49-.67-.95Zm49.09,18.75c-.69-.21-.67-.81-.67.47h-.67c0-.89.82-.87.9-1.66.33.2.33.76.45,1.19Zm48-27.53c.5-.74.59.94.67,1.43-1,.33,0-1.42-.67-1.43Zm-19.5-87.81a2,2,0,0,1,.23,1.9c-.52.07-.25-.69-.67-.71,0-.23.27-.18.45-.24,0-.65-.37-.48,0-.95ZM93,20.65c.34-.93-1-1.26-1.12-.95.52.16.6.79,1.12.95ZM44.39,4c.61-.74-.34-1.84-.67-2.37,0,.59,0,1.15-.45,1.19-.37-.4-.49-1.07-.9-1.42a5.63,5.63,0,0,1-.67,2.14c-.93-.84,0-2.21-1.57-2.37-.12,1.32,1,1.55,0,2.13C39.81,2.16,39.41,1.08,39,0c-.81,1.13.92,3-.22,3.8-.26-.52,0-1.53-.67-1.66-.13.42.27,1.39-.22,1.42,0-.78-.61-2.4-1.57-1.9.61.65.18,1.39-.45,2.14.35,0,.78,0,.67.47-1.7.3-.76-3.46-2-2.85.58,1.17.16,1.91.67,3.09-.22,0-.27.19-.45.24,0-.18,0-.47-.22-.48,0,.29-.07.56-.45.48,0-.24-.18-.28-.22-.48.57-.06,1-1.26.22-1.42,0,.18-.19.28-.45.24-.05.42.23,1.19-.45.95,0,1,.39,1.3-.22,1.9,0-.61-.41-.83-.67-1.19a1.26,1.26,0,0,1-.9.95c-.07-.55-.23-1-.67-1.19a2.12,2.12,0,0,0,.22,1.43c-1,.54-1.56-.45-2.47,0,.29,0,.29.66,0,.71-.34-.54-.55-.54-.9,0,.13-.56-.26-1.74-.45-1.19.35.34.2,1.21.22,1.9h-.9c0,.28,0,.67-.22.71-.19-.62.68-1.3,0-1.66.06,1.32-.27.14-.9.24-.12.34.26,1.23-.22,1.19-.53-.68-2.19.47-1.57-1.42a1,1,0,0,0-.9.48c.59.95-1.43,1.2-2,.47.29,1.1-1.12.39-.67,1.66.54.1.49-.43,1.12-.24a4,4,0,0,1-.67.95c-.26,0-.51-.42-.67,0,1.07.08-.48.71-.45,1.19a1,1,0,0,0,.67-.24v1.19C18.8,12,18.73,13.26,18.17,14c1,0,1.54.58,2.47.71.3-.55,0-1.77.9-1.66-.36.81.26,1.49.9,1.9-.48.74.07.91,0,1.9.84-.47.49.22,1.12.47V15.9c-1.27.38.18-.25-.67-.95,2.45-.24,1.22.94,2,1.9-.27-.08-1.38,0-.67.24,1.53.91.3,2.28.67,3.8-.56,0-.7-.45-.9.24.51-.07.84.06.9.47-.54.1-.49-.43-1.12-.24-.2.76.74.32.67.95a4.07,4.07,0,0,1-.67.95c.05-1-1.49,0-.45.24-.7-.16-.92,0-1.12-.24,0-.59,0-1.15-.45-1.19.13,1.18-.33,1.68.22,2.37a1.69,1.69,0,0,1,.45-.71c.78,1-.65,2.88-1.57,3.56-.49-1.21-1.44-1.25-.9-3.09.61,0,.45.39.9,0-.44-.84.29-.86.22-1.9-.85.35,0-1.06-.9-.71-.11.75.53,1-.22,1.19-.3,0-.45-1.21-.67-.47.14,0,.27,0,.22.24A5.55,5.55,0,0,1,19.06,24c.64.28.58,4.28-.9,3.56a4.58,4.58,0,0,0-.9,2.37c-.39-.37-.47-1.09-1.12-1.19-.87.58.1,1.63-.45,2.14-.43-.58-.7-1.32-1.34-1.66-.07.55-.23,1-.67,1.19-.68-1-.95,1-2.24.48.09.8-.39,1-.67,1.42a4.35,4.35,0,0,0-2.24.95c-.42,0-.16-.78-.67-.71.13,2.06-.58-.88-.45,1.19-.44-.07-.44.32-.67.47-.24-.22-.07-.87-.67-.71,0,.28,0,.67-.22.71a.65.65,0,0,0-.45-.71c-.14,1.59-1.34.75-2.69,1.19C1.65,36-1.08,38.31.46,40.11c.37,0,.13-.66.45-.71-.16.65.45.48.45.95-.48,1.22-.24.47-1.12.71,1.62,1,0,3.91.9,4.75a.62.62,0,0,1,.67-.47c1,.45.46,1.45.22,2.37.39.45.78-.41.67.71,1.07.18.39-1.48,1.12-1.66a4.12,4.12,0,0,0-.22,1.66h.9C4.62,48,4.22,47,4.72,47c-.1.95.53,1.57.9.71.67,1-.18,2.59-.22,2.85-.54-.22.14-1.73-.9-1.42,0,1.78-.78,1-.45,2.85.66-.8,1.87-1,2.24-2.14a1.7,1.7,0,0,0,.45.71c.35-1.05.41-2.41,1.35-2.85-.69,2-.57,2.26.45,4,.09-.46.87-.19.67-.95-.39-.09-.58.35-.67,0,1-.83-.87-2.43.45-3.32.12.34-.26,1.23.23,1.19a11.77,11.77,0,0,0,.45-3.09c.94,1.05.16,2.18.45,3.09,0-.43.22-.56.67-.48-.58-1.43.52-1.73,0-3.09-.44-.07-.44.32-.67.48-.21-.6-.43-1.63.45-1.66v1c.79-.67,1.21-1.93,2.24-1.19-.56,0-.69.44-1.12,0a8.42,8.42,0,0,0,.22,3.08c-.22,0-.27.19-.45.24s-.2-.42-.45-.47c-.29.54.16,1.94.45,2.61-.42.05-.49-.27-.9-.24.17.89-.27,1.14-.22,1.9.73.06.48-.92,1.12-.95,0,.31.39.22.45.48-.34.63-1.2.18-1.57,1.19.88.3.54-.69,1.12-.71,0,.31.39.22.45.48-.71.24-.27,1.77.22,2.14A2.53,2.53,0,0,1,11,54.82a2.42,2.42,0,0,0-1.57-.71c.54-.59.1-.75.67-1.19-.59.07-.58-.5-.67-.95-.84-.18-.49.91-1.12.95.87,2.61,0,1.09-1.34,1.42,0-1-.46-1.75.22-2.37.31.62.12,1.78.9,1.9-.15-.88-.68-1.49-.22-2.37-.46-.38-1.86-1.18-1.35,0,.21-.87.48,1.33,0,1.19a1,1,0,0,0-.67-1.19,29,29,0,0,1,.67,4C6,55,5.77,56,5.17,56a1.16,1.16,0,0,1,.22-.71c-.51.33-.84-.61-.9,0,.53.13-.25.71-.45.24-.22.86,1,.2.9.95-1-.42-.81,1.26-.22,1.19A.65.65,0,0,1,5.17,57c-.09.57.41.51.22,1.19-.76-.68-.91,1.44,0,1.42.13-.42-.66-1,0-1.19.25.69.9,2.2.45,2.85-.12-.42-.11-1-.45-1.19-.18.16-.5,1.32,0,1.42.42-.69.37,1.84.9.47.26.75-.35.58-.45.95.38.55.16,1.73.9,1.9-.57-1-.18-2,.23-3.09.12.34-.26,1.23.22,1.19,0-.29.25-.15.45,0V61.47c-.46-.3-1.14-.38-1.12-1.19.73-.29.17.77.9.47A3.36,3.36,0,0,0,7,58.86q.2.92-.67.71c.18-.17.5-1.33,0-1.42a1.69,1.69,0,0,1-.45.71c.25-1.29.92-1.68.22-2.85a1,1,0,0,0,.67-.24c0,.44.17.5.45.24.53,2.55.52,6.35,2.24,8.78,0-.35-.08-.88.22-.95.72.26.71,1.31.67,2.37.42-.05.49.27.9.24.18-.65.45-1.35.9-.48.61-.37-.64-1.32,0-1.66A1.3,1.3,0,0,1,12.56,66c.44.07.45-.32.67-.47a2.11,2.11,0,0,1,.22,1.42c.58-.09.41-1,1.12-1.42,0,.18.19.27.45.24-.32,2.7.53,2.34,1.12,5.22a.59.59,0,0,1-.9,0c-.23,1.43.83,1.5,1.34,2.14a8.8,8.8,0,0,1-.9,5c.42.47.82.07,1.35,0-.33.55.07,1-.22,1.19-.59-.62-.18.38-.9.24a1.15,1.15,0,0,0,.22.71c-.72-.21-.47.62-.9.71a5,5,0,0,0-.22-3.8c-.87.76-2.46.3-2.69,1.9.17.05.26.2.22.47a2,2,0,0,1,2,.24c-.11,1.3-.53,1,0,2.14-.79.13-1-.38-1.34-.71.26.75-.35.58-.45,1,.75-.24.35.74.45,1.19-1-.2-.24.37-.67.47-.17.05-.44,0-.45.24a2.81,2.81,0,0,0,2.24-.24c-.15,1.07.15,1.08.45,1.19-1,.55.18,2.38-.22,3.8H15c0,.14,0,.28.22.24.69-1.33-.29-1.57.45-2.85,0-.45-.74-.17-.67-.71-.41-3,2,.26,2-1.42-.65,0-1.14-.06-1.35-.48,1.25.06.14-.28.23-.95.3.07.43.34.9.24-1.09-3.17,3-1.42,3.81-.71.84-.43,1.65.2,2.69.24-.15,1.21.86,1.51,1.34,2.61-.39.14-1.32-.29-1.34.24.34.75,1.61.51,2,1.19-.78,1.65.52,3.35.22,4.75-1.1-.36,0-1.58-.9-2.14.33,1.21-1.37,1.2-.22,1.9a1.76,1.76,0,0,1-2-.95c.21-.26.83-.07.67-.71-1-.23-2,.52-1.12.95-1.17.35-1.82-1.06-2.69-.24.86.36,2,.41,2.69.95-1.06.1-1.47-.5-2,.24v-.71c-.49.35-1.67,0-1.79.71a1.64,1.64,0,0,1,1.57,1.42c.75-1,2.59.46,3.36,0,.05,1,1.37,2.07.45,2.61.55.21,1.22.29,1.34.95A3.29,3.29,0,0,0,23.55,93c.85.63,3.78.35,3.36,1.66.81.23.19-1.07.9-.95.62.36-.39,1,.22,1.19,0-.48,1-1,.22-1.42,0,.25-.29.19-.22-.24.83-.45.56,1.43.9.71,0-.28,0-.67.22-.71s.44,0,.45.24c.06.71-1.52.9-.67,1.66,0-.43.22-.56.67-.47-.26,1.3-.37,2.62.67,3.09.35,1.16-.82.71-1.12,1.19a1.91,1.91,0,0,1-.67,2.61c-.15-1-1.42-2.13-1.57-2.37.64.68-.46,1.74.45,2.14,0-.28.35-.26.67-.24.65,1.31,0,1.54-.45,2.61-.13-.21-.47-1.35-.67-.71.49,0,.1.84.22,1.19.39.09.58-.35.67,0-.07.8.3,2.06-.67,1.9-.36.8,1,1,.22,1.42-.24-1-1-.28-1.57-1.19.66.06.69-.54,1.35-.47,0-.86-.92-.76-1.12-1.42-.68.42.61.74,0,.95-.72-.16-.42-.79-.67-.95-.51.37-.42.49-.22,1.19-.9.31-.55.47-1.35,0-.06,1.89,1.5,2.06,2.24,3.09a.65.65,0,0,1,.45-.71c.11.74-.53,1,.22,1.19-.11-.86,1.39.11,1.57.48-.37,0-.13.66-.45.71,0-.35.08-.88-.22-.95-.41.28.12,1.55-.9,1.19a1,1,0,0,0,.67,1.19c.05-.45-.25-.52-.22-.95.51.33.84-.61.9,0s-.41.52-.22,1.19c.9-.33.79.43,1.12.71.26-.36.28-1,.67-1.19-.1.53-.52,1.29.22,1.43a12.72,12.72,0,0,1,1.34-1.9.65.65,0,0,1,.45.71c-.17.05-.44,0-.45.24,1.15.51.2-1.21,1.12-1-.35.86-.13,1.23,0,2.14-1.19-.2-.91,1.63-1.79.48.13.42-.27,1.39.22,1.42,0-.31.62-.3.67,0,.22.73-1.19.92-.45,1.42.52-.4.55-1.32,1.12-1.66.43,1-.83,1.47-.22,1.9,0-.28.35-.26.67-.24.06-.8.27-1.46,1.12-1.42a1.17,1.17,0,0,1-.22.71c.71-.11,1.1-.33.45-.71.14-.14,1.06-.56,1.12,0a5.25,5.25,0,0,0-.45,2.85,3.31,3.31,0,0,0,.67-1.19c.77.43.33,1.78-.22,2.14,1.47.13.94-1.85,1.79-2.37-.11.72-.38,2.25.22,2.61-.09-1.2.85-1.31,1.12-2.14-.22,1.28.67-.1.45,1.19.73.06.47-.92,1.12-.95.06.43-.72,1.52-.22.95.32-.53,1.14-.53.9-1.66,1.15.11,1-1.15,1.57-1.66.18.52,0,1.4.67,1.9a1.06,1.06,0,0,1,.45-.95c-.32.73,0,.92.45,1.42,0-.29.07-.56.45-.47-.11,1.12.28.44.67.24a8.7,8.7,0,0,0-.22,4.51c-.16-1.12,2.19-1.25,1.57-2.85.8-.14,1.08.27,1.57.47.09-.45.08-1,.67-.95a5.2,5.2,0,0,0,0,2.14c.75-.42.06-.74,1.35-.24.12-.86-.74-2,.22-2.37v1.19c1.2.24.56-1.47,1.57-1.42-.16.79-.74,1.58-.22,2.14a.65.65,0,0,1,.45-.71c.62.81-.63,1.9-1.34,1.19-.24-.6,1-.92,0-.95a2.44,2.44,0,0,0,0,2.37c.26-.35.19-1.06.9-.95.11.9-.09,1.48-.67,1.66a9.26,9.26,0,0,0,.45,1.66c1.45-.35,1.54.75,2.91.48v1c.72.14.69-.45,1.12,0-.26-.73.22-1.31-.45-1.9a1.21,1.21,0,0,0,.9-.24c0-.86-.56-1.15-.67-1.9.57,0,.78.44,1.12.71,0,1-.4,1.38.22,1.9-.12.45-1.07,1.22-.45,1.66.06-.37.49-.16.67,0-.07-1.34.69-1.8,1.34-2.37-.17-.05-.26-.2-.22-.47-.56-.31-.7.94-.9.24.29-.62.49-.72.22-1.42a1,1,0,0,0,.67-.24c-.26.75.35.58.45.95a3.45,3.45,0,0,0,0,1.9c1-.33,1.19.78,1.57,1.66.55-1,0-2,.67-3.09.12.42.12,1,.45,1.19.29-.74.46-.12,1.12-.47.16-.73-.39-.7-.22-1.43.66.06.77-.45,1.12-.71.2.42.08,1.18.45,1.42a1.19,1.19,0,0,1,.45-1.19v1.9c-1.32.23-.5,1-.9,1.66.61.17.45-.47.9-.47v.95c.69-.8,1.42.5.67-.71.88-.14.83.7,1.35.95.16-.47.6-.63,1.12-.71-.29.32-.3.88.22.95,1.05-.59,1.1-1,1.57-1.9-.43,3.84,1.26.15.45-.95.32-.37.3-1.11.67-1.42h.45c-.14.57.28,1.72-.23,1.9-.05-.42.23-1.19-.45-.95.3,1.15-.17,1.81.45,2.37,0-.28,0-.67.23-.71.44.44.07.87,0,1.42.44-.07.44.32.67.47a1.19,1.19,0,0,1,.45-1.19c0,.35-.09,1.94.22,1.19a5.53,5.53,0,0,0,0-1.9,1,1,0,0,0-.67.24c.26-.75-.35-.58-.45-.95.75-.22.11-.44.22-1.19.7.27.55-.37.9-.48-.16,1.07.46.63.67.24-.43,1.35.37,2.65-.22,2.37.17,1,.37,1.26,1.35.95-.07.32-.32.45-.22,1,1.23-.29,1.49,1.5,1.12-.24,1.08.13,1.86-1.56,2.24-.71.34-.36.4-1,.9-1.19.46.3,1.16.36,1.57.71-.16-1,.91-1.44,1.12-.71a5,5,0,0,1,1.12-1.9c.12.34-.26,1.23.22,1.19,1-.43.17-2,2-1.9.55-2,2.45-2.63,3.36-4.27.81.55,1.16.32,2,0a2.75,2.75,0,0,0-.45-1.9,1,1,0,0,0,.67-.24c-.24,1,1.52.5.67,1.42,1.64.56,2.16-1.08,3.59-.24a18.79,18.79,0,0,1,.22-2.61,2.12,2.12,0,0,1-3.14,1.19,3,3,0,0,0,.9-3.32c1.35-.28,1.55-2.62,2.91-2.14-.12,0-.26-.19,0-.24.81.1.73,1,.9,1.19.12-.42,1.81-.51,1.34.47,1.46.18,1-1,.67-1.66.29,0,.31-.3.67-.24.51,1.22-.33,1.46,0,2.37a38.14,38.14,0,0,0-3.81,1.66c0-.3.35-.48-.22-.47a3.23,3.23,0,0,0,1.34,1.9.87.87,0,0,1,.9-.95,1,1,0,0,0,.67,1.19,3.78,3.78,0,0,1,.9-.71c.09,1.28,1.5,1.68.45,2.85.14,0,.27,0,.22.24.25,0,.35.34.45,0-.6-.81,1.23-1.07,1.57-1.66,0,.28-.4.54,0,.71.5-.42.45-1.42.9-1.9.22,1-.25,1.32-.45,1.9,1.45.27.35-2.16,1.34-2.37,0,.59,0,1.15.45,1.19,0-.91.18-.09.67-.24-.17-1.34.21-1.18,1.12-.95.06-1-.9-1.8,0-2.37.3.91,1.06-.78,1.57-.71.36.41,1.41.09,1.35.95.9.24,1-.37,1.34-.71.24.22.07.88.67.71-.29-.94.61-.62.9-.95.09.34.27.4,0,.71.81-.56,1.75-1.54,2.24,0a.65.65,0,0,1,.45-.71c-.25,1.06.69.85,1.12,1.19a2.41,2.41,0,0,1,.9-1.66c-.1.54-.79,1.67-.22,2.14.05-1.13,1-1.31,1.57-1.9.28,1.41,3.06,0,2.24-.48,0-.27.25-.37.45-.47.39.06.51.41.45.95.83-.42.61-.72,1.57-.71,0-.59-.43-.74.22-.95,1.39.63-1.13,2.15-.22,2.14-.2-.77.73-.33.9-.71,0-.63-.12-1.4.45-1.42.72.23,2-.51,3.14.24,0-1.18,1-1.32,1.79-1.66,0,.24-.18.28-.22.48.46-.51,1.67-.21,1.34-.48-.6-.32-1.46-.35-1.57-1.19.29,0,.31.3.67.24.06-.7.31-.88,0-1.19a1,1,0,0,1-.9.48c.57-1.35-1.48,0-.22,0-.16.19-1.25.53-1.34,0,.32-.31.73-1.33,0-1.42,0,.61-.41.83-.67,1.19-.58-.88-1.08.86-1.34.24.07-.57,1.63-.79.9-1.42a.62.62,0,0,1-.67.47c.19-.92-.55-.84-.67-1.42.8-.87.77-5,2.24-4.27.06-1.25-.48-1.33.22-1.9-1.41.42-.31-.51-1.57-.71-.3-.6,1-.58.22-.95-.06.56-.84,0-.9-.24.31-.15,0-.91.45-.95,0,.18,0,.47.22.48.49-.5-.11-.68,0-1.42,1.11.1.13-.71.67-.95-.15.64.46.46.67.71-.21-1-.15-.94.45-1.42-.27-.44-1.9-.66-1.12-1.42.26.43.86.51,1.12.95a1.49,1.49,0,0,1,1.79-.95c-.51.77,1,1,1.79,1.19.55-.32-.4-.72.22-.95-.14.83.81.41.23,0,.92.26,1.11-.25,1.34-.71-.15.64.46.46.67.71V89.48c-.4-.45-1.11-.56-1.57-.95,0-.39.62-.13.67-.47-.59.28-1.32-.46-1.35,0a.65.65,0,0,1,.45.71c-1.24.17-.68-.69-1.35-.71-.42,0-.16.78-.67.71-.7-.62-.9-.3-2-.48-.05.18,0,.47-.22.48-.1-.81.67-.71.9-1.19a1,1,0,0,0-.67.24c0-.3.29-.33.22-.71-.35,0-.78,0-.67-.48.27,0,.51.42.67,0-.52-.36-.34-.58-.22-1.19-.82,0-1.36-.8-.9-2.14-.66.17-1.11.28-1.35,0,.67-.39.59-1.59,1.12-2.14-.34,0-.83.08-.9-.24,1-.41-.22-1.81.45-2.61-.94,0-1-.84-1.79-1,1.42-.88,1-.83,1.79-2.37-.57-.6-1.22.36-1.57-.48.36-.33,1.16-.2,1.35-.71-1.18.21,0-.58-.9-.71,0,.18-.19.28-.45.24.6-.89-.43,0-.45-.48s.39-.22.45-.47c-.46-.76-1.47.45-1.79-.24,1.39-.19,2.48-.7,2.69-2.14-1.74.31-3,.55-4.26-.48,2.41.69,3.54-1.14,3.81-2.85-1,.17.18-.47-.45-.47,0,.28-.35.26-.67.24.29-.94-.82-.57-.23-1.19-.42-.05-.49.27-.9.24-.32-.72.35-2.44-.67-2.61.3-.24.83-.22.9-.71-.19-.51-1.43.09-1.57-.48.68-.31.55-1.47,1.12-1.9-.32-.29-.34-.91-.67-1.19.62-.36.77-2.71,1.57-1.42a1.39,1.39,0,0,0-.22-.95c2.78-1,5-4.27,2.47-7.12.26,0,.24-.37.22-.71-1.09,0-1.42,2-2.47,1.19.65-1.29,2-.44,1.79-2.37-1.25.24-.45-.37-.9-.71-.07.56-1.06.14-.9.95.39.09.57-.35.67,0-1,.41-1.32.23-.22.71a8.42,8.42,0,0,1-2.69.24c.36-.33,1.16-.2,1.34-.71-1-.3-1.59,1.14-2.24.47.75-.32,1.17-1,2.24-.95-1.09-.69.7-.88,1.57-1.42-.75-.89.72-1.58-.22-1.9-.3,1.42-1.71,2.93-2.91,2.61,1-.2.59-1.52.9-1.9.3,0,.21.42.45.47.52-.85.23-1.15.22-2.37-.38-.09-.57.35-.67,0,1-.23.23-.91.9-1.42-1,0,0-.58-.22-1.19-.53-.31-1.11-.57-1.12-1.42-.42-.05-.5.27-.9.24.16-.65-.45-.48-.45-.95,1.2-.13-.37-1.78.67-1.9-.56-.31-.93.7-1.12,0,.85-.68-.1-1.48.45-2.61-1.23.13-1.54,2.47-2.91,1.66a3.72,3.72,0,0,0,2-2.14c-.56-.31-1.09.53-1.12,0,.36-.33,1.15-.2,1.35-.71a11.17,11.17,0,0,1-.45-1.19c.17-.05.44,0,.45-.24-1,.23-.59,0-1.35-.24,0,.87-1.15,1.66-1.57.71-1.42,1.43-3.58.66-3.81,2.61-.72.49-.31-1.35-.67-.47v.71c-.84-.25-.72.5-1.12.71-.71.12-.08-1.18-.9-.95.17.89-.59.8-.9,1.19.24-1.59-1.12.07-1.12-.47.05-1.13,1.59-1.14.9-2.37,1.28.41,1.44.47,2.47-.24.52.09.21,1,.9.95.55-.28-.46-.9.22-1.19.32.06.26.52.45.71,1.1-1.26,4.78-1.45,5.6-2.61-.62.87-.26-.92,0-.71-.84.13-1.44.24-1.79,0,.2-.8.42-.12,1.12-.24-.1-1.32-.71-.86.22-1.18-.75-.39-.56-1.06-1.12-1.19-.42.06.13.39-.22.47-.55-1.66-2.06.05-2.69-.95.95-.18,1.55-.73,2.47-.95-1.12-.12-.49-.64-1.35-.95.1-.37.7-.2.45-.95-.78.19-.86-.35-1.57-.24-.47.3-1.53,1.22-2,.71,1-.84,2.3-1,3.14-1.42-1.46.13.33-.38-.45-.71,0,.31-.62.3-.67,0,.31-.06.26-.52.45-.71-.69-.31-.87.19-1.34-.47.3-.24.83-.22.9-.71-.26,0-.24-.38-.22-.71-.9.09-1-.41-.45-.71-.4-.13-.93-.12-1.12-.47.82-1-1.23-1.48-.9-3.56-2.1-2-2.65-5.14-5.16-7.59-1.22,1.08-4.56-.08-5.16,1.66.84.49.68.81,1.34,0-.32,1.39.76-.19.67.95.92-.72,2.55.56,2.69-.71,1,.43-.21,1.69.9,1.9-.36.42-1.8-.69-.9-.95-.39.14-1.32-.29-1.34.24.68-.09.38.86.9,1-.39.22-.41.83-.67,1.19,1.46-.3-.07,1.18.67,1.42.55-.79,2,.5,2-.95.23.94.87-.26,1.12.24-.56.49-.31,1,0,1.66a4.16,4.16,0,0,1-2,1.19c.31.06.26.52.45.71-.67.37-1.37.71-1.57-.24a1.48,1.48,0,0,1-2.24,1.19c.12.68,1.26,1.5.9,1.9-.4-.44-1-.63-1.12-1.42-.92-.25-1.83.73-2.47,0,.23-1.06-.39-2.3,0-3.32-1.72-.64-3.34.32-3.14,1.66-.36-.18.05-1.16-.67-.95,0,1.53-1.57-.1-2,.24v.48c-.14,0-.26,0-.22.24.9-.14-.11.7.22,1.42a1.81,1.81,0,0,0,1.34-.24c.29-.59-.5-1.15,0-1.19.44,1.51,1.4,2.47,1.35,4.51a1.58,1.58,0,0,0,1.34-.95c-.35,0-.78,0-.67-.47.59-.07,1,.09.9.71-1.22.77.17,1.61-.67,2.37,1.09.32.34,2,1.34,2.85-.14,0-.27,0-.23.24a9.7,9.7,0,0,1-1.34-3.32c-.72.2-.85-.21-1.12-.47-.26.75.35.58.45.95-1.22-.38-.24,1-.67.95-.55-.87-1.55-1.35-.9-2.37.72-.29.17.77.9.48-.06-.63-.46-.78.45-.71-.28-1.07-1-1-.9-.24a6.93,6.93,0,0,1-2.24-3.8,1.93,1.93,0,0,1-1.57-.48c.94-.05-.13-.75.67-.95-.42.05-.49-.27-.9-.24,0,.28,0,.67-.22.71-.88-.28.11-1.18-.45-1.9-.52.07-1,.51-1.12-.24,1-.52.65-2.05,0-1.42.89-1.67,4-1,4.93-2.61-.92-.66-2.37.18-2.69-.71a1.58,1.58,0,0,0,.67-.47c-1.35-.14-.29,1.06-1.12,1.19-.39-.14-1.32.29-1.34-.24.44-.39.28,0,.9,0V7.83a19.8,19.8,0,0,0-2,1.9c-.1-.45-.08-1-.67-.95.3,1.11-.5,1.05-.9,1.42.14.33.86,0,.9.48a1.6,1.6,0,0,0-.45,1.42c-.24-.81-.07.66-.67.24s.53-1.46-.45-1.66c0,.35.08.88-.22.95-.61-.74-1.33,0-1.57-1.19a1.92,1.92,0,0,1-1.12,1.19c.29-1.21-.65-.25-.67-.71.15-.19,1.46-.31.67-.71-.09.4-.29,0-.67,0-.38.3,0,1.42-.67,1.42-.17-.89.27-1.14.22-1.9-.61.06-.3,1.28-.9,1.9-.59.08.21-1.33-.67-.95,0,.45.25.52.22.95-.78-.19-.95.26-1.34.48-.28-.65-.35-1.52-.67-2.14-.32.82.25,1.12-.22,1.66a4.46,4.46,0,0,1-1.79-2.37c0,.84-.68,1-1.12,1.43.42-.32-.4-2.12-.45-1.9.17,1.51-.73.36-.9.71-.06.74.72,1.31.45,1.9-.85-.8-.82-1.27-1.57-1.9-.61.22.44.87-.45.95-.59-.35-1.72-1.5-.9-1.9-.86-.89-2.17.1-2-1.66.85.1,1.05-.47,1.57-.71.16.54.67.71,1.12.95-.23-.8.7-.37,1.12-.48,0-1.35-.72-1.93-.9-3.09-.54,1.28-.75-.41-1.35-.47,0,1-.45.42-.67,1.42-.52.07-.25-.69-.67-.71-.12.34.26,1.23-.22,1.19A4,4,0,0,0,67.7,4c-.27.86.45,1.87,0,2.14-.65,0-.56-2.08-1.12-1.42.17.05.26.2.22.47H65.69c-.35-.34-.18-1.24-.9-1.19a4.08,4.08,0,0,0,.45,1.66c-.45.34-.79-.25-1.12.48a1.58,1.58,0,0,1-.67-.48A2.5,2.5,0,0,0,63,3.8c-.28.74.86,1.8-.22,1.9-.27-1.62-.69-4.33-1.57-4.51.5.32.21,1.78-.22,1.9,0-1-.11-.57-.45-.24-.29-.59.66-1,0-1.19.15.64-.46.46-.67.71,0,.56.39.7.22,1.42-.29,0-.31.3-.67.24a3.25,3.25,0,0,0-.9-1.9c-.55.82.54,2.37,0,3.08a17.6,17.6,0,0,0-1.34-3.56c-.42.85.67,1.7.22,2.61-.35-.1-.19-.75-.9-.47-.13.42.66,1,0,1.19a25.18,25.18,0,0,0-.67-2.61C54.2,3,54.74,1,54.48,1.42c-.93,1.49.33,2.89-.22,4.27.19-1.15-.64-1.22-.45-2.37-.94-.28-.4,1-.9,1.19-.15-.63-.11-1.47-1.12-1.19-.37-.57-.21-2.93-.9-2.37,0,1.52.29,4.37.22,5.93C50,5.08,50,2.73,48.65.47c-.09,1.17-1,0-1.34,0,.12.82.6,1.26.67,2.14-.33-.12-.56-.35-.9-.47a9.34,9.34,0,0,1,0,3.32c-.6-.57-.22-.7-.45-1.66-1.46.52-1-1-1.79-1.19.18.9.12,1.81-.45,1.43Zm1.79,115.82a1.43,1.43,0,0,1,1.35,1c-.36-.41-1.41-.09-1.35-1Zm-15-1.42h.67c.56.71-.15,1.6-.9,1.66-.18-.82.33-.91.22-1.66Zm64.33-3.09h.67c-.16.72.23.86.22,1.42-.5.13-.32-.45-.67-.48s-.42.18-.45.48c-.32-.06-.08-.71-.45-.71-.09-.57,1,.13.67-.71Zm8.52-.47c.93-1,.84,2.16-.22.95,0-.28.41-.2.67-.24a.64.64,0,0,0-.45-.71Zm2.91-1.66c1.64.33.72.67,1.34,1.66-1,0-1-1-1.34-1.66ZM26.46,100.87c-.35,1.47-.21,1.94-1.35,2.37.78-.19.86.35,1.57.24-.5-.94.35-1.84-.22-2.61ZM21.75,98c-.17.67.74,1.4,1.12.71-.4,0-.52-.24-.45-.71Zm4.48-3.56c.58-.66.82,1.17.45,1.66-.64,0,.19-1.63-.45-1.66Zm-3.59-.24c.19.76-.35.73-.45,1.19.4-.13.93-.12,1.12-.47-.42,0-.16-.79-.67-.71ZM16.15,90c.59-.07.74.33.67.95h-.9c-.1-.5.15-.63.22-.95Zm5.6-6.88c.19-.56,1,.2,1.34.24-.47.27-.65.09-1.34.47.16-.19.35-.65,0-.71ZM11.22,77.85c.7,0,1,1.62,0,1.42.25-.29.2-.49-.22-.48a1.39,1.39,0,0,0,.22-.95Zm4.71-3.32c.65.38.27.89,0,1.42-.63-.24.06-1,0-1.42Zm-2.47.71c.51-.25,1.16-1.07,1.79-.48.17,1-.72.82-.45,1.9-1.22-.18.09-1.56-1.35-1.42Zm-1.12-2.37c.7.16.29.63.22,1.19-.4,0-.47-.29-.9-.24.22-.32.61-.47.67-.95Zm.22-1.9c.44-.53,1.56.23,2.24.24-.94.59-1.63.38-1.79,1.42-.82-.72-.79-.17-1.57.24a1.62,1.62,0,0,1,.22-1.19,1.82,1.82,0,0,0,1.34.24c.06-.54-.05-.89-.45-.95ZM4.72,53.64c.47.52.64-.12,1.34,0,0,.42-.27.5-.22,1-.69.17-.82-.24-1.34-.24,0-.2.09-.23.22-.24v-.47Zm.45-1.9c.23.15.23.55.67.48-.71,1.2-1.55.86-2.47,1.66-.12-1.47,1.68-.91,1.79-2.14Zm4.26-2.85h.67a3.81,3.81,0,0,0,0,2.37c-.95.37,0-1.32-.9-.95a2.12,2.12,0,0,0,.22-1.42Zm98-27.53c0-1.25-1.32-.47-1.35.24.87.26.8-.84,1.35-.24Zm-86.52-1c.1-.66.71,0,.45.47a1.81,1.81,0,0,1-1.35.24,1.07,1.07,0,0,1,1.12-.47c0-.2-.09-.22-.22-.24Zm-2.47-.24c.27,1.17.74,0,1.35.48-.13.31-1.05,1.6-1.12.47-.42,0-.16.79-.67.71-.47,2.08.08-1.14.45-1.66Zm.9-1.66c.61-.17.45.47.9.48-.77.49-.16,1-1.12,1.19-.11-.75.4-.84.22-1.66Zm4-.71c-.19.48.2,1.48.45.71-.17-.05-.26-.2-.22-.47.3.07.43.34.9.24.23-.8-.7-.37-1.12-.47Zm69.93-.48c.48.15.21,1.46,0,1.66-.6-.28,0-1.24,0-1.66ZM20,16.38c.41.68.56.54,1.12.71-.62.22-.05,1.69-1.12,1.42.16-.55.57-1.77-.45-1.66.06-.26.45-.16.45-.48ZM20.41,15c.7-.34.7,1.76,0,1.42.7-.64-.59-.9,0-1.42ZM105.58,14c-.06.26-.45.16-.45.47-.32-.65-.74-.46-.9.24-.47-1-1.42,0-2,.24-.09-.57.41-.52.22-1.19.22,0,.17.29.22.47.71-.48,1.63-.2,2.47-.95-.08.48,0,.74.45.71Zm-3.36-1.42c0,.52-1.36.74-1.34.47C100.66,12.2,101.76,12.72,102.22,12.58Z"/><path class="cls-2" d="M106.43,45.45H107a.4.4,0,0,1,.4.4v3.28a.4.4,0,0,1-.4.4h-.57a.4.4,0,0,1-.4-.4v-.94h-.86a.41.41,0,0,1-.4-.4v-.58a.41.41,0,0,1,.4-.41H106v-.94a.4.4,0,0,1,.4-.4Zm-6.27-21.23-.12-.13a15.32,15.32,0,0,0-2.76-4.18,14.3,14.3,0,0,0-4-3.12L98.68,13A9,9,0,0,1,104,18.7l-3.84,5.52ZM79.34,18.27C78,19.13,78.8,25.5,83.78,31S96.08,38.89,97.4,38s5.33-9.68-1.57-17.22-15.17-3.39-16.49-2.54ZM100.5,80.16l1.58.71V79h-.4a.82.82,0,0,1-.4-.1l-.78,1.28Zm4.27-3.62V74.42a.83.83,0,0,0-.82-.82h-.39V63.54a.9.9,0,0,0,.82-.9V60.37a.9.9,0,0,0-.82-.9v-10a.9.9,0,0,0,.82-.9V46.35a.9.9,0,0,0-.82-.9V33.53h-1.65v12a.9.9,0,0,0-.62.85v2.27a.9.9,0,0,0,.62.85v10a.9.9,0,0,0-.62.86v2.27a.9.9,0,0,0,.62.85V73.6h-.23a.83.83,0,0,0-.82.82v2l0,0L82.28,107a.82.82,0,1,0,1.41.85l7.16-11.8,11.26,5.19,0,12.44a.82.82,0,0,0,1.64,0l0-12.47,11-5,7.06,11.63a.82.82,0,1,0,1.41-.85L104.77,76.54Zm-.48,2.37.8,1.31-1.36.62V79h.22a.82.82,0,0,0,.34-.07ZM104,21.82l-2.34,3.31.1,2.81a.7.7,0,0,0-.67.7h0a.7.7,0,0,0,.7.7h0l.1,2.86h1.65l.18-2.86h.15a.7.7,0,0,0,.7-.7h0a.7.7,0,0,0-.7-.7h-.06l.17-6.12Zm1.95,59.82,8,13.16-10.18,4.6,0-16.75,2.22-1Zm-3.86,1,0,16.76-10.4-4.79,7.93-13.05Z"/><path class="cls-3" d="M80.22,19.74c.6-.55,5.89-1.54,12,5.16s4.23,11.3,3.63,11.84-6.48-1.8-10.8-6.49S79.62,20.28,80.22,19.74Z"/><path class="cls-2" d="M32.24,59.38h9.43V62.1H32.24V59.38ZM30.15,84.63h5.24l-.16-12.35L30.15,84.63Zm8.4,0h5.2l-5.06-12.3-.14,12.3ZM44.33,86H38.53l0,2.64h-.36l-.26,20.62a1.82,1.82,0,0,1,1.51,1.79v.45H34.6v-.45a1.82,1.82,0,0,1,1.53-1.79l-.24-20.62h-.44l0-2.64H29.58l-.86,2.09L28.39,88l-9.46,21.9a1.59,1.59,0,0,1,.91,1.22v.45H15c.34-1.56,1-2.29,2.23-2.22l9-22.19L25.88,87,35.1,62.87h0v0h3.7v0h0L48,87l-.41.16,9,22.19c1.27-.07,1.89.66,2.23,2.22H54.07v-.45a1.59,1.59,0,0,1,.91-1.22L45.52,88l-.33.13Z"/><path class="cls-2" d="M21.81,41.73h3.42V58.06H21.81a2.5,2.5,0,0,1-2.49-2.49V44.22a2.5,2.5,0,0,1,2.49-2.49Zm13.54-4.9h2.53v.35H35.34v-.35Zm-1.81.78H39.6l1.65,1.82H31.88l1.65-1.82ZM23.44,39.68h.78v-.41h2.9v.41h.6V41H23.44V39.68Zm17.9-24a1.25,1.25,0,0,1,1.1,1.24v4.3a1.25,1.25,0,0,1-1.24,1.24H31.9a1.25,1.25,0,0,1-1.24-1.24v-4.3a1.25,1.25,0,0,1,1-1.22A1.44,1.44,0,0,1,33,14.58h6.9a1.44,1.44,0,0,1,1.4,1.1Zm-9.24,1a.42.42,0,0,0-.41.41v4a.42.42,0,0,0,.41.42H41a.42.42,0,0,0,.41-.42v-4a.42.42,0,0,0-.41-.41Zm9.45,8.4V23.29h-10v1.76Zm-8.35,8.58H39.9A1.66,1.66,0,0,0,41.55,32V26h-10v6a1.66,1.66,0,0,0,1.66,1.66Zm1.12.78h4.46v1.76h-1v.23H35.23v-.23h-.91V34.41Zm9.19,8.4h2V44h-2V42.82Zm-21-.31c-.92,0-1.66.29-1.66.65s.74.65,1.66.65,1.66-.29,1.66-.65-.74-.65-1.66-.65Zm19.86,1.22-.78-3.21H31.49l-.85,3.66a8.46,8.46,0,0,0-1.24,1.66l.16-.7.8-3.41H25.83V58.06h5.53a3.41,3.41,0,0,1-2.26-2,12.9,12.9,0,0,1-.8-5.42v-.09h0a8.4,8.4,0,0,0,1.07,3.65,6.8,6.8,0,0,0,.47,1.51,2.57,2.57,0,0,0,2.46,1.68h.23a8.46,8.46,0,0,0,8.4,0h.48a2.7,2.7,0,0,0,2.39-1.86,6,6,0,0,0,.33-1.41A8.4,8.4,0,0,0,45,51.75a9.83,9.83,0,0,1-.42,4,3.43,3.43,0,0,1-2.47,2.28h2.08a2.5,2.5,0,0,0,2.49-2.49V44.22a2.5,2.5,0,0,0-2.49-2.49H42.76L43.55,45a8.5,8.5,0,0,0-.83-1l-.33-.31Zm-.26.9A7.62,7.62,0,1,0,44.37,50a7.6,7.6,0,0,0-2.23-5.39ZM43.21,47a7.11,7.11,0,1,0,.64,3c0-.12,0-.24,0-.36L43.21,47Zm-6.46-3.73a6.69,6.69,0,1,1-4.73,2,6.67,6.67,0,0,1,4.73-2Zm4.14,2.55a5.86,5.86,0,1,1-4.14-1.72,5.84,5.84,0,0,1,4.14,1.72Zm-4.14-.47A4.62,4.62,0,1,1,32.13,50,4.62,4.62,0,0,1,36.74,45.39Z"/><polygon class="cls-3" points="82.44 117.98 94.68 117.98 82.44 120.57 82.44 120.6 82.32 120.6 82.32 120.6 47.29 120.6 47.41 120.57 47.41 87.84 47.29 87.84 59.65 85.22 94.68 85.22 82.32 87.84 82.44 87.84 82.44 117.98"/><polygon class="cls-4" points="82.44 87.87 94.68 85.22 94.68 117.98 82.44 120.63 82.44 87.87"/><rect class="cls-5" x="47.41" y="87.94" width="35.03" height="32.63"/><path class="cls-4" d="M84.81,74.72l.42-.13Q85,75.3,84.81,76V74.72Zm0-2v-2.4c.44-.12.85-.24,1.23-.38l0,.22q-.12,1.16-.31,2.21h0c0,.08-.31.19-.87.33Zm0-4.48v-5q.19.41.35.83A8.78,8.78,0,0,0,88.05,61a16.52,16.52,0,0,0,1.86-7c0-.09,0-.18,0-.27a6.13,6.13,0,0,0-1.44-4.1,4.69,4.69,0,0,0-3.54-1.52h-.12v-2h.12a6.67,6.67,0,0,1,5,2.19,8.13,8.13,0,0,1,1.83,5.45c0,.11,0,.22,0,.34A21.28,21.28,0,0,1,89.84,62,16.48,16.48,0,0,1,86,67.37q0,.29.06.58A9.59,9.59,0,0,1,84.81,68.27ZM78.56,83.86c.83.36,1.32.78,1.32,1.24,0,1.24-3.56,2.25-7.94,2.25V76a65.85,65.85,0,0,0,10.67-.78,19.35,19.35,0,0,0,2.21-.51V76a14.43,14.43,0,0,1-6.26,7.9Zm6.26-37.75v2a5,5,0,0,0-3.48,1.59,6.38,6.38,0,0,0-1.61,4.14,14.12,14.12,0,0,0,.16,2.85c.47.55,1,1.09,1.51,1.66.35.37.44.53.8.93a15.46,15.46,0,0,1,2.61,4v5c-.58.13-1.31.27-2.17.41a66.25,66.25,0,0,1-10.71.77V40.21a36,36,0,0,0,6.29-.49c1.51-.28,2.56-.73,2.93-1.31a.88.88,0,0,1,.19.52,1,1,0,0,1-.36.72c-.78.85-3.27,1.89-3.58,5a19.6,19.6,0,0,0,0,7.3c.3,0,.61-.29.86-1a7.51,7.51,0,0,1,1.61-2.62,7,7,0,0,1,4.95-2.23Zm0,24.24v2.4c-.6.15-1.49.32-2.6.52A63.65,63.65,0,0,1,71.94,74V71.53A68.56,68.56,0,0,0,83,70.73c.64-.11,1.23-.24,1.77-.38ZM71.94,38.95A34.85,34.85,0,0,0,78,38.48,6.33,6.33,0,0,0,80,38a6.33,6.33,0,0,0-2-.53A34.85,34.85,0,0,0,71.94,37Zm0,48.4c-4.39,0-7.94-1-7.94-2.25,0-.43.43-.84,1.18-1.18a14,14,0,0,1-6.27-8V74.69a19.08,19.08,0,0,0,2.28.53A65.91,65.91,0,0,0,71.89,76h0V87.35Zm0-50.39v2a34.85,34.85,0,0,1-6.06-.46,6.33,6.33,0,0,1-2-.53,6.34,6.34,0,0,1,2-.53A34.84,34.84,0,0,1,71.94,37Zm0,3.26a36,36,0,0,1-6.29-.49c-1.51-.28-2.56-.73-2.93-1.31a.88.88,0,0,0-.19.52.82.82,0,0,0,.11.4c.31.93,3.44,1.8,3.79,5.34a19.59,19.59,0,0,1,0,7.31c-.34,0-.69-.2-1-1a7.51,7.51,0,0,0-1.61-2.62,7,7,0,0,0-4.95-2.23v2a5,5,0,0,1,3.48,1.59A6.38,6.38,0,0,1,64,53.86a13.88,13.88,0,0,1-.19,3c-.39.45-.8.89-1.24,1.35l-1,1.06a15.13,15.13,0,0,0-2.68,4.1v4.89c.59.13,1.35.27,2.24.43a66.35,66.35,0,0,0,10.75.77h0V40.21Zm0,31.32V74h0a63.75,63.75,0,0,1-10.32-.74c-1.15-.2-2.07-.38-2.67-.53v-2.4c.56.15,1.17.28,1.84.4a68.62,68.62,0,0,0,11.15.81Zm-13,4.39q-.21-.65-.39-1.36l.39.13v1.23Zm0-29.82v2h-.12a4.69,4.69,0,0,0-3.54,1.52,6.13,6.13,0,0,0-1.44,4.1c0,.08,0,.17,0,.27a16.52,16.52,0,0,0,1.86,7,8.76,8.76,0,0,0,2.93,3.13q.14-.38.31-.76v4.89a9,9,0,0,1-1.17-.31q0-.27.05-.53A16.35,16.35,0,0,1,53.87,62a21.28,21.28,0,0,1-1.95-7.93c0-.11,0-.23,0-.34a8.13,8.13,0,0,1,1.83-5.45,6.67,6.67,0,0,1,5-2.19Zm0,24.22v2.4c-.52-.13-.8-.24-.8-.31h0q-.17-1-.29-2.17,0-.13,0-.26C58.09,70.1,58.48,70.22,58.9,70.33Z"/></g></g></svg>