<svg xmlns="http://www.w3.org/2000/svg" viewBox="0 0 38.91 54.49"><defs><style>.cls-1{fill:#545d63;}.cls-1,.cls-4{fill-rule:evenodd;}.cls-2{fill:#df1e00;}.cls-3{font-size:12.79px;fill:#fdfdfd;font-family:Calibri-Bold, Calibri;font-weight:700;}.cls-4{fill:#f13629;}</style></defs><title>Ресурс 23</title><g id="Слой_2" data-name="Слой 2"><g id="description"><path class="cls-1" d="M38.38,12.77h0L26,.37A1.25,1.25,0,0,0,25.13,0H6.27A3.77,3.77,0,0,0,2.51,3.76V21.32H5V3.76A1.26,1.26,0,0,1,6.27,2.51H23.83v8.78a3.77,3.77,0,0,0,3.76,3.76h8.78V42.65a1.26,1.26,0,0,1-1.25,1.25H32.73v2.51h2.39a3.77,3.77,0,0,0,3.76-3.76s0-28.8,0-28.85a1.45,1.45,0,0,0-.53-1Zm-15,31.13v2.51H6.27a3.77,3.77,0,0,1-3.76-3.76V38.88H5v3.76A1.26,1.26,0,0,0,6.27,43.9Zm4.26-31.36h0a1.26,1.26,0,0,1-1.25-1.25v-7l8.26,8.26Z"/><rect class="cls-2" y="23.2" width="30.1" height="13.8" rx="2.51" ry="2.51"/><text class="cls-3" transform="translate(5.36 34.98)">PDF</text><polygon class="cls-4" points="25.17 40.64 25.17 49.47 23.24 49.47 28.03 54.48 32.83 49.47 30.89 49.47 30.89 40.64 25.17 40.64"/></g></g></svg>