<svg xmlns="http://www.w3.org/2000/svg" viewBox="0 0 111.98 123.29"><defs><style>.cls-1{fill:#d7d8d9;}.cls-1,.cls-2,.cls-3,.cls-4,.cls-5,.cls-7,.cls-8{fill-rule:evenodd;}.cls-2{fill:#f4f3f0;}.cls-3{fill:#08366b;}.cls-4{fill:#064995;}.cls-5{fill:#e2e8ec;}.cls-6{fill:#545d63;}.cls-7{fill:#b2b2b2;}.cls-8{fill:#fff;}</style></defs><title>Ресурс 15</title><g id="Слой_2" data-name="Слой 2"><g id="description"><path class="cls-1" d="M52.86,0c-1,.72-2.64.44-3.76,1.42-.2,1,.28,1-.44,1.42.58.59,1.26-.45,2.21-.2.07-.41,0-.63-.44-.61,1.27-.39,1.85-1.2,3.1-.61C53.14.76,52.9.57,52.86,0Z"/><path class="cls-1" d="M71.45,3.25c-.31-.65,0,.91-.89.4-.18.71.33.78.22,1.42.34-.83.56-.45,1.33-.2C72.8,3.56,71.15,4.52,71.45,3.25Z"/><path class="cls-1" d="M49.76,3.45c-.44-.52-1,.55-2,.2-.09.49.4.44.22,1C48.74,4.41,48.82,3.54,49.76,3.45Z"/><path class="cls-1" d="M77.87,6.5c.55-.32-.27-1.09-.89-1C76.81,6.24,77.83,5.92,77.87,6.5Z"/><path class="cls-1" d="M77.65,6.29c-1.21.28.33,1.05.66,1.22-.07.81-.77-.23-.66.61.26,0,.39,0,.44.2.34-.23.46-.66,1.11-.61C78.89,6.85,77.42,7.13,77.65,6.29Z"/><path class="cls-1" d="M46.44,6.7c.16.62.16.39,0,1,.35-.69,1.31-.83,2.21-1C48.23,6.12,47.12,6.45,46.44,6.7Z"/><path class="cls-1" d="M76.54,9.14a7.8,7.8,0,0,1,.89-.41,1.07,1.07,0,0,1-.22-.81c-2-.08-.49,1.77-.66,2.44.4.49,0-1.17.89-.41A1.92,1.92,0,0,0,76.54,9.14Z"/><path class="cls-1" d="M106.64,8.12c-.48,0-.1.72-.22,1,.42-.38.4.12,1.11,0C107.58,8.47,106.67,8.71,106.64,8.12Z"/><path class="cls-1" d="M44.67,10.15v-1c-.82-.16-.73,1.55-1.33.4-.63.27.17.9.22,1.22C43.9,10.53,44,10.1,44.67,10.15Z"/><path class="cls-1" d="M107.3,9.34c-1,.31-.07,1.26,0,1.83C107.75,10.94,107.56,9.6,107.3,9.34Z"/><path class="cls-1" d="M106.2,9.75c-.29.08-.19,1.51.66,1.22A4,4,0,0,0,106.2,9.75Z"/><path class="cls-1" d="M108,11.57c-.58.31-1.34,1.22-.89,1.83.76,0,0-1.45,1.33-1C108.66,11.75,108.06,11.89,108,11.57Z"/><path class="cls-1" d="M93.36,16.45a3.93,3.93,0,0,1-1.55.2c-.18.44-.57.69-.44,1.42-.26,0-.39,0-.44-.2-.84.41.76.58.89.2,0-.55-.37-.41,0-.81C92.37,17.67,93,16.85,93.36,16.45Z"/><path class="cls-1" d="M17.22,18.07c-1.13.11-1.81.64-3.1.61,0,.36.27.43.22.81-.4,0-.47-.25-.89-.2.09,1.19-2.19,2,0,2.44-.18-.57.31-.53.22-1,.2.13.4.25.44,0,.26,0,.19.37.22.61.7-.23.59.06,1.11-.2-.07-.28-.55-.17-.89-.2.91-.2.38-.83.89-1.62.52,0,.65.35,1.33.2C16.45,18.58,17.43,18.87,17.22,18.07Z"/><path class="cls-1" d="M112,18.68c-.74,0-.85,1.26,0,1.22C111.7,19.26,111.93,19.44,112,18.68Z"/><path class="cls-1" d="M31.17,19.09c.08.47.14,1,.88.81C32,19.38,31.73,19.11,31.17,19.09Z"/><path class="cls-1" d="M16.78,21.52v.61c.55,0,.69-.39.89.2.24-.05.15-.4.44-.41C17.88,21.59,17.17,21.71,16.78,21.52Z"/><path class="cls-1" d="M10.8,26.4c-1.13.16.55.83.88,1.42.81-1.36-1.1-2-2-2.44A1.49,1.49,0,0,0,10.8,26.4Z"/><path class="cls-1" d="M107.3,26.6c-.32.18-.86.16-.66.81.56-.54.65.47-.22.2v.61c.35-.09.19-.64.89-.4C107.32,27.06,107.55,27.24,107.3,26.6Z"/><path class="cls-1" d="M12.35,28.43c.56.58.23.35,0,1a4.07,4.07,0,0,0,2.88.2c-.27-.43-1.57.09-1.11-1A4.51,4.51,0,0,1,12.35,28.43Z"/><path class="cls-1" d="M12.13,31.07c.34.84,2.07.4,2.88.81,0-.5-1.45-.75,0-.81A11.28,11.28,0,0,0,12.13,31.07Z"/><path class="cls-1" d="M11.91,32.29c1,.1.47-.63,1.33-.2C13.48,31.4,11.4,31.43,11.91,32.29Z"/><path class="cls-1" d="M12.8,35.74c-.39,0-.5.35-.44.81.38.07.42-.16.44-.41a1.33,1.33,0,0,0,.89.2C14.32,36.06,12.71,36.17,12.8,35.74Z"/><path class="cls-1" d="M104.43,37.16h-.66c-.45,1-.7,1-.22,2.23.43-.59.09-1.12.89-1C104.18,37.74,104.41,37.92,104.43,37.16Z"/><path class="cls-1" d="M105.31,37.77c-.89-.12.11.6-.22,1.22.68.15.43-.56,1.11-.41C105.87,37.53,105.08,39.33,105.31,37.77Z"/><path class="cls-1" d="M12.57,38.17c.17.76,2.5.89,2.66.41C14.29,38.05,13.67,38.49,12.57,38.17Z"/><path class="cls-1" d="M11.25,39.8c-.3.06-.18.51-.22.81.53-.08.48.37,1.11.2.09-.42-.15-.54-.22-.81C11.7,40.34,11.09,40.71,11.25,39.8Z"/><path class="cls-1" d="M3.72,43.25c.46.64-.15.26-.66.2.2.8.84.42,1.55.41C4.41,43.56,4.28,43.22,3.72,43.25Z"/><path class="cls-1" d="M7.48,43.86c-1-.25-.87.56-1.77.41,0,.4.6.26.44.81q.72.05.66-.61c.64.74,1.61,0,2.21.61C9.31,43.51,7.2,45.16,7.48,43.86Z"/><path class="cls-1" d="M3.06,44.87c-.82.57.59.79.66,1.22C4.39,45.66,3.09,45.34,3.06,44.87Z"/><path class="cls-1" d="M3.72,46.3c-.1.63.47.65,1.11.61A1,1,0,0,0,3.72,46.3Z"/><path class="cls-1" d="M3.06,46.7c-.49,0-.09.86-.22,1.22a1.55,1.55,0,0,0,1.11.2A1.72,1.72,0,0,1,3.06,46.7Z"/><path class="cls-1" d="M7.7,47.92c.3.39,1.12,1.94,1.33.61C8.07,48.81,8.56,47.74,7.7,47.92Z"/><path class="cls-1" d="M4.16,50.15a1.54,1.54,0,0,1-1.11.2c.43.75,1.44,1,2.66,1C5.54,50.65,4,51.17,4.16,50.15Z"/><path class="cls-1" d="M105.53,51.58c-.44.14-.59.54-.66,1C105.56,52.68,105.58,52.16,105.53,51.58Z"/><path class="cls-1" d="M.18,56.86c-.57.34.34,1,1.11.81C1.22,57.12.36,57.3.18,56.86Z"/><path class="cls-1" d="M5,58.89c-.46.06-.05.9-.66.81.65-.55,2.33,1.07,2.88-.2C6.16,59.66,5.61,59.6,5,58.89Z"/><path class="cls-1" d="M4.61,87.72c1.91.75,1.74-.53,0,0Z"/><path class="cls-1" d="M31.83,92.39c.18.66.76.81.66,1.22.19,0,.21.08.22.2a1.58,1.58,0,0,0,.44-1.22C32.48,92.74,32.35,92.39,31.83,92.39Z"/><path class="cls-1" d="M31.39,95c.32,1,1.09.26,1.77.81C33.34,94.86,32,95.3,31.39,95Z"/><path class="cls-1" d="M42.9,95.44c-.05.78,1.22,1,1.77.61A10.39,10.39,0,0,0,42.9,95.44Z"/><path class="cls-1" d="M31.83,95.84c-.52,0-.65.35-1.33.2,0,.32-.11.77.22.81.58,0,.29-.85.89,0C32.09,96.89,31.71,96.14,31.83,95.84Z"/><path class="cls-1" d="M54.41,96c-1.21.16.49,1.45.89.81C55.4,96.22,54.19,96.78,54.41,96Z"/><path class="cls-1" d="M54.18,97.26c-.24.45-1.32.14-1.11,1,.5.28.83-.52.88,0C54.28,98,54.47,97.5,54.18,97.26Z"/><path class="cls-1" d="M74.32,100.71c1-.11.59-.41,1.55-.41a2,2,0,0,1-.22-1.83c-.94-.25-1.06,1.09-1.77,1.42C75.22,99.62,74.6,100,74.32,100.71Z"/><path class="cls-1" d="M29,98.28c-.19,0-.21.08-.22.2-.19.6-.56-.26-1.11,0,.25.51,1,.59,1.77.61-.06-.22-.44-.14-.44-.41Z"/><path class="cls-1" d="M38,99.5c-.68.33-.31,1,0,1.42A1.73,1.73,0,0,0,38,99.5Z"/><path class="cls-1" d="M56,106.2c-.88.07.16.63-.44.81,0,.17.09.19.22.2h.44C55.93,106.57,56.24,106.68,56,106.2Z"/><path class="cls-1" d="M91.81,107.82c-.68.38.26,1,.89.81C92.62,108.16,92,108.18,91.81,107.82Z"/><path class="cls-1" d="M53.74,110.66a1.11,1.11,0,0,1-.66.2c.4.41.82.06.44.81h.89C54.44,111.11,53.74,111.21,53.74,110.66Z"/><path class="cls-1" d="M54,112.29c-.49-.11-.31.39-.66.41.84.88.87.5,2,1v-.61c-.56-.35-.86.31-.89-.41a1.1,1.1,0,0,1-.66.2A.9.9,0,0,0,54,112.29Z"/><path class="cls-1" d="M50.2,114.52c.13.49.84.45,1.33.61C51.55,114.5,50.86,114.53,50.2,114.52Z"/><path class="cls-1" d="M52.41,114.93c-.36-.06-.38.19-.66.2.08.47.14,1,.89.81C52.72,115.46,52.23,115.5,52.41,114.93Z"/><path class="cls-1" d="M72.33,115.94a1.33,1.33,0,0,1-.89.2c-.07.54.46.52.89.61Z"/><path class="cls-1" d="M67.24,118.58c-.94-.07-.19.88-.22,1.22C67.51,119.78,67.12,118.94,67.24,118.58Z"/><path class="cls-1" d="M64.14,122.44c.05.36-.22,1,.44.81,0-.17-.09-.19-.22-.2-.07-.54,1.24.19.89-.61C64.83,122.06,64.85,122.56,64.14,122.44Z"/><path class="cls-1" d="M54.63.2a.91.91,0,0,1,.22.61c-.09.39-.86.16-.66.81h2.43c-.47-.44-.82-.75-1.33-.2C54.28,1.47,55.79.2,54.63.2Z"/><path class="cls-1" d="M46.66,4.47c.72.29,1.31,1.54,2.21,1-.14-.21-.51-.21-.44-.61C47.64,5.54,47.83,4.07,46.66,4.47Z"/><path class="cls-2" d="M64.81,114.93c-1.15-.12-1.06.75-1.77.2a.56.56,0,0,0,.44-.61c-.35-.3-.25-.91.44-.81,0,.5,0,1,.44,1a.79.79,0,0,1,1.11-.61c-.45.06-.44.54-.66.81Zm-4.87-1.22c-.86-.4-2,.63-2.88-.41,1.21-.19-.57,0-.22-.61,1.45-.18,3.08.55,3.1,1Zm7.08-1c-.65-.3-.82.23-1.11-.41a1.43,1.43,0,0,1,1.33,0c-.17,0-.26.17-.22.41Zm7.3-4.06a1.33,1.33,0,0,0-.88.2c0-.51-.42-.63.22-.81,0,.38.73.14.66.61ZM59.05,107c-.16.55.44.41.44.81-.39-.06-1.1.57-1.33,0,.26,0,.63,0,.66-.2a5.08,5.08,0,0,1-1.77-.61,4.76,4.76,0,0,0,2,0Zm29-.41c-.39-.19-1.19,0-1.11-.61.69.27,1.23-.6,1.55,0-.31.05-.25.45-.44.61ZM69.9,106.2c-.26-.24-.25-.72-.22-1.22.33,0,.82-.07.89.2-.93-.31,0,1.05-.66,1Zm13.94-1.83c.53-.08.48.37,1.11.2-.18.57.31.53.22,1-1,.14-1.25-.34-2.21-.2.42-.54,1.11-1.05.66-1.83.77-.18.38.66.22.81Zm-13.5-1.42c0-.38-.73-.14-.66-.61.21-.3,1.1-1,1.55-.41-.49.16-.29,1-.89,1Zm-10.18-6.7c-.19-.25-2,0-2.66-.41.38-.52-.34-.79.44-.81.3.68,2.77.43,2.21,1.22Zm-33-.81h-.66c.05-.36-.22-1,.44-.81.07.27.31.39.22.81Zm14.17-.61c-.83,0-.63-.23-1.33,0,0-.63,1.51-.9,1.33,0Zm56,.41c-.25-.64.06-.54-.22-1,.81-.19.88,1,.22,1Zm-54.67-1c0-.52-.74-.4-1.33-.4,0,.6,1,.69,1.33.4Zm-6,.61a6.76,6.76,0,0,1,2.66-1.22v.81c-1-.28-2,.59-2.66.41ZM57.06,94c.46-1.09-1.62-.92-2-1.62-.69.39.52.73.66,1-.1.3-.28-.08-.66,0v1c.25.08,1.47.61.44.61a.9.9,0,0,1,.22.61c1.09,0,0-1,.89-.81q.06-.66-.66-.61a2.34,2.34,0,0,1,1.11-.2Zm19-2.44a3,3,0,0,1,2.21.81,4.76,4.76,0,0,1-2.21-.81Zm-.22,0c-.76-.37-2.1-.77-.67-.2-.38.46-1.25-.33-2-.2-1.39-.18,2.45,1.05,3.32,1.42-1,.26-2.46-.85-4-.81.2.56.41,1.12,1.11,1.22-.15.61-.47-.19-.89,0,.18.92,1.65.65,2.21,1.22-.13.42-.84-.29-1.33-.2,0,1.08.9.34,1.11,1-.05.52-.38-.28-.89,0,0,.24,0,.36-.22.41.15.4.59.54,1.11.61-.28.82-1.49-.36-.44.61a3.49,3.49,0,0,1-.66.81c-.65-.18.51-.3.22-.81s-.81-.06-1.33,0c.48.42,0,.66-.22,1-.74-.18-.11-.38-.22-1h-.88c.38.76-.13.32-.22,1a1.54,1.54,0,0,0,1.11.2c-.19.59-.33.23-.88.2v.81c1.16-.49.09.72.44,1,.68,0,.66-.61.66-1.22.84.19.16.82.22,1.42.6,0,.45.34.89,0,.57.22.52,1.17-.44,1,.19.3.33.64.89.61v-.81c.87.21,1.06,1.05,1.55,1.63.59,0,1.3.11,1.33-.41.32.18.7.3.66.81.68.15.27-.7,1.11-.41-.16-.59-1.2-.39-1.11-1.22-.66.5-1.43-.19-1.77-.61.63-.22.94.33,2,.41a3.07,3.07,0,0,1-1.33-1.42c.82.43,2,1.23,2,2.23a.6.6,0,0,0,.66-.41c.59.41.49.51.66,1-.1.3-.28-.08-.66,0a1.89,1.89,0,0,1,.89,1.22c.9-.22-.46-1.92,1.11-1.83-.3-.47-.37-1.15-.66-1.63.05-.25.44-.2.44,0,.43-.47-1-.93-.89-1.83,0-.24.4-.17.66-.2-.38-.2-.57-.56-.44-1.22-.92.17-1-.4-1.77-.41.68,1,.25,1.07.66,1.62.07.36-1.24.36-.89-.2-.43-.08-.32.92.22.61-.26.29-1.05.27-.44.81-.55,0-.68-.32-1.11-.41-.12-.72.78-.5.66-1.22-.22,0-.17-.25-.22-.41-.36,1-.67.09-1.33-.2a4.1,4.1,0,0,1,1.55-.2c.6-.18-.51-.45-.44-.81-.65-.05-.68.46-1.33.41.52-.74,1.47-1.09,2-1.83.47.18.65.62,1.33.61-.42-.67-.07-.88-.66-1.22-.57,0-.27.15-.22.41-1,.18-.52-1-1.33-1,0-.16.22-.2.22-.41.59,0,.48.64,1.11.61,0-.32-.11-.78.22-.81-.39-.28-2.06-1.24-2.43-1.42ZM44,91.78c-.9.12-.7-.84-.22-1a1.23,1.23,0,0,1,.22,1Zm-8.85-1.62c-1.19-.34-1.8,1.3-2.21.41.17,0,.44,0,.44-.2-.17,0-.44,0-.44-.2a1.77,1.77,0,0,0,1.55-.41c0,.33.61.11.66.41Zm21,1.22c-1.14-.08-1.16.07-1.55-.61-.34,1,0,.87,0,2-.86.18-1-.34-1.33-.61.55-.55-.07-1.59,0-2.44,1.55,0,2.07.94,2.88,1.62Zm.22-.81c.32,0,.08-.61.44-.61a10.35,10.35,0,0,0-1.11-.41c-.23.76.47.65.66,1Zm21.69-.2c0,.5-.41.63,0,1-1.27-.25-1.68-1.3-2.66-1.83,1.34-.12,1.69,1.19,2.66.81ZM75,89.75c.61-.25-1.29-1-1.33-.61,0,.86,1-.13,1.33.61Zm1.55-.2c.22-.81-1.81-1.31-3.1-1.42.64.83,2.24.78,3.1,1.42Zm-35.19,0c-.41-.35-.2-1.54.44-2a3,3,0,0,1-.44,2Zm-22.8-1.83c-.36.69,0,.61.44,1-1-.13-.72.83-1.77.61.21-.62-.47-2.06.44-2,0,.75.32.51.89.41Zm25.67.2c-.37-.4,0-.26,0-.81-.58.54-.44-.63-.89-.81a2,2,0,0,1,1.33.2c.15,2.06-.51,2.4-.66,3.86-.67,0-1.13-.18-1.33-.61.92,0,0-.13,0-.41a1.58,1.58,0,0,0,.66-.41c-.43-.38-.07-.74,0-1.22-.31,0-.85,0-.44-.2.7-.1.5.62,1.33.41ZM50,85.08c-.24,1.25-.49,1.14.22,2a4.11,4.11,0,0,1-2.21-1c.7,0,1.32.54,1.33-.41a1.54,1.54,0,0,1-1.11.2c-.26-.32-1.16-1.09-.44-1.62,0,.74,2.08.14.88.81.52-.06.91-.4,1.33,0Zm2.21,0c-.57-.29-1.4-.34-1.77-.81.59,0,1.26-.08,1.55.2-.39.55,1,.39.22.61Zm6.42.41c-.78,0-2.14-1.45-1.33-1.62.12.71,1.47,1.35,1.33,1.62Zm-1.77-.81A11.71,11.71,0,0,0,56,83.25c-1.09.5-2.61-.14-1.11.81,1.34-.63.84.6,2,.61Zm4,0a1.17,1.17,0,0,1-1.55-.2c.35-.18-.4-1.58.44-1.42-.63,1.29.59,1.13,1.11,1.62Zm-5.76-2.23H56.4c.29,1.09-1.23.38-1.33,0ZM100.66,53.2c0,.3.08.75-.22.81-.14-.42-1.14-.76-.22-1,0,.16.19.24.44.2Zm-4-4.26c.67-.13.77-.78,1.77-.61.43,1-1.39,1-1.77.61Zm9.07-3.86c.12-.63.27-1.25,1.11-1.22-.32.45-.46,1.07-1.11,1.22ZM74.55,22.54v.61c-.57,0-.77-.37-1.11-.61.42-.38.4.12,1.11,0Zm14.83-.61c-1-.14.05,1.54-1.11,1.22.1-.55.83-1,.22-1.62a1,1,0,0,1,.89.41Zm-5.75,1.22c-.17,0-.44,0-.44.2-.65.23-.82-1-1.11-.41.77.28.27,1.15-.66,1A7,7,0,0,1,81,22.54c.14-.28.85,0,.89-.41a1.59,1.59,0,0,1-.66-.41c.6.15.45-.4.89-.41.1.27.43,1.33.88.61-.17,0-.44,0-.44-.2.83,0,.86.83,1.11,1.42Zm20.14-1.42c-1-.87-2,.5-2.66-.41.85-.37,2.29-.82,2.66.41Zm-32.09,0c0-.21-1-.41-.22-.61,0,.12,0,.24.22.2.12-.36.11-.84.44-1a1,1,0,0,1-.44,1.42Zm33.42-.2v-.41c-.32.08-.37.24-.66,0-.11-.66,1.1-.43.44-1h.66c.17.62-.61.39-.44,1a.2.2,0,0,1,0,.41Zm-25.23-.61c-.94-.09-.9-.7-1.33.2.18-.57-.31-.53-.22-1,.46-.45.72.18,1.11-.2-.19.65.35.63.44,1Zm14.39.2c.24-.73,1.05-.93,1.77-1.22-.11.84-1.27.73-1.77,1.22Zm-23.68-.61h-.89c0-.33-.74-1-.22-1.22.09.35.28,0,.66,0-.18.7.25.86.44,1.22Zm28.33,0c1,.06,3-.33,2.66-1.42-.74.58-1.4,0-1.55,1-.22,0-.17-.25-.22-.41-.9.13-.13.85-.89.81Zm-16.6-1.83c-.33.65.64,1.55-.22,1.42.09-.43-.64-1.13-.22-1.62,0,.16.19.24.44.2Zm-6.42.61c-1.55-.23.36,1.51-.89,1.62.05-.55.25-2.33-.89-2.84.77.24,1.66.37,1.77,1.22Zm20.8.2c.87-.82,2.29-1.15,3.32-1.83,0,.71-2.35,2-3.32,1.83ZM68.57,18.27c-1.21.17-.08.27-.22,1-1-.07-.49-1.58-1.33-1.83.66.14,1.35.25,1.55.81Zm3.32,1c.64-1-1.13-2.22-1.77-1.62v.61c.58.32,1.66-.38,1.77,1ZM57.28,18.07a1.68,1.68,0,0,1-1.77-.81c1-.11,1.59.16,1.77.81Zm48.69.81c-1,.75-2.06.12-2.88-.41.17.14.58,1.21-.22,1-.17-.74-.1-1-.89-.2v-.81c.94-.17,2.43-.9,2.88.2.79-.16.15-1.62,1.11-1.62.25.64-.35.49-.44.81.32.45.54-.25.67.2-.33,0-.2.49-.22.81Zm-26.12-2c0,.32,0,.7.44.61-.16-.87-.69-1.4-.89-2.23.51.11.76-1,1.11-.41-.65.18.51.3.22.81-.3,1.42,0,2.11.44,3.65-.68.15-.81-.21-1.33-.2-.26-.8.33-1.21-.89-1.22.13-.49.19-1,.89-1Zm-.66,1.83c0-.36-.27-.43-.22-.81-.29-.24-.35-.08-.66,0-.62,0,.53-.55-.44-.41.07-.28.55-.17.89-.2-1-.65-.56-.69-.66-1.62-.39,0-.51.35-.44.81-.26-.3-.64-.5-.66-1,.65.18.37-1.08-.44-1.22.17.7-.25,1.08-.44.41-.59,1.13.58,1.59-.44,2.44.76-.33.66,0,1.11.41-.19.59-.71-.12-1.11,0,.86.67,1.14.82.89,2.84-.49,0-.09-.86-.22-1.22-.74.36.08,1.11-.44,1.83,0-.11,1.48.16.89.41.54-.22.44-1.63.22-2.44.09-.39,1,0,.66-.81.91-.16.67.74,1.55.61ZM61,18.68c.69.06-.56-.59.22-.61-.22-.81-1.45-.7-2.21-1-.16-.62.23-.74.22-1.22-1.06-1.11-3.55-.84-4.87-2.23-.34.63.51,1.52,0,2.44-.21-.34-.61-.52-1.33-.41.44.63.26.67.88,1.22.26,0,.19-.37.22-.61.53-.08-.12.92.66.61.44-.41-.1-.4-.22-.81,2.94,0,3.3,1.84,5.75,3-.08-.27-.39-.32-.44-.61s1,0,1.11.2Zm-4.21-6.09c-.27,1.39-1.07-.18-1.55-.41.7,0,.74.54,1.55.41ZM55.07,13c-1.17-.87.29-.55-.89-1.42-.56-.22-.86,1-.89,0-.24.05-.15.4-.44.41.77.4,1.21.06,1.11,1,.42-.38.56,0,1.11,0Zm26.56-1.22c0,.38-.25.45-.22.81-1.23-.08-1.34-.2-2,.41-.31-.55.56-.81-.44-1.22.63,0-.27-1.33.66-1-.56.87.47,1.29.44.61.32.93.9,1.18,1.55.41Zm3.1-.2c-.45.41-.59.05-.89-.2.19,1-1.5.33-.66,1.42h-.89c-.11-.64.68-.46.44-1.22.33,0,.82.07.89-.2,0-.5-.35-.63-.44-1,.83.12.94.9,1.55,1.22Zm-2.66-.81c.61-.25.34-.59.22-1-.45.36-.06.75-.88.41-.34.72.75.12.66.61Zm-.89-.41a1.09,1.09,0,0,0-1.11-.81c0,.58.28,1,1.11.81Zm12.39,9.14c-1.43-.87-2.47,1.46-4.21,1.22-.21.74,1,.21,1.11.61-.28.35-.46.8-1.11.81.59.33,1.83-.48,2.43-.81-1-1,1.15-1.17,1.77-1.83ZM79.86,10.15c-.65-.43-1-.08-2.21,0,0,.61.4.85.88,1-.07.28-.55.17-.88.2.12.56.85.57,1.33.81-.49.57-1.51-.09-1.55-.61-.64,0-1.13.05-1.33.41-.26,0-.19-.37-.22-.61-.7.23-.5,0-1.33,0-.08.35.17.38.44.41.09.49-.41.44-.22,1,.72-.82,1,.41,1.33-.61,1.57.45-.57,1.42,0,1.62-.94.22-.75-1.11-1.55-.41v-.81c-.74-.14-.81.34-.89.81.92-.52.26.17.66.61-.72.25-.17-.66-.88-.41,0,.2-.27.16-.44.2A3,3,0,0,0,74.55,15c.47-.45-.19-.94.44-1.42,1.14.38-.7,1.18.66,1,.1.43-.32.39-.66.41-.19.65.57.42.66.81-.19.35-.87-.54-1.33-.61-.42.62.5.46.44,1.42a5.36,5.36,0,0,1-1.55-2c-.49.33.18,1.31.66,1.42-.08.8.2,1.95-.22,2.44a20.17,20.17,0,0,1-2.88-1.42c-.84.21-1.07.53-1.77,0,.22-.57.94.06,1.33,0-.41-.63-1.36-.79-1.77-1.42-.5.09,0,1.08-.44,1.22a11.43,11.43,0,0,1-2.43-2.44c-.58.63-1.92.24-1.55-1.42H63c0,.64,1.23.09.89,1-.58-.35-1.38-.49-2-.81-.09-.49.4-.44.22-1-.63-.28-1.79-1.4-3.1-1.22a3.36,3.36,0,0,0-.66.61c-.82-.15-1.37-1.18-2.21-1.42-2.81-.8-6.8-.24-8.41-2.64C47,8,48,8.59,48.21,8.93c-.68.15-.43-.56-1.11-.41.24.19.07.75.66.61a4.13,4.13,0,0,1-2.66.2c-.57,1.08-.19,1.82-1.77,2,0,.27.92.38,0,.41.54.4.22.32.44,1,0,.28-.86.79-.88.41-.45-.06,0,.59.22.61-.52-.14-.82.59-1.11,1.22-1.89-.35-3,.12-3.32,1.62-1.38,1-3.73,2.1-3.76,3.65-1,.07-1.35.79-1.55,1.63-1.38.74-1.36-.14-2.21-.81a1.23,1.23,0,0,1-1.77,1.63c-.11-.64.68-.46.44-1.22,1.11.07,1.44-.58,1.77-1.22-.68.05-.68.73-1.11,1-.11-.06-.43-.71.22-.61-.31-.87-1.41-.09-2.21-.2-.08-.35.17-.38.44-.41-.07-.28-.55-.17-.89-.2.67,1.41-.15,2.62-2,2.23.35.74.71.3.66,1.22.41,0,.14-.69.44-.81,1.06.95,2.67.21,4,1-.22.61-2.11,1.63-2.21,1-.8,1.27-.79,2-1.55,3.25-1.16.7-2.92,1.91-2.66,3.25-1.39.73-2.39,1-2.43,2.64a1.55,1.55,0,0,0,1.11.2c-2.48,0-1.85,1.81-3.54,2.23.34.64,1.39.62,1.55,1.42a19,19,0,0,0-4.65,2.64c-.2,1.67-1.47,2.51-3.76,2.44,1.72.75-.29,2.88,1.33,3.66-1.5-.12-3.09-1.22-4-1.22,1.45,1.29,3.21,1.08,4.43,2.44,0,.38-.73.14-.66.61a3.91,3.91,0,0,0-1.55-.41c.36.48,1.3.43,1.77.81-.88,1.46-2.8,4.16-3.1,6.09-.26,0-.39,0-.44-.2,0,.93-.94,2.58-.22,2.84-.15.4-.59.54-1.11.61.45.75-.46.49.22,1.22-.19.59-.71-.12-1.11,0,1.59,1.27-.34,2.08-1.11,3.66.49,1.71.58,2.73-.89,3.65A17.15,17.15,0,0,1,5,72.29c.29.21.82.2,1.11.41-1.43,0-.53.47-1.55,1,0,.44.56.44,1.11.41-.56.36-1.56.33-1.33,1.42.89-.07.9.66,1.77.61-.17.46-1.24.08-1.77.2.68.48.17.2-.22.61.36.89,1.82.76,2.66,1.22-.73.39-2.24-.24-3.54,0,.95.83.56,1.5,2.88,1.62-.94.52-2.42-.37-3.54.2-.21,1.24-1.35,2.81-.89,4.67.73.06,1.81.47,2.43,0,.59-.06-.59.79.44.61-.31.46-1.54.08-2.21.2,0,.36.27.43.22.81.94.08,2.28-.2,2.88.2-1,.55-2.71.05-3.54-.2C3,87.47,5.94,87,7.7,87.52c0,.44-.78.09-1.11.2,3.27.94,7,2.91,10.62,1.83.34.23.46.66,1.11.61-.4.06-1.54,1.08-.44,1.22-1.06.15,0,1-1.11,1,1.18.4,2.06-1.22,3.76-1-1.28.92-3,1.41-4,2.64h.88c-.25.92-1.92.54-2,1.62.55.84,1.24-.88,1.33.2.79-.09,1.06-.65,1.11-1.42.52.06.52.55,0,.61.86.05,1.61-.52,2.66-.81.37-.55-.35-1,.44-1.22.25.81-.4,1.27-.66,2.23.29-.48,1.16-.63.66.2,1.09.45,2-.91,2.43.41.5-1,.59,0,1.33-.41.31.53,1.31.42,1.11,1.42.19,0,.21-.08.22-.2h.44c-.42-.69-.79-1.44-2-1.42a2.11,2.11,0,0,1,1.55-.41,3.84,3.84,0,0,1,.44,1.62c.81,0,.85.28,1.55,0-.78,1.14.28-.14.22,1,1.08-.39,1.39.09,2.43.2-1.42-.57-1.65-1.29-3.54-1.62-.11-.64.76-.54.22-1h1.33a1.41,1.41,0,0,1,1.55-1.42c-.42-.4-.78-.35-1.33-.2-.38-1,1-.26.67-1.22.19.37.57.56.66,1,.89-.2,1-1.11,2-1.22-.07-.28-.55-.17-.89-.2.16-.49,1.18-.72.44-1.42,1.13.17.49.26.89,1.83.3-.06.18-.51.22-.81,1-.19,1.16.43,1.11,1.22.81.2.1-1,1.11-.61.06.53-.08.87-.66.81.16.63.16.39,0,1,.85.14,1.07-.83,1.77-.2-.44.28-1,.41-1.11,1-1-1.31.22.46-1.55.41v1.22c.81-.13.85.44,1.55.41,0-.38.73-.14.66-.61.59.47,1.75.81,1.11,1.83a11.61,11.61,0,0,1,2.43-.2c.39.18.28.83,1.11.61a1.59,1.59,0,0,1-.66.41c.48.69.8-.46,1.33-.41-.47-.23-.64-.08-1.33-.41-.06-.33.21-.35.22-.61.72-.25.17.66.89.41.13-1.45-1.17-.37-1.33-1.42-.48,0-.1.72-.22,1-.17-.52-.64-.77-1.55-.61C38,95.56,39,96,40,96c.08-.35-.17-.38-.44-.41.06-.42.59-.41.89-.61,0,.48-.38.6-.22,1.22.69-.72.58,0,1.33.2-.63-.59.54-.81.89-.61.45-.31-.37-1-.89-.61.32-1,1.95-.27,2.43-1.42,0,.52-.41.71-.66,1,.54.27.14.41.44.61.56-.62,1.26-.86.89-1.42a2.27,2.27,0,0,1,1.33.61c-.77-.41-.26.65-1.11.2-.65.53.86.75,1.11.2.2.06,1,.55.44.61.35.37,1.27-.45,1.11-1.22-.85,1.1-.74-.31-2-.4-.16-.62.38-.6.22-1.22-.4,0-.47.25-.89.2-.05-1,.32-.67,1.11-.61-.23-.47-.3-1.08-1.11-1-.06-.33.21-.35.22-.61.68-.15.42.56,1.11.41.07-.47-.64-.23-.66-.61.69-.79.94.33,1.33-.41,1.1.47-1.44.85,0,1,.07.25-.64.7-.66.2-.95.32.94.71.22.81.19.55.7-.43.22-.61.4,0,.47.25.89.2.06-.93.24-1,0-1.83-1.35.09-.94-.52-2.21-.2-.74-.48.33-1.68-.22-2,1.25.14,0,.89.89,1.22,0-.6.17-.56,1.33-.41.17-.7-.25-.86-.44-1.22.42.09.55.44,1.11.41.09-.42-.15-.54-.22-.81,2.88.36,3.49,3.58,4.43,5.08a1.57,1.57,0,0,0,.44-1.22c-.82-.13-1.12-.74-1.33-1.42.39-.18.5,0,.22-.81,0-.45.94-.09,1.33-.2-.15-.4-.67-.46-.89-.81.69-.24-.12-.59.67-.61-.15-.56-1.16.57-.89-.61-.44.38-.38.71-.22,1.22a1.1,1.1,0,0,0-.66-.2c.25-.82-.62-1.42-.44-2.44,1.37.79,3.8,2.12,2.44,3.66.19.6.56-.26,1.11,0-.41-.61-.16-2.39-1.33-2.84.38-.72.45.66.89,0,.53-.08-.12.92.66.61-.23-.55.29-.39,0-1.42a10.54,10.54,0,0,0,1.77.41c-.34.43-.85,1.26.22,1.42a.93.93,0,0,1,0-1.22c.17.14.7.86.66,0a2.22,2.22,0,0,1,1.33,1.62c-.53.08-.48-.37-1.11-.2-.09-.49.4-.44.22-1-.71.53-1.51.9-.89,1.62a11.16,11.16,0,0,1-1.55-.41c-.78.35.52.44.67.61-.31.73-1.49.05-.89,1.22-1.48.1-2-.07-3.1.61,2.64.45.88,3.82-.22,3.65.07.48,1,.12.89.81-.22-1.15,1.23,0,2-.61.92.51-.54.77.66,1-.09.32-.7.17-.44.81.87.29,1.76.55,2,1.42-.07.28-.55.17-.88.2.32.66.25,1.16,1.11,1.62-.22.34-1,.14-1.11.61,0,.24.4.17.66.2-.72.39-.28.53.22.81-.92.76-1.12-.86-2.21-.61,1.14.68,1.17,1.46,2.66,2-.12.38-.52,1.53-1.11.81-.23.47-.69.72-.66,1.42.22,0,.17-.25.22-.41.52,0,.65.35,1.33.2.34.85-.53.56.44,1-.66,0-2.14.22-2.66-.61a1.11,1.11,0,0,1-.66.2c.38.76-.13.32-.22,1,.36,0,1.06.61.66.61a2.85,2.85,0,0,1,2.88-.61c-1.14.33-.45.93.44,1-1.55,0-.82.76-1.11,1.62-.92.1-1.12-.46-1.77-.61.38.76-.13.32-.22,1,.85,0,.08.17.22.61.41,0,1.47-.52,1.77,0-.94.59-1.56.13-2.66,0-.06,1.07,1.57.59,2.21,1-.1.45-1.09.08-1.55.2.86.86,2,.46,2.88,1-.42.68-1.42-.35-1.77.2.81.12-.35,1.24.88,1.22-.22.49-1-.4-.88.61.32.11,1.14-.24,1.11.2-1.25-.2-.41.79-1.77.81,0,.6,1.34.38,1.11-.41.66.07.42,1,1.55.61-.55.5-.27,1.17-.44,1.62a.6.6,0,0,1-.66-.41c-.81.32.51.3.22.81a16.45,16.45,0,0,1,1.77-.61c.65,0,.35,1.53-.44,1.42,0,.56.7.57.89,1-.41.3-.33,1-1.11,1,.22.62.75-.09.89-.2.8.18.13.6.22,1.22a12.4,12.4,0,0,1,4.43-.2c-1.16-.58-3-.93-3.32-.61-.71-.16-.63-1-1.11-1.42.16-.74.67-1.28,1.11-1.22.07-.54-.46-.52-.89-.61a4.27,4.27,0,0,1,1.33-.81,1.68,1.68,0,0,0,1.33.61c.07.53-.31.67-.89.61-.15.82.21,1.16.22,1.83.36,0,.36-1.39,0-1.42,0-.29.66-.07.66-.4.23.1.44,1.54.66.4.36.7-.42,1.07,0,2.23.68-.15.65.35,1.33.2-.05-.95-.62-.16-.89-.81,0-.5.73,0,.66.2.47-.25,1-1,.66-1.42-.3.06-.18.51-.22.81-1.32-.08-.08-1.23-.22-2,.6-.15.45.4.89.41-.12.46-.34-.25-.66.2,0,.54.7.44.66,1,1.77-.68-.28,1.6,1.55,1.42-.42-.36.26-.59-.22-1,.1-.3.28.08.66,0,0-.52,0-1,.66-1a1.92,1.92,0,0,0-.89-.81c.73-.16.79-.78.44-1.42.78.11,1,.6,1.77.2-.71.36-.44,1.63-1.11,2,.07.28.55.17.89.2-.17-.77.27-1,.22-1.63.79.26,1.49,0,.66-.41,0-.6,1-.26,1.33-.61,0-.32-.11-.77.22-.81-.47-.42-.89-.88-1.55-.61,1,.52-.73.42-1.33.61,1.15-.24.2-1.16,1.33-1.42.31.07,0,.36-.22.41.31.59.76-.36,1.33-.2-1.1-.45-.75-1-.89-2.44a8.36,8.36,0,0,1,1.55.61c-.22-.51-.19-.68,0-1.42.5.22.64.76,1.11,1-.54.12-.89.2-.88,1.22-.53.08.12-.93-.67-.61,0,.39-.63,1.66.44,1.83.1-.95.18-1,1.33-1.22-.46-1,1.69-1.63.22-1.22-.62-.21.06-.86,0-1.22,1-.1.48,1.18,1.11,1.42.52,0,.65-.35,1.33-.2.08-.62-.8-.34-.89-.81.9-.21,1.14-.58,1.11-1.22a1.49,1.49,0,0,0,1.11,0c-.71-.8-3.44-.8-4-1.83-1.54,1.27-.83-1.19-1.55-1.83.5-.16,1.48.23.89.41.2.49.67-.44.66-.81-.32-.25-.42-1.13-.66-1.83.45.09.74-.13,1.55,0-.38.51.13,1,.22.2.18.44.84.45.88,1,.22-.88,1.14.51.67-.41.29.26.82.27.89-.2.2.43.94.35.89,1,4.89.67,8.6,3.16,14.16,4.06.48,0,.48-.51.44-1-.44,0-.28.55-.89.41s.29-.51,0-1c-.53-.08-.48.37-1.11.2.08-.66,1.41-.84.89-1.42.68.15.65-.35,1.33-.2-1.37-.26.35-1-.44-1.83.07-.28.55-.17.89-.2a1.32,1.32,0,0,1,0-1.22c.4,0,.47.25.89.2-.49-1,.62-1.86,1.11-2.64.26,0,.19.37.22.61.63-.28.19-.75.44-1.62.77.55.95-2,1.11-2.44.49.53,1.56-.08.89-.61.68-.15.65.35,1.33.2-.2,0-.11-2.13.44-1.42.61-.09,0-.64-.44-.4V92.59c.39.19.77.38.66,1,.71.18.3-.67.89-.61.23.55-.39.48.66.81.15-.22-.11-1.79-.89-1.83.15-.27.59.1,1.11-.2-.3-.53-.93-.77-1.11-1.42.06-.48.83,0,.89.2a2.29,2.29,0,0,1,.22-3c-.07-.28-.55-.17-.89-.2.17-.56,1.45-.72.44-1.22.27-.61.88.11.88.41.25,0,.12-.2,0-.2-.08-.35.17-.38.44-.41-.36-.88-.48.44-.89-.41-.09-.56.82-.19.89-.61a1.67,1.67,0,0,0-1.77-1c.63-.47,1.09-.49,2.43-.61-.18-.7.33-.78.22-1.42-.33-.11-.56-.3-.89-.41.19-.6.56.26,1.11,0,.25-.51.1-1.39.88-1.42-.32-1.27-.06-1.83-.88-2.64,1,.44,1.54.22,2.43.61-.85-.23.11-2.13-1.11-2,.14-.18.27-.36,0-.41a5.21,5.21,0,0,0,.89-.81c-.45-.53-.72-1.61.22-1.83,0-.52-.86-.29-.88-.81s.15-.54.22-.81c.65,0,.82.46,1.11.81.6-.18-.23-.71-.22-1,0-.45.56.26,1.11,0-.9-4,2-5.74,0-8.94.15-.44.73.39.89.61.55-.33-.39-1-.44-1.42,1.25-.62-.21-3.53-2-4.26,0-.64.59-.68.44-1.42-.39.18-.36.75-.89.81-.33-.94.88-2.38,0-3.45-.18,0-.22.21-.44.2,0-.36.27-.43.22-.81-.22,0-.17.25-.22.41-.22,0-.17-.25-.22-.41-.21,1.61.26,2.36,0,3.45-.55-.91-3.23-1.37-2.21-2.44.6-.15.45.4.89.41s-.86-.93,0-1.22c-.22-.67-.44.23-.66.2a16.33,16.33,0,0,1,1.55-3.25c.45.17.43,1.71.22,2.23.85.12.42-1.31,1.33-2.23.34.23.46.66,1.11.61a4.08,4.08,0,0,1,1.55-4.26c.3.06.18.51.22.81.2-.43.94-.35.89-1-.39.38-.68-.05-.89-.41.07-.75,1.13-.59,1.11-1.42-.33.11-.56.3-.89.41.13-.66-.15-.94-.22-1.42.06-.22.44-.14.44-.4.33,1.39.22-.36,1.33-.41,0-.65-.7-1.42.44-1.42.07-.47-.64-.23-.66-.61-.37,1.13-1.6.26-1.77,1.63-.67-.25.24-.7,0-1.22-.69.42-.3.9-.66,1.62a2.86,2.86,0,0,1,.22-2.64c-.26,0-.39,0-.44-.2-.9.54-.66,2.52,0,3.25-.16.87-1.07,1.05-1.33,1.83-.42-.29-1.15-.3-1.33-.81-.45,1,.5,2.76-1.33,2.84.15,1.16-.57,1.51-1.33,1.83.16-1-.06.95-1.11.2a1.24,1.24,0,0,1-.22,1c-.75.26-.91-1-.44-1.22a.76.76,0,0,0-1.33-.2c-.18,0-.22-.2-.44-.2a3,3,0,0,1,3.76-.41,3.13,3.13,0,0,0-2.21-1.83c.14-.74,1.12.55.89-.41-.64,0-1.12-.05-1.33-.41.22-.44,1.28,0,1.55.2.62-.63.74-.92,2-.61-.65-.74,0-1.26.44-2a1,1,0,0,1-.89-.41c-.16-.33,1-.33.89,0,.42,0,.15-.67.66-.61a2.14,2.14,0,0,0-1.55-.61c-.19-1,.67-1.3.22-2.23.4,0,.47.25.89.2-.08-.39-1.06-1.11.22-1-.17-.59-1.07-.51-1.55-.81.45-1.19,2.16-.51,3.54-.41a1,1,0,0,0-.89-.41c0-.44.79-.09,1.11-.2-1.12-.25-1.18-1.49-2.88-1.22a.61.61,0,0,1,.66-.41c-.2-.35-.69-.45-1.33-.41-.13-1.42,1.1-.33,2.21-.61.39-.42-.17-.4.22-.81.79.27.81,0,1.55.2.54-.92-2.2-.48-.89-.81-.39-.41-1.46.27-2.21.2.42-1.34,2.38-2.51,4.87-1.83-.09-.39-.63-.37-.44-1-.49.47-1.59-.59-2.21,0-.36-1-2-.75-2.66-1.42.71,0,1.41-.24,1.11-1.62,1,.24.8.06,1.11-.61,1.54.66,2.33-1,3.1.2.49-.27.26-1.58-.22-1.62,0-1,.83-.37,1.11,0-.14.21-.51.21-.44.61.69,0,.76-.52.88-1-.26-.57-1.65-.11-1.55-1,0-.24.4-.17.67-.2s.19.37.22.61a1.94,1.94,0,0,0,1.11-1.62c1,.23.28.12.66-.41a.61.61,0,0,1,.66.41c.59-1.19-.47-2.82.44-4.06.36-.09.74.76.22.81.38.6.81-.46.66-1-1,.15-1.64-.12-1.77-.81a1.55,1.55,0,0,1-1.11.2c.62.63.22,1,.22,2a3.76,3.76,0,0,1-.89.61c-.49,0,.29-.51,0-1-.34.23-.46.66-1.11.61.09.39.63.37.44,1-.38-1-.62-.27-.89.41a10.11,10.11,0,0,1-.22-3.25,5,5,0,0,0,2.21,0c.09-.49-.4-.44-.22-1-.36,1-.95.34-1.33-.2-1.18.9-3.07.41-4,.81-.32-.24-.21-.89-1.11-.61.15-.4.74-.89.89-.2.48,0,.1-.72.22-1-.7-.1-.78.37-1.55.2.11.52.27,1.19-.22,1.62-.61-.43-1.07-.41-1.11.61-1.1.27-.94-.63-1.77-.61a3.5,3.5,0,0,0,.66.81c-1.1.95-2.63,1.52-3.76,2.44-.65-.18.51-.3.22-.81-.29.07-.35.36-.66.41-.1-.64.56-.57.89-.81-.44-.51-.82.6-1.55,0-.41.36.06.63.44.81a8.36,8.36,0,0,1-2.66,1.62c.26-.78,1-1.1,2-1.22.2-.66-.72-.29-.88-.61,2-1.24,4.13-3.35,6.64-3.45.13-1.47,3.9-2.12,4.87-2.84.72-.25.17.66.89.41a1.24,1.24,0,0,1-.22-1c-1.83-.05-2.81,1.49-4.65,1.22A35.08,35.08,0,0,1,92,18.07c-1.19,1.13-3.11,2.49-5.09,2.23a3.56,3.56,0,0,1-3.1,2.23c-.14-1.43-.88-2.31-.89-3.86.66,0-.31,1.5.66,1.22A3.87,3.87,0,0,0,83,17.46c.59,0,1-.63.44-1.83,1.08-.58.15,2.43,1.55,2.23-.46-.95.45-.56.89-.81-.07-.28-.55-.17-.89-.2-.29-1.11,0-1.22.22-2.23.7,0,.09,1.13,1.11.81-.51-.89-.26-1.19-.22-2-.53-.15-1.18-.72-1.55-.41v1.62A9.46,9.46,0,0,1,84.06,12c.3.06.18.51.22.81.88.13.32-1.06,1.11-1a3.84,3.84,0,0,1-.22-2.23c-.73.89-1.69.27-2.88,0-.07-.54.46-.52.89-.61.29-.51-1-.49-.22-.81-.34-.44-1.92-.8-1.33-1.42-.53-.76-1.18,1.38-1.55.2A3.57,3.57,0,0,0,79.86,10.15Z"/><path class="cls-1" d="M109.29,38.58c-.06-.48-.59.23-.89.2.54.48-.8,1.31-.22,1.83.5-.28,0-1.49,1.11-1.22C109.23,39.27,108.74,38.61,109.29,38.58Z"/><path class="cls-1" d="M73.44,7.72c.66.69,1.06.37,2.21.61-.54-.31-.8-.73-.44-1-.78-.61-1,.57-2,0,0,.5,0,1-.44,1C72.23,8.75,73.73,8.32,73.44,7.72Z"/><path class="cls-1" d="M44,7.51c0,.2.27.16.44.2-.07.47-.43.84,0,1.22.78-.3,2.34.11,2.21-1-.82,0-1.52-.09-1.55-.81-.3.06-.18.51-.22.81C44.45,7.92,44.61,7.37,44,7.51Z"/><path class="cls-1" d="M103.32,10.15c0-.36-.27-.43-.22-.81-.53-.08.12.92-.66.61,0,.29,0,.58.22.61C103.11,11.19,102.15,9.75,103.32,10.15Z"/><path class="cls-1" d="M40.9,12.39c-.25,0-.12.2,0,.2-.09.32-.7.17-.44.81.71.41.69-.8.89-.2C42.15,12.83,41,12.56,40.9,12.39Z"/><path class="cls-1" d="M108.41,12.79a3,3,0,0,0-.22,2.64A5.54,5.54,0,0,0,108.41,12.79Z"/><path class="cls-1" d="M24.53,19.7c.41-.27-.67-.13-.89,0-.46-.05-.06-.89-.44-1,.05-.25.44-.21.44,0,.3-.06.18-.51.22-.81-1.39.55-1.77.27-2,1.42-.67.21-.39-.45-.44-.81-.32.18-.7.3-.66.81.24.45,1.32.14,1.11,1,.56-.95,1.4-.39,2.43-.2C24.27,19.87,24.35,19.74,24.53,19.7Z"/><path class="cls-1" d="M84.06,19.7c.12.16.65-1,.89-1.42C84,18.75,84.26,18.39,84.06,19.7Z"/><path class="cls-1" d="M24.75,19.9c-.6.18.47.64.66.2.31.65-1.32.51-1.33.2-.58.39-.07.86-.22,1.42.74.16,1.89-1.08,2.21,0,.25-.33.87-.64.44-1-.4,0-.47.25-.88.2.21-.41.85-.44,1.55-.41-.1-.43.32-.39.66-.41-.28-1.22-2,.78-2.21-.41C25.08,19.43,24.94,20.5,24.75,19.9Z"/><path class="cls-1" d="M15,21.93c.09-.56-.82-.19-.88-.61-.89.26.06.42,0,1-.72.25-.17-.66-.89-.41,0,.2-.27.16-.44.2,0,.84.5,1.16.89,1.62a.91.91,0,0,0-.22.61h-2c.52.42,2.21.67,2.44.2.39.18.28.82,1.11.61-.27-.58-.32-1.12.44-1.22-.09-.45-1.21-.19-1.11.2-.72,0-.16-1.21-1.11-1,0-.45.94-.09,1.33-.2C14.08,22.29,14.19,22.25,15,21.93Z"/><path class="cls-1" d="M12.13,26c-.08.34.17.38.44.41,0,.29,0,.57-.22.61.21.5.85-.28,1.55,0A6.52,6.52,0,0,1,12.13,26Z"/><path class="cls-1" d="M11,28.83c-.09-.86-.76-1.2-1.55-1.42.37.4,0,.26,0,.81.55.32,1.13.47.66,1.22.58-.06.57.42.66.81.49-.15.11-1.16-.44-1A1.58,1.58,0,0,1,11,28.83Z"/><path class="cls-1" d="M8.59,31.88c.87,0,1.66.44,2-.41.59-.14.43.42.66.61a2.22,2.22,0,0,0,.89-2.23c.09-.49-1,.11-.66-.61-.69.62.37,1.59-.22,2.23a8.83,8.83,0,0,0-1.55-.41.91.91,0,0,1,.22.61c-.79-.15-.94-.9-1.55-1.22C7.93,30.61,9,31.11,8.59,31.88Z"/><path class="cls-1" d="M9.48,29.44c-.25.24.33,1.45,1.11,1.42C10.56,30.08,9.93,29.84,9.48,29.44Z"/><path class="cls-1" d="M8.15,31.88c-.66-.18.79.79.66,1.42C9.32,33,8.55,32.07,8.15,31.88Z"/><path class="cls-1" d="M7,32.08c-.09.57,1.24,1.45.89,2.44A1.55,1.55,0,0,1,9,34.32,4.87,4.87,0,0,0,7,32.08Z"/><path class="cls-1" d="M7.93,37.77c.07.48.69.45.89.81-.09.45-1.21.19-1.11-.2C7.56,39.16,8,40,7.93,41c.16.33-1,.33-.89,0-.72,1,1.28.28,1.11,1.22,0,.37-1.11-.39-1.11.41-.13-.18-.91-.75-.44-.81,0-.35-1.35.41-1.33-.4-.63.38.78,1.27,1.11.81.15,1.42,2.31,1,3.32,1.62-.54-.48.33-.38.22-1-1,.8-.63-.46-1.55,0,.25-1.09.88-.13,1.77-.2.13-.93-1-.75-1.77-.81,0-.5.35-.63.44-1,.34.4,1.29.64,1.55,0,.54.2-.43.9.66.81-.6-.5.4-2-1.11-2.23,0,.29,0,.57-.22.61.07.28.55.17.89.2-.32,1-1.52-.35-1.77.41-.59.06.21-1.14-.66-.81.55-.31.9-.8,1.77-.81C9.09,38.36,9.28,38.11,7.93,37.77Z"/><path class="cls-1" d="M5.93,39.39c-.8.61,1.15.42,1.11,1,.55,0,.06-.69,0-.81C6.53,39.66,6.09,40,5.93,39.39Z"/><path class="cls-1" d="M10.36,42.44c.14.77.92-.22.88.81.26-.06.92-.9.89,0h.44a.91.91,0,0,0,.22-.61C11.82,43.09,11.2,41.84,10.36,42.44Z"/><path class="cls-1" d="M4.16,42.64c-.45-.32.94.8,1.11,1.22.47-.3-.16-.5.22-1C4.82,43,4.68,42.64,4.16,42.64Z"/><path class="cls-1" d="M5.27,44.87H4.83c.92.66.37.95.66,1.83h.66c.15-.49-.94-.83.22-.81C6,45.42,5.68,45.61,5.27,44.87Z"/><path class="cls-1" d="M7.93,54c-.32-.59-1.57-.32-1.55-1.22-.57,0-1.76-.17-1.11.41-.4,0-.47-.25-.89-.2.14-.21.51-.21.44-.61-.52,0-.65.35-1.33.2.28.76,1.53,1,2.43.61.49.56.78,1.32,2,1.22,0,.17-.09.19-.22.2C8.44,55.14,7.73,53.9,7.93,54Z"/><path class="cls-1" d="M48.87,91.37c.25.31.72.42.66,1-.11.29-1.41,0-1.33-.61-.68-.15-.43.56-1.11.41.37.09,1.06.89,1.33.41,0,.38.82.92.89,1.83.63-.68,1.44-.07,1.55-1-.22,0-.17.25-.22.41-.82-.13-.68-1.14-.66-2C49.56,91.69,49.42,91.34,48.87,91.37Z"/><path class="cls-1" d="M33.16,95c-.41-.39,0-.51,0-1-.72-.22-2,.11-2.21-.61C30.48,94,32.48,94.47,33.16,95Z"/><path class="cls-1" d="M25.19,97.06h-.44c0,.17-.09.19-.22.2.57.15.75.67,1.33.81C25.86,97.53,25.15,97.63,25.19,97.06Z"/><path class="cls-1" d="M42.68,97.47c.31,0,.63,0,.66.2.77-.34-.43-.52-.89-.41,0,.36.27.43.22.81C42.13,98.56,43.4,97.82,42.68,97.47Z"/><path class="cls-1" d="M40.46,99.09c.61.76-.75.13-1.11,0a1.08,1.08,0,0,0,.22-.81,1.54,1.54,0,0,0-1.11-.2c1,.75,0,.89.66,1.83,1.81-.63,3.15,1.56,4.87,1.22C43.46,99.89,41.41,100.33,40.46,99.09Z"/><path class="cls-1" d="M42.45,98.89c-.54.25.66.59.66,1,.3-.06.18-.51.22-.81C43,99.07,42.49,99.19,42.45,98.89Z"/><path class="cls-1" d="M41.13,100.51a1.55,1.55,0,0,1-1.11.2c.08.27.39.32.44.61-.88-.07-2.64.54-4,.41-.11.78,1.33.14,1.33.81.27.66-.72.15-.44.81.61-.4,2.9.4,2.88-.41a.8.8,0,0,1,.89.81c.23-.13.23-.47.66-.41-.28-.35-.46-.8-1.11-.81.06-.55-.31-1.5.66-1.22-.68.24,0,.51-.44.81.31.59.78-.34.66-.81.52.27,1.53.09,2,.41C43.78,100.9,41,101.47,41.13,100.51Z"/><path class="cls-1" d="M30.72,104.37c.1-.3.28.08.66,0a.91.91,0,0,1-.22-.61c.27-.78,2.44,0,1.33.2.4.41,1.31.59,1.11-.41a10.83,10.83,0,0,1-2.43-.81c-.25.58-.27,1.38-1.55,1-.06.36.21.42.22.2.55,0,.69.31.89.61C31,104.53,30.85,104.37,30.72,104.37Z"/><path class="cls-1" d="M50.2,110.46c.09.39.86.16.66.81.28-.28,1-.2,1.55-.2A9,9,0,0,0,50.2,110.46Z"/><path class="cls-1" d="M73.66,113.71c.66-.13-.21-.43,0-.81.19-.6.33.47.89.2,0-.79-1-.74-1.77-.81.19.44.57.69.44,1.42h-.44c-.31-.05,0-1.33-.44-1.83-.61.8-.11,1.12,0,2.23.26,0,.39,0,.44-.2.22,0,.17.25.22.41C73.32,114.31,73.33,113,73.66,113.71Z"/><path class="cls-1" d="M56.62,114.73c-.19,0-.21.08-.22.2-1,.14-2.67-.8-3.54-1.42a1.08,1.08,0,0,1,.22.81c-.58.06-.73-.28-.66-.81-.34.85-1.08.37-2,.2a2.6,2.6,0,0,0,2.44.81c.62.35.21.53.22,1.22.62-.17.57.29,1.11.2l-.66-.61c0-.16.22-.2.22-.41C54.55,114.77,56.11,116.08,56.62,114.73Z"/><path class="cls-1" d="M71.45,117.57c0-.23-.22-.11-.22,0-.32,0-.63,0-.67-.2-.3.06-.18.51-.22.81.9-.06.87-.68,1.33.2C72.44,118.23,70.8,117.61,71.45,117.57Z"/><path class="cls-1" d="M68.13,118.58c-.09-.49,1,.11.66-.61-.34-.33-.86.07-1.33.2,0,.77,1.57.18,1.33,1.22a1.33,1.33,0,0,1,.89-.2C69.82,118.38,68.84,118.61,68.13,118.58Z"/><path class="cls-1" d="M64.36,121c-.24,0-.15.4-.44.41.41.28.75,0,1.11.61.31-.62.63.05.89-.61.43.38.18.37.89.2.27.66-.72.15-.44.81H67c.42-.36-.3-.63.44-.81-.44-.41-1.38-.36-1.77-.81C64.59,120.72,65.1,122,64.36,121Z"/><path class="cls-1" d="M86.5,12.39c-1,.51,1.24,2.17.22,2.84.83-1.06,1.87-.13,2.43.2.43-.37.17-.37.89-.2-.41-.29.35-1-.22-1.42-.33.17-.32.65-.44,1A3.62,3.62,0,0,1,86.5,12.39Z"/><path class="cls-1" d="M110.18,13.4c-.26.6-.67.8-.89,0a3,3,0,0,0-.44,2c.4,0,.47-.25.89-.2.09-.42-.15-.54-.22-.81.19-.6.33.47.89.2C110.07,14,110.47,13.83,110.18,13.4Z"/><path class="cls-1" d="M11.47,33.71c-1.19.12-1.16,1.37-2.66,1.22-.38.12,0,1-.44,1,.55.24.41,1.11.88,1.42.21-.38.84-1.25,1.11-.41-.41-1.23,1.35-1.19,1.11-2.23.31,0,.63,0,.66.2.19,0,.21-.08.22-.2s.09-.19.22-.2C12.22,34,11.13,35.08,11.47,33.71Z"/><path class="cls-1" d="M48.21,91.58c.34-.57.17-1.6,1.55-1.22.33.45.48,1.05,1.33,1,0-.93-1.13-1-.66-1.83-.49-.11-.31.39-.66.41-.8,0-1-.6-.89-1.42.56.54.65-.47-.22-.2.1-.39.63-.37.44-1-.78-.11-.55.72-1.33.61C48.24,89.23,47.25,90.11,48.21,91.58Z"/><path class="cls-1" d="M30.5,94h-.67c.38.51,0,.9-.44.4-.85.54,1.06.23.66,1a1.33,1.33,0,0,1,.89-.2C31.25,94.41,30.46,94.59,30.5,94Z"/><polygon class="cls-3" points="80.78 55.77 81.88 56.81 87.36 56.8 56.94 27.01 41.73 41.98 41.72 36.53 42.96 36.53 42.96 33.15 33.39 33.16 33.4 36.54 34.64 36.53 34.66 48.94 26.59 56.87 32.07 56.87 33.15 55.84 33.2 88.05 36.26 88.05 77.75 88 80.82 88 80.78 55.77"/><polygon class="cls-4" points="33.21 57.39 33.1 55.94 56.88 33.37 80.7 55.73 56.99 36.03 33.21 57.39"/><polygon class="cls-3" points="41.73 41.98 41.72 36.53 42.96 36.53 42.96 33.15 33.39 33.16 33.4 36.54 34.64 36.53 34.66 48.94 41.73 41.98"/><path class="cls-3" d="M14.63,65.06c-1.32-2.51-.29-4.76,2.3-5.43.71-2.58,3-3.58,5.47-2.22,2.51-1.32,4.77-.29,5.43,2.3,2.58.71,3.57,3,2.21,5.47,1.32,2.51.29,4.76-2.3,5.43-.71,2.58-3,3.58-5.47,2.21-2.51,1.32-4.76.29-5.43-2.3C14.27,69.81,13.27,67.54,14.63,65.06Z"/><polygon class="cls-5" points="24.24 88.07 21.53 88.07 21.86 69.71 19.21 66.34 19.24 66.32 21.93 68.88 22.44 62.38 22.64 62.38 23.49 75.93 27.16 71.39 27.21 71.43 23.58 77.48 24.24 88.07"/><rect class="cls-6" x="14.76" y="75.84" width="24.31" height="3.16" rx="0.18" ry="0.18"/><rect class="cls-6" x="14.76" y="83.11" width="24.31" height="3.16" rx="0.18" ry="0.18"/><polygon class="cls-7" points="33.75 88.1 38.53 88.1 38.53 73.38 36.19 72.01 33.75 73.38 33.75 88.1"/><polygon class="cls-7" points="27.75 88.1 32.53 88.1 32.53 73.38 30.19 72.01 27.75 73.38 27.75 88.1"/><polygon class="cls-7" points="21.75 88.1 26.53 88.1 26.53 73.38 24.19 72.01 21.75 73.38 21.75 88.1"/><polygon class="cls-7" points="15.74 88.1 20.52 88.1 20.52 73.38 18.18 72.01 15.74 73.38 15.74 88.1"/><path class="cls-3" d="M97.36,76.22c1-2.73-.28-5.07-3.15-5.77-.89-3.08-3.63-4.24-6.59-2.57-3-1.55-5.72-.28-6.48,2.83-2.71.79-3.93,3-3.06,5.54l2.07.08,14.61,0Z"/><rect class="cls-6" x="75.08" y="75.84" width="24.31" height="3.16" rx="0.18" ry="0.18"/><rect class="cls-6" x="75.08" y="83.11" width="24.31" height="3.16" rx="0.18" ry="0.18"/><polygon class="cls-7" points="94.07 88.1 98.85 88.1 98.85 73.38 96.52 72.01 94.07 73.38 94.07 88.1"/><polygon class="cls-7" points="88.07 88.1 92.85 88.1 92.85 73.38 90.51 72.01 88.07 73.38 88.07 88.1"/><polygon class="cls-7" points="82.07 88.1 86.85 88.1 86.85 73.38 84.51 72.01 82.07 73.38 82.07 88.1"/><polygon class="cls-7" points="76.06 88.1 80.84 88.1 80.84 73.38 78.5 72.01 76.06 73.38 76.06 88.1"/><path class="cls-8" d="M65.51,75.07l.28-.09q-.13.47-.28.9v-.82Zm0-1.3V72.2q.44-.11.81-.25v.15q-.08.76-.2,1.45h0c0,.05-.2.13-.57.22Zm0-2.94V67.55q.12.27.23.55a5.78,5.78,0,0,0,1.9-2,10.86,10.86,0,0,0,1.22-4.59c0-.06,0-.12,0-.17a4,4,0,0,0-.94-2.7,3.08,3.08,0,0,0-2.33-1h-.08V56.26h.08a4.39,4.39,0,0,1,3.31,1.44,5.35,5.35,0,0,1,1.2,3.58c0,.07,0,.15,0,.22a14,14,0,0,1-1.28,5.21,10.84,10.84,0,0,1-2.54,3.52q0,.19,0,.38A6.35,6.35,0,0,1,65.51,70.83ZM61.39,81.08c.55.23.87.51.87.82,0,.82-2.34,1.48-5.22,1.48h0V75.91a43.3,43.3,0,0,0,7-.51,12.68,12.68,0,0,0,1.45-.33v.82a9.48,9.48,0,0,1-4.11,5.2Zm4.11-24.82v1.33a3.26,3.26,0,0,0-2.29,1,4.19,4.19,0,0,0-1.06,2.72,9.27,9.27,0,0,0,.1,1.87c.31.36.64.72,1,1.09s.29.35.53.61a10.16,10.16,0,0,1,1.72,2.62v3.28l-1.43.27a43.57,43.57,0,0,1-7,.5V52.39h0a23.69,23.69,0,0,0,4.13-.32,3,3,0,0,0,1.93-.86.58.58,0,0,1,.12.34A.67.67,0,0,1,63,52c-.51.56-2.15,1.24-2.36,3.29a12.88,12.88,0,0,0,0,4.8c.2,0,.4-.19.56-.67a4.94,4.94,0,0,1,1.06-1.72,4.59,4.59,0,0,1,3.25-1.46Zm0,15.94v1.58c-.4.1-1,.21-1.71.34A41.82,41.82,0,0,1,57,74.6V73a45.09,45.09,0,0,0,7.3-.53c.42-.07.81-.16,1.16-.25ZM57,51.56h0a22.92,22.92,0,0,0,4-.31,4.16,4.16,0,0,0,1.34-.35A4.16,4.16,0,0,0,61,50.56a22.88,22.88,0,0,0-4-.31h0Zm0,31.81c-2.88,0-5.22-.66-5.22-1.48,0-.28.28-.55.77-.77a9.17,9.17,0,0,1-4.12-5.26v-.81a12.46,12.46,0,0,0,1.5.35,43.32,43.32,0,0,0,7,.51h0v7.46Zm0-33.12v1.31a22.92,22.92,0,0,1-4-.31,4.15,4.15,0,0,1-1.34-.35,4.16,4.16,0,0,1,1.34-.35,22.88,22.88,0,0,1,4-.31Zm0,2.14a23.69,23.69,0,0,1-4.13-.32A3,3,0,0,1,51,51.21a.58.58,0,0,0-.12.34.54.54,0,0,0,.07.26c.2.61,2.26,1.19,2.49,3.51a12.87,12.87,0,0,1,0,4.8c-.22,0-.45-.13-.64-.68a4.94,4.94,0,0,0-1.06-1.72,4.59,4.59,0,0,0-3.25-1.46v1.33a3.26,3.26,0,0,1,2.29,1,4.19,4.19,0,0,1,1.06,2.72,9.11,9.11,0,0,1-.12,2c-.25.29-.53.59-.81.88l-.65.7a10,10,0,0,0-1.76,2.69v3.21c.39.08.89.18,1.47.28a43.63,43.63,0,0,0,7.06.5h0V52.39ZM57,73V74.6h0a41.89,41.89,0,0,1-6.78-.48c-.76-.13-1.36-.25-1.75-.35V72.19c.37.1.77.18,1.21.26A45.11,45.11,0,0,0,57,73Zm-8.57,2.89q-.14-.43-.26-.89l.26.08v.81Zm0-19.6v1.33H48.4a3.08,3.08,0,0,0-2.33,1,4,4,0,0,0-.94,2.7c0,.06,0,.11,0,.17a10.86,10.86,0,0,0,1.22,4.59,5.76,5.76,0,0,0,1.93,2.06q.09-.25.2-.5v3.21a5.88,5.88,0,0,1-.77-.21c0-.12,0-.23,0-.35a10.74,10.74,0,0,1-2.57-3.55,14,14,0,0,1-1.28-5.21c0-.07,0-.15,0-.22a5.35,5.35,0,0,1,1.2-3.58,4.39,4.39,0,0,1,3.31-1.44Zm0,15.92v1.58c-.34-.09-.53-.16-.53-.2h0q-.11-.68-.19-1.43l0-.17Q48.06,72.08,48.47,72.19Z"/></g></g></svg>