<svg xmlns="http://www.w3.org/2000/svg" viewBox="0 0 127.36 116.1"><defs><style>.cls-1{fill:#f4f3f0;}.cls-1,.cls-10,.cls-2,.cls-3,.cls-7,.cls-8,.cls-9{fill-rule:evenodd;}.cls-2{fill:#d7d8d9;}.cls-3,.cls-6{fill:#fff;}.cls-4,.cls-9{fill:#08366b;}.cls-5,.cls-7{fill:#545d63;}.cls-8{fill:#064995;}.cls-10,.cls-11{fill:#b2b2b2;}.cls-12{font-size:16.27px;fill:#e4e5e6;font-family:ReformaGroteskMedium, ReformaGroteskMedium;}</style></defs><title>Ресурс 17</title><g id="Слой_2" data-name="Слой 2"><g id="description"><path class="cls-1" d="M36.59,8.89c1.23-.06,2.29-1.24,3.74-1.17.75.64.36.9,1.19.82-.1.8-1.24.41-1.82,1.17-.3-.27-.34-.51,0-.73-1.2.46-2.14.19-2.74,1.39-.1-.74,0-1-.34-1.49Zm73.5,58.71.51-.4c0,.62.58.66.58,0,1-.1-.68.81.1,1.18a1.3,1.3,0,0,0-.8.37c-.73-.45,0-.78-.39-1.2ZM95,76.35c-.14-1.7-1.43-1.78-1.85-3.07-.52.54-.83-.18-1.34.29a3.46,3.46,0,0,1,.73-1.07c.11.25,0,.49.32.76.44-.31.33-.66.6-1,.07.39-.16.77.39,1.2.79-.81.88-.93,1.26-.48.5-.79-.92-.61-.05-1.46-.21.59,1.33.88,1,1.69-1.16.52-.49.74-1.58,1.48.33.79.49.72,1.1,1.4.35-.22.24-.47.56-.69-.26.43.72.87.54.33-.61.35.6-1.08-.32-.76.28.4-.54.47-.63.24,1-1-1.18.24-.61-.78.74.33.26-.68,1.26-.48.21.31-.48.55-.15.87.61-.29,0-.68.61-1,.17.19.39,0,.54.33-.66.44-.35.95-.24,1.44.57-.52.65-1,1.21-.2-.29.29-.51.12-.8.37.25.57.65.23.9.8-.9.83,0,1.84-1.29,1.5.34.68,1.53.77,1.58.27-.44.27-.14-.57,0-.73.52.27,1.54-.81.73-.82-.38.85-.62-.27-1,.51a2.21,2.21,0,0,1,.65-1.26c.05.66.73.42,1.53.56.11-.34-.27-.2,0-.73-.38-.08-.79,0-1.12-.38,1.06.59,1.9-.92,2.72-.37-.64,0-.84,1-.31,1,.15-.37,1.18-.89,1-.06.46-.59-.06-1.09.9-1-.25-.57-.62-.43-.9-.8.35,0,.75-.35,1-.06-.19.18-.37.36-.1.58.72-.65,1.29-1.61,2.06-.86-.8.42-1,.9-.82,1.4-.27-.15-.43-1-.78-.65.51.9-1.14.85-.17,1.89.7-.24-.26-.6.44-.84.17.19.39,0,.53.34-.33.66-.55.65-.77,1.11.37-.35,1.3.33,1.26-.48a1.55,1.55,0,0,1-.75.09c.76-.33.29-.76.48-1.13a11.28,11.28,0,0,1,2-1.3c-1.1-.39-.41-1.35-.25-2.06.23.4.63-.21.87.07.56-.39.25-.86.95-1.24l-.73-.93c-1.32,1.11-1.48-1-1.43.62-.42-.42-1-.17-1.46-.12.17-.9.92-.29,1.48-.91-.49-.39-.35-.21-.61-.78-.41.4-.73.22-1-.23.54-.89.71.44,1.21-.2-.51-.58-.77-1.13.12-1.6.21.21.39.62.66.49-.64-1.44-1.18-1.13-.42-1.93-.15,1,.78.54,1.19.82-.23.22-.67.43-.56.69.82-.51,1.46.12,2.26-.26-.2-.41,0-.78-.1-1.18.28,1,1-.42,1.24.54-.51.22-.82.39-.9,1a1.37,1.37,0,0,1,2,.16l1-.8c-.13.69.48.09.78.65-1.25,1.39-1,2.08-1.74,3.37.73-.71.68-1.26,1.75-1.61-.73-.85.84-.5-.44-.91.7-.21.59-.41,1.19-.93a3.74,3.74,0,0,1-.63-1.51A2.05,2.05,0,0,1,115.4,65c-.93.71-.77,1.5-.68,2.28l.34-.27c.08.09.17.16.29,0-.76-.64.07-1.16,0-1.75.82-.13.3-.93,1.26-.49-.43-1.29,1.06-.78,1.62-1.77-.88-.34-.12-.75.39-.55-.78-.58-1.55-.54-1.85-1.31.77-.27.45.47,1.07.67,1-.4,1.9-.41,2.53-1-.43.26-.73-.11-.37-.47.5.57,1,.84,1.7.43-.59-.88,1,0,.9-1-.7-.8-1.76.5-2.5-.05l.68-.53c-1.46-.37-3.1.3-4.64.36,1.18-1.18,2.83-.47,3.5-1.48-.86.62-.55-.63-1.46-.12.76-.77-.73-.87-1.07-.67.53-.35.36-.75.48-1.13,3.39-1.31,5.1-5.09,7.05-7.77-.31.11-.74.87-1,.51,1-1.48,3.55-2.84,3.68-4.38-.49.7-1.52,2.11-2.6,2.28.22-.66,1.41-1.25,2.09-1.88-.27-.26-.08-.49-.32-.76-.59.31-1.31,1.34-1.82,1.17.9-.48-.52-.42,0-.73.76,0,1.35-1,1.87-1.46-.76-1.7-2.57-2.22-3.48-3.05-1.2.23-1.8,1.81-2.84,2,1.7-1.49,1-1.76,1.23-3-1.15.6-1.92,2-2.72,2.12.37-.85,1.56-1.63,1.31-2.53-.55-.08-.77.44-.53-.33-.48.22-1.08,1.16-1.48.91.7-.48.27-1.05,1-1.53-.48-1-1.22-.35-1.87-.29.44-.31.85-.62.61-1-1.11.19-.67-.68-1.8.15.1-.33.51-.64.61-1a16.69,16.69,0,0,1-4.72-3.59c-1.67.17-2.22-.67-2.87-2.27-1.53-.75-3.5-.21-3-2.14-.37.14-.35,1-.85.66.09-1-.45-.22-.56-1.07-.44.26-.86.41-1.21.2.4-.63-1.33-1.32-1.87-2,.06.15,0,.29-.22.42-1.39-1.31-4.48-2.22-6-2.82.13-.57.88-1.1.87-1.68a3.8,3.8,0,0,0-.95,1.24c-.23-.4-.63.21-.87-.07.12-1.77,1.59-2.67,1.93-4.52-.69.53-1.25,2.33-2.33,3.32.78-1.56-2-2-1.17-3.6-1.72,1.43-3.19,1.55-4.35.39a18.49,18.49,0,0,0-5.15.76c-.35-.71.46-1.33.34-2-1.55.69-2.17-1.09-4.05.41a1.51,1.51,0,0,0,.73-.82c-1-1.23-1.94-.84-3.45-.57-.59-1.18-2.68-1.06-4-.9-1.32-.49-1.76-1.07-3.14-1.56.29.53-1.77.89-2.31.55.52-1.4,2.2-1.81,2.45-3.17.31-.09.49.58.83.36-.59-.68,0-.55-.22-1.33-1.18,1.4-2.54,1-2.87-.52-.23.23-.67.43-.56.69.22-.14.44-.27.58,0-.55.57-1.86.63-1.58,1.48.44-.46.59.22.53.34-.5,0-.9-.49-1.46-.12a1.64,1.64,0,0,0,2.09-.13c.27.72.77.11,1.07.67a1.2,1.2,0,0,1-2.33-.19c-.25,1,.29,1.69-1.21,2-.65-.52-1.33-.88-2.16-.32-1-1.17-3.43-.62-5.08-.55-1.18-.94-2.28-.65-3.52.74-.59-.31-1.26-.69-1.58-.27.12-.12.11-.92-.2-.6.21.31-.74.42-.92.22-.25-.66-.44-.41-.27-1-.72.53-.11-.08-.24-.31-1.34.79-1.49,0-2.57-.5A4,4,0,0,1,46,12.85c.54-.25.08-.58.14-.87-.61.29,0,.68-.61,1-.08-.36.34-1.42-.51-1.36.2,2.81-3.19,4.77-4.87,7.07-.5.69-.3,1.81-.85,2.42a3.27,3.27,0,0,0-.87-.07c-1.11.65-1.33,2.2-1.65,2.79.2.55.55.22.78.65-.28.61-.8,1.2-1,1.82-.82-.5.48-.84.07-1.31l-.85.66c1.28,1.06.49,2.16-.34,2A11.13,11.13,0,0,1,35,31c-.42.15-.64-.9-1.07-.67.06.74-.57,1.42-.51,2.15.33-.19.5-1.1,1-.8-.22.82-.59.72-1.36,1.06a19.65,19.65,0,0,1-1.35,2.81c-.62-.12-1.09-1.17-1.63-1.74.31-.37.24-1.53-.34-1.49a5.22,5.22,0,0,1,0,2.49c-.62-.7.18-1.14-.51-1.36-.31.33-.3,1.42-.65,1.26-.17-.35.56-.64,0-1-.28.19-.57.48-.75.09,1.14-.7-.75-.2-.1-1.18.77,0,.56.76,1.19.82a2.94,2.94,0,0,0,.46-1.86c-.16.07-.34.26-.46.11-.7.24.26.6-.43.84,0-.58-.87-.72.14-.87-.34-.32-.68-.64-1.17-.09l.49.62c-1-.06-.09.85-.94,1.24.32-.49-1.91,0-1-1.25.87.58.34-.52,1.38-.33-.2-.55-.55-.22-.78-.65.19-.18.37-.36.1-.58-.62.51-.35.55-1,.8.12.2.38.42.2.6-.37-.15-.8.07-1.26.49.29.42-.1,1.54-.82,1.4.22-.47.78-.91.53-1.42-.27.17-.58.55-.8.38a1,1,0,0,0,.07-1.31c-1,.66-1.45.6-1.7,1.33a3.47,3.47,0,0,0-2.12-2.36c.42,1.12-1.36-.13-1.31.77.82.12-.18,1.34-.17,1.89.81-.24-.21.54.32.76.38-.19.77-.52,1-.06-.75.91-1.11,2-2.21,1.72a3.74,3.74,0,0,1,1.17,1.85c.58-.51.86.74,1.46.12-.15-.25-.51-.53-.32-.76a9.21,9.21,0,0,1,1.24,2.29l-1-1.25c-.48,0-.62.81-.95,1.24.53.62.9.7,1,1.69,1-.36-.19-.89.36-1.29.75.67,1.07.55,1.51,1.58-.23.22-.67.43-.56.69.48-.06,1-.91,1.17.09,1.2-.69-1.33-2.44-.15-2.64.31,1.24,1,1.47,1.44,1.14a3.77,3.77,0,0,0,1,2.27c.92-.37-.73-.93-.22-1.33.93,1.19.89,2.31,1.63,3.49a3.47,3.47,0,0,1-3.72.14c-1.36,1.38-3.66,1.49-5.24,1.34A34.15,34.15,0,0,1,7.78,48c-1.24,1.31-2.92.71-4.29,1.85a1.21,1.21,0,0,1,.44.91c.7-.24-.26-.61.44-.84,1.17,0,4.46-1.79,5.44-.74,2-1.43,4.89-1.09,7.16-1.33.07.35-.86.61-.31,1a2.05,2.05,0,0,1,2.26-.26,8.13,8.13,0,0,1-3,.35c.19-.37.38-.86-.15-.89-.2.9-1.15.27-1.19.93.4,0,.86-.46,1.17.09-.27.15-.49,0-.75.09.08.57,1.05,0,.66.49-1.42,0-2.93.45-4.35.39a3.42,3.42,0,0,0,0-1c-.65.49,0,1.07-1,1.53-.64-.76-1-.5-1.22.2-.64,0-.91-.65-1.14-1.11-.49.59-.83.28-1.31.77.27.15.43,1,.78.65-.3-.62.44-.59.8-.38-.85.32-.38.75-.48,1.13C6.79,52,5.64,53.5,4.2,53.52c0,.65,0,1.54-.9,1,.49.33.08.59.44.91a4.83,4.83,0,0,0,1.7-1.33,9.84,9.84,0,0,1,1.78,2.63c-.61-.36-1.22-.76-.92.22-.53-.38-.11-.69-.27-1-.47.43-.82.16-1.21.2.08.56,1,.46.61.78a3.66,3.66,0,0,1-1,.06c-.63-.8-1.14-.84-1-1.69a1.5,1.5,0,0,1-1,.51c.32.61,0,1.17-.87,1.68.22.51,1.18,1.07,1.12.38C2.17,58,2,57.17,2.28,57c1.45.41,1.61,2.29,2.77,2.85a.59.59,0,0,1,.27-.71c.61.17.13.68.75-.09a1.89,1.89,0,0,0,1.82.58c-.12-.2-.37-.42-.2-.6s.46-.4.63-.24c.62.63-.72,1.11-.58,1.71.39.3.77.69,1.29.25-.19-.35-.47-.13-.7-.2,0-.45.25-1.44.85-.66-.34.33.27,1.47.8,1.38-.13-1.39,1.47-.58,2.25-2,.64.33.6.58,1.21-.2.6,1.25,1.3,1,1.82.58-.12.92-1.48,1.73-1.18,2.68-.84-.08-1,1.39-1.7,1.33.53.38.11.69.27,1,1.5-2,3.7-2.29,4.83-1.52-.54.51-1.77.62-1.82,1.17,1.21-.53-1.16.77-.19,1.15.44-.61.62-.4,1.07-1.08.54.09.11.4.66.49,1-.45,1.31-2,2.06-.86-.51.35-.83.71-.78,1.11a.59.59,0,0,1,.75-.09c-1.47.81-.77,1.79-1.48,2.66.31-.11.74-.87,1-.51a1,1,0,0,0-.44.84c1-.91,1.9-2.46,3-1.81-.18.52-.92,1-.7,1.55.93-.84.6.3.78.65.35-.22.24-.47.56-.69.21,1,1,.67,1.51,1.58a2.08,2.08,0,0,0-.82,1.4c.35-.35.54.3.87.07-.32-.16.6-.88.68-.53a1,1,0,0,1-.44.84c.8.32,1.61.33,1.56,1.29.78-1,1-.84,1.89-.73.1-.3.63-1.29,1.07-1.08.06.39-.26.76-.78,1.11.39.87.37-.7.92-.22a3,3,0,0,0-.6,2.73,3,3,0,0,1,3.13-1.94c-.17.13-.1.28-.22.42a.74.74,0,0,0-.9,1c.47-.14,1.12,1,.39,1.2a1.2,1.2,0,0,1-.78-.65c-.35,1.2-1.71-.18-1,.51-.77.21-1.54.37-2.11-.61-1.45,1-1.76-.87-2.72-1.38.17.5-.39.94-.53,1.42-.67-.44-1.47,0-2.11-.6.07-1-.93-2.61-1.95-2.49.06.15,0,.29-.22.42a2.79,2.79,0,0,1,1.75,1.89c-.71-.34-.7-.94-1.48-.85.13.54,1.09.34.73.93-.95-.95-1.37.46-2.33-.18.21.31-.48.55-.14.87.88-.69.8.33,1.19.82.88-.63,1.84.78,1.26-.48.16.2.41-.09.58,0,.23.41.19.79.68,1.22-.31.12-.61.1-.92.22.48.66,1.2-.1,1.7.43.06.39.09.9-.44.84.35.54.88,0,1.29.25-.15-.25-.51-.53-.32-.76a4,4,0,0,1,3.74,2.34c.53-.35.36-.75.48-1.13,1.25.17,1.78,1.51,2.36.92-.47-.27-1.41-1.44-1.17-1.85a15.92,15.92,0,0,1,3.14,1.56c-.16.15-.87-.4-.63.24.83-.29.44,1.27.73.93s-.12-.59.44-.84c1.42.21-.36,2.17-.24,3.2-.86-.68-.95-1.54-2.07-2.65.06.15.24.31.07.44-.13-.09-.24-.3-.41-.18.19.32.46.19.66.49-.17.13-.3,0-.46.11,0,1.35,1.76,1.73,2.07,2.65-.44.26-.76-.19-1.17-.09.33.66.83.31,1.19.82-.92,1.63-.3,4.74,1,4.46.23.37-.11,1.44.51,1.36,0-.26-.07-1.25.31-1,.37,3.66,3.65,3.25,5.36,6.85.58-.13.55-1,.85-.66s-.13,1.13.44.91c0-.44-.13-.89.36-1.29.22.17.47.11.66.49s-.49.74-.19,1.15c.85-.4,1.29.6,1.26,1.27a5,5,0,0,0,1.17.09c-.18.19,0,.25.24.31-1,.65.88,1.53.37,2.22.45-.83,1-1,1.5-1.93-.14,1.11.39,1.39.9,2.55.62-.45,1,.32,1.53.56.58-.13.35-1,.85-.66-.19.28-.25.56-.44.84.3.56.74.31,1,1,1.1-.72,1.47-1,2.23-1a1.63,1.63,0,0,0-.75,1.84c.3.28.78-.55,1-.06.19.89-.68,0-.44.84.22-.14.44-.27.58,0-.1.07-.09.28.12.16-.18-.23-.14-1.15.44-.84-.47,1,.6.34,1.07.67-.23.23-.67.43-.56.69a2.23,2.23,0,0,1,2,2.2c-.07-.18.22-1,.56-.69.26.61-.08,1.16,0,1.75.58-.08.69-.62,1-.51-.57.5.17,1.86.42,1.93.61-.89.18-.46,0-1,.41-.39.61.5,1-.06-.46-.43-.29-.8-.1-1.18l.73.93c-.49.09-.62.88-.1.58,0-.87,1.33.69,1.19.83.61-.29.29-.66.9-1-.2.81,1,.64,1-.06.4.26,2,2.09,2.31,1.21.72.52.66,1.15,1.31,1-.12-.2-.37-.42-.2-.6.84.31,2.17.27,2.43,1.36.35-.22.24-.47.56-.69a1.28,1.28,0,0,1,.73.93c.27-.17.58-.54.8-.37-.13,1.08,1.65.65.76,1.67.43-.52.71-.12,1.14-.64-.05.76,1.08.1,1.53.56-.38.5-.61.13-1,.51.08.56,1,.26.61.78s-.58,0-.92.22c.28.41.56.78.95.51,3.72-4,5.08-8.16,8.43-11.61-.44-.47.18-.86.07-1.31.33.32.73,0,.8-.37.18,1,.05-.63.75-.09-.3-.46.19-.86.07-1.31.53.54.64-.12,0-.29.55-.59.9-.59,1.19-.93.23.68.68,1.42.59,1.8.21.29,1.14.72,1,.23-.56.22,0-.66.44-.84-.17.92,1.85,2.38-.09,2.33.2,1.11-1.9,2.75-2,3.79.61-.3.41-.15.85-.66.35.51.76.65,1.58.27.22.41-.63.73-.19,1.15.43-.52.74-.33,1.14-.64.33-.56-.82-1.23,0-1.75.17.31,1.08.4.73.93-1.38.57.63-.27.9.8,1-.53,1.1-.53,1.75.14.73-.78-.52-1.37-.76-1.67-.79.23.31.61-.14.87-.6-.78-.92-.64-1.41-.4.2-.47,0-1,.24-1.44.59.45.71.57.85,1.09a8.14,8.14,0,0,1,.82-1.4c.73,1.15,1.36,1.39.78,2.4.34-.46,1.26,0,1.14-.64-.21.11-.61.06-.41-.18,1-.48.84.8,1.87.29-.57.22-1.87,1.36-1.38.33-.67.18-.72.79-.82,1.4.27-.17.45.25.66.49.43.1,1-.79,1.38-.33-.4.8.31.59.75-.09.35.53.81.43,1.14,1.11.23-.23.67-.43.56-.69-.75.09-1.3-1-2.07-.89.83-.17.7-.67,1.24-1.22.12.7.54,1.14,1.19.83a1.87,1.87,0,0,0-.19,1.15c.46-.4.79,0,1.12.38.34-.17.25-.57.51-.4-.12.61.54.39.44.91,1.51-1-1.42-1.48.34-2-.37-.42.23-.76-.1-1.18-.51-.15-.26.52-.63.24.34-.27-.12-.59.43-.84.37.7,2,.84,1,1.69-.21-.21-.39-.62-.66-.49,0,.51.85.78,1.36.69-.2-.15.07-.92.39-.55.18.66-.72.39-.19,1.15.61-.29.29-.66.9-1-.38-1.14-1.19-1-1.34-1.71.85.74.15-.49.27-.71.2.25.54-.28.75-.09-.26.24.56,1.29.85,1.09-.39-.52-.32-1-.92-1.53-.41.39-.77.51-1,.06a1.63,1.63,0,0,0,.65-1.26,4.16,4.16,0,0,1,1.51-.17c-.27.32-.69.63-.31,1,.3-.31,1-.21,1.58.27-.14.57.45,1.21,0,1.75-.47,0-1.64,1.32-2.18,2.46a12.06,12.06,0,0,1,3.52-2.5c-.31-.53-1.07-.44-.56-1.07.17,0,1,.23.8-.37-.57.49-1-.13-1.46-.12-.12-.45.37-.85.07-1.31-.55.56-1.69-.43-1.19-.82a16,16,0,0,1,1.72-.59c-.53-.21.5-1-.32-.76a.59.59,0,0,1-.27.71c-.4-.25-.59-.93-1.31-1,1.09-.4.36-.95.82-1.4.29.75,1.45.1,1.09-.35-1.06.8-1-.46-1.85.44-.29-.32.55-.54.73-.82-.53-.83-.58.31-1,.06,1-.72-.6-.89-.05-1.46-.6-.21-.75,1.17-1.48.9.37-1,1.46-1.33,1.6-2.5-.42.18-1,1.06-1.31.77.24-.71,1.78-1.32,1.09-2.11-.76.76-1,1.48-2,1.59-.08-.58,1-.85,1.36-1.06-.16-.42-.87-.12-.19-.6-.49-.48-.61.16-.78-.65-.41.5-.22,1.05-1,1.53-.73-.49-.66-1.54-1.82-.58.63-.6.81-1.47-.27-1A2.78,2.78,0,0,1,99,90.83c-.31.24-.15-.67.14-.87-.48-.48-.61.16-.78-.65a1.08,1.08,0,0,1-.63.24c.1.94-1.18,1.65-1.67,2.06.47-.93,0-.19-.27-1,.61-.29.49-.64.9-1,.13.09.24.3.41.18-.4-.55-.91-.47-1.36-.69,0,.91-1,.26-1.34,0,.79-1.33.35-1.95.82-3.15-1,.46-.17,1.83-1.33,1.79.21-.51.47-.88-.32-.76.18-.18.5-.35.39-.55-.34-.31-.84.32-1.21.2.38-.87,0-1.21-.13-1.91-.27.17-.58.54-.8.37-.35-.81.18-1.54.68-2.28-.19-.64-.56-.17-.83-.36.78-.91-.5-.23-.1-1.18.93,0,1.37-1.74,1.89-.73-.54-.43.42-.75.19-1.15-.74.79-4.11-.75-2.36-2.67-1.26.15-1.55.58-2.74,1.39-.23-1.26-.74,0-1.41-.4,0-.22.95-1.07.15-.87a10.87,10.87,0,0,1-.95,1.24c0-.93-.79-.73-1.65-.72.2.55.55.22.78.65-.58.25-.27.56-.73.82a2.16,2.16,0,0,1,0-2c.48.68.46-.19.51-.4a.91.91,0,0,1,.73.93c.72-.77-.16-1.1-.68-1.22a10.26,10.26,0,0,0,1.11-1.37c.4,1,.7.53.85,1.09.79-.23-.31-.61.14-.87.73.25,0-.86.68-.53-.62,1,.64,2.26.69,3,.26-.53,1.06-.09.85-.66-2-.36-.9-2.84-.32-4.26.74.68.44,1.66,1.12,2.14a1.07,1.07,0,0,0-.39.55c-.18-.48-.33-.77-.9-.8.92.74-.54.48-.31,1,.61-.45.21.3.88.07,0,.39-.32.75-.19,1.15.37-.14.85-1,1.14-.64.26.78.25.58.66.49a1.65,1.65,0,0,1-.17,1.89,1.53,1.53,0,0,0,1.07.67c-.15-1.41-1.16-3.57-.41-5.41.24.57.64.25.94.48-.82.32-.15,1,0,.29.56.58.79,1.13.17,1.62-.28.2-.44-.29-.75.09.84.33,0,1.09.59,1.8.68-.48.43-1,.41-1.57.83-1.12,1.32-.23,1.92,0ZM88.54,9.93c1-.62,1.71.36,2.77-.66.37-.13.56.75.95.51-.28.51.35,1.1.17,1.62-.39-.17-1.39-.46-1.09.35-.43-1.19-1.75-.1-2.19-1-.25.18-.5.35-.39.55-.12.14-.21.06-.29,0s-.18-.1-.29,0c-.06-.64,1.45-.44.36-1.29ZM.65,53.53c.55.3,1,.21.68-.53a3,3,0,0,1,1.56,1.29c-.29.26-.51.09-.8.38-.33-.27-.21-.5-.32-.76-.51-.34,0,.56-.56.69-.12-.67-.53-.56-.56-1.07Zm17.56-15c1.09-.22.35,2.41,1.53,2.31-1.27-.31-1.52,1-1.74,1.61-.55,0-.36-.18-.8.38.14-.46-.86-.55-.68-1.22.36-.07.64.31.95.51a3.52,3.52,0,0,0,.75-3.59Zm82.1,70.06c.21-.11.36.22.58,0-.15.46-.58.44-.48,1.13-.6-.29-.45.42-1,.06-.1.54.09.39-.56.69.18.67.64-.31.83.36l-.51.4c-.53,0-.15-.66-.83-.36.1-.58.85-1.1.87-1.68.78-.73,1.17.55,1.14-.64ZM96,109c-.22-.43-.71.69-.88-.07.06-.46.7-.46,1.14-.64.42.62-1.1,1.08-.29,1.73a1.29,1.29,0,0,0-.8.38c-.6-.53.3-.95.82-1.4Zm-3.16,1.21c-.11-.2.1-.22.17-.13.25-.18.5-.35.39-.55.27-.13.45.28.66.49-.73.49-1.08,0-.9,1-.68.35.2-1.11-.32-.76Zm9.67-11.07c.12-.14.21-.06.29,0,.83-.47,1.57-2.21,1.86-3.21a1,1,0,0,0,.32.76c.48-.3.39-.65,0-1,.77.45,1-.36,1.65-1a2.53,2.53,0,0,1-1.38,2.08c-.26.64.16.53.56,1.07-.58.25-.27.56-.73.82,0-.29.09-.58.14-.87-.13-.1-.29,0-.41-.18-.72.37-1.12,2.3-2.33,1.57Zm-13.68,9.44c-.59.3-.1-.46-.49-.62-.51-.34,0,.56-.56.69-.46-.62.29-1.15.87-1.68.12.45,0,.87.51,1.36l.34-.27c.21-.23-.78-1-.76-1.67.95.25.75.8,1.34,1.71-.18.18-.33.2-.46.11-.16.13,0,.3.07.45-.25.19-1-.78-.87-.07Zm16-16.56c.17.35-.56.64,0,1-.39,0-.86.42-1.31.77s.87-1.33,1.33-1.79Zm11.29-16.35c-.25-.17-.17.23-.51.4a.88.88,0,0,0-.2-.6c-.67-.44-1.89,1.44-.9,1-.06.55-.65,1.24-1.09.35a10.52,10.52,0,0,0,1.38-2.08c.54.29,1,.89,1.8-.15.27.24.09.44,0,.29-.45.31-.35.65-.31,1-.22.12-.22-.08-.12-.16ZM105.84,79a1.51,1.51,0,0,0,1-.51c.1.25-.11.48,0,.73.63-.58,2.35-1.17,3.3-2.08.55.53-.94.9-.53,1.42.18.67.64-.31.83.36-.71.06-2,2-2.45,1.41a.78.78,0,0,0-.19,1.15c-.25,0-.46-.22-.75.09,0-.44-.13-.89.36-1.29-.38-.38-.66-1.34-1.24-.54.67-.23.28.41.83.36.12.63-.81.21-1-.22-.24.52-1.12,1-1.29,1.51-.67-.5,1.8-1.73,1.14-2.39Zm-2-.45c.57-.13-.15.85.1,1.18-.27.13-.45-.28-.66-.49.26-.22.71-.43.56-.69Zm1.65-1c0,.95.65-.35.85-.66a1,1,0,0,1-.66-.49,1.5,1.5,0,0,1,.73-.82c-.3,1.16.5.7.59,1.8-1.77.6-1.48,3.09-3,3.85-.32-1.27,1.51-2.16,1.5-3.68Zm-2.67.08c-.25.17-.5.35-.39.55-.8.2,0-.66.44-.84.24.26,0,.49.32.76.71,0-.71.24-.36-.47ZM116,66.75l.34-.27c.07.16.18.09.29,0-.35.46-.18,1-.53,1.42-.33-.42.27-.76-.1-1.18ZM108.66,70c.18-.83,1.43-2.4.72-2.57.3.66-.91,1.2-1.33,1.8.32.37.69.23.61.78ZM94.42,76.59c0,.39-.3.76.1,1.18.26.15,1.05-.88.65-1.26.43-.52.66.17,1.09-.35-.23.29-.28,1.32-.78,1.11.21.3-.07,1.2.42,1.93-.89-.14-1.15.81-1.8.15.17-.12.28.09.41.18.55-.59-.17-1.28-.71-2,.27-.32.16-.67.61-1Zm9-53.2c-.11-.64,1-1.19.46-1.86.46-.32,1.25-1.19,1.09-.35.32-.22.21-.47.56-.69-.23-.07-.52.14-.7-.2.4-.32.71-.12,1.14-.64.24.75-.56,1.69-1.5,1.93,0,.73.19,1.48-.8,2.13.07.16.18.1.29,0-.26.84-.45-.54-.53-.33ZM100,14.78l.34-.27c-.31,1.06.29.95.59,1.8l-.51.4c-.41-.28.23-1.2-.66-.49,0-.62.37-.63.24-1.44Zm-.49-2.38c.16-.52-.24,1.17-.12,1.6-.55,0-.17-.48-.78-.65.61-.29.5-.64.9-1ZM94.62,16c.35.67-.84.38-.19,1.15-.23.11-1.24-.14-.68.53l-.34.26a.88.88,0,0,1-.54-.34c1-.24.74-1.57,1.75-1.61Zm1.57-5c1,0-.63,1-.24,1.44-.44.31-.46-.49-.49-.62.43-.26,1-.24.73-.82Zm-2.5-.05c.23.41-.25.76-.19,1.15.34.29,1-.58.73-.82.58.52.77,1.4,1.41,2.16.08.35,1-.37.68-.53,1.17.36-.81,1-.12,1.6.22.29.62-1,1.09-.35,0-.22.25-1.12-.15-.89-.23-.26,1.28-.49.78-1.11.71-.09.16,1.44-.36,1.29.74,1.18-1.17,2.15-1.57,3.24.13-.69-.48-.09-.78-.65,1.28,0,.21-.73,1.19-.93-.85-.69-.75.43-1.48.91-.65-.64.28-1.15.87-1.68-.28-.41-.64-.27-.95-.51,0,.51-.61,1.26-1.19.93-.29.48.87.43,0,1,.16-.75-1.53-1.32-.49-2.38.16.23.32.46.53.33.11.25-.32.46-.56.69.85.58,1-1.18,1.6-.75.49-.3-.84-.75,0-1-.61.09-1.17-.07-1.85.44.26-1,0-1.06.8-2.13ZM91,6c.42.38-.08,1.86.78,2.4a1.51,1.51,0,0,0-1,.51A4.74,4.74,0,0,1,91,6Zm-1,.51c-.19.38-.26,1.53.34,1.49-.48-.41.06-2-.34-1.49ZM87.51,5.47c.33,0,.62,1.31,0,1.75-.45-.62-.11-1.18,0-1.75Zm2.14,1.34c-.75-.37-.26-1.37-.68-1.22-.28.61.06,1.27-.46,1.86a.89.89,0,0,1-.2-.6,8.57,8.57,0,0,0-.94,1.24c-.84-.14-.6-1.52-1.51-1.58.7.35-.5.54-.14.87,0,.47,1.09,1.24,2,1.18.07-.29-.4-.62.14-.87.76.45,1.07-.4,1.77-.88ZM86,5.93a1.69,1.69,0,0,1,.34-2c0,.53.17.19.49.62-.23.58-.58,1,.22,1.33-.48.3-.18.67,0,1-.47.18-.78-.82-.27-1a1.54,1.54,0,0,0-.75.09ZM83.4,4.41c.27.22.1.4-.1.58.16.23.32.46.53.33.14.51-.82.29-1.19.93a6.35,6.35,0,0,0,.75-1.84ZM78.76,3c.81-.25.93-.28.95.51.37-.14.85-1,1.14-.64-.85.42.3,1-.24,1.44-.16-.37-1.17.11-1,.51.65-.38.93.06,1.07.67.76-.33.29-.76.48-1.13.46.22,1.6-1,1.75-1.62L81.41,4a.89.89,0,0,0-.54-.33c0-.58.23-1.15-.29-1.78-.16.07-.34.26-.46.11-.7.24.26.61-.44.84-.4-.42.23-1.11-.61-.78.2.36-.72.62-.31,1ZM70.08,7.3c.57-.22,0,.77-.39.55.15.68,1.32-.4,1.14-.64.67,0,.57.62,1,1-.47.57-2.1.3-1.7,1.33-.39-.1-1.05,0-.95-.51.29-.26.51-.09.8-.37-.41-.19-.91.17-1.43.62-.18-.39-.47-.11-.75.09-.52-1.11,2-.62,1.45-1.64.26-.54,1,.2.8-.37ZM24.46,42.7c0,.19-1.11-.39-1.53-.56,1-.22.6-.33,1.53.56ZM70.12,7c.16-.07.3,0,.41.18.68-.77,1-1.69,2-1.3-.69-.54.32-.95.24-1.44-.28-.41-.64-.28-1-.22.18.31.78.65.15.89-.86-.75-1-.31-2.38.1.21.21.39.62.66.49-.12-.16.14-.43.34-.26-.22.32.59.73.27,1-.24,0-1.16.57-.68.53ZM1.64,52a2.92,2.92,0,0,1,1.75,1.89A5.39,5.39,0,0,1,1.64,52ZM53.18,11.22c.22-.12.22.08.12.16.26.19.64-.28.83.36-.3.74-1-.2-.8.37-.83.2-.15-.67-.15-.89ZM4,46.93c-.24-.26,0-.49-.32-.76.36-.38.46.78.87.07.19.21.37.42.2.6,0,.76-.09-.92-.75.09ZM47.88,9.34c.11.16-.11.28-.22.42.34.32.83.38.73.93-.78.24-1.72,1.49-2.31.55.63-.49,1.11-1,.7-1.55.27-.13.45.28.66.49.33-.27-.12-.59.44-.84ZM25.42,27.15c-.1.93-.59.92-1.33,1.79.23-.56.18-1-.27-1,.23-.94,1.1-.16,1.53-1.19.28.41.56.78.95.51.67,0-.73.57-.88-.07Zm-9,45.17c-.24-.4.59-.18.8-.38-.13.69,1.4.53,1.26,1.27-.56.09-.89-1.15-1.58-.27,0-.13,0-.93-.49-.62Zm79.89,31.89c-.33-.07-.61-.45-1-.22a.77.77,0,0,1,1.21-.2c.35-.31.06-.68-.27-1,.47-.49.91-.08.83.36a.55.55,0,0,0,.71.2c-.22.84-.67.13-1.48.91Zm3-3.85c-.26-.37.55-1.9,1.77-2.64.64.26-.85,1.18.19.6,0,1.3-1.54,1.22-2,2Zm-6,3.47c-.11-.2-.25-.25-.41-.18a1.39,1.39,0,0,1,1-.8c.16.66-.29.36-.61,1Zm-8,1.26c-.33-.32.35-.56.14-.86.6-.25.37.08.66.49a1.3,1.3,0,0,0-.8.37ZM96,94.68a4.64,4.64,0,0,0,1.53-1.19,5,5,0,0,1-1,1.53c.17.16.41-.11.63-.24.17.57-.76.52-1,.8-.24-.31.31-.56-.15-.89ZM73.5,111.75c-.24,0-.43-.35-.7-.2-.11-.65.82-.31,1.19-.93.43.42-.3.76-.48,1.13Zm13.68-11.19c-.46.4-.59-1.18-1.12-.38-.11-.25.32-.46.56-.69.32.37.61.73.56,1.07Zm-11.79,7c-.21,0-1-.43-.32-.76.12.86,1,.84,1.61,1-.83.47-.75,1-1.58,1.48-.36-.32,0-.58-.44-.91.58-.25.27-.56.73-.82Zm9.5-9.18c-.49.31-.82-.42-1.29-.25,0-.72,1.09-.72,1.43-.62.33.32-.36.56-.14.87Zm3.79-11.24c-.9-.27,1.14-1.56,1-2.26.61-.45.22.19.83.36-.31.71-1.8,1.6-1.79,1.9ZM113.49,66.7c-.33-.27-.21-.5-.32-.76.39-.56.57.11.83.36l-.51.4Zm-11.23,8c-.68-.58.65-1.29,1-.8-.67.24-.4.29-1,.8ZM59.55,108.6c-.51.38-1.18-.57-.44-.91.07.54.25.27.44.91Zm41.32-33.55c-.29-.41.33-.75.78-1.11.37.46-.37,1.14-.78,1.11Zm4.95-3.11c-.38.52-1.7.49-2.28,1.28l-.49-.62a6.58,6.58,0,0,1,2.77-.66ZM89.72,83.52c-1-.56.69-1.67.55-2.44.76-.12,0,.87.1,1.18.26.17.17-.23.51-.4l.61.78c-.14.21-.76,1.34,0,.73a.88.88,0,0,0,.2.6c-.81.69-.58-.72-1.17-.09q-.44-.47.14-.87a2.28,2.28,0,0,0-1,.51ZM73.66,93.06a4.63,4.63,0,0,1-1.21,2,2.94,2.94,0,0,1,1.21-2Zm.17-.13c.36-.74,1.15-1.85.39-.55.57.13.76-1,1.41-1.35,1-1-1.25,2.27-1.69,3.08.94-.42,1.38-2.13,2.57-3,.18.55.36,1.1-.12,1.6.48.38.25-.43.68-.53.42.81-.88,1.49-1,2.26.35.25.47-.73.9-1,.63.85-.48.8-.24,1.44.35.37.13-.44.68-.53.11.2.25.25.41.18.12.4-.13.77-.48,1.13.71.46.93-1.17.7.2a3.4,3.4,0,0,0,1,.23c.4-.53-.58.07-.66-.49.08-.55.58-.53,1-.8-.11.61.41.49.78.65.46-.59-.14-.36-.44-.91l.68-.53c.17.81.3.17.78.65a1.5,1.5,0,0,1-.73.82c.5.34.39,0,.8-.37l.49.62c-1.18.32.36.61.27,1-.51.43-.87-.07-1.24-.54-.53.65.37.72.68,1.22-.47.35-.14.53-.68.53-.3.51.3,1.21.95.51,0,.34.13.69-.31,1L81,98.9c-.54.69-.19,1.45-.21,2.17-.45.35-.93.87-1.26.48-.14.33-.36.65,0,1-.43.52-.63-.38-1.09.35-.23-.55.68-1,.12-1.6.81,0,1-1,1-1.53-.62.21-.52.82-1.28,1.51a3,3,0,0,0,.17-1.89c-.38.82-.8,2.15-.19,2.91a.59.59,0,0,1-.75.09c-.2.67-.07.69.1,1.18.26.17.17-.23.51-.4a1.84,1.84,0,0,0,.05,1.46c-.82.37-.79-1.75-1.94-.74-.05-.54-.41-1.1-.47-1.64-.19-.16-.46.11-.34.27-.61-.11.24-1.34-.42-1.93-.17-.16-.41.11-.63.24.17-.38.1-.77-.39-1.2.81-.42.57-.93,1.11-1.37.1,1.2.45,1,.46,1.64.16.32,1.17-.47.56-.69.28-.32.8.52.2.6.38.07,1-.42.83.36.44-.31.33-.65.61-1-.34-.62-.9.09-1.24-.54.16-.13,0-.29-.07-.44.9.58.57-.33.9-1a4,4,0,0,0-1.31.77c-.57.22.12-.65-.15-.89.47-.43.8-.06,1.26-.48-.84-.26-1.78,0-2.62-.21-.25.42-.13.87-.65,1.26-.08-.77-.47-.72-.22-1.33.43-.35.3,0,.41.18.88-.47-.21-1.09.41-1.57-.13-.1-.29,0-.41-.18-.45.35,0,.78-.48,1.13-.21-.24-.38-.66-.66-.49.13-.45.84-2.19,1-2.55ZM98.4,74a1.2,1.2,0,0,1-.44-.91c.48-.15,1.2.47.44.91Zm5.82-6.55c-.14-.25.46-.45.27-.71a1.72,1.72,0,0,0,1.43-.62c.11.16-.11.28-.22.42.12.15.3,0,.46-.11.22.94-1.23,0-1.94,1ZM88.81,81c.21-1,0-2,1.23-3,.56.6.71,1.78,1.46,1.87-.12.43.11.89-.65,1.26-.69-.89-.37-1-1.22-1.56.11.76,0,.65-.82,1.4Zm-.66-.49c-.27.16-.42-.42-.71-.2a10.09,10.09,0,0,1,.61-1c.63.44,0,.78.1,1.18ZM71.4,93.32c1-.29.45-1.5,1.55-2.22-.44,1-.12,2-.94,3,.09-.54-.29-.41-.61-.78Zm2-2.32c-.62.17.42-1.51.65-1.26.5.67-.82.48-.65,1.26Zm-1.31.77c-.65-.49.61-2.09,1.53-2.95,0,1-1.25,1.95-1.53,2.95Zm27-21.1a3,3,0,0,1-1.56-1.29c.78,0,1.66.78,1.56,1.29Zm16.39-15.07c.49-.26.87-.25.44-.84.69-.57,1,.95,1.56,1.29-.68.8-1.07-.08-1.72.59.08-.56.42-.73-.27-1ZM95.91,71.15c.77-.33.18-.77.77-1.11.4-.12,0,.25-.22.42.34.32.83.38.73.93a1.54,1.54,0,0,0,.75-.09c.13.24-.48.84.24.31.1.45-.13.87-.65,1.26-1-1-1.7-.89-2.82-2.56.06-.33.46-.64.9-1-.23.41.58,1.22-.19,1.15.32.44.53.09.49.62Zm-6.12,1.27c.08-.55.59-.53,1-.8-1.32.2.65-.6.19-1.15.87,0,.64,1.11.63,1.51a1.5,1.5,0,0,1-1,.51c.57.72.71-.08,1.26-.48a4,4,0,0,1-1.09,2.11c0-1.11-.11-.88-1-1.69Zm-1.7,1.33c-.71.29.44-.42-.19-.6,0-.39.62-.73,1.07-1.08,0,.58-.61,1.12-.87,1.68Zm-4.68,4.16c-.28-.13.38-1.42,0-2,.73-.36.53,1.55,0,2Zm.87-1.68a11.41,11.41,0,0,1-.17-1.62c1.13-.27,1.91-1.67,1.34,0-1.41.33-.28,1-1.16,1.66Zm-3.06,2.39c.1-.69,1.14-1.3-.12-1.91.55-.62.82.9,1.19.83.12.44-.56,1.13-1.07,1.08Zm3.08-5.16c.15.35-.59,1.81-1,.8l1-.8Zm-52.5,4.9c.22-.13.28-.27.22-.42.85-.35.29.5.44.91-.27.13-.45-.28-.66-.49Zm.5-5.66c-.05.54-1.44,1.62-1.72.59.66-.73,1.13-.3,1.72-.59ZM23,75.17c-.59.28-1.06-.11-1.58-.27.63-.53,1.11-.14,1.58.27Zm10.43-36c.61-.33.3-.7.85-.66-.11.38-.06.77-.48,1.13l-.37-.47ZM21.72,47.6a1,1,0,0,1,.44-.84c-.12.81.74.75,1.14,1.11-.7.94-.92-1-1.58-.27Zm5.14-2.52c-.17-.6-.61-1.22,0-1.75.11.16-.11.28-.22.42.78.28.4-.73.31-1,.34-.26.55.26.92-.22a1.54,1.54,0,0,1-.27.71c.25.27.65-.35.92-.22A6.82,6.82,0,0,1,29,44.38c-.63.66-1.54.3-1.12-.38-.56-.27,0,.76-.61,1-.12-.15-.3,0-.46.11Zm-16.3,11c-.46-1.16.92-1.68,1.79-1.9.07,1.07-1.54.62-1.79,1.9ZM35.18,36.83A1,1,0,0,1,34,36c.36-.07.64.31.95.51.17-.08.11-.19,0-.29.68-.29.05.46.2.6ZM9.42,56.71a.2.2,0,0,1-.24-.31c-.25-.58-.7.07-.95-.51l.51-.4c-.15.84.64-.06.95.51-.08.36-.22.27-.51.4l.24.31Zm19-15.59c-.16-.35.26-.66-.27-1,.53.06.35-.57,1-.51.36.32,0,.58.44.91-.87-.44-.48,0-1.14.64ZM17.5,49.9c-.68-.07-1.5.71-2.09.13.72-.21,1.47-.54,2.09-.13ZM35.3,35.23c-.07-.39.16-.77-.39-1.2.27-.26.65-.08.51-.4.5-.18.39.79.56,1.07l-.68.53Zm-21.73,17c-.7.62-2.51,1.55-2.89.5.92,0,1.06-.87,1.8-.15.16-.13,0-.29-.07-.44.77-.44.61.57,1.17.09ZM25.21,40.86c.22-.13.27-.27.22-.42.61.13.48,1.1.8,1.38-.58.62-.38-.66-1-1Zm5.29-3.38c-.42-.72.18-1.35.63-2-.56,1.07.65,2.32,1,2.71-1,.65-.61-1.82-1.65-.72ZM14.66,50.11c-.64.71-3.21,1.13-3.64.59,1.2-.09,2.48-.7,3.64-.59ZM35.49,32.33c-.19-.55.28-1,.7-1.55-.5.69.83,1.53.08,2.2-.56-.49.25-1.24-.78-.65Zm-1.94,2.77c-1.11-.41-.46-2.38.38-2.31l.36.47c-.25.59-1.5.7-.75,1.84ZM44,25.4c-.26-.6,0-1.17.87-1.68A1.63,1.63,0,0,1,44,25.4ZM7.16,55.21c-.21-.24-.38-.66-.66-.49-.18-.43.41,0,.39-.55-.26-.19-.64.28-.83-.36.73-.57,1.12.94,1.82.58C7.58,53.28,9.15,53,10,52.52l.49.62c-1.06-.12-.87,0-.56.69-.5.63-.83-.44-.78-.65-.31.89-.71,2-2,2ZM26,38c.52-.44.9-.06,1.29.25-.93.74-.23.69.05,1.47-.4.31-.29.66-.9,1-.59-1.44-.77-2.16-1.85-3.07-.53-.22.29-1-.32-.76-.11-.68.76,0,1.09-.35.35.76.27,1.48.66,2.24.42-.21.15-.48,0-.73Zm1.61,1c-.24-.26,0-.49-.32-.76.08-.36.22-.27.51-.4.47-.37-.74-.11.1-.58-.22-.17-.53.2-.8.38.35-1.08,0-.87-.46-1.64.33-.2.6,0,.83.36,0-.39.19-.76-.1-1.18-.39.53-.93-.6-.39-1.2.28.64.84.68.58,0,1.13.51.51,1.56,1.8,1.6-.78.2-.5.42-.61,1,.5.34.47-.52.85-.66-.25,1-.39,1.31,1,2.71.36-.31-.44-.72-.56-1.07.79-.17.6.9,1.43,1.14-.06-.09-1,1-.44.84-.55.16-1.31-1-1.63-1.74-.3-.25-.79.59-1-.22-.8.42-.07,1-.82,1.4ZM41.5,28.13c-.49.46.08-.79-.53-.34-.32-.76.69-1.41,1.09-2.1-.25-.57-.62-.43-.9-.8.14-1.49,2.22-2.77,2.4-4.63.64.28.52,1.47,1.46,1.87,0-.39.16-.77.78-1.11,0,.75.2.67.05,1.46-.22.13-.37-.17-.53-.33-.46.26.65.64-.14.86-.59-.05-.16-.36-.32-.75C42.58,24,43.41,25.64,42.26,28c-.1-.25.11-.48,0-.73s-.79.6-.73.82Zm-.43-7.19c.7-.38.39-.85.94-1.24-.23.46.1,2.14-.94,1.24Zm1.6-.75c.38-1.37-.55-.25-.17-1.62.3-.51,1.23.22.68-.53.21-.11.36.22.58,0-.35.77-.89.77-.24,1.44-.55,0-.44.32-.85.66Zm-21.1,15c1,.2,1.26-.34.94-1.24.39.54.93-.4,0-.73.53-.8.66.78,1.12.38-.52.91.3.59.39,1.2-.86-.07-.88.08-1.77.88-.2-.3-.46-.17-.66-.49Zm-2.5,1.7c.28-.61-.11-1.27.46-1.86.16.35-.06.68.27,1,.22.17.53-.2.8-.37.27.72.77.11,1.07.67l-.68.53c0-1.34-.89.21-1.36-.69-.07.37,0,.73-.56.69Zm1.55-2.22c-.62.17-.61-.25-.78-.65.56,0,.5.54.92-.22.7.35-.5.54-.14.86Zm.44-.84a1.06,1.06,0,0,1,.36-1.29c.33.47.37.91-.36,1.29ZM17,48.25c.57-1.52,2.77-.35,4-1.59.6.44-.61.73-.48,1.13.43.1.83.34,1.34,0-.26.6-1.69.73-2.35.84.2-1.36-1.58-.21-2.45-.34ZM44,8.6c-.38.66-.08,2-1.09,2.11,0-.24.26-.47,0-.73,1,0,0-1,1.11-1.37Zm-8.67,1.51a.88.88,0,0,0,.2.6c.3.25.75-.39,1,.22l-1.87,1.46c.1-.62.18-1.07.9-1,.8-.57-1.12-.64-.22-1.33Zm66,99.47c.18.31.78.65.15.89-.13-.11,0-.2,0-.29-.27-.45-.84.89-1,.06.09-.55.38-.15.85-.66Zm-4.69-1.1c.68-.62.68.56.9.8-.39.27-.59-.6-.9-.8Zm-5.49,1a1.3,1.3,0,0,0,.8-.38c.37.37,0,.68-.31,1l-.49-.62Zm14.67-12.72c.24-.26.41-.08.63-.24.22.41.46.82-.19,1.15-.36-.32,0-.58-.44-.91Zm1.45-1.64c.2.45-.37.85-.65,1.26-.39-.47.15-.87.65-1.26Zm-4.22.54c.31-.38.47.11.75-.09-.11,1.18-.37.9-.92,2l-.36-.47c.22-.61.84-.28.44-.84a1.07,1.07,0,0,0,.63-.24.88.88,0,0,1-.53-.33Zm-.81-1.38a1.08,1.08,0,0,0,.63-.24c-.06.55-.59.53.15.89l-.68.53c-.37-.42.23-.76-.1-1.18Zm-30.9,20.64c.75-.12.38.89-.19,1.15-.23-.41.25-.76.19-1.15ZM97.87,92.2c.71-.47.25.58.83.36.14.11,0,.2,0,.29l-.34.27c-.19-.64-.37-.37-.44-.91Zm9.73-15.89c.72-.16.83.56.85,1.09a1.69,1.69,0,0,1-.85-1.09Zm6.23-6.37c.12-.14.21-.06.29,0,.5.34.27-.54.85-.66.12.54-.4,1-1,1.53-.09-.2.26-.37.1-.58l-.24-.31ZM80.49,99c-.86.54-.7,0-1.43.62a1.93,1.93,0,0,0-.92-1.53c.57-.75,1.47.2,2.21,0-1.2.58-.49.51.15.89ZM93.87,84.29c.46.2,1.1-.68,1.46.12-.22.52-1,.1-.68.53-.39,0-.85-.29-.78-.65Zm-.9-.8c1-.6.49,1.41-.19,1.15-.47-.43.8-.72.19-1.15ZM110.17,69.8c.4-.32.71-.12,1.14-.64.18.26.55.53.32.75-.45.35-.73-.48-.68.53-.35.31-.51-.49-.78-.65Zm-8.73,6.32c.5.56-.33,1.51-1,1.53a10.13,10.13,0,0,1,1-1.53ZM110,68.91c.33.93-.68.85-.87,1.68-.73-.64.59-1.12.87-1.68Zm-1.92-1.76c.25.61-.1,1.07.22,1.33-.17.08-.11.19,0,.29a1.53,1.53,0,0,1-1.07-.67c.61-.29.49-.64.9-1Zm18.08-19.9c-1,1.72-1.65.64,0,0ZM108.56,25.4c.38-.23.58.66,1,.23-.83,0-1.14,2.22-2.33,1.57.95-.53,1.33-.91,1.33-1.79Zm2.52-4.48c.65-.08.35,1-.36,1.29-.28-.46.49-.84.36-1.29ZM27.1,80a1.07,1.07,0,0,1,1.12.38c-.48.49-.8.09-1.12-.38ZM104,18.17a1.5,1.5,0,0,0,1-.51c.12.84-.51,1.61-1.43,2.37-.3-.66,1.18-1.17.46-1.86Zm-4.05.41c0,.48.3,2.16-.65,1.26.91-.37-.11-.89.65-1.26Zm2.83-3.72c.39-.27.59.6.9.8a1.51,1.51,0,0,1-.73.82,1.68,1.68,0,0,0-.17-1.62Zm-.75.09c.46.43,0,.78-.48,1.13a.92.92,0,0,1,.48-1.13Zm-.34-1.49c1-.05,0,1,.22,1.33-.77.07,0-1-.22-1.33Zm-4,1.87c.62-.8,1-.09,1.6-.75.24.31-.31.56.15.89q-.52.48-.87-.07c0,1-1.26.94-1.33,1.79-1.15-1,1.45-1,.46-1.86Zm2.52-2.72c0,.76.27.11.63-.24.33.73-.39.83-.94,1.24,0-.34-.13-.69.31-1Zm-7.84,1.86c.27-.13.45.28.66.49-.46.26-.15.57-.73.82-.33-.27-.2-.5-.32-.76.36.14,1.05.06.39-.55Zm-2-.45c.33.68-1.38,2.18-1.79,1.9.4-1,1.15-1,1.79-1.9ZM19,69.3c.61-.62.28.53.9.8-.43.52-.66-.17-1.09.35-.38-1,1.3-.09.19-1.15Zm.31-1,.51-.4c1,.54,1.16.38,1.51,1.58-.68-.2-.74-.81-1.29-.25-.19-.64-.26-.36-.73-.93Zm69.43-56c.33-.2.6,0,.83.36-.24.28-.42.13-.58,0a1.29,1.29,0,0,1-.56.69c-.66.17.64-.71.31-1ZM87.35,9.11c-.68.66-.74-.2-1.14.64-.59-.38,1-1.6,1.14-.64Zm-.9-.8c.24.85-1.35,1.55-1.72,2.35-.33-.36.67-1.44-.49-.62a11,11,0,0,1,2.21-1.72ZM84.7,6.41a4.39,4.39,0,0,1-1.24,1.22c1,.57-.28,1-.24,1.44C84,8.59,85,8.19,85.3,7.19c-.57-.37-.69,0-.61-.78ZM10.77,61.93c.35-.06.75-.39,1,.23-.75-.08-.21.74.29,0l.36.47c-.32.14-.53-.38-.92.22-.47-.57-.54-.3-.73-.94Zm73.9-58c1-.55.08,1,.17,1.62-1.43-.56-.34-2.17.07-3.06a1.45,1.45,0,0,1-.24,1.44Zm-7.51-.16.37.47c-.44.31-.76.12-.56.69-.21.11-.36-.22-.58,0,0-.39.59-.73.77-1.11Zm-12.5,6.76c.22.41.46.82-.19,1.15a.78.78,0,0,1,.19-1.15ZM2.46,58.64c.59-.41,1.4.46.73.93-.19-.64-.26-.36-.73-.93ZM74.75,1.39C75.69.8,76.52.8,77.49,0c.24.26,0,.49.32.75.32-.22.21-.47.56-.69.65,1,2.87.21,1.46,1.87-.2-.55-.56-.22-.78-.65-.08.22-.16.43-.34.27-.18.18.08.4.2.6-.67.24-.41.4-1,.51-.11-.25.32-.46.56-.69-.82.39-.79-.41-1.65-.72-.4.31-.29.66-.9,1-.29-.89-.87-.09-1.19-.83ZM15.38,45.78c.44-.26.83-.25,1.31-.77.4.23.85.19,1.19.82.22-.13.28-.27.22-.42.89-.18-.24.9-.56.69-.35-.41,0-.53-.49-.62-.18.65-1.16.4-1.68.31Zm-14.13,5c.63-.11,1.75.13,1.77.87-.61.42-.9-1.08-1.63,0-.58-.34,0-.59-.15-.89Zm.26-2.46c.27-.11,1.06,1,.22,1.33a3.93,3.93,0,0,1-.22-1.33Zm-1.09.35c.94-.35.81.93,1.1,1.4C1,50.19.38,49,.42,48.69ZM49,11.77,48.35,11c.53-.62,1.49.75,1.26-.48.65-.17.41.8.56,1.07-.4,0-.75-.23-1.21.2ZM.2,47.36c.33.47-.51.84-.07,1.31.61-.33.3-.7.85-.66-.27-.15-.43-1-.78-.65ZM23.9,30.09a7.69,7.69,0,0,0-.92.22,1,1,0,0,0-.32-.76c1.46-1.24,1.44,1.06,2,1.47,0,.61-.67-.92-.92.22a1.87,1.87,0,0,1,.19-1.15ZM45.53,10.18c.26.57.11.39.61.78-.69-.32-1.5.15-2.31.55,0-.69,1-1.11,1.7-1.33ZM21.35,28.58c1.09-.51.38,1,.22,1.33.53.58.45-.63.87.07-.22.13-.27.27-.22.42-.4,0-.75-.23-1.21.2-.29-.85,1-1.51.34-2Zm0,.29c-.61.08-.45-1,.07-1.31.59.48-.38.85-.07,1.31ZM41,9.68c.77-.49,1.36.12,2.09-.13-.48-.33-.08-.59-.44-.91-.55.85-1.62.37-1.65,1ZM24.27,22.53c-.15-.69.55.69.92-.22.56.43.22.8.68,1.22-.76-.43-.7,0-1.14.64C23.42,23.57,25.26,23.32,24.27,22.53Z"/><path class="cls-2" d="M105,44l-.65-15.48c-6.68.4-15.14-.61-18.08-.11-2.49,1.12-6.93,2.18-7.47,3.36-.18,2.6-.2,5.2-.38,7.8-3.18,5.52-6.52,11-9.69,16.57-1,2.06,2,3.21,4.33.76l8.77-9.1,1.84-.22-6.61,6.93c-1.75,1.92-.14,5.05,3,3.25l9.53-9.42.32.76c-2.06,2-3.84,3.88-5.9,5.9-1.35,2.29.61,4.42,3.41,3.09,6.17-6.93,10.61-9.26,13.64-14Z"/><path class="cls-3" d="M78.56,38.48l.11-3.57a1.58,1.58,0,0,1,1.52.08v3.33A1.37,1.37,0,0,1,78.56,38.48Z"/><path class="cls-2" d="M73.13,48.62c-1.47,2.5-2.94,5-4.38,7.49-1,2.06,2,3.21,4.33.76l8.77-9.1,1.84-.22-6.61,6.93c-1.75,1.92-.14,5.05,3,3.25l8.93-8.83a12,12,0,0,0-8-1.16,23.47,23.47,0,0,1-7.91.88Zm16.61.68a16.87,16.87,0,0,1,3.51,3,77.49,77.49,0,0,0-5.77,5.8c-2.8,1.34-4.76-.8-3.41-3.09C86.05,53,87.78,51.24,89.74,49.31Z"/><rect class="cls-4" x="103.89" y="28.1" width="2.87" height="16.87"/><rect class="cls-5" x="105.35" y="27.61" width="11.26" height="19.33"/><circle class="cls-6" cx="108.01" cy="44.12" r="0.97"/><path class="cls-7" d="M77.83,39.5q0,.5-.06,1L76.32,43a3.58,3.58,0,0,1-.57,1c-2.17,3.7-4.38,7.41-6.53,11.11a22.32,22.32,0,0,0,7.06-2.31q.62-.25,1.23-.43l3.61-3.74,1.81-.21-3.37,3.54a11.15,11.15,0,0,1,5.58.82l3.65-3.61.19.44.73-9.6c-2.9,1-5.53,1.16-7.73.16a4.47,4.47,0,0,1-4.16,1.15c0-.61,0-1.2,0-1.79ZM88.95,50.05l-.36,4.67a17.55,17.55,0,0,0-2.68-1.63C86.9,52.09,87.89,51.09,88.95,50.05Z"/><path class="cls-8" d="M60,51.32C60.47,46.26,61,41.07,61.54,36l1.41-1.08C71,41.34,77.7,42.8,89.23,39L88.09,54c-3.71-2.7-7.76-3.87-12.5-2C68.52,55.5,63.33,55.24,60,51.32Z"/><polygon class="cls-3" points="62.01 35.64 60.43 50.25 61.73 35.86 62.01 35.64"/><polygon class="cls-3" points="62.5 35.26 60.91 49.87 62.21 35.48 62.5 35.26"/><path class="cls-8" d="M61.37,50.24c.51-5.05,1.07-10.25,1.58-15.31,2.73,2.36,5.75,3.51,9,2.66.41,2,.7,3.89,1.11,5.89a4,4,0,0,0,4.05-5.4c.49-.2,1-.39,1.5-.65,0,.6,0,1.2,0,1.82a4.54,4.54,0,0,0,4.23-1.16c2.24,1,4.91.81,7.86-.16l-1.15,15c-3.71-2.7-7.76-3.87-12.5-2C69.93,54.42,64.73,54.16,61.37,50.24Z"/><path class="cls-9" d="M67,38.86a9.45,9.45,0,0,0,5.18.45L73,43.44c2.92-.15,4.8-1.88,4.13-5.17l.78-.18.68-.15c0,.44,0,.87,0,1.32a4.57,4.57,0,0,0,4.19-1.12c1,.55,2.12.74,4.65.57a2.83,2.83,0,0,0,1.66,2.63c-.26,2-.06,4.79-.34,6.8-1.43-.68-2.8-.65-2.72,1-3.51-1.39-7.86-.34-10.84.63-2.71.89-5.65,3-10.33,1.29a2,2,0,0,0-1.89-2.91c.08-1,.36-3,.42-4s.42-3.25.51-4.21C64.69,40.1,66,41,67,38.86Z"/><path class="cls-8" d="M63.39,44.39c1.59-5.05,3.45-10,5-15,.56-.28,1.28-.69,1.74-.9l6.45,13.42,17.87,6.23-1,4.56-1.9.39c-3.22-3.54-7.11-5.59-12.34-4.66C71.25,50.47,66,49.11,63.39,44.39Z"/><path class="cls-8" d="M65.23,43.74c1.59-5.05,3.26-10.24,4.85-15.3,2.29,3,5.13,4.8,8.58,4.6,0,2.13-.11,4.12-.11,6.25a4.17,4.17,0,0,0,5.28-4.66,10.07,10.07,0,0,0,3.71-1.19c2,3.53,5.69,4.41,10.18,3.9L93.39,52.41c-3.22-3.54-7.11-5.59-12.34-4.66C73.09,49.82,67.84,48.46,65.23,43.74Z"/><path class="cls-9" d="M73.41,33.32a9.86,9.86,0,0,0,5.2,1.55l-.08,4.38c3,.46,5.3-.91,5.3-4.4l.84,0c1.24,0,2.53,0,3.88,0,1.39,1.48,2.07,2.12,5.69,2.61a3,3,0,0,0,1.14,3c-.69,2-1.07,4.88-1.78,6.87-1.32-1-2.72-1.26-3,.42-3.29-2.16-8-2-11.21-1.64-3,.33-6.41,1.92-10.82-.86.95-1.42.38-3.15-1.31-3.37.29-1,1-3,1.27-4s1.11-3.23,1.41-4.19C70.77,34.1,71.88,35.32,73.41,33.32Z"/><polygon class="cls-3" points="68.97 29.1 64.29 43.03 68.65 29.26 68.97 29.1"/><polygon class="cls-3" points="69.53 28.84 64.84 42.76 69.21 28.99 69.53 28.84"/><path class="cls-7" d="M78.77,39.35a4.16,4.16,0,0,0,5.06-4.7,10.07,10.07,0,0,0,3.71-1.19c2,3.53,5.69,4.41,10.18,3.9l-.18.64c-4.31.41-7.8-.52-9.78-3.94A10.06,10.06,0,0,1,84,35.24a4.17,4.17,0,0,1-5.28,4.66Q78.77,39.62,78.77,39.35Z"/><path class="cls-10" d="M44.08,83l.09-12.11,4.53.06a13,13,0,0,1,5.35-5.54c3.08-.92,9.12-.08,13.65-.5,1.21,1.36-.14,4.19-2.26,4.65-2.58.42-6.54-.1-9.25.31l-.31.63,19.59-.25c1.22-.88,2.41-2.25,4.31-4,1.72-2.62,5-2.2,6.6.13-2.91,3.05-6,7.08-8.68,9.15a48.7,48.7,0,0,1-7,.13l-.72.72a60.84,60.84,0,0,0,6.86-.06,7.13,7.13,0,0,1-3.33,3.33,14.69,14.69,0,0,1-3.84-.09l-.72.57a20.57,20.57,0,0,0,4.12.19,7,7,0,0,1-3.33,3.43c-1.86.32-16.1.49-16.64-.16a2.05,2.05,0,0,0-1.57-.94Z"/><rect class="cls-6" x="41.81" y="69.75" width="3.03" height="16.68"/><rect class="cls-11" x="31.2" y="68.29" width="12.02" height="20.47"/><circle class="cls-6" cx="39.59" cy="86.42" r="1.25"/><path class="cls-9" d="M17.54,38a.92.92,0,1,0,0-1.84H15.47a16.41,16.41,0,0,0,0,1.83h2.06Zm30.81,0h.07a16.4,16.4,0,0,0,0-1.83H46.35a.92.92,0,0,0,0,1.84ZM31,20.59s0,0,0,.06v2a.92.92,0,0,0,1.84,0v-2s0,0,0-.07a16.64,16.64,0,0,0-1.83,0Zm1.83,32.93s0,0,0-.06v-2a.92.92,0,0,0-1.84,0v2s0,0,0,.07a16.44,16.44,0,0,0,1.83,0ZM30.92,19.74v-3.3a2.6,2.6,0,0,0,0-.47l1.07,0A21.12,21.12,0,1,1,11.4,32.17h3.9A17.35,17.35,0,1,0,30.92,19.74Z"/><path class="cls-9" d="M30.53,38.32A1.95,1.95,0,0,0,34,36.82a2,2,0,0,0-.17-.58l-.6.5h0a1.19,1.19,0,1,1-.63-.75h0l.59-.5a1.94,1.94,0,0,0-2.32.05l-.06,0a2,2,0,0,0-.24,2.75Zm-.13-3.89a3.08,3.08,0,0,1,.49-.24l.49-9.1a.54.54,0,0,1,1.09,0l.7,9.12a3.12,3.12,0,0,1,.87.53l5.3-4.45A.5.5,0,0,1,40,31l-5.3,4.45a3.08,3.08,0,0,1,.39,2.13l5.51,3.92a.54.54,0,0,1-.55.94l-6.11-3-.27.19a3.1,3.1,0,0,1-3.25-5.28Z"/><path class="cls-9" d="M24.84,21.58a1.34,1.34,0,0,1,0,.43c0,.09-.12.13-.26.13h-.59a.28.28,0,0,1-.24-.1.66.66,0,0,1-.07-.37v-3a1,1,0,0,0-.17-.57.66.66,0,0,0-.59-.25.85.85,0,0,0-.4.09.93.93,0,0,0-.29.23,1.07,1.07,0,0,0-.18.31,1,1,0,0,0-.06.33v2.9a.73.73,0,0,1-.06.35.25.25,0,0,1-.23.1h-.55a.31.31,0,0,1-.28-.1.68.68,0,0,1-.07-.35V15.33a.59.59,0,0,1,.07-.31.3.3,0,0,1,.28-.11h.55a.3.3,0,0,1,.23.08.53.53,0,0,1,.07.34v1.83a1.81,1.81,0,0,1,1.37-.52,1.93,1.93,0,0,1,.61.09,1.13,1.13,0,0,1,.48.31,1.53,1.53,0,0,1,.32.56,2.55,2.55,0,0,1,.12.82v3.16Zm1.54-10.26H7.94a2.41,2.41,0,0,0-2.41,2.41V27.41a2.41,2.41,0,0,0,2.41,2.41H26.38a2.41,2.41,0,0,0,2.41-2.41V13.72A2.41,2.41,0,0,0,26.38,11.32Z"/><text class="cls-12" transform="translate(3.04 27.47)">48</text></g></g></svg>