<?xml version="1.0" encoding="utf-8"?>
<!-- Generator: Adobe Illustrator 16.0.0, SVG Export Plug-In . SVG Version: 6.00 Build 0)  -->
<!DOCTYPE svg PUBLIC "-//W3C//DTD SVG 1.1//EN" "http://www.w3.org/Graphics/SVG/1.1/DTD/svg11.dtd">
<svg version="1.1" id="Layer_1" xmlns="http://www.w3.org/2000/svg" xmlns:xlink="http://www.w3.org/1999/xlink" x="0px" y="0px"
	 width="31.718px" height="33px" viewBox="0 0 31.718 33" enable-background="new 0 0 31.718 33" xml:space="preserve">
<g>
	<path fill-rule="evenodd" clip-rule="evenodd" fill="#08366B" d="M29.862,5.461c-1.088-0.078-1.925,0.178-2.557,1.469
		c-1.236,2.527-1.803,3.921-3.896,4.693c-1.159,0.428-1.502,1.251-1.422,2.262c0.086,0.407,0.193,0.715,0.309,0.977
		c0.457,0.334,0.924,0.649,1.402,0.937c0.348,0.209,0.517,0.288,0.467,0.369c-0.187,0.307-0.61,0.52-0.894,0.593
		c-0.562-0.055-1.969-0.762-2.948-1.353l0.216-0.229c-1.302-1.021-2.657-2.369-3.718-3.623l-0.318,0.358l-0.039-0.035
		c-1.043-1.526-1.272-2.284-1.483-3.023c0.022-0.127,0.091-0.234,0.312-0.528c0.223-0.298,0.402-0.366,0.643,0.003
		c0.402,0.62,0.812,1.189,1.23,1.741l0.002-0.005c1.58,0.473,2.723,0.077,3.109-1.248c0.578-1.982,1.855-2.782,4.361-4.141
		c1.066-0.579,1.592-1.626,1.389-2.906l-0.054-0.042c-0.606-0.545-1.124-1.052-1.608-1.546c0.547-0.277,1.236-0.369,2.77,0.644
		c0.49,0.348,0.974,0.715,1.438,1.107c0.048-0.042,0.104-0.097,0.145-0.137c-0.057-0.145,0.127-0.282,0.217-0.356
		c0.047-0.039,0.121-0.052,0.184-0.012c0.43,0.277,0.815,0.624,1.09,1.066c0.049,0.079,0.01,0.143-0.027,0.185
		c-0.07,0.081-0.266,0.298-0.37,0.216l0,0l-0.098,0.098c0.717,0.741,1.354,1.567,1.865,2.509c0.226,0.416,0.146,0.899-0.001,1.405
		c-0.07,0.237-0.193,0.182-0.346-0.011c-0.399-0.503-0.839-0.959-1.279-1.343L29.862,5.461z"/>
	<path fill-rule="evenodd" clip-rule="evenodd" fill="#08366B" d="M6.111,28.649c4.223-4.136,8.578-8.651,12.836-13.112
		c-0.969-0.708-1.948-1.68-2.693-2.604c-4.217,4.618-8.609,9.376-12.615,14.063C1.744,29.211,0.396,31.613,0,33
		C1.787,32.344,3.897,30.817,6.111,28.649z"/>
</g>
</svg>
