<?xml version="1.0" encoding="utf-8"?>
<!-- Generator: Adobe Illustrator 16.0.0, SVG Export Plug-In . SVG Version: 6.00 Build 0)  -->
<!DOCTYPE svg PUBLIC "-//W3C//DTD SVG 1.1//EN" "http://www.w3.org/Graphics/SVG/1.1/DTD/svg11.dtd">
<svg version="1.1" id="Слой_1" xmlns="http://www.w3.org/2000/svg" xmlns:xlink="http://www.w3.org/1999/xlink" x="0px" y="0px"
	 width="141.121px" height="56.813px" viewBox="0 0 141.121 56.813" enable-background="new 0 0 141.121 56.813"
	 xml:space="preserve">
<g>
	<path fill-rule="evenodd" clip-rule="evenodd" fill="#0B376C" d="M19.687,34.862l-3.526-0.681l-4.484-9.792l1.486,0.211
		l0.322-3.377l-3.184-1.535l0.61-1.183l3.295,2.022l13.271-0.294l0.003-1.107l14.192,0.07l-0.143,2.196l56.601,0.215l4.623-2.614
		l3.63,0.075l0.044,2.572l3.086,2.093l4.807,0.237l1.075,2.232l0.677,1.414l0.979,2.036l6.812-0.212l2.758,2.716l-1.392,0.229
		l0.417,3.967l1.379,0.035c0.26,2.059,1.392,7.041-0.841,10.739c-0.733,1.224-4.617,2.963-7.361,4.629
		c-2.796,1.7-9.044,5.121-13.901,5.055c-20.478-0.283-42.868-0.656-63.352-0.422c-6.036,0.07-12.054-5.447-15.684-7.581
		c-2.122-1.246-2.204-7.37-2.204-7.37s-2.318-2.432-2.103-5.26l-1.356-0.204L19.687,34.862L19.687,34.862z M126.742,42.32
		c0-2.806-2.277-5.082-5.085-5.082s-5.078,2.275-5.078,5.082c0,2.808,2.271,5.082,5.078,5.082S126.742,45.128,126.742,42.32
		L126.742,42.32z M102.918,43.849c-1.271-1.341-3.067-2.177-5.053-2.177c-1.922,0-3.662,0.778-4.92,2.035
		c-1.258-1.257-2.991-2.035-4.914-2.035c-1.847,0-3.529,0.721-4.775,1.899c-1.246-1.178-2.928-1.899-4.775-1.899
		c-1.777,0-3.402,0.669-4.637,1.77c-1.227-1.101-2.852-1.77-4.632-1.77c-1.9,0-3.627,0.764-4.879,2.002
		c-1.258-1.238-2.982-2.002-4.882-2.002c-1.903,0-3.627,0.764-4.882,2c-1.252-1.237-2.979-2-4.879-2
		c-1.515,0-2.918,0.486-4.06,1.308c-1.262-1.742-3.317-2.875-5.631-2.875c-2.628,0-4.914,1.458-6.097,3.608
		c-0.035-2.22-1.847-4.008-4.073-4.008c-2.251,0-4.073,1.823-4.073,4.073c0,2.25,1.822,4.073,4.073,4.073
		c1.341,0,2.523-0.647,3.27-1.643c-0.035,0.278-0.051,0.562-0.051,0.849c0,3.84,3.112,6.954,6.951,6.954
		c1.518,0,2.915-0.484,4.06-1.308c1.265,1.742,3.314,2.876,5.631,2.876c1.901,0,3.627-0.764,4.879-2.003
		c1.255,1.24,2.979,2.003,4.882,2.003c1.9,0,3.624-0.765,4.882-2.003c1.252,1.238,2.979,2.003,4.879,2.003
		c1.78,0,3.405-0.67,4.632-1.771c1.235,1.101,2.86,1.771,4.637,1.771c1.847,0,3.529-0.723,4.775-1.9
		c1.246,1.178,2.928,1.9,4.775,1.9c1.922,0,3.655-0.778,4.914-2.037c1.259,1.259,2.998,2.037,4.92,2.037
		c1.986,0,3.782-0.838,5.053-2.18c1.265,1.342,3.061,2.18,5.053,2.18c3.839,0,6.95-3.113,6.95-6.955c0-3.839-3.111-6.952-6.95-6.952
		C105.979,41.672,104.183,42.508,102.918,43.849z"/>
	<rect x="113.72" y="25.917" fill-rule="evenodd" clip-rule="evenodd" fill="#2C3D5A" width="7.279" height="1.123"/>
	<path fill-rule="evenodd" clip-rule="evenodd" fill="#0B376C" d="M53.401,0.196c-0.98,1.113,1.205,1.227,1.17,1.996
		c-0.063,1.382-1.67,3.002-1.67,3.002s-2.381,2.618-2.457,2.844c-1.806,5.411-3.542,7.134-4.765,12.261l39.93,0.119l0.449-1.724
		l3.017,0.162c0,0,3.478-2.581,3.82-2.581h0.48c0.67,0,1.214-0.544,1.214-1.211v-0.56l29.92,0.422v0.194
		c0,0.623,2.611,0.574,3.237,0.574h4.465c0.62,0,1.139,0.049,1.139-0.574v-3.222c0-0.623-0.519-0.575-1.139-0.575h-3.623
		c0,0-4.079-0.048-4.079,0.575v0.016h-29.92v-0.204c0-0.667-0.544-1.213-1.214-1.213h-0.48c-0.095,0-3.978-2.096-4.06-2.077
		c-0.165-0.633-8.684-0.848-8.684-0.848l-2.39-2.111l-8.432-0.126l-2.751-2.751L67.052,0C67.052,0,57.085,0.035,53.401,0.196
		L53.401,0.196z M128.993,14.751v-2.528h2.953v2.528H128.993z"/>
	<path fill-rule="evenodd" clip-rule="evenodd" fill="#0B376C" d="M46.501,47.378c0-1.426-0.579-2.719-1.515-3.655
		c-0.936-0.935-2.226-1.513-3.656-1.513c-1.426,0-2.719,0.579-3.655,1.513c-0.936,0.936-1.512,2.229-1.512,3.655
		c0,1.43,0.576,2.721,1.512,3.656c0.936,0.936,2.229,1.515,3.655,1.515c1.43,0,2.72-0.579,3.656-1.515
		C45.923,50.099,46.501,48.808,46.501,47.378L46.501,47.378z M65.401,47.378c0-1.426-0.576-2.719-1.512-3.655
		c-0.936-0.935-2.229-1.513-3.655-1.513c-1.429,0-2.719,0.579-3.655,1.513c-0.936,0.936-1.515,2.229-1.515,3.655
		c0,1.43,0.579,2.721,1.515,3.656c0.936,0.936,2.226,1.515,3.655,1.515c1.426,0,2.72-0.579,3.655-1.515
		C64.826,50.099,65.401,48.808,65.401,47.378L65.401,47.378z M69.189,47.378c0,4.947-4.009,8.958-8.955,8.958
		c-4.949,0-8.958-4.011-8.958-8.958c0-4.945,4.009-8.957,8.958-8.957C65.18,38.421,69.189,42.433,69.189,47.378L69.189,47.378z
		 M84.306,47.378c0-1.426-0.582-2.719-1.518-3.655c-0.936-0.935-2.226-1.513-3.655-1.513c-1.423,0-2.719,0.579-3.655,1.513
		c-0.935,0.936-1.513,2.229-1.513,3.655c0,1.43,0.579,2.721,1.513,3.656c0.936,0.936,2.232,1.515,3.655,1.515
		c1.429,0,2.72-0.579,3.655-1.515C83.724,50.099,84.306,48.808,84.306,47.378L84.306,47.378z M88.094,47.378
		c0,4.947-4.009,8.958-8.961,8.958c-4.947,0-8.957-4.011-8.957-8.958c0-4.945,4.009-8.957,8.957-8.957
		C84.085,38.421,88.094,42.433,88.094,47.378L88.094,47.378z M103.203,47.378c0-1.426-0.576-2.719-1.512-3.655
		c-0.936-0.935-2.226-1.513-3.655-1.513s-2.72,0.579-3.655,1.513c-0.936,0.936-1.512,2.229-1.512,3.655
		c0,1.43,0.576,2.721,1.512,3.656c0.936,0.936,2.226,1.515,3.655,1.515s2.719-0.579,3.655-1.515
		C102.627,50.099,103.203,48.808,103.203,47.378L103.203,47.378z M106.991,47.378c0,4.947-4.01,8.958-8.955,8.958
		c-4.946,0-8.955-4.011-8.955-8.958c0-4.945,4.009-8.957,8.955-8.957C102.981,38.421,106.991,42.433,106.991,47.378L106.991,47.378z
		 M50.292,47.378c0,4.947-4.013,8.958-8.961,8.958c-4.945,0-8.955-4.011-8.955-8.958c0-4.945,4.01-8.957,8.955-8.957
		C46.28,38.421,50.292,42.433,50.292,47.378z"/>
</g>
</svg>
