<?xml version="1.0" encoding="utf-8"?>
<!-- Generator: Adobe Illustrator 16.0.0, SVG Export Plug-In . SVG Version: 6.00 Build 0)  -->
<!DOCTYPE svg PUBLIC "-//W3C//DTD SVG 1.1//EN" "http://www.w3.org/Graphics/SVG/1.1/DTD/svg11.dtd">
<svg version="1.1" id="Слой_1" xmlns="http://www.w3.org/2000/svg" xmlns:xlink="http://www.w3.org/1999/xlink" x="0px" y="0px"
	 width="60px" height="60px" viewBox="0 0 60 60" enable-background="new 0 0 60 60" xml:space="preserve">
<g>
	<path fill-rule="evenodd" clip-rule="evenodd" fill="#0B376C" d="M24.135,23.093c0.573-0.654,1.055-1.358,1.449-2.107h8.804
		c0.377,0.769,0.85,1.515,1.426,2.234c0.362,0.446,0.713,0.892,1.055,1.335c-3.205-2.312-4.885,0.104-1.407,3.622
		c-5.625-0.02-5.615,3.68,0.153,3.677c-4.113,4.077-1.527,6.751,2.466,2.739c-0.069,5.68,3.638,5.683,3.68-0.117
		c0.456,0.462,0.896,0.844,1.309,1.146c0.778,2.885,0.769,5.807-0.277,8.92l0.023-0.062c-0.766-0.361-2.244,0.095-4.006,1.808
		c0.059-5.602-3.654-5.585-3.68,0.169c-4.022-4.12-6.7-1.547-2.762,2.439c-2.159-0.007-3.489,0.537-3.979,1.205
		c-2.89-0.104-8.596-0.456-9.329-1.547c-0.117-0.205-0.228-0.41-0.337-0.615c0.441-0.713,0.757-1.899,0.769-3.57
		c4.064,4.14,6.724,1.56,2.728-2.475c5.661,0.107,5.656-3.612-0.133-3.68c4.143-4.009,1.576-6.673-2.451-2.749
		c0.024-2.283-0.578-3.631-1.301-4.042l-0.098,0.202C19.587,28.786,21.614,25.975,24.135,23.093L24.135,23.093z M40.723,48.783
		c-0.729-1.365-2.169-2.296-3.827-2.296c-2.163,0-3.954,1.586-4.283,3.654C35.395,50.095,39.518,49.848,40.723,48.783L40.723,48.783
		z M38.108,26.193c-1.453,0.704-2.453,2.188-2.453,3.908c0,2.394,1.941,4.335,4.335,4.335c0.902,0,1.746-0.28,2.439-0.752
		C41.472,31.222,39.977,28.757,38.108,26.193L38.108,26.193z M18.661,47.819c-0.051-0.095-0.1-0.192-0.148-0.287
		C18.561,47.626,18.61,47.724,18.661,47.819L18.661,47.819z M17.175,44.298c0.179,0.022,0.36,0.032,0.546,0.032
		c2.392,0,4.334-1.938,4.334-4.332c0-2.394-1.942-4.334-4.334-4.334c-0.324,0-0.64,0.036-0.943,0.101
		C16.159,38.514,16.237,41.331,17.175,44.298z"/>
	<path fill-rule="evenodd" clip-rule="evenodd" fill="#0B376C" d="M25.526,7.796c1.34,3.875,1.738,7.367,1.084,10.347h6.808
		c-0.665-3.23-0.146-6.774,1.084-10.35c0.671-1.951,2.729-4.944,4.439-5.833C34.249,1.94,25.653,1.976,20.96,1.956
		C22.608,2.607,24.881,5.933,25.526,7.796L25.526,7.796z M22.056,39.999c0-1.746-1.031-3.247-2.513-3.934
		c-0.554-0.257-1.172-0.4-1.822-0.4c-0.324,0-0.64,0.036-0.943,0.101c-0.023,0.101-0.046,0.199-0.065,0.3
		c-0.547,2.651-0.441,5.371,0.462,8.233c0.179,0.022,0.36,0.032,0.546,0.032C20.113,44.331,22.056,42.393,22.056,39.999
		L22.056,39.999z M35.655,30.102c0,2.394,1.941,4.335,4.335,4.335c0.905,0,1.746-0.28,2.439-0.752
		c-0.958-2.462-2.453-4.927-4.322-7.491C36.655,26.897,35.655,28.382,35.655,30.102L35.655,30.102z M36.896,46.487
		c-2.163,0-3.954,1.586-4.283,3.654c2.781-0.046,6.904-0.293,8.109-1.358C39.994,47.418,38.554,46.487,36.896,46.487L36.896,46.487z
		 M38.704,52.603c-4.875,0.563-12.456,0.622-17.33-0.065c0.759,1.439,1.418,2.843,1.974,4.208c3.491,0.326,9.804,0.3,13.503,0
		C37.404,55.358,38.033,53.971,38.704,52.603z"/>
</g>
</svg>
